<svg width="1178" height="563" viewBox="0 0 1178 563" fill="none" xmlns="http://www.w3.org/2000/svg">
<rect width="1178" height="563" fill="white"/>
<path d="M308 8H8V555H308V8Z" fill="#F2F5F7" stroke="#C3CFD9" stroke-width="2"/>
<path d="M61 69C74.2548 69 85 58.2548 85 45C85 31.7452 74.2548 21 61 21C47.7452 21 37 31.7452 37 45C37 58.2548 47.7452 69 61 69Z" fill="#CED8E0"/>
<g clip-path="url(#clip0_2_4758)">
<path d="M66.7705 48.1783C65.599 47.755 63.6467 47.25 61 47.25C58.3533 47.25 56.401 47.755 55.2295 48.1783C54.3445 48.4983 53.75 49.3482 53.75 50.2935V52.5C53.75 52.638 53.862 52.75 54 52.75H68C68.138 52.75 68.25 52.638 68.25 52.5V50.2935C68.25 49.3482 67.6555 48.4983 66.7705 48.1783Z" fill="#444444"/>
<path d="M61 45.75C63.0677 45.75 64.75 44.0677 64.75 42V41C64.75 38.9323 63.0677 37.25 61 37.25C58.9323 37.25 57.25 38.9323 57.25 41V42C57.25 44.0677 58.9323 45.75 61 45.75Z" fill="#444444"/>
</g>
<path d="M249 93H37V104H249V93Z" fill="#CED8E0"/>
<path d="M204 117.5H37V128.5H204V117.5Z" fill="#CED8E0"/>
<path d="M218 142H37V153H218V142Z" fill="#CED8E0"/>
<path d="M174 166.5H39V177.5H174V166.5Z" fill="#CED8E0"/>
<path d="M195 191H39V202H195V191Z" fill="#CED8E0"/>
<path d="M204 215.5H37V226.5H204V215.5Z" fill="#CED8E0"/>
<path d="M218 240H37V251H218V240Z" fill="#CED8E0"/>
<path d="M220 264.5H39V275.5H220V264.5Z" fill="#CED8E0"/>
<path d="M204 289H37V300H204V289Z" fill="#CED8E0"/>
<path d="M1170 8H308V77H1170V8Z" stroke="#C3CFD9" stroke-width="2"/>
<path d="M444 37.25H370V48.25H444V37.25Z" fill="#CED8E0"/>
<path d="M546 37.25H472V48.25H546V37.25Z" fill="#CED8E0"/>
<path d="M648 37.25H574V48.25H648V37.25Z" fill="#CED8E0"/>
<path d="M750 37.25H676V48.25H750V37.25Z" fill="#CED8E0"/>
<path d="M1091 24.75H935C925.059 24.75 917 32.8089 917 42.75C917 52.6911 925.059 60.75 935 60.75H1091C1100.94 60.75 1109 52.6911 1109 42.75C1109 32.8089 1100.94 24.75 1091 24.75Z" fill="white"/>
<path d="M1091 24.75H935C925.059 24.75 917 32.8089 917 42.75C917 52.6911 925.059 60.75 935 60.75H1091C1100.94 60.75 1109 52.6911 1109 42.75C1109 32.8089 1100.94 24.75 1091 24.75Z" fill="#C3CFD9"/>
<path d="M1170 77H308V555H1170V77Z" stroke="#C3CFD9" stroke-width="2"/>
<defs>
<clipPath id="clip0_2_4758">
<rect width="16" height="16" fill="white" transform="translate(53 37)"/>
</clipPath>
</defs>
</svg>
