<svg width="1178" height="582" viewBox="0 0 1178 582" fill="none" xmlns="http://www.w3.org/2000/svg">
<rect width="1178" height="582" fill="white"/>
<path d="M308 17H8V564H308V17Z" fill="#F2F5F7" stroke="#C3CFD9" stroke-width="2"/>
<path d="M249 126H37V137H249V126Z" fill="#CED8E0"/>
<path d="M204 150.5H37V161.5H204V150.5Z" fill="#CED8E0"/>
<path d="M218 175H37V186H218V175Z" fill="#CED8E0"/>
<path d="M174 199.5H39V210.5H174V199.5Z" fill="#CED8E0"/>
<path d="M195 224H39V235H195V224Z" fill="#CED8E0"/>
<path d="M204 248.5H37V259.5H204V248.5Z" fill="#CED8E0"/>
<path d="M218 273H37V284H218V273Z" fill="#CED8E0"/>
<path d="M220 297.5H39V308.5H220V297.5Z" fill="#CED8E0"/>
<path d="M204 322H37V333H204V322Z" fill="#CED8E0"/>
<path d="M50.9602 55.2273V70.5H49.1705L40.848 58.5085H40.6989V70.5H38.8494V55.2273H40.6392L48.9915 67.2486H49.1406V55.2273H50.9602ZM59.0757 70.7386C58.0416 70.7386 57.1343 70.4925 56.3538 70.0004C55.5782 69.5082 54.9717 68.8196 54.5342 67.9347C54.1017 67.0497 53.8854 66.0156 53.8854 64.8324C53.8854 63.6392 54.1017 62.5977 54.5342 61.7077C54.9717 60.8178 55.5782 60.1268 56.3538 59.6346C57.1343 59.1424 58.0416 58.8963 59.0757 58.8963C60.1098 58.8963 61.0146 59.1424 61.7902 59.6346C62.5708 60.1268 63.1773 60.8178 63.6098 61.7077C64.0473 62.5977 64.2661 63.6392 64.2661 64.8324C64.2661 66.0156 64.0473 67.0497 63.6098 67.9347C63.1773 68.8196 62.5708 69.5082 61.7902 70.0004C61.0146 70.4925 60.1098 70.7386 59.0757 70.7386ZM59.0757 69.1577C59.8612 69.1577 60.5075 68.9563 61.0146 68.5536C61.5218 68.1509 61.8971 67.6214 62.1407 66.9652C62.3843 66.3089 62.5061 65.598 62.5061 64.8324C62.5061 64.0668 62.3843 63.3533 62.1407 62.6921C61.8971 62.0309 61.5218 61.4964 61.0146 61.0888C60.5075 60.6811 59.8612 60.4773 59.0757 60.4773C58.2902 60.4773 57.6439 60.6811 57.1368 61.0888C56.6297 61.4964 56.2544 62.0309 56.0107 62.6921C55.7671 63.3533 55.6453 64.0668 55.6453 64.8324C55.6453 65.598 55.7671 66.3089 56.0107 66.9652C56.2544 67.6214 56.6297 68.1509 57.1368 68.5536C57.6439 68.9563 58.2902 69.1577 59.0757 69.1577ZM66.9526 70.5V59.0455H68.6529V60.8352H68.802C69.0407 60.2237 69.426 59.7489 69.9579 59.4109C70.4899 59.0678 71.1287 58.8963 71.8745 58.8963C72.6301 58.8963 73.2591 59.0678 73.7612 59.4109C74.2683 59.7489 74.6635 60.2237 74.9469 60.8352H75.0662C75.3596 60.2436 75.7995 59.7738 76.3862 59.4258C76.9728 59.0728 77.6763 58.8963 78.4966 58.8963C79.5208 58.8963 80.3585 59.217 81.0098 59.8583C81.661 60.4947 81.9867 61.4865 81.9867 62.8338V70.5H80.2267V62.8338C80.2267 61.9886 79.9956 61.3846 79.5332 61.0217C79.0708 60.6587 78.5265 60.4773 77.9 60.4773C77.0946 60.4773 76.4707 60.7209 76.0282 61.2081C75.5858 61.6903 75.3645 62.3018 75.3645 63.0426V70.5H73.5748V62.6548C73.5748 62.0036 73.3635 61.479 72.9409 61.0813C72.5183 60.6786 71.9739 60.4773 71.3077 60.4773C70.8503 60.4773 70.4228 60.5991 70.025 60.8427C69.6323 61.0863 69.3141 61.4244 69.0705 61.8569C68.8319 62.2844 68.7125 62.7791 68.7125 63.3409V70.5H66.9526ZM90.0071 70.7386C88.9034 70.7386 87.9513 70.495 87.1509 70.0078C86.3555 69.5156 85.7415 68.8295 85.3089 67.9496C84.8814 67.0646 84.6676 66.0355 84.6676 64.8622C84.6676 63.6889 84.8814 62.6548 85.3089 61.7599C85.7415 60.8601 86.343 60.1591 87.1136 59.657C87.8892 59.1499 88.794 58.8963 89.8281 58.8963C90.4247 58.8963 91.0138 58.9957 91.5955 59.1946C92.1772 59.3935 92.7067 59.7166 93.1839 60.1641C93.6612 60.6065 94.0415 61.1932 94.3249 61.924C94.6083 62.6548 94.75 63.5547 94.75 64.6236V65.3693H85.9205V63.848H92.9602C92.9602 63.2017 92.831 62.625 92.5724 62.1179C92.3189 61.6108 91.956 61.2106 91.4837 60.9173C91.0163 60.6239 90.4645 60.4773 89.8281 60.4773C89.1271 60.4773 88.5206 60.6513 88.0085 60.9993C87.5014 61.3423 87.1112 61.7898 86.8377 62.3416C86.5643 62.8935 86.4276 63.4851 86.4276 64.1165V65.1307C86.4276 65.9957 86.5767 66.729 86.875 67.3306C87.1783 67.9272 87.5984 68.3821 88.1353 68.6953C88.6722 69.0036 89.2962 69.1577 90.0071 69.1577C90.4695 69.1577 90.8871 69.093 91.2599 68.9638C91.6378 68.8295 91.9634 68.6307 92.2369 68.3672C92.5103 68.0987 92.7216 67.7656 92.8707 67.3679L94.571 67.8452C94.392 68.4219 94.0913 68.929 93.6687 69.3665C93.2461 69.799 92.7241 70.1371 92.1026 70.3807C91.4812 70.6193 90.7827 70.7386 90.0071 70.7386ZM107.659 70.7386C106.704 70.7386 105.862 70.4975 105.131 70.0153C104.4 69.5281 103.828 68.842 103.415 67.957C103.003 67.0671 102.797 66.0156 102.797 64.8026C102.797 63.5994 103.003 62.5554 103.415 61.6705C103.828 60.7855 104.402 60.1019 105.138 59.6197C105.874 59.1374 106.724 58.8963 107.689 58.8963C108.434 58.8963 109.023 59.0206 109.456 59.2692C109.893 59.5128 110.227 59.7912 110.455 60.1044C110.689 60.4126 110.87 60.6662 111 60.8651H111.149V55.2273H112.909V70.5H111.208V68.7401H111C110.87 68.9489 110.686 69.2124 110.448 69.5305C110.209 69.8437 109.869 70.1246 109.426 70.3732C108.984 70.6168 108.395 70.7386 107.659 70.7386ZM107.897 69.1577C108.603 69.1577 109.2 68.9737 109.687 68.6058C110.174 68.233 110.545 67.7184 110.798 67.0621C111.052 66.4009 111.179 65.6378 111.179 64.7727C111.179 63.9176 111.054 63.1694 110.806 62.5281C110.557 61.8817 110.189 61.3796 109.702 61.0217C109.215 60.6587 108.613 60.4773 107.897 60.4773C107.152 60.4773 106.53 60.6687 106.033 61.0515C105.541 61.4293 105.17 61.9439 104.922 62.5952C104.678 63.2415 104.556 63.9673 104.556 64.7727C104.556 65.5881 104.681 66.3288 104.929 66.995C105.183 67.6562 105.556 68.1832 106.048 68.576C106.545 68.9638 107.162 69.1577 107.897 69.1577ZM119.747 70.7685C119.021 70.7685 118.363 70.6317 117.771 70.3583C117.179 70.0799 116.71 69.6797 116.362 69.1577C116.013 68.6307 115.839 67.9943 115.839 67.2486C115.839 66.5923 115.969 66.0604 116.227 65.6527C116.486 65.2401 116.831 64.9169 117.264 64.6832C117.696 64.4496 118.174 64.2756 118.696 64.1612C119.223 64.0419 119.752 63.9474 120.284 63.8778C120.98 63.7884 121.544 63.7212 121.977 63.6765C122.414 63.6268 122.733 63.5447 122.931 63.4304C123.135 63.3161 123.237 63.1172 123.237 62.8338V62.7741C123.237 62.0384 123.036 61.4666 122.633 61.0589C122.235 60.6513 121.631 60.4474 120.821 60.4474C119.981 60.4474 119.322 60.6314 118.845 60.9993C118.368 61.3672 118.032 61.7599 117.838 62.1776L116.168 61.581C116.466 60.8849 116.864 60.343 117.361 59.9553C117.863 59.5625 118.41 59.2891 119.001 59.1349C119.598 58.9759 120.185 58.8963 120.761 58.8963C121.129 58.8963 121.552 58.9411 122.029 59.0305C122.511 59.1151 122.976 59.2915 123.424 59.56C123.876 59.8285 124.251 60.2337 124.55 60.7756C124.848 61.3175 124.997 62.0433 124.997 62.9531V70.5H123.237V68.9489H123.148C123.028 69.1974 122.83 69.4634 122.551 69.7468C122.273 70.0302 121.902 70.2713 121.44 70.4702C120.978 70.669 120.413 70.7685 119.747 70.7685ZM120.016 69.1875C120.712 69.1875 121.298 69.0508 121.776 68.7773C122.258 68.5039 122.621 68.1509 122.864 67.7184C123.113 67.2859 123.237 66.831 123.237 66.3537V64.7429C123.163 64.8324 122.999 64.9144 122.745 64.989C122.496 65.0586 122.208 65.1207 121.88 65.1754C121.557 65.2251 121.241 65.2699 120.933 65.3097C120.63 65.3445 120.384 65.3743 120.195 65.3991C119.737 65.4588 119.31 65.5558 118.912 65.69C118.519 65.8192 118.201 66.0156 117.957 66.2791C117.719 66.5376 117.599 66.8906 117.599 67.3381C117.599 67.9496 117.826 68.4119 118.278 68.7251C118.735 69.0334 119.315 69.1875 120.016 69.1875ZM134.981 70.5H133.042L138.65 55.2273H140.559L146.167 70.5H144.228L139.664 57.6435H139.545L134.981 70.5ZM135.697 64.5341H143.512V66.1747H135.697V64.5341ZM148.307 74.7955V59.0455H150.007V60.8651H150.216C150.345 60.6662 150.524 60.4126 150.753 60.1044C150.987 59.7912 151.32 59.5128 151.752 59.2692C152.19 59.0206 152.782 58.8963 153.527 58.8963C154.492 58.8963 155.342 59.1374 156.078 59.6197C156.813 60.1019 157.388 60.7855 157.8 61.6705C158.213 62.5554 158.419 63.5994 158.419 64.8026C158.419 66.0156 158.213 67.0671 157.8 67.957C157.388 68.842 156.816 69.5281 156.085 70.0153C155.354 70.4975 154.512 70.7386 153.557 70.7386C152.821 70.7386 152.232 70.6168 151.79 70.3732C151.347 70.1246 151.007 69.8437 150.768 69.5305C150.529 69.2124 150.345 68.9489 150.216 68.7401H150.067V74.7955H148.307ZM150.037 64.7727C150.037 65.6378 150.164 66.4009 150.418 67.0621C150.671 67.7184 151.041 68.233 151.529 68.6058C152.016 68.9737 152.612 69.1577 153.318 69.1577C154.054 69.1577 154.668 68.9638 155.16 68.576C155.658 68.1832 156.03 67.6562 156.279 66.995C156.533 66.3288 156.659 65.5881 156.659 64.7727C156.659 63.9673 156.535 63.2415 156.286 62.5952C156.043 61.9439 155.672 61.4293 155.175 61.0515C154.683 60.6687 154.064 60.4773 153.318 60.4773C152.603 60.4773 152.001 60.6587 151.514 61.0217C151.027 61.3796 150.659 61.8817 150.41 62.5281C150.161 63.1694 150.037 63.9176 150.037 64.7727ZM162.864 55.2273V70.5H161.104V55.2273H162.864ZM166.087 70.5V59.0455H167.847V70.5H166.087ZM166.982 57.1364C166.639 57.1364 166.343 57.0195 166.095 56.7859C165.851 56.5522 165.729 56.2713 165.729 55.9432C165.729 55.6151 165.851 55.3342 166.095 55.1005C166.343 54.8668 166.639 54.75 166.982 54.75C167.325 54.75 167.619 54.8668 167.862 55.1005C168.111 55.3342 168.235 55.6151 168.235 55.9432C168.235 56.2713 168.111 56.5522 167.862 56.7859C167.619 57.0195 167.325 57.1364 166.982 57.1364ZM175.724 70.7386C174.65 70.7386 173.726 70.4851 172.95 69.978C172.174 69.4709 171.578 68.7724 171.16 67.8825C170.743 66.9925 170.534 65.9759 170.534 64.8324C170.534 63.669 170.748 62.6424 171.175 61.7525C171.608 60.8576 172.209 60.1591 172.98 59.657C173.755 59.1499 174.66 58.8963 175.694 58.8963C176.5 58.8963 177.226 59.0455 177.872 59.3438C178.518 59.642 179.048 60.0597 179.46 60.5966C179.873 61.1335 180.129 61.7599 180.228 62.4759H178.468C178.334 61.9538 178.036 61.4915 177.574 61.0888C177.116 60.6811 176.5 60.4773 175.724 60.4773C175.038 60.4773 174.437 60.6562 173.919 61.0142C173.407 61.3672 173.007 61.8668 172.719 62.5131C172.435 63.1545 172.294 63.9077 172.294 64.7727C172.294 65.6577 172.433 66.4283 172.711 67.0845C172.995 67.7408 173.392 68.2504 173.905 68.6133C174.422 68.9762 175.028 69.1577 175.724 69.1577C176.182 69.1577 176.597 69.0781 176.97 68.919C177.342 68.7599 177.658 68.5312 177.917 68.233C178.175 67.9347 178.359 67.5767 178.468 67.1591H180.228C180.129 67.8352 179.883 68.4442 179.49 68.9862C179.102 69.5231 178.588 69.9506 177.946 70.2688C177.31 70.582 176.569 70.7386 175.724 70.7386ZM186.172 70.7685C185.446 70.7685 184.787 70.6317 184.196 70.3583C183.604 70.0799 183.134 69.6797 182.786 69.1577C182.438 68.6307 182.264 67.9943 182.264 67.2486C182.264 66.5923 182.394 66.0604 182.652 65.6527C182.911 65.2401 183.256 64.9169 183.689 64.6832C184.121 64.4496 184.598 64.2756 185.12 64.1612C185.647 64.0419 186.177 63.9474 186.709 63.8778C187.405 63.7884 187.969 63.7212 188.402 63.6765C188.839 63.6268 189.157 63.5447 189.356 63.4304C189.56 63.3161 189.662 63.1172 189.662 62.8338V62.7741C189.662 62.0384 189.461 61.4666 189.058 61.0589C188.66 60.6513 188.056 60.4474 187.246 60.4474C186.406 60.4474 185.747 60.6314 185.27 60.9993C184.792 61.3672 184.457 61.7599 184.263 62.1776L182.592 61.581C182.891 60.8849 183.288 60.343 183.786 59.9553C184.288 59.5625 184.835 59.2891 185.426 59.1349C186.023 58.9759 186.609 58.8963 187.186 58.8963C187.554 58.8963 187.977 58.9411 188.454 59.0305C188.936 59.1151 189.401 59.2915 189.848 59.56C190.301 59.8285 190.676 60.2337 190.975 60.7756C191.273 61.3175 191.422 62.0433 191.422 62.9531V70.5H189.662V68.9489H189.573C189.453 69.1974 189.254 69.4634 188.976 69.7468C188.698 70.0302 188.327 70.2713 187.865 70.4702C187.402 70.669 186.838 70.7685 186.172 70.7685ZM186.44 69.1875C187.136 69.1875 187.723 69.0508 188.2 68.7773C188.683 68.5039 189.046 68.1509 189.289 67.7184C189.538 67.2859 189.662 66.831 189.662 66.3537V64.7429C189.587 64.8324 189.423 64.9144 189.17 64.989C188.921 65.0586 188.633 65.1207 188.305 65.1754C187.982 65.2251 187.666 65.2699 187.358 65.3097C187.054 65.3445 186.808 65.3743 186.619 65.3991C186.162 65.4588 185.734 65.5558 185.337 65.69C184.944 65.8192 184.626 66.0156 184.382 66.2791C184.144 66.5376 184.024 66.8906 184.024 67.3381C184.024 67.9496 184.25 68.4119 184.703 68.7251C185.16 69.0334 185.739 69.1875 186.44 69.1875ZM199.288 70.7386C198.214 70.7386 197.289 70.4851 196.513 69.978C195.738 69.4709 195.141 68.7724 194.724 67.8825C194.306 66.9925 194.097 65.9759 194.097 64.8324C194.097 63.669 194.311 62.6424 194.739 61.7525C195.171 60.8576 195.773 60.1591 196.543 59.657C197.319 59.1499 198.224 58.8963 199.258 58.8963C200.063 58.8963 200.789 59.0455 201.435 59.3438C202.082 59.642 202.611 60.0597 203.024 60.5966C203.436 61.1335 203.692 61.7599 203.792 62.4759H202.032C201.898 61.9538 201.599 61.4915 201.137 61.0888C200.68 60.6811 200.063 60.4773 199.288 60.4773C198.602 60.4773 198 60.6562 197.483 61.0142C196.971 61.3672 196.571 61.8668 196.282 62.5131C195.999 63.1545 195.857 63.9077 195.857 64.7727C195.857 65.6577 195.996 66.4283 196.275 67.0845C196.558 67.7408 196.956 68.2504 197.468 68.6133C197.985 68.9762 198.592 69.1577 199.288 69.1577C199.745 69.1577 200.16 69.0781 200.533 68.919C200.906 68.7599 201.222 68.5312 201.48 68.233C201.739 67.9347 201.923 67.5767 202.032 67.1591H203.792C203.692 67.8352 203.446 68.4442 203.054 68.9862C202.666 69.5231 202.151 69.9506 201.51 70.2688C200.874 70.582 200.133 70.7386 199.288 70.7386ZM198.452 70.4403H199.914L199.795 71.0369C200.183 71.0966 200.538 71.2582 200.861 71.5217C201.184 71.7901 201.346 72.2152 201.346 72.7969C201.346 73.4382 201.08 73.9602 200.548 74.3629C200.021 74.7706 199.243 74.9744 198.214 74.9744L198.154 73.8111C198.616 73.8111 198.999 73.7365 199.303 73.5874C199.611 73.4432 199.765 73.1996 199.765 72.8565C199.765 72.5135 199.638 72.2798 199.385 72.1555C199.131 72.0313 198.721 71.9467 198.154 71.902L198.452 70.4403ZM209.735 70.7685C209.01 70.7685 208.351 70.6317 207.759 70.3583C207.168 70.0799 206.698 69.6797 206.35 69.1577C206.002 68.6307 205.828 67.9943 205.828 67.2486C205.828 66.5923 205.957 66.0604 206.216 65.6527C206.474 65.2401 206.82 64.9169 207.252 64.6832C207.685 64.4496 208.162 64.2756 208.684 64.1612C209.211 64.0419 209.74 63.9474 210.272 63.8778C210.968 63.7884 211.533 63.7212 211.965 63.6765C212.403 63.6268 212.721 63.5447 212.92 63.4304C213.124 63.3161 213.225 63.1172 213.225 62.8338V62.7741C213.225 62.0384 213.024 61.4666 212.621 61.0589C212.224 60.6513 211.62 60.4474 210.809 60.4474C209.969 60.4474 209.31 60.6314 208.833 60.9993C208.356 61.3672 208.02 61.7599 207.826 62.1776L206.156 61.581C206.454 60.8849 206.852 60.343 207.349 59.9553C207.851 59.5625 208.398 59.2891 208.99 59.1349C209.586 58.9759 210.173 58.8963 210.75 58.8963C211.118 58.8963 211.54 58.9411 212.017 59.0305C212.5 59.1151 212.964 59.2915 213.412 59.56C213.864 59.8285 214.24 60.2337 214.538 60.7756C214.836 61.3175 214.985 62.0433 214.985 62.9531V70.5H213.225V68.9489H213.136C213.017 69.1974 212.818 69.4634 212.539 69.7468C212.261 70.0302 211.891 70.2713 211.428 70.4702C210.966 70.669 210.402 70.7685 209.735 70.7685ZM210.004 69.1875C210.7 69.1875 211.287 69.0508 211.764 68.7773C212.246 68.5039 212.609 68.1509 212.853 67.7184C213.101 67.2859 213.225 66.831 213.225 66.3537V64.7429C213.151 64.8324 212.987 64.9144 212.733 64.989C212.485 65.0586 212.196 65.1207 211.868 65.1754C211.545 65.2251 211.229 65.2699 210.921 65.3097C210.618 65.3445 210.372 65.3743 210.183 65.3991C209.725 65.4588 209.298 65.5558 208.9 65.69C208.507 65.8192 208.189 66.0156 207.946 66.2791C207.707 66.5376 207.588 66.8906 207.588 67.3381C207.588 67.9496 207.814 68.4119 208.266 68.7251C208.724 69.0334 209.303 69.1875 210.004 69.1875ZM208.572 57.6733L207.2 57.6136C207.2 56.853 207.416 56.2315 207.849 55.7493C208.286 55.2621 208.826 55.0185 209.467 55.0185C209.75 55.0185 210.001 55.0682 210.22 55.1676C210.439 55.2621 210.648 55.3714 210.847 55.4957C211.045 55.62 211.249 55.7319 211.458 55.8313C211.672 55.9258 211.913 55.973 212.181 55.973C212.465 55.973 212.703 55.8636 212.897 55.6449C213.096 55.4212 213.196 55.1527 213.196 54.8395L214.538 54.9588C214.538 55.7344 214.319 56.3509 213.882 56.8082C213.449 57.2656 212.912 57.4943 212.271 57.4943C211.928 57.4943 211.645 57.4471 211.421 57.3526C211.197 57.2532 210.998 57.1413 210.824 57.017C210.65 56.8928 210.466 56.7834 210.272 56.6889C210.078 56.5895 209.84 56.5398 209.556 56.5398C209.273 56.5398 209.037 56.6516 208.848 56.8754C208.664 57.0941 208.572 57.3601 208.572 57.6733ZM222.851 70.7386C221.817 70.7386 220.91 70.4925 220.129 70.0004C219.354 69.5082 218.747 68.8196 218.31 67.9347C217.877 67.0497 217.661 66.0156 217.661 64.8324C217.661 63.6392 217.877 62.5977 218.31 61.7077C218.747 60.8178 219.354 60.1268 220.129 59.6346C220.91 59.1424 221.817 58.8963 222.851 58.8963C223.885 58.8963 224.79 59.1424 225.566 59.6346C226.346 60.1268 226.953 60.8178 227.385 61.7077C227.823 62.5977 228.041 63.6392 228.041 64.8324C228.041 66.0156 227.823 67.0497 227.385 67.9347C226.953 68.8196 226.346 69.5082 225.566 70.0004C224.79 70.4925 223.885 70.7386 222.851 70.7386ZM222.851 69.1577C223.637 69.1577 224.283 68.9563 224.79 68.5536C225.297 68.1509 225.672 67.6214 225.916 66.9652C226.16 66.3089 226.282 65.598 226.282 64.8324C226.282 64.0668 226.16 63.3533 225.916 62.6921C225.672 62.0309 225.297 61.4964 224.79 61.0888C224.283 60.6811 223.637 60.4773 222.851 60.4773C222.066 60.4773 221.419 60.6811 220.912 61.0888C220.405 61.4964 220.03 62.0309 219.786 62.6921C219.543 63.3533 219.421 64.0668 219.421 64.8324C219.421 65.598 219.543 66.3089 219.786 66.9652C220.03 67.6214 220.405 68.1509 220.912 68.5536C221.419 68.9563 222.066 69.1577 222.851 69.1577Z" fill="#788896"/>
<path d="M293 479H146V535.5H293V479Z" stroke="#C3CFD9" stroke-width="2"/>
<path d="M166.821 500.841H168.398L172.105 509.896H172.233L175.94 500.841H177.517V511.75H176.281V503.462H176.175L172.766 511.75H171.572L168.163 503.462H168.057V511.75H166.821V500.841ZM182.403 511.942C181.884 511.942 181.414 511.844 180.991 511.649C180.569 511.45 180.233 511.164 179.985 510.791C179.736 510.415 179.612 509.96 179.612 509.428C179.612 508.959 179.704 508.579 179.889 508.288C180.073 507.993 180.32 507.762 180.629 507.595C180.938 507.428 181.279 507.304 181.652 507.222C182.028 507.137 182.407 507.07 182.786 507.02C183.284 506.956 183.687 506.908 183.996 506.876C184.308 506.841 184.535 506.782 184.677 506.7C184.823 506.619 184.896 506.477 184.896 506.274V506.232C184.896 505.706 184.752 505.298 184.464 505.006C184.18 504.715 183.749 504.57 183.17 504.57C182.57 504.57 182.099 504.701 181.758 504.964C181.418 505.227 181.178 505.507 181.039 505.805L179.846 505.379C180.059 504.882 180.343 504.495 180.698 504.218C181.057 503.937 181.448 503.742 181.87 503.632C182.296 503.518 182.715 503.462 183.127 503.462C183.39 503.462 183.692 503.494 184.033 503.558C184.377 503.618 184.709 503.744 185.029 503.936C185.352 504.127 185.62 504.417 185.833 504.804C186.046 505.191 186.153 505.71 186.153 506.359V511.75H184.896V510.642H184.832C184.747 510.82 184.605 511.01 184.406 511.212C184.207 511.414 183.942 511.587 183.612 511.729C183.282 511.871 182.879 511.942 182.403 511.942ZM182.595 510.812C183.092 510.812 183.511 510.715 183.852 510.52C184.196 510.324 184.456 510.072 184.63 509.763C184.807 509.454 184.896 509.129 184.896 508.788V507.638C184.843 507.702 184.725 507.76 184.544 507.814C184.367 507.863 184.161 507.908 183.926 507.947C183.696 507.982 183.47 508.014 183.25 508.043C183.033 508.067 182.858 508.089 182.723 508.107C182.396 508.149 182.09 508.218 181.806 508.314C181.526 508.407 181.299 508.547 181.125 508.735C180.954 508.92 180.869 509.172 180.869 509.491C180.869 509.928 181.03 510.259 181.354 510.482C181.68 510.702 182.094 510.812 182.595 510.812ZM188.447 511.75V503.568H189.662V504.804H189.747C189.896 504.399 190.166 504.071 190.557 503.819C190.947 503.566 191.388 503.44 191.878 503.44C191.97 503.44 192.086 503.442 192.224 503.446C192.363 503.449 192.467 503.455 192.538 503.462V504.74C192.496 504.729 192.398 504.713 192.245 504.692C192.096 504.667 191.938 504.655 191.771 504.655C191.374 504.655 191.018 504.738 190.706 504.905C190.397 505.069 190.152 505.296 189.971 505.587C189.793 505.875 189.705 506.203 189.705 506.572V511.75H188.447ZM197.103 511.92C196.336 511.92 195.676 511.739 195.122 511.377C194.568 511.015 194.142 510.516 193.843 509.88C193.545 509.245 193.396 508.518 193.396 507.702C193.396 506.871 193.549 506.137 193.854 505.502C194.163 504.863 194.593 504.364 195.143 504.005C195.697 503.643 196.343 503.462 197.082 503.462C197.657 503.462 198.176 503.568 198.637 503.781C199.099 503.994 199.477 504.293 199.772 504.676C200.067 505.06 200.25 505.507 200.321 506.018H199.064C198.968 505.646 198.755 505.315 198.424 505.028C198.098 504.737 197.657 504.591 197.103 504.591C196.613 504.591 196.184 504.719 195.814 504.974C195.449 505.227 195.163 505.583 194.957 506.045C194.754 506.503 194.653 507.041 194.653 507.659C194.653 508.291 194.752 508.842 194.951 509.31C195.154 509.779 195.438 510.143 195.804 510.402C196.173 510.662 196.606 510.791 197.103 510.791C197.43 510.791 197.727 510.734 197.993 510.621C198.259 510.507 198.485 510.344 198.669 510.131C198.854 509.918 198.985 509.662 199.064 509.364H200.321C200.25 509.847 200.074 510.282 199.793 510.669C199.516 511.052 199.149 511.358 198.691 511.585C198.236 511.809 197.707 511.92 197.103 511.92ZM204.566 511.942C204.048 511.942 203.577 511.844 203.154 511.649C202.732 511.45 202.396 511.164 202.148 510.791C201.899 510.415 201.775 509.96 201.775 509.428C201.775 508.959 201.867 508.579 202.052 508.288C202.237 507.993 202.483 507.762 202.792 507.595C203.101 507.428 203.442 507.304 203.815 507.222C204.191 507.137 204.57 507.07 204.95 507.02C205.447 506.956 205.85 506.908 206.159 506.876C206.471 506.841 206.699 506.782 206.841 506.7C206.986 506.619 207.059 506.477 207.059 506.274V506.232C207.059 505.706 206.915 505.298 206.627 505.006C206.343 504.715 205.912 504.57 205.333 504.57C204.733 504.57 204.262 504.701 203.922 504.964C203.581 505.227 203.341 505.507 203.202 505.805L202.009 505.379C202.222 504.882 202.506 504.495 202.862 504.218C203.22 503.937 203.611 503.742 204.033 503.632C204.46 503.518 204.879 503.462 205.29 503.462C205.553 503.462 205.855 503.494 206.196 503.558C206.54 503.618 206.873 503.744 207.192 503.936C207.515 504.127 207.783 504.417 207.996 504.804C208.21 505.191 208.316 505.71 208.316 506.359V511.75H207.059V510.642H206.995C206.91 510.82 206.768 511.01 206.569 511.212C206.37 511.414 206.105 511.587 205.775 511.729C205.445 511.871 205.042 511.942 204.566 511.942ZM204.758 510.812C205.255 510.812 205.674 510.715 206.015 510.52C206.359 510.324 206.619 510.072 206.793 509.763C206.97 509.454 207.059 509.129 207.059 508.788V507.638C207.006 507.702 206.888 507.76 206.707 507.814C206.53 507.863 206.324 507.908 206.089 507.947C205.859 507.982 205.633 508.014 205.413 508.043C205.196 508.067 205.021 508.089 204.886 508.107C204.559 508.149 204.254 508.218 203.969 508.314C203.689 508.407 203.462 508.547 203.288 508.735C203.117 508.92 203.032 509.172 203.032 509.491C203.032 509.928 203.194 510.259 203.517 510.482C203.843 510.702 204.257 510.812 204.758 510.812ZM215 511.75V500.841H218.686C219.542 500.841 220.241 500.995 220.785 501.304C221.331 501.61 221.736 502.023 221.999 502.545C222.262 503.067 222.393 503.65 222.393 504.293C222.393 504.935 222.262 505.52 221.999 506.045C221.74 506.571 221.339 506.99 220.795 507.302C220.252 507.611 219.556 507.766 218.707 507.766H216.065V506.594H218.665C219.25 506.594 219.721 506.493 220.076 506.29C220.431 506.088 220.689 505.814 220.848 505.47C221.012 505.122 221.093 504.729 221.093 504.293C221.093 503.856 221.012 503.465 220.848 503.121C220.689 502.776 220.429 502.506 220.071 502.311C219.712 502.112 219.236 502.013 218.643 502.013H216.321V511.75H215ZM227.693 511.92C226.905 511.92 226.225 511.746 225.653 511.398C225.085 511.047 224.646 510.557 224.337 509.928C224.032 509.296 223.879 508.561 223.879 507.723C223.879 506.885 224.032 506.146 224.337 505.507C224.646 504.864 225.076 504.364 225.627 504.005C226.18 503.643 226.827 503.462 227.565 503.462C227.992 503.462 228.412 503.533 228.828 503.675C229.243 503.817 229.622 504.048 229.962 504.367C230.303 504.683 230.575 505.102 230.777 505.624C230.98 506.146 231.081 506.789 231.081 507.553V508.085H224.774V506.999H229.803C229.803 506.537 229.71 506.125 229.526 505.763C229.345 505.401 229.085 505.115 228.748 504.905C228.414 504.696 228.02 504.591 227.565 504.591C227.065 504.591 226.631 504.715 226.266 504.964C225.903 505.209 225.625 505.528 225.429 505.923C225.234 506.317 225.136 506.739 225.136 507.19V507.915C225.136 508.533 225.243 509.056 225.456 509.486C225.673 509.912 225.973 510.237 226.356 510.461C226.74 510.681 227.185 510.791 227.693 510.791C228.024 510.791 228.322 510.745 228.588 510.653C228.858 510.557 229.091 510.415 229.286 510.227C229.481 510.035 229.632 509.797 229.739 509.513L230.953 509.854C230.825 510.266 230.611 510.628 230.309 510.94C230.007 511.249 229.634 511.491 229.19 511.665C228.746 511.835 228.247 511.92 227.693 511.92ZM236.552 503.568V504.634H232.312V503.568H236.552ZM233.547 501.608H234.804V509.406C234.804 509.761 234.856 510.028 234.959 510.205C235.065 510.379 235.2 510.496 235.364 510.557C235.531 510.614 235.706 510.642 235.891 510.642C236.03 510.642 236.143 510.635 236.232 510.621C236.321 510.603 236.392 510.589 236.445 510.578L236.701 511.707C236.616 511.739 236.497 511.771 236.344 511.803C236.191 511.839 235.998 511.857 235.763 511.857C235.408 511.857 235.06 511.78 234.719 511.627C234.382 511.475 234.101 511.242 233.878 510.93C233.657 510.617 233.547 510.223 233.547 509.747V501.608ZM238.443 511.75V503.568H239.657V504.804H239.742C239.891 504.399 240.161 504.071 240.552 503.819C240.943 503.566 241.383 503.44 241.873 503.44C241.965 503.44 242.081 503.442 242.219 503.446C242.358 503.449 242.462 503.455 242.533 503.462V504.74C242.491 504.729 242.393 504.713 242.241 504.692C242.091 504.667 241.933 504.655 241.766 504.655C241.369 504.655 241.014 504.738 240.701 504.905C240.392 505.069 240.147 505.296 239.966 505.587C239.788 505.875 239.7 506.203 239.7 506.572V511.75H238.443ZM247.098 511.92C246.36 511.92 245.712 511.745 245.154 511.393C244.6 511.042 244.167 510.55 243.854 509.918C243.546 509.286 243.391 508.547 243.391 507.702C243.391 506.849 243.546 506.105 243.854 505.47C244.167 504.834 244.6 504.341 245.154 503.989C245.712 503.637 246.36 503.462 247.098 503.462C247.837 503.462 248.483 503.637 249.037 503.989C249.595 504.341 250.028 504.834 250.337 505.47C250.65 506.105 250.806 506.849 250.806 507.702C250.806 508.547 250.65 509.286 250.337 509.918C250.028 510.55 249.595 511.042 249.037 511.393C248.483 511.745 247.837 511.92 247.098 511.92ZM247.098 510.791C247.66 510.791 248.121 510.647 248.483 510.36C248.846 510.072 249.114 509.694 249.288 509.225C249.462 508.756 249.549 508.249 249.549 507.702C249.549 507.155 249.462 506.645 249.288 506.173C249.114 505.701 248.846 505.319 248.483 505.028C248.121 504.737 247.66 504.591 247.098 504.591C246.537 504.591 246.076 504.737 245.714 505.028C245.351 505.319 245.083 505.701 244.909 506.173C244.735 506.645 244.648 507.155 244.648 507.702C244.648 508.249 244.735 508.756 244.909 509.225C245.083 509.694 245.351 510.072 245.714 510.36C246.076 510.647 246.537 510.791 247.098 510.791ZM252.895 511.75V500.841H254.152V504.868H254.259C254.351 504.726 254.479 504.545 254.642 504.325C254.809 504.101 255.047 503.902 255.356 503.728C255.669 503.55 256.091 503.462 256.624 503.462C257.313 503.462 257.92 503.634 258.446 503.978C258.971 504.323 259.381 504.811 259.676 505.443C259.971 506.075 260.118 506.821 260.118 507.68C260.118 508.547 259.971 509.298 259.676 509.934C259.381 510.566 258.973 511.056 258.451 511.404C257.929 511.748 257.327 511.92 256.645 511.92C256.12 511.92 255.699 511.833 255.383 511.659C255.067 511.482 254.824 511.281 254.653 511.058C254.483 510.83 254.351 510.642 254.259 510.493H254.11V511.75H252.895ZM254.131 507.659C254.131 508.277 254.222 508.822 254.403 509.294C254.584 509.763 254.848 510.131 255.196 510.397C255.544 510.66 255.971 510.791 256.475 510.791C257 510.791 257.439 510.653 257.79 510.376C258.146 510.095 258.412 509.719 258.589 509.246C258.771 508.771 258.861 508.241 258.861 507.659C258.861 507.084 258.772 506.565 258.595 506.104C258.421 505.638 258.156 505.271 257.801 505.001C257.45 504.728 257.007 504.591 256.475 504.591C255.963 504.591 255.534 504.721 255.186 504.98C254.838 505.235 254.575 505.594 254.397 506.056C254.22 506.514 254.131 507.048 254.131 507.659ZM262.041 511.75V503.568H263.256V504.804H263.341C263.49 504.399 263.76 504.071 264.151 503.819C264.541 503.566 264.982 503.44 265.472 503.44C265.564 503.44 265.679 503.442 265.818 503.446C265.956 503.449 266.061 503.455 266.132 503.462V504.74C266.089 504.729 265.992 504.713 265.839 504.692C265.69 504.667 265.532 504.655 265.365 504.655C264.967 504.655 264.612 504.738 264.3 504.905C263.991 505.069 263.746 505.296 263.565 505.587C263.387 505.875 263.298 506.203 263.298 506.572V511.75H262.041ZM270.03 511.942C269.511 511.942 269.041 511.844 268.618 511.649C268.196 511.45 267.86 511.164 267.612 510.791C267.363 510.415 267.239 509.96 267.239 509.428C267.239 508.959 267.331 508.579 267.516 508.288C267.7 507.993 267.947 507.762 268.256 507.595C268.565 507.428 268.906 507.304 269.279 507.222C269.655 507.137 270.033 507.07 270.413 507.02C270.911 506.956 271.314 506.908 271.623 506.876C271.935 506.841 272.162 506.782 272.304 506.7C272.45 506.619 272.523 506.477 272.523 506.274V506.232C272.523 505.706 272.379 505.298 272.091 505.006C271.807 504.715 271.376 504.57 270.797 504.57C270.197 504.57 269.726 504.701 269.385 504.964C269.044 505.227 268.805 505.507 268.666 505.805L267.473 505.379C267.686 504.882 267.97 504.495 268.325 504.218C268.684 503.937 269.075 503.742 269.497 503.632C269.923 503.518 270.342 503.462 270.754 503.462C271.017 503.462 271.319 503.494 271.66 503.558C272.004 503.618 272.336 503.744 272.656 503.936C272.979 504.127 273.247 504.417 273.46 504.804C273.673 505.191 273.78 505.71 273.78 506.359V511.75H272.523V510.642H272.459C272.374 510.82 272.232 511.01 272.033 511.212C271.834 511.414 271.569 511.587 271.239 511.729C270.909 511.871 270.506 511.942 270.03 511.942ZM270.222 510.812C270.719 510.812 271.138 510.715 271.479 510.52C271.823 510.324 272.082 510.072 272.256 509.763C272.434 509.454 272.523 509.129 272.523 508.788V507.638C272.47 507.702 272.352 507.76 272.171 507.814C271.994 507.863 271.788 507.908 271.553 507.947C271.323 507.982 271.097 508.014 270.877 508.043C270.66 508.067 270.484 508.089 270.35 508.107C270.023 508.149 269.717 508.218 269.433 508.314C269.153 508.407 268.926 508.547 268.752 508.735C268.581 508.92 268.496 509.172 268.496 509.491C268.496 509.928 268.657 510.259 268.981 510.482C269.307 510.702 269.721 510.812 270.222 510.812ZM281.87 505.401L280.741 505.72C280.67 505.532 280.565 505.349 280.426 505.172C280.291 504.99 280.107 504.841 279.872 504.724C279.638 504.607 279.338 504.548 278.972 504.548C278.471 504.548 278.054 504.664 277.72 504.895C277.39 505.122 277.225 505.411 277.225 505.763C277.225 506.075 277.339 506.322 277.566 506.503C277.793 506.684 278.148 506.835 278.631 506.956L279.846 507.254C280.577 507.432 281.122 507.703 281.481 508.069C281.84 508.431 282.019 508.898 282.019 509.47C282.019 509.939 281.884 510.358 281.614 510.727C281.348 511.097 280.975 511.388 280.496 511.601C280.016 511.814 279.459 511.92 278.823 511.92C277.988 511.92 277.298 511.739 276.751 511.377C276.204 511.015 275.858 510.486 275.712 509.79L276.905 509.491C277.019 509.932 277.234 510.262 277.55 510.482C277.869 510.702 278.287 510.812 278.802 510.812C279.388 510.812 279.853 510.688 280.197 510.44C280.545 510.187 280.719 509.886 280.719 509.534C280.719 509.25 280.62 509.012 280.421 508.82C280.222 508.625 279.917 508.479 279.505 508.384L278.141 508.064C277.392 507.886 276.841 507.611 276.49 507.238C276.142 506.862 275.968 506.391 275.968 505.827C275.968 505.365 276.097 504.957 276.357 504.602C276.619 504.246 276.976 503.968 277.427 503.765C277.882 503.563 278.397 503.462 278.972 503.462C279.782 503.462 280.417 503.639 280.879 503.994C281.344 504.349 281.675 504.818 281.87 505.401Z" fill="#788896"/>
<path d="M63 531.5C76.2548 531.5 87 520.755 87 507.5C87 494.245 76.2548 483.5 63 483.5C49.7452 483.5 39 494.245 39 507.5C39 520.755 49.7452 531.5 63 531.5Z" fill="#CED8E0"/>
<g clip-path="url(#clip0_12_3477)">
<path d="M68.7705 510.178C67.599 509.755 65.6467 509.25 63 509.25C60.3533 509.25 58.401 509.755 57.2295 510.178C56.3445 510.498 55.75 511.348 55.75 512.293V514.5C55.75 514.638 55.862 514.75 56 514.75H70C70.138 514.75 70.25 514.638 70.25 514.5V512.293C70.25 511.348 69.6555 510.498 68.7705 510.178Z" fill="#788896"/>
<path d="M63 507.75C65.0677 507.75 66.75 506.068 66.75 504V503C66.75 500.932 65.0677 499.25 63 499.25C60.9323 499.25 59.25 500.932 59.25 503V504C59.25 506.068 60.9323 507.75 63 507.75Z" fill="#788896"/>
</g>
<path d="M1170 17H308V564H1170V17Z" stroke="#C3CFD9" stroke-width="2"/>
<defs>
<clipPath id="clip0_12_3477">
<rect width="16" height="16" fill="white" transform="translate(55 499)"/>
</clipPath>
</defs>
</svg>
