<svg width="1178" height="582" viewBox="0 0 1178 582" fill="none" xmlns="http://www.w3.org/2000/svg">
<rect width="1178" height="582" fill="white"/>
<path d="M261 96H8V574H261V96Z" fill="#F2F5F7" stroke="#C3CFD9" stroke-width="2"/>
<path d="M240.5 126H28.5V137H240.5V126Z" fill="#CED8E0"/>
<path d="M209.5 154.141H60.5V163.956H209.5V154.141Z" fill="#CED8E0"/>
<path d="M209.5 181.097H60.5V190.152H209.5V181.097Z" fill="#CED8E0"/>
<path d="M195.5 207.293H60.5V218.293H195.5V207.293Z" fill="#CED8E0"/>
<path d="M211 245.435H28.5V256.435H211V245.435Z" fill="#CED8E0"/>
<path d="M170 273.576H60.5V284.576H170V273.576Z" fill="#CED8E0"/>
<path d="M170 301.717H60.5V312.717H170V301.717Z" fill="#CED8E0"/>
<path d="M186 329.859H60.5V340.859H186V329.859Z" fill="#CED8E0"/>
<path d="M197 358H60.5V369H197V358Z" fill="#CED8E0"/>
<path d="M514 96H261V574H514V96Z" stroke="#C3CFD9" stroke-width="2"/>
<path d="M514 96H261V185H514V96Z" fill="white" stroke="#C3CFD9" stroke-width="2"/>
<path d="M471 118H304V126H471V118Z" fill="#CED8E0"/>
<path d="M471 133H304V141H471V133Z" fill="#E1E5EC"/>
<path d="M455 144H304V152H455V144Z" fill="#E1E5EC"/>
<path d="M389 155H304V163H389V155Z" fill="#E1E5EC"/>
<path d="M514 185H261V274H514V185Z" fill="white" stroke="#C3CFD9" stroke-width="2"/>
<path d="M471 207H304V215H471V207Z" fill="#CED8E0"/>
<path d="M471 222H304V230H471V222Z" fill="#E1E5EC"/>
<path d="M455 233H304V241H455V233Z" fill="#E1E5EC"/>
<path d="M389 244H304V252H389V244Z" fill="#E1E5EC"/>
<path d="M514 273H261V362H514V273Z" fill="white" stroke="#C3CFD9" stroke-width="2"/>
<path d="M471 295H304V303H471V295Z" fill="#CED8E0"/>
<path d="M471 310H304V318H471V310Z" fill="#E1E5EC"/>
<path d="M455 321H304V329H455V321Z" fill="#E1E5EC"/>
<path d="M389 332H304V340H389V332Z" fill="#E1E5EC"/>
<path d="M514 362H261V451H514V362Z" fill="white" stroke="#C3CFD9" stroke-width="2"/>
<path d="M471 384H304V392H471V384Z" fill="#CED8E0"/>
<path d="M471 399H304V407H471V399Z" fill="#E1E5EC"/>
<path d="M455 410H304V418H455V410Z" fill="#E1E5EC"/>
<path d="M389 421H304V429H389V421Z" fill="#E1E5EC"/>
<path d="M514 451H261V540H514V451Z" fill="white" stroke="#C3CFD9" stroke-width="2"/>
<path d="M471 473H304V481H471V473Z" fill="#CED8E0"/>
<path d="M471 488H304V496H471V488Z" fill="#E1E5EC"/>
<path d="M455 499H304V507H455V499Z" fill="#E1E5EC"/>
<path d="M389 510H304V518H389V510Z" fill="#E1E5EC"/>
<path d="M1170 96H514V574H1170V96Z" stroke="#C3CFD9" stroke-width="2"/>
<path d="M1170 8H8V96H1170V8Z" stroke="#C3CFD9" stroke-width="2"/>
<path d="M664.5 32.5H478.75C468.809 32.5 460.75 40.5589 460.75 50.5C460.75 60.4411 468.809 68.5 478.75 68.5H664.5C674.441 68.5 682.5 60.4411 682.5 50.5C682.5 40.5589 674.441 32.5 664.5 32.5Z" stroke="#9EADBA" stroke-width="2" stroke-linecap="round" stroke-linejoin="round"/>
<path d="M37.4602 43.9773V59.25H35.6705L27.348 47.2585H27.1989V59.25H25.3494V43.9773H27.1392L35.4915 55.9986H35.6406V43.9773H37.4602ZM45.5757 59.4886C44.5416 59.4886 43.6343 59.2425 42.8538 58.7504C42.0782 58.2582 41.4717 57.5696 41.0342 56.6847C40.6017 55.7997 40.3854 54.7656 40.3854 53.5824C40.3854 52.3892 40.6017 51.3477 41.0342 50.4577C41.4717 49.5678 42.0782 48.8768 42.8538 48.3846C43.6343 47.8924 44.5416 47.6463 45.5757 47.6463C46.6098 47.6463 47.5146 47.8924 48.2902 48.3846C49.0708 48.8768 49.6773 49.5678 50.1098 50.4577C50.5473 51.3477 50.7661 52.3892 50.7661 53.5824C50.7661 54.7656 50.5473 55.7997 50.1098 56.6847C49.6773 57.5696 49.0708 58.2582 48.2902 58.7504C47.5146 59.2425 46.6098 59.4886 45.5757 59.4886ZM45.5757 57.9077C46.3612 57.9077 47.0075 57.7063 47.5146 57.3036C48.0218 56.9009 48.3971 56.3714 48.6407 55.7152C48.8843 55.0589 49.0061 54.348 49.0061 53.5824C49.0061 52.8168 48.8843 52.1033 48.6407 51.4421C48.3971 50.7809 48.0218 50.2464 47.5146 49.8388C47.0075 49.4311 46.3612 49.2273 45.5757 49.2273C44.7902 49.2273 44.1439 49.4311 43.6368 49.8388C43.1297 50.2464 42.7544 50.7809 42.5107 51.4421C42.2671 52.1033 42.1453 52.8168 42.1453 53.5824C42.1453 54.348 42.2671 55.0589 42.5107 55.7152C42.7544 56.3714 43.1297 56.9009 43.6368 57.3036C44.1439 57.7063 44.7902 57.9077 45.5757 57.9077ZM53.4526 59.25V47.7955H55.1529V49.5852H55.302C55.5407 48.9737 55.926 48.4989 56.4579 48.1609C56.9899 47.8178 57.6287 47.6463 58.3745 47.6463C59.1301 47.6463 59.7591 47.8178 60.2612 48.1609C60.7683 48.4989 61.1635 48.9737 61.4469 49.5852H61.5662C61.8596 48.9936 62.2995 48.5238 62.8862 48.1758C63.4728 47.8228 64.1763 47.6463 64.9966 47.6463C66.0208 47.6463 66.8585 47.967 67.5098 48.6083C68.161 49.2447 68.4867 50.2365 68.4867 51.5838V59.25H66.7267V51.5838C66.7267 50.7386 66.4956 50.1346 66.0332 49.7717C65.5708 49.4087 65.0265 49.2273 64.4 49.2273C63.5946 49.2273 62.9707 49.4709 62.5282 49.9581C62.0858 50.4403 61.8645 51.0518 61.8645 51.7926V59.25H60.0748V51.4048C60.0748 50.7536 59.8635 50.229 59.4409 49.8313C59.0183 49.4286 58.4739 49.2273 57.8077 49.2273C57.3503 49.2273 56.9228 49.3491 56.525 49.5927C56.1323 49.8363 55.8141 50.1744 55.5705 50.6069C55.3319 51.0344 55.2125 51.5291 55.2125 52.0909V59.25H53.4526ZM76.5071 59.4886C75.4034 59.4886 74.4513 59.245 73.6509 58.7578C72.8555 58.2656 72.2415 57.5795 71.8089 56.6996C71.3814 55.8146 71.1676 54.7855 71.1676 53.6122C71.1676 52.4389 71.3814 51.4048 71.8089 50.5099C72.2415 49.6101 72.843 48.9091 73.6136 48.407C74.3892 47.8999 75.294 47.6463 76.3281 47.6463C76.9247 47.6463 77.5138 47.7457 78.0955 47.9446C78.6772 48.1435 79.2067 48.4666 79.6839 48.9141C80.1612 49.3565 80.5415 49.9432 80.8249 50.674C81.1083 51.4048 81.25 52.3047 81.25 53.3736V54.1193H72.4205V52.598H79.4602C79.4602 51.9517 79.331 51.375 79.0724 50.8679C78.8189 50.3608 78.456 49.9606 77.9837 49.6673C77.5163 49.3739 76.9645 49.2273 76.3281 49.2273C75.6271 49.2273 75.0206 49.4013 74.5085 49.7493C74.0014 50.0923 73.6112 50.5398 73.3377 51.0916C73.0643 51.6435 72.9276 52.2351 72.9276 52.8665V53.8807C72.9276 54.7457 73.0767 55.479 73.375 56.0806C73.6783 56.6772 74.0984 57.1321 74.6353 57.4453C75.1722 57.7536 75.7962 57.9077 76.5071 57.9077C76.9695 57.9077 77.3871 57.843 77.7599 57.7138C78.1378 57.5795 78.4634 57.3807 78.7369 57.1172C79.0103 56.8487 79.2216 56.5156 79.3707 56.1179L81.071 56.5952C80.892 57.1719 80.5913 57.679 80.1687 58.1165C79.7461 58.549 79.2241 58.8871 78.6026 59.1307C77.9812 59.3693 77.2827 59.4886 76.5071 59.4886ZM94.1587 59.4886C93.2042 59.4886 92.3615 59.2475 91.6307 58.7653C90.8999 58.2781 90.3281 57.592 89.9155 56.707C89.5028 55.8171 89.2965 54.7656 89.2965 53.5526C89.2965 52.3494 89.5028 51.3054 89.9155 50.4205C90.3281 49.5355 90.9023 48.8519 91.6381 48.3697C92.3739 47.8874 93.2241 47.6463 94.1886 47.6463C94.9343 47.6463 95.5234 47.7706 95.956 48.0192C96.3935 48.2628 96.7266 48.5412 96.9553 48.8544C97.1889 49.1626 97.3704 49.4162 97.4996 49.6151H97.6488V43.9773H99.4087V59.25H97.7085V57.4901H97.4996C97.3704 57.6989 97.1864 57.9624 96.9478 58.2805C96.7092 58.5937 96.3686 58.8746 95.9261 59.1232C95.4837 59.3668 94.8945 59.4886 94.1587 59.4886ZM94.3974 57.9077C95.1033 57.9077 95.6999 57.7237 96.1871 57.3558C96.6744 56.983 97.0447 56.4684 97.2983 55.8121C97.5518 55.1509 97.6786 54.3878 97.6786 53.5227C97.6786 52.6676 97.5543 51.9194 97.3058 51.2781C97.0572 50.6317 96.6893 50.1296 96.2021 49.7717C95.7148 49.4087 95.1133 49.2273 94.3974 49.2273C93.6516 49.2273 93.0302 49.4187 92.533 49.8015C92.0408 50.1793 91.6705 50.6939 91.4219 51.3452C91.1783 51.9915 91.0565 52.7173 91.0565 53.5227C91.0565 54.3381 91.1808 55.0788 91.4293 55.745C91.6829 56.4062 92.0558 56.9332 92.5479 57.326C93.0451 57.7138 93.6616 57.9077 94.3974 57.9077ZM106.247 59.5185C105.521 59.5185 104.863 59.3817 104.271 59.1083C103.679 58.8299 103.21 58.4297 102.862 57.9077C102.513 57.3807 102.339 56.7443 102.339 55.9986C102.339 55.3423 102.469 54.8104 102.727 54.4027C102.986 53.9901 103.331 53.6669 103.764 53.4332C104.196 53.1996 104.674 53.0256 105.196 52.9112C105.723 52.7919 106.252 52.6974 106.784 52.6278C107.48 52.5384 108.044 52.4712 108.477 52.4265C108.914 52.3768 109.233 52.2947 109.431 52.1804C109.635 52.0661 109.737 51.8672 109.737 51.5838V51.5241C109.737 50.7884 109.536 50.2166 109.133 49.8089C108.735 49.4013 108.131 49.1974 107.321 49.1974C106.481 49.1974 105.822 49.3814 105.345 49.7493C104.868 50.1172 104.532 50.5099 104.338 50.9276L102.668 50.331C102.966 49.6349 103.364 49.093 103.861 48.7053C104.363 48.3125 104.91 48.0391 105.501 47.8849C106.098 47.7259 106.685 47.6463 107.261 47.6463C107.629 47.6463 108.052 47.6911 108.529 47.7805C109.011 47.8651 109.476 48.0415 109.924 48.31C110.376 48.5785 110.751 48.9837 111.05 49.5256C111.348 50.0675 111.497 50.7933 111.497 51.7031V59.25H109.737V57.6989H109.648C109.528 57.9474 109.33 58.2134 109.051 58.4968C108.773 58.7802 108.402 59.0213 107.94 59.2202C107.478 59.419 106.913 59.5185 106.247 59.5185ZM106.516 57.9375C107.212 57.9375 107.798 57.8008 108.276 57.5273C108.758 57.2539 109.121 56.9009 109.364 56.4684C109.613 56.0359 109.737 55.581 109.737 55.1037V53.4929C109.663 53.5824 109.499 53.6644 109.245 53.739C108.996 53.8086 108.708 53.8707 108.38 53.9254C108.057 53.9751 107.741 54.0199 107.433 54.0597C107.13 54.0945 106.884 54.1243 106.695 54.1491C106.237 54.2088 105.81 54.3058 105.412 54.44C105.019 54.5692 104.701 54.7656 104.457 55.0291C104.219 55.2876 104.099 55.6406 104.099 56.0881C104.099 56.6996 104.326 57.1619 104.778 57.4751C105.235 57.7834 105.815 57.9375 106.516 57.9375ZM121.481 59.25H119.542L125.15 43.9773H127.059L132.667 59.25H130.728L126.164 46.3935H126.045L121.481 59.25ZM122.197 53.2841H130.012V54.9247H122.197V53.2841ZM134.807 63.5455V47.7955H136.507V49.6151H136.716C136.845 49.4162 137.024 49.1626 137.253 48.8544C137.487 48.5412 137.82 48.2628 138.252 48.0192C138.69 47.7706 139.282 47.6463 140.027 47.6463C140.992 47.6463 141.842 47.8874 142.578 48.3697C143.313 48.8519 143.888 49.5355 144.3 50.4205C144.713 51.3054 144.919 52.3494 144.919 53.5526C144.919 54.7656 144.713 55.8171 144.3 56.707C143.888 57.592 143.316 58.2781 142.585 58.7653C141.854 59.2475 141.012 59.4886 140.057 59.4886C139.321 59.4886 138.732 59.3668 138.29 59.1232C137.847 58.8746 137.507 58.5937 137.268 58.2805C137.029 57.9624 136.845 57.6989 136.716 57.4901H136.567V63.5455H134.807ZM136.537 53.5227C136.537 54.3878 136.664 55.1509 136.918 55.8121C137.171 56.4684 137.541 56.983 138.029 57.3558C138.516 57.7237 139.112 57.9077 139.818 57.9077C140.554 57.9077 141.168 57.7138 141.66 57.326C142.158 56.9332 142.53 56.4062 142.779 55.745C143.033 55.0788 143.159 54.3381 143.159 53.5227C143.159 52.7173 143.035 51.9915 142.786 51.3452C142.543 50.6939 142.172 50.1793 141.675 49.8015C141.183 49.4187 140.564 49.2273 139.818 49.2273C139.103 49.2273 138.501 49.4087 138.014 49.7717C137.527 50.1296 137.159 50.6317 136.91 51.2781C136.661 51.9194 136.537 52.6676 136.537 53.5227ZM149.364 43.9773V59.25H147.604V43.9773H149.364ZM152.587 59.25V47.7955H154.347V59.25H152.587ZM153.482 45.8864C153.139 45.8864 152.843 45.7695 152.595 45.5359C152.351 45.3022 152.229 45.0213 152.229 44.6932C152.229 44.3651 152.351 44.0842 152.595 43.8505C152.843 43.6168 153.139 43.5 153.482 43.5C153.825 43.5 154.119 43.6168 154.362 43.8505C154.611 44.0842 154.735 44.3651 154.735 44.6932C154.735 45.0213 154.611 45.3022 154.362 45.5359C154.119 45.7695 153.825 45.8864 153.482 45.8864ZM162.224 59.4886C161.15 59.4886 160.226 59.2351 159.45 58.728C158.674 58.2209 158.078 57.5224 157.66 56.6325C157.243 55.7425 157.034 54.7259 157.034 53.5824C157.034 52.419 157.248 51.3924 157.675 50.5025C158.108 49.6076 158.709 48.9091 159.48 48.407C160.255 47.8999 161.16 47.6463 162.194 47.6463C163 47.6463 163.726 47.7955 164.372 48.0938C165.018 48.392 165.548 48.8097 165.96 49.3466C166.373 49.8835 166.629 50.5099 166.728 51.2259H164.968C164.834 50.7038 164.536 50.2415 164.074 49.8388C163.616 49.4311 163 49.2273 162.224 49.2273C161.538 49.2273 160.937 49.4062 160.419 49.7642C159.907 50.1172 159.507 50.6168 159.219 51.2631C158.935 51.9045 158.794 52.6577 158.794 53.5227C158.794 54.4077 158.933 55.1783 159.211 55.8345C159.495 56.4908 159.892 57.0004 160.405 57.3633C160.922 57.7262 161.528 57.9077 162.224 57.9077C162.682 57.9077 163.097 57.8281 163.47 57.669C163.842 57.5099 164.158 57.2812 164.417 56.983C164.675 56.6847 164.859 56.3267 164.968 55.9091H166.728C166.629 56.5852 166.383 57.1942 165.99 57.7362C165.602 58.2731 165.088 58.7006 164.446 59.0188C163.81 59.332 163.069 59.4886 162.224 59.4886ZM172.672 59.5185C171.946 59.5185 171.287 59.3817 170.696 59.1083C170.104 58.8299 169.634 58.4297 169.286 57.9077C168.938 57.3807 168.764 56.7443 168.764 55.9986C168.764 55.3423 168.894 54.8104 169.152 54.4027C169.411 53.9901 169.756 53.6669 170.189 53.4332C170.621 53.1996 171.098 53.0256 171.62 52.9112C172.147 52.7919 172.677 52.6974 173.209 52.6278C173.905 52.5384 174.469 52.4712 174.902 52.4265C175.339 52.3768 175.657 52.2947 175.856 52.1804C176.06 52.0661 176.162 51.8672 176.162 51.5838V51.5241C176.162 50.7884 175.961 50.2166 175.558 49.8089C175.16 49.4013 174.556 49.1974 173.746 49.1974C172.906 49.1974 172.247 49.3814 171.77 49.7493C171.292 50.1172 170.957 50.5099 170.763 50.9276L169.092 50.331C169.391 49.6349 169.788 49.093 170.286 48.7053C170.788 48.3125 171.335 48.0391 171.926 47.8849C172.523 47.7259 173.109 47.6463 173.686 47.6463C174.054 47.6463 174.477 47.6911 174.954 47.7805C175.436 47.8651 175.901 48.0415 176.348 48.31C176.801 48.5785 177.176 48.9837 177.475 49.5256C177.773 50.0675 177.922 50.7933 177.922 51.7031V59.25H176.162V57.6989H176.073C175.953 57.9474 175.754 58.2134 175.476 58.4968C175.198 58.7802 174.827 59.0213 174.365 59.2202C173.902 59.419 173.338 59.5185 172.672 59.5185ZM172.94 57.9375C173.636 57.9375 174.223 57.8008 174.7 57.5273C175.183 57.2539 175.546 56.9009 175.789 56.4684C176.038 56.0359 176.162 55.581 176.162 55.1037V53.4929C176.087 53.5824 175.923 53.6644 175.67 53.739C175.421 53.8086 175.133 53.8707 174.805 53.9254C174.482 53.9751 174.166 54.0199 173.858 54.0597C173.554 54.0945 173.308 54.1243 173.119 54.1491C172.662 54.2088 172.234 54.3058 171.837 54.44C171.444 54.5692 171.126 54.7656 170.882 55.0291C170.644 55.2876 170.524 55.6406 170.524 56.0881C170.524 56.6996 170.75 57.1619 171.203 57.4751C171.66 57.7834 172.239 57.9375 172.94 57.9375ZM185.788 59.4886C184.714 59.4886 183.789 59.2351 183.013 58.728C182.238 58.2209 181.641 57.5224 181.224 56.6325C180.806 55.7425 180.597 54.7259 180.597 53.5824C180.597 52.419 180.811 51.3924 181.239 50.5025C181.671 49.6076 182.273 48.9091 183.043 48.407C183.819 47.8999 184.724 47.6463 185.758 47.6463C186.563 47.6463 187.289 47.7955 187.935 48.0938C188.582 48.392 189.111 48.8097 189.524 49.3466C189.936 49.8835 190.192 50.5099 190.292 51.2259H188.532C188.398 50.7038 188.099 50.2415 187.637 49.8388C187.18 49.4311 186.563 49.2273 185.788 49.2273C185.102 49.2273 184.5 49.4062 183.983 49.7642C183.471 50.1172 183.071 50.6168 182.782 51.2631C182.499 51.9045 182.357 52.6577 182.357 53.5227C182.357 54.4077 182.496 55.1783 182.775 55.8345C183.058 56.4908 183.456 57.0004 183.968 57.3633C184.485 57.7262 185.092 57.9077 185.788 57.9077C186.245 57.9077 186.66 57.8281 187.033 57.669C187.406 57.5099 187.722 57.2812 187.98 56.983C188.239 56.6847 188.423 56.3267 188.532 55.9091H190.292C190.192 56.5852 189.946 57.1942 189.554 57.7362C189.166 58.2731 188.651 58.7006 188.01 59.0188C187.374 59.332 186.633 59.4886 185.788 59.4886ZM184.952 59.1903H186.414L186.295 59.7869C186.683 59.8466 187.038 60.0082 187.361 60.2717C187.684 60.5401 187.846 60.9652 187.846 61.5469C187.846 62.1882 187.58 62.7102 187.048 63.1129C186.521 63.5206 185.743 63.7244 184.714 63.7244L184.654 62.5611C185.116 62.5611 185.499 62.4865 185.803 62.3374C186.111 62.1932 186.265 61.9496 186.265 61.6065C186.265 61.2635 186.138 61.0298 185.885 60.9055C185.631 60.7813 185.221 60.6967 184.654 60.652L184.952 59.1903ZM196.235 59.5185C195.51 59.5185 194.851 59.3817 194.259 59.1083C193.668 58.8299 193.198 58.4297 192.85 57.9077C192.502 57.3807 192.328 56.7443 192.328 55.9986C192.328 55.3423 192.457 54.8104 192.716 54.4027C192.974 53.9901 193.32 53.6669 193.752 53.4332C194.185 53.1996 194.662 53.0256 195.184 52.9112C195.711 52.7919 196.24 52.6974 196.772 52.6278C197.468 52.5384 198.033 52.4712 198.465 52.4265C198.903 52.3768 199.221 52.2947 199.42 52.1804C199.624 52.0661 199.725 51.8672 199.725 51.5838V51.5241C199.725 50.7884 199.524 50.2166 199.121 49.8089C198.724 49.4013 198.12 49.1974 197.309 49.1974C196.469 49.1974 195.81 49.3814 195.333 49.7493C194.856 50.1172 194.52 50.5099 194.326 50.9276L192.656 50.331C192.954 49.6349 193.352 49.093 193.849 48.7053C194.351 48.3125 194.898 48.0391 195.49 47.8849C196.086 47.7259 196.673 47.6463 197.25 47.6463C197.618 47.6463 198.04 47.6911 198.517 47.7805C199 47.8651 199.464 48.0415 199.912 48.31C200.364 48.5785 200.74 48.9837 201.038 49.5256C201.336 50.0675 201.485 50.7933 201.485 51.7031V59.25H199.725V57.6989H199.636C199.517 57.9474 199.318 58.2134 199.039 58.4968C198.761 58.7802 198.391 59.0213 197.928 59.2202C197.466 59.419 196.902 59.5185 196.235 59.5185ZM196.504 57.9375C197.2 57.9375 197.787 57.8008 198.264 57.5273C198.746 57.2539 199.109 56.9009 199.353 56.4684C199.601 56.0359 199.725 55.581 199.725 55.1037V53.4929C199.651 53.5824 199.487 53.6644 199.233 53.739C198.985 53.8086 198.696 53.8707 198.368 53.9254C198.045 53.9751 197.729 54.0199 197.421 54.0597C197.118 54.0945 196.872 54.1243 196.683 54.1491C196.225 54.2088 195.798 54.3058 195.4 54.44C195.007 54.5692 194.689 54.7656 194.446 55.0291C194.207 55.2876 194.088 55.6406 194.088 56.0881C194.088 56.6996 194.314 57.1619 194.766 57.4751C195.224 57.7834 195.803 57.9375 196.504 57.9375ZM195.072 46.4233L193.7 46.3636C193.7 45.603 193.916 44.9815 194.349 44.4993C194.786 44.0121 195.326 43.7685 195.967 43.7685C196.25 43.7685 196.501 43.8182 196.72 43.9176C196.939 44.0121 197.148 44.1214 197.347 44.2457C197.545 44.37 197.749 44.4819 197.958 44.5813C198.172 44.6758 198.413 44.723 198.681 44.723C198.965 44.723 199.203 44.6136 199.397 44.3949C199.596 44.1712 199.696 43.9027 199.696 43.5895L201.038 43.7088C201.038 44.4844 200.819 45.1009 200.382 45.5582C199.949 46.0156 199.412 46.2443 198.771 46.2443C198.428 46.2443 198.145 46.1971 197.921 46.1026C197.697 46.0032 197.498 45.8913 197.324 45.767C197.15 45.6428 196.966 45.5334 196.772 45.4389C196.578 45.3395 196.34 45.2898 196.056 45.2898C195.773 45.2898 195.537 45.4016 195.348 45.6254C195.164 45.8441 195.072 46.1101 195.072 46.4233ZM209.351 59.4886C208.317 59.4886 207.41 59.2425 206.629 58.7504C205.854 58.2582 205.247 57.5696 204.81 56.6847C204.377 55.7997 204.161 54.7656 204.161 53.5824C204.161 52.3892 204.377 51.3477 204.81 50.4577C205.247 49.5678 205.854 48.8768 206.629 48.3846C207.41 47.8924 208.317 47.6463 209.351 47.6463C210.385 47.6463 211.29 47.8924 212.066 48.3846C212.846 48.8768 213.453 49.5678 213.885 50.4577C214.323 51.3477 214.541 52.3892 214.541 53.5824C214.541 54.7656 214.323 55.7997 213.885 56.6847C213.453 57.5696 212.846 58.2582 212.066 58.7504C211.29 59.2425 210.385 59.4886 209.351 59.4886ZM209.351 57.9077C210.137 57.9077 210.783 57.7063 211.29 57.3036C211.797 56.9009 212.172 56.3714 212.416 55.7152C212.66 55.0589 212.782 54.348 212.782 53.5824C212.782 52.8168 212.66 52.1033 212.416 51.4421C212.172 50.7809 211.797 50.2464 211.29 49.8388C210.783 49.4311 210.137 49.2273 209.351 49.2273C208.566 49.2273 207.919 49.4311 207.412 49.8388C206.905 50.2464 206.53 50.7809 206.286 51.4421C206.043 52.1033 205.921 52.8168 205.921 53.5824C205.921 54.348 206.043 55.0589 206.286 55.7152C206.53 56.3714 206.905 56.9009 207.412 57.3036C207.919 57.7063 208.566 57.9077 209.351 57.9077ZM228.533 43.2614L223.612 61.5469H222.001L226.923 43.2614H228.533ZM236.764 59.25V43.9773H241.925C243.123 43.9773 244.103 44.1935 244.863 44.6261C245.629 45.0536 246.196 45.6328 246.563 46.3636C246.931 47.0945 247.115 47.9098 247.115 48.8097C247.115 49.7095 246.931 50.5273 246.563 51.2631C246.201 51.9989 245.639 52.5856 244.878 53.0231C244.117 53.4556 243.143 53.6719 241.955 53.6719H238.256V52.0312H241.895C242.715 52.0312 243.374 51.8896 243.871 51.6062C244.369 51.3228 244.729 50.94 244.953 50.4577C245.181 49.9705 245.296 49.4212 245.296 48.8097C245.296 48.1982 245.181 47.6513 244.953 47.169C244.729 46.6868 244.366 46.3089 243.864 46.0355C243.362 45.7571 242.696 45.6179 241.865 45.6179H238.614V59.25H236.764ZM249.856 59.25V47.7955H251.556V49.5256H251.676C251.884 48.9588 252.262 48.4989 252.809 48.146C253.356 47.793 253.972 47.6165 254.658 47.6165C254.788 47.6165 254.949 47.619 255.143 47.6239C255.337 47.6289 255.484 47.6364 255.583 47.6463V49.4361C255.524 49.4212 255.387 49.3988 255.173 49.369C254.964 49.3342 254.743 49.3168 254.509 49.3168C253.953 49.3168 253.455 49.4336 253.018 49.6673C252.585 49.896 252.242 50.2141 251.989 50.6218C251.74 51.0245 251.616 51.4844 251.616 52.0014V59.25H249.856ZM261.974 59.4886C260.94 59.4886 260.033 59.2425 259.252 58.7504C258.477 58.2582 257.87 57.5696 257.433 56.6847C257 55.7997 256.784 54.7656 256.784 53.5824C256.784 52.3892 257 51.3477 257.433 50.4577C257.87 49.5678 258.477 48.8768 259.252 48.3846C260.033 47.8924 260.94 47.6463 261.974 47.6463C263.008 47.6463 263.913 47.8924 264.689 48.3846C265.469 48.8768 266.076 49.5678 266.508 50.4577C266.946 51.3477 267.165 52.3892 267.165 53.5824C267.165 54.7656 266.946 55.7997 266.508 56.6847C266.076 57.5696 265.469 58.2582 264.689 58.7504C263.913 59.2425 263.008 59.4886 261.974 59.4886ZM261.974 57.9077C262.76 57.9077 263.406 57.7063 263.913 57.3036C264.42 56.9009 264.796 56.3714 265.039 55.7152C265.283 55.0589 265.405 54.348 265.405 53.5824C265.405 52.8168 265.283 52.1033 265.039 51.4421C264.796 50.7809 264.42 50.2464 263.913 49.8388C263.406 49.4311 262.76 49.2273 261.974 49.2273C261.189 49.2273 260.542 49.4311 260.035 49.8388C259.528 50.2464 259.153 50.7809 258.909 51.4421C258.666 52.1033 258.544 52.8168 258.544 53.5824C258.544 54.348 258.666 55.0589 258.909 55.7152C259.153 56.3714 259.528 56.9009 260.035 57.3036C260.542 57.7063 261.189 57.9077 261.974 57.9077ZM274.176 59.4886C273.222 59.4886 272.379 59.2475 271.648 58.7653C270.917 58.2781 270.346 57.592 269.933 56.707C269.52 55.8171 269.314 54.7656 269.314 53.5526C269.314 52.3494 269.52 51.3054 269.933 50.4205C270.346 49.5355 270.92 48.8519 271.656 48.3697C272.392 47.8874 273.242 47.6463 274.206 47.6463C274.952 47.6463 275.541 47.7706 275.974 48.0192C276.411 48.2628 276.744 48.5412 276.973 48.8544C277.206 49.1626 277.388 49.4162 277.517 49.6151H277.666V43.9773H279.426V59.25H277.726V57.4901H277.517C277.388 57.6989 277.204 57.9624 276.965 58.2805C276.727 58.5937 276.386 58.8746 275.944 59.1232C275.501 59.3668 274.912 59.4886 274.176 59.4886ZM274.415 57.9077C275.121 57.9077 275.718 57.7237 276.205 57.3558C276.692 56.983 277.062 56.4684 277.316 55.8121C277.569 55.1509 277.696 54.3878 277.696 53.5227C277.696 52.6676 277.572 51.9194 277.323 51.2781C277.075 50.6317 276.707 50.1296 276.22 49.7717C275.732 49.4087 275.131 49.2273 274.415 49.2273C273.669 49.2273 273.048 49.4187 272.551 49.8015C272.058 50.1793 271.688 50.6939 271.439 51.3452C271.196 51.9915 271.074 52.7173 271.074 53.5227C271.074 54.3381 271.198 55.0788 271.447 55.745C271.7 56.4062 272.073 56.9332 272.566 57.326C273.063 57.7138 273.679 57.9077 274.415 57.9077ZM290.113 54.5668V47.7955H291.873V59.25H290.113V57.3111H289.993C289.725 57.8928 289.307 58.3874 288.741 58.7951C288.174 59.1978 287.458 59.3991 286.593 59.3991C285.877 59.3991 285.241 59.2425 284.684 58.9293C284.127 58.6112 283.689 58.1339 283.371 57.4975C283.053 56.8562 282.894 56.0483 282.894 55.0739V47.7955H284.654V54.9545C284.654 55.7898 284.888 56.456 285.355 56.9531C285.827 57.4503 286.429 57.6989 287.16 57.6989C287.597 57.6989 288.042 57.587 288.494 57.3633C288.952 57.1396 289.335 56.7965 289.643 56.3342C289.956 55.8718 290.113 55.2827 290.113 54.5668ZM300.078 47.7955V49.2869H294.142V47.7955H300.078ZM295.872 45.0511H297.632V55.9688C297.632 56.4659 297.704 56.8388 297.848 57.0874C297.997 57.331 298.186 57.495 298.415 57.5795C298.648 57.6591 298.894 57.6989 299.153 57.6989C299.347 57.6989 299.506 57.6889 299.63 57.669C299.755 57.6442 299.854 57.6243 299.929 57.6094L300.286 59.1903C300.167 59.2351 300.001 59.2798 299.787 59.3246C299.573 59.3743 299.302 59.3991 298.974 59.3991C298.477 59.3991 297.99 59.2923 297.512 59.0785C297.04 58.8647 296.647 58.5391 296.334 58.1016C296.026 57.6641 295.872 57.1122 295.872 56.446V45.0511ZM307.255 59.4886C306.221 59.4886 305.314 59.2425 304.533 58.7504C303.758 58.2582 303.151 57.5696 302.714 56.6847C302.281 55.7997 302.065 54.7656 302.065 53.5824C302.065 52.3892 302.281 51.3477 302.714 50.4577C303.151 49.5678 303.758 48.8768 304.533 48.3846C305.314 47.8924 306.221 47.6463 307.255 47.6463C308.29 47.6463 309.194 47.8924 309.97 48.3846C310.75 48.8768 311.357 49.5678 311.79 50.4577C312.227 51.3477 312.446 52.3892 312.446 53.5824C312.446 54.7656 312.227 55.7997 311.79 56.6847C311.357 57.5696 310.75 58.2582 309.97 58.7504C309.194 59.2425 308.29 59.4886 307.255 59.4886ZM307.255 57.9077C308.041 57.9077 308.687 57.7063 309.194 57.3036C309.701 56.9009 310.077 56.3714 310.32 55.7152C310.564 55.0589 310.686 54.348 310.686 53.5824C310.686 52.8168 310.564 52.1033 310.32 51.4421C310.077 50.7809 309.701 50.2464 309.194 49.8388C308.687 49.4311 308.041 49.2273 307.255 49.2273C306.47 49.2273 305.824 49.4311 305.316 49.8388C304.809 50.2464 304.434 50.7809 304.19 51.4421C303.947 52.1033 303.825 52.8168 303.825 53.5824C303.825 54.348 303.947 55.0589 304.19 55.7152C304.434 56.3714 304.809 56.9009 305.316 57.3036C305.824 57.7063 306.47 57.9077 307.255 57.9077ZM325.99 59.25H321.277V43.9773H326.199C327.681 43.9773 328.948 44.283 330.002 44.8945C331.056 45.5011 331.864 46.3736 332.426 47.5121C332.988 48.6456 333.269 50.0028 333.269 51.5838C333.269 53.1747 332.985 54.5444 332.419 55.6928C331.852 56.8363 331.026 57.7163 329.943 58.3327C328.859 58.9442 327.541 59.25 325.99 59.25ZM323.127 57.6094H325.871C327.134 57.6094 328.18 57.3658 329.01 56.8786C329.841 56.3913 330.46 55.6978 330.867 54.7979C331.275 53.8981 331.479 52.8267 331.479 51.5838C331.479 50.3509 331.278 49.2894 330.875 48.3995C330.472 47.5046 329.871 46.8185 329.07 46.3413C328.27 45.859 327.273 45.6179 326.08 45.6179H323.127V57.6094ZM336.132 59.25V47.7955H337.892V59.25H336.132ZM337.027 45.8864C336.684 45.8864 336.388 45.7695 336.14 45.5359C335.896 45.3022 335.774 45.0213 335.774 44.6932C335.774 44.3651 335.896 44.0842 336.14 43.8505C336.388 43.6168 336.684 43.5 337.027 43.5C337.37 43.5 337.664 43.6168 337.907 43.8505C338.156 44.0842 338.28 44.3651 338.28 44.6932C338.28 45.0213 338.156 45.3022 337.907 45.5359C337.664 45.7695 337.37 45.8864 337.027 45.8864ZM345.739 63.7841C344.889 63.7841 344.158 63.6747 343.547 63.456C342.935 63.2422 342.426 62.9588 342.018 62.6058C341.615 62.2578 341.295 61.8849 341.056 61.4872L342.458 60.5028C342.617 60.7116 342.818 60.9503 343.062 61.2188C343.306 61.4922 343.639 61.7283 344.061 61.9272C344.489 62.131 345.048 62.233 345.739 62.233C346.664 62.233 347.427 62.0092 348.029 61.5618C348.63 61.1143 348.931 60.4134 348.931 59.4588V57.1321H348.782C348.653 57.3409 348.469 57.5994 348.23 57.9077C347.996 58.2109 347.658 58.4819 347.216 58.7205C346.778 58.9542 346.187 59.071 345.441 59.071C344.516 59.071 343.686 58.8523 342.95 58.4148C342.219 57.9773 341.64 57.3409 341.213 56.5057C340.79 55.6705 340.579 54.6562 340.579 53.4631C340.579 52.2898 340.785 51.2681 341.198 50.3981C341.61 49.5231 342.185 48.8469 342.92 48.3697C343.656 47.8874 344.506 47.6463 345.471 47.6463C346.217 47.6463 346.808 47.7706 347.246 48.0192C347.688 48.2628 348.026 48.5412 348.26 48.8544C348.498 49.1626 348.682 49.4162 348.812 49.6151H348.991V47.7955H350.691V59.5781C350.691 60.5625 350.467 61.3629 350.02 61.9794C349.577 62.6009 348.981 63.0558 348.23 63.3441C347.484 63.6374 346.654 63.7841 345.739 63.7841ZM345.68 57.4901C346.386 57.4901 346.982 57.3285 347.469 57.0053C347.957 56.6822 348.327 56.2173 348.581 55.6108C348.834 55.0043 348.961 54.2784 348.961 53.4332C348.961 52.608 348.837 51.8796 348.588 51.2482C348.339 50.6168 347.972 50.1222 347.484 49.7642C346.997 49.4062 346.396 49.2273 345.68 49.2273C344.934 49.2273 344.312 49.4162 343.815 49.794C343.323 50.1719 342.953 50.679 342.704 51.3153C342.46 51.9517 342.339 52.6577 342.339 53.4332C342.339 54.2287 342.463 54.9322 342.712 55.5437C342.965 56.1502 343.338 56.6275 343.83 56.9755C344.327 57.3185 344.944 57.4901 345.68 57.4901ZM353.913 59.25V47.7955H355.672V59.25H353.913ZM354.807 45.8864C354.464 45.8864 354.169 45.7695 353.92 45.5359C353.676 45.3022 353.555 45.0213 353.555 44.6932C353.555 44.3651 353.676 44.0842 353.92 43.8505C354.169 43.6168 354.464 43.5 354.807 43.5C355.15 43.5 355.444 43.6168 355.687 43.8505C355.936 44.0842 356.06 44.3651 356.06 44.6932C356.06 45.0213 355.936 45.3022 355.687 45.5359C355.444 45.7695 355.15 45.8864 354.807 45.8864ZM363.877 47.7955V49.2869H357.941V47.7955H363.877ZM359.672 45.0511H361.431V55.9688C361.431 56.4659 361.504 56.8388 361.648 57.0874C361.797 57.331 361.986 57.495 362.214 57.5795C362.448 57.6591 362.694 57.6989 362.953 57.6989C363.147 57.6989 363.306 57.6889 363.43 57.669C363.554 57.6442 363.654 57.6243 363.728 57.6094L364.086 59.1903C363.967 59.2351 363.8 59.2798 363.587 59.3246C363.373 59.3743 363.102 59.3991 362.774 59.3991C362.277 59.3991 361.789 59.2923 361.312 59.0785C360.84 58.8647 360.447 58.5391 360.134 58.1016C359.826 57.6641 359.672 57.1122 359.672 56.446V45.0511ZM369.896 59.5185C369.17 59.5185 368.511 59.3817 367.919 59.1083C367.328 58.8299 366.858 58.4297 366.51 57.9077C366.162 57.3807 365.988 56.7443 365.988 55.9986C365.988 55.3423 366.117 54.8104 366.376 54.4027C366.634 53.9901 366.98 53.6669 367.412 53.4332C367.845 53.1996 368.322 53.0256 368.844 52.9112C369.371 52.7919 369.901 52.6974 370.433 52.6278C371.129 52.5384 371.693 52.4712 372.125 52.4265C372.563 52.3768 372.881 52.2947 373.08 52.1804C373.284 52.0661 373.386 51.8672 373.386 51.5838V51.5241C373.386 50.7884 373.184 50.2166 372.782 49.8089C372.384 49.4013 371.78 49.1974 370.969 49.1974C370.129 49.1974 369.471 49.3814 368.993 49.7493C368.516 50.1172 368.18 50.5099 367.987 50.9276L366.316 50.331C366.614 49.6349 367.012 49.093 367.509 48.7053C368.011 48.3125 368.558 48.0391 369.15 47.8849C369.746 47.7259 370.333 47.6463 370.91 47.6463C371.278 47.6463 371.7 47.6911 372.178 47.7805C372.66 47.8651 373.125 48.0415 373.572 48.31C374.025 48.5785 374.4 48.9837 374.698 49.5256C374.996 50.0675 375.146 50.7933 375.146 51.7031V59.25H373.386V57.6989H373.296C373.177 57.9474 372.978 58.2134 372.7 58.4968C372.421 58.7802 372.051 59.0213 371.588 59.2202C371.126 59.419 370.562 59.5185 369.896 59.5185ZM370.164 57.9375C370.86 57.9375 371.447 57.8008 371.924 57.5273C372.406 57.2539 372.769 56.9009 373.013 56.4684C373.261 56.0359 373.386 55.581 373.386 55.1037V53.4929C373.311 53.5824 373.147 53.6644 372.893 53.739C372.645 53.8086 372.357 53.8707 372.028 53.9254C371.705 53.9751 371.39 54.0199 371.081 54.0597C370.778 54.0945 370.532 54.1243 370.343 54.1491C369.886 54.2088 369.458 54.3058 369.06 54.44C368.668 54.5692 368.349 54.7656 368.106 55.0291C367.867 55.2876 367.748 55.6406 367.748 56.0881C367.748 56.6996 367.974 57.1619 368.426 57.4751C368.884 57.7834 369.463 57.9375 370.164 57.9375ZM380.118 43.9773V59.25H378.358V43.9773H380.118Z" fill="#788896"/>
<path d="M1154 22H1007V78.5H1154V22Z" stroke="#C3CFD9" stroke-width="2"/>
<path d="M1027.82 43.8409H1029.4L1033.11 52.8963H1033.23L1036.94 43.8409H1038.52V54.75H1037.28V46.4616H1037.17L1033.77 54.75H1032.57L1029.16 46.4616H1029.06V54.75H1027.82V43.8409ZM1043.4 54.9418C1042.88 54.9418 1042.41 54.8441 1041.99 54.6488C1041.57 54.4499 1041.23 54.1641 1040.98 53.7912C1040.74 53.4148 1040.61 52.9602 1040.61 52.4276C1040.61 51.9588 1040.7 51.5788 1040.89 51.2876C1041.07 50.9929 1041.32 50.7621 1041.63 50.5952C1041.94 50.4283 1042.28 50.304 1042.65 50.2223C1043.03 50.1371 1043.41 50.0696 1043.79 50.0199C1044.28 49.956 1044.69 49.908 1045 49.8761C1045.31 49.8406 1045.54 49.782 1045.68 49.7003C1045.82 49.6186 1045.9 49.4766 1045.9 49.2741V49.2315C1045.9 48.706 1045.75 48.2976 1045.46 48.0064C1045.18 47.7152 1044.75 47.5696 1044.17 47.5696C1043.57 47.5696 1043.1 47.701 1042.76 47.9638C1042.42 48.2266 1042.18 48.5071 1042.04 48.8054L1040.85 48.3793C1041.06 47.8821 1041.34 47.495 1041.7 47.218C1042.06 46.9375 1042.45 46.7422 1042.87 46.6321C1043.3 46.5185 1043.72 46.4616 1044.13 46.4616C1044.39 46.4616 1044.69 46.4936 1045.03 46.5575C1045.38 46.6179 1045.71 46.744 1046.03 46.9357C1046.35 47.1275 1046.62 47.4169 1046.83 47.804C1047.05 48.1911 1047.15 48.7095 1047.15 49.3594V54.75H1045.9V53.642H1045.83C1045.75 53.8196 1045.6 54.0096 1045.41 54.212C1045.21 54.4144 1044.94 54.5866 1044.61 54.7287C1044.28 54.8707 1043.88 54.9418 1043.4 54.9418ZM1043.59 53.8125C1044.09 53.8125 1044.51 53.7148 1044.85 53.5195C1045.2 53.3242 1045.46 53.0721 1045.63 52.7631C1045.81 52.4542 1045.9 52.1293 1045.9 51.7884V50.6378C1045.84 50.7017 1045.73 50.7603 1045.54 50.8136C1045.37 50.8633 1045.16 50.9077 1044.93 50.9467C1044.7 50.9822 1044.47 51.0142 1044.25 51.0426C1044.03 51.0675 1043.86 51.0888 1043.72 51.1065C1043.4 51.1491 1043.09 51.2184 1042.81 51.3143C1042.53 51.4066 1042.3 51.5469 1042.12 51.7351C1041.95 51.9197 1041.87 52.1719 1041.87 52.4915C1041.87 52.9283 1042.03 53.2585 1042.35 53.4822C1042.68 53.7024 1043.09 53.8125 1043.59 53.8125ZM1049.45 54.75V46.5682H1050.66V47.804H1050.75C1050.9 47.3991 1051.17 47.0707 1051.56 46.8185C1051.95 46.5664 1052.39 46.4403 1052.88 46.4403C1052.97 46.4403 1053.09 46.4421 1053.22 46.4457C1053.36 46.4492 1053.47 46.4545 1053.54 46.4616V47.7401C1053.5 47.7294 1053.4 47.7134 1053.25 47.6921C1053.1 47.6673 1052.94 47.6548 1052.77 47.6548C1052.37 47.6548 1052.02 47.7383 1051.71 47.9052C1051.4 48.0685 1051.15 48.2958 1050.97 48.587C1050.79 48.8746 1050.7 49.2031 1050.7 49.5724V54.75H1049.45ZM1058.1 54.9205C1057.34 54.9205 1056.68 54.7393 1056.12 54.3771C1055.57 54.0149 1055.14 53.516 1054.84 52.8803C1054.55 52.2447 1054.4 51.5185 1054.4 50.7017C1054.4 49.8707 1054.55 49.1374 1054.85 48.5018C1055.16 47.8626 1055.59 47.3636 1056.14 47.005C1056.7 46.6428 1057.34 46.4616 1058.08 46.4616C1058.66 46.4616 1059.18 46.5682 1059.64 46.7812C1060.1 46.9943 1060.48 47.2926 1060.77 47.6761C1061.07 48.0597 1061.25 48.5071 1061.32 49.0185H1060.06C1059.97 48.6456 1059.75 48.3153 1059.42 48.0277C1059.1 47.7365 1058.66 47.5909 1058.1 47.5909C1057.61 47.5909 1057.18 47.7187 1056.81 47.9744C1056.45 48.2266 1056.16 48.5835 1055.96 49.0451C1055.75 49.5032 1055.65 50.0412 1055.65 50.6591C1055.65 51.2912 1055.75 51.8416 1055.95 52.3104C1056.15 52.7791 1056.44 53.1431 1056.8 53.4023C1057.17 53.6616 1057.61 53.7912 1058.1 53.7912C1058.43 53.7912 1058.73 53.7344 1058.99 53.6207C1059.26 53.5071 1059.48 53.3438 1059.67 53.1307C1059.85 52.9176 1059.99 52.6619 1060.06 52.3636H1061.32C1061.25 52.8466 1061.07 53.2816 1060.79 53.6687C1060.52 54.0522 1060.15 54.3576 1059.69 54.5849C1059.24 54.8086 1058.71 54.9205 1058.1 54.9205ZM1065.57 54.9418C1065.05 54.9418 1064.58 54.8441 1064.15 54.6488C1063.73 54.4499 1063.4 54.1641 1063.15 53.7912C1062.9 53.4148 1062.77 52.9602 1062.77 52.4276C1062.77 51.9588 1062.87 51.5788 1063.05 51.2876C1063.24 50.9929 1063.48 50.7621 1063.79 50.5952C1064.1 50.4283 1064.44 50.304 1064.81 50.2223C1065.19 50.1371 1065.57 50.0696 1065.95 50.0199C1066.45 49.956 1066.85 49.908 1067.16 49.8761C1067.47 49.8406 1067.7 49.782 1067.84 49.7003C1067.99 49.6186 1068.06 49.4766 1068.06 49.2741V49.2315C1068.06 48.706 1067.92 48.2976 1067.63 48.0064C1067.34 47.7152 1066.91 47.5696 1066.33 47.5696C1065.73 47.5696 1065.26 47.701 1064.92 47.9638C1064.58 48.2266 1064.34 48.5071 1064.2 48.8054L1063.01 48.3793C1063.22 47.8821 1063.51 47.495 1063.86 47.218C1064.22 46.9375 1064.61 46.7422 1065.03 46.6321C1065.46 46.5185 1065.88 46.4616 1066.29 46.4616C1066.55 46.4616 1066.86 46.4936 1067.2 46.5575C1067.54 46.6179 1067.87 46.744 1068.19 46.9357C1068.52 47.1275 1068.78 47.4169 1069 47.804C1069.21 48.1911 1069.32 48.7095 1069.32 49.3594V54.75H1068.06V53.642H1068C1067.91 53.8196 1067.77 54.0096 1067.57 54.212C1067.37 54.4144 1067.11 54.5866 1066.78 54.7287C1066.44 54.8707 1066.04 54.9418 1065.57 54.9418ZM1065.76 53.8125C1066.25 53.8125 1066.67 53.7148 1067.01 53.5195C1067.36 53.3242 1067.62 53.0721 1067.79 52.7631C1067.97 52.4542 1068.06 52.1293 1068.06 51.7884V50.6378C1068.01 50.7017 1067.89 50.7603 1067.71 50.8136C1067.53 50.8633 1067.32 50.9077 1067.09 50.9467C1066.86 50.9822 1066.63 51.0142 1066.41 51.0426C1066.2 51.0675 1066.02 51.0888 1065.89 51.1065C1065.56 51.1491 1065.25 51.2184 1064.97 51.3143C1064.69 51.4066 1064.46 51.5469 1064.29 51.7351C1064.12 51.9197 1064.03 52.1719 1064.03 52.4915C1064.03 52.9283 1064.19 53.2585 1064.52 53.4822C1064.84 53.7024 1065.26 53.8125 1065.76 53.8125ZM1076 54.75V43.8409H1079.69C1080.54 43.8409 1081.24 43.9954 1081.78 44.3043C1082.33 44.6097 1082.74 45.0234 1083 45.5455C1083.26 46.0675 1083.39 46.6499 1083.39 47.2926C1083.39 47.9354 1083.26 48.5195 1083 49.0451C1082.74 49.5707 1082.34 49.9897 1081.8 50.3022C1081.25 50.6112 1080.56 50.7656 1079.71 50.7656H1077.07V49.5938H1079.66C1080.25 49.5938 1080.72 49.4925 1081.08 49.2901C1081.43 49.0877 1081.69 48.8143 1081.85 48.4698C1082.01 48.1218 1082.09 47.7294 1082.09 47.2926C1082.09 46.8558 1082.01 46.4652 1081.85 46.1207C1081.69 45.7763 1081.43 45.5064 1081.07 45.3111C1080.71 45.1122 1080.24 45.0128 1079.64 45.0128H1077.32V54.75H1076ZM1088.69 54.9205C1087.9 54.9205 1087.22 54.7464 1086.65 54.3984C1086.08 54.0469 1085.65 53.5568 1085.34 52.9283C1085.03 52.2962 1084.88 51.5611 1084.88 50.723C1084.88 49.8849 1085.03 49.1463 1085.34 48.5071C1085.65 47.8643 1086.08 47.3636 1086.63 47.005C1087.18 46.6428 1087.83 46.4616 1088.57 46.4616C1088.99 46.4616 1089.41 46.5327 1089.83 46.6747C1090.24 46.8168 1090.62 47.0476 1090.96 47.3672C1091.3 47.6832 1091.58 48.1023 1091.78 48.6243C1091.98 49.1463 1092.08 49.7891 1092.08 50.5526V51.0852H1085.77V49.9986H1090.8C1090.8 49.5369 1090.71 49.125 1090.53 48.7628C1090.34 48.4006 1090.09 48.1147 1089.75 47.9052C1089.41 47.6957 1089.02 47.5909 1088.57 47.5909C1088.06 47.5909 1087.63 47.7152 1087.27 47.9638C1086.9 48.2088 1086.62 48.5284 1086.43 48.9226C1086.23 49.3168 1086.14 49.7393 1086.14 50.1903V50.9148C1086.14 51.5327 1086.24 52.0565 1086.46 52.4862C1086.67 52.9123 1086.97 53.2372 1087.36 53.4609C1087.74 53.6811 1088.19 53.7912 1088.69 53.7912C1089.02 53.7912 1089.32 53.745 1089.59 53.6527C1089.86 53.5568 1090.09 53.4148 1090.29 53.2266C1090.48 53.0348 1090.63 52.7969 1090.74 52.5128L1091.95 52.8537C1091.83 53.2656 1091.61 53.6278 1091.31 53.9403C1091.01 54.2493 1090.63 54.4908 1090.19 54.6648C1089.75 54.8352 1089.25 54.9205 1088.69 54.9205ZM1097.55 46.5682V47.6335H1093.31V46.5682H1097.55ZM1094.55 44.608H1095.8V52.4062C1095.8 52.7614 1095.86 53.0277 1095.96 53.2053C1096.07 53.3793 1096.2 53.4964 1096.36 53.5568C1096.53 53.6136 1096.71 53.642 1096.89 53.642C1097.03 53.642 1097.14 53.6349 1097.23 53.6207C1097.32 53.603 1097.39 53.5888 1097.45 53.5781L1097.7 54.7074C1097.62 54.7393 1097.5 54.7713 1097.34 54.8033C1097.19 54.8388 1097 54.8565 1096.76 54.8565C1096.41 54.8565 1096.06 54.7802 1095.72 54.6275C1095.38 54.4748 1095.1 54.2422 1094.88 53.9297C1094.66 53.6172 1094.55 53.223 1094.55 52.7472V44.608ZM1099.44 54.75V46.5682H1100.66V47.804H1100.74C1100.89 47.3991 1101.16 47.0707 1101.55 46.8185C1101.94 46.5664 1102.38 46.4403 1102.87 46.4403C1102.97 46.4403 1103.08 46.4421 1103.22 46.4457C1103.36 46.4492 1103.46 46.4545 1103.53 46.4616V47.7401C1103.49 47.7294 1103.39 47.7134 1103.24 47.6921C1103.09 47.6673 1102.93 47.6548 1102.77 47.6548C1102.37 47.6548 1102.01 47.7383 1101.7 47.9052C1101.39 48.0685 1101.15 48.2958 1100.97 48.587C1100.79 48.8746 1100.7 49.2031 1100.7 49.5724V54.75H1099.44ZM1108.1 54.9205C1107.36 54.9205 1106.71 54.7447 1106.15 54.3931C1105.6 54.0415 1105.17 53.5497 1104.85 52.9176C1104.55 52.2855 1104.39 51.5469 1104.39 50.7017C1104.39 49.8494 1104.55 49.1055 1104.85 48.4698C1105.17 47.8342 1105.6 47.3406 1106.15 46.989C1106.71 46.6374 1107.36 46.4616 1108.1 46.4616C1108.84 46.4616 1109.48 46.6374 1110.04 46.989C1110.59 47.3406 1111.03 47.8342 1111.34 48.4698C1111.65 49.1055 1111.81 49.8494 1111.81 50.7017C1111.81 51.5469 1111.65 52.2855 1111.34 52.9176C1111.03 53.5497 1110.59 54.0415 1110.04 54.3931C1109.48 54.7447 1108.84 54.9205 1108.1 54.9205ZM1108.1 53.7912C1108.66 53.7912 1109.12 53.6474 1109.48 53.3597C1109.85 53.0721 1110.11 52.6939 1110.29 52.2251C1110.46 51.7564 1110.55 51.2486 1110.55 50.7017C1110.55 50.1548 1110.46 49.6452 1110.29 49.1729C1110.11 48.7006 1109.85 48.3189 1109.48 48.0277C1109.12 47.7365 1108.66 47.5909 1108.1 47.5909C1107.54 47.5909 1107.08 47.7365 1106.71 48.0277C1106.35 48.3189 1106.08 48.7006 1105.91 49.1729C1105.74 49.6452 1105.65 50.1548 1105.65 50.7017C1105.65 51.2486 1105.74 51.7564 1105.91 52.2251C1106.08 52.6939 1106.35 53.0721 1106.71 53.3597C1107.08 53.6474 1107.54 53.7912 1108.1 53.7912ZM1113.9 54.75V43.8409H1115.15V47.8679H1115.26C1115.35 47.7259 1115.48 47.5447 1115.64 47.3246C1115.81 47.1009 1116.05 46.902 1116.36 46.728C1116.67 46.5504 1117.09 46.4616 1117.62 46.4616C1118.31 46.4616 1118.92 46.6339 1119.45 46.9783C1119.97 47.3228 1120.38 47.8111 1120.68 48.4432C1120.97 49.0753 1121.12 49.821 1121.12 50.6804C1121.12 51.5469 1120.97 52.2979 1120.68 52.9336C1120.38 53.5657 1119.97 54.0558 1119.45 54.4038C1118.93 54.7482 1118.33 54.9205 1117.65 54.9205C1117.12 54.9205 1116.7 54.8335 1116.38 54.6594C1116.07 54.4819 1115.82 54.2812 1115.65 54.0575C1115.48 53.8303 1115.35 53.642 1115.26 53.4929H1115.11V54.75H1113.9ZM1115.13 50.6591C1115.13 51.277 1115.22 51.8221 1115.4 52.2944C1115.58 52.7631 1115.85 53.1307 1116.2 53.397C1116.54 53.6598 1116.97 53.7912 1117.47 53.7912C1118 53.7912 1118.44 53.6527 1118.79 53.3757C1119.15 53.0952 1119.41 52.7187 1119.59 52.2464C1119.77 51.7706 1119.86 51.2415 1119.86 50.6591C1119.86 50.0838 1119.77 49.5653 1119.59 49.1037C1119.42 48.6385 1119.16 48.271 1118.8 48.0011C1118.45 47.7276 1118.01 47.5909 1117.47 47.5909C1116.96 47.5909 1116.53 47.7205 1116.19 47.9798C1115.84 48.2354 1115.57 48.5941 1115.4 49.0558C1115.22 49.5138 1115.13 50.0483 1115.13 50.6591ZM1123.04 54.75V46.5682H1124.26V47.804H1124.34C1124.49 47.3991 1124.76 47.0707 1125.15 46.8185C1125.54 46.5664 1125.98 46.4403 1126.47 46.4403C1126.56 46.4403 1126.68 46.4421 1126.82 46.4457C1126.96 46.4492 1127.06 46.4545 1127.13 46.4616V47.7401C1127.09 47.7294 1126.99 47.7134 1126.84 47.6921C1126.69 47.6673 1126.53 47.6548 1126.37 47.6548C1125.97 47.6548 1125.61 47.7383 1125.3 47.9052C1124.99 48.0685 1124.75 48.2958 1124.56 48.587C1124.39 48.8746 1124.3 49.2031 1124.3 49.5724V54.75H1123.04ZM1131.03 54.9418C1130.51 54.9418 1130.04 54.8441 1129.62 54.6488C1129.2 54.4499 1128.86 54.1641 1128.61 53.7912C1128.36 53.4148 1128.24 52.9602 1128.24 52.4276C1128.24 51.9588 1128.33 51.5788 1128.52 51.2876C1128.7 50.9929 1128.95 50.7621 1129.26 50.5952C1129.57 50.4283 1129.91 50.304 1130.28 50.2223C1130.66 50.1371 1131.03 50.0696 1131.41 50.0199C1131.91 49.956 1132.31 49.908 1132.62 49.8761C1132.94 49.8406 1133.16 49.782 1133.3 49.7003C1133.45 49.6186 1133.52 49.4766 1133.52 49.2741V49.2315C1133.52 48.706 1133.38 48.2976 1133.09 48.0064C1132.81 47.7152 1132.38 47.5696 1131.8 47.5696C1131.2 47.5696 1130.73 47.701 1130.39 47.9638C1130.04 48.2266 1129.8 48.5071 1129.67 48.8054L1128.47 48.3793C1128.69 47.8821 1128.97 47.495 1129.33 47.218C1129.68 46.9375 1130.07 46.7422 1130.5 46.6321C1130.92 46.5185 1131.34 46.4616 1131.75 46.4616C1132.02 46.4616 1132.32 46.4936 1132.66 46.5575C1133 46.6179 1133.34 46.744 1133.66 46.9357C1133.98 47.1275 1134.25 47.4169 1134.46 47.804C1134.67 48.1911 1134.78 48.7095 1134.78 49.3594V54.75H1133.52V53.642H1133.46C1133.37 53.8196 1133.23 54.0096 1133.03 54.212C1132.83 54.4144 1132.57 54.5866 1132.24 54.7287C1131.91 54.8707 1131.51 54.9418 1131.03 54.9418ZM1131.22 53.8125C1131.72 53.8125 1132.14 53.7148 1132.48 53.5195C1132.82 53.3242 1133.08 53.0721 1133.26 52.7631C1133.43 52.4542 1133.52 52.1293 1133.52 51.7884V50.6378C1133.47 50.7017 1133.35 50.7603 1133.17 50.8136C1132.99 50.8633 1132.79 50.9077 1132.55 50.9467C1132.32 50.9822 1132.1 51.0142 1131.88 51.0426C1131.66 51.0675 1131.48 51.0888 1131.35 51.1065C1131.02 51.1491 1130.72 51.2184 1130.43 51.3143C1130.15 51.4066 1129.93 51.5469 1129.75 51.7351C1129.58 51.9197 1129.5 52.1719 1129.5 52.4915C1129.5 52.9283 1129.66 53.2585 1129.98 53.4822C1130.31 53.7024 1130.72 53.8125 1131.22 53.8125ZM1142.87 48.4006L1141.74 48.7202C1141.67 48.532 1141.56 48.3491 1141.43 48.1715C1141.29 47.9904 1141.11 47.8413 1140.87 47.7241C1140.64 47.6069 1140.34 47.5483 1139.97 47.5483C1139.47 47.5483 1139.05 47.6637 1138.72 47.8945C1138.39 48.1218 1138.22 48.4112 1138.22 48.7628C1138.22 49.0753 1138.34 49.3221 1138.57 49.5032C1138.79 49.6843 1139.15 49.8352 1139.63 49.956L1140.85 50.2543C1141.58 50.4318 1142.12 50.7035 1142.48 51.0692C1142.84 51.4315 1143.02 51.8984 1143.02 52.4702C1143.02 52.9389 1142.88 53.358 1142.61 53.7273C1142.35 54.0966 1141.97 54.3878 1141.5 54.6009C1141.02 54.8139 1140.46 54.9205 1139.82 54.9205C1138.99 54.9205 1138.3 54.7393 1137.75 54.3771C1137.2 54.0149 1136.86 53.4858 1136.71 52.7898L1137.91 52.4915C1138.02 52.9318 1138.23 53.2621 1138.55 53.4822C1138.87 53.7024 1139.29 53.8125 1139.8 53.8125C1140.39 53.8125 1140.85 53.6882 1141.2 53.4396C1141.55 53.1875 1141.72 52.8857 1141.72 52.5341C1141.72 52.25 1141.62 52.0121 1141.42 51.8203C1141.22 51.625 1140.92 51.4794 1140.5 51.3835L1139.14 51.0639C1138.39 50.8864 1137.84 50.6112 1137.49 50.2383C1137.14 49.8619 1136.97 49.3913 1136.97 48.8267C1136.97 48.3651 1137.1 47.9567 1137.36 47.6016C1137.62 47.2464 1137.98 46.9677 1138.43 46.7653C1138.88 46.5629 1139.4 46.4616 1139.97 46.4616C1140.78 46.4616 1141.42 46.6392 1141.88 46.9943C1142.34 47.3494 1142.67 47.8182 1142.87 48.4006Z" fill="#788896"/>
<g clip-path="url(#clip0_6_3221)">
<path d="M957.5 37.9165C950.332 37.9165 944.5 43.7486 944.5 50.9165C944.5 58.0844 950.332 63.9165 957.5 63.9165C964.668 63.9165 970.5 58.0844 970.5 50.9165C970.5 43.7486 964.668 37.9165 957.5 37.9165ZM952.625 49.2915C952.625 46.6029 954.811 44.4165 957.5 44.4165C960.189 44.4165 962.375 46.6029 962.375 49.2915V50.9165C962.375 53.6051 960.189 55.7915 957.5 55.7915C954.811 55.7915 952.625 53.6051 952.625 50.9165V49.2915ZM957.5 62.2915C955.133 62.2915 952.934 61.5635 951.111 60.3212C952.3 59.0383 953.992 58.229 955.875 58.229H959.125C961.008 58.229 962.7 59.0383 963.889 60.3212C962.066 61.5635 959.867 62.2915 957.5 62.2915Z" fill="#788896"/>
</g>
<g clip-path="url(#clip1_6_3221)">
<path d="M924.072 63.9165H915.947C915.499 63.9165 915.135 63.5525 915.135 63.104V62.2915H924.885V63.104C924.885 63.5525 924.521 63.9165 924.072 63.9165Z" fill="#788896"/>
<path d="M920.01 37.9165C914.633 37.9165 910.26 42.2902 910.26 47.6665C910.26 51.1716 912.116 54.3599 915.135 56.1027V60.6665H924.885V56.1027C927.904 54.3599 929.76 51.1724 929.76 47.6665C929.76 42.2902 925.386 37.9165 920.01 37.9165ZM920.822 43.604H920.01C917.77 43.604 915.947 45.4264 915.947 47.6665V48.479H914.322V47.6665C914.322 44.5311 916.874 41.979 920.01 41.979H920.822V43.604Z" fill="#788896"/>
</g>
<g clip-path="url(#clip2_6_3221)">
<path d="M891.181 53.3507C891.387 52.5788 891.496 51.7842 891.505 50.9854C891.496 50.1866 891.387 49.392 891.181 48.6202L893.934 46.5945C894.162 46.427 894.319 46.1815 894.377 45.9051C894.434 45.6287 894.388 45.3408 894.246 45.0964L893.099 43.1097C892.958 42.8651 892.732 42.6811 892.463 42.593C892.195 42.505 891.904 42.5191 891.645 42.6325L888.532 44.009C887.378 42.895 885.965 42.0847 884.421 41.6507L884.049 38.2416C884.018 37.9598 883.883 37.6994 883.672 37.5109C883.46 37.3224 883.186 37.219 882.902 37.2207H880.608C880.324 37.219 880.05 37.3224 879.838 37.5109C879.627 37.6994 879.492 37.9598 879.461 38.2416L879.089 41.6507C877.545 42.0811 876.132 42.8874 874.976 43.9975L871.863 42.6211C871.604 42.5076 871.313 42.4935 871.044 42.5816C870.776 42.6696 870.549 42.8536 870.408 43.0983L869.261 45.085C869.12 45.3293 869.073 45.6172 869.131 45.8936C869.188 46.17 869.346 46.4155 869.573 46.583L872.326 48.6087C872.12 49.3844 872.012 50.1829 872.005 50.9854C872.014 51.7842 872.122 52.5788 872.328 53.3507L869.575 55.3764C869.348 55.5439 869.191 55.7894 869.133 56.0658C869.076 56.3422 869.122 56.6301 869.263 56.8744L870.411 58.8611C870.511 59.0355 870.656 59.1803 870.83 59.281C871.005 59.3817 871.203 59.4347 871.404 59.4347C871.562 59.4338 871.718 59.4011 871.863 59.3383L874.976 57.9618C876.132 59.072 877.545 59.8783 879.089 60.3087L879.461 63.7293C879.492 64.0111 879.627 64.2714 879.838 64.4599C880.05 64.6485 880.324 64.7519 880.608 64.7501H882.902C883.186 64.7519 883.46 64.6485 883.672 64.4599C883.883 64.2714 884.018 64.0111 884.049 63.7293L884.428 60.3202C885.969 59.8887 887.38 59.0825 888.534 57.9733L891.647 59.3498C891.792 59.4125 891.948 59.4453 892.106 59.4461C892.307 59.4461 892.505 59.3931 892.68 59.2925C892.854 59.1918 892.999 59.047 893.099 58.8726L894.246 56.8859C894.388 56.6416 894.434 56.3536 894.377 56.0772C894.319 55.8008 894.162 55.5554 893.934 55.3878L891.181 53.3507ZM881.755 55.5737C880.847 55.5737 879.96 55.3046 879.206 54.8004C878.451 54.2962 877.863 53.5797 877.516 52.7413C877.169 51.9029 877.078 50.9803 877.255 50.0903C877.432 49.2003 877.869 48.3827 878.511 47.7411C879.152 47.0994 879.97 46.6624 880.86 46.4854C881.75 46.3083 882.672 46.3992 883.511 46.7465C884.349 47.0937 885.066 47.6818 885.57 48.4363C886.074 49.1909 886.343 50.078 886.343 50.9854C886.343 52.2023 885.86 53.3693 884.999 54.2298C884.139 55.0903 882.972 55.5737 881.755 55.5737Z" fill="#788896"/>
</g>
<g clip-path="url(#clip3_6_3221)">
<path d="M837.812 38.729C837.812 38.2805 837.448 37.9165 837 37.9165C836.552 37.9165 836.188 38.2805 836.188 38.729V41.1665H837.812V38.729Z" fill="#788896"/>
<path d="M850.812 38.729C850.812 38.2805 850.448 37.9165 850 37.9165C849.552 37.9165 849.188 38.2805 849.188 38.729V41.1665H850.812V38.729Z" fill="#788896"/>
<path d="M852.438 41.979H834.562C832.768 41.979 831.312 43.4342 831.312 45.229V59.854C831.312 61.6488 832.768 63.104 834.562 63.104H852.438C854.232 63.104 855.688 61.6488 855.688 59.854V45.229C855.688 43.4342 854.232 41.979 852.438 41.979ZM854.062 59.854C854.062 60.7518 853.335 61.479 852.438 61.479H834.562C833.665 61.479 832.938 60.7518 832.938 59.854V46.854H854.062V59.854Z" fill="#788896"/>
<path d="M841.875 59.0415C841.667 59.0415 841.459 58.9618 841.301 58.8034L838.051 55.5534C837.733 55.2357 837.733 54.7222 838.051 54.4045C838.368 54.0868 838.882 54.0868 839.199 54.4045L841.875 57.0801L849.426 49.5295C849.743 49.2118 850.257 49.2118 850.574 49.5295C850.892 49.8472 850.892 50.3607 850.574 50.6784L842.449 58.8034C842.291 58.9618 842.083 59.0415 841.875 59.0415Z" fill="#788896"/>
</g>
<path d="M52 542C65.2548 542 76 531.255 76 518C76 504.745 65.2548 494 52 494C38.7452 494 28 504.745 28 518C28 531.255 38.7452 542 52 542Z" fill="#CED8E0"/>
<g clip-path="url(#clip4_6_3221)">
<path d="M57.7705 521.178C56.599 520.755 54.6467 520.25 52 520.25C49.3533 520.25 47.401 520.755 46.2295 521.178C45.3445 521.498 44.75 522.348 44.75 523.293V525.5C44.75 525.638 44.862 525.75 45 525.75H59C59.138 525.75 59.25 525.638 59.25 525.5V523.293C59.25 522.348 58.6555 521.498 57.7705 521.178Z" fill="#788896"/>
<path d="M52 518.75C54.0677 518.75 55.75 517.068 55.75 515V514C55.75 511.932 54.0677 510.25 52 510.25C49.9323 510.25 48.25 511.932 48.25 514V515C48.25 517.068 49.9323 518.75 52 518.75Z" fill="#788896"/>
</g>
<defs>
<clipPath id="clip0_6_3221">
<rect width="26" height="26" fill="white" transform="translate(944.5 37.9165)"/>
</clipPath>
<clipPath id="clip1_6_3221">
<rect width="26" height="26" fill="white" transform="translate(907.01 37.9165)"/>
</clipPath>
<clipPath id="clip2_6_3221">
<rect width="27.5294" height="27.5294" fill="white" transform="translate(867.99 37.2207)"/>
</clipPath>
<clipPath id="clip3_6_3221">
<rect width="26" height="26" fill="white" transform="translate(830.5 37.9165)"/>
</clipPath>
<clipPath id="clip4_6_3221">
<rect width="16" height="16" fill="white" transform="translate(44 510)"/>
</clipPath>
</defs>
</svg>
