<svg width="1178" height="563" viewBox="0 0 1178 563" fill="none" xmlns="http://www.w3.org/2000/svg">
<rect width="1178" height="563" fill="white"/>
<path d="M308 8H8V555H308V8Z" fill="#F2F5F7" stroke="#C3CFD9" stroke-width="2"/>
<path d="M61 69C74.2548 69 85 58.2548 85 45C85 31.7452 74.2548 21 61 21C47.7452 21 37 31.7452 37 45C37 58.2548 47.7452 69 61 69Z" fill="#CED8E0"/>
<g clip-path="url(#clip0_2_6564)">
<path d="M66.7705 48.1783C65.599 47.755 63.6467 47.25 61 47.25C58.3533 47.25 56.401 47.755 55.2295 48.1783C54.3445 48.4983 53.75 49.3482 53.75 50.2935V52.5C53.75 52.638 53.862 52.75 54 52.75H68C68.138 52.75 68.25 52.638 68.25 52.5V50.2935C68.25 49.3482 67.6555 48.4983 66.7705 48.1783Z" fill="#444444"/>
<path d="M61 45.75C63.0677 45.75 64.75 44.0677 64.75 42V41C64.75 38.9323 63.0677 37.25 61 37.25C58.9323 37.25 57.25 38.9323 57.25 41V42C57.25 44.0677 58.9323 45.75 61 45.75Z" fill="#444444"/>
</g>
<path d="M249 185H37V196H249V185Z" fill="#CED8E0"/>
<path d="M204 209.5H37V220.5H204V209.5Z" fill="#CED8E0"/>
<path d="M218 234H37V245H218V234Z" fill="#CED8E0"/>
<path d="M174 258.5H39V269.5H174V258.5Z" fill="#CED8E0"/>
<path d="M195 283H39V294H195V283Z" fill="#CED8E0"/>
<path d="M204 307.5H37V318.5H204V307.5Z" fill="#CED8E0"/>
<path d="M218 332H37V343H218V332Z" fill="#CED8E0"/>
<path d="M220 356.5H39V367.5H220V356.5Z" fill="#CED8E0"/>
<path d="M204 381H37V392H204V381Z" fill="#CED8E0"/>
<path d="M211 109H55C45.0589 109 37 117.059 37 127C37 136.941 45.0589 145 55 145H211C220.941 145 229 136.941 229 127C229 117.059 220.941 109 211 109Z" fill="white"/>
<path d="M211 109H55C45.0589 109 37 117.059 37 127C37 136.941 45.0589 145 55 145H211C220.941 145 229 136.941 229 127C229 117.059 220.941 109 211 109Z" fill="#C3CFD9"/>
<path d="M1170 8H308V555H1170V8Z" stroke="#C3CFD9" stroke-width="2"/>
<defs>
<clipPath id="clip0_2_6564">
<rect width="16" height="16" fill="white" transform="translate(53 37)"/>
</clipPath>
</defs>
</svg>
