<svg width="1440" height="582" viewBox="0 0 1440 582" fill="none" xmlns="http://www.w3.org/2000/svg">
<rect width="1440" height="582" fill="white"/>
<path d="M308 8H8V574H308V8Z" fill="#F2F5F7" stroke="#C3CFD9" stroke-width="2"/>
<path d="M61 88C74.2548 88 85 77.2548 85 64C85 50.7452 74.2548 40 61 40C47.7452 40 37 50.7452 37 64C37 77.2548 47.7452 88 61 88Z" fill="#CED8E0"/>
<g clip-path="url(#clip0_6_2473)">
<path d="M66.7705 67.1783C65.599 66.755 63.6467 66.25 61 66.25C58.3533 66.25 56.401 66.755 55.2295 67.1783C54.3445 67.4983 53.75 68.3482 53.75 69.2935V71.5C53.75 71.638 53.862 71.75 54 71.75H68C68.138 71.75 68.25 71.638 68.25 71.5V69.2935C68.25 68.3482 67.6555 67.4983 66.7705 67.1783Z" fill="#444444"/>
<path d="M61 64.75C63.0677 64.75 64.75 63.0677 64.75 61V60C64.75 57.9323 63.0677 56.25 61 56.25C58.9323 56.25 57.25 57.9323 57.25 60V61C57.25 63.0677 58.9323 64.75 61 64.75Z" fill="#444444"/>
</g>
<path d="M249 112H37V123H249V112Z" fill="#CED8E0"/>
<path d="M204 136.5H37V147.5H204V136.5Z" fill="#CED8E0"/>
<path d="M218 161H37V172H218V161Z" fill="#CED8E0"/>
<path d="M174 185.5H39V196.5H174V185.5Z" fill="#CED8E0"/>
<path d="M195 210H39V221H195V210Z" fill="#CED8E0"/>
<path d="M204 234.5H37V245.5H204V234.5Z" fill="#CED8E0"/>
<path d="M218 259H37V270H218V259Z" fill="#CED8E0"/>
<path d="M220 283.5H39V294.5H220V283.5Z" fill="#CED8E0"/>
<path d="M204 308H37V319H204V308Z" fill="#CED8E0"/>
<path d="M1432 96H308V574H1432V96Z" stroke="#C3CFD9" stroke-width="2"/>
<path d="M1432 8H308V96H1432V8Z" stroke="#C3CFD9" stroke-width="2"/>
<path d="M338.015 43.2273V58.5H336.226L327.903 46.5085H327.754V58.5H325.905V43.2273H327.694L336.047 55.2486H336.196V43.2273H338.015ZM346.131 58.7386C345.097 58.7386 344.189 58.4925 343.409 58.0004C342.633 57.5082 342.027 56.8196 341.589 55.9347C341.157 55.0497 340.941 54.0156 340.941 52.8324C340.941 51.6392 341.157 50.5977 341.589 49.7077C342.027 48.8178 342.633 48.1268 343.409 47.6346C344.189 47.1424 345.097 46.8963 346.131 46.8963C347.165 46.8963 348.07 47.1424 348.845 47.6346C349.626 48.1268 350.232 48.8178 350.665 49.7077C351.102 50.5977 351.321 51.6392 351.321 52.8324C351.321 54.0156 351.102 55.0497 350.665 55.9347C350.232 56.8196 349.626 57.5082 348.845 58.0004C348.07 58.4925 347.165 58.7386 346.131 58.7386ZM346.131 57.1577C346.916 57.1577 347.563 56.9563 348.07 56.5536C348.577 56.1509 348.952 55.6214 349.196 54.9652C349.439 54.3089 349.561 53.598 349.561 52.8324C349.561 52.0668 349.439 51.3533 349.196 50.6921C348.952 50.0309 348.577 49.4964 348.07 49.0888C347.563 48.6811 346.916 48.4773 346.131 48.4773C345.345 48.4773 344.699 48.6811 344.192 49.0888C343.685 49.4964 343.31 50.0309 343.066 50.6921C342.822 51.3533 342.701 52.0668 342.701 52.8324C342.701 53.598 342.822 54.3089 343.066 54.9652C343.31 55.6214 343.685 56.1509 344.192 56.5536C344.699 56.9563 345.345 57.1577 346.131 57.1577ZM354.008 58.5V47.0455H355.708V48.8352H355.857C356.096 48.2237 356.481 47.7489 357.013 47.4109C357.545 47.0678 358.184 46.8963 358.93 46.8963C359.685 46.8963 360.314 47.0678 360.816 47.4109C361.323 47.7489 361.719 48.2237 362.002 48.8352H362.121C362.415 48.2436 362.855 47.7738 363.441 47.4258C364.028 47.0728 364.731 46.8963 365.552 46.8963C366.576 46.8963 367.414 47.217 368.065 47.8583C368.716 48.4947 369.042 49.4865 369.042 50.8338V58.5H367.282V50.8338C367.282 49.9886 367.051 49.3846 366.588 49.0217C366.126 48.6587 365.582 48.4773 364.955 48.4773C364.15 48.4773 363.526 48.7209 363.083 49.2081C362.641 49.6903 362.42 50.3018 362.42 51.0426V58.5H360.63V50.6548C360.63 50.0036 360.419 49.479 359.996 49.0813C359.573 48.6786 359.029 48.4773 358.363 48.4773C357.905 48.4773 357.478 48.5991 357.08 48.8427C356.687 49.0863 356.369 49.4244 356.126 49.8569C355.887 50.2844 355.768 50.7791 355.768 51.3409V58.5H354.008ZM377.062 58.7386C375.959 58.7386 375.007 58.495 374.206 58.0078C373.411 57.5156 372.797 56.8295 372.364 55.9496C371.937 55.0646 371.723 54.0355 371.723 52.8622C371.723 51.6889 371.937 50.6548 372.364 49.7599C372.797 48.8601 373.398 48.1591 374.169 47.657C374.944 47.1499 375.849 46.8963 376.883 46.8963C377.48 46.8963 378.069 46.9957 378.651 47.1946C379.232 47.3935 379.762 47.7166 380.239 48.1641C380.716 48.6065 381.097 49.1932 381.38 49.924C381.663 50.6548 381.805 51.5547 381.805 52.6236V53.3693H372.976V51.848H380.015C380.015 51.2017 379.886 50.625 379.628 50.1179C379.374 49.6108 379.011 49.2106 378.539 48.9173C378.072 48.6239 377.52 48.4773 376.883 48.4773C376.182 48.4773 375.576 48.6513 375.064 48.9993C374.557 49.3423 374.166 49.7898 373.893 50.3416C373.619 50.8935 373.483 51.4851 373.483 52.1165V53.1307C373.483 53.9957 373.632 54.729 373.93 55.3306C374.233 55.9272 374.654 56.3821 375.19 56.6953C375.727 57.0036 376.351 57.1577 377.062 57.1577C377.525 57.1577 377.942 57.093 378.315 56.9638C378.693 56.8295 379.019 56.6307 379.292 56.3672C379.565 56.0987 379.777 55.7656 379.926 55.3679L381.626 55.8452C381.447 56.4219 381.146 56.929 380.724 57.3665C380.301 57.799 379.779 58.1371 379.158 58.3807C378.536 58.6193 377.838 58.7386 377.062 58.7386ZM394.714 58.7386C393.759 58.7386 392.917 58.4975 392.186 58.0153C391.455 57.5281 390.883 56.842 390.471 55.957C390.058 55.0671 389.852 54.0156 389.852 52.8026C389.852 51.5994 390.058 50.5554 390.471 49.6705C390.883 48.7855 391.458 48.1019 392.193 47.6197C392.929 47.1374 393.779 46.8963 394.744 46.8963C395.489 46.8963 396.079 47.0206 396.511 47.2692C396.949 47.5128 397.282 47.7912 397.51 48.1044C397.744 48.4126 397.926 48.6662 398.055 48.8651H398.204V43.2273H399.964V58.5H398.264V56.7401H398.055C397.926 56.9489 397.742 57.2124 397.503 57.5305C397.264 57.8437 396.924 58.1246 396.481 58.3732C396.039 58.6168 395.45 58.7386 394.714 58.7386ZM394.953 57.1577C395.659 57.1577 396.255 56.9737 396.742 56.6058C397.23 56.233 397.6 55.7184 397.853 55.0621C398.107 54.4009 398.234 53.6378 398.234 52.7727C398.234 51.9176 398.11 51.1694 397.861 50.5281C397.612 49.8817 397.244 49.3796 396.757 49.0217C396.27 48.6587 395.668 48.4773 394.953 48.4773C394.207 48.4773 393.585 48.6687 393.088 49.0515C392.596 49.4293 392.226 49.9439 391.977 50.5952C391.733 51.2415 391.612 51.9673 391.612 52.7727C391.612 53.5881 391.736 54.3288 391.985 54.995C392.238 55.6562 392.611 56.1832 393.103 56.576C393.6 56.9638 394.217 57.1577 394.953 57.1577ZM406.802 58.7685C406.076 58.7685 405.418 58.6317 404.826 58.3583C404.235 58.0799 403.765 57.6797 403.417 57.1577C403.069 56.6307 402.895 55.9943 402.895 55.2486C402.895 54.5923 403.024 54.0604 403.282 53.6527C403.541 53.2401 403.886 52.9169 404.319 52.6832C404.752 52.4496 405.229 52.2756 405.751 52.1612C406.278 52.0419 406.807 51.9474 407.339 51.8778C408.035 51.7884 408.6 51.7212 409.032 51.6765C409.47 51.6268 409.788 51.5447 409.987 51.4304C410.19 51.3161 410.292 51.1172 410.292 50.8338V50.7741C410.292 50.0384 410.091 49.4666 409.688 49.0589C409.291 48.6513 408.687 48.4474 407.876 48.4474C407.036 48.4474 406.377 48.6314 405.9 48.9993C405.423 49.3672 405.087 49.7599 404.893 50.1776L403.223 49.581C403.521 48.8849 403.919 48.343 404.416 47.9553C404.918 47.5625 405.465 47.2891 406.057 47.1349C406.653 46.9759 407.24 46.8963 407.817 46.8963C408.184 46.8963 408.607 46.9411 409.084 47.0305C409.567 47.1151 410.031 47.2915 410.479 47.56C410.931 47.8285 411.307 48.2337 411.605 48.7756C411.903 49.3175 412.052 50.0433 412.052 50.9531V58.5H410.292V56.9489H410.203C410.084 57.1974 409.885 57.4634 409.606 57.7468C409.328 58.0302 408.958 58.2713 408.495 58.4702C408.033 58.669 407.469 58.7685 406.802 58.7685ZM407.071 57.1875C407.767 57.1875 408.353 57.0508 408.831 56.7773C409.313 56.5039 409.676 56.1509 409.92 55.7184C410.168 55.2859 410.292 54.831 410.292 54.3537V52.7429C410.218 52.8324 410.054 52.9144 409.8 52.989C409.552 53.0586 409.263 53.1207 408.935 53.1754C408.612 53.2251 408.296 53.2699 407.988 53.3097C407.685 53.3445 407.439 53.3743 407.25 53.3991C406.792 53.4588 406.365 53.5558 405.967 53.69C405.574 53.8192 405.256 54.0156 405.013 54.2791C404.774 54.5376 404.655 54.8906 404.655 55.3381C404.655 55.9496 404.881 56.4119 405.333 56.7251C405.791 57.0334 406.37 57.1875 407.071 57.1875ZM422.036 58.5H420.097L425.705 43.2273H427.614L433.222 58.5H431.283L426.719 45.6435H426.6L422.036 58.5ZM422.752 52.5341H430.567V54.1747H422.752V52.5341ZM435.362 62.7955V47.0455H437.063V48.8651H437.271C437.401 48.6662 437.58 48.4126 437.808 48.1044C438.042 47.7912 438.375 47.5128 438.808 47.2692C439.245 47.0206 439.837 46.8963 440.582 46.8963C441.547 46.8963 442.397 47.1374 443.133 47.6197C443.869 48.1019 444.443 48.7855 444.856 49.6705C445.268 50.5554 445.474 51.5994 445.474 52.8026C445.474 54.0156 445.268 55.0671 444.856 55.957C444.443 56.842 443.871 57.5281 443.14 58.0153C442.409 58.4975 441.567 58.7386 440.612 58.7386C439.876 58.7386 439.287 58.6168 438.845 58.3732C438.402 58.1246 438.062 57.8437 437.823 57.5305C437.585 57.2124 437.401 56.9489 437.271 56.7401H437.122V62.7955H435.362ZM437.092 52.7727C437.092 53.6378 437.219 54.4009 437.473 55.0621C437.726 55.7184 438.097 56.233 438.584 56.6058C439.071 56.9737 439.668 57.1577 440.374 57.1577C441.109 57.1577 441.723 56.9638 442.216 56.576C442.713 56.1832 443.086 55.6562 443.334 54.995C443.588 54.3288 443.715 53.5881 443.715 52.7727C443.715 51.9673 443.59 51.2415 443.342 50.5952C443.098 49.9439 442.728 49.4293 442.231 49.0515C441.738 48.6687 441.119 48.4773 440.374 48.4773C439.658 48.4773 439.056 48.6587 438.569 49.0217C438.082 49.3796 437.714 49.8817 437.465 50.5281C437.217 51.1694 437.092 51.9176 437.092 52.7727ZM449.919 43.2273V58.5H448.159V43.2273H449.919ZM453.143 58.5V47.0455H454.902V58.5H453.143ZM454.037 45.1364C453.694 45.1364 453.399 45.0195 453.15 44.7859C452.906 44.5522 452.785 44.2713 452.785 43.9432C452.785 43.6151 452.906 43.3342 453.15 43.1005C453.399 42.8668 453.694 42.75 454.037 42.75C454.38 42.75 454.674 42.8668 454.917 43.1005C455.166 43.3342 455.29 43.6151 455.29 43.9432C455.29 44.2713 455.166 44.5522 454.917 44.7859C454.674 45.0195 454.38 45.1364 454.037 45.1364ZM462.779 58.7386C461.705 58.7386 460.781 58.4851 460.005 57.978C459.23 57.4709 458.633 56.7724 458.215 55.8825C457.798 54.9925 457.589 53.9759 457.589 52.8324C457.589 51.669 457.803 50.6424 458.23 49.7525C458.663 48.8576 459.264 48.1591 460.035 47.657C460.811 47.1499 461.715 46.8963 462.75 46.8963C463.555 46.8963 464.281 47.0455 464.927 47.3438C465.573 47.642 466.103 48.0597 466.515 48.5966C466.928 49.1335 467.184 49.7599 467.284 50.4759H465.524C465.389 49.9538 465.091 49.4915 464.629 49.0888C464.171 48.6811 463.555 48.4773 462.779 48.4773C462.093 48.4773 461.492 48.6562 460.975 49.0142C460.463 49.3672 460.062 49.8668 459.774 50.5131C459.491 51.1545 459.349 51.9077 459.349 52.7727C459.349 53.6577 459.488 54.4283 459.767 55.0845C460.05 55.7408 460.448 56.2504 460.96 56.6133C461.477 56.9762 462.083 57.1577 462.779 57.1577C463.237 57.1577 463.652 57.0781 464.025 56.919C464.398 56.7599 464.713 56.5312 464.972 56.233C465.23 55.9347 465.414 55.5767 465.524 55.1591H467.284C467.184 55.8352 466.938 56.4442 466.545 56.9862C466.158 57.5231 465.643 57.9506 465.002 58.2688C464.365 58.582 463.625 58.7386 462.779 58.7386ZM473.227 58.7685C472.501 58.7685 471.843 58.6317 471.251 58.3583C470.659 58.0799 470.189 57.6797 469.841 57.1577C469.493 56.6307 469.319 55.9943 469.319 55.2486C469.319 54.5923 469.449 54.0604 469.707 53.6527C469.966 53.2401 470.311 52.9169 470.744 52.6832C471.176 52.4496 471.654 52.2756 472.176 52.1612C472.703 52.0419 473.232 51.9474 473.764 51.8778C474.46 51.7884 475.024 51.7212 475.457 51.6765C475.894 51.6268 476.213 51.5447 476.411 51.4304C476.615 51.3161 476.717 51.1172 476.717 50.8338V50.7741C476.717 50.0384 476.516 49.4666 476.113 49.0589C475.715 48.6513 475.111 48.4474 474.301 48.4474C473.461 48.4474 472.802 48.6314 472.325 48.9993C471.848 49.3672 471.512 49.7599 471.318 50.1776L469.648 49.581C469.946 48.8849 470.344 48.343 470.841 47.9553C471.343 47.5625 471.89 47.2891 472.481 47.1349C473.078 46.9759 473.665 46.8963 474.241 46.8963C474.609 46.8963 475.032 46.9411 475.509 47.0305C475.991 47.1151 476.456 47.2915 476.904 47.56C477.356 47.8285 477.731 48.2337 478.03 48.7756C478.328 49.3175 478.477 50.0433 478.477 50.9531V58.5H476.717V56.9489H476.628C476.508 57.1974 476.31 57.4634 476.031 57.7468C475.753 58.0302 475.382 58.2713 474.92 58.4702C474.458 58.669 473.893 58.7685 473.227 58.7685ZM473.496 57.1875C474.192 57.1875 474.778 57.0508 475.256 56.7773C475.738 56.5039 476.101 56.1509 476.344 55.7184C476.593 55.2859 476.717 54.831 476.717 54.3537V52.7429C476.643 52.8324 476.479 52.9144 476.225 52.989C475.976 53.0586 475.688 53.1207 475.36 53.1754C475.037 53.2251 474.721 53.2699 474.413 53.3097C474.11 53.3445 473.864 53.3743 473.675 53.3991C473.217 53.4588 472.79 53.5558 472.392 53.69C471.999 53.8192 471.681 54.0156 471.437 54.2791C471.199 54.5376 471.079 54.8906 471.079 55.3381C471.079 55.9496 471.306 56.4119 471.758 56.7251C472.215 57.0334 472.795 57.1875 473.496 57.1875ZM486.343 58.7386C485.269 58.7386 484.344 58.4851 483.569 57.978C482.793 57.4709 482.197 56.7724 481.779 55.8825C481.361 54.9925 481.152 53.9759 481.152 52.8324C481.152 51.669 481.366 50.6424 481.794 49.7525C482.226 48.8576 482.828 48.1591 483.598 47.657C484.374 47.1499 485.279 46.8963 486.313 46.8963C487.118 46.8963 487.844 47.0455 488.491 47.3438C489.137 47.642 489.666 48.0597 490.079 48.5966C490.492 49.1335 490.748 49.7599 490.847 50.4759H489.087C488.953 49.9538 488.655 49.4915 488.192 49.0888C487.735 48.6811 487.118 48.4773 486.343 48.4773C485.657 48.4773 485.055 48.6562 484.538 49.0142C484.026 49.3672 483.626 49.8668 483.337 50.5131C483.054 51.1545 482.912 51.9077 482.912 52.7727C482.912 53.6577 483.052 54.4283 483.33 55.0845C483.613 55.7408 484.011 56.2504 484.523 56.6133C485.04 56.9762 485.647 57.1577 486.343 57.1577C486.8 57.1577 487.215 57.0781 487.588 56.919C487.961 56.7599 488.277 56.5312 488.535 56.233C488.794 55.9347 488.978 55.5767 489.087 55.1591H490.847C490.748 55.8352 490.502 56.4442 490.109 56.9862C489.721 57.5231 489.206 57.9506 488.565 58.2688C487.929 58.582 487.188 58.7386 486.343 58.7386ZM485.508 58.4403H486.969L486.85 59.0369C487.238 59.0966 487.593 59.2582 487.916 59.5217C488.239 59.7901 488.401 60.2152 488.401 60.7969C488.401 61.4382 488.135 61.9602 487.603 62.3629C487.076 62.7706 486.298 62.9744 485.269 62.9744L485.209 61.8111C485.672 61.8111 486.054 61.7365 486.358 61.5874C486.666 61.4432 486.82 61.1996 486.82 60.8565C486.82 60.5135 486.693 60.2798 486.44 60.1555C486.186 60.0313 485.776 59.9467 485.209 59.902L485.508 58.4403ZM496.791 58.7685C496.065 58.7685 495.406 58.6317 494.814 58.3583C494.223 58.0799 493.753 57.6797 493.405 57.1577C493.057 56.6307 492.883 55.9943 492.883 55.2486C492.883 54.5923 493.012 54.0604 493.271 53.6527C493.529 53.2401 493.875 52.9169 494.307 52.6832C494.74 52.4496 495.217 52.2756 495.739 52.1612C496.266 52.0419 496.796 51.9474 497.328 51.8778C498.024 51.7884 498.588 51.7212 499.02 51.6765C499.458 51.6268 499.776 51.5447 499.975 51.4304C500.179 51.3161 500.281 51.1172 500.281 50.8338V50.7741C500.281 50.0384 500.079 49.4666 499.677 49.0589C499.279 48.6513 498.675 48.4474 497.864 48.4474C497.024 48.4474 496.366 48.6314 495.888 48.9993C495.411 49.3672 495.075 49.7599 494.882 50.1776L493.211 49.581C493.509 48.8849 493.907 48.343 494.404 47.9553C494.906 47.5625 495.453 47.2891 496.045 47.1349C496.641 46.9759 497.228 46.8963 497.805 46.8963C498.173 46.8963 498.595 46.9411 499.073 47.0305C499.555 47.1151 500.02 47.2915 500.467 47.56C500.92 47.8285 501.295 48.2337 501.593 48.7756C501.891 49.3175 502.041 50.0433 502.041 50.9531V58.5H500.281V56.9489H500.191C500.072 57.1974 499.873 57.4634 499.595 57.7468C499.316 58.0302 498.946 58.2713 498.483 58.4702C498.021 58.669 497.457 58.7685 496.791 58.7685ZM497.059 57.1875C497.755 57.1875 498.342 57.0508 498.819 56.7773C499.301 56.5039 499.664 56.1509 499.908 55.7184C500.156 55.2859 500.281 54.831 500.281 54.3537V52.7429C500.206 52.8324 500.042 52.9144 499.788 52.989C499.54 53.0586 499.252 53.1207 498.923 53.1754C498.6 53.2251 498.285 53.2699 497.976 53.3097C497.673 53.3445 497.427 53.3743 497.238 53.3991C496.781 53.4588 496.353 53.5558 495.955 53.69C495.563 53.8192 495.244 54.0156 495.001 54.2791C494.762 54.5376 494.643 54.8906 494.643 55.3381C494.643 55.9496 494.869 56.4119 495.322 56.7251C495.779 57.0334 496.358 57.1875 497.059 57.1875ZM495.627 45.6733L494.255 45.6136C494.255 44.853 494.471 44.2315 494.904 43.7493C495.341 43.2621 495.881 43.0185 496.522 43.0185C496.806 43.0185 497.057 43.0682 497.275 43.1676C497.494 43.2621 497.703 43.3714 497.902 43.4957C498.101 43.62 498.304 43.7319 498.513 43.8313C498.727 43.9258 498.968 43.973 499.237 43.973C499.52 43.973 499.759 43.8636 499.953 43.6449C500.151 43.4212 500.251 43.1527 500.251 42.8395L501.593 42.9588C501.593 43.7344 501.374 44.3509 500.937 44.8082C500.504 45.2656 499.967 45.4943 499.326 45.4943C498.983 45.4943 498.7 45.4471 498.476 45.3526C498.252 45.2532 498.053 45.1413 497.879 45.017C497.705 44.8928 497.521 44.7834 497.328 44.6889C497.134 44.5895 496.895 44.5398 496.612 44.5398C496.328 44.5398 496.092 44.6516 495.903 44.8754C495.719 45.0941 495.627 45.3601 495.627 45.6733ZM509.906 58.7386C508.872 58.7386 507.965 58.4925 507.184 58.0004C506.409 57.5082 505.802 56.8196 505.365 55.9347C504.932 55.0497 504.716 54.0156 504.716 52.8324C504.716 51.6392 504.932 50.5977 505.365 49.7077C505.802 48.8178 506.409 48.1268 507.184 47.6346C507.965 47.1424 508.872 46.8963 509.906 46.8963C510.94 46.8963 511.845 47.1424 512.621 47.6346C513.401 48.1268 514.008 48.8178 514.44 49.7077C514.878 50.5977 515.097 51.6392 515.097 52.8324C515.097 54.0156 514.878 55.0497 514.44 55.9347C514.008 56.8196 513.401 57.5082 512.621 58.0004C511.845 58.4925 510.94 58.7386 509.906 58.7386ZM509.906 57.1577C510.692 57.1577 511.338 56.9563 511.845 56.5536C512.352 56.1509 512.728 55.6214 512.971 54.9652C513.215 54.3089 513.337 53.598 513.337 52.8324C513.337 52.0668 513.215 51.3533 512.971 50.6921C512.728 50.0309 512.352 49.4964 511.845 49.0888C511.338 48.6811 510.692 48.4773 509.906 48.4773C509.121 48.4773 508.474 48.6811 507.967 49.0888C507.46 49.4964 507.085 50.0309 506.841 50.6921C506.598 51.3533 506.476 52.0668 506.476 52.8324C506.476 53.598 506.598 54.3089 506.841 54.9652C507.085 55.6214 507.46 56.1509 507.967 56.5536C508.474 56.9563 509.121 57.1577 509.906 57.1577ZM529.089 42.5114L524.167 60.7969H522.556L527.478 42.5114H529.089ZM537.32 58.5V43.2273H542.48C543.678 43.2273 544.658 43.4435 545.418 43.8761C546.184 44.3036 546.751 44.8828 547.119 45.6136C547.487 46.3445 547.67 47.1598 547.67 48.0597C547.67 48.9595 547.487 49.7773 547.119 50.5131C546.756 51.2489 546.194 51.8356 545.433 52.2731C544.673 52.7056 543.698 52.9219 542.51 52.9219H538.811V51.2812H542.45C543.271 51.2812 543.929 51.1396 544.427 50.8562C544.924 50.5728 545.284 50.19 545.508 49.7077C545.737 49.2205 545.851 48.6712 545.851 48.0597C545.851 47.4482 545.737 46.9013 545.508 46.419C545.284 45.9368 544.921 45.5589 544.419 45.2855C543.917 45.0071 543.251 44.8679 542.42 44.8679H539.169V58.5H537.32ZM550.411 58.5V47.0455H552.111V48.7756H552.231C552.439 48.2088 552.817 47.7489 553.364 47.396C553.911 47.043 554.528 46.8665 555.214 46.8665C555.343 46.8665 555.504 46.869 555.698 46.8739C555.892 46.8789 556.039 46.8864 556.138 46.8963V48.6861C556.079 48.6712 555.942 48.6488 555.728 48.619C555.519 48.5842 555.298 48.5668 555.064 48.5668C554.508 48.5668 554.011 48.6836 553.573 48.9173C553.14 49.146 552.797 49.4641 552.544 49.8718C552.295 50.2745 552.171 50.7344 552.171 51.2514V58.5H550.411ZM562.529 58.7386C561.495 58.7386 560.588 58.4925 559.807 58.0004C559.032 57.5082 558.425 56.8196 557.988 55.9347C557.555 55.0497 557.339 54.0156 557.339 52.8324C557.339 51.6392 557.555 50.5977 557.988 49.7077C558.425 48.8178 559.032 48.1268 559.807 47.6346C560.588 47.1424 561.495 46.8963 562.529 46.8963C563.563 46.8963 564.468 47.1424 565.244 47.6346C566.024 48.1268 566.631 48.8178 567.063 49.7077C567.501 50.5977 567.72 51.6392 567.72 52.8324C567.72 54.0156 567.501 55.0497 567.063 55.9347C566.631 56.8196 566.024 57.5082 565.244 58.0004C564.468 58.4925 563.563 58.7386 562.529 58.7386ZM562.529 57.1577C563.315 57.1577 563.961 56.9563 564.468 56.5536C564.975 56.1509 565.351 55.6214 565.594 54.9652C565.838 54.3089 565.96 53.598 565.96 52.8324C565.96 52.0668 565.838 51.3533 565.594 50.6921C565.351 50.0309 564.975 49.4964 564.468 49.0888C563.961 48.6811 563.315 48.4773 562.529 48.4773C561.744 48.4773 561.098 48.6811 560.59 49.0888C560.083 49.4964 559.708 50.0309 559.464 50.6921C559.221 51.3533 559.099 52.0668 559.099 52.8324C559.099 53.598 559.221 54.3089 559.464 54.9652C559.708 55.6214 560.083 56.1509 560.59 56.5536C561.098 56.9563 561.744 57.1577 562.529 57.1577ZM574.731 58.7386C573.777 58.7386 572.934 58.4975 572.203 58.0153C571.473 57.5281 570.901 56.842 570.488 55.957C570.076 55.0671 569.869 54.0156 569.869 52.8026C569.869 51.5994 570.076 50.5554 570.488 49.6705C570.901 48.7855 571.475 48.1019 572.211 47.6197C572.947 47.1374 573.797 46.8963 574.761 46.8963C575.507 46.8963 576.096 47.0206 576.529 47.2692C576.966 47.5128 577.299 47.7912 577.528 48.1044C577.762 48.4126 577.943 48.6662 578.072 48.8651H578.222V43.2273H579.981V58.5H578.281V56.7401H578.072C577.943 56.9489 577.759 57.2124 577.521 57.5305C577.282 57.8437 576.941 58.1246 576.499 58.3732C576.056 58.6168 575.467 58.7386 574.731 58.7386ZM574.97 57.1577C575.676 57.1577 576.273 56.9737 576.76 56.6058C577.247 56.233 577.617 55.7184 577.871 55.0621C578.125 54.4009 578.251 53.6378 578.251 52.7727C578.251 51.9176 578.127 51.1694 577.879 50.5281C577.63 49.8817 577.262 49.3796 576.775 49.0217C576.288 48.6587 575.686 48.4773 574.97 48.4773C574.224 48.4773 573.603 48.6687 573.106 49.0515C572.614 49.4293 572.243 49.9439 571.995 50.5952C571.751 51.2415 571.629 51.9673 571.629 52.7727C571.629 53.5881 571.754 54.3288 572.002 54.995C572.256 55.6562 572.629 56.1832 573.121 56.576C573.618 56.9638 574.234 57.1577 574.97 57.1577ZM590.668 53.8168V47.0455H592.428V58.5H590.668V56.5611H590.549C590.28 57.1428 589.863 57.6374 589.296 58.0451C588.729 58.4478 588.013 58.6491 587.148 58.6491C586.432 58.6491 585.796 58.4925 585.239 58.1793C584.682 57.8612 584.245 57.3839 583.926 56.7475C583.608 56.1062 583.449 55.2983 583.449 54.3239V47.0455H585.209V54.2045C585.209 55.0398 585.443 55.706 585.91 56.2031C586.382 56.7003 586.984 56.9489 587.715 56.9489C588.152 56.9489 588.597 56.837 589.05 56.6133C589.507 56.3896 589.89 56.0465 590.198 55.5842C590.511 55.1218 590.668 54.5327 590.668 53.8168ZM600.633 47.0455V48.5369H594.697V47.0455H600.633ZM596.427 44.3011H598.187V55.2188C598.187 55.7159 598.259 56.0888 598.403 56.3374C598.552 56.581 598.741 56.745 598.97 56.8295C599.204 56.9091 599.45 56.9489 599.708 56.9489C599.902 56.9489 600.061 56.9389 600.185 56.919C600.31 56.8942 600.409 56.8743 600.484 56.8594L600.842 58.4403C600.722 58.4851 600.556 58.5298 600.342 58.5746C600.128 58.6243 599.857 58.6491 599.529 58.6491C599.032 58.6491 598.545 58.5423 598.068 58.3285C597.595 58.1147 597.202 57.7891 596.889 57.3516C596.581 56.9141 596.427 56.3622 596.427 55.696V44.3011ZM607.811 58.7386C606.777 58.7386 605.869 58.4925 605.089 58.0004C604.313 57.5082 603.707 56.8196 603.269 55.9347C602.837 55.0497 602.62 54.0156 602.62 52.8324C602.62 51.6392 602.837 50.5977 603.269 49.7077C603.707 48.8178 604.313 48.1268 605.089 47.6346C605.869 47.1424 606.777 46.8963 607.811 46.8963C608.845 46.8963 609.75 47.1424 610.525 47.6346C611.306 48.1268 611.912 48.8178 612.345 49.7077C612.782 50.5977 613.001 51.6392 613.001 52.8324C613.001 54.0156 612.782 55.0497 612.345 55.9347C611.912 56.8196 611.306 57.5082 610.525 58.0004C609.75 58.4925 608.845 58.7386 607.811 58.7386ZM607.811 57.1577C608.596 57.1577 609.242 56.9563 609.75 56.5536C610.257 56.1509 610.632 55.6214 610.876 54.9652C611.119 54.3089 611.241 53.598 611.241 52.8324C611.241 52.0668 611.119 51.3533 610.876 50.6921C610.632 50.0309 610.257 49.4964 609.75 49.0888C609.242 48.6811 608.596 48.4773 607.811 48.4773C607.025 48.4773 606.379 48.6811 605.872 49.0888C605.365 49.4964 604.989 50.0309 604.746 50.6921C604.502 51.3533 604.38 52.0668 604.38 52.8324C604.38 53.598 604.502 54.3089 604.746 54.9652C604.989 55.6214 605.365 56.1509 605.872 56.5536C606.379 56.9563 607.025 57.1577 607.811 57.1577ZM626.545 58.5H621.832V43.2273H626.754C628.236 43.2273 629.504 43.533 630.557 44.1445C631.611 44.7511 632.419 45.6236 632.981 46.7621C633.543 47.8956 633.824 49.2528 633.824 50.8338C633.824 52.4247 633.54 53.7944 632.974 54.9428C632.407 56.0863 631.582 56.9663 630.498 57.5827C629.414 58.1942 628.097 58.5 626.545 58.5ZM623.682 56.8594H626.426C627.689 56.8594 628.735 56.6158 629.566 56.1286C630.396 55.6413 631.015 54.9478 631.423 54.0479C631.83 53.1481 632.034 52.0767 632.034 50.8338C632.034 49.6009 631.833 48.5394 631.43 47.6495C631.027 46.7546 630.426 46.0685 629.625 45.5913C628.825 45.109 627.828 44.8679 626.635 44.8679H623.682V56.8594ZM636.687 58.5V47.0455H638.447V58.5H636.687ZM637.582 45.1364C637.239 45.1364 636.943 45.0195 636.695 44.7859C636.451 44.5522 636.33 44.2713 636.33 43.9432C636.33 43.6151 636.451 43.3342 636.695 43.1005C636.943 42.8668 637.239 42.75 637.582 42.75C637.925 42.75 638.219 42.8668 638.462 43.1005C638.711 43.3342 638.835 43.6151 638.835 43.9432C638.835 44.2713 638.711 44.5522 638.462 44.7859C638.219 45.0195 637.925 45.1364 637.582 45.1364ZM646.294 63.0341C645.444 63.0341 644.713 62.9247 644.102 62.706C643.49 62.4922 642.981 62.2088 642.573 61.8558C642.17 61.5078 641.85 61.1349 641.611 60.7372L643.013 59.7528C643.172 59.9616 643.374 60.2003 643.617 60.4688C643.861 60.7422 644.194 60.9783 644.617 61.1772C645.044 61.381 645.603 61.483 646.294 61.483C647.219 61.483 647.982 61.2592 648.584 60.8118C649.185 60.3643 649.486 59.6634 649.486 58.7088V56.3821H649.337C649.208 56.5909 649.024 56.8494 648.785 57.1577C648.552 57.4609 648.213 57.7319 647.771 57.9705C647.333 58.2042 646.742 58.321 645.996 58.321C645.071 58.321 644.241 58.1023 643.505 57.6648C642.775 57.2273 642.195 56.5909 641.768 55.7557C641.345 54.9205 641.134 53.9062 641.134 52.7131C641.134 51.5398 641.34 50.5181 641.753 49.6481C642.166 48.7731 642.74 48.0969 643.476 47.6197C644.211 47.1374 645.061 46.8963 646.026 46.8963C646.772 46.8963 647.363 47.0206 647.801 47.2692C648.243 47.5128 648.581 47.7912 648.815 48.1044C649.054 48.4126 649.238 48.6662 649.367 48.8651H649.546V47.0455H651.246V58.8281C651.246 59.8125 651.022 60.6129 650.575 61.2294C650.133 61.8509 649.536 62.3058 648.785 62.5941C648.039 62.8874 647.209 63.0341 646.294 63.0341ZM646.235 56.7401C646.941 56.7401 647.537 56.5785 648.025 56.2553C648.512 55.9322 648.882 55.4673 649.136 54.8608C649.389 54.2543 649.516 53.5284 649.516 52.6832C649.516 51.858 649.392 51.1296 649.143 50.4982C648.895 49.8668 648.527 49.3722 648.039 49.0142C647.552 48.6562 646.951 48.4773 646.235 48.4773C645.489 48.4773 644.868 48.6662 644.37 49.044C643.878 49.4219 643.508 49.929 643.259 50.5653C643.016 51.2017 642.894 51.9077 642.894 52.6832C642.894 53.4787 643.018 54.1822 643.267 54.7937C643.52 55.4002 643.893 55.8775 644.385 56.2255C644.883 56.5685 645.499 56.7401 646.235 56.7401ZM654.468 58.5V47.0455H656.228V58.5H654.468ZM655.363 45.1364C655.02 45.1364 654.724 45.0195 654.475 44.7859C654.232 44.5522 654.11 44.2713 654.11 43.9432C654.11 43.6151 654.232 43.3342 654.475 43.1005C654.724 42.8668 655.02 42.75 655.363 42.75C655.706 42.75 655.999 42.8668 656.243 43.1005C656.491 43.3342 656.615 43.6151 656.615 43.9432C656.615 44.2713 656.491 44.5522 656.243 44.7859C655.999 45.0195 655.706 45.1364 655.363 45.1364ZM664.433 47.0455V48.5369H658.497V47.0455H664.433ZM660.227 44.3011H661.987V55.2188C661.987 55.7159 662.059 56.0888 662.203 56.3374C662.352 56.581 662.541 56.745 662.77 56.8295C663.003 56.9091 663.249 56.9489 663.508 56.9489C663.702 56.9489 663.861 56.9389 663.985 56.919C664.11 56.8942 664.209 56.8743 664.284 56.8594L664.641 58.4403C664.522 58.4851 664.356 58.5298 664.142 58.5746C663.928 58.6243 663.657 58.6491 663.329 58.6491C662.832 58.6491 662.345 58.5423 661.867 58.3285C661.395 58.1147 661.002 57.7891 660.689 57.3516C660.381 56.9141 660.227 56.3622 660.227 55.696V44.3011ZM670.451 58.7685C669.725 58.7685 669.066 58.6317 668.475 58.3583C667.883 58.0799 667.413 57.6797 667.065 57.1577C666.717 56.6307 666.543 55.9943 666.543 55.2486C666.543 54.5923 666.672 54.0604 666.931 53.6527C667.189 53.2401 667.535 52.9169 667.967 52.6832C668.4 52.4496 668.877 52.2756 669.399 52.1612C669.926 52.0419 670.456 51.9474 670.988 51.8778C671.684 51.7884 672.248 51.7212 672.681 51.6765C673.118 51.6268 673.436 51.5447 673.635 51.4304C673.839 51.3161 673.941 51.1172 673.941 50.8338V50.7741C673.941 50.0384 673.739 49.4666 673.337 49.0589C672.939 48.6513 672.335 48.4474 671.525 48.4474C670.684 48.4474 670.026 48.6314 669.548 48.9993C669.071 49.3672 668.736 49.7599 668.542 50.1776L666.871 49.581C667.17 48.8849 667.567 48.343 668.064 47.9553C668.567 47.5625 669.113 47.2891 669.705 47.1349C670.302 46.9759 670.888 46.8963 671.465 46.8963C671.833 46.8963 672.255 46.9411 672.733 47.0305C673.215 47.1151 673.68 47.2915 674.127 47.56C674.58 47.8285 674.955 48.2337 675.253 48.7756C675.552 49.3175 675.701 50.0433 675.701 50.9531V58.5H673.941V56.9489H673.851C673.732 57.1974 673.533 57.4634 673.255 57.7468C672.976 58.0302 672.606 58.2713 672.144 58.4702C671.681 58.669 671.117 58.7685 670.451 58.7685ZM670.719 57.1875C671.415 57.1875 672.002 57.0508 672.479 56.7773C672.961 56.5039 673.324 56.1509 673.568 55.7184C673.817 55.2859 673.941 54.831 673.941 54.3537V52.7429C673.866 52.8324 673.702 52.9144 673.449 52.989C673.2 53.0586 672.912 53.1207 672.584 53.1754C672.26 53.2251 671.945 53.2699 671.636 53.3097C671.333 53.3445 671.087 53.3743 670.898 53.3991C670.441 53.4588 670.013 53.5558 669.616 53.69C669.223 53.8192 668.905 54.0156 668.661 54.2791C668.422 54.5376 668.303 54.8906 668.303 55.3381C668.303 55.9496 668.529 56.4119 668.982 56.7251C669.439 57.0334 670.018 57.1875 670.719 57.1875ZM680.673 43.2273V58.5H678.913V43.2273H680.673Z" fill="#788896"/>
<path d="M912.763 46.5H838.509V57.5H912.763V46.5Z" fill="#CED8E0"/>
<path d="M1015.11 46.5H940.86V57.5H1015.11V46.5Z" fill="#CED8E0"/>
<path d="M1117.47 46.5H1043.21V57.5H1117.47V46.5Z" fill="#CED8E0"/>
<path d="M1219.82 46.5H1145.56V57.5H1219.82V46.5Z" fill="#CED8E0"/>
<path d="M1410.95 24H1263.44V80.5H1410.95V24Z" stroke="#C3CFD9" stroke-width="2"/>
<path d="M1284.33 45.8409H1285.91L1289.61 54.8963H1289.74L1293.45 45.8409H1295.03V56.75H1293.79V48.4616H1293.68L1290.28 56.75H1289.08L1285.67 48.4616H1285.57V56.75H1284.33V45.8409ZM1299.91 56.9418C1299.39 56.9418 1298.92 56.8441 1298.5 56.6488C1298.08 56.4499 1297.74 56.1641 1297.49 55.7912C1297.25 55.4148 1297.12 54.9602 1297.12 54.4276C1297.12 53.9588 1297.21 53.5788 1297.4 53.2876C1297.58 52.9929 1297.83 52.7621 1298.14 52.5952C1298.45 52.4283 1298.79 52.304 1299.16 52.2223C1299.54 52.1371 1299.92 52.0696 1300.3 52.0199C1300.79 51.956 1301.2 51.908 1301.51 51.8761C1301.82 51.8406 1302.04 51.782 1302.19 51.7003C1302.33 51.6186 1302.41 51.4766 1302.41 51.2741V51.2315C1302.41 50.706 1302.26 50.2976 1301.97 50.0064C1301.69 49.7152 1301.26 49.5696 1300.68 49.5696C1300.08 49.5696 1299.61 49.701 1299.27 49.9638C1298.93 50.2266 1298.69 50.5071 1298.55 50.8054L1297.36 50.3793C1297.57 49.8821 1297.85 49.495 1298.21 49.218C1298.57 48.9375 1298.96 48.7422 1299.38 48.6321C1299.81 48.5185 1300.22 48.4616 1300.64 48.4616C1300.9 48.4616 1301.2 48.4936 1301.54 48.5575C1301.89 48.6179 1302.22 48.744 1302.54 48.9357C1302.86 49.1275 1303.13 49.4169 1303.34 49.804C1303.56 50.1911 1303.66 50.7095 1303.66 51.3594V56.75H1302.41V55.642H1302.34C1302.26 55.8196 1302.11 56.0096 1301.92 56.212C1301.72 56.4144 1301.45 56.5866 1301.12 56.7287C1300.79 56.8707 1300.39 56.9418 1299.91 56.9418ZM1300.1 55.8125C1300.6 55.8125 1301.02 55.7148 1301.36 55.5195C1301.71 55.3242 1301.97 55.0721 1302.14 54.7631C1302.32 54.4542 1302.41 54.1293 1302.41 53.7884V52.6378C1302.35 52.7017 1302.23 52.7603 1302.05 52.8136C1301.88 52.8633 1301.67 52.9077 1301.44 52.9467C1301.21 52.9822 1300.98 53.0142 1300.76 53.0426C1300.54 53.0675 1300.37 53.0888 1300.23 53.1065C1299.91 53.1491 1299.6 53.2184 1299.32 53.3143C1299.04 53.4066 1298.81 53.5469 1298.63 53.7351C1298.46 53.9197 1298.38 54.1719 1298.38 54.4915C1298.38 54.9283 1298.54 55.2585 1298.86 55.4822C1299.19 55.7024 1299.6 55.8125 1300.1 55.8125ZM1305.96 56.75V48.5682H1307.17V49.804H1307.26C1307.41 49.3991 1307.68 49.0707 1308.07 48.8185C1308.46 48.5664 1308.9 48.4403 1309.39 48.4403C1309.48 48.4403 1309.6 48.4421 1309.73 48.4457C1309.87 48.4492 1309.98 48.4545 1310.05 48.4616V49.7401C1310.01 49.7294 1309.91 49.7134 1309.75 49.6921C1309.61 49.6673 1309.45 49.6548 1309.28 49.6548C1308.88 49.6548 1308.53 49.7383 1308.22 49.9052C1307.91 50.0685 1307.66 50.2958 1307.48 50.587C1307.3 50.8746 1307.21 51.2031 1307.21 51.5724V56.75H1305.96ZM1314.61 56.9205C1313.85 56.9205 1313.19 56.7393 1312.63 56.3771C1312.08 56.0149 1311.65 55.516 1311.35 54.8803C1311.05 54.2447 1310.91 53.5185 1310.91 52.7017C1310.91 51.8707 1311.06 51.1374 1311.36 50.5018C1311.67 49.8626 1312.1 49.3636 1312.65 49.005C1313.21 48.6428 1313.85 48.4616 1314.59 48.4616C1315.17 48.4616 1315.69 48.5682 1316.15 48.7812C1316.61 48.9943 1316.99 49.2926 1317.28 49.6761C1317.58 50.0597 1317.76 50.5071 1317.83 51.0185H1316.57C1316.48 50.6456 1316.26 50.3153 1315.93 50.0277C1315.61 49.7365 1315.17 49.5909 1314.61 49.5909C1314.12 49.5909 1313.69 49.7187 1313.32 49.9744C1312.96 50.2266 1312.67 50.5835 1312.47 51.0451C1312.26 51.5032 1312.16 52.0412 1312.16 52.6591C1312.16 53.2912 1312.26 53.8416 1312.46 54.3104C1312.66 54.7791 1312.95 55.1431 1313.31 55.4023C1313.68 55.6616 1314.12 55.7912 1314.61 55.7912C1314.94 55.7912 1315.24 55.7344 1315.5 55.6207C1315.77 55.5071 1315.99 55.3438 1316.18 55.1307C1316.36 54.9176 1316.49 54.6619 1316.57 54.3636H1317.83C1317.76 54.8466 1317.58 55.2816 1317.3 55.6687C1317.03 56.0522 1316.66 56.3576 1316.2 56.5849C1315.75 56.8086 1315.22 56.9205 1314.61 56.9205ZM1322.08 56.9418C1321.56 56.9418 1321.09 56.8441 1320.66 56.6488C1320.24 56.4499 1319.91 56.1641 1319.66 55.7912C1319.41 55.4148 1319.28 54.9602 1319.28 54.4276C1319.28 53.9588 1319.38 53.5788 1319.56 53.2876C1319.75 52.9929 1319.99 52.7621 1320.3 52.5952C1320.61 52.4283 1320.95 52.304 1321.32 52.2223C1321.7 52.1371 1322.08 52.0696 1322.46 52.0199C1322.96 51.956 1323.36 51.908 1323.67 51.8761C1323.98 51.8406 1324.21 51.782 1324.35 51.7003C1324.5 51.6186 1324.57 51.4766 1324.57 51.2741V51.2315C1324.57 50.706 1324.42 50.2976 1324.14 50.0064C1323.85 49.7152 1323.42 49.5696 1322.84 49.5696C1322.24 49.5696 1321.77 49.701 1321.43 49.9638C1321.09 50.2266 1320.85 50.5071 1320.71 50.8054L1319.52 50.3793C1319.73 49.8821 1320.02 49.495 1320.37 49.218C1320.73 48.9375 1321.12 48.7422 1321.54 48.6321C1321.97 48.5185 1322.39 48.4616 1322.8 48.4616C1323.06 48.4616 1323.36 48.4936 1323.71 48.5575C1324.05 48.6179 1324.38 48.744 1324.7 48.9357C1325.02 49.1275 1325.29 49.4169 1325.51 49.804C1325.72 50.1911 1325.83 50.7095 1325.83 51.3594V56.75H1324.57V55.642H1324.5C1324.42 55.8196 1324.28 56.0096 1324.08 56.212C1323.88 56.4144 1323.61 56.5866 1323.28 56.7287C1322.95 56.8707 1322.55 56.9418 1322.08 56.9418ZM1322.27 55.8125C1322.76 55.8125 1323.18 55.7148 1323.52 55.5195C1323.87 55.3242 1324.13 55.0721 1324.3 54.7631C1324.48 54.4542 1324.57 54.1293 1324.57 53.7884V52.6378C1324.52 52.7017 1324.4 52.7603 1324.22 52.8136C1324.04 52.8633 1323.83 52.9077 1323.6 52.9467C1323.37 52.9822 1323.14 53.0142 1322.92 53.0426C1322.71 53.0675 1322.53 53.0888 1322.4 53.1065C1322.07 53.1491 1321.76 53.2184 1321.48 53.3143C1321.2 53.4066 1320.97 53.5469 1320.8 53.7351C1320.63 53.9197 1320.54 54.1719 1320.54 54.4915C1320.54 54.9283 1320.7 55.2585 1321.03 55.4822C1321.35 55.7024 1321.77 55.8125 1322.27 55.8125ZM1332.51 56.75V45.8409H1336.2C1337.05 45.8409 1337.75 45.9954 1338.29 46.3043C1338.84 46.6097 1339.25 47.0234 1339.51 47.5455C1339.77 48.0675 1339.9 48.6499 1339.9 49.2926C1339.9 49.9354 1339.77 50.5195 1339.51 51.0451C1339.25 51.5707 1338.85 51.9897 1338.3 52.3022C1337.76 52.6112 1337.07 52.7656 1336.22 52.7656H1333.57V51.5938H1336.17C1336.76 51.5938 1337.23 51.4925 1337.59 51.2901C1337.94 51.0877 1338.2 50.8143 1338.36 50.4698C1338.52 50.1218 1338.6 49.7294 1338.6 49.2926C1338.6 48.8558 1338.52 48.4652 1338.36 48.1207C1338.2 47.7763 1337.94 47.5064 1337.58 47.3111C1337.22 47.1122 1336.75 47.0128 1336.15 47.0128H1333.83V56.75H1332.51ZM1345.2 56.9205C1344.41 56.9205 1343.73 56.7464 1343.16 56.3984C1342.59 56.0469 1342.16 55.5568 1341.85 54.9283C1341.54 54.2962 1341.39 53.5611 1341.39 52.723C1341.39 51.8849 1341.54 51.1463 1341.85 50.5071C1342.16 49.8643 1342.59 49.3636 1343.14 49.005C1343.69 48.6428 1344.34 48.4616 1345.07 48.4616C1345.5 48.4616 1345.92 48.5327 1346.34 48.6747C1346.75 48.8168 1347.13 49.0476 1347.47 49.3672C1347.81 49.6832 1348.08 50.1023 1348.29 50.6243C1348.49 51.1463 1348.59 51.7891 1348.59 52.5526V53.0852H1342.28V51.9986H1347.31C1347.31 51.5369 1347.22 51.125 1347.04 50.7628C1346.85 50.4006 1346.59 50.1147 1346.26 49.9052C1345.92 49.6957 1345.53 49.5909 1345.07 49.5909C1344.57 49.5909 1344.14 49.7152 1343.78 49.9638C1343.41 50.2088 1343.13 50.5284 1342.94 50.9226C1342.74 51.3168 1342.65 51.7393 1342.65 52.1903V52.9148C1342.65 53.5327 1342.75 54.0565 1342.97 54.4862C1343.18 54.9123 1343.48 55.2372 1343.87 55.4609C1344.25 55.6811 1344.69 55.7912 1345.2 55.7912C1345.53 55.7912 1345.83 55.745 1346.1 55.6527C1346.37 55.5568 1346.6 55.4148 1346.8 55.2266C1346.99 55.0348 1347.14 54.7969 1347.25 54.5128L1348.46 54.8537C1348.33 55.2656 1348.12 55.6278 1347.82 55.9403C1347.52 56.2493 1347.14 56.4908 1346.7 56.6648C1346.26 56.8352 1345.76 56.9205 1345.2 56.9205ZM1354.06 48.5682V49.6335H1349.82V48.5682H1354.06ZM1351.06 46.608H1352.31V54.4062C1352.31 54.7614 1352.37 55.0277 1352.47 55.2053C1352.57 55.3793 1352.71 55.4964 1352.87 55.5568C1353.04 55.6136 1353.22 55.642 1353.4 55.642C1353.54 55.642 1353.65 55.6349 1353.74 55.6207C1353.83 55.603 1353.9 55.5888 1353.95 55.5781L1354.21 56.7074C1354.13 56.7393 1354.01 56.7713 1353.85 56.8033C1353.7 56.8388 1353.51 56.8565 1353.27 56.8565C1352.92 56.8565 1352.57 56.7802 1352.23 56.6275C1351.89 56.4748 1351.61 56.2422 1351.39 55.9297C1351.17 55.6172 1351.06 55.223 1351.06 54.7472V46.608ZM1355.95 56.75V48.5682H1357.17V49.804H1357.25C1357.4 49.3991 1357.67 49.0707 1358.06 48.8185C1358.45 48.5664 1358.89 48.4403 1359.38 48.4403C1359.47 48.4403 1359.59 48.4421 1359.73 48.4457C1359.87 48.4492 1359.97 48.4545 1360.04 48.4616V49.7401C1360 49.7294 1359.9 49.7134 1359.75 49.6921C1359.6 49.6673 1359.44 49.6548 1359.28 49.6548C1358.88 49.6548 1358.52 49.7383 1358.21 49.9052C1357.9 50.0685 1357.66 50.2958 1357.48 50.587C1357.3 50.8746 1357.21 51.2031 1357.21 51.5724V56.75H1355.95ZM1364.61 56.9205C1363.87 56.9205 1363.22 56.7447 1362.66 56.3931C1362.11 56.0415 1361.68 55.5497 1361.36 54.9176C1361.06 54.2855 1360.9 53.5469 1360.9 52.7017C1360.9 51.8494 1361.06 51.1055 1361.36 50.4698C1361.68 49.8342 1362.11 49.3406 1362.66 48.989C1363.22 48.6374 1363.87 48.4616 1364.61 48.4616C1365.35 48.4616 1365.99 48.6374 1366.55 48.989C1367.1 49.3406 1367.54 49.8342 1367.85 50.4698C1368.16 51.1055 1368.32 51.8494 1368.32 52.7017C1368.32 53.5469 1368.16 54.2855 1367.85 54.9176C1367.54 55.5497 1367.1 56.0415 1366.55 56.3931C1365.99 56.7447 1365.35 56.9205 1364.61 56.9205ZM1364.61 55.7912C1365.17 55.7912 1365.63 55.6474 1365.99 55.3597C1366.36 55.0721 1366.62 54.6939 1366.8 54.2251C1366.97 53.7564 1367.06 53.2486 1367.06 52.7017C1367.06 52.1548 1366.97 51.6452 1366.8 51.1729C1366.62 50.7006 1366.36 50.3189 1365.99 50.0277C1365.63 49.7365 1365.17 49.5909 1364.61 49.5909C1364.05 49.5909 1363.59 49.7365 1363.22 50.0277C1362.86 50.3189 1362.59 50.7006 1362.42 51.1729C1362.24 51.6452 1362.16 52.1548 1362.16 52.7017C1362.16 53.2486 1362.24 53.7564 1362.42 54.2251C1362.59 54.6939 1362.86 55.0721 1363.22 55.3597C1363.59 55.6474 1364.05 55.7912 1364.61 55.7912ZM1370.4 56.75V45.8409H1371.66V49.8679H1371.77C1371.86 49.7259 1371.99 49.5447 1372.15 49.3246C1372.32 49.1009 1372.56 48.902 1372.87 48.728C1373.18 48.5504 1373.6 48.4616 1374.13 48.4616C1374.82 48.4616 1375.43 48.6339 1375.96 48.9783C1376.48 49.3228 1376.89 49.8111 1377.19 50.4432C1377.48 51.0753 1377.63 51.821 1377.63 52.6804C1377.63 53.5469 1377.48 54.2979 1377.19 54.9336C1376.89 55.5657 1376.48 56.0558 1375.96 56.4038C1375.44 56.7482 1374.84 56.9205 1374.15 56.9205C1373.63 56.9205 1373.21 56.8335 1372.89 56.6594C1372.58 56.4819 1372.33 56.2812 1372.16 56.0575C1371.99 55.8303 1371.86 55.642 1371.77 55.4929H1371.62V56.75H1370.4ZM1371.64 52.6591C1371.64 53.277 1371.73 53.8221 1371.91 54.2944C1372.09 54.7631 1372.36 55.1307 1372.71 55.397C1373.05 55.6598 1373.48 55.7912 1373.98 55.7912C1374.51 55.7912 1374.95 55.6527 1375.3 55.3757C1375.66 55.0952 1375.92 54.7187 1376.1 54.2464C1376.28 53.7706 1376.37 53.2415 1376.37 52.6591C1376.37 52.0838 1376.28 51.5653 1376.1 51.1037C1375.93 50.6385 1375.67 50.271 1375.31 50.0011C1374.96 49.7276 1374.52 49.5909 1373.98 49.5909C1373.47 49.5909 1373.04 49.7205 1372.7 49.9798C1372.35 50.2354 1372.08 50.5941 1371.91 51.0558C1371.73 51.5138 1371.64 52.0483 1371.64 52.6591ZM1379.55 56.75V48.5682H1380.77V49.804H1380.85C1381 49.3991 1381.27 49.0707 1381.66 48.8185C1382.05 48.5664 1382.49 48.4403 1382.98 48.4403C1383.07 48.4403 1383.19 48.4421 1383.33 48.4457C1383.47 48.4492 1383.57 48.4545 1383.64 48.4616V49.7401C1383.6 49.7294 1383.5 49.7134 1383.35 49.6921C1383.2 49.6673 1383.04 49.6548 1382.87 49.6548C1382.48 49.6548 1382.12 49.7383 1381.81 49.9052C1381.5 50.0685 1381.26 50.2958 1381.07 50.587C1380.9 50.8746 1380.81 51.2031 1380.81 51.5724V56.75H1379.55ZM1387.54 56.9418C1387.02 56.9418 1386.55 56.8441 1386.13 56.6488C1385.71 56.4499 1385.37 56.1641 1385.12 55.7912C1384.87 55.4148 1384.75 54.9602 1384.75 54.4276C1384.75 53.9588 1384.84 53.5788 1385.03 53.2876C1385.21 52.9929 1385.46 52.7621 1385.77 52.5952C1386.07 52.4283 1386.42 52.304 1386.79 52.2223C1387.16 52.1371 1387.54 52.0696 1387.92 52.0199C1388.42 51.956 1388.82 51.908 1389.13 51.8761C1389.44 51.8406 1389.67 51.782 1389.81 51.7003C1389.96 51.6186 1390.03 51.4766 1390.03 51.2741V51.2315C1390.03 50.706 1389.89 50.2976 1389.6 50.0064C1389.32 49.7152 1388.89 49.5696 1388.31 49.5696C1387.71 49.5696 1387.24 49.701 1386.89 49.9638C1386.55 50.2266 1386.31 50.5071 1386.18 50.8054L1384.98 50.3793C1385.2 49.8821 1385.48 49.495 1385.83 49.218C1386.19 48.9375 1386.58 48.7422 1387.01 48.6321C1387.43 48.5185 1387.85 48.4616 1388.26 48.4616C1388.53 48.4616 1388.83 48.4936 1389.17 48.5575C1389.51 48.6179 1389.85 48.744 1390.17 48.9357C1390.49 49.1275 1390.76 49.4169 1390.97 49.804C1391.18 50.1911 1391.29 50.7095 1391.29 51.3594V56.75H1390.03V55.642H1389.97C1389.88 55.8196 1389.74 56.0096 1389.54 56.212C1389.34 56.4144 1389.08 56.5866 1388.75 56.7287C1388.42 56.8707 1388.02 56.9418 1387.54 56.9418ZM1387.73 55.8125C1388.23 55.8125 1388.65 55.7148 1388.99 55.5195C1389.33 55.3242 1389.59 55.0721 1389.77 54.7631C1389.94 54.4542 1390.03 54.1293 1390.03 53.7884V52.6378C1389.98 52.7017 1389.86 52.7603 1389.68 52.8136C1389.5 52.8633 1389.3 52.9077 1389.06 52.9467C1388.83 52.9822 1388.61 53.0142 1388.39 53.0426C1388.17 53.0675 1387.99 53.0888 1387.86 53.1065C1387.53 53.1491 1387.23 53.2184 1386.94 53.3143C1386.66 53.4066 1386.44 53.5469 1386.26 53.7351C1386.09 53.9197 1386.01 54.1719 1386.01 54.4915C1386.01 54.9283 1386.17 55.2585 1386.49 55.4822C1386.82 55.7024 1387.23 55.8125 1387.73 55.8125ZM1399.38 50.4006L1398.25 50.7202C1398.18 50.532 1398.07 50.3491 1397.94 50.1715C1397.8 49.9904 1397.62 49.8413 1397.38 49.7241C1397.15 49.6069 1396.85 49.5483 1396.48 49.5483C1395.98 49.5483 1395.56 49.6637 1395.23 49.8945C1394.9 50.1218 1394.73 50.4112 1394.73 50.7628C1394.73 51.0753 1394.85 51.3221 1395.08 51.5032C1395.3 51.6843 1395.66 51.8352 1396.14 51.956L1397.36 52.2543C1398.09 52.4318 1398.63 52.7035 1398.99 53.0692C1399.35 53.4315 1399.53 53.8984 1399.53 54.4702C1399.53 54.9389 1399.39 55.358 1399.12 55.7273C1398.86 56.0966 1398.48 56.3878 1398.01 56.6009C1397.53 56.8139 1396.97 56.9205 1396.33 56.9205C1395.5 56.9205 1394.81 56.7393 1394.26 56.3771C1393.71 56.0149 1393.37 55.4858 1393.22 54.7898L1394.41 54.4915C1394.53 54.9318 1394.74 55.2621 1395.06 55.4822C1395.38 55.7024 1395.8 55.8125 1396.31 55.8125C1396.9 55.8125 1397.36 55.6882 1397.71 55.4396C1398.05 55.1875 1398.23 54.8857 1398.23 54.5341C1398.23 54.25 1398.13 54.0121 1397.93 53.8203C1397.73 53.625 1397.43 53.4794 1397.01 53.3835L1395.65 53.0639C1394.9 52.8864 1394.35 52.6112 1394 52.2383C1393.65 51.8619 1393.48 51.3913 1393.48 50.8267C1393.48 50.3651 1393.61 49.9567 1393.87 49.6016C1394.13 49.2464 1394.49 48.9677 1394.94 48.7653C1395.39 48.5629 1395.91 48.4616 1396.48 48.4616C1397.29 48.4616 1397.93 48.6392 1398.39 48.9943C1398.85 49.3494 1399.18 49.8182 1399.38 50.4006Z" fill="#788896"/>
<defs>
<clipPath id="clip0_6_2473">
<rect width="16" height="16" fill="white" transform="translate(53 56)"/>
</clipPath>
</defs>
</svg>
