<svg width="1178" height="563" viewBox="0 0 1178 563" fill="none" xmlns="http://www.w3.org/2000/svg">
<rect width="1178" height="563" fill="white"/>
<path d="M93 8H8V555H93V8Z" fill="#F2F5F7" stroke="#C3CFD9" stroke-width="2"/>
<path d="M50.5 69C63.7548 69 74.5 58.2548 74.5 45C74.5 31.7452 63.7548 21 50.5 21C37.2452 21 26.5 31.7452 26.5 45C26.5 58.2548 37.2452 69 50.5 69Z" fill="#CED8E0"/>
<g clip-path="url(#clip0_2_6762)">
<path d="M55.7705 48.1783C54.599 47.755 52.6467 47.25 50 47.25C47.3533 47.25 45.401 47.755 44.2295 48.1783C43.3445 48.4983 42.75 49.3482 42.75 50.2935V52.5C42.75 52.638 42.862 52.75 43 52.75H57C57.138 52.75 57.25 52.638 57.25 52.5V50.2935C57.25 49.3482 56.6555 48.4983 55.7705 48.1783Z" fill="#444444"/>
<path d="M50 45.75C52.0677 45.75 53.75 44.0677 53.75 42V41C53.75 38.9323 52.0677 37.25 50 37.25C47.9323 37.25 46.25 38.9323 46.25 41V42C46.25 44.0677 47.9323 45.75 50 45.75Z" fill="#444444"/>
</g>
<path d="M50.5 151C60.4411 151 68.5 142.941 68.5 133C68.5 123.059 60.4411 115 50.5 115C40.5589 115 32.5 123.059 32.5 133C32.5 142.941 40.5589 151 50.5 151Z" fill="white"/>
<path d="M50.5 151C60.4411 151 68.5 142.941 68.5 133C68.5 123.059 60.4411 115 50.5 115C40.5589 115 32.5 123.059 32.5 133C32.5 142.941 40.5589 151 50.5 151Z" fill="#C3CFD9"/>
<path d="M50.5 210.4C60.4411 210.4 68.5 202.342 68.5 192.4C68.5 182.459 60.4411 174.4 50.5 174.4C40.5589 174.4 32.5 182.459 32.5 192.4C32.5 202.342 40.5589 210.4 50.5 210.4Z" fill="white"/>
<path d="M50.5 210.4C60.4411 210.4 68.5 202.342 68.5 192.4C68.5 182.459 60.4411 174.4 50.5 174.4C40.5589 174.4 32.5 182.459 32.5 192.4C32.5 202.342 40.5589 210.4 50.5 210.4Z" fill="#C3CFD9"/>
<path d="M50.5 269.8C60.4411 269.8 68.5 261.741 68.5 251.8C68.5 241.859 60.4411 233.8 50.5 233.8C40.5589 233.8 32.5 241.859 32.5 251.8C32.5 261.741 40.5589 269.8 50.5 269.8Z" fill="white"/>
<path d="M50.5 269.8C60.4411 269.8 68.5 261.741 68.5 251.8C68.5 241.859 60.4411 233.8 50.5 233.8C40.5589 233.8 32.5 241.859 32.5 251.8C32.5 261.741 40.5589 269.8 50.5 269.8Z" fill="#C3CFD9"/>
<path d="M50.5 329.2C60.4411 329.2 68.5 321.141 68.5 311.2C68.5 301.259 60.4411 293.2 50.5 293.2C40.5589 293.2 32.5 301.259 32.5 311.2C32.5 321.141 40.5589 329.2 50.5 329.2Z" fill="white"/>
<path d="M50.5 329.2C60.4411 329.2 68.5 321.141 68.5 311.2C68.5 301.259 60.4411 293.2 50.5 293.2C40.5589 293.2 32.5 301.259 32.5 311.2C32.5 321.141 40.5589 329.2 50.5 329.2Z" fill="#C3CFD9"/>
<path d="M50.5 388.6C60.4411 388.6 68.5 380.541 68.5 370.6C68.5 360.658 60.4411 352.6 50.5 352.6C40.5589 352.6 32.5 360.658 32.5 370.6C32.5 380.541 40.5589 388.6 50.5 388.6Z" fill="white"/>
<path d="M50.5 388.6C60.4411 388.6 68.5 380.541 68.5 370.6C68.5 360.658 60.4411 352.6 50.5 352.6C40.5589 352.6 32.5 360.658 32.5 370.6C32.5 380.541 40.5589 388.6 50.5 388.6Z" fill="#C3CFD9"/>
<path d="M50.5 448C60.4411 448 68.5 439.941 68.5 430C68.5 420.059 60.4411 412 50.5 412C40.5589 412 32.5 420.059 32.5 430C32.5 439.941 40.5589 448 50.5 448Z" fill="white"/>
<path d="M50.5 448C60.4411 448 68.5 439.941 68.5 430C68.5 420.059 60.4411 412 50.5 412C40.5589 412 32.5 420.059 32.5 430C32.5 439.941 40.5589 448 50.5 448Z" fill="#C3CFD9"/>
<path d="M1170 8H93V555H1170V8Z" stroke="#C3CFD9" stroke-width="2"/>
<defs>
<clipPath id="clip0_2_6762">
<rect width="16" height="16" fill="white" transform="translate(42 37)"/>
</clipPath>
</defs>
</svg>
