<svg width="1164" height="549" viewBox="0 0 1164 549" fill="none" xmlns="http://www.w3.org/2000/svg">
<path d="M301 1H1V548H301V1Z" fill="#F2F5F7" stroke="#C3CFD9" stroke-width="2"/>
<path d="M54 62C67.2548 62 78 51.2548 78 38C78 24.7452 67.2548 14 54 14C40.7452 14 30 24.7452 30 38C30 51.2548 40.7452 62 54 62Z" fill="#CED8E0"/>
<g clip-path="url(#clip0_2_2340)">
<path d="M59.7705 41.1783C58.599 40.755 56.6467 40.25 54 40.25C51.3533 40.25 49.401 40.755 48.2295 41.1783C47.3445 41.4983 46.75 42.3482 46.75 43.2935V45.5C46.75 45.638 46.862 45.75 47 45.75H61C61.138 45.75 61.25 45.638 61.25 45.5V43.2935C61.25 42.3482 60.6555 41.4983 59.7705 41.1783Z" fill="#444444"/>
<path d="M54 38.75C56.0677 38.75 57.75 37.0677 57.75 35V34C57.75 31.9323 56.0677 30.25 54 30.25C51.9323 30.25 50.25 31.9323 50.25 34V35C50.25 37.0677 51.9323 38.75 54 38.75Z" fill="#444444"/>
</g>
<path d="M242 86H30V97H242V86Z" fill="#CED8E0"/>
<path d="M197 110.5H30V121.5H197V110.5Z" fill="#CED8E0"/>
<path d="M211 135H30V146H211V135Z" fill="#CED8E0"/>
<path d="M167 159.5H32V170.5H167V159.5Z" fill="#CED8E0"/>
<path d="M188 184H32V195H188V184Z" fill="#CED8E0"/>
<path d="M197 208.5H30V219.5H197V208.5Z" fill="#CED8E0"/>
<path d="M211 233H30V244H211V233Z" fill="#CED8E0"/>
<path d="M213 257.5H32V268.5H213V257.5Z" fill="#CED8E0"/>
<path d="M197 282H30V293H197V282Z" fill="#CED8E0"/>
<path d="M1163 1H301V70H1163V1Z" stroke="#C3CFD9" stroke-width="2"/>
<path d="M437 30.25H363V41.25H437V30.25Z" fill="#CED8E0"/>
<path d="M539 30.25H465V41.25H539V30.25Z" fill="#CED8E0"/>
<path d="M641 30.25H567V41.25H641V30.25Z" fill="#CED8E0"/>
<path d="M743 30.25H669V41.25H743V30.25Z" fill="#CED8E0"/>
<path d="M1084 17.75H928C918.059 17.75 910 25.8089 910 35.75C910 45.6911 918.059 53.75 928 53.75H1084C1093.94 53.75 1102 45.6911 1102 35.75C1102 25.8089 1093.94 17.75 1084 17.75Z" fill="white"/>
<path d="M1084 17.75H928C918.059 17.75 910 25.8089 910 35.75C910 45.6911 918.059 53.75 928 53.75H1084C1093.94 53.75 1102 45.6911 1102 35.75C1102 25.8089 1093.94 17.75 1084 17.75Z" fill="#C3CFD9"/>
<path d="M1163 70H301V548H1163V70Z" stroke="#C3CFD9" stroke-width="2"/>
<defs>
<clipPath id="clip0_2_2340">
<rect width="16" height="16" fill="white" transform="translate(46 30)"/>
</clipPath>
</defs>
</svg>
