<svg width="1178" height="563" viewBox="0 0 1178 563" fill="none" xmlns="http://www.w3.org/2000/svg">
<rect width="1178" height="563" fill="white"/>
<path d="M1170 77H8V555H1170V77Z" fill="#F2F5F7" stroke="#C3CFD9" stroke-width="2"/>
<path d="M426.5 112H212.5V214H426.5V112Z" fill="white" stroke="#C3CFD9" stroke-width="2"/>
<path d="M347.5 230H212.5V241H347.5V230Z" fill="#CED8E0"/>
<path d="M426.5 253H212.5V264H426.5V253Z" fill="#E1E5EC"/>
<path d="M403.5 268.5H212.5V279.5H403.5V268.5Z" fill="#E1E5EC"/>
<path d="M347.5 284H212.5V295H347.5V284Z" fill="#E1E5EC"/>
<path d="M426.5 337H212.5V439H426.5V337Z" fill="white" stroke="#C3CFD9" stroke-width="2"/>
<path d="M347.5 455H212.5V466H347.5V455Z" fill="#CED8E0"/>
<path d="M426.5 478H212.5V489H426.5V478Z" fill="#E1E5EC"/>
<path d="M403.5 493.5H212.5V504.5H403.5V493.5Z" fill="#E1E5EC"/>
<path d="M347.5 509H212.5V520H347.5V509Z" fill="#E1E5EC"/>
<path d="M696 112H482V214H696V112Z" fill="white" stroke="#C3CFD9" stroke-width="2"/>
<path d="M617 230H482V241H617V230Z" fill="#CED8E0"/>
<path d="M696 253H482V264H696V253Z" fill="#E1E5EC"/>
<path d="M673 268.5H482V279.5H673V268.5Z" fill="#E1E5EC"/>
<path d="M617 284H482V295H617V284Z" fill="#E1E5EC"/>
<path d="M696.5 337H482.5V439H696.5V337Z" fill="white" stroke="#C3CFD9" stroke-width="2"/>
<path d="M617.5 455H482.5V466H617.5V455Z" fill="#CED8E0"/>
<path d="M696.5 478H482.5V489H696.5V478Z" fill="#E1E5EC"/>
<path d="M673.5 493.5H482.5V504.5H673.5V493.5Z" fill="#E1E5EC"/>
<path d="M617.5 509H482.5V520H617.5V509Z" fill="#E1E5EC"/>
<path d="M965.5 112H751.5V214H965.5V112Z" fill="white" stroke="#C3CFD9" stroke-width="2"/>
<path d="M886.5 230H751.5V241H886.5V230Z" fill="#CED8E0"/>
<path d="M965.5 253H751.5V264H965.5V253Z" fill="#E1E5EC"/>
<path d="M942.5 268.5H751.5V279.5H942.5V268.5Z" fill="#E1E5EC"/>
<path d="M886.5 284H751.5V295H886.5V284Z" fill="#E1E5EC"/>
<path d="M965.5 337H751.5V439H965.5V337Z" fill="white" stroke="#C3CFD9" stroke-width="2"/>
<path d="M886.5 455H751.5V466H886.5V455Z" fill="#CED8E0"/>
<path d="M965.5 478H751.5V489H965.5V478Z" fill="#E1E5EC"/>
<path d="M942.5 493.5H751.5V504.5H942.5V493.5Z" fill="#E1E5EC"/>
<path d="M886.5 509H751.5V520H886.5V509Z" fill="#E1E5EC"/>
<path d="M1170 8H8V77H1170V8Z" stroke="#C3CFD9" stroke-width="2"/>
<path d="M61 69C74.2548 69 85 58.2548 85 45C85 31.7452 74.2548 21 61 21C47.7452 21 37 31.7452 37 45C37 58.2548 47.7452 69 61 69Z" fill="#CED8E0"/>
<g clip-path="url(#clip0_2_6261)">
<path d="M66.7705 48.1783C65.599 47.755 63.6467 47.25 61 47.25C58.3533 47.25 56.401 47.755 55.2295 48.1783C54.3445 48.4983 53.75 49.3482 53.75 50.2935V52.5C53.75 52.638 53.862 52.75 54 52.75H68C68.138 52.75 68.25 52.638 68.25 52.5V50.2935C68.25 49.3482 67.6555 48.4983 66.7705 48.1783Z" fill="#444444"/>
<path d="M61 45.75C63.0677 45.75 64.75 44.0677 64.75 42V41C64.75 38.9323 63.0677 37.25 61 37.25C58.9323 37.25 57.25 38.9323 57.25 41V42C57.25 44.0677 58.9323 45.75 61 45.75Z" fill="#444444"/>
</g>
<path d="M1091 27H935C925.059 27 917 35.0589 917 45C917 54.9411 925.059 63 935 63H1091C1100.94 63 1109 54.9411 1109 45C1109 35.0589 1100.94 27 1091 27Z" fill="white"/>
<path d="M1091 27H935C925.059 27 917 35.0589 917 45C917 54.9411 925.059 63 935 63H1091C1100.94 63 1109 54.9411 1109 45C1109 35.0589 1100.94 27 1091 27Z" fill="#C3CFD9"/>
<path d="M192 39.75H118V50.75H192V39.75Z" fill="#CED8E0"/>
<path d="M294 39.75H220V50.75H294V39.75Z" fill="#CED8E0"/>
<path d="M396 39.75H322V50.75H396V39.75Z" fill="#CED8E0"/>
<path d="M498 39.75H424V50.75H498V39.75Z" fill="#CED8E0"/>
<defs>
<clipPath id="clip0_2_6261">
<rect width="16" height="16" fill="white" transform="translate(53 37)"/>
</clipPath>
</defs>
</svg>
