<svg width="1178" height="563" viewBox="0 0 1178 563" fill="none" xmlns="http://www.w3.org/2000/svg">
<rect width="1178" height="563" fill="white"/>
<path d="M261 77H8V555H261V77Z" fill="#F2F5F7" stroke="#C3CFD9" stroke-width="2"/>
<path d="M240.5 107H28.5V118H240.5V107Z" fill="#CED8E0"/>
<path d="M209.5 135.142H60.5V144.956H209.5V135.142Z" fill="#CED8E0"/>
<path d="M209.5 162.097H60.5V171.152H209.5V162.097Z" fill="#CED8E0"/>
<path d="M195.5 188.293H60.5V199.293H195.5V188.293Z" fill="#CED8E0"/>
<path d="M211 226.435H28.5V237.435H211V226.435Z" fill="#CED8E0"/>
<path d="M170 254.576H60.5V265.576H170V254.576Z" fill="#CED8E0"/>
<path d="M170 282.718H60.5V293.718H170V282.718Z" fill="#CED8E0"/>
<path d="M186 310.858H60.5V321.858H186V310.858Z" fill="#CED8E0"/>
<path d="M197 339H60.5V350H197V339Z" fill="#CED8E0"/>
<path d="M1170 8H8V77H1170V8Z" stroke="#C3CFD9" stroke-width="2"/>
<path d="M61 69C74.2548 69 85 58.2548 85 45C85 31.7452 74.2548 21 61 21C47.7452 21 37 31.7452 37 45C37 58.2548 47.7452 69 61 69Z" fill="#CED8E0"/>
<g clip-path="url(#clip0_2_6069)">
<path d="M66.7705 48.1783C65.599 47.755 63.6467 47.25 61 47.25C58.3533 47.25 56.401 47.755 55.2295 48.1783C54.3445 48.4983 53.75 49.3482 53.75 50.2935V52.5C53.75 52.638 53.862 52.75 54 52.75H68C68.138 52.75 68.25 52.638 68.25 52.5V50.2935C68.25 49.3482 67.6555 48.4983 66.7705 48.1783Z" fill="#444444"/>
<path d="M61 45.75C63.0677 45.75 64.75 44.0677 64.75 42V41C64.75 38.9323 63.0677 37.25 61 37.25C58.9323 37.25 57.25 38.9323 57.25 41V42C57.25 44.0677 58.9323 45.75 61 45.75Z" fill="#444444"/>
</g>
<path d="M1091 27H935C925.059 27 917 35.0589 917 45C917 54.9411 925.059 63 935 63H1091C1100.94 63 1109 54.9411 1109 45C1109 35.0589 1100.94 27 1091 27Z" fill="white"/>
<path d="M1091 27H935C925.059 27 917 35.0589 917 45C917 54.9411 925.059 63 935 63H1091C1100.94 63 1109 54.9411 1109 45C1109 35.0589 1100.94 27 1091 27Z" fill="#C3CFD9"/>
<path d="M514 77H261V555H514V77Z" stroke="#C3CFD9" stroke-width="2"/>
<path d="M514 77H261V166H514V77Z" fill="white" stroke="#C3CFD9" stroke-width="2"/>
<path d="M471 99H304V107H471V99Z" fill="#CED8E0"/>
<path d="M471 114H304V122H471V114Z" fill="#E1E5EC"/>
<path d="M455 125H304V133H455V125Z" fill="#E1E5EC"/>
<path d="M389 136H304V144H389V136Z" fill="#E1E5EC"/>
<path d="M514 166H261V255H514V166Z" fill="white" stroke="#C3CFD9" stroke-width="2"/>
<path d="M471 188H304V196H471V188Z" fill="#CED8E0"/>
<path d="M471 203H304V211H471V203Z" fill="#E1E5EC"/>
<path d="M455 214H304V222H455V214Z" fill="#E1E5EC"/>
<path d="M389 225H304V233H389V225Z" fill="#E1E5EC"/>
<path d="M514 254H261V343H514V254Z" fill="white" stroke="#C3CFD9" stroke-width="2"/>
<path d="M471 276H304V284H471V276Z" fill="#CED8E0"/>
<path d="M471 291H304V299H471V291Z" fill="#E1E5EC"/>
<path d="M455 302H304V310H455V302Z" fill="#E1E5EC"/>
<path d="M389 313H304V321H389V313Z" fill="#E1E5EC"/>
<path d="M514 343H261V432H514V343Z" fill="white" stroke="#C3CFD9" stroke-width="2"/>
<path d="M471 365H304V373H471V365Z" fill="#CED8E0"/>
<path d="M471 380H304V388H471V380Z" fill="#E1E5EC"/>
<path d="M455 391H304V399H455V391Z" fill="#E1E5EC"/>
<path d="M389 402H304V410H389V402Z" fill="#E1E5EC"/>
<path d="M514 432H261V521H514V432Z" fill="white" stroke="#C3CFD9" stroke-width="2"/>
<path d="M471 454H304V462H471V454Z" fill="#CED8E0"/>
<path d="M471 469H304V477H471V469Z" fill="#E1E5EC"/>
<path d="M455 480H304V488H455V480Z" fill="#E1E5EC"/>
<path d="M389 491H304V499H389V491Z" fill="#E1E5EC"/>
<path d="M1170 77H514V555H1170V77Z" stroke="#C3CFD9" stroke-width="2"/>
<path d="M192 39.75H118V50.75H192V39.75Z" fill="#CED8E0"/>
<path d="M294 39.75H220V50.75H294V39.75Z" fill="#CED8E0"/>
<path d="M396 39.75H322V50.75H396V39.75Z" fill="#CED8E0"/>
<path d="M498 39.75H424V50.75H498V39.75Z" fill="#CED8E0"/>
<defs>
<clipPath id="clip0_2_6069">
<rect width="16" height="16" fill="white" transform="translate(53 37)"/>
</clipPath>
</defs>
</svg>
