<svg width="1178" height="563" viewBox="0 0 1178 563" fill="none" xmlns="http://www.w3.org/2000/svg">
<rect width="1178" height="563" fill="white"/>
<path d="M1170 77H8V555H1170V77Z" fill="#F2F5F7" stroke="#C3CFD9" stroke-width="2"/>
<path d="M387 137H175V148H387V137Z" fill="#CED8E0"/>
<path d="M342 161.5H175V172.5H342V161.5Z" fill="#CED8E0"/>
<path d="M356 186H175V197H356V186Z" fill="#CED8E0"/>
<path d="M312 210.5H177V221.5H312V210.5Z" fill="#CED8E0"/>
<path d="M333 235H177V246H333V235Z" fill="#CED8E0"/>
<path d="M342 259.5H175V270.5H342V259.5Z" fill="#CED8E0"/>
<path d="M356 284H175V295H356V284Z" fill="#CED8E0"/>
<path d="M358 308.5H177V319.5H358V308.5Z" fill="#CED8E0"/>
<path d="M342 333H175V344H342V333Z" fill="#CED8E0"/>
<path d="M1002.84 137H427.156V555H1002.84V137Z" fill="white" stroke="#C3CFD9" stroke-width="2"/>
<path d="M1170 8H8V77H1170V8Z" stroke="#C3CFD9" stroke-width="2"/>
<path d="M199 69C212.255 69 223 58.2548 223 45C223 31.7452 212.255 21 199 21C185.745 21 175 31.7452 175 45C175 58.2548 185.745 69 199 69Z" fill="#CED8E0"/>
<g clip-path="url(#clip0_2_5832)">
<path d="M204.771 48.1783C203.599 47.755 201.647 47.25 199 47.25C196.353 47.25 194.401 47.755 193.23 48.1783C192.345 48.4983 191.75 49.3482 191.75 50.2935V52.5C191.75 52.638 191.862 52.75 192 52.75H206C206.138 52.75 206.25 52.638 206.25 52.5V50.2935C206.25 49.3482 205.656 48.4983 204.771 48.1783Z" fill="#444444"/>
<path d="M199 45.75C201.068 45.75 202.75 44.0677 202.75 42V41C202.75 38.9323 201.068 37.25 199 37.25C196.932 37.25 195.25 38.9323 195.25 41V42C195.25 44.0677 196.932 45.75 199 45.75Z" fill="#444444"/>
</g>
<path d="M984 27H828C818.059 27 810 35.0589 810 45C810 54.9411 818.059 63 828 63H984C993.941 63 1002 54.9411 1002 45C1002 35.0589 993.941 27 984 27Z" fill="white"/>
<path d="M984 27H828C818.059 27 810 35.0589 810 45C810 54.9411 818.059 63 828 63H984C993.941 63 1002 54.9411 1002 45C1002 35.0589 993.941 27 984 27Z" fill="#C3CFD9"/>
<path d="M330 39.75H256V50.75H330V39.75Z" fill="#CED8E0"/>
<path d="M432 39.75H358V50.75H432V39.75Z" fill="#CED8E0"/>
<path d="M534 39.75H460V50.75H534V39.75Z" fill="#CED8E0"/>
<path d="M636 39.75H562V50.75H636V39.75Z" fill="#CED8E0"/>
<defs>
<clipPath id="clip0_2_5832">
<rect width="16" height="16" fill="white" transform="translate(191 37)"/>
</clipPath>
</defs>
</svg>
