<svg width="1178" height="582" viewBox="0 0 1178 582" fill="none" xmlns="http://www.w3.org/2000/svg">
<rect width="1178" height="582" fill="white"/>
<path d="M1170 96H8V574H1170V96Z" fill="#F2F5F7" stroke="#C3CFD9" stroke-width="2"/>
<path d="M387 156H175V167H387V156Z" fill="#CED8E0"/>
<path d="M342 180.5H175V191.5H342V180.5Z" fill="#CED8E0"/>
<path d="M356 205H175V216H356V205Z" fill="#CED8E0"/>
<path d="M312 229.5H177V240.5H312V229.5Z" fill="#CED8E0"/>
<path d="M333 254H177V265H333V254Z" fill="#CED8E0"/>
<path d="M342 278.5H175V289.5H342V278.5Z" fill="#CED8E0"/>
<path d="M356 303H175V314H356V303Z" fill="#CED8E0"/>
<path d="M358 327.5H177V338.5H358V327.5Z" fill="#CED8E0"/>
<path d="M342 352H175V363H342V352Z" fill="#CED8E0"/>
<path d="M1002.84 156H427.156V574H1002.84V156Z" fill="white" stroke="#C3CFD9" stroke-width="2"/>
<path d="M1170 8H8V96H1170V8Z" stroke="#C3CFD9" stroke-width="2"/>
<g clip-path="url(#clip0_6_2837)">
<path d="M658.812 38.7292C658.812 38.2807 658.448 37.9167 658 37.9167C657.552 37.9167 657.188 38.2807 657.188 38.7292V41.1667H658.812V38.7292Z" fill="#788896"/>
<path d="M671.812 38.7292C671.812 38.2807 671.448 37.9167 671 37.9167C670.552 37.9167 670.188 38.2807 670.188 38.7292V41.1667H671.812V38.7292Z" fill="#788896"/>
<path d="M673.438 41.9792H655.562C653.768 41.9792 652.312 43.4344 652.312 45.2292V59.8542C652.312 61.6491 653.768 63.1042 655.562 63.1042H673.438C675.232 63.1042 676.688 61.6491 676.688 59.8542V45.2292C676.688 43.4344 675.232 41.9792 673.438 41.9792ZM675.062 59.8542C675.062 60.7521 674.335 61.4792 673.438 61.4792H655.562C654.665 61.4792 653.938 60.7521 653.938 59.8542V46.8542H675.062V59.8542Z" fill="#788896"/>
<path d="M662.875 59.0417C662.667 59.0417 662.459 58.9621 662.301 58.8036L659.051 55.5536C658.733 55.236 658.733 54.7225 659.051 54.4048C659.368 54.0871 659.882 54.0871 660.199 54.4048L662.875 57.0803L670.426 49.5298C670.743 49.2121 671.257 49.2121 671.574 49.5298C671.892 49.8475 671.892 50.361 671.574 50.6786L663.449 58.8036C663.291 58.9621 663.083 59.0417 662.875 59.0417Z" fill="#788896"/>
</g>
<g clip-path="url(#clip1_6_2837)">
<path d="M712.181 53.3507C712.387 52.5788 712.496 51.7842 712.505 50.9854C712.496 50.1866 712.387 49.392 712.181 48.6202L714.934 46.5945C715.162 46.427 715.319 46.1815 715.377 45.9051C715.434 45.6287 715.388 45.3408 715.246 45.0964L714.099 43.1097C713.958 42.8651 713.732 42.6811 713.463 42.593C713.195 42.505 712.904 42.5191 712.645 42.6325L709.532 44.009C708.378 42.895 706.965 42.0847 705.421 41.6507L705.049 38.2416C705.018 37.9598 704.883 37.6994 704.672 37.5109C704.46 37.3224 704.186 37.219 703.902 37.2207H701.608C701.324 37.219 701.05 37.3224 700.838 37.5109C700.626 37.6994 700.492 37.9598 700.461 38.2416L700.089 41.6507C698.545 42.0811 697.132 42.8874 695.976 43.9975L692.863 42.6211C692.604 42.5076 692.313 42.4935 692.044 42.5816C691.776 42.6696 691.549 42.8536 691.408 43.0983L690.261 45.085C690.12 45.3293 690.073 45.6172 690.131 45.8936C690.188 46.17 690.346 46.4155 690.573 46.583L693.326 48.6087C693.12 49.3844 693.012 50.1829 693.005 50.9854C693.014 51.7842 693.122 52.5788 693.328 53.3507L690.575 55.3764C690.348 55.5439 690.191 55.7894 690.133 56.0658C690.076 56.3422 690.122 56.6301 690.263 56.8744L691.411 58.8611C691.511 59.0355 691.656 59.1803 691.83 59.281C692.005 59.3817 692.203 59.4347 692.404 59.4347C692.562 59.4338 692.718 59.4011 692.863 59.3383L695.976 57.9618C697.132 59.072 698.545 59.8783 700.089 60.3087L700.461 63.7293C700.492 64.0111 700.626 64.2714 700.838 64.4599C701.05 64.6485 701.324 64.7519 701.608 64.7501H703.902C704.186 64.7519 704.46 64.6485 704.672 64.4599C704.883 64.2714 705.018 64.0111 705.049 63.7293L705.428 60.3202C706.969 59.8887 708.38 59.0825 709.534 57.9733L712.647 59.3498C712.792 59.4125 712.948 59.4453 713.106 59.4461C713.307 59.4461 713.505 59.3931 713.68 59.2925C713.854 59.1918 713.999 59.047 714.099 58.8726L715.246 56.8859C715.388 56.6416 715.434 56.3536 715.377 56.0772C715.319 55.8008 715.162 55.5554 714.934 55.3878L712.181 53.3507ZM702.755 55.5737C701.847 55.5737 700.96 55.3046 700.206 54.8004C699.451 54.2962 698.863 53.5797 698.516 52.7413C698.169 51.9029 698.078 50.9803 698.255 50.0903C698.432 49.2003 698.869 48.3827 699.511 47.7411C700.152 47.0994 700.97 46.6624 701.86 46.4854C702.75 46.3083 703.672 46.3992 704.511 46.7465C705.349 47.0937 706.066 47.6818 706.57 48.4363C707.074 49.1909 707.343 50.078 707.343 50.9854C707.343 52.2023 706.86 53.3693 705.999 54.2298C705.139 55.0903 703.972 55.5737 702.755 55.5737Z" fill="#788896"/>
</g>
<g clip-path="url(#clip2_6_2837)">
<path d="M745.072 63.9167H736.947C736.499 63.9167 736.135 63.5527 736.135 63.1042V62.2917H745.885V63.1042C745.885 63.5527 745.521 63.9167 745.072 63.9167Z" fill="#788896"/>
<path d="M741.01 37.9167C735.633 37.9167 731.26 42.2904 731.26 47.6667C731.26 51.1719 733.116 54.3601 736.135 56.1029V60.6667H745.885V56.1029C748.904 54.3601 750.76 51.1727 750.76 47.6667C750.76 42.2904 746.386 37.9167 741.01 37.9167ZM741.822 43.6042H741.01C738.77 43.6042 736.947 45.4267 736.947 47.6667V48.4792H735.322V47.6667C735.322 44.5313 737.874 41.9792 741.01 41.9792H741.822V43.6042Z" fill="#788896"/>
</g>
<g clip-path="url(#clip3_6_2837)">
<path d="M778.5 37.9167C771.332 37.9167 765.5 43.7489 765.5 50.9167C765.5 58.0846 771.332 63.9167 778.5 63.9167C785.668 63.9167 791.5 58.0846 791.5 50.9167C791.5 43.7489 785.668 37.9167 778.5 37.9167ZM773.625 49.2917C773.625 46.6032 775.811 44.4167 778.5 44.4167C781.189 44.4167 783.375 46.6032 783.375 49.2917V50.9167C783.375 53.6053 781.189 55.7917 778.5 55.7917C775.811 55.7917 773.625 53.6053 773.625 50.9167V49.2917ZM778.5 62.2917C776.133 62.2917 773.934 61.5637 772.111 60.3214C773.3 59.0385 774.992 58.2292 776.875 58.2292H780.125C782.008 58.2292 783.7 59.0385 784.889 60.3214C783.066 61.5637 780.867 62.2917 778.5 62.2917Z" fill="#788896"/>
</g>
<path d="M190.96 45.2273V60.5H189.17L180.848 48.5085H180.699V60.5H178.849V45.2273H180.639L188.991 57.2486H189.141V45.2273H190.96ZM199.076 60.7386C198.042 60.7386 197.134 60.4925 196.354 60.0004C195.578 59.5082 194.972 58.8196 194.534 57.9347C194.102 57.0497 193.885 56.0156 193.885 54.8324C193.885 53.6392 194.102 52.5977 194.534 51.7077C194.972 50.8178 195.578 50.1268 196.354 49.6346C197.134 49.1424 198.042 48.8963 199.076 48.8963C200.11 48.8963 201.015 49.1424 201.79 49.6346C202.571 50.1268 203.177 50.8178 203.61 51.7077C204.047 52.5977 204.266 53.6392 204.266 54.8324C204.266 56.0156 204.047 57.0497 203.61 57.9347C203.177 58.8196 202.571 59.5082 201.79 60.0004C201.015 60.4925 200.11 60.7386 199.076 60.7386ZM199.076 59.1577C199.861 59.1577 200.508 58.9563 201.015 58.5536C201.522 58.1509 201.897 57.6214 202.141 56.9652C202.384 56.3089 202.506 55.598 202.506 54.8324C202.506 54.0668 202.384 53.3533 202.141 52.6921C201.897 52.0309 201.522 51.4964 201.015 51.0888C200.508 50.6811 199.861 50.4773 199.076 50.4773C198.29 50.4773 197.644 50.6811 197.137 51.0888C196.63 51.4964 196.254 52.0309 196.011 52.6921C195.767 53.3533 195.645 54.0668 195.645 54.8324C195.645 55.598 195.767 56.3089 196.011 56.9652C196.254 57.6214 196.63 58.1509 197.137 58.5536C197.644 58.9563 198.29 59.1577 199.076 59.1577ZM206.953 60.5V49.0455H208.653V50.8352H208.802C209.041 50.2237 209.426 49.7489 209.958 49.4109C210.49 49.0678 211.129 48.8963 211.874 48.8963C212.63 48.8963 213.259 49.0678 213.761 49.4109C214.268 49.7489 214.664 50.2237 214.947 50.8352H215.066C215.36 50.2436 215.8 49.7738 216.386 49.4258C216.973 49.0728 217.676 48.8963 218.497 48.8963C219.521 48.8963 220.358 49.217 221.01 49.8583C221.661 50.4947 221.987 51.4865 221.987 52.8338V60.5H220.227V52.8338C220.227 51.9886 219.996 51.3846 219.533 51.0217C219.071 50.6587 218.526 50.4773 217.9 50.4773C217.095 50.4773 216.471 50.7209 216.028 51.2081C215.586 51.6903 215.365 52.3018 215.365 53.0426V60.5H213.575V52.6548C213.575 52.0036 213.363 51.479 212.941 51.0813C212.518 50.6786 211.974 50.4773 211.308 50.4773C210.85 50.4773 210.423 50.5991 210.025 50.8427C209.632 51.0863 209.314 51.4244 209.07 51.8569C208.832 52.2844 208.713 52.7791 208.713 53.3409V60.5H206.953ZM230.007 60.7386C228.903 60.7386 227.951 60.495 227.151 60.0078C226.355 59.5156 225.741 58.8295 225.309 57.9496C224.881 57.0646 224.668 56.0355 224.668 54.8622C224.668 53.6889 224.881 52.6548 225.309 51.7599C225.741 50.8601 226.343 50.1591 227.114 49.657C227.889 49.1499 228.794 48.8963 229.828 48.8963C230.425 48.8963 231.014 48.9957 231.596 49.1946C232.177 49.3935 232.707 49.7166 233.184 50.1641C233.661 50.6065 234.042 51.1932 234.325 51.924C234.608 52.6548 234.75 53.5547 234.75 54.6236V55.3693H225.92V53.848H232.96C232.96 53.2017 232.831 52.625 232.572 52.1179C232.319 51.6108 231.956 51.2106 231.484 50.9173C231.016 50.6239 230.464 50.4773 229.828 50.4773C229.127 50.4773 228.521 50.6513 228.009 50.9993C227.501 51.3423 227.111 51.7898 226.838 52.3416C226.564 52.8935 226.428 53.4851 226.428 54.1165V55.1307C226.428 55.9957 226.577 56.729 226.875 57.3306C227.178 57.9272 227.598 58.3821 228.135 58.6953C228.672 59.0036 229.296 59.1577 230.007 59.1577C230.469 59.1577 230.887 59.093 231.26 58.9638C231.638 58.8295 231.963 58.6307 232.237 58.3672C232.51 58.0987 232.722 57.7656 232.871 57.3679L234.571 57.8452C234.392 58.4219 234.091 58.929 233.669 59.3665C233.246 59.799 232.724 60.1371 232.103 60.3807C231.481 60.6193 230.783 60.7386 230.007 60.7386ZM247.659 60.7386C246.704 60.7386 245.862 60.4975 245.131 60.0153C244.4 59.5281 243.828 58.842 243.415 57.957C243.003 57.0671 242.797 56.0156 242.797 54.8026C242.797 53.5994 243.003 52.5554 243.415 51.6705C243.828 50.7855 244.402 50.1019 245.138 49.6197C245.874 49.1374 246.724 48.8963 247.689 48.8963C248.434 48.8963 249.023 49.0206 249.456 49.2692C249.893 49.5128 250.227 49.7912 250.455 50.1044C250.689 50.4126 250.87 50.6662 251 50.8651H251.149V45.2273H252.909V60.5H251.208V58.7401H251C250.87 58.9489 250.686 59.2124 250.448 59.5305C250.209 59.8437 249.869 60.1246 249.426 60.3732C248.984 60.6168 248.395 60.7386 247.659 60.7386ZM247.897 59.1577C248.603 59.1577 249.2 58.9737 249.687 58.6058C250.174 58.233 250.545 57.7184 250.798 57.0621C251.052 56.4009 251.179 55.6378 251.179 54.7727C251.179 53.9176 251.054 53.1694 250.806 52.5281C250.557 51.8817 250.189 51.3796 249.702 51.0217C249.215 50.6587 248.613 50.4773 247.897 50.4773C247.152 50.4773 246.53 50.6687 246.033 51.0515C245.541 51.4293 245.17 51.9439 244.922 52.5952C244.678 53.2415 244.556 53.9673 244.556 54.7727C244.556 55.5881 244.681 56.3288 244.929 56.995C245.183 57.6562 245.556 58.1832 246.048 58.576C246.545 58.9638 247.162 59.1577 247.897 59.1577ZM259.747 60.7685C259.021 60.7685 258.363 60.6317 257.771 60.3583C257.179 60.0799 256.71 59.6797 256.362 59.1577C256.013 58.6307 255.839 57.9943 255.839 57.2486C255.839 56.5923 255.969 56.0604 256.227 55.6527C256.486 55.2401 256.831 54.9169 257.264 54.6832C257.696 54.4496 258.174 54.2756 258.696 54.1612C259.223 54.0419 259.752 53.9474 260.284 53.8778C260.98 53.7884 261.544 53.7212 261.977 53.6765C262.414 53.6268 262.733 53.5447 262.931 53.4304C263.135 53.3161 263.237 53.1172 263.237 52.8338V52.7741C263.237 52.0384 263.036 51.4666 262.633 51.0589C262.235 50.6513 261.631 50.4474 260.821 50.4474C259.981 50.4474 259.322 50.6314 258.845 50.9993C258.368 51.3672 258.032 51.7599 257.838 52.1776L256.168 51.581C256.466 50.8849 256.864 50.343 257.361 49.9553C257.863 49.5625 258.41 49.2891 259.001 49.1349C259.598 48.9759 260.185 48.8963 260.761 48.8963C261.129 48.8963 261.552 48.9411 262.029 49.0305C262.511 49.1151 262.976 49.2915 263.424 49.56C263.876 49.8285 264.251 50.2337 264.55 50.7756C264.848 51.3175 264.997 52.0433 264.997 52.9531V60.5H263.237V58.9489H263.148C263.028 59.1974 262.83 59.4634 262.551 59.7468C262.273 60.0302 261.902 60.2713 261.44 60.4702C260.978 60.669 260.413 60.7685 259.747 60.7685ZM260.016 59.1875C260.712 59.1875 261.298 59.0508 261.776 58.7773C262.258 58.5039 262.621 58.1509 262.864 57.7184C263.113 57.2859 263.237 56.831 263.237 56.3537V54.7429C263.163 54.8324 262.999 54.9144 262.745 54.989C262.496 55.0586 262.208 55.1207 261.88 55.1754C261.557 55.2251 261.241 55.2699 260.933 55.3097C260.63 55.3445 260.384 55.3743 260.195 55.3991C259.737 55.4588 259.31 55.5558 258.912 55.69C258.519 55.8192 258.201 56.0156 257.957 56.2791C257.719 56.5376 257.599 56.8906 257.599 57.3381C257.599 57.9496 257.826 58.4119 258.278 58.7251C258.735 59.0334 259.315 59.1875 260.016 59.1875ZM274.981 60.5H273.042L278.65 45.2273H280.559L286.167 60.5H284.228L279.664 47.6435H279.545L274.981 60.5ZM275.697 54.5341H283.512V56.1747H275.697V54.5341ZM288.307 64.7955V49.0455H290.007V50.8651H290.216C290.345 50.6662 290.524 50.4126 290.753 50.1044C290.987 49.7912 291.32 49.5128 291.752 49.2692C292.19 49.0206 292.782 48.8963 293.527 48.8963C294.492 48.8963 295.342 49.1374 296.078 49.6197C296.813 50.1019 297.388 50.7855 297.8 51.6705C298.213 52.5554 298.419 53.5994 298.419 54.8026C298.419 56.0156 298.213 57.0671 297.8 57.957C297.388 58.842 296.816 59.5281 296.085 60.0153C295.354 60.4975 294.512 60.7386 293.557 60.7386C292.821 60.7386 292.232 60.6168 291.79 60.3732C291.347 60.1246 291.007 59.8437 290.768 59.5305C290.529 59.2124 290.345 58.9489 290.216 58.7401H290.067V64.7955H288.307ZM290.037 54.7727C290.037 55.6378 290.164 56.4009 290.418 57.0621C290.671 57.7184 291.041 58.233 291.529 58.6058C292.016 58.9737 292.612 59.1577 293.318 59.1577C294.054 59.1577 294.668 58.9638 295.16 58.576C295.658 58.1832 296.03 57.6562 296.279 56.995C296.533 56.3288 296.659 55.5881 296.659 54.7727C296.659 53.9673 296.535 53.2415 296.286 52.5952C296.043 51.9439 295.672 51.4293 295.175 51.0515C294.683 50.6687 294.064 50.4773 293.318 50.4773C292.603 50.4773 292.001 50.6587 291.514 51.0217C291.027 51.3796 290.659 51.8817 290.41 52.5281C290.161 53.1694 290.037 53.9176 290.037 54.7727ZM302.864 45.2273V60.5H301.104V45.2273H302.864ZM306.087 60.5V49.0455H307.847V60.5H306.087ZM306.982 47.1364C306.639 47.1364 306.343 47.0195 306.095 46.7859C305.851 46.5522 305.729 46.2713 305.729 45.9432C305.729 45.6151 305.851 45.3342 306.095 45.1005C306.343 44.8668 306.639 44.75 306.982 44.75C307.325 44.75 307.619 44.8668 307.862 45.1005C308.111 45.3342 308.235 45.6151 308.235 45.9432C308.235 46.2713 308.111 46.5522 307.862 46.7859C307.619 47.0195 307.325 47.1364 306.982 47.1364ZM315.724 60.7386C314.65 60.7386 313.726 60.4851 312.95 59.978C312.174 59.4709 311.578 58.7724 311.16 57.8825C310.743 56.9925 310.534 55.9759 310.534 54.8324C310.534 53.669 310.748 52.6424 311.175 51.7525C311.608 50.8576 312.209 50.1591 312.98 49.657C313.755 49.1499 314.66 48.8963 315.694 48.8963C316.5 48.8963 317.226 49.0455 317.872 49.3438C318.518 49.642 319.048 50.0597 319.46 50.5966C319.873 51.1335 320.129 51.7599 320.228 52.4759H318.468C318.334 51.9538 318.036 51.4915 317.574 51.0888C317.116 50.6811 316.5 50.4773 315.724 50.4773C315.038 50.4773 314.437 50.6562 313.919 51.0142C313.407 51.3672 313.007 51.8668 312.719 52.5131C312.435 53.1545 312.294 53.9077 312.294 54.7727C312.294 55.6577 312.433 56.4283 312.711 57.0845C312.995 57.7408 313.392 58.2504 313.905 58.6133C314.422 58.9762 315.028 59.1577 315.724 59.1577C316.182 59.1577 316.597 59.0781 316.97 58.919C317.342 58.7599 317.658 58.5312 317.917 58.233C318.175 57.9347 318.359 57.5767 318.468 57.1591H320.228C320.129 57.8352 319.883 58.4442 319.49 58.9862C319.102 59.5231 318.588 59.9506 317.946 60.2688C317.31 60.582 316.569 60.7386 315.724 60.7386ZM326.172 60.7685C325.446 60.7685 324.787 60.6317 324.196 60.3583C323.604 60.0799 323.134 59.6797 322.786 59.1577C322.438 58.6307 322.264 57.9943 322.264 57.2486C322.264 56.5923 322.394 56.0604 322.652 55.6527C322.911 55.2401 323.256 54.9169 323.689 54.6832C324.121 54.4496 324.598 54.2756 325.12 54.1612C325.647 54.0419 326.177 53.9474 326.709 53.8778C327.405 53.7884 327.969 53.7212 328.402 53.6765C328.839 53.6268 329.157 53.5447 329.356 53.4304C329.56 53.3161 329.662 53.1172 329.662 52.8338V52.7741C329.662 52.0384 329.461 51.4666 329.058 51.0589C328.66 50.6513 328.056 50.4474 327.246 50.4474C326.406 50.4474 325.747 50.6314 325.27 50.9993C324.792 51.3672 324.457 51.7599 324.263 52.1776L322.592 51.581C322.891 50.8849 323.288 50.343 323.786 49.9553C324.288 49.5625 324.835 49.2891 325.426 49.1349C326.023 48.9759 326.609 48.8963 327.186 48.8963C327.554 48.8963 327.977 48.9411 328.454 49.0305C328.936 49.1151 329.401 49.2915 329.848 49.56C330.301 49.8285 330.676 50.2337 330.975 50.7756C331.273 51.3175 331.422 52.0433 331.422 52.9531V60.5H329.662V58.9489H329.573C329.453 59.1974 329.254 59.4634 328.976 59.7468C328.698 60.0302 328.327 60.2713 327.865 60.4702C327.402 60.669 326.838 60.7685 326.172 60.7685ZM326.44 59.1875C327.136 59.1875 327.723 59.0508 328.2 58.7773C328.683 58.5039 329.046 58.1509 329.289 57.7184C329.538 57.2859 329.662 56.831 329.662 56.3537V54.7429C329.587 54.8324 329.423 54.9144 329.17 54.989C328.921 55.0586 328.633 55.1207 328.305 55.1754C327.982 55.2251 327.666 55.2699 327.358 55.3097C327.054 55.3445 326.808 55.3743 326.619 55.3991C326.162 55.4588 325.734 55.5558 325.337 55.69C324.944 55.8192 324.626 56.0156 324.382 56.2791C324.144 56.5376 324.024 56.8906 324.024 57.3381C324.024 57.9496 324.25 58.4119 324.703 58.7251C325.16 59.0334 325.739 59.1875 326.44 59.1875ZM339.288 60.7386C338.214 60.7386 337.289 60.4851 336.513 59.978C335.738 59.4709 335.141 58.7724 334.724 57.8825C334.306 56.9925 334.097 55.9759 334.097 54.8324C334.097 53.669 334.311 52.6424 334.739 51.7525C335.171 50.8576 335.773 50.1591 336.543 49.657C337.319 49.1499 338.224 48.8963 339.258 48.8963C340.063 48.8963 340.789 49.0455 341.435 49.3438C342.082 49.642 342.611 50.0597 343.024 50.5966C343.436 51.1335 343.692 51.7599 343.792 52.4759H342.032C341.898 51.9538 341.599 51.4915 341.137 51.0888C340.68 50.6811 340.063 50.4773 339.288 50.4773C338.602 50.4773 338 50.6562 337.483 51.0142C336.971 51.3672 336.571 51.8668 336.282 52.5131C335.999 53.1545 335.857 53.9077 335.857 54.7727C335.857 55.6577 335.996 56.4283 336.275 57.0845C336.558 57.7408 336.956 58.2504 337.468 58.6133C337.985 58.9762 338.592 59.1577 339.288 59.1577C339.745 59.1577 340.16 59.0781 340.533 58.919C340.906 58.7599 341.222 58.5312 341.48 58.233C341.739 57.9347 341.923 57.5767 342.032 57.1591H343.792C343.692 57.8352 343.446 58.4442 343.054 58.9862C342.666 59.5231 342.151 59.9506 341.51 60.2688C340.874 60.582 340.133 60.7386 339.288 60.7386ZM338.452 60.4403H339.914L339.795 61.0369C340.183 61.0966 340.538 61.2582 340.861 61.5217C341.184 61.7901 341.346 62.2152 341.346 62.7969C341.346 63.4382 341.08 63.9602 340.548 64.3629C340.021 64.7706 339.243 64.9744 338.214 64.9744L338.154 63.8111C338.616 63.8111 338.999 63.7365 339.303 63.5874C339.611 63.4432 339.765 63.1996 339.765 62.8565C339.765 62.5135 339.638 62.2798 339.385 62.1555C339.131 62.0313 338.721 61.9467 338.154 61.902L338.452 60.4403ZM349.735 60.7685C349.01 60.7685 348.351 60.6317 347.759 60.3583C347.168 60.0799 346.698 59.6797 346.35 59.1577C346.002 58.6307 345.828 57.9943 345.828 57.2486C345.828 56.5923 345.957 56.0604 346.216 55.6527C346.474 55.2401 346.82 54.9169 347.252 54.6832C347.685 54.4496 348.162 54.2756 348.684 54.1612C349.211 54.0419 349.74 53.9474 350.272 53.8778C350.968 53.7884 351.533 53.7212 351.965 53.6765C352.403 53.6268 352.721 53.5447 352.92 53.4304C353.124 53.3161 353.225 53.1172 353.225 52.8338V52.7741C353.225 52.0384 353.024 51.4666 352.621 51.0589C352.224 50.6513 351.62 50.4474 350.809 50.4474C349.969 50.4474 349.31 50.6314 348.833 50.9993C348.356 51.3672 348.02 51.7599 347.826 52.1776L346.156 51.581C346.454 50.8849 346.852 50.343 347.349 49.9553C347.851 49.5625 348.398 49.2891 348.99 49.1349C349.586 48.9759 350.173 48.8963 350.75 48.8963C351.118 48.8963 351.54 48.9411 352.017 49.0305C352.5 49.1151 352.964 49.2915 353.412 49.56C353.864 49.8285 354.24 50.2337 354.538 50.7756C354.836 51.3175 354.985 52.0433 354.985 52.9531V60.5H353.225V58.9489H353.136C353.017 59.1974 352.818 59.4634 352.539 59.7468C352.261 60.0302 351.891 60.2713 351.428 60.4702C350.966 60.669 350.402 60.7685 349.735 60.7685ZM350.004 59.1875C350.7 59.1875 351.287 59.0508 351.764 58.7773C352.246 58.5039 352.609 58.1509 352.853 57.7184C353.101 57.2859 353.225 56.831 353.225 56.3537V54.7429C353.151 54.8324 352.987 54.9144 352.733 54.989C352.485 55.0586 352.196 55.1207 351.868 55.1754C351.545 55.2251 351.229 55.2699 350.921 55.3097C350.618 55.3445 350.372 55.3743 350.183 55.3991C349.725 55.4588 349.298 55.5558 348.9 55.69C348.507 55.8192 348.189 56.0156 347.946 56.2791C347.707 56.5376 347.588 56.8906 347.588 57.3381C347.588 57.9496 347.814 58.4119 348.266 58.7251C348.724 59.0334 349.303 59.1875 350.004 59.1875ZM348.572 47.6733L347.2 47.6136C347.2 46.853 347.416 46.2315 347.849 45.7493C348.286 45.2621 348.826 45.0185 349.467 45.0185C349.75 45.0185 350.001 45.0682 350.22 45.1676C350.439 45.2621 350.648 45.3714 350.847 45.4957C351.045 45.62 351.249 45.7319 351.458 45.8313C351.672 45.9258 351.913 45.973 352.181 45.973C352.465 45.973 352.703 45.8636 352.897 45.6449C353.096 45.4212 353.196 45.1527 353.196 44.8395L354.538 44.9588C354.538 45.7344 354.319 46.3509 353.882 46.8082C353.449 47.2656 352.912 47.4943 352.271 47.4943C351.928 47.4943 351.645 47.4471 351.421 47.3526C351.197 47.2532 350.998 47.1413 350.824 47.017C350.65 46.8928 350.466 46.7834 350.272 46.6889C350.078 46.5895 349.84 46.5398 349.556 46.5398C349.273 46.5398 349.037 46.6516 348.848 46.8754C348.664 47.0941 348.572 47.3601 348.572 47.6733ZM362.851 60.7386C361.817 60.7386 360.91 60.4925 360.129 60.0004C359.354 59.5082 358.747 58.8196 358.31 57.9347C357.877 57.0497 357.661 56.0156 357.661 54.8324C357.661 53.6392 357.877 52.5977 358.31 51.7077C358.747 50.8178 359.354 50.1268 360.129 49.6346C360.91 49.1424 361.817 48.8963 362.851 48.8963C363.885 48.8963 364.79 49.1424 365.566 49.6346C366.346 50.1268 366.953 50.8178 367.385 51.7077C367.823 52.5977 368.041 53.6392 368.041 54.8324C368.041 56.0156 367.823 57.0497 367.385 57.9347C366.953 58.8196 366.346 59.5082 365.566 60.0004C364.79 60.4925 363.885 60.7386 362.851 60.7386ZM362.851 59.1577C363.637 59.1577 364.283 58.9563 364.79 58.5536C365.297 58.1509 365.672 57.6214 365.916 56.9652C366.16 56.3089 366.282 55.598 366.282 54.8324C366.282 54.0668 366.16 53.3533 365.916 52.6921C365.672 52.0309 365.297 51.4964 364.79 51.0888C364.283 50.6811 363.637 50.4773 362.851 50.4773C362.066 50.4773 361.419 50.6811 360.912 51.0888C360.405 51.4964 360.03 52.0309 359.786 52.6921C359.543 53.3533 359.421 54.0668 359.421 54.8324C359.421 55.598 359.543 56.3089 359.786 56.9652C360.03 57.6214 360.405 58.1509 360.912 58.5536C361.419 58.9563 362.066 59.1577 362.851 59.1577ZM382.033 44.5114L377.112 62.7969H375.501L380.423 44.5114H382.033ZM390.264 60.5V45.2273H395.425C396.623 45.2273 397.603 45.4435 398.363 45.8761C399.129 46.3036 399.696 46.8828 400.063 47.6136C400.431 48.3445 400.615 49.1598 400.615 50.0597C400.615 50.9595 400.431 51.7773 400.063 52.5131C399.701 53.2489 399.139 53.8356 398.378 54.2731C397.617 54.7056 396.643 54.9219 395.455 54.9219H391.756V53.2812H395.395C396.215 53.2812 396.874 53.1396 397.371 52.8562C397.869 52.5728 398.229 52.19 398.453 51.7077C398.681 51.2205 398.796 50.6712 398.796 50.0597C398.796 49.4482 398.681 48.9013 398.453 48.419C398.229 47.9368 397.866 47.5589 397.364 47.2855C396.862 47.0071 396.196 46.8679 395.365 46.8679H392.114V60.5H390.264ZM403.356 60.5V49.0455H405.056V50.7756H405.176C405.384 50.2088 405.762 49.7489 406.309 49.396C406.856 49.043 407.472 48.8665 408.158 48.8665C408.288 48.8665 408.449 48.869 408.643 48.8739C408.837 48.8789 408.984 48.8864 409.083 48.8963V50.6861C409.024 50.6712 408.887 50.6488 408.673 50.619C408.464 50.5842 408.243 50.5668 408.009 50.5668C407.453 50.5668 406.955 50.6836 406.518 50.9173C406.085 51.146 405.742 51.4641 405.489 51.8718C405.24 52.2745 405.116 52.7344 405.116 53.2514V60.5H403.356ZM415.474 60.7386C414.44 60.7386 413.533 60.4925 412.752 60.0004C411.977 59.5082 411.37 58.8196 410.933 57.9347C410.5 57.0497 410.284 56.0156 410.284 54.8324C410.284 53.6392 410.5 52.5977 410.933 51.7077C411.37 50.8178 411.977 50.1268 412.752 49.6346C413.533 49.1424 414.44 48.8963 415.474 48.8963C416.508 48.8963 417.413 49.1424 418.189 49.6346C418.969 50.1268 419.576 50.8178 420.008 51.7077C420.446 52.5977 420.665 53.6392 420.665 54.8324C420.665 56.0156 420.446 57.0497 420.008 57.9347C419.576 58.8196 418.969 59.5082 418.189 60.0004C417.413 60.4925 416.508 60.7386 415.474 60.7386ZM415.474 59.1577C416.26 59.1577 416.906 58.9563 417.413 58.5536C417.92 58.1509 418.296 57.6214 418.539 56.9652C418.783 56.3089 418.905 55.598 418.905 54.8324C418.905 54.0668 418.783 53.3533 418.539 52.6921C418.296 52.0309 417.92 51.4964 417.413 51.0888C416.906 50.6811 416.26 50.4773 415.474 50.4773C414.689 50.4773 414.042 50.6811 413.535 51.0888C413.028 51.4964 412.653 52.0309 412.409 52.6921C412.166 53.3533 412.044 54.0668 412.044 54.8324C412.044 55.598 412.166 56.3089 412.409 56.9652C412.653 57.6214 413.028 58.1509 413.535 58.5536C414.042 58.9563 414.689 59.1577 415.474 59.1577ZM427.676 60.7386C426.722 60.7386 425.879 60.4975 425.148 60.0153C424.417 59.5281 423.846 58.842 423.433 57.957C423.02 57.0671 422.814 56.0156 422.814 54.8026C422.814 53.5994 423.02 52.5554 423.433 51.6705C423.846 50.7855 424.42 50.1019 425.156 49.6197C425.892 49.1374 426.742 48.8963 427.706 48.8963C428.452 48.8963 429.041 49.0206 429.474 49.2692C429.911 49.5128 430.244 49.7912 430.473 50.1044C430.706 50.4126 430.888 50.6662 431.017 50.8651H431.166V45.2273H432.926V60.5H431.226V58.7401H431.017C430.888 58.9489 430.704 59.2124 430.465 59.5305C430.227 59.8437 429.886 60.1246 429.444 60.3732C429.001 60.6168 428.412 60.7386 427.676 60.7386ZM427.915 59.1577C428.621 59.1577 429.218 58.9737 429.705 58.6058C430.192 58.233 430.562 57.7184 430.816 57.0621C431.069 56.4009 431.196 55.6378 431.196 54.7727C431.196 53.9176 431.072 53.1694 430.823 52.5281C430.575 51.8817 430.207 51.3796 429.72 51.0217C429.232 50.6587 428.631 50.4773 427.915 50.4773C427.169 50.4773 426.548 50.6687 426.051 51.0515C425.558 51.4293 425.188 51.9439 424.939 52.5952C424.696 53.2415 424.574 53.9673 424.574 54.7727C424.574 55.5881 424.698 56.3288 424.947 56.995C425.2 57.6562 425.573 58.1832 426.066 58.576C426.563 58.9638 427.179 59.1577 427.915 59.1577ZM443.613 55.8168V49.0455H445.373V60.5H443.613V58.5611H443.493C443.225 59.1428 442.807 59.6374 442.241 60.0451C441.674 60.4478 440.958 60.6491 440.093 60.6491C439.377 60.6491 438.741 60.4925 438.184 60.1793C437.627 59.8612 437.189 59.3839 436.871 58.7475C436.553 58.1062 436.394 57.2983 436.394 56.3239V49.0455H438.154V56.2045C438.154 57.0398 438.388 57.706 438.855 58.2031C439.327 58.7003 439.929 58.9489 440.66 58.9489C441.097 58.9489 441.542 58.837 441.994 58.6133C442.452 58.3896 442.835 58.0465 443.143 57.5842C443.456 57.1218 443.613 56.5327 443.613 55.8168ZM453.578 49.0455V50.5369H447.642V49.0455H453.578ZM449.372 46.3011H451.132V57.2188C451.132 57.7159 451.204 58.0888 451.348 58.3374C451.497 58.581 451.686 58.745 451.915 58.8295C452.148 58.9091 452.394 58.9489 452.653 58.9489C452.847 58.9489 453.006 58.9389 453.13 58.919C453.255 58.8942 453.354 58.8743 453.429 58.8594L453.786 60.4403C453.667 60.4851 453.501 60.5298 453.287 60.5746C453.073 60.6243 452.802 60.6491 452.474 60.6491C451.977 60.6491 451.49 60.5423 451.012 60.3285C450.54 60.1147 450.147 59.7891 449.834 59.3516C449.526 58.9141 449.372 58.3622 449.372 57.696V46.3011ZM460.755 60.7386C459.721 60.7386 458.814 60.4925 458.033 60.0004C457.258 59.5082 456.651 58.8196 456.214 57.9347C455.781 57.0497 455.565 56.0156 455.565 54.8324C455.565 53.6392 455.781 52.5977 456.214 51.7077C456.651 50.8178 457.258 50.1268 458.033 49.6346C458.814 49.1424 459.721 48.8963 460.755 48.8963C461.79 48.8963 462.694 49.1424 463.47 49.6346C464.25 50.1268 464.857 50.8178 465.29 51.7077C465.727 52.5977 465.946 53.6392 465.946 54.8324C465.946 56.0156 465.727 57.0497 465.29 57.9347C464.857 58.8196 464.25 59.5082 463.47 60.0004C462.694 60.4925 461.79 60.7386 460.755 60.7386ZM460.755 59.1577C461.541 59.1577 462.187 58.9563 462.694 58.5536C463.201 58.1509 463.577 57.6214 463.82 56.9652C464.064 56.3089 464.186 55.598 464.186 54.8324C464.186 54.0668 464.064 53.3533 463.82 52.6921C463.577 52.0309 463.201 51.4964 462.694 51.0888C462.187 50.6811 461.541 50.4773 460.755 50.4773C459.97 50.4773 459.324 50.6811 458.816 51.0888C458.309 51.4964 457.934 52.0309 457.69 52.6921C457.447 53.3533 457.325 54.0668 457.325 54.8324C457.325 55.598 457.447 56.3089 457.69 56.9652C457.934 57.6214 458.309 58.1509 458.816 58.5536C459.324 58.9563 459.97 59.1577 460.755 59.1577ZM479.49 60.5H474.777V45.2273H479.699C481.181 45.2273 482.448 45.533 483.502 46.1445C484.556 46.7511 485.364 47.6236 485.926 48.7621C486.488 49.8956 486.769 51.2528 486.769 52.8338C486.769 54.4247 486.485 55.7944 485.919 56.9428C485.352 58.0863 484.526 58.9663 483.443 59.5827C482.359 60.1942 481.041 60.5 479.49 60.5ZM476.627 58.8594H479.371C480.634 58.8594 481.68 58.6158 482.51 58.1286C483.341 57.6413 483.96 56.9478 484.367 56.0479C484.775 55.1481 484.979 54.0767 484.979 52.8338C484.979 51.6009 484.778 50.5394 484.375 49.6495C483.972 48.7546 483.371 48.0685 482.57 47.5913C481.77 47.109 480.773 46.8679 479.58 46.8679H476.627V58.8594ZM489.632 60.5V49.0455H491.392V60.5H489.632ZM490.527 47.1364C490.184 47.1364 489.888 47.0195 489.64 46.7859C489.396 46.5522 489.274 46.2713 489.274 45.9432C489.274 45.6151 489.396 45.3342 489.64 45.1005C489.888 44.8668 490.184 44.75 490.527 44.75C490.87 44.75 491.164 44.8668 491.407 45.1005C491.656 45.3342 491.78 45.6151 491.78 45.9432C491.78 46.2713 491.656 46.5522 491.407 46.7859C491.164 47.0195 490.87 47.1364 490.527 47.1364ZM499.239 65.0341C498.389 65.0341 497.658 64.9247 497.047 64.706C496.435 64.4922 495.926 64.2088 495.518 63.8558C495.115 63.5078 494.795 63.1349 494.556 62.7372L495.958 61.7528C496.117 61.9616 496.318 62.2003 496.562 62.4688C496.806 62.7422 497.139 62.9783 497.561 63.1772C497.989 63.381 498.548 63.483 499.239 63.483C500.164 63.483 500.927 63.2592 501.529 62.8118C502.13 62.3643 502.431 61.6634 502.431 60.7088V58.3821H502.282C502.153 58.5909 501.969 58.8494 501.73 59.1577C501.496 59.4609 501.158 59.7319 500.716 59.9705C500.278 60.2042 499.687 60.321 498.941 60.321C498.016 60.321 497.186 60.1023 496.45 59.6648C495.719 59.2273 495.14 58.5909 494.713 57.7557C494.29 56.9205 494.079 55.9062 494.079 54.7131C494.079 53.5398 494.285 52.5181 494.698 51.6481C495.11 50.7731 495.685 50.0969 496.42 49.6197C497.156 49.1374 498.006 48.8963 498.971 48.8963C499.717 48.8963 500.308 49.0206 500.746 49.2692C501.188 49.5128 501.526 49.7912 501.76 50.1044C501.998 50.4126 502.182 50.6662 502.312 50.8651H502.491V49.0455H504.191V60.8281C504.191 61.8125 503.967 62.6129 503.52 63.2294C503.077 63.8509 502.481 64.3058 501.73 64.5941C500.984 64.8874 500.154 65.0341 499.239 65.0341ZM499.18 58.7401C499.886 58.7401 500.482 58.5785 500.969 58.2553C501.457 57.9322 501.827 57.4673 502.081 56.8608C502.334 56.2543 502.461 55.5284 502.461 54.6832C502.461 53.858 502.337 53.1296 502.088 52.4982C501.839 51.8668 501.472 51.3722 500.984 51.0142C500.497 50.6562 499.896 50.4773 499.18 50.4773C498.434 50.4773 497.812 50.6662 497.315 51.044C496.823 51.4219 496.453 51.929 496.204 52.5653C495.96 53.2017 495.839 53.9077 495.839 54.6832C495.839 55.4787 495.963 56.1822 496.212 56.7937C496.465 57.4002 496.838 57.8775 497.33 58.2255C497.827 58.5685 498.444 58.7401 499.18 58.7401ZM507.413 60.5V49.0455H509.172V60.5H507.413ZM508.307 47.1364C507.964 47.1364 507.669 47.0195 507.42 46.7859C507.176 46.5522 507.055 46.2713 507.055 45.9432C507.055 45.6151 507.176 45.3342 507.42 45.1005C507.669 44.8668 507.964 44.75 508.307 44.75C508.65 44.75 508.944 44.8668 509.187 45.1005C509.436 45.3342 509.56 45.6151 509.56 45.9432C509.56 46.2713 509.436 46.5522 509.187 46.7859C508.944 47.0195 508.65 47.1364 508.307 47.1364ZM517.377 49.0455V50.5369H511.441V49.0455H517.377ZM513.172 46.3011H514.931V57.2188C514.931 57.7159 515.004 58.0888 515.148 58.3374C515.297 58.581 515.486 58.745 515.714 58.8295C515.948 58.9091 516.194 58.9489 516.453 58.9489C516.647 58.9489 516.806 58.9389 516.93 58.919C517.054 58.8942 517.154 58.8743 517.228 58.8594L517.586 60.4403C517.467 60.4851 517.3 60.5298 517.087 60.5746C516.873 60.6243 516.602 60.6491 516.274 60.6491C515.777 60.6491 515.289 60.5423 514.812 60.3285C514.34 60.1147 513.947 59.7891 513.634 59.3516C513.326 58.9141 513.172 58.3622 513.172 57.696V46.3011ZM523.396 60.7685C522.67 60.7685 522.011 60.6317 521.419 60.3583C520.828 60.0799 520.358 59.6797 520.01 59.1577C519.662 58.6307 519.488 57.9943 519.488 57.2486C519.488 56.5923 519.617 56.0604 519.876 55.6527C520.134 55.2401 520.48 54.9169 520.912 54.6832C521.345 54.4496 521.822 54.2756 522.344 54.1612C522.871 54.0419 523.401 53.9474 523.933 53.8778C524.629 53.7884 525.193 53.7212 525.625 53.6765C526.063 53.6268 526.381 53.5447 526.58 53.4304C526.784 53.3161 526.886 53.1172 526.886 52.8338V52.7741C526.886 52.0384 526.684 51.4666 526.282 51.0589C525.884 50.6513 525.28 50.4474 524.469 50.4474C523.629 50.4474 522.971 50.6314 522.493 50.9993C522.016 51.3672 521.68 51.7599 521.487 52.1776L519.816 51.581C520.114 50.8849 520.512 50.343 521.009 49.9553C521.511 49.5625 522.058 49.2891 522.65 49.1349C523.246 48.9759 523.833 48.8963 524.41 48.8963C524.778 48.8963 525.2 48.9411 525.678 49.0305C526.16 49.1151 526.625 49.2915 527.072 49.56C527.525 49.8285 527.9 50.2337 528.198 50.7756C528.496 51.3175 528.646 52.0433 528.646 52.9531V60.5H526.886V58.9489H526.796C526.677 59.1974 526.478 59.4634 526.2 59.7468C525.921 60.0302 525.551 60.2713 525.088 60.4702C524.626 60.669 524.062 60.7685 523.396 60.7685ZM523.664 59.1875C524.36 59.1875 524.947 59.0508 525.424 58.7773C525.906 58.5039 526.269 58.1509 526.513 57.7184C526.761 57.2859 526.886 56.831 526.886 56.3537V54.7429C526.811 54.8324 526.647 54.9144 526.393 54.989C526.145 55.0586 525.857 55.1207 525.528 55.1754C525.205 55.2251 524.89 55.2699 524.581 55.3097C524.278 55.3445 524.032 55.3743 523.843 55.3991C523.386 55.4588 522.958 55.5558 522.56 55.69C522.168 55.8192 521.849 56.0156 521.606 56.2791C521.367 56.5376 521.248 56.8906 521.248 57.3381C521.248 57.9496 521.474 58.4119 521.926 58.7251C522.384 59.0334 522.963 59.1875 523.664 59.1875ZM533.618 45.2273V60.5H531.858V45.2273H533.618Z" fill="#788896"/>
<path d="M1002 24H855V80.5H1002V24Z" stroke="#C3CFD9" stroke-width="2"/>
<path d="M875.821 45.8409H877.398L881.105 54.8963H881.233L884.94 45.8409H886.517V56.75H885.281V48.4616H885.175L881.766 56.75H880.572L877.163 48.4616H877.057V56.75H875.821V45.8409ZM891.403 56.9418C890.884 56.9418 890.414 56.8441 889.991 56.6488C889.569 56.4499 889.233 56.1641 888.985 55.7912C888.736 55.4148 888.612 54.9602 888.612 54.4276C888.612 53.9588 888.704 53.5788 888.889 53.2876C889.073 52.9929 889.32 52.7621 889.629 52.5952C889.938 52.4283 890.279 52.304 890.652 52.2223C891.028 52.1371 891.407 52.0696 891.786 52.0199C892.284 51.956 892.687 51.908 892.996 51.8761C893.308 51.8406 893.535 51.782 893.677 51.7003C893.823 51.6186 893.896 51.4766 893.896 51.2741V51.2315C893.896 50.706 893.752 50.2976 893.464 50.0064C893.18 49.7152 892.749 49.5696 892.17 49.5696C891.57 49.5696 891.099 49.701 890.758 49.9638C890.418 50.2266 890.178 50.5071 890.039 50.8054L888.846 50.3793C889.059 49.8821 889.343 49.495 889.698 49.218C890.057 48.9375 890.448 48.7422 890.87 48.6321C891.296 48.5185 891.715 48.4616 892.127 48.4616C892.39 48.4616 892.692 48.4936 893.033 48.5575C893.377 48.6179 893.709 48.744 894.029 48.9357C894.352 49.1275 894.62 49.4169 894.833 49.804C895.046 50.1911 895.153 50.7095 895.153 51.3594V56.75H893.896V55.642H893.832C893.747 55.8196 893.605 56.0096 893.406 56.212C893.207 56.4144 892.942 56.5866 892.612 56.7287C892.282 56.8707 891.879 56.9418 891.403 56.9418ZM891.595 55.8125C892.092 55.8125 892.511 55.7148 892.852 55.5195C893.196 55.3242 893.456 55.0721 893.63 54.7631C893.807 54.4542 893.896 54.1293 893.896 53.7884V52.6378C893.843 52.7017 893.725 52.7603 893.544 52.8136C893.367 52.8633 893.161 52.9077 892.926 52.9467C892.696 52.9822 892.47 53.0142 892.25 53.0426C892.033 53.0675 891.858 53.0888 891.723 53.1065C891.396 53.1491 891.09 53.2184 890.806 53.3143C890.526 53.4066 890.299 53.5469 890.125 53.7351C889.954 53.9197 889.869 54.1719 889.869 54.4915C889.869 54.9283 890.03 55.2585 890.354 55.4822C890.68 55.7024 891.094 55.8125 891.595 55.8125ZM897.447 56.75V48.5682H898.662V49.804H898.747C898.896 49.3991 899.166 49.0707 899.557 48.8185C899.947 48.5664 900.388 48.4403 900.878 48.4403C900.97 48.4403 901.086 48.4421 901.224 48.4457C901.363 48.4492 901.467 48.4545 901.538 48.4616V49.7401C901.496 49.7294 901.398 49.7134 901.245 49.6921C901.096 49.6673 900.938 49.6548 900.771 49.6548C900.374 49.6548 900.018 49.7383 899.706 49.9052C899.397 50.0685 899.152 50.2958 898.971 50.587C898.793 50.8746 898.705 51.2031 898.705 51.5724V56.75H897.447ZM906.103 56.9205C905.336 56.9205 904.676 56.7393 904.122 56.3771C903.568 56.0149 903.142 55.516 902.843 54.8803C902.545 54.2447 902.396 53.5185 902.396 52.7017C902.396 51.8707 902.549 51.1374 902.854 50.5018C903.163 49.8626 903.593 49.3636 904.143 49.005C904.697 48.6428 905.343 48.4616 906.082 48.4616C906.657 48.4616 907.176 48.5682 907.637 48.7812C908.099 48.9943 908.477 49.2926 908.772 49.6761C909.067 50.0597 909.25 50.5071 909.321 51.0185H908.064C907.968 50.6456 907.755 50.3153 907.424 50.0277C907.098 49.7365 906.657 49.5909 906.103 49.5909C905.613 49.5909 905.184 49.7187 904.814 49.9744C904.449 50.2266 904.163 50.5835 903.957 51.0451C903.754 51.5032 903.653 52.0412 903.653 52.6591C903.653 53.2912 903.752 53.8416 903.951 54.3104C904.154 54.7791 904.438 55.1431 904.804 55.4023C905.173 55.6616 905.606 55.7912 906.103 55.7912C906.43 55.7912 906.727 55.7344 906.993 55.6207C907.259 55.5071 907.485 55.3438 907.669 55.1307C907.854 54.9176 907.985 54.6619 908.064 54.3636H909.321C909.25 54.8466 909.074 55.2816 908.793 55.6687C908.516 56.0522 908.149 56.3576 907.691 56.5849C907.236 56.8086 906.707 56.9205 906.103 56.9205ZM913.566 56.9418C913.048 56.9418 912.577 56.8441 912.154 56.6488C911.732 56.4499 911.396 56.1641 911.148 55.7912C910.899 55.4148 910.775 54.9602 910.775 54.4276C910.775 53.9588 910.867 53.5788 911.052 53.2876C911.237 52.9929 911.483 52.7621 911.792 52.5952C912.101 52.4283 912.442 52.304 912.815 52.2223C913.191 52.1371 913.57 52.0696 913.95 52.0199C914.447 51.956 914.85 51.908 915.159 51.8761C915.471 51.8406 915.699 51.782 915.841 51.7003C915.986 51.6186 916.059 51.4766 916.059 51.2741V51.2315C916.059 50.706 915.915 50.2976 915.627 50.0064C915.343 49.7152 914.912 49.5696 914.333 49.5696C913.733 49.5696 913.262 49.701 912.922 49.9638C912.581 50.2266 912.341 50.5071 912.202 50.8054L911.009 50.3793C911.222 49.8821 911.506 49.495 911.862 49.218C912.22 48.9375 912.611 48.7422 913.033 48.6321C913.46 48.5185 913.879 48.4616 914.29 48.4616C914.553 48.4616 914.855 48.4936 915.196 48.5575C915.54 48.6179 915.873 48.744 916.192 48.9357C916.515 49.1275 916.783 49.4169 916.996 49.804C917.21 50.1911 917.316 50.7095 917.316 51.3594V56.75H916.059V55.642H915.995C915.91 55.8196 915.768 56.0096 915.569 56.212C915.37 56.4144 915.105 56.5866 914.775 56.7287C914.445 56.8707 914.042 56.9418 913.566 56.9418ZM913.758 55.8125C914.255 55.8125 914.674 55.7148 915.015 55.5195C915.359 55.3242 915.619 55.0721 915.793 54.7631C915.97 54.4542 916.059 54.1293 916.059 53.7884V52.6378C916.006 52.7017 915.888 52.7603 915.707 52.8136C915.53 52.8633 915.324 52.9077 915.089 52.9467C914.859 52.9822 914.633 53.0142 914.413 53.0426C914.196 53.0675 914.021 53.0888 913.886 53.1065C913.559 53.1491 913.254 53.2184 912.969 53.3143C912.689 53.4066 912.462 53.5469 912.288 53.7351C912.117 53.9197 912.032 54.1719 912.032 54.4915C912.032 54.9283 912.194 55.2585 912.517 55.4822C912.843 55.7024 913.257 55.8125 913.758 55.8125ZM924 56.75V45.8409H927.686C928.542 45.8409 929.241 45.9954 929.785 46.3043C930.331 46.6097 930.736 47.0234 930.999 47.5455C931.262 48.0675 931.393 48.6499 931.393 49.2926C931.393 49.9354 931.262 50.5195 930.999 51.0451C930.74 51.5707 930.339 51.9897 929.795 52.3022C929.252 52.6112 928.556 52.7656 927.707 52.7656H925.065V51.5938H927.665C928.25 51.5938 928.721 51.4925 929.076 51.2901C929.431 51.0877 929.689 50.8143 929.848 50.4698C930.012 50.1218 930.093 49.7294 930.093 49.2926C930.093 48.8558 930.012 48.4652 929.848 48.1207C929.689 47.7763 929.429 47.5064 929.071 47.3111C928.712 47.1122 928.236 47.0128 927.643 47.0128H925.321V56.75H924ZM936.693 56.9205C935.905 56.9205 935.225 56.7464 934.653 56.3984C934.085 56.0469 933.646 55.5568 933.337 54.9283C933.032 54.2962 932.879 53.5611 932.879 52.723C932.879 51.8849 933.032 51.1463 933.337 50.5071C933.646 49.8643 934.076 49.3636 934.627 49.005C935.18 48.6428 935.827 48.4616 936.565 48.4616C936.992 48.4616 937.412 48.5327 937.828 48.6747C938.243 48.8168 938.622 49.0476 938.962 49.3672C939.303 49.6832 939.575 50.1023 939.777 50.6243C939.98 51.1463 940.081 51.7891 940.081 52.5526V53.0852H933.774V51.9986H938.803C938.803 51.5369 938.71 51.125 938.526 50.7628C938.345 50.4006 938.085 50.1147 937.748 49.9052C937.414 49.6957 937.02 49.5909 936.565 49.5909C936.065 49.5909 935.631 49.7152 935.266 49.9638C934.903 50.2088 934.625 50.5284 934.429 50.9226C934.234 51.3168 934.136 51.7393 934.136 52.1903V52.9148C934.136 53.5327 934.243 54.0565 934.456 54.4862C934.673 54.9123 934.973 55.2372 935.356 55.4609C935.74 55.6811 936.185 55.7912 936.693 55.7912C937.024 55.7912 937.322 55.745 937.588 55.6527C937.858 55.5568 938.091 55.4148 938.286 55.2266C938.481 55.0348 938.632 54.7969 938.739 54.5128L939.953 54.8537C939.825 55.2656 939.611 55.6278 939.309 55.9403C939.007 56.2493 938.634 56.4908 938.19 56.6648C937.746 56.8352 937.247 56.9205 936.693 56.9205ZM945.552 48.5682V49.6335H941.312V48.5682H945.552ZM942.547 46.608H943.804V54.4062C943.804 54.7614 943.856 55.0277 943.959 55.2053C944.065 55.3793 944.2 55.4964 944.364 55.5568C944.531 55.6136 944.706 55.642 944.891 55.642C945.03 55.642 945.143 55.6349 945.232 55.6207C945.321 55.603 945.392 55.5888 945.445 55.5781L945.701 56.7074C945.616 56.7393 945.497 56.7713 945.344 56.8033C945.191 56.8388 944.998 56.8565 944.763 56.8565C944.408 56.8565 944.06 56.7802 943.719 56.6275C943.382 56.4748 943.101 56.2422 942.878 55.9297C942.657 55.6172 942.547 55.223 942.547 54.7472V46.608ZM947.443 56.75V48.5682H948.657V49.804H948.742C948.891 49.3991 949.161 49.0707 949.552 48.8185C949.943 48.5664 950.383 48.4403 950.873 48.4403C950.965 48.4403 951.081 48.4421 951.219 48.4457C951.358 48.4492 951.462 48.4545 951.533 48.4616V49.7401C951.491 49.7294 951.393 49.7134 951.241 49.6921C951.091 49.6673 950.933 49.6548 950.766 49.6548C950.369 49.6548 950.014 49.7383 949.701 49.9052C949.392 50.0685 949.147 50.2958 948.966 50.587C948.788 50.8746 948.7 51.2031 948.7 51.5724V56.75H947.443ZM956.098 56.9205C955.36 56.9205 954.712 56.7447 954.154 56.3931C953.6 56.0415 953.167 55.5497 952.854 54.9176C952.546 54.2855 952.391 53.5469 952.391 52.7017C952.391 51.8494 952.546 51.1055 952.854 50.4698C953.167 49.8342 953.6 49.3406 954.154 48.989C954.712 48.6374 955.36 48.4616 956.098 48.4616C956.837 48.4616 957.483 48.6374 958.037 48.989C958.595 49.3406 959.028 49.8342 959.337 50.4698C959.65 51.1055 959.806 51.8494 959.806 52.7017C959.806 53.5469 959.65 54.2855 959.337 54.9176C959.028 55.5497 958.595 56.0415 958.037 56.3931C957.483 56.7447 956.837 56.9205 956.098 56.9205ZM956.098 55.7912C956.66 55.7912 957.121 55.6474 957.483 55.3597C957.846 55.0721 958.114 54.6939 958.288 54.2251C958.462 53.7564 958.549 53.2486 958.549 52.7017C958.549 52.1548 958.462 51.6452 958.288 51.1729C958.114 50.7006 957.846 50.3189 957.483 50.0277C957.121 49.7365 956.66 49.5909 956.098 49.5909C955.537 49.5909 955.076 49.7365 954.714 50.0277C954.351 50.3189 954.083 50.7006 953.909 51.1729C953.735 51.6452 953.648 52.1548 953.648 52.7017C953.648 53.2486 953.735 53.7564 953.909 54.2251C954.083 54.6939 954.351 55.0721 954.714 55.3597C955.076 55.6474 955.537 55.7912 956.098 55.7912ZM961.895 56.75V45.8409H963.152V49.8679H963.259C963.351 49.7259 963.479 49.5447 963.642 49.3246C963.809 49.1009 964.047 48.902 964.356 48.728C964.669 48.5504 965.091 48.4616 965.624 48.4616C966.313 48.4616 966.92 48.6339 967.446 48.9783C967.971 49.3228 968.381 49.8111 968.676 50.4432C968.971 51.0753 969.118 51.821 969.118 52.6804C969.118 53.5469 968.971 54.2979 968.676 54.9336C968.381 55.5657 967.973 56.0558 967.451 56.4038C966.929 56.7482 966.327 56.9205 965.645 56.9205C965.12 56.9205 964.699 56.8335 964.383 56.6594C964.067 56.4819 963.824 56.2812 963.653 56.0575C963.483 55.8303 963.351 55.642 963.259 55.4929H963.11V56.75H961.895ZM963.131 52.6591C963.131 53.277 963.222 53.8221 963.403 54.2944C963.584 54.7631 963.848 55.1307 964.196 55.397C964.544 55.6598 964.971 55.7912 965.475 55.7912C966 55.7912 966.439 55.6527 966.79 55.3757C967.146 55.0952 967.412 54.7187 967.589 54.2464C967.771 53.7706 967.861 53.2415 967.861 52.6591C967.861 52.0838 967.772 51.5653 967.595 51.1037C967.421 50.6385 967.156 50.271 966.801 50.0011C966.45 49.7276 966.007 49.5909 965.475 49.5909C964.963 49.5909 964.534 49.7205 964.186 49.9798C963.838 50.2354 963.575 50.5941 963.397 51.0558C963.22 51.5138 963.131 52.0483 963.131 52.6591ZM971.041 56.75V48.5682H972.256V49.804H972.341C972.49 49.3991 972.76 49.0707 973.151 48.8185C973.541 48.5664 973.982 48.4403 974.472 48.4403C974.564 48.4403 974.679 48.4421 974.818 48.4457C974.956 48.4492 975.061 48.4545 975.132 48.4616V49.7401C975.089 49.7294 974.992 49.7134 974.839 49.6921C974.69 49.6673 974.532 49.6548 974.365 49.6548C973.967 49.6548 973.612 49.7383 973.3 49.9052C972.991 50.0685 972.746 50.2958 972.565 50.587C972.387 50.8746 972.298 51.2031 972.298 51.5724V56.75H971.041ZM979.03 56.9418C978.511 56.9418 978.041 56.8441 977.618 56.6488C977.196 56.4499 976.86 56.1641 976.612 55.7912C976.363 55.4148 976.239 54.9602 976.239 54.4276C976.239 53.9588 976.331 53.5788 976.516 53.2876C976.7 52.9929 976.947 52.7621 977.256 52.5952C977.565 52.4283 977.906 52.304 978.279 52.2223C978.655 52.1371 979.033 52.0696 979.413 52.0199C979.911 51.956 980.314 51.908 980.623 51.8761C980.935 51.8406 981.162 51.782 981.304 51.7003C981.45 51.6186 981.523 51.4766 981.523 51.2741V51.2315C981.523 50.706 981.379 50.2976 981.091 50.0064C980.807 49.7152 980.376 49.5696 979.797 49.5696C979.197 49.5696 978.726 49.701 978.385 49.9638C978.044 50.2266 977.805 50.5071 977.666 50.8054L976.473 50.3793C976.686 49.8821 976.97 49.495 977.325 49.218C977.684 48.9375 978.075 48.7422 978.497 48.6321C978.923 48.5185 979.342 48.4616 979.754 48.4616C980.017 48.4616 980.319 48.4936 980.66 48.5575C981.004 48.6179 981.336 48.744 981.656 48.9357C981.979 49.1275 982.247 49.4169 982.46 49.804C982.673 50.1911 982.78 50.7095 982.78 51.3594V56.75H981.523V55.642H981.459C981.374 55.8196 981.232 56.0096 981.033 56.212C980.834 56.4144 980.569 56.5866 980.239 56.7287C979.909 56.8707 979.506 56.9418 979.03 56.9418ZM979.222 55.8125C979.719 55.8125 980.138 55.7148 980.479 55.5195C980.823 55.3242 981.082 55.0721 981.256 54.7631C981.434 54.4542 981.523 54.1293 981.523 53.7884V52.6378C981.47 52.7017 981.352 52.7603 981.171 52.8136C980.994 52.8633 980.788 52.9077 980.553 52.9467C980.323 52.9822 980.097 53.0142 979.877 53.0426C979.66 53.0675 979.484 53.0888 979.35 53.1065C979.023 53.1491 978.717 53.2184 978.433 53.3143C978.153 53.4066 977.926 53.5469 977.752 53.7351C977.581 53.9197 977.496 54.1719 977.496 54.4915C977.496 54.9283 977.657 55.2585 977.981 55.4822C978.307 55.7024 978.721 55.8125 979.222 55.8125ZM990.87 50.4006L989.741 50.7202C989.67 50.532 989.565 50.3491 989.426 50.1715C989.291 49.9904 989.107 49.8413 988.872 49.7241C988.638 49.6069 988.338 49.5483 987.972 49.5483C987.471 49.5483 987.054 49.6637 986.72 49.8945C986.39 50.1218 986.225 50.4112 986.225 50.7628C986.225 51.0753 986.339 51.3221 986.566 51.5032C986.793 51.6843 987.148 51.8352 987.631 51.956L988.846 52.2543C989.577 52.4318 990.122 52.7035 990.481 53.0692C990.84 53.4315 991.019 53.8984 991.019 54.4702C991.019 54.9389 990.884 55.358 990.614 55.7273C990.348 56.0966 989.975 56.3878 989.496 56.6009C989.016 56.8139 988.459 56.9205 987.823 56.9205C986.988 56.9205 986.298 56.7393 985.751 56.3771C985.204 56.0149 984.858 55.4858 984.712 54.7898L985.905 54.4915C986.019 54.9318 986.234 55.2621 986.55 55.4822C986.869 55.7024 987.287 55.8125 987.802 55.8125C988.388 55.8125 988.853 55.6882 989.197 55.4396C989.545 55.1875 989.719 54.8857 989.719 54.5341C989.719 54.25 989.62 54.0121 989.421 53.8203C989.222 53.625 988.917 53.4794 988.505 53.3835L987.141 53.0639C986.392 52.8864 985.841 52.6112 985.49 52.2383C985.142 51.8619 984.968 51.3913 984.968 50.8267C984.968 50.3651 985.097 49.9567 985.357 49.6016C985.619 49.2464 985.976 48.9677 986.427 48.7653C986.882 48.5629 987.397 48.4616 987.972 48.4616C988.782 48.4616 989.417 48.6392 989.879 48.9943C990.344 49.3494 990.675 49.8182 990.87 50.4006Z" fill="#788896"/>
<defs>
<clipPath id="clip0_6_2837">
<rect width="26" height="26" fill="white" transform="translate(651.5 37.9167)"/>
</clipPath>
<clipPath id="clip1_6_2837">
<rect width="27.5294" height="27.5294" fill="white" transform="translate(688.99 37.2207)"/>
</clipPath>
<clipPath id="clip2_6_2837">
<rect width="26" height="26" fill="white" transform="translate(728.01 37.9167)"/>
</clipPath>
<clipPath id="clip3_6_2837">
<rect width="26" height="26" fill="white" transform="translate(765.5 37.9167)"/>
</clipPath>
</defs>
</svg>
