<svg width="1178" height="582" viewBox="0 0 1178 582" fill="none" xmlns="http://www.w3.org/2000/svg">
<rect width="1178" height="582" fill="white"/>
<path d="M1170 96H8V574H1170V96Z" fill="#F2F5F7" stroke="#C3CFD9" stroke-width="2"/>
<path d="M426.5 131H212.5V233H426.5V131Z" fill="white" stroke="#C3CFD9" stroke-width="2"/>
<path d="M347.5 249H212.5V260H347.5V249Z" fill="#CED8E0"/>
<path d="M426.5 272H212.5V283H426.5V272Z" fill="#E1E5EC"/>
<path d="M403.5 287.5H212.5V298.5H403.5V287.5Z" fill="#E1E5EC"/>
<path d="M347.5 303H212.5V314H347.5V303Z" fill="#E1E5EC"/>
<path d="M426.5 356H212.5V458H426.5V356Z" fill="white" stroke="#C3CFD9" stroke-width="2"/>
<path d="M347.5 474H212.5V485H347.5V474Z" fill="#CED8E0"/>
<path d="M426.5 497H212.5V508H426.5V497Z" fill="#E1E5EC"/>
<path d="M403.5 512.5H212.5V523.5H403.5V512.5Z" fill="#E1E5EC"/>
<path d="M347.5 528H212.5V539H347.5V528Z" fill="#E1E5EC"/>
<path d="M696 131H482V233H696V131Z" fill="white" stroke="#C3CFD9" stroke-width="2"/>
<path d="M617 249H482V260H617V249Z" fill="#CED8E0"/>
<path d="M696 272H482V283H696V272Z" fill="#E1E5EC"/>
<path d="M673 287.5H482V298.5H673V287.5Z" fill="#E1E5EC"/>
<path d="M617 303H482V314H617V303Z" fill="#E1E5EC"/>
<path d="M696.5 356H482.5V458H696.5V356Z" fill="white" stroke="#C3CFD9" stroke-width="2"/>
<path d="M617.5 474H482.5V485H617.5V474Z" fill="#CED8E0"/>
<path d="M696.5 497H482.5V508H696.5V497Z" fill="#E1E5EC"/>
<path d="M673.5 512.5H482.5V523.5H673.5V512.5Z" fill="#E1E5EC"/>
<path d="M617.5 528H482.5V539H617.5V528Z" fill="#E1E5EC"/>
<path d="M965.5 131H751.5V233H965.5V131Z" fill="white" stroke="#C3CFD9" stroke-width="2"/>
<path d="M886.5 249H751.5V260H886.5V249Z" fill="#CED8E0"/>
<path d="M965.5 272H751.5V283H965.5V272Z" fill="#E1E5EC"/>
<path d="M942.5 287.5H751.5V298.5H942.5V287.5Z" fill="#E1E5EC"/>
<path d="M886.5 303H751.5V314H886.5V303Z" fill="#E1E5EC"/>
<path d="M965.5 356H751.5V458H965.5V356Z" fill="white" stroke="#C3CFD9" stroke-width="2"/>
<path d="M886.5 474H751.5V485H886.5V474Z" fill="#CED8E0"/>
<path d="M965.5 497H751.5V508H965.5V497Z" fill="#E1E5EC"/>
<path d="M942.5 512.5H751.5V523.5H942.5V512.5Z" fill="#E1E5EC"/>
<path d="M886.5 528H751.5V539H886.5V528Z" fill="#E1E5EC"/>
<path d="M1170 8H8V96H1170V8Z" stroke="#C3CFD9" stroke-width="2"/>
<path d="M38.0154 43.2273V58.5H36.2256L27.9032 46.5085H27.754V58.5H25.9046V43.2273H27.6944L36.0467 55.2486H36.1958V43.2273H38.0154ZM46.1309 58.7386C45.0968 58.7386 44.1895 58.4925 43.409 58.0004C42.6334 57.5082 42.0269 56.8196 41.5894 55.9347C41.1568 55.0497 40.9406 54.0156 40.9406 52.8324C40.9406 51.6392 41.1568 50.5977 41.5894 49.7077C42.0269 48.8178 42.6334 48.1268 43.409 47.6346C44.1895 47.1424 45.0968 46.8963 46.1309 46.8963C47.165 46.8963 48.0698 47.1424 48.8454 47.6346C49.6259 48.1268 50.2325 48.8178 50.665 49.7077C51.1025 50.5977 51.3212 51.6392 51.3212 52.8324C51.3212 54.0156 51.1025 55.0497 50.665 55.9347C50.2325 56.8196 49.6259 57.5082 48.8454 58.0004C48.0698 58.4925 47.165 58.7386 46.1309 58.7386ZM46.1309 57.1577C46.9164 57.1577 47.5627 56.9563 48.0698 56.5536C48.5769 56.1509 48.9523 55.6214 49.1959 54.9652C49.4395 54.3089 49.5613 53.598 49.5613 52.8324C49.5613 52.0668 49.4395 51.3533 49.1959 50.6921C48.9523 50.0309 48.5769 49.4964 48.0698 49.0888C47.5627 48.6811 46.9164 48.4773 46.1309 48.4773C45.3454 48.4773 44.6991 48.6811 44.192 49.0888C43.6849 49.4964 43.3095 50.0309 43.0659 50.6921C42.8223 51.3533 42.7005 52.0668 42.7005 52.8324C42.7005 53.598 42.8223 54.3089 43.0659 54.9652C43.3095 55.6214 43.6849 56.1509 44.192 56.5536C44.6991 56.9563 45.3454 57.1577 46.1309 57.1577ZM54.0078 58.5V47.0455H55.7081V48.8352H55.8572C56.0958 48.2237 56.4811 47.7489 57.0131 47.4109C57.5451 47.0678 58.1839 46.8963 58.9296 46.8963C59.6853 46.8963 60.3142 47.0678 60.8164 47.4109C61.3235 47.7489 61.7187 48.2237 62.0021 48.8352H62.1214C62.4147 48.2436 62.8547 47.7738 63.4414 47.4258C64.028 47.0728 64.7315 46.8963 65.5518 46.8963C66.576 46.8963 67.4137 47.217 68.0649 47.8583C68.7162 48.4947 69.0419 49.4865 69.0419 50.8338V58.5H67.2819V50.8338C67.2819 49.9886 67.0507 49.3846 66.5884 49.0217C66.126 48.6587 65.5816 48.4773 64.9552 48.4773C64.1498 48.4773 63.5259 48.7209 63.0834 49.2081C62.6409 49.6903 62.4197 50.3018 62.4197 51.0426V58.5H60.6299V50.6548C60.6299 50.0036 60.4186 49.479 59.996 49.0813C59.5735 48.6786 59.0291 48.4773 58.3629 48.4773C57.9055 48.4773 57.4779 48.5991 57.0802 48.8427C56.6875 49.0863 56.3693 49.4244 56.1257 49.8569C55.887 50.2844 55.7677 50.7791 55.7677 51.3409V58.5H54.0078ZM77.0623 58.7386C75.9586 58.7386 75.0065 58.495 74.2061 58.0078C73.4106 57.5156 72.7967 56.8295 72.3641 55.9496C71.9366 55.0646 71.7228 54.0355 71.7228 52.8622C71.7228 51.6889 71.9366 50.6548 72.3641 49.7599C72.7967 48.8601 73.3982 48.1591 74.1688 47.657C74.9444 47.1499 75.8492 46.8963 76.8833 46.8963C77.4799 46.8963 78.069 46.9957 78.6507 47.1946C79.2324 47.3935 79.7619 47.7166 80.2391 48.1641C80.7164 48.6065 81.0967 49.1932 81.3801 49.924C81.6635 50.6548 81.8052 51.5547 81.8052 52.6236V53.3693H72.9756V51.848H80.0154C80.0154 51.2017 79.8861 50.625 79.6276 50.1179C79.3741 49.6108 79.0111 49.2106 78.5388 48.9173C78.0715 48.6239 77.5197 48.4773 76.8833 48.4773C76.1823 48.4773 75.5758 48.6513 75.0637 48.9993C74.5566 49.3423 74.1663 49.7898 73.8929 50.3416C73.6195 50.8935 73.4827 51.4851 73.4827 52.1165V53.1307C73.4827 53.9957 73.6319 54.729 73.9302 55.3306C74.2334 55.9272 74.6535 56.3821 75.1905 56.6953C75.7274 57.0036 76.3513 57.1577 77.0623 57.1577C77.5246 57.1577 77.9423 57.093 78.3151 56.9638C78.693 56.8295 79.0186 56.6307 79.292 56.3672C79.5655 56.0987 79.7768 55.7656 79.9259 55.3679L81.6262 55.8452C81.4472 56.4219 81.1464 56.929 80.7239 57.3665C80.3013 57.799 79.7793 58.1371 79.1578 58.3807C78.5364 58.6193 77.8378 58.7386 77.0623 58.7386ZM94.7139 58.7386C93.7594 58.7386 92.9167 58.4975 92.1859 58.0153C91.455 57.5281 90.8833 56.842 90.4707 55.957C90.058 55.0671 89.8517 54.0156 89.8517 52.8026C89.8517 51.5994 90.058 50.5554 90.4707 49.6705C90.8833 48.7855 91.4575 48.1019 92.1933 47.6197C92.9291 47.1374 93.7793 46.8963 94.7437 46.8963C95.4895 46.8963 96.0786 47.0206 96.5111 47.2692C96.9486 47.5128 97.2817 47.7912 97.5104 48.1044C97.7441 48.4126 97.9256 48.6662 98.0548 48.8651H98.204V43.2273H99.9639V58.5H98.2636V56.7401H98.0548C97.9256 56.9489 97.7416 57.2124 97.503 57.5305C97.2643 57.8437 96.9238 58.1246 96.4813 58.3732C96.0388 58.6168 95.4497 58.7386 94.7139 58.7386ZM94.9525 57.1577C95.6585 57.1577 96.2551 56.9737 96.7423 56.6058C97.2295 56.233 97.5999 55.7184 97.8535 55.0621C98.107 54.4009 98.2338 53.6378 98.2338 52.7727C98.2338 51.9176 98.1095 51.1694 97.8609 50.5281C97.6123 49.8817 97.2445 49.3796 96.7572 49.0217C96.27 48.6587 95.6685 48.4773 94.9525 48.4773C94.2068 48.4773 93.5854 48.6687 93.0882 49.0515C92.596 49.4293 92.2256 49.9439 91.9771 50.5952C91.7334 51.2415 91.6116 51.9673 91.6116 52.7727C91.6116 53.5881 91.7359 54.3288 91.9845 54.995C92.2381 55.6562 92.6109 56.1832 93.1031 56.576C93.6003 56.9638 94.2168 57.1577 94.9525 57.1577ZM106.802 58.7685C106.076 58.7685 105.418 58.6317 104.826 58.3583C104.235 58.0799 103.765 57.6797 103.417 57.1577C103.069 56.6307 102.895 55.9943 102.895 55.2486C102.895 54.5923 103.024 54.0604 103.282 53.6527C103.541 53.2401 103.886 52.9169 104.319 52.6832C104.752 52.4496 105.229 52.2756 105.751 52.1612C106.278 52.0419 106.807 51.9474 107.339 51.8778C108.035 51.7884 108.6 51.7212 109.032 51.6765C109.47 51.6268 109.788 51.5447 109.987 51.4304C110.19 51.3161 110.292 51.1172 110.292 50.8338V50.7741C110.292 50.0384 110.091 49.4666 109.688 49.0589C109.291 48.6513 108.687 48.4474 107.876 48.4474C107.036 48.4474 106.377 48.6314 105.9 48.9993C105.423 49.3672 105.087 49.7599 104.893 50.1776L103.223 49.581C103.521 48.8849 103.919 48.343 104.416 47.9553C104.918 47.5625 105.465 47.2891 106.057 47.1349C106.653 46.9759 107.24 46.8963 107.817 46.8963C108.184 46.8963 108.607 46.9411 109.084 47.0305C109.567 47.1151 110.031 47.2915 110.479 47.56C110.931 47.8285 111.307 48.2337 111.605 48.7756C111.903 49.3175 112.052 50.0433 112.052 50.9531V58.5H110.292V56.9489H110.203C110.084 57.1974 109.885 57.4634 109.606 57.7468C109.328 58.0302 108.958 58.2713 108.495 58.4702C108.033 58.669 107.469 58.7685 106.802 58.7685ZM107.071 57.1875C107.767 57.1875 108.353 57.0508 108.831 56.7773C109.313 56.5039 109.676 56.1509 109.92 55.7184C110.168 55.2859 110.292 54.831 110.292 54.3537V52.7429C110.218 52.8324 110.054 52.9144 109.8 52.989C109.552 53.0586 109.263 53.1207 108.935 53.1754C108.612 53.2251 108.296 53.2699 107.988 53.3097C107.685 53.3445 107.439 53.3743 107.25 53.3991C106.792 53.4588 106.365 53.5558 105.967 53.69C105.574 53.8192 105.256 54.0156 105.013 54.2791C104.774 54.5376 104.655 54.8906 104.655 55.3381C104.655 55.9496 104.881 56.4119 105.333 56.7251C105.791 57.0334 106.37 57.1875 107.071 57.1875ZM122.036 58.5H120.097L125.705 43.2273H127.614L133.222 58.5H131.283L126.719 45.6435H126.6L122.036 58.5ZM122.752 52.5341H130.567V54.1747H122.752V52.5341ZM135.362 62.7955V47.0455H137.063V48.8651H137.271C137.401 48.6662 137.58 48.4126 137.808 48.1044C138.042 47.7912 138.375 47.5128 138.808 47.2692C139.245 47.0206 139.837 46.8963 140.582 46.8963C141.547 46.8963 142.397 47.1374 143.133 47.6197C143.869 48.1019 144.443 48.7855 144.856 49.6705C145.268 50.5554 145.474 51.5994 145.474 52.8026C145.474 54.0156 145.268 55.0671 144.856 55.957C144.443 56.842 143.871 57.5281 143.14 58.0153C142.409 58.4975 141.567 58.7386 140.612 58.7386C139.876 58.7386 139.287 58.6168 138.845 58.3732C138.402 58.1246 138.062 57.8437 137.823 57.5305C137.585 57.2124 137.401 56.9489 137.271 56.7401H137.122V62.7955H135.362ZM137.092 52.7727C137.092 53.6378 137.219 54.4009 137.473 55.0621C137.726 55.7184 138.097 56.233 138.584 56.6058C139.071 56.9737 139.668 57.1577 140.374 57.1577C141.109 57.1577 141.723 56.9638 142.216 56.576C142.713 56.1832 143.086 55.6562 143.334 54.995C143.588 54.3288 143.715 53.5881 143.715 52.7727C143.715 51.9673 143.59 51.2415 143.342 50.5952C143.098 49.9439 142.728 49.4293 142.231 49.0515C141.738 48.6687 141.119 48.4773 140.374 48.4773C139.658 48.4773 139.056 48.6587 138.569 49.0217C138.082 49.3796 137.714 49.8817 137.465 50.5281C137.217 51.1694 137.092 51.9176 137.092 52.7727ZM149.919 43.2273V58.5H148.159V43.2273H149.919ZM153.143 58.5V47.0455H154.902V58.5H153.143ZM154.037 45.1364C153.694 45.1364 153.399 45.0195 153.15 44.7859C152.906 44.5522 152.785 44.2713 152.785 43.9432C152.785 43.6151 152.906 43.3342 153.15 43.1005C153.399 42.8668 153.694 42.75 154.037 42.75C154.38 42.75 154.674 42.8668 154.917 43.1005C155.166 43.3342 155.29 43.6151 155.29 43.9432C155.29 44.2713 155.166 44.5522 154.917 44.7859C154.674 45.0195 154.38 45.1364 154.037 45.1364ZM162.779 58.7386C161.705 58.7386 160.781 58.4851 160.005 57.978C159.23 57.4709 158.633 56.7724 158.215 55.8825C157.798 54.9925 157.589 53.9759 157.589 52.8324C157.589 51.669 157.803 50.6424 158.23 49.7525C158.663 48.8576 159.264 48.1591 160.035 47.657C160.811 47.1499 161.715 46.8963 162.75 46.8963C163.555 46.8963 164.281 47.0455 164.927 47.3438C165.573 47.642 166.103 48.0597 166.515 48.5966C166.928 49.1335 167.184 49.7599 167.284 50.4759H165.524C165.389 49.9538 165.091 49.4915 164.629 49.0888C164.171 48.6811 163.555 48.4773 162.779 48.4773C162.093 48.4773 161.492 48.6562 160.975 49.0142C160.463 49.3672 160.062 49.8668 159.774 50.5131C159.491 51.1545 159.349 51.9077 159.349 52.7727C159.349 53.6577 159.488 54.4283 159.767 55.0845C160.05 55.7408 160.448 56.2504 160.96 56.6133C161.477 56.9762 162.083 57.1577 162.779 57.1577C163.237 57.1577 163.652 57.0781 164.025 56.919C164.398 56.7599 164.713 56.5312 164.972 56.233C165.23 55.9347 165.414 55.5767 165.524 55.1591H167.284C167.184 55.8352 166.938 56.4442 166.545 56.9862C166.158 57.5231 165.643 57.9506 165.002 58.2688C164.365 58.582 163.625 58.7386 162.779 58.7386ZM173.227 58.7685C172.501 58.7685 171.843 58.6317 171.251 58.3583C170.659 58.0799 170.189 57.6797 169.841 57.1577C169.493 56.6307 169.319 55.9943 169.319 55.2486C169.319 54.5923 169.449 54.0604 169.707 53.6527C169.966 53.2401 170.311 52.9169 170.744 52.6832C171.176 52.4496 171.654 52.2756 172.176 52.1612C172.703 52.0419 173.232 51.9474 173.764 51.8778C174.46 51.7884 175.024 51.7212 175.457 51.6765C175.894 51.6268 176.213 51.5447 176.411 51.4304C176.615 51.3161 176.717 51.1172 176.717 50.8338V50.7741C176.717 50.0384 176.516 49.4666 176.113 49.0589C175.715 48.6513 175.111 48.4474 174.301 48.4474C173.461 48.4474 172.802 48.6314 172.325 48.9993C171.848 49.3672 171.512 49.7599 171.318 50.1776L169.648 49.581C169.946 48.8849 170.344 48.343 170.841 47.9553C171.343 47.5625 171.89 47.2891 172.481 47.1349C173.078 46.9759 173.665 46.8963 174.241 46.8963C174.609 46.8963 175.032 46.9411 175.509 47.0305C175.991 47.1151 176.456 47.2915 176.904 47.56C177.356 47.8285 177.731 48.2337 178.03 48.7756C178.328 49.3175 178.477 50.0433 178.477 50.9531V58.5H176.717V56.9489H176.628C176.508 57.1974 176.31 57.4634 176.031 57.7468C175.753 58.0302 175.382 58.2713 174.92 58.4702C174.458 58.669 173.893 58.7685 173.227 58.7685ZM173.496 57.1875C174.192 57.1875 174.778 57.0508 175.256 56.7773C175.738 56.5039 176.101 56.1509 176.344 55.7184C176.593 55.2859 176.717 54.831 176.717 54.3537V52.7429C176.643 52.8324 176.479 52.9144 176.225 52.989C175.976 53.0586 175.688 53.1207 175.36 53.1754C175.037 53.2251 174.721 53.2699 174.413 53.3097C174.11 53.3445 173.864 53.3743 173.675 53.3991C173.217 53.4588 172.79 53.5558 172.392 53.69C171.999 53.8192 171.681 54.0156 171.437 54.2791C171.199 54.5376 171.079 54.8906 171.079 55.3381C171.079 55.9496 171.306 56.4119 171.758 56.7251C172.215 57.0334 172.795 57.1875 173.496 57.1875ZM186.343 58.7386C185.269 58.7386 184.344 58.4851 183.569 57.978C182.793 57.4709 182.197 56.7724 181.779 55.8825C181.361 54.9925 181.152 53.9759 181.152 52.8324C181.152 51.669 181.366 50.6424 181.794 49.7525C182.226 48.8576 182.828 48.1591 183.598 47.657C184.374 47.1499 185.279 46.8963 186.313 46.8963C187.118 46.8963 187.844 47.0455 188.491 47.3438C189.137 47.642 189.666 48.0597 190.079 48.5966C190.492 49.1335 190.748 49.7599 190.847 50.4759H189.087C188.953 49.9538 188.655 49.4915 188.192 49.0888C187.735 48.6811 187.118 48.4773 186.343 48.4773C185.657 48.4773 185.055 48.6562 184.538 49.0142C184.026 49.3672 183.626 49.8668 183.337 50.5131C183.054 51.1545 182.912 51.9077 182.912 52.7727C182.912 53.6577 183.052 54.4283 183.33 55.0845C183.613 55.7408 184.011 56.2504 184.523 56.6133C185.04 56.9762 185.647 57.1577 186.343 57.1577C186.8 57.1577 187.215 57.0781 187.588 56.919C187.961 56.7599 188.277 56.5312 188.535 56.233C188.794 55.9347 188.978 55.5767 189.087 55.1591H190.847C190.748 55.8352 190.502 56.4442 190.109 56.9862C189.721 57.5231 189.206 57.9506 188.565 58.2688C187.929 58.582 187.188 58.7386 186.343 58.7386ZM185.508 58.4403H186.969L186.85 59.0369C187.238 59.0966 187.593 59.2582 187.916 59.5217C188.239 59.7901 188.401 60.2152 188.401 60.7969C188.401 61.4382 188.135 61.9602 187.603 62.3629C187.076 62.7706 186.298 62.9744 185.269 62.9744L185.209 61.8111C185.672 61.8111 186.054 61.7365 186.358 61.5874C186.666 61.4432 186.82 61.1996 186.82 60.8565C186.82 60.5135 186.693 60.2798 186.44 60.1555C186.186 60.0313 185.776 59.9467 185.209 59.902L185.508 58.4403ZM196.791 58.7685C196.065 58.7685 195.406 58.6317 194.814 58.3583C194.223 58.0799 193.753 57.6797 193.405 57.1577C193.057 56.6307 192.883 55.9943 192.883 55.2486C192.883 54.5923 193.012 54.0604 193.271 53.6527C193.529 53.2401 193.875 52.9169 194.307 52.6832C194.74 52.4496 195.217 52.2756 195.739 52.1612C196.266 52.0419 196.796 51.9474 197.328 51.8778C198.024 51.7884 198.588 51.7212 199.02 51.6765C199.458 51.6268 199.776 51.5447 199.975 51.4304C200.179 51.3161 200.281 51.1172 200.281 50.8338V50.7741C200.281 50.0384 200.079 49.4666 199.677 49.0589C199.279 48.6513 198.675 48.4474 197.864 48.4474C197.024 48.4474 196.366 48.6314 195.888 48.9993C195.411 49.3672 195.075 49.7599 194.882 50.1776L193.211 49.581C193.509 48.8849 193.907 48.343 194.404 47.9553C194.906 47.5625 195.453 47.2891 196.045 47.1349C196.641 46.9759 197.228 46.8963 197.805 46.8963C198.173 46.8963 198.595 46.9411 199.073 47.0305C199.555 47.1151 200.02 47.2915 200.467 47.56C200.92 47.8285 201.295 48.2337 201.593 48.7756C201.891 49.3175 202.041 50.0433 202.041 50.9531V58.5H200.281V56.9489H200.191C200.072 57.1974 199.873 57.4634 199.595 57.7468C199.316 58.0302 198.946 58.2713 198.483 58.4702C198.021 58.669 197.457 58.7685 196.791 58.7685ZM197.059 57.1875C197.755 57.1875 198.342 57.0508 198.819 56.7773C199.301 56.5039 199.664 56.1509 199.908 55.7184C200.156 55.2859 200.281 54.831 200.281 54.3537V52.7429C200.206 52.8324 200.042 52.9144 199.788 52.989C199.54 53.0586 199.252 53.1207 198.923 53.1754C198.6 53.2251 198.285 53.2699 197.976 53.3097C197.673 53.3445 197.427 53.3743 197.238 53.3991C196.781 53.4588 196.353 53.5558 195.955 53.69C195.563 53.8192 195.244 54.0156 195.001 54.2791C194.762 54.5376 194.643 54.8906 194.643 55.3381C194.643 55.9496 194.869 56.4119 195.322 56.7251C195.779 57.0334 196.358 57.1875 197.059 57.1875ZM195.627 45.6733L194.255 45.6136C194.255 44.853 194.471 44.2315 194.904 43.7493C195.341 43.2621 195.881 43.0185 196.522 43.0185C196.806 43.0185 197.057 43.0682 197.275 43.1676C197.494 43.2621 197.703 43.3714 197.902 43.4957C198.101 43.62 198.304 43.7319 198.513 43.8313C198.727 43.9258 198.968 43.973 199.237 43.973C199.52 43.973 199.759 43.8636 199.953 43.6449C200.151 43.4212 200.251 43.1527 200.251 42.8395L201.593 42.9588C201.593 43.7344 201.374 44.3509 200.937 44.8082C200.504 45.2656 199.967 45.4943 199.326 45.4943C198.983 45.4943 198.7 45.4471 198.476 45.3526C198.252 45.2532 198.053 45.1413 197.879 45.017C197.705 44.8928 197.521 44.7834 197.328 44.6889C197.134 44.5895 196.895 44.5398 196.612 44.5398C196.328 44.5398 196.092 44.6516 195.903 44.8754C195.719 45.0941 195.627 45.3601 195.627 45.6733ZM209.906 58.7386C208.872 58.7386 207.965 58.4925 207.184 58.0004C206.409 57.5082 205.802 56.8196 205.365 55.9347C204.932 55.0497 204.716 54.0156 204.716 52.8324C204.716 51.6392 204.932 50.5977 205.365 49.7077C205.802 48.8178 206.409 48.1268 207.184 47.6346C207.965 47.1424 208.872 46.8963 209.906 46.8963C210.94 46.8963 211.845 47.1424 212.621 47.6346C213.401 48.1268 214.008 48.8178 214.44 49.7077C214.878 50.5977 215.097 51.6392 215.097 52.8324C215.097 54.0156 214.878 55.0497 214.44 55.9347C214.008 56.8196 213.401 57.5082 212.621 58.0004C211.845 58.4925 210.94 58.7386 209.906 58.7386ZM209.906 57.1577C210.692 57.1577 211.338 56.9563 211.845 56.5536C212.352 56.1509 212.728 55.6214 212.971 54.9652C213.215 54.3089 213.337 53.598 213.337 52.8324C213.337 52.0668 213.215 51.3533 212.971 50.6921C212.728 50.0309 212.352 49.4964 211.845 49.0888C211.338 48.6811 210.692 48.4773 209.906 48.4773C209.121 48.4773 208.474 48.6811 207.967 49.0888C207.46 49.4964 207.085 50.0309 206.841 50.6921C206.598 51.3533 206.476 52.0668 206.476 52.8324C206.476 53.598 206.598 54.3089 206.841 54.9652C207.085 55.6214 207.46 56.1509 207.967 56.5536C208.474 56.9563 209.121 57.1577 209.906 57.1577ZM229.089 42.5114L224.167 60.7969H222.556L227.478 42.5114H229.089ZM237.32 58.5V43.2273H242.48C243.678 43.2273 244.658 43.4435 245.418 43.8761C246.184 44.3036 246.751 44.8828 247.119 45.6136C247.487 46.3445 247.67 47.1598 247.67 48.0597C247.67 48.9595 247.487 49.7773 247.119 50.5131C246.756 51.2489 246.194 51.8356 245.433 52.2731C244.673 52.7056 243.698 52.9219 242.51 52.9219H238.811V51.2812H242.45C243.271 51.2812 243.929 51.1396 244.427 50.8562C244.924 50.5728 245.284 50.19 245.508 49.7077C245.737 49.2205 245.851 48.6712 245.851 48.0597C245.851 47.4482 245.737 46.9013 245.508 46.419C245.284 45.9368 244.921 45.5589 244.419 45.2855C243.917 45.0071 243.251 44.8679 242.42 44.8679H239.169V58.5H237.32ZM250.411 58.5V47.0455H252.111V48.7756H252.231C252.439 48.2088 252.817 47.7489 253.364 47.396C253.911 47.043 254.528 46.8665 255.214 46.8665C255.343 46.8665 255.504 46.869 255.698 46.8739C255.892 46.8789 256.039 46.8864 256.138 46.8963V48.6861C256.079 48.6712 255.942 48.6488 255.728 48.619C255.519 48.5842 255.298 48.5668 255.064 48.5668C254.508 48.5668 254.011 48.6836 253.573 48.9173C253.14 49.146 252.797 49.4641 252.544 49.8718C252.295 50.2745 252.171 50.7344 252.171 51.2514V58.5H250.411ZM262.529 58.7386C261.495 58.7386 260.588 58.4925 259.807 58.0004C259.032 57.5082 258.425 56.8196 257.988 55.9347C257.555 55.0497 257.339 54.0156 257.339 52.8324C257.339 51.6392 257.555 50.5977 257.988 49.7077C258.425 48.8178 259.032 48.1268 259.807 47.6346C260.588 47.1424 261.495 46.8963 262.529 46.8963C263.563 46.8963 264.468 47.1424 265.244 47.6346C266.024 48.1268 266.631 48.8178 267.063 49.7077C267.501 50.5977 267.72 51.6392 267.72 52.8324C267.72 54.0156 267.501 55.0497 267.063 55.9347C266.631 56.8196 266.024 57.5082 265.244 58.0004C264.468 58.4925 263.563 58.7386 262.529 58.7386ZM262.529 57.1577C263.315 57.1577 263.961 56.9563 264.468 56.5536C264.975 56.1509 265.351 55.6214 265.594 54.9652C265.838 54.3089 265.96 53.598 265.96 52.8324C265.96 52.0668 265.838 51.3533 265.594 50.6921C265.351 50.0309 264.975 49.4964 264.468 49.0888C263.961 48.6811 263.315 48.4773 262.529 48.4773C261.744 48.4773 261.098 48.6811 260.59 49.0888C260.083 49.4964 259.708 50.0309 259.464 50.6921C259.221 51.3533 259.099 52.0668 259.099 52.8324C259.099 53.598 259.221 54.3089 259.464 54.9652C259.708 55.6214 260.083 56.1509 260.59 56.5536C261.098 56.9563 261.744 57.1577 262.529 57.1577ZM274.731 58.7386C273.777 58.7386 272.934 58.4975 272.203 58.0153C271.473 57.5281 270.901 56.842 270.488 55.957C270.076 55.0671 269.869 54.0156 269.869 52.8026C269.869 51.5994 270.076 50.5554 270.488 49.6705C270.901 48.7855 271.475 48.1019 272.211 47.6197C272.947 47.1374 273.797 46.8963 274.761 46.8963C275.507 46.8963 276.096 47.0206 276.529 47.2692C276.966 47.5128 277.299 47.7912 277.528 48.1044C277.762 48.4126 277.943 48.6662 278.072 48.8651H278.222V43.2273H279.981V58.5H278.281V56.7401H278.072C277.943 56.9489 277.759 57.2124 277.521 57.5305C277.282 57.8437 276.941 58.1246 276.499 58.3732C276.056 58.6168 275.467 58.7386 274.731 58.7386ZM274.97 57.1577C275.676 57.1577 276.273 56.9737 276.76 56.6058C277.247 56.233 277.617 55.7184 277.871 55.0621C278.125 54.4009 278.251 53.6378 278.251 52.7727C278.251 51.9176 278.127 51.1694 277.879 50.5281C277.63 49.8817 277.262 49.3796 276.775 49.0217C276.288 48.6587 275.686 48.4773 274.97 48.4773C274.224 48.4773 273.603 48.6687 273.106 49.0515C272.614 49.4293 272.243 49.9439 271.995 50.5952C271.751 51.2415 271.629 51.9673 271.629 52.7727C271.629 53.5881 271.754 54.3288 272.002 54.995C272.256 55.6562 272.629 56.1832 273.121 56.576C273.618 56.9638 274.234 57.1577 274.97 57.1577ZM290.668 53.8168V47.0455H292.428V58.5H290.668V56.5611H290.549C290.28 57.1428 289.863 57.6374 289.296 58.0451C288.729 58.4478 288.013 58.6491 287.148 58.6491C286.432 58.6491 285.796 58.4925 285.239 58.1793C284.682 57.8612 284.245 57.3839 283.926 56.7475C283.608 56.1062 283.449 55.2983 283.449 54.3239V47.0455H285.209V54.2045C285.209 55.0398 285.443 55.706 285.91 56.2031C286.382 56.7003 286.984 56.9489 287.715 56.9489C288.152 56.9489 288.597 56.837 289.05 56.6133C289.507 56.3896 289.89 56.0465 290.198 55.5842C290.511 55.1218 290.668 54.5327 290.668 53.8168ZM300.633 47.0455V48.5369H294.697V47.0455H300.633ZM296.427 44.3011H298.187V55.2188C298.187 55.7159 298.259 56.0888 298.403 56.3374C298.552 56.581 298.741 56.745 298.97 56.8295C299.204 56.9091 299.45 56.9489 299.708 56.9489C299.902 56.9489 300.061 56.9389 300.185 56.919C300.31 56.8942 300.409 56.8743 300.484 56.8594L300.842 58.4403C300.722 58.4851 300.556 58.5298 300.342 58.5746C300.128 58.6243 299.857 58.6491 299.529 58.6491C299.032 58.6491 298.545 58.5423 298.068 58.3285C297.595 58.1147 297.202 57.7891 296.889 57.3516C296.581 56.9141 296.427 56.3622 296.427 55.696V44.3011ZM307.811 58.7386C306.777 58.7386 305.869 58.4925 305.089 58.0004C304.313 57.5082 303.707 56.8196 303.269 55.9347C302.837 55.0497 302.62 54.0156 302.62 52.8324C302.62 51.6392 302.837 50.5977 303.269 49.7077C303.707 48.8178 304.313 48.1268 305.089 47.6346C305.869 47.1424 306.777 46.8963 307.811 46.8963C308.845 46.8963 309.75 47.1424 310.525 47.6346C311.306 48.1268 311.912 48.8178 312.345 49.7077C312.782 50.5977 313.001 51.6392 313.001 52.8324C313.001 54.0156 312.782 55.0497 312.345 55.9347C311.912 56.8196 311.306 57.5082 310.525 58.0004C309.75 58.4925 308.845 58.7386 307.811 58.7386ZM307.811 57.1577C308.596 57.1577 309.242 56.9563 309.75 56.5536C310.257 56.1509 310.632 55.6214 310.876 54.9652C311.119 54.3089 311.241 53.598 311.241 52.8324C311.241 52.0668 311.119 51.3533 310.876 50.6921C310.632 50.0309 310.257 49.4964 309.75 49.0888C309.242 48.6811 308.596 48.4773 307.811 48.4773C307.025 48.4773 306.379 48.6811 305.872 49.0888C305.365 49.4964 304.989 50.0309 304.746 50.6921C304.502 51.3533 304.38 52.0668 304.38 52.8324C304.38 53.598 304.502 54.3089 304.746 54.9652C304.989 55.6214 305.365 56.1509 305.872 56.5536C306.379 56.9563 307.025 57.1577 307.811 57.1577ZM326.545 58.5H321.832V43.2273H326.754C328.236 43.2273 329.504 43.533 330.557 44.1445C331.611 44.7511 332.419 45.6236 332.981 46.7621C333.543 47.8956 333.824 49.2528 333.824 50.8338C333.824 52.4247 333.54 53.7944 332.974 54.9428C332.407 56.0863 331.582 56.9663 330.498 57.5827C329.414 58.1942 328.097 58.5 326.545 58.5ZM323.682 56.8594H326.426C327.689 56.8594 328.735 56.6158 329.566 56.1286C330.396 55.6413 331.015 54.9478 331.423 54.0479C331.83 53.1481 332.034 52.0767 332.034 50.8338C332.034 49.6009 331.833 48.5394 331.43 47.6495C331.027 46.7546 330.426 46.0685 329.625 45.5913C328.825 45.109 327.828 44.8679 326.635 44.8679H323.682V56.8594ZM336.687 58.5V47.0455H338.447V58.5H336.687ZM337.582 45.1364C337.239 45.1364 336.943 45.0195 336.695 44.7859C336.451 44.5522 336.33 44.2713 336.33 43.9432C336.33 43.6151 336.451 43.3342 336.695 43.1005C336.943 42.8668 337.239 42.75 337.582 42.75C337.925 42.75 338.219 42.8668 338.462 43.1005C338.711 43.3342 338.835 43.6151 338.835 43.9432C338.835 44.2713 338.711 44.5522 338.462 44.7859C338.219 45.0195 337.925 45.1364 337.582 45.1364ZM346.294 63.0341C345.444 63.0341 344.713 62.9247 344.102 62.706C343.49 62.4922 342.981 62.2088 342.573 61.8558C342.17 61.5078 341.85 61.1349 341.611 60.7372L343.013 59.7528C343.172 59.9616 343.374 60.2003 343.617 60.4688C343.861 60.7422 344.194 60.9783 344.617 61.1772C345.044 61.381 345.603 61.483 346.294 61.483C347.219 61.483 347.982 61.2592 348.584 60.8118C349.185 60.3643 349.486 59.6634 349.486 58.7088V56.3821H349.337C349.208 56.5909 349.024 56.8494 348.785 57.1577C348.552 57.4609 348.213 57.7319 347.771 57.9705C347.333 58.2042 346.742 58.321 345.996 58.321C345.071 58.321 344.241 58.1023 343.505 57.6648C342.775 57.2273 342.195 56.5909 341.768 55.7557C341.345 54.9205 341.134 53.9062 341.134 52.7131C341.134 51.5398 341.34 50.5181 341.753 49.6481C342.166 48.7731 342.74 48.0969 343.476 47.6197C344.211 47.1374 345.061 46.8963 346.026 46.8963C346.772 46.8963 347.363 47.0206 347.801 47.2692C348.243 47.5128 348.581 47.7912 348.815 48.1044C349.054 48.4126 349.238 48.6662 349.367 48.8651H349.546V47.0455H351.246V58.8281C351.246 59.8125 351.022 60.6129 350.575 61.2294C350.133 61.8509 349.536 62.3058 348.785 62.5941C348.039 62.8874 347.209 63.0341 346.294 63.0341ZM346.235 56.7401C346.941 56.7401 347.537 56.5785 348.025 56.2553C348.512 55.9322 348.882 55.4673 349.136 54.8608C349.389 54.2543 349.516 53.5284 349.516 52.6832C349.516 51.858 349.392 51.1296 349.143 50.4982C348.895 49.8668 348.527 49.3722 348.039 49.0142C347.552 48.6562 346.951 48.4773 346.235 48.4773C345.489 48.4773 344.868 48.6662 344.37 49.044C343.878 49.4219 343.508 49.929 343.259 50.5653C343.016 51.2017 342.894 51.9077 342.894 52.6832C342.894 53.4787 343.018 54.1822 343.267 54.7937C343.52 55.4002 343.893 55.8775 344.385 56.2255C344.883 56.5685 345.499 56.7401 346.235 56.7401ZM354.468 58.5V47.0455H356.228V58.5H354.468ZM355.363 45.1364C355.02 45.1364 354.724 45.0195 354.475 44.7859C354.232 44.5522 354.11 44.2713 354.11 43.9432C354.11 43.6151 354.232 43.3342 354.475 43.1005C354.724 42.8668 355.02 42.75 355.363 42.75C355.706 42.75 355.999 42.8668 356.243 43.1005C356.491 43.3342 356.615 43.6151 356.615 43.9432C356.615 44.2713 356.491 44.5522 356.243 44.7859C355.999 45.0195 355.706 45.1364 355.363 45.1364ZM364.433 47.0455V48.5369H358.497V47.0455H364.433ZM360.227 44.3011H361.987V55.2188C361.987 55.7159 362.059 56.0888 362.203 56.3374C362.352 56.581 362.541 56.745 362.77 56.8295C363.003 56.9091 363.249 56.9489 363.508 56.9489C363.702 56.9489 363.861 56.9389 363.985 56.919C364.11 56.8942 364.209 56.8743 364.284 56.8594L364.641 58.4403C364.522 58.4851 364.356 58.5298 364.142 58.5746C363.928 58.6243 363.657 58.6491 363.329 58.6491C362.832 58.6491 362.345 58.5423 361.867 58.3285C361.395 58.1147 361.002 57.7891 360.689 57.3516C360.381 56.9141 360.227 56.3622 360.227 55.696V44.3011ZM370.451 58.7685C369.725 58.7685 369.066 58.6317 368.475 58.3583C367.883 58.0799 367.413 57.6797 367.065 57.1577C366.717 56.6307 366.543 55.9943 366.543 55.2486C366.543 54.5923 366.672 54.0604 366.931 53.6527C367.189 53.2401 367.535 52.9169 367.967 52.6832C368.4 52.4496 368.877 52.2756 369.399 52.1612C369.926 52.0419 370.456 51.9474 370.988 51.8778C371.684 51.7884 372.248 51.7212 372.681 51.6765C373.118 51.6268 373.436 51.5447 373.635 51.4304C373.839 51.3161 373.941 51.1172 373.941 50.8338V50.7741C373.941 50.0384 373.739 49.4666 373.337 49.0589C372.939 48.6513 372.335 48.4474 371.525 48.4474C370.684 48.4474 370.026 48.6314 369.548 48.9993C369.071 49.3672 368.736 49.7599 368.542 50.1776L366.871 49.581C367.17 48.8849 367.567 48.343 368.064 47.9553C368.567 47.5625 369.113 47.2891 369.705 47.1349C370.302 46.9759 370.888 46.8963 371.465 46.8963C371.833 46.8963 372.255 46.9411 372.733 47.0305C373.215 47.1151 373.68 47.2915 374.127 47.56C374.58 47.8285 374.955 48.2337 375.253 48.7756C375.552 49.3175 375.701 50.0433 375.701 50.9531V58.5H373.941V56.9489H373.851C373.732 57.1974 373.533 57.4634 373.255 57.7468C372.976 58.0302 372.606 58.2713 372.144 58.4702C371.681 58.669 371.117 58.7685 370.451 58.7685ZM370.719 57.1875C371.415 57.1875 372.002 57.0508 372.479 56.7773C372.961 56.5039 373.324 56.1509 373.568 55.7184C373.817 55.2859 373.941 54.831 373.941 54.3537V52.7429C373.866 52.8324 373.702 52.9144 373.449 52.989C373.2 53.0586 372.912 53.1207 372.584 53.1754C372.26 53.2251 371.945 53.2699 371.636 53.3097C371.333 53.3445 371.087 53.3743 370.898 53.3991C370.441 53.4588 370.013 53.5558 369.616 53.69C369.223 53.8192 368.905 54.0156 368.661 54.2791C368.422 54.5376 368.303 54.8906 368.303 55.3381C368.303 55.9496 368.529 56.4119 368.982 56.7251C369.439 57.0334 370.018 57.1875 370.719 57.1875ZM380.673 43.2273V58.5H378.913V43.2273H380.673Z" fill="#788896"/>
<path d="M612.763 46.5H538.509V57.5H612.763V46.5Z" fill="#CED8E0"/>
<path d="M715.114 46.5H640.86V57.5H715.114V46.5Z" fill="#CED8E0"/>
<path d="M817.466 46.5H743.211V57.5H817.466V46.5Z" fill="#CED8E0"/>
<path d="M919.817 46.5H845.562V57.5H919.817V46.5Z" fill="#CED8E0"/>
<path d="M1110.95 24H963.442V80.5H1110.95V24Z" stroke="#C3CFD9" stroke-width="2"/>
<path d="M984.33 45.8409H985.907L989.614 54.8963H989.742L993.45 45.8409H995.026V56.75H993.791V48.4616H993.684L990.275 56.75H989.082L985.673 48.4616H985.566V56.75H984.33V45.8409ZM999.912 56.9418C999.394 56.9418 998.923 56.8441 998.501 56.6488C998.078 56.4499 997.742 56.1641 997.494 55.7912C997.245 55.4148 997.121 54.9602 997.121 54.4276C997.121 53.9588 997.213 53.5788 997.398 53.2876C997.583 52.9929 997.83 52.7621 998.138 52.5952C998.447 52.4283 998.788 52.304 999.161 52.2223C999.538 52.1371 999.916 52.0696 1000.3 52.0199C1000.79 51.956 1001.2 51.908 1001.5 51.8761C1001.82 51.8406 1002.04 51.782 1002.19 51.7003C1002.33 51.6186 1002.41 51.4766 1002.41 51.2741V51.2315C1002.41 50.706 1002.26 50.2976 1001.97 50.0064C1001.69 49.7152 1001.26 49.5696 1000.68 49.5696C1000.08 49.5696 999.609 49.701 999.268 49.9638C998.927 50.2266 998.687 50.5071 998.549 50.8054L997.355 50.3793C997.568 49.8821 997.853 49.495 998.208 49.218C998.566 48.9375 998.957 48.7422 999.38 48.6321C999.806 48.5185 1000.22 48.4616 1000.64 48.4616C1000.9 48.4616 1001.2 48.4936 1001.54 48.5575C1001.89 48.6179 1002.22 48.744 1002.54 48.9357C1002.86 49.1275 1003.13 49.4169 1003.34 49.804C1003.56 50.1911 1003.66 50.7095 1003.66 51.3594V56.75H1002.41V55.642H1002.34C1002.26 55.8196 1002.11 56.0096 1001.92 56.212C1001.72 56.4144 1001.45 56.5866 1001.12 56.7287C1000.79 56.8707 1000.39 56.9418 999.912 56.9418ZM1000.1 55.8125C1000.6 55.8125 1001.02 55.7148 1001.36 55.5195C1001.71 55.3242 1001.96 55.0721 1002.14 54.7631C1002.32 54.4542 1002.41 54.1293 1002.41 53.7884V52.6378C1002.35 52.7017 1002.23 52.7603 1002.05 52.8136C1001.88 52.8633 1001.67 52.9077 1001.44 52.9467C1001.2 52.9822 1000.98 53.0142 1000.76 53.0426C1000.54 53.0675 1000.37 53.0888 1000.23 53.1065C999.905 53.1491 999.6 53.2184 999.316 53.3143C999.035 53.4066 998.808 53.5469 998.634 53.7351C998.463 53.9197 998.378 54.1719 998.378 54.4915C998.378 54.9283 998.54 55.2585 998.863 55.4822C999.19 55.7024 999.603 55.8125 1000.1 55.8125ZM1005.96 56.75V48.5682H1007.17V49.804H1007.26C1007.41 49.3991 1007.68 49.0707 1008.07 48.8185C1008.46 48.5664 1008.9 48.4403 1009.39 48.4403C1009.48 48.4403 1009.59 48.4421 1009.73 48.4457C1009.87 48.4492 1009.98 48.4545 1010.05 48.4616V49.7401C1010.01 49.7294 1009.91 49.7134 1009.75 49.6921C1009.61 49.6673 1009.45 49.6548 1009.28 49.6548C1008.88 49.6548 1008.53 49.7383 1008.22 49.9052C1007.91 50.0685 1007.66 50.2958 1007.48 50.587C1007.3 50.8746 1007.21 51.2031 1007.21 51.5724V56.75H1005.96ZM1014.61 56.9205C1013.85 56.9205 1013.19 56.7393 1012.63 56.3771C1012.08 56.0149 1011.65 55.516 1011.35 54.8803C1011.05 54.2447 1010.91 53.5185 1010.91 52.7017C1010.91 51.8707 1011.06 51.1374 1011.36 50.5018C1011.67 49.8626 1012.1 49.3636 1012.65 49.005C1013.21 48.6428 1013.85 48.4616 1014.59 48.4616C1015.17 48.4616 1015.69 48.5682 1016.15 48.7812C1016.61 48.9943 1016.99 49.2926 1017.28 49.6761C1017.58 50.0597 1017.76 50.5071 1017.83 51.0185H1016.57C1016.48 50.6456 1016.26 50.3153 1015.93 50.0277C1015.61 49.7365 1015.17 49.5909 1014.61 49.5909C1014.12 49.5909 1013.69 49.7187 1013.32 49.9744C1012.96 50.2266 1012.67 50.5835 1012.47 51.0451C1012.26 51.5032 1012.16 52.0412 1012.16 52.6591C1012.16 53.2912 1012.26 53.8416 1012.46 54.3104C1012.66 54.7791 1012.95 55.1431 1013.31 55.4023C1013.68 55.6616 1014.12 55.7912 1014.61 55.7912C1014.94 55.7912 1015.24 55.7344 1015.5 55.6207C1015.77 55.5071 1015.99 55.3438 1016.18 55.1307C1016.36 54.9176 1016.49 54.6619 1016.57 54.3636H1017.83C1017.76 54.8466 1017.58 55.2816 1017.3 55.6687C1017.03 56.0522 1016.66 56.3576 1016.2 56.5849C1015.75 56.8086 1015.22 56.9205 1014.61 56.9205ZM1022.08 56.9418C1021.56 56.9418 1021.09 56.8441 1020.66 56.6488C1020.24 56.4499 1019.91 56.1641 1019.66 55.7912C1019.41 55.4148 1019.28 54.9602 1019.28 54.4276C1019.28 53.9588 1019.38 53.5788 1019.56 53.2876C1019.75 52.9929 1019.99 52.7621 1020.3 52.5952C1020.61 52.4283 1020.95 52.304 1021.32 52.2223C1021.7 52.1371 1022.08 52.0696 1022.46 52.0199C1022.96 51.956 1023.36 51.908 1023.67 51.8761C1023.98 51.8406 1024.21 51.782 1024.35 51.7003C1024.5 51.6186 1024.57 51.4766 1024.57 51.2741V51.2315C1024.57 50.706 1024.42 50.2976 1024.14 50.0064C1023.85 49.7152 1023.42 49.5696 1022.84 49.5696C1022.24 49.5696 1021.77 49.701 1021.43 49.9638C1021.09 50.2266 1020.85 50.5071 1020.71 50.8054L1019.52 50.3793C1019.73 49.8821 1020.02 49.495 1020.37 49.218C1020.73 48.9375 1021.12 48.7422 1021.54 48.6321C1021.97 48.5185 1022.39 48.4616 1022.8 48.4616C1023.06 48.4616 1023.36 48.4936 1023.71 48.5575C1024.05 48.6179 1024.38 48.744 1024.7 48.9357C1025.02 49.1275 1025.29 49.4169 1025.51 49.804C1025.72 50.1911 1025.83 50.7095 1025.83 51.3594V56.75H1024.57V55.642H1024.5C1024.42 55.8196 1024.28 56.0096 1024.08 56.212C1023.88 56.4144 1023.61 56.5866 1023.28 56.7287C1022.95 56.8707 1022.55 56.9418 1022.08 56.9418ZM1022.27 55.8125C1022.76 55.8125 1023.18 55.7148 1023.52 55.5195C1023.87 55.3242 1024.13 55.0721 1024.3 54.7631C1024.48 54.4542 1024.57 54.1293 1024.57 53.7884V52.6378C1024.51 52.7017 1024.4 52.7603 1024.22 52.8136C1024.04 52.8633 1023.83 52.9077 1023.6 52.9467C1023.37 52.9822 1023.14 53.0142 1022.92 53.0426C1022.71 53.0675 1022.53 53.0888 1022.39 53.1065C1022.07 53.1491 1021.76 53.2184 1021.48 53.3143C1021.2 53.4066 1020.97 53.5469 1020.8 53.7351C1020.63 53.9197 1020.54 54.1719 1020.54 54.4915C1020.54 54.9283 1020.7 55.2585 1021.03 55.4822C1021.35 55.7024 1021.77 55.8125 1022.27 55.8125ZM1032.51 56.75V45.8409H1036.2C1037.05 45.8409 1037.75 45.9954 1038.29 46.3043C1038.84 46.6097 1039.25 47.0234 1039.51 47.5455C1039.77 48.0675 1039.9 48.6499 1039.9 49.2926C1039.9 49.9354 1039.77 50.5195 1039.51 51.0451C1039.25 51.5707 1038.85 51.9897 1038.3 52.3022C1037.76 52.6112 1037.07 52.7656 1036.22 52.7656H1033.57V51.5938H1036.17C1036.76 51.5938 1037.23 51.4925 1037.59 51.2901C1037.94 51.0877 1038.2 50.8143 1038.36 50.4698C1038.52 50.1218 1038.6 49.7294 1038.6 49.2926C1038.6 48.8558 1038.52 48.4652 1038.36 48.1207C1038.2 47.7763 1037.94 47.5064 1037.58 47.3111C1037.22 47.1122 1036.75 47.0128 1036.15 47.0128H1033.83V56.75H1032.51ZM1045.2 56.9205C1044.41 56.9205 1043.73 56.7464 1043.16 56.3984C1042.59 56.0469 1042.16 55.5568 1041.85 54.9283C1041.54 54.2962 1041.39 53.5611 1041.39 52.723C1041.39 51.8849 1041.54 51.1463 1041.85 50.5071C1042.16 49.8643 1042.59 49.3636 1043.14 49.005C1043.69 48.6428 1044.34 48.4616 1045.07 48.4616C1045.5 48.4616 1045.92 48.5327 1046.34 48.6747C1046.75 48.8168 1047.13 49.0476 1047.47 49.3672C1047.81 49.6832 1048.08 50.1023 1048.29 50.6243C1048.49 51.1463 1048.59 51.7891 1048.59 52.5526V53.0852H1042.28V51.9986H1047.31C1047.31 51.5369 1047.22 51.125 1047.03 50.7628C1046.85 50.4006 1046.59 50.1147 1046.26 49.9052C1045.92 49.6957 1045.53 49.5909 1045.07 49.5909C1044.57 49.5909 1044.14 49.7152 1043.77 49.9638C1043.41 50.2088 1043.13 50.5284 1042.94 50.9226C1042.74 51.3168 1042.65 51.7393 1042.65 52.1903V52.9148C1042.65 53.5327 1042.75 54.0565 1042.97 54.4862C1043.18 54.9123 1043.48 55.2372 1043.87 55.4609C1044.25 55.6811 1044.69 55.7912 1045.2 55.7912C1045.53 55.7912 1045.83 55.745 1046.1 55.6527C1046.37 55.5568 1046.6 55.4148 1046.8 55.2266C1046.99 55.0348 1047.14 54.7969 1047.25 54.5128L1048.46 54.8537C1048.33 55.2656 1048.12 55.6278 1047.82 55.9403C1047.52 56.2493 1047.14 56.4908 1046.7 56.6648C1046.26 56.8352 1045.76 56.9205 1045.2 56.9205ZM1054.06 48.5682V49.6335H1049.82V48.5682H1054.06ZM1051.06 46.608H1052.31V54.4062C1052.31 54.7614 1052.37 55.0277 1052.47 55.2053C1052.57 55.3793 1052.71 55.4964 1052.87 55.5568C1053.04 55.6136 1053.22 55.642 1053.4 55.642C1053.54 55.642 1053.65 55.6349 1053.74 55.6207C1053.83 55.603 1053.9 55.5888 1053.95 55.5781L1054.21 56.7074C1054.12 56.7393 1054.01 56.7713 1053.85 56.8033C1053.7 56.8388 1053.51 56.8565 1053.27 56.8565C1052.92 56.8565 1052.57 56.7802 1052.23 56.6275C1051.89 56.4748 1051.61 56.2422 1051.39 55.9297C1051.17 55.6172 1051.06 55.223 1051.06 54.7472V46.608ZM1055.95 56.75V48.5682H1057.17V49.804H1057.25C1057.4 49.3991 1057.67 49.0707 1058.06 48.8185C1058.45 48.5664 1058.89 48.4403 1059.38 48.4403C1059.47 48.4403 1059.59 48.4421 1059.73 48.4457C1059.87 48.4492 1059.97 48.4545 1060.04 48.4616V49.7401C1060 49.7294 1059.9 49.7134 1059.75 49.6921C1059.6 49.6673 1059.44 49.6548 1059.28 49.6548C1058.88 49.6548 1058.52 49.7383 1058.21 49.9052C1057.9 50.0685 1057.66 50.2958 1057.48 50.587C1057.3 50.8746 1057.21 51.2031 1057.21 51.5724V56.75H1055.95ZM1064.61 56.9205C1063.87 56.9205 1063.22 56.7447 1062.66 56.3931C1062.11 56.0415 1061.68 55.5497 1061.36 54.9176C1061.05 54.2855 1060.9 53.5469 1060.9 52.7017C1060.9 51.8494 1061.05 51.1055 1061.36 50.4698C1061.68 49.8342 1062.11 49.3406 1062.66 48.989C1063.22 48.6374 1063.87 48.4616 1064.61 48.4616C1065.35 48.4616 1065.99 48.6374 1066.55 48.989C1067.1 49.3406 1067.54 49.8342 1067.85 50.4698C1068.16 51.1055 1068.32 51.8494 1068.32 52.7017C1068.32 53.5469 1068.16 54.2855 1067.85 54.9176C1067.54 55.5497 1067.1 56.0415 1066.55 56.3931C1065.99 56.7447 1065.35 56.9205 1064.61 56.9205ZM1064.61 55.7912C1065.17 55.7912 1065.63 55.6474 1065.99 55.3597C1066.35 55.0721 1066.62 54.6939 1066.8 54.2251C1066.97 53.7564 1067.06 53.2486 1067.06 52.7017C1067.06 52.1548 1066.97 51.6452 1066.8 51.1729C1066.62 50.7006 1066.35 50.3189 1065.99 50.0277C1065.63 49.7365 1065.17 49.5909 1064.61 49.5909C1064.05 49.5909 1063.59 49.7365 1063.22 50.0277C1062.86 50.3189 1062.59 50.7006 1062.42 51.1729C1062.24 51.6452 1062.16 52.1548 1062.16 52.7017C1062.16 53.2486 1062.24 53.7564 1062.42 54.2251C1062.59 54.6939 1062.86 55.0721 1063.22 55.3597C1063.59 55.6474 1064.05 55.7912 1064.61 55.7912ZM1070.4 56.75V45.8409H1071.66V49.8679H1071.77C1071.86 49.7259 1071.99 49.5447 1072.15 49.3246C1072.32 49.1009 1072.56 48.902 1072.87 48.728C1073.18 48.5504 1073.6 48.4616 1074.13 48.4616C1074.82 48.4616 1075.43 48.6339 1075.95 48.9783C1076.48 49.3228 1076.89 49.8111 1077.19 50.4432C1077.48 51.0753 1077.63 51.821 1077.63 52.6804C1077.63 53.5469 1077.48 54.2979 1077.19 54.9336C1076.89 55.5657 1076.48 56.0558 1075.96 56.4038C1075.44 56.7482 1074.84 56.9205 1074.15 56.9205C1073.63 56.9205 1073.21 56.8335 1072.89 56.6594C1072.58 56.4819 1072.33 56.2812 1072.16 56.0575C1071.99 55.8303 1071.86 55.642 1071.77 55.4929H1071.62V56.75H1070.4ZM1071.64 52.6591C1071.64 53.277 1071.73 53.8221 1071.91 54.2944C1072.09 54.7631 1072.36 55.1307 1072.71 55.397C1073.05 55.6598 1073.48 55.7912 1073.98 55.7912C1074.51 55.7912 1074.95 55.6527 1075.3 55.3757C1075.65 55.0952 1075.92 54.7187 1076.1 54.2464C1076.28 53.7706 1076.37 53.2415 1076.37 52.6591C1076.37 52.0838 1076.28 51.5653 1076.1 51.1037C1075.93 50.6385 1075.67 50.271 1075.31 50.0011C1074.96 49.7276 1074.52 49.5909 1073.98 49.5909C1073.47 49.5909 1073.04 49.7205 1072.7 49.9798C1072.35 50.2354 1072.08 50.5941 1071.91 51.0558C1071.73 51.5138 1071.64 52.0483 1071.64 52.6591ZM1079.55 56.75V48.5682H1080.76V49.804H1080.85C1081 49.3991 1081.27 49.0707 1081.66 48.8185C1082.05 48.5664 1082.49 48.4403 1082.98 48.4403C1083.07 48.4403 1083.19 48.4421 1083.33 48.4457C1083.47 48.4492 1083.57 48.4545 1083.64 48.4616V49.7401C1083.6 49.7294 1083.5 49.7134 1083.35 49.6921C1083.2 49.6673 1083.04 49.6548 1082.87 49.6548C1082.48 49.6548 1082.12 49.7383 1081.81 49.9052C1081.5 50.0685 1081.26 50.2958 1081.07 50.587C1080.9 50.8746 1080.81 51.2031 1080.81 51.5724V56.75H1079.55ZM1087.54 56.9418C1087.02 56.9418 1086.55 56.8441 1086.13 56.6488C1085.71 56.4499 1085.37 56.1641 1085.12 55.7912C1084.87 55.4148 1084.75 54.9602 1084.75 54.4276C1084.75 53.9588 1084.84 53.5788 1085.02 53.2876C1085.21 52.9929 1085.46 52.7621 1085.77 52.5952C1086.07 52.4283 1086.42 52.304 1086.79 52.2223C1087.16 52.1371 1087.54 52.0696 1087.92 52.0199C1088.42 51.956 1088.82 51.908 1089.13 51.8761C1089.44 51.8406 1089.67 51.782 1089.81 51.7003C1089.96 51.6186 1090.03 51.4766 1090.03 51.2741V51.2315C1090.03 50.706 1089.89 50.2976 1089.6 50.0064C1089.32 49.7152 1088.89 49.5696 1088.31 49.5696C1087.71 49.5696 1087.24 49.701 1086.89 49.9638C1086.55 50.2266 1086.31 50.5071 1086.18 50.8054L1084.98 50.3793C1085.2 49.8821 1085.48 49.495 1085.83 49.218C1086.19 48.9375 1086.58 48.7422 1087.01 48.6321C1087.43 48.5185 1087.85 48.4616 1088.26 48.4616C1088.53 48.4616 1088.83 48.4936 1089.17 48.5575C1089.51 48.6179 1089.85 48.744 1090.17 48.9357C1090.49 49.1275 1090.76 49.4169 1090.97 49.804C1091.18 50.1911 1091.29 50.7095 1091.29 51.3594V56.75H1090.03V55.642H1089.97C1089.88 55.8196 1089.74 56.0096 1089.54 56.212C1089.34 56.4144 1089.08 56.5866 1088.75 56.7287C1088.42 56.8707 1088.02 56.9418 1087.54 56.9418ZM1087.73 55.8125C1088.23 55.8125 1088.65 55.7148 1088.99 55.5195C1089.33 55.3242 1089.59 55.0721 1089.77 54.7631C1089.94 54.4542 1090.03 54.1293 1090.03 53.7884V52.6378C1089.98 52.7017 1089.86 52.7603 1089.68 52.8136C1089.5 52.8633 1089.3 52.9077 1089.06 52.9467C1088.83 52.9822 1088.61 53.0142 1088.39 53.0426C1088.17 53.0675 1087.99 53.0888 1087.86 53.1065C1087.53 53.1491 1087.23 53.2184 1086.94 53.3143C1086.66 53.4066 1086.43 53.5469 1086.26 53.7351C1086.09 53.9197 1086.01 54.1719 1086.01 54.4915C1086.01 54.9283 1086.17 55.2585 1086.49 55.4822C1086.82 55.7024 1087.23 55.8125 1087.73 55.8125ZM1099.38 50.4006L1098.25 50.7202C1098.18 50.532 1098.07 50.3491 1097.94 50.1715C1097.8 49.9904 1097.62 49.8413 1097.38 49.7241C1097.15 49.6069 1096.85 49.5483 1096.48 49.5483C1095.98 49.5483 1095.56 49.6637 1095.23 49.8945C1094.9 50.1218 1094.73 50.4112 1094.73 50.7628C1094.73 51.0753 1094.85 51.3221 1095.08 51.5032C1095.3 51.6843 1095.66 51.8352 1096.14 51.956L1097.35 52.2543C1098.09 52.4318 1098.63 52.7035 1098.99 53.0692C1099.35 53.4315 1099.53 53.8984 1099.53 54.4702C1099.53 54.9389 1099.39 55.358 1099.12 55.7273C1098.86 56.0966 1098.48 56.3878 1098 56.6009C1097.53 56.8139 1096.97 56.9205 1096.33 56.9205C1095.5 56.9205 1094.81 56.7393 1094.26 56.3771C1093.71 56.0149 1093.37 55.4858 1093.22 54.7898L1094.41 54.4915C1094.53 54.9318 1094.74 55.2621 1095.06 55.4822C1095.38 55.7024 1095.8 55.8125 1096.31 55.8125C1096.9 55.8125 1097.36 55.6882 1097.71 55.4396C1098.05 55.1875 1098.23 54.8857 1098.23 54.5341C1098.23 54.25 1098.13 54.0121 1097.93 53.8203C1097.73 53.625 1097.43 53.4794 1097.01 53.3835L1095.65 53.0639C1094.9 52.8864 1094.35 52.6112 1094 52.2383C1093.65 51.8619 1093.48 51.3913 1093.48 50.8267C1093.48 50.3651 1093.61 49.9567 1093.87 49.6016C1094.13 49.2464 1094.49 48.9677 1094.94 48.7653C1095.39 48.5629 1095.91 48.4616 1096.48 48.4616C1097.29 48.4616 1097.93 48.6392 1098.39 48.9943C1098.85 49.3494 1099.18 49.8182 1099.38 50.4006Z" fill="#788896"/>
</svg>
