<svg width="1162" height="246" viewBox="0 0 1162 246" fill="none" xmlns="http://www.w3.org/2000/svg">
<g clip-path="url(#clip0_1_361)">
<rect width="1162" height="246" fill="white"/>
<path d="M1162 0H0V88H1162V0Z" stroke="#C3CFD9" stroke-width="2"/>
<g clip-path="url(#clip1_1_361)">
<path d="M830.812 30.7291C830.812 30.2806 830.448 29.9166 830 29.9166C829.552 29.9166 829.188 30.2806 829.188 30.7291V33.1666H830.812V30.7291Z" fill="#444444"/>
<path d="M843.812 30.7291C843.812 30.2806 843.448 29.9166 843 29.9166C842.552 29.9166 842.188 30.2806 842.188 30.7291V33.1666H843.812V30.7291Z" fill="#444444"/>
<path d="M845.438 33.9791H827.562C825.768 33.9791 824.312 35.4343 824.312 37.2291V51.8541C824.312 53.6489 825.768 55.1041 827.562 55.1041H845.438C847.232 55.1041 848.688 53.6489 848.688 51.8541V37.2291C848.688 35.4343 847.232 33.9791 845.438 33.9791ZM847.062 51.8541C847.062 52.7519 846.335 53.4791 845.438 53.4791H827.562C826.665 53.4791 825.938 52.7519 825.938 51.8541V38.8541H847.062V51.8541Z" fill="#444444"/>
<path d="M834.875 51.0416C834.667 51.0416 834.459 50.962 834.301 50.8035L831.051 47.5535C830.733 47.2358 830.733 46.7223 831.051 46.4046C831.368 46.087 831.882 46.087 832.199 46.4046L834.875 49.0802L842.426 41.5296C842.743 41.212 843.257 41.212 843.574 41.5296C843.892 41.8473 843.892 42.3608 843.574 42.6785L835.449 50.8035C835.291 50.962 835.083 51.0416 834.875 51.0416Z" fill="#444444"/>
</g>
<g clip-path="url(#clip2_1_361)">
<path d="M884.182 45.3505C884.388 44.5787 884.496 43.7841 884.505 42.9853C884.496 42.1865 884.388 41.3919 884.182 40.6201L886.934 38.5944C887.162 38.4268 887.319 38.1814 887.377 37.905C887.434 37.6286 887.388 37.3406 887.246 37.0963L886.099 35.1096C885.958 34.8649 885.732 34.681 885.463 34.5929C885.195 34.5049 884.904 34.5189 884.645 34.6324L881.532 36.0089C880.378 34.8949 878.965 34.0846 877.421 33.6505L877.049 30.2415C877.018 29.9596 876.883 29.6993 876.672 29.5108C876.46 29.3223 876.186 29.2189 875.902 29.2206H873.608C873.324 29.2189 873.05 29.3223 872.838 29.5108C872.627 29.6993 872.492 29.9596 872.461 30.2415L872.089 33.6505C870.545 34.081 869.132 34.8873 867.976 35.9974L864.863 34.621C864.604 34.5075 864.313 34.4934 864.044 34.5814C863.776 34.6695 863.549 34.8535 863.408 35.0981L862.261 37.0848C862.12 37.3292 862.073 37.6171 862.131 37.8935C862.188 38.1699 862.346 38.4154 862.573 38.5829L865.326 40.6086C865.12 41.3843 865.012 42.1827 865.005 42.9853C865.014 43.7841 865.122 44.5787 865.328 45.3505L862.576 47.3762C862.348 47.5438 862.191 47.7892 862.133 48.0657C862.076 48.3421 862.122 48.63 862.264 48.8743L863.411 50.861C863.511 51.0354 863.656 51.1802 863.83 51.2809C864.005 51.3815 864.203 51.4345 864.404 51.4345C864.562 51.4337 864.718 51.4009 864.863 51.3382L867.976 49.9617C869.132 51.0719 870.545 51.8782 872.089 52.3086L872.461 55.7291C872.492 56.011 872.627 56.2713 872.838 56.4598C873.05 56.6484 873.324 56.7517 873.608 56.75H875.902C876.186 56.7517 876.46 56.6484 876.672 56.4598C876.883 56.2713 877.018 56.011 877.049 55.7291L877.428 52.3201C878.969 51.8886 880.38 51.0824 881.534 49.9732L884.647 51.3497C884.792 51.4124 884.948 51.4452 885.106 51.446C885.307 51.446 885.505 51.393 885.68 51.2923C885.854 51.1917 885.999 51.0469 886.099 50.8725L887.246 48.8858C887.388 48.6414 887.434 48.3535 887.377 48.0771C887.319 47.8007 887.162 47.5553 886.934 47.3877L884.182 45.3505ZM874.755 47.5735C873.848 47.5735 872.96 47.3044 872.206 46.8003C871.451 46.2961 870.863 45.5795 870.516 44.7412C870.169 43.9028 870.078 42.9802 870.255 42.0902C870.432 41.2002 870.869 40.3826 871.511 39.7409C872.152 39.0993 872.97 38.6623 873.86 38.4852C874.75 38.3082 875.672 38.3991 876.511 38.7463C877.349 39.0936 878.066 39.6817 878.57 40.4362C879.074 41.1908 879.343 42.0778 879.343 42.9853C879.343 44.2022 878.86 45.3692 877.999 46.2297C877.139 47.0901 875.972 47.5735 874.755 47.5735Z" fill="#444444"/>
</g>
<g clip-path="url(#clip3_1_361)">
<path d="M917.072 55.9166H908.947C908.499 55.9166 908.135 55.5526 908.135 55.1041V54.2916H917.885V55.1041C917.885 55.5526 917.521 55.9166 917.072 55.9166Z" fill="#444444"/>
<path d="M913.01 29.9166C907.633 29.9166 903.26 34.2903 903.26 39.6666C903.26 43.1718 905.116 46.36 908.135 48.1028V52.6666H917.885V48.1028C920.904 46.36 922.76 43.1726 922.76 39.6666C922.76 34.2903 918.386 29.9166 913.01 29.9166ZM913.822 35.6041H913.01C910.77 35.6041 908.947 37.4266 908.947 39.6666V40.4791H907.322V39.6666C907.322 36.5312 909.874 33.9791 913.01 33.9791H913.822V35.6041Z" fill="#444444"/>
</g>
<g clip-path="url(#clip4_1_361)">
<path d="M950.5 29.9166C943.332 29.9166 937.5 35.7488 937.5 42.9166C937.5 50.0845 943.332 55.9166 950.5 55.9166C957.668 55.9166 963.5 50.0845 963.5 42.9166C963.5 35.7488 957.668 29.9166 950.5 29.9166ZM945.625 41.2916C945.625 38.6031 947.811 36.4166 950.5 36.4166C953.189 36.4166 955.375 38.6031 955.375 41.2916V42.9166C955.375 45.6052 953.189 47.7916 950.5 47.7916C947.811 47.7916 945.625 45.6052 945.625 42.9166V41.2916ZM950.5 54.2916C948.133 54.2916 945.934 53.5636 944.111 52.3213C945.3 51.0384 946.992 50.2291 948.875 50.2291H952.125C954.008 50.2291 955.7 51.0384 956.889 52.3213C955.066 53.5636 952.867 54.2916 950.5 54.2916Z" fill="#444444"/>
</g>
<path d="M29.4602 36.9773V52.25H27.6705L19.348 40.2585H19.1989V52.25H17.3494V36.9773H19.1392L27.4915 48.9986H27.6406V36.9773H29.4602ZM37.5757 52.4886C36.5416 52.4886 35.6343 52.2425 34.8538 51.7504C34.0782 51.2582 33.4717 50.5696 33.0342 49.6847C32.6017 48.7997 32.3854 47.7656 32.3854 46.5824C32.3854 45.3892 32.6017 44.3477 33.0342 43.4577C33.4717 42.5678 34.0782 41.8768 34.8538 41.3846C35.6343 40.8924 36.5416 40.6463 37.5757 40.6463C38.6098 40.6463 39.5146 40.8924 40.2902 41.3846C41.0708 41.8768 41.6773 42.5678 42.1098 43.4577C42.5473 44.3477 42.7661 45.3892 42.7661 46.5824C42.7661 47.7656 42.5473 48.7997 42.1098 49.6847C41.6773 50.5696 41.0708 51.2582 40.2902 51.7504C39.5146 52.2425 38.6098 52.4886 37.5757 52.4886ZM37.5757 50.9077C38.3612 50.9077 39.0075 50.7063 39.5146 50.3036C40.0218 49.9009 40.3971 49.3714 40.6407 48.7152C40.8843 48.0589 41.0061 47.348 41.0061 46.5824C41.0061 45.8168 40.8843 45.1033 40.6407 44.4421C40.3971 43.7809 40.0218 43.2464 39.5146 42.8388C39.0075 42.4311 38.3612 42.2273 37.5757 42.2273C36.7902 42.2273 36.1439 42.4311 35.6368 42.8388C35.1297 43.2464 34.7544 43.7809 34.5107 44.4421C34.2671 45.1033 34.1453 45.8168 34.1453 46.5824C34.1453 47.348 34.2671 48.0589 34.5107 48.7152C34.7544 49.3714 35.1297 49.9009 35.6368 50.3036C36.1439 50.7063 36.7902 50.9077 37.5757 50.9077ZM45.4526 52.25V40.7955H47.1529V42.5852H47.302C47.5407 41.9737 47.926 41.4989 48.4579 41.1609C48.9899 40.8178 49.6287 40.6463 50.3745 40.6463C51.1301 40.6463 51.7591 40.8178 52.2612 41.1609C52.7683 41.4989 53.1635 41.9737 53.4469 42.5852H53.5662C53.8596 41.9936 54.2995 41.5238 54.8862 41.1758C55.4728 40.8228 56.1763 40.6463 56.9966 40.6463C58.0208 40.6463 58.8585 40.967 59.5098 41.6083C60.161 42.2447 60.4867 43.2365 60.4867 44.5838V52.25H58.7267V44.5838C58.7267 43.7386 58.4956 43.1346 58.0332 42.7717C57.5708 42.4087 57.0265 42.2273 56.4 42.2273C55.5946 42.2273 54.9707 42.4709 54.5282 42.9581C54.0858 43.4403 53.8645 44.0518 53.8645 44.7926V52.25H52.0748V44.4048C52.0748 43.7536 51.8635 43.229 51.4409 42.8313C51.0183 42.4286 50.4739 42.2273 49.8077 42.2273C49.3503 42.2273 48.9228 42.3491 48.525 42.5927C48.1323 42.8363 47.8141 43.1744 47.5705 43.6069C47.3319 44.0344 47.2125 44.5291 47.2125 45.0909V52.25H45.4526ZM68.5071 52.4886C67.4034 52.4886 66.4513 52.245 65.6509 51.7578C64.8555 51.2656 64.2415 50.5795 63.8089 49.6996C63.3814 48.8146 63.1676 47.7855 63.1676 46.6122C63.1676 45.4389 63.3814 44.4048 63.8089 43.5099C64.2415 42.6101 64.843 41.9091 65.6136 41.407C66.3892 40.8999 67.294 40.6463 68.3281 40.6463C68.9247 40.6463 69.5138 40.7457 70.0955 40.9446C70.6772 41.1435 71.2067 41.4666 71.6839 41.9141C72.1612 42.3565 72.5415 42.9432 72.8249 43.674C73.1083 44.4048 73.25 45.3047 73.25 46.3736V47.1193H64.4205V45.598H71.4602C71.4602 44.9517 71.331 44.375 71.0724 43.8679C70.8189 43.3608 70.456 42.9606 69.9837 42.6673C69.5163 42.3739 68.9645 42.2273 68.3281 42.2273C67.6271 42.2273 67.0206 42.4013 66.5085 42.7493C66.0014 43.0923 65.6112 43.5398 65.3377 44.0916C65.0643 44.6435 64.9276 45.2351 64.9276 45.8665V46.8807C64.9276 47.7457 65.0767 48.479 65.375 49.0806C65.6783 49.6772 66.0984 50.1321 66.6353 50.4453C67.1722 50.7536 67.7962 50.9077 68.5071 50.9077C68.9695 50.9077 69.3871 50.843 69.7599 50.7138C70.1378 50.5795 70.4634 50.3807 70.7369 50.1172C71.0103 49.8487 71.2216 49.5156 71.3707 49.1179L73.071 49.5952C72.892 50.1719 72.5913 50.679 72.1687 51.1165C71.7461 51.549 71.2241 51.8871 70.6026 52.1307C69.9812 52.3693 69.2827 52.4886 68.5071 52.4886ZM86.1587 52.4886C85.2042 52.4886 84.3615 52.2475 83.6307 51.7653C82.8999 51.2781 82.3281 50.592 81.9155 49.707C81.5028 48.8171 81.2965 47.7656 81.2965 46.5526C81.2965 45.3494 81.5028 44.3054 81.9155 43.4205C82.3281 42.5355 82.9023 41.8519 83.6381 41.3697C84.3739 40.8874 85.2241 40.6463 86.1886 40.6463C86.9343 40.6463 87.5234 40.7706 87.956 41.0192C88.3935 41.2628 88.7266 41.5412 88.9553 41.8544C89.1889 42.1626 89.3704 42.4162 89.4996 42.6151H89.6488V36.9773H91.4087V52.25H89.7085V50.4901H89.4996C89.3704 50.6989 89.1864 50.9624 88.9478 51.2805C88.7092 51.5937 88.3686 51.8746 87.9261 52.1232C87.4837 52.3668 86.8945 52.4886 86.1587 52.4886ZM86.3974 50.9077C87.1033 50.9077 87.6999 50.7237 88.1871 50.3558C88.6744 49.983 89.0447 49.4684 89.2983 48.8121C89.5518 48.1509 89.6786 47.3878 89.6786 46.5227C89.6786 45.6676 89.5543 44.9194 89.3058 44.2781C89.0572 43.6317 88.6893 43.1296 88.2021 42.7717C87.7148 42.4087 87.1133 42.2273 86.3974 42.2273C85.6516 42.2273 85.0302 42.4187 84.533 42.8015C84.0408 43.1793 83.6705 43.6939 83.4219 44.3452C83.1783 44.9915 83.0565 45.7173 83.0565 46.5227C83.0565 47.3381 83.1808 48.0788 83.4293 48.745C83.6829 49.4062 84.0558 49.9332 84.5479 50.326C85.0451 50.7138 85.6616 50.9077 86.3974 50.9077ZM98.2472 52.5185C97.5213 52.5185 96.8626 52.3817 96.271 52.1083C95.6793 51.8299 95.2095 51.4297 94.8615 50.9077C94.5135 50.3807 94.3395 49.7443 94.3395 48.9986C94.3395 48.3423 94.4688 47.8104 94.7273 47.4027C94.9858 46.9901 95.3313 46.6669 95.7638 46.4332C96.1964 46.1996 96.6737 46.0256 97.1957 45.9112C97.7227 45.7919 98.2521 45.6974 98.7841 45.6278C99.4801 45.5384 100.044 45.4712 100.477 45.4265C100.914 45.3768 101.233 45.2947 101.431 45.1804C101.635 45.0661 101.737 44.8672 101.737 44.5838V44.5241C101.737 43.7884 101.536 43.2166 101.133 42.8089C100.735 42.4013 100.131 42.1974 99.321 42.1974C98.4808 42.1974 97.8221 42.3814 97.3448 42.7493C96.8675 43.1172 96.532 43.5099 96.3381 43.9276L94.6676 43.331C94.9659 42.6349 95.3636 42.093 95.8608 41.7053C96.3629 41.3125 96.9098 41.0391 97.5014 40.8849C98.098 40.7259 98.6847 40.6463 99.2614 40.6463C99.6293 40.6463 100.052 40.6911 100.529 40.7805C101.011 40.8651 101.476 41.0415 101.924 41.31C102.376 41.5785 102.751 41.9837 103.05 42.5256C103.348 43.0675 103.497 43.7933 103.497 44.7031V52.25H101.737V50.6989H101.648C101.528 50.9474 101.33 51.2134 101.051 51.4968C100.773 51.7802 100.402 52.0213 99.94 52.2202C99.4776 52.419 98.9134 52.5185 98.2472 52.5185ZM98.5156 50.9375C99.2116 50.9375 99.7983 50.8008 100.276 50.5273C100.758 50.2539 101.121 49.9009 101.364 49.4684C101.613 49.0359 101.737 48.581 101.737 48.1037V46.4929C101.663 46.5824 101.499 46.6644 101.245 46.739C100.996 46.8086 100.708 46.8707 100.38 46.9254C100.057 46.9751 99.7411 47.0199 99.4329 47.0597C99.1296 47.0945 98.8835 47.1243 98.6946 47.1491C98.2372 47.2088 97.8097 47.3058 97.4119 47.44C97.0192 47.5692 96.701 47.7656 96.4574 48.0291C96.2188 48.2876 96.0994 48.6406 96.0994 49.0881C96.0994 49.6996 96.3256 50.1619 96.7781 50.4751C97.2354 50.7834 97.8146 50.9375 98.5156 50.9375ZM113.481 52.25H111.542L117.15 36.9773H119.059L124.667 52.25H122.728L118.164 39.3935H118.045L113.481 52.25ZM114.197 46.2841H122.012V47.9247H114.197V46.2841ZM126.807 56.5455V40.7955H128.507V42.6151H128.716C128.845 42.4162 129.024 42.1626 129.253 41.8544C129.487 41.5412 129.82 41.2628 130.252 41.0192C130.69 40.7706 131.282 40.6463 132.027 40.6463C132.992 40.6463 133.842 40.8874 134.578 41.3697C135.313 41.8519 135.888 42.5355 136.3 43.4205C136.713 44.3054 136.919 45.3494 136.919 46.5526C136.919 47.7656 136.713 48.8171 136.3 49.707C135.888 50.592 135.316 51.2781 134.585 51.7653C133.854 52.2475 133.012 52.4886 132.057 52.4886C131.321 52.4886 130.732 52.3668 130.29 52.1232C129.847 51.8746 129.507 51.5937 129.268 51.2805C129.029 50.9624 128.845 50.6989 128.716 50.4901H128.567V56.5455H126.807ZM128.537 46.5227C128.537 47.3878 128.664 48.1509 128.918 48.8121C129.171 49.4684 129.541 49.983 130.029 50.3558C130.516 50.7237 131.112 50.9077 131.818 50.9077C132.554 50.9077 133.168 50.7138 133.66 50.326C134.158 49.9332 134.53 49.4062 134.779 48.745C135.033 48.0788 135.159 47.3381 135.159 46.5227C135.159 45.7173 135.035 44.9915 134.786 44.3452C134.543 43.6939 134.172 43.1793 133.675 42.8015C133.183 42.4187 132.564 42.2273 131.818 42.2273C131.103 42.2273 130.501 42.4087 130.014 42.7717C129.527 43.1296 129.159 43.6317 128.91 44.2781C128.661 44.9194 128.537 45.6676 128.537 46.5227ZM141.364 36.9773V52.25H139.604V36.9773H141.364ZM144.587 52.25V40.7955H146.347V52.25H144.587ZM145.482 38.8864C145.139 38.8864 144.843 38.7695 144.595 38.5359C144.351 38.3022 144.229 38.0213 144.229 37.6932C144.229 37.3651 144.351 37.0842 144.595 36.8505C144.843 36.6168 145.139 36.5 145.482 36.5C145.825 36.5 146.119 36.6168 146.362 36.8505C146.611 37.0842 146.735 37.3651 146.735 37.6932C146.735 38.0213 146.611 38.3022 146.362 38.5359C146.119 38.7695 145.825 38.8864 145.482 38.8864ZM154.224 52.4886C153.15 52.4886 152.226 52.2351 151.45 51.728C150.674 51.2209 150.078 50.5224 149.66 49.6325C149.243 48.7425 149.034 47.7259 149.034 46.5824C149.034 45.419 149.248 44.3924 149.675 43.5025C150.108 42.6076 150.709 41.9091 151.48 41.407C152.255 40.8999 153.16 40.6463 154.194 40.6463C155 40.6463 155.726 40.7955 156.372 41.0938C157.018 41.392 157.548 41.8097 157.96 42.3466C158.373 42.8835 158.629 43.5099 158.728 44.2259H156.968C156.834 43.7038 156.536 43.2415 156.074 42.8388C155.616 42.4311 155 42.2273 154.224 42.2273C153.538 42.2273 152.937 42.4062 152.419 42.7642C151.907 43.1172 151.507 43.6168 151.219 44.2631C150.935 44.9045 150.794 45.6577 150.794 46.5227C150.794 47.4077 150.933 48.1783 151.211 48.8345C151.495 49.4908 151.892 50.0004 152.405 50.3633C152.922 50.7262 153.528 50.9077 154.224 50.9077C154.682 50.9077 155.097 50.8281 155.47 50.669C155.842 50.5099 156.158 50.2812 156.417 49.983C156.675 49.6847 156.859 49.3267 156.968 48.9091H158.728C158.629 49.5852 158.383 50.1942 157.99 50.7362C157.602 51.2731 157.088 51.7006 156.446 52.0188C155.81 52.332 155.069 52.4886 154.224 52.4886ZM164.672 52.5185C163.946 52.5185 163.287 52.3817 162.696 52.1083C162.104 51.8299 161.634 51.4297 161.286 50.9077C160.938 50.3807 160.764 49.7443 160.764 48.9986C160.764 48.3423 160.894 47.8104 161.152 47.4027C161.411 46.9901 161.756 46.6669 162.189 46.4332C162.621 46.1996 163.098 46.0256 163.62 45.9112C164.147 45.7919 164.677 45.6974 165.209 45.6278C165.905 45.5384 166.469 45.4712 166.902 45.4265C167.339 45.3768 167.657 45.2947 167.856 45.1804C168.06 45.0661 168.162 44.8672 168.162 44.5838V44.5241C168.162 43.7884 167.961 43.2166 167.558 42.8089C167.16 42.4013 166.556 42.1974 165.746 42.1974C164.906 42.1974 164.247 42.3814 163.77 42.7493C163.292 43.1172 162.957 43.5099 162.763 43.9276L161.092 43.331C161.391 42.6349 161.788 42.093 162.286 41.7053C162.788 41.3125 163.335 41.0391 163.926 40.8849C164.523 40.7259 165.109 40.6463 165.686 40.6463C166.054 40.6463 166.477 40.6911 166.954 40.7805C167.436 40.8651 167.901 41.0415 168.348 41.31C168.801 41.5785 169.176 41.9837 169.475 42.5256C169.773 43.0675 169.922 43.7933 169.922 44.7031V52.25H168.162V50.6989H168.073C167.953 50.9474 167.754 51.2134 167.476 51.4968C167.198 51.7802 166.827 52.0213 166.365 52.2202C165.902 52.419 165.338 52.5185 164.672 52.5185ZM164.94 50.9375C165.636 50.9375 166.223 50.8008 166.7 50.5273C167.183 50.2539 167.546 49.9009 167.789 49.4684C168.038 49.0359 168.162 48.581 168.162 48.1037V46.4929C168.087 46.5824 167.923 46.6644 167.67 46.739C167.421 46.8086 167.133 46.8707 166.805 46.9254C166.482 46.9751 166.166 47.0199 165.858 47.0597C165.554 47.0945 165.308 47.1243 165.119 47.1491C164.662 47.2088 164.234 47.3058 163.837 47.44C163.444 47.5692 163.126 47.7656 162.882 48.0291C162.644 48.2876 162.524 48.6406 162.524 49.0881C162.524 49.6996 162.75 50.1619 163.203 50.4751C163.66 50.7834 164.239 50.9375 164.94 50.9375ZM177.788 52.4886C176.714 52.4886 175.789 52.2351 175.013 51.728C174.238 51.2209 173.641 50.5224 173.224 49.6325C172.806 48.7425 172.597 47.7259 172.597 46.5824C172.597 45.419 172.811 44.3924 173.239 43.5025C173.671 42.6076 174.273 41.9091 175.043 41.407C175.819 40.8999 176.724 40.6463 177.758 40.6463C178.563 40.6463 179.289 40.7955 179.935 41.0938C180.582 41.392 181.111 41.8097 181.524 42.3466C181.936 42.8835 182.192 43.5099 182.292 44.2259H180.532C180.398 43.7038 180.099 43.2415 179.637 42.8388C179.18 42.4311 178.563 42.2273 177.788 42.2273C177.102 42.2273 176.5 42.4062 175.983 42.7642C175.471 43.1172 175.071 43.6168 174.782 44.2631C174.499 44.9045 174.357 45.6577 174.357 46.5227C174.357 47.4077 174.496 48.1783 174.775 48.8345C175.058 49.4908 175.456 50.0004 175.968 50.3633C176.485 50.7262 177.092 50.9077 177.788 50.9077C178.245 50.9077 178.66 50.8281 179.033 50.669C179.406 50.5099 179.722 50.2812 179.98 49.983C180.239 49.6847 180.423 49.3267 180.532 48.9091H182.292C182.192 49.5852 181.946 50.1942 181.554 50.7362C181.166 51.2731 180.651 51.7006 180.01 52.0188C179.374 52.332 178.633 52.4886 177.788 52.4886ZM176.952 52.1903H178.414L178.295 52.7869C178.683 52.8466 179.038 53.0082 179.361 53.2717C179.684 53.5401 179.846 53.9652 179.846 54.5469C179.846 55.1882 179.58 55.7102 179.048 56.1129C178.521 56.5206 177.743 56.7244 176.714 56.7244L176.654 55.5611C177.116 55.5611 177.499 55.4865 177.803 55.3374C178.111 55.1932 178.265 54.9496 178.265 54.6065C178.265 54.2635 178.138 54.0298 177.885 53.9055C177.631 53.7813 177.221 53.6967 176.654 53.652L176.952 52.1903ZM188.235 52.5185C187.51 52.5185 186.851 52.3817 186.259 52.1083C185.668 51.8299 185.198 51.4297 184.85 50.9077C184.502 50.3807 184.328 49.7443 184.328 48.9986C184.328 48.3423 184.457 47.8104 184.716 47.4027C184.974 46.9901 185.32 46.6669 185.752 46.4332C186.185 46.1996 186.662 46.0256 187.184 45.9112C187.711 45.7919 188.24 45.6974 188.772 45.6278C189.468 45.5384 190.033 45.4712 190.465 45.4265C190.903 45.3768 191.221 45.2947 191.42 45.1804C191.624 45.0661 191.725 44.8672 191.725 44.5838V44.5241C191.725 43.7884 191.524 43.2166 191.121 42.8089C190.724 42.4013 190.12 42.1974 189.309 42.1974C188.469 42.1974 187.81 42.3814 187.333 42.7493C186.856 43.1172 186.52 43.5099 186.326 43.9276L184.656 43.331C184.954 42.6349 185.352 42.093 185.849 41.7053C186.351 41.3125 186.898 41.0391 187.49 40.8849C188.086 40.7259 188.673 40.6463 189.25 40.6463C189.618 40.6463 190.04 40.6911 190.517 40.7805C191 40.8651 191.464 41.0415 191.912 41.31C192.364 41.5785 192.74 41.9837 193.038 42.5256C193.336 43.0675 193.485 43.7933 193.485 44.7031V52.25H191.725V50.6989H191.636C191.517 50.9474 191.318 51.2134 191.039 51.4968C190.761 51.7802 190.391 52.0213 189.928 52.2202C189.466 52.419 188.902 52.5185 188.235 52.5185ZM188.504 50.9375C189.2 50.9375 189.787 50.8008 190.264 50.5273C190.746 50.2539 191.109 49.9009 191.353 49.4684C191.601 49.0359 191.725 48.581 191.725 48.1037V46.4929C191.651 46.5824 191.487 46.6644 191.233 46.739C190.985 46.8086 190.696 46.8707 190.368 46.9254C190.045 46.9751 189.729 47.0199 189.421 47.0597C189.118 47.0945 188.872 47.1243 188.683 47.1491C188.225 47.2088 187.798 47.3058 187.4 47.44C187.007 47.5692 186.689 47.7656 186.446 48.0291C186.207 48.2876 186.088 48.6406 186.088 49.0881C186.088 49.6996 186.314 50.1619 186.766 50.4751C187.224 50.7834 187.803 50.9375 188.504 50.9375ZM187.072 39.4233L185.7 39.3636C185.7 38.603 185.916 37.9815 186.349 37.4993C186.786 37.0121 187.326 36.7685 187.967 36.7685C188.25 36.7685 188.501 36.8182 188.72 36.9176C188.939 37.0121 189.148 37.1214 189.347 37.2457C189.545 37.37 189.749 37.4819 189.958 37.5813C190.172 37.6758 190.413 37.723 190.681 37.723C190.965 37.723 191.203 37.6136 191.397 37.3949C191.596 37.1712 191.696 36.9027 191.696 36.5895L193.038 36.7088C193.038 37.4844 192.819 38.1009 192.382 38.5582C191.949 39.0156 191.412 39.2443 190.771 39.2443C190.428 39.2443 190.145 39.1971 189.921 39.1026C189.697 39.0032 189.498 38.8913 189.324 38.767C189.15 38.6428 188.966 38.5334 188.772 38.4389C188.578 38.3395 188.34 38.2898 188.056 38.2898C187.773 38.2898 187.537 38.4016 187.348 38.6254C187.164 38.8441 187.072 39.1101 187.072 39.4233ZM201.351 52.4886C200.317 52.4886 199.41 52.2425 198.629 51.7504C197.854 51.2582 197.247 50.5696 196.81 49.6847C196.377 48.7997 196.161 47.7656 196.161 46.5824C196.161 45.3892 196.377 44.3477 196.81 43.4577C197.247 42.5678 197.854 41.8768 198.629 41.3846C199.41 40.8924 200.317 40.6463 201.351 40.6463C202.385 40.6463 203.29 40.8924 204.066 41.3846C204.846 41.8768 205.453 42.5678 205.885 43.4577C206.323 44.3477 206.541 45.3892 206.541 46.5824C206.541 47.7656 206.323 48.7997 205.885 49.6847C205.453 50.5696 204.846 51.2582 204.066 51.7504C203.29 52.2425 202.385 52.4886 201.351 52.4886ZM201.351 50.9077C202.137 50.9077 202.783 50.7063 203.29 50.3036C203.797 49.9009 204.172 49.3714 204.416 48.7152C204.66 48.0589 204.782 47.348 204.782 46.5824C204.782 45.8168 204.66 45.1033 204.416 44.4421C204.172 43.7809 203.797 43.2464 203.29 42.8388C202.783 42.4311 202.137 42.2273 201.351 42.2273C200.566 42.2273 199.919 42.4311 199.412 42.8388C198.905 43.2464 198.53 43.7809 198.286 44.4421C198.043 45.1033 197.921 45.8168 197.921 46.5824C197.921 47.348 198.043 48.0589 198.286 48.7152C198.53 49.3714 198.905 49.9009 199.412 50.3036C199.919 50.7063 200.566 50.9077 201.351 50.9077ZM220.533 36.2614L215.612 54.5469H214.001L218.923 36.2614H220.533ZM228.764 52.25V36.9773H233.925C235.123 36.9773 236.103 37.1935 236.863 37.6261C237.629 38.0536 238.196 38.6328 238.563 39.3636C238.931 40.0945 239.115 40.9098 239.115 41.8097C239.115 42.7095 238.931 43.5273 238.563 44.2631C238.201 44.9989 237.639 45.5856 236.878 46.0231C236.117 46.4556 235.143 46.6719 233.955 46.6719H230.256V45.0312H233.895C234.715 45.0312 235.374 44.8896 235.871 44.6062C236.369 44.3228 236.729 43.94 236.953 43.4577C237.181 42.9705 237.296 42.4212 237.296 41.8097C237.296 41.1982 237.181 40.6513 236.953 40.169C236.729 39.6868 236.366 39.3089 235.864 39.0355C235.362 38.7571 234.696 38.6179 233.865 38.6179H230.614V52.25H228.764ZM241.856 52.25V40.7955H243.556V42.5256H243.676C243.884 41.9588 244.262 41.4989 244.809 41.146C245.356 40.793 245.972 40.6165 246.658 40.6165C246.788 40.6165 246.949 40.619 247.143 40.6239C247.337 40.6289 247.484 40.6364 247.583 40.6463V42.4361C247.524 42.4212 247.387 42.3988 247.173 42.369C246.964 42.3342 246.743 42.3168 246.509 42.3168C245.953 42.3168 245.455 42.4336 245.018 42.6673C244.585 42.896 244.242 43.2141 243.989 43.6218C243.74 44.0245 243.616 44.4844 243.616 45.0014V52.25H241.856ZM253.974 52.4886C252.94 52.4886 252.033 52.2425 251.252 51.7504C250.477 51.2582 249.87 50.5696 249.433 49.6847C249 48.7997 248.784 47.7656 248.784 46.5824C248.784 45.3892 249 44.3477 249.433 43.4577C249.87 42.5678 250.477 41.8768 251.252 41.3846C252.033 40.8924 252.94 40.6463 253.974 40.6463C255.008 40.6463 255.913 40.8924 256.689 41.3846C257.469 41.8768 258.076 42.5678 258.508 43.4577C258.946 44.3477 259.165 45.3892 259.165 46.5824C259.165 47.7656 258.946 48.7997 258.508 49.6847C258.076 50.5696 257.469 51.2582 256.689 51.7504C255.913 52.2425 255.008 52.4886 253.974 52.4886ZM253.974 50.9077C254.76 50.9077 255.406 50.7063 255.913 50.3036C256.42 49.9009 256.796 49.3714 257.039 48.7152C257.283 48.0589 257.405 47.348 257.405 46.5824C257.405 45.8168 257.283 45.1033 257.039 44.4421C256.796 43.7809 256.42 43.2464 255.913 42.8388C255.406 42.4311 254.76 42.2273 253.974 42.2273C253.189 42.2273 252.542 42.4311 252.035 42.8388C251.528 43.2464 251.153 43.7809 250.909 44.4421C250.666 45.1033 250.544 45.8168 250.544 46.5824C250.544 47.348 250.666 48.0589 250.909 48.7152C251.153 49.3714 251.528 49.9009 252.035 50.3036C252.542 50.7063 253.189 50.9077 253.974 50.9077ZM266.176 52.4886C265.222 52.4886 264.379 52.2475 263.648 51.7653C262.917 51.2781 262.346 50.592 261.933 49.707C261.52 48.8171 261.314 47.7656 261.314 46.5526C261.314 45.3494 261.52 44.3054 261.933 43.4205C262.346 42.5355 262.92 41.8519 263.656 41.3697C264.392 40.8874 265.242 40.6463 266.206 40.6463C266.952 40.6463 267.541 40.7706 267.974 41.0192C268.411 41.2628 268.744 41.5412 268.973 41.8544C269.206 42.1626 269.388 42.4162 269.517 42.6151H269.666V36.9773H271.426V52.25H269.726V50.4901H269.517C269.388 50.6989 269.204 50.9624 268.965 51.2805C268.727 51.5937 268.386 51.8746 267.944 52.1232C267.501 52.3668 266.912 52.4886 266.176 52.4886ZM266.415 50.9077C267.121 50.9077 267.718 50.7237 268.205 50.3558C268.692 49.983 269.062 49.4684 269.316 48.8121C269.569 48.1509 269.696 47.3878 269.696 46.5227C269.696 45.6676 269.572 44.9194 269.323 44.2781C269.075 43.6317 268.707 43.1296 268.22 42.7717C267.732 42.4087 267.131 42.2273 266.415 42.2273C265.669 42.2273 265.048 42.4187 264.551 42.8015C264.058 43.1793 263.688 43.6939 263.439 44.3452C263.196 44.9915 263.074 45.7173 263.074 46.5227C263.074 47.3381 263.198 48.0788 263.447 48.745C263.7 49.4062 264.073 49.9332 264.566 50.326C265.063 50.7138 265.679 50.9077 266.415 50.9077ZM282.113 47.5668V40.7955H283.873V52.25H282.113V50.3111H281.993C281.725 50.8928 281.307 51.3874 280.741 51.7951C280.174 52.1978 279.458 52.3991 278.593 52.3991C277.877 52.3991 277.241 52.2425 276.684 51.9293C276.127 51.6112 275.689 51.1339 275.371 50.4975C275.053 49.8562 274.894 49.0483 274.894 48.0739V40.7955H276.654V47.9545C276.654 48.7898 276.888 49.456 277.355 49.9531C277.827 50.4503 278.429 50.6989 279.16 50.6989C279.597 50.6989 280.042 50.587 280.494 50.3633C280.952 50.1396 281.335 49.7965 281.643 49.3342C281.956 48.8718 282.113 48.2827 282.113 47.5668ZM292.078 40.7955V42.2869H286.142V40.7955H292.078ZM287.872 38.0511H289.632V48.9688C289.632 49.4659 289.704 49.8388 289.848 50.0874C289.997 50.331 290.186 50.495 290.415 50.5795C290.648 50.6591 290.894 50.6989 291.153 50.6989C291.347 50.6989 291.506 50.6889 291.63 50.669C291.755 50.6442 291.854 50.6243 291.929 50.6094L292.286 52.1903C292.167 52.2351 292.001 52.2798 291.787 52.3246C291.573 52.3743 291.302 52.3991 290.974 52.3991C290.477 52.3991 289.99 52.2923 289.512 52.0785C289.04 51.8647 288.647 51.5391 288.334 51.1016C288.026 50.6641 287.872 50.1122 287.872 49.446V38.0511ZM299.255 52.4886C298.221 52.4886 297.314 52.2425 296.533 51.7504C295.758 51.2582 295.151 50.5696 294.714 49.6847C294.281 48.7997 294.065 47.7656 294.065 46.5824C294.065 45.3892 294.281 44.3477 294.714 43.4577C295.151 42.5678 295.758 41.8768 296.533 41.3846C297.314 40.8924 298.221 40.6463 299.255 40.6463C300.29 40.6463 301.194 40.8924 301.97 41.3846C302.75 41.8768 303.357 42.5678 303.79 43.4577C304.227 44.3477 304.446 45.3892 304.446 46.5824C304.446 47.7656 304.227 48.7997 303.79 49.6847C303.357 50.5696 302.75 51.2582 301.97 51.7504C301.194 52.2425 300.29 52.4886 299.255 52.4886ZM299.255 50.9077C300.041 50.9077 300.687 50.7063 301.194 50.3036C301.701 49.9009 302.077 49.3714 302.32 48.7152C302.564 48.0589 302.686 47.348 302.686 46.5824C302.686 45.8168 302.564 45.1033 302.32 44.4421C302.077 43.7809 301.701 43.2464 301.194 42.8388C300.687 42.4311 300.041 42.2273 299.255 42.2273C298.47 42.2273 297.824 42.4311 297.316 42.8388C296.809 43.2464 296.434 43.7809 296.19 44.4421C295.947 45.1033 295.825 45.8168 295.825 46.5824C295.825 47.348 295.947 48.0589 296.19 48.7152C296.434 49.3714 296.809 49.9009 297.316 50.3036C297.824 50.7063 298.47 50.9077 299.255 50.9077ZM317.99 52.25H313.277V36.9773H318.199C319.681 36.9773 320.948 37.283 322.002 37.8945C323.056 38.5011 323.864 39.3736 324.426 40.5121C324.988 41.6456 325.269 43.0028 325.269 44.5838C325.269 46.1747 324.985 47.5444 324.419 48.6928C323.852 49.8363 323.026 50.7163 321.943 51.3327C320.859 51.9442 319.541 52.25 317.99 52.25ZM315.127 50.6094H317.871C319.134 50.6094 320.18 50.3658 321.01 49.8786C321.841 49.3913 322.46 48.6978 322.867 47.7979C323.275 46.8981 323.479 45.8267 323.479 44.5838C323.479 43.3509 323.278 42.2894 322.875 41.3995C322.472 40.5046 321.871 39.8185 321.07 39.3413C320.27 38.859 319.273 38.6179 318.08 38.6179H315.127V50.6094ZM328.132 52.25V40.7955H329.892V52.25H328.132ZM329.027 38.8864C328.684 38.8864 328.388 38.7695 328.14 38.5359C327.896 38.3022 327.774 38.0213 327.774 37.6932C327.774 37.3651 327.896 37.0842 328.14 36.8505C328.388 36.6168 328.684 36.5 329.027 36.5C329.37 36.5 329.664 36.6168 329.907 36.8505C330.156 37.0842 330.28 37.3651 330.28 37.6932C330.28 38.0213 330.156 38.3022 329.907 38.5359C329.664 38.7695 329.37 38.8864 329.027 38.8864ZM337.739 56.7841C336.889 56.7841 336.158 56.6747 335.547 56.456C334.935 56.2422 334.426 55.9588 334.018 55.6058C333.615 55.2578 333.295 54.8849 333.056 54.4872L334.458 53.5028C334.617 53.7116 334.818 53.9503 335.062 54.2188C335.306 54.4922 335.639 54.7283 336.061 54.9272C336.489 55.131 337.048 55.233 337.739 55.233C338.664 55.233 339.427 55.0092 340.029 54.5618C340.63 54.1143 340.931 53.4134 340.931 52.4588V50.1321H340.782C340.653 50.3409 340.469 50.5994 340.23 50.9077C339.996 51.2109 339.658 51.4819 339.216 51.7205C338.778 51.9542 338.187 52.071 337.441 52.071C336.516 52.071 335.686 51.8523 334.95 51.4148C334.219 50.9773 333.64 50.3409 333.213 49.5057C332.79 48.6705 332.579 47.6562 332.579 46.4631C332.579 45.2898 332.785 44.2681 333.198 43.3981C333.61 42.5231 334.185 41.8469 334.92 41.3697C335.656 40.8874 336.506 40.6463 337.471 40.6463C338.217 40.6463 338.808 40.7706 339.246 41.0192C339.688 41.2628 340.026 41.5412 340.26 41.8544C340.498 42.1626 340.682 42.4162 340.812 42.6151H340.991V40.7955H342.691V52.5781C342.691 53.5625 342.467 54.3629 342.02 54.9794C341.577 55.6009 340.981 56.0558 340.23 56.3441C339.484 56.6374 338.654 56.7841 337.739 56.7841ZM337.68 50.4901C338.386 50.4901 338.982 50.3285 339.469 50.0053C339.957 49.6822 340.327 49.2173 340.581 48.6108C340.834 48.0043 340.961 47.2784 340.961 46.4332C340.961 45.608 340.837 44.8796 340.588 44.2482C340.339 43.6168 339.972 43.1222 339.484 42.7642C338.997 42.4062 338.396 42.2273 337.68 42.2273C336.934 42.2273 336.312 42.4162 335.815 42.794C335.323 43.1719 334.953 43.679 334.704 44.3153C334.46 44.9517 334.339 45.6577 334.339 46.4332C334.339 47.2287 334.463 47.9322 334.712 48.5437C334.965 49.1502 335.338 49.6275 335.83 49.9755C336.327 50.3185 336.944 50.4901 337.68 50.4901ZM345.913 52.25V40.7955H347.672V52.25H345.913ZM346.807 38.8864C346.464 38.8864 346.169 38.7695 345.92 38.5359C345.676 38.3022 345.555 38.0213 345.555 37.6932C345.555 37.3651 345.676 37.0842 345.92 36.8505C346.169 36.6168 346.464 36.5 346.807 36.5C347.15 36.5 347.444 36.6168 347.687 36.8505C347.936 37.0842 348.06 37.3651 348.06 37.6932C348.06 38.0213 347.936 38.3022 347.687 38.5359C347.444 38.7695 347.15 38.8864 346.807 38.8864ZM355.877 40.7955V42.2869H349.941V40.7955H355.877ZM351.672 38.0511H353.431V48.9688C353.431 49.4659 353.504 49.8388 353.648 50.0874C353.797 50.331 353.986 50.495 354.214 50.5795C354.448 50.6591 354.694 50.6989 354.953 50.6989C355.147 50.6989 355.306 50.6889 355.43 50.669C355.554 50.6442 355.654 50.6243 355.728 50.6094L356.086 52.1903C355.967 52.2351 355.8 52.2798 355.587 52.3246C355.373 52.3743 355.102 52.3991 354.774 52.3991C354.277 52.3991 353.789 52.2923 353.312 52.0785C352.84 51.8647 352.447 51.5391 352.134 51.1016C351.826 50.6641 351.672 50.1122 351.672 49.446V38.0511ZM361.896 52.5185C361.17 52.5185 360.511 52.3817 359.919 52.1083C359.328 51.8299 358.858 51.4297 358.51 50.9077C358.162 50.3807 357.988 49.7443 357.988 48.9986C357.988 48.3423 358.117 47.8104 358.376 47.4027C358.634 46.9901 358.98 46.6669 359.412 46.4332C359.845 46.1996 360.322 46.0256 360.844 45.9112C361.371 45.7919 361.901 45.6974 362.433 45.6278C363.129 45.5384 363.693 45.4712 364.125 45.4265C364.563 45.3768 364.881 45.2947 365.08 45.1804C365.284 45.0661 365.386 44.8672 365.386 44.5838V44.5241C365.386 43.7884 365.184 43.2166 364.782 42.8089C364.384 42.4013 363.78 42.1974 362.969 42.1974C362.129 42.1974 361.471 42.3814 360.993 42.7493C360.516 43.1172 360.18 43.5099 359.987 43.9276L358.316 43.331C358.614 42.6349 359.012 42.093 359.509 41.7053C360.011 41.3125 360.558 41.0391 361.15 40.8849C361.746 40.7259 362.333 40.6463 362.91 40.6463C363.278 40.6463 363.7 40.6911 364.178 40.7805C364.66 40.8651 365.125 41.0415 365.572 41.31C366.025 41.5785 366.4 41.9837 366.698 42.5256C366.996 43.0675 367.146 43.7933 367.146 44.7031V52.25H365.386V50.6989H365.296C365.177 50.9474 364.978 51.2134 364.7 51.4968C364.421 51.7802 364.051 52.0213 363.588 52.2202C363.126 52.419 362.562 52.5185 361.896 52.5185ZM362.164 50.9375C362.86 50.9375 363.447 50.8008 363.924 50.5273C364.406 50.2539 364.769 49.9009 365.013 49.4684C365.261 49.0359 365.386 48.581 365.386 48.1037V46.4929C365.311 46.5824 365.147 46.6644 364.893 46.739C364.645 46.8086 364.357 46.8707 364.028 46.9254C363.705 46.9751 363.39 47.0199 363.081 47.0597C362.778 47.0945 362.532 47.1243 362.343 47.1491C361.886 47.2088 361.458 47.3058 361.06 47.44C360.668 47.5692 360.349 47.7656 360.106 48.0291C359.867 48.2876 359.748 48.6406 359.748 49.0881C359.748 49.6996 359.974 50.1619 360.426 50.4751C360.884 50.7834 361.463 50.9375 362.164 50.9375ZM372.118 36.9773V52.25H370.358V36.9773H372.118Z" fill="#788896"/>
<path d="M1146 16H999V72.5H1146V16Z" stroke="#C3CFD9" stroke-width="2"/>
<path d="M1019.82 37.8409H1021.4L1025.11 46.8963H1025.23L1028.94 37.8409H1030.52V48.75H1029.28V40.4616H1029.17L1025.77 48.75H1024.57L1021.16 40.4616H1021.06V48.75H1019.82V37.8409ZM1035.4 48.9418C1034.88 48.9418 1034.41 48.8441 1033.99 48.6488C1033.57 48.4499 1033.23 48.1641 1032.98 47.7912C1032.74 47.4148 1032.61 46.9602 1032.61 46.4276C1032.61 45.9588 1032.7 45.5788 1032.89 45.2876C1033.07 44.9929 1033.32 44.7621 1033.63 44.5952C1033.94 44.4283 1034.28 44.304 1034.65 44.2223C1035.03 44.1371 1035.41 44.0696 1035.79 44.0199C1036.28 43.956 1036.69 43.908 1037 43.8761C1037.31 43.8406 1037.54 43.782 1037.68 43.7003C1037.82 43.6186 1037.9 43.4766 1037.9 43.2741V43.2315C1037.9 42.706 1037.75 42.2976 1037.46 42.0064C1037.18 41.7152 1036.75 41.5696 1036.17 41.5696C1035.57 41.5696 1035.1 41.701 1034.76 41.9638C1034.42 42.2266 1034.18 42.5071 1034.04 42.8054L1032.85 42.3793C1033.06 41.8821 1033.34 41.495 1033.7 41.218C1034.06 40.9375 1034.45 40.7422 1034.87 40.6321C1035.3 40.5185 1035.72 40.4616 1036.13 40.4616C1036.39 40.4616 1036.69 40.4936 1037.03 40.5575C1037.38 40.6179 1037.71 40.744 1038.03 40.9357C1038.35 41.1275 1038.62 41.4169 1038.83 41.804C1039.05 42.1911 1039.15 42.7095 1039.15 43.3594V48.75H1037.9V47.642H1037.83C1037.75 47.8196 1037.6 48.0096 1037.41 48.212C1037.21 48.4144 1036.94 48.5866 1036.61 48.7287C1036.28 48.8707 1035.88 48.9418 1035.4 48.9418ZM1035.59 47.8125C1036.09 47.8125 1036.51 47.7148 1036.85 47.5195C1037.2 47.3242 1037.46 47.0721 1037.63 46.7631C1037.81 46.4542 1037.9 46.1293 1037.9 45.7884V44.6378C1037.84 44.7017 1037.73 44.7603 1037.54 44.8136C1037.37 44.8633 1037.16 44.9077 1036.93 44.9467C1036.7 44.9822 1036.47 45.0142 1036.25 45.0426C1036.03 45.0675 1035.86 45.0888 1035.72 45.1065C1035.4 45.1491 1035.09 45.2184 1034.81 45.3143C1034.53 45.4066 1034.3 45.5469 1034.12 45.7351C1033.95 45.9197 1033.87 46.1719 1033.87 46.4915C1033.87 46.9283 1034.03 47.2585 1034.35 47.4822C1034.68 47.7024 1035.09 47.8125 1035.59 47.8125ZM1041.45 48.75V40.5682H1042.66V41.804H1042.75C1042.9 41.3991 1043.17 41.0707 1043.56 40.8185C1043.95 40.5664 1044.39 40.4403 1044.88 40.4403C1044.97 40.4403 1045.09 40.4421 1045.22 40.4457C1045.36 40.4492 1045.47 40.4545 1045.54 40.4616V41.7401C1045.5 41.7294 1045.4 41.7134 1045.25 41.6921C1045.1 41.6673 1044.94 41.6548 1044.77 41.6548C1044.37 41.6548 1044.02 41.7383 1043.71 41.9052C1043.4 42.0685 1043.15 42.2958 1042.97 42.587C1042.79 42.8746 1042.7 43.2031 1042.7 43.5724V48.75H1041.45ZM1050.1 48.9205C1049.34 48.9205 1048.68 48.7393 1048.12 48.3771C1047.57 48.0149 1047.14 47.516 1046.84 46.8803C1046.55 46.2447 1046.4 45.5185 1046.4 44.7017C1046.4 43.8707 1046.55 43.1374 1046.85 42.5018C1047.16 41.8626 1047.59 41.3636 1048.14 41.005C1048.7 40.6428 1049.34 40.4616 1050.08 40.4616C1050.66 40.4616 1051.18 40.5682 1051.64 40.7812C1052.1 40.9943 1052.48 41.2926 1052.77 41.6761C1053.07 42.0597 1053.25 42.5071 1053.32 43.0185H1052.06C1051.97 42.6456 1051.75 42.3153 1051.42 42.0277C1051.1 41.7365 1050.66 41.5909 1050.1 41.5909C1049.61 41.5909 1049.18 41.7187 1048.81 41.9744C1048.45 42.2266 1048.16 42.5835 1047.96 43.0451C1047.75 43.5032 1047.65 44.0412 1047.65 44.6591C1047.65 45.2912 1047.75 45.8416 1047.95 46.3104C1048.15 46.7791 1048.44 47.1431 1048.8 47.4023C1049.17 47.6616 1049.61 47.7912 1050.1 47.7912C1050.43 47.7912 1050.73 47.7344 1050.99 47.6207C1051.26 47.5071 1051.48 47.3438 1051.67 47.1307C1051.85 46.9176 1051.99 46.6619 1052.06 46.3636H1053.32C1053.25 46.8466 1053.07 47.2816 1052.79 47.6687C1052.52 48.0522 1052.15 48.3576 1051.69 48.5849C1051.24 48.8086 1050.71 48.9205 1050.1 48.9205ZM1057.57 48.9418C1057.05 48.9418 1056.58 48.8441 1056.15 48.6488C1055.73 48.4499 1055.4 48.1641 1055.15 47.7912C1054.9 47.4148 1054.77 46.9602 1054.77 46.4276C1054.77 45.9588 1054.87 45.5788 1055.05 45.2876C1055.24 44.9929 1055.48 44.7621 1055.79 44.5952C1056.1 44.4283 1056.44 44.304 1056.81 44.2223C1057.19 44.1371 1057.57 44.0696 1057.95 44.0199C1058.45 43.956 1058.85 43.908 1059.16 43.8761C1059.47 43.8406 1059.7 43.782 1059.84 43.7003C1059.99 43.6186 1060.06 43.4766 1060.06 43.2741V43.2315C1060.06 42.706 1059.92 42.2976 1059.63 42.0064C1059.34 41.7152 1058.91 41.5696 1058.33 41.5696C1057.73 41.5696 1057.26 41.701 1056.92 41.9638C1056.58 42.2266 1056.34 42.5071 1056.2 42.8054L1055.01 42.3793C1055.22 41.8821 1055.51 41.495 1055.86 41.218C1056.22 40.9375 1056.61 40.7422 1057.03 40.6321C1057.46 40.5185 1057.88 40.4616 1058.29 40.4616C1058.55 40.4616 1058.86 40.4936 1059.2 40.5575C1059.54 40.6179 1059.87 40.744 1060.19 40.9357C1060.52 41.1275 1060.78 41.4169 1061 41.804C1061.21 42.1911 1061.32 42.7095 1061.32 43.3594V48.75H1060.06V47.642H1060C1059.91 47.8196 1059.77 48.0096 1059.57 48.212C1059.37 48.4144 1059.11 48.5866 1058.78 48.7287C1058.44 48.8707 1058.04 48.9418 1057.57 48.9418ZM1057.76 47.8125C1058.25 47.8125 1058.67 47.7148 1059.01 47.5195C1059.36 47.3242 1059.62 47.0721 1059.79 46.7631C1059.97 46.4542 1060.06 46.1293 1060.06 45.7884V44.6378C1060.01 44.7017 1059.89 44.7603 1059.71 44.8136C1059.53 44.8633 1059.32 44.9077 1059.09 44.9467C1058.86 44.9822 1058.63 45.0142 1058.41 45.0426C1058.2 45.0675 1058.02 45.0888 1057.89 45.1065C1057.56 45.1491 1057.25 45.2184 1056.97 45.3143C1056.69 45.4066 1056.46 45.5469 1056.29 45.7351C1056.12 45.9197 1056.03 46.1719 1056.03 46.4915C1056.03 46.9283 1056.19 47.2585 1056.52 47.4822C1056.84 47.7024 1057.26 47.8125 1057.76 47.8125ZM1068 48.75V37.8409H1071.69C1072.54 37.8409 1073.24 37.9954 1073.78 38.3043C1074.33 38.6097 1074.74 39.0234 1075 39.5455C1075.26 40.0675 1075.39 40.6499 1075.39 41.2926C1075.39 41.9354 1075.26 42.5195 1075 43.0451C1074.74 43.5707 1074.34 43.9897 1073.8 44.3022C1073.25 44.6112 1072.56 44.7656 1071.71 44.7656H1069.07V43.5938H1071.66C1072.25 43.5938 1072.72 43.4925 1073.08 43.2901C1073.43 43.0877 1073.69 42.8143 1073.85 42.4698C1074.01 42.1218 1074.09 41.7294 1074.09 41.2926C1074.09 40.8558 1074.01 40.4652 1073.85 40.1207C1073.69 39.7763 1073.43 39.5064 1073.07 39.3111C1072.71 39.1122 1072.24 39.0128 1071.64 39.0128H1069.32V48.75H1068ZM1080.69 48.9205C1079.9 48.9205 1079.22 48.7464 1078.65 48.3984C1078.08 48.0469 1077.65 47.5568 1077.34 46.9283C1077.03 46.2962 1076.88 45.5611 1076.88 44.723C1076.88 43.8849 1077.03 43.1463 1077.34 42.5071C1077.65 41.8643 1078.08 41.3636 1078.63 41.005C1079.18 40.6428 1079.83 40.4616 1080.57 40.4616C1080.99 40.4616 1081.41 40.5327 1081.83 40.6747C1082.24 40.8168 1082.62 41.0476 1082.96 41.3672C1083.3 41.6832 1083.58 42.1023 1083.78 42.6243C1083.98 43.1463 1084.08 43.7891 1084.08 44.5526V45.0852H1077.77V43.9986H1082.8C1082.8 43.5369 1082.71 43.125 1082.53 42.7628C1082.34 42.4006 1082.09 42.1147 1081.75 41.9052C1081.41 41.6957 1081.02 41.5909 1080.57 41.5909C1080.06 41.5909 1079.63 41.7152 1079.27 41.9638C1078.9 42.2088 1078.62 42.5284 1078.43 42.9226C1078.23 43.3168 1078.14 43.7393 1078.14 44.1903V44.9148C1078.14 45.5327 1078.24 46.0565 1078.46 46.4862C1078.67 46.9123 1078.97 47.2372 1079.36 47.4609C1079.74 47.6811 1080.19 47.7912 1080.69 47.7912C1081.02 47.7912 1081.32 47.745 1081.59 47.6527C1081.86 47.5568 1082.09 47.4148 1082.29 47.2266C1082.48 47.0348 1082.63 46.7969 1082.74 46.5128L1083.95 46.8537C1083.83 47.2656 1083.61 47.6278 1083.31 47.9403C1083.01 48.2493 1082.63 48.4908 1082.19 48.6648C1081.75 48.8352 1081.25 48.9205 1080.69 48.9205ZM1089.55 40.5682V41.6335H1085.31V40.5682H1089.55ZM1086.55 38.608H1087.8V46.4062C1087.8 46.7614 1087.86 47.0277 1087.96 47.2053C1088.07 47.3793 1088.2 47.4964 1088.36 47.5568C1088.53 47.6136 1088.71 47.642 1088.89 47.642C1089.03 47.642 1089.14 47.6349 1089.23 47.6207C1089.32 47.603 1089.39 47.5888 1089.45 47.5781L1089.7 48.7074C1089.62 48.7393 1089.5 48.7713 1089.34 48.8033C1089.19 48.8388 1089 48.8565 1088.76 48.8565C1088.41 48.8565 1088.06 48.7802 1087.72 48.6275C1087.38 48.4748 1087.1 48.2422 1086.88 47.9297C1086.66 47.6172 1086.55 47.223 1086.55 46.7472V38.608ZM1091.44 48.75V40.5682H1092.66V41.804H1092.74C1092.89 41.3991 1093.16 41.0707 1093.55 40.8185C1093.94 40.5664 1094.38 40.4403 1094.87 40.4403C1094.97 40.4403 1095.08 40.4421 1095.22 40.4457C1095.36 40.4492 1095.46 40.4545 1095.53 40.4616V41.7401C1095.49 41.7294 1095.39 41.7134 1095.24 41.6921C1095.09 41.6673 1094.93 41.6548 1094.77 41.6548C1094.37 41.6548 1094.01 41.7383 1093.7 41.9052C1093.39 42.0685 1093.15 42.2958 1092.97 42.587C1092.79 42.8746 1092.7 43.2031 1092.7 43.5724V48.75H1091.44ZM1100.1 48.9205C1099.36 48.9205 1098.71 48.7447 1098.15 48.3931C1097.6 48.0415 1097.17 47.5497 1096.85 46.9176C1096.55 46.2855 1096.39 45.5469 1096.39 44.7017C1096.39 43.8494 1096.55 43.1055 1096.85 42.4698C1097.17 41.8342 1097.6 41.3406 1098.15 40.989C1098.71 40.6374 1099.36 40.4616 1100.1 40.4616C1100.84 40.4616 1101.48 40.6374 1102.04 40.989C1102.59 41.3406 1103.03 41.8342 1103.34 42.4698C1103.65 43.1055 1103.81 43.8494 1103.81 44.7017C1103.81 45.5469 1103.65 46.2855 1103.34 46.9176C1103.03 47.5497 1102.59 48.0415 1102.04 48.3931C1101.48 48.7447 1100.84 48.9205 1100.1 48.9205ZM1100.1 47.7912C1100.66 47.7912 1101.12 47.6474 1101.48 47.3597C1101.85 47.0721 1102.11 46.6939 1102.29 46.2251C1102.46 45.7564 1102.55 45.2486 1102.55 44.7017C1102.55 44.1548 1102.46 43.6452 1102.29 43.1729C1102.11 42.7006 1101.85 42.3189 1101.48 42.0277C1101.12 41.7365 1100.66 41.5909 1100.1 41.5909C1099.54 41.5909 1099.08 41.7365 1098.71 42.0277C1098.35 42.3189 1098.08 42.7006 1097.91 43.1729C1097.74 43.6452 1097.65 44.1548 1097.65 44.7017C1097.65 45.2486 1097.74 45.7564 1097.91 46.2251C1098.08 46.6939 1098.35 47.0721 1098.71 47.3597C1099.08 47.6474 1099.54 47.7912 1100.1 47.7912ZM1105.9 48.75V37.8409H1107.15V41.8679H1107.26C1107.35 41.7259 1107.48 41.5447 1107.64 41.3246C1107.81 41.1009 1108.05 40.902 1108.36 40.728C1108.67 40.5504 1109.09 40.4616 1109.62 40.4616C1110.31 40.4616 1110.92 40.6339 1111.45 40.9783C1111.97 41.3228 1112.38 41.8111 1112.68 42.4432C1112.97 43.0753 1113.12 43.821 1113.12 44.6804C1113.12 45.5469 1112.97 46.2979 1112.68 46.9336C1112.38 47.5657 1111.97 48.0558 1111.45 48.4038C1110.93 48.7482 1110.33 48.9205 1109.65 48.9205C1109.12 48.9205 1108.7 48.8335 1108.38 48.6594C1108.07 48.4819 1107.82 48.2812 1107.65 48.0575C1107.48 47.8303 1107.35 47.642 1107.26 47.4929H1107.11V48.75H1105.9ZM1107.13 44.6591C1107.13 45.277 1107.22 45.8221 1107.4 46.2944C1107.58 46.7631 1107.85 47.1307 1108.2 47.397C1108.54 47.6598 1108.97 47.7912 1109.47 47.7912C1110 47.7912 1110.44 47.6527 1110.79 47.3757C1111.15 47.0952 1111.41 46.7187 1111.59 46.2464C1111.77 45.7706 1111.86 45.2415 1111.86 44.6591C1111.86 44.0838 1111.77 43.5653 1111.59 43.1037C1111.42 42.6385 1111.16 42.271 1110.8 42.0011C1110.45 41.7276 1110.01 41.5909 1109.47 41.5909C1108.96 41.5909 1108.53 41.7205 1108.19 41.9798C1107.84 42.2354 1107.57 42.5941 1107.4 43.0558C1107.22 43.5138 1107.13 44.0483 1107.13 44.6591ZM1115.04 48.75V40.5682H1116.26V41.804H1116.34C1116.49 41.3991 1116.76 41.0707 1117.15 40.8185C1117.54 40.5664 1117.98 40.4403 1118.47 40.4403C1118.56 40.4403 1118.68 40.4421 1118.82 40.4457C1118.96 40.4492 1119.06 40.4545 1119.13 40.4616V41.7401C1119.09 41.7294 1118.99 41.7134 1118.84 41.6921C1118.69 41.6673 1118.53 41.6548 1118.37 41.6548C1117.97 41.6548 1117.61 41.7383 1117.3 41.9052C1116.99 42.0685 1116.75 42.2958 1116.56 42.587C1116.39 42.8746 1116.3 43.2031 1116.3 43.5724V48.75H1115.04ZM1123.03 48.9418C1122.51 48.9418 1122.04 48.8441 1121.62 48.6488C1121.2 48.4499 1120.86 48.1641 1120.61 47.7912C1120.36 47.4148 1120.24 46.9602 1120.24 46.4276C1120.24 45.9588 1120.33 45.5788 1120.52 45.2876C1120.7 44.9929 1120.95 44.7621 1121.26 44.5952C1121.57 44.4283 1121.91 44.304 1122.28 44.2223C1122.66 44.1371 1123.03 44.0696 1123.41 44.0199C1123.91 43.956 1124.31 43.908 1124.62 43.8761C1124.94 43.8406 1125.16 43.782 1125.3 43.7003C1125.45 43.6186 1125.52 43.4766 1125.52 43.2741V43.2315C1125.52 42.706 1125.38 42.2976 1125.09 42.0064C1124.81 41.7152 1124.38 41.5696 1123.8 41.5696C1123.2 41.5696 1122.73 41.701 1122.39 41.9638C1122.04 42.2266 1121.8 42.5071 1121.67 42.8054L1120.47 42.3793C1120.69 41.8821 1120.97 41.495 1121.33 41.218C1121.68 40.9375 1122.07 40.7422 1122.5 40.6321C1122.92 40.5185 1123.34 40.4616 1123.75 40.4616C1124.02 40.4616 1124.32 40.4936 1124.66 40.5575C1125 40.6179 1125.34 40.744 1125.66 40.9357C1125.98 41.1275 1126.25 41.4169 1126.46 41.804C1126.67 42.1911 1126.78 42.7095 1126.78 43.3594V48.75H1125.52V47.642H1125.46C1125.37 47.8196 1125.23 48.0096 1125.03 48.212C1124.83 48.4144 1124.57 48.5866 1124.24 48.7287C1123.91 48.8707 1123.51 48.9418 1123.03 48.9418ZM1123.22 47.8125C1123.72 47.8125 1124.14 47.7148 1124.48 47.5195C1124.82 47.3242 1125.08 47.0721 1125.26 46.7631C1125.43 46.4542 1125.52 46.1293 1125.52 45.7884V44.6378C1125.47 44.7017 1125.35 44.7603 1125.17 44.8136C1124.99 44.8633 1124.79 44.9077 1124.55 44.9467C1124.32 44.9822 1124.1 45.0142 1123.88 45.0426C1123.66 45.0675 1123.48 45.0888 1123.35 45.1065C1123.02 45.1491 1122.72 45.2184 1122.43 45.3143C1122.15 45.4066 1121.93 45.5469 1121.75 45.7351C1121.58 45.9197 1121.5 46.1719 1121.5 46.4915C1121.5 46.9283 1121.66 47.2585 1121.98 47.4822C1122.31 47.7024 1122.72 47.8125 1123.22 47.8125ZM1134.87 42.4006L1133.74 42.7202C1133.67 42.532 1133.56 42.3491 1133.43 42.1715C1133.29 41.9904 1133.11 41.8413 1132.87 41.7241C1132.64 41.6069 1132.34 41.5483 1131.97 41.5483C1131.47 41.5483 1131.05 41.6637 1130.72 41.8945C1130.39 42.1218 1130.22 42.4112 1130.22 42.7628C1130.22 43.0753 1130.34 43.3221 1130.57 43.5032C1130.79 43.6843 1131.15 43.8352 1131.63 43.956L1132.85 44.2543C1133.58 44.4318 1134.12 44.7035 1134.48 45.0692C1134.84 45.4315 1135.02 45.8984 1135.02 46.4702C1135.02 46.9389 1134.88 47.358 1134.61 47.7273C1134.35 48.0966 1133.97 48.3878 1133.5 48.6009C1133.02 48.8139 1132.46 48.9205 1131.82 48.9205C1130.99 48.9205 1130.3 48.7393 1129.75 48.3771C1129.2 48.0149 1128.86 47.4858 1128.71 46.7898L1129.91 46.4915C1130.02 46.9318 1130.23 47.2621 1130.55 47.4822C1130.87 47.7024 1131.29 47.8125 1131.8 47.8125C1132.39 47.8125 1132.85 47.6882 1133.2 47.4396C1133.55 47.1875 1133.72 46.8857 1133.72 46.5341C1133.72 46.25 1133.62 46.0121 1133.42 45.8203C1133.22 45.625 1132.92 45.4794 1132.5 45.3835L1131.14 45.0639C1130.39 44.8864 1129.84 44.6112 1129.49 44.2383C1129.14 43.8619 1128.97 43.3913 1128.97 42.8267C1128.97 42.3651 1129.1 41.9567 1129.36 41.6016C1129.62 41.2464 1129.98 40.9677 1130.43 40.7653C1130.88 40.5629 1131.4 40.4616 1131.97 40.4616C1132.78 40.4616 1133.42 40.6392 1133.88 40.9943C1134.34 41.3494 1134.67 41.8182 1134.87 42.4006Z" fill="#788896"/>
<path d="M1162 88H0V246H1162V88Z" fill="#F2F5F7" stroke="#C3CFD9" stroke-width="2"/>
</g>
<defs>
<clipPath id="clip0_1_361">
<rect width="1162" height="246" fill="white"/>
</clipPath>
<clipPath id="clip1_1_361">
<rect width="26" height="26" fill="white" transform="translate(823.5 29.9166)"/>
</clipPath>
<clipPath id="clip2_1_361">
<rect width="27.5294" height="27.5294" fill="white" transform="translate(860.99 29.2206)"/>
</clipPath>
<clipPath id="clip3_1_361">
<rect width="26" height="26" fill="white" transform="translate(900.01 29.9166)"/>
</clipPath>
<clipPath id="clip4_1_361">
<rect width="26" height="26" fill="white" transform="translate(937.5 29.9166)"/>
</clipPath>
</defs>
</svg>
