<svg width="1178" height="262" viewBox="0 0 1178 262" fill="none" xmlns="http://www.w3.org/2000/svg">
<rect width="1178" height="262" fill="white"/>
<path d="M1170 8H8V96H1170V8Z" stroke="#C3CFD9" stroke-width="2"/>
<path d="M664.5 33.5H478.75C468.809 33.5 460.75 41.5589 460.75 51.5C460.75 61.4411 468.809 69.5 478.75 69.5H664.5C674.441 69.5 682.5 61.4411 682.5 51.5C682.5 41.5589 674.441 33.5 664.5 33.5Z" stroke="#9EADBA" stroke-width="2" stroke-linecap="round" stroke-linejoin="round"/>
<g clip-path="url(#clip0_1_2100)">
<path d="M837.812 39.729C837.812 39.2805 837.448 38.9165 837 38.9165C836.552 38.9165 836.188 39.2805 836.188 39.729V42.1665H837.812V39.729Z" fill="#9EADBA"/>
<path d="M850.812 39.729C850.812 39.2805 850.448 38.9165 850 38.9165C849.552 38.9165 849.188 39.2805 849.188 39.729V42.1665H850.812V39.729Z" fill="#9EADBA"/>
<path d="M852.438 42.979H834.562C832.768 42.979 831.312 44.4342 831.312 46.229V60.854C831.312 62.6488 832.768 64.104 834.562 64.104H852.438C854.232 64.104 855.688 62.6488 855.688 60.854V46.229C855.688 44.4342 854.232 42.979 852.438 42.979ZM854.062 60.854C854.062 61.7518 853.335 62.479 852.438 62.479H834.562C833.665 62.479 832.938 61.7518 832.938 60.854V47.854H854.062V60.854Z" fill="#9EADBA"/>
<path d="M841.875 60.0415C841.667 60.0415 841.459 59.9618 841.301 59.8034L838.051 56.5534C837.733 56.2357 837.733 55.7222 838.051 55.4045C838.368 55.0868 838.882 55.0868 839.199 55.4045L841.875 58.0801L849.426 50.5295C849.743 50.2118 850.257 50.2118 850.574 50.5295C850.892 50.8472 850.892 51.3607 850.574 51.6784L842.449 59.8034C842.291 59.9618 842.083 60.0415 841.875 60.0415Z" fill="#9EADBA"/>
</g>
<g clip-path="url(#clip1_1_2100)">
<path d="M891.181 54.3507C891.387 53.5788 891.496 52.7842 891.505 51.9854C891.496 51.1866 891.387 50.392 891.181 49.6202L893.934 47.5945C894.162 47.427 894.319 47.1815 894.377 46.9051C894.434 46.6287 894.388 46.3408 894.246 46.0964L893.099 44.1097C892.958 43.8651 892.732 43.6811 892.463 43.593C892.195 43.505 891.904 43.5191 891.645 43.6325L888.532 45.009C887.378 43.895 885.965 43.0847 884.421 42.6507L884.049 39.2416C884.018 38.9598 883.883 38.6994 883.672 38.5109C883.46 38.3224 883.186 38.219 882.902 38.2207H880.608C880.324 38.219 880.05 38.3224 879.838 38.5109C879.627 38.6994 879.492 38.9598 879.461 39.2416L879.089 42.6507C877.545 43.0811 876.132 43.8874 874.976 44.9975L871.863 43.6211C871.604 43.5076 871.313 43.4935 871.044 43.5816C870.776 43.6696 870.549 43.8536 870.408 44.0983L869.261 46.085C869.12 46.3293 869.073 46.6172 869.131 46.8936C869.188 47.17 869.346 47.4155 869.573 47.583L872.326 49.6087C872.12 50.3844 872.012 51.1829 872.005 51.9854C872.014 52.7842 872.122 53.5788 872.328 54.3507L869.575 56.3764C869.348 56.5439 869.191 56.7894 869.133 57.0658C869.076 57.3422 869.122 57.6301 869.263 57.8744L870.411 59.8611C870.511 60.0355 870.656 60.1803 870.83 60.281C871.005 60.3817 871.203 60.4347 871.404 60.4347C871.562 60.4338 871.718 60.4011 871.863 60.3383L874.976 58.9618C876.132 60.072 877.545 60.8783 879.089 61.3087L879.461 64.7293C879.492 65.0111 879.627 65.2714 879.838 65.4599C880.05 65.6485 880.324 65.7519 880.608 65.7501H882.902C883.186 65.7519 883.46 65.6485 883.672 65.4599C883.883 65.2714 884.018 65.0111 884.049 64.7293L884.428 61.3202C885.969 60.8887 887.38 60.0825 888.534 58.9733L891.647 60.3498C891.792 60.4125 891.948 60.4453 892.106 60.4461C892.307 60.4461 892.505 60.3931 892.68 60.2925C892.854 60.1918 892.999 60.047 893.099 59.8726L894.246 57.8859C894.388 57.6416 894.434 57.3536 894.377 57.0772C894.319 56.8008 894.162 56.5554 893.934 56.3878L891.181 54.3507ZM881.755 56.5737C880.847 56.5737 879.96 56.3046 879.206 55.8004C878.451 55.2962 877.863 54.5797 877.516 53.7413C877.169 52.9029 877.078 51.9803 877.255 51.0903C877.432 50.2003 877.869 49.3827 878.511 48.7411C879.152 48.0994 879.97 47.6624 880.86 47.4854C881.75 47.3083 882.672 47.3992 883.511 47.7465C884.349 48.0937 885.066 48.6818 885.57 49.4363C886.074 50.1909 886.343 51.078 886.343 51.9854C886.343 53.2023 885.86 54.3693 884.999 55.2298C884.139 56.0903 882.972 56.5737 881.755 56.5737Z" fill="#9EADBA"/>
</g>
<g clip-path="url(#clip2_1_2100)">
<path d="M924.072 64.9165H915.947C915.499 64.9165 915.135 64.5525 915.135 64.104V63.2915H924.885V64.104C924.885 64.5525 924.521 64.9165 924.072 64.9165Z" fill="#9EADBA"/>
<path d="M920.01 38.9165C914.633 38.9165 910.26 43.2902 910.26 48.6665C910.26 52.1716 912.116 55.3599 915.135 57.1027V61.6665H924.885V57.1027C927.904 55.3599 929.76 52.1724 929.76 48.6665C929.76 43.2902 925.386 38.9165 920.01 38.9165ZM920.822 44.604H920.01C917.77 44.604 915.947 46.4264 915.947 48.6665V49.479H914.322V48.6665C914.322 45.5311 916.874 42.979 920.01 42.979H920.822V44.604Z" fill="#9EADBA"/>
</g>
<g clip-path="url(#clip3_1_2100)">
<path d="M957.5 38.9165C950.332 38.9165 944.5 44.7486 944.5 51.9165C944.5 59.0844 950.332 64.9165 957.5 64.9165C964.668 64.9165 970.5 59.0844 970.5 51.9165C970.5 44.7486 964.668 38.9165 957.5 38.9165ZM952.625 50.2915C952.625 47.6029 954.811 45.4165 957.5 45.4165C960.189 45.4165 962.375 47.6029 962.375 50.2915V51.9165C962.375 54.6051 960.189 56.7915 957.5 56.7915C954.811 56.7915 952.625 54.6051 952.625 51.9165V50.2915ZM957.5 63.2915C955.133 63.2915 952.934 62.5635 951.111 61.3212C952.3 60.0383 953.992 59.229 955.875 59.229H959.125C961.008 59.229 962.7 60.0383 963.889 61.3212C962.066 62.5635 959.867 63.2915 957.5 63.2915Z" fill="#9EADBA"/>
</g>
<path d="M37.9602 42.2273V57.5H36.1705L27.848 45.5085H27.6989V57.5H25.8494V42.2273H27.6392L35.9915 54.2486H36.1406V42.2273H37.9602ZM46.0757 57.7386C45.0416 57.7386 44.1343 57.4925 43.3538 57.0004C42.5782 56.5082 41.9717 55.8196 41.5342 54.9347C41.1017 54.0497 40.8854 53.0156 40.8854 51.8324C40.8854 50.6392 41.1017 49.5977 41.5342 48.7077C41.9717 47.8178 42.5782 47.1268 43.3538 46.6346C44.1343 46.1424 45.0416 45.8963 46.0757 45.8963C47.1098 45.8963 48.0146 46.1424 48.7902 46.6346C49.5708 47.1268 50.1773 47.8178 50.6098 48.7077C51.0473 49.5977 51.2661 50.6392 51.2661 51.8324C51.2661 53.0156 51.0473 54.0497 50.6098 54.9347C50.1773 55.8196 49.5708 56.5082 48.7902 57.0004C48.0146 57.4925 47.1098 57.7386 46.0757 57.7386ZM46.0757 56.1577C46.8612 56.1577 47.5075 55.9563 48.0146 55.5536C48.5218 55.1509 48.8971 54.6214 49.1407 53.9652C49.3843 53.3089 49.5061 52.598 49.5061 51.8324C49.5061 51.0668 49.3843 50.3533 49.1407 49.6921C48.8971 49.0309 48.5218 48.4964 48.0146 48.0888C47.5075 47.6811 46.8612 47.4773 46.0757 47.4773C45.2902 47.4773 44.6439 47.6811 44.1368 48.0888C43.6297 48.4964 43.2544 49.0309 43.0107 49.6921C42.7671 50.3533 42.6453 51.0668 42.6453 51.8324C42.6453 52.598 42.7671 53.3089 43.0107 53.9652C43.2544 54.6214 43.6297 55.1509 44.1368 55.5536C44.6439 55.9563 45.2902 56.1577 46.0757 56.1577ZM53.9526 57.5V46.0455H55.6529V47.8352H55.802C56.0407 47.2237 56.426 46.7489 56.9579 46.4109C57.4899 46.0678 58.1287 45.8963 58.8745 45.8963C59.6301 45.8963 60.2591 46.0678 60.7612 46.4109C61.2683 46.7489 61.6635 47.2237 61.9469 47.8352H62.0662C62.3596 47.2436 62.7995 46.7738 63.3862 46.4258C63.9728 46.0728 64.6763 45.8963 65.4966 45.8963C66.5208 45.8963 67.3585 46.217 68.0098 46.8583C68.661 47.4947 68.9867 48.4865 68.9867 49.8338V57.5H67.2267V49.8338C67.2267 48.9886 66.9956 48.3846 66.5332 48.0217C66.0708 47.6587 65.5265 47.4773 64.9 47.4773C64.0946 47.4773 63.4707 47.7209 63.0282 48.2081C62.5858 48.6903 62.3645 49.3018 62.3645 50.0426V57.5H60.5748V49.6548C60.5748 49.0036 60.3635 48.479 59.9409 48.0813C59.5183 47.6786 58.9739 47.4773 58.3077 47.4773C57.8503 47.4773 57.4228 47.5991 57.025 47.8427C56.6323 48.0863 56.3141 48.4244 56.0705 48.8569C55.8319 49.2844 55.7125 49.7791 55.7125 50.3409V57.5H53.9526ZM77.0071 57.7386C75.9034 57.7386 74.9513 57.495 74.1509 57.0078C73.3555 56.5156 72.7415 55.8295 72.3089 54.9496C71.8814 54.0646 71.6676 53.0355 71.6676 51.8622C71.6676 50.6889 71.8814 49.6548 72.3089 48.7599C72.7415 47.8601 73.343 47.1591 74.1136 46.657C74.8892 46.1499 75.794 45.8963 76.8281 45.8963C77.4247 45.8963 78.0138 45.9957 78.5955 46.1946C79.1772 46.3935 79.7067 46.7166 80.1839 47.1641C80.6612 47.6065 81.0415 48.1932 81.3249 48.924C81.6083 49.6548 81.75 50.5547 81.75 51.6236V52.3693H72.9205V50.848H79.9602C79.9602 50.2017 79.831 49.625 79.5724 49.1179C79.3189 48.6108 78.956 48.2106 78.4837 47.9173C78.0163 47.6239 77.4645 47.4773 76.8281 47.4773C76.1271 47.4773 75.5206 47.6513 75.0085 47.9993C74.5014 48.3423 74.1112 48.7898 73.8377 49.3416C73.5643 49.8935 73.4276 50.4851 73.4276 51.1165V52.1307C73.4276 52.9957 73.5767 53.729 73.875 54.3306C74.1783 54.9272 74.5984 55.3821 75.1353 55.6953C75.6722 56.0036 76.2962 56.1577 77.0071 56.1577C77.4695 56.1577 77.8871 56.093 78.2599 55.9638C78.6378 55.8295 78.9634 55.6307 79.2369 55.3672C79.5103 55.0987 79.7216 54.7656 79.8707 54.3679L81.571 54.8452C81.392 55.4219 81.0913 55.929 80.6687 56.3665C80.2461 56.799 79.7241 57.1371 79.1026 57.3807C78.4812 57.6193 77.7827 57.7386 77.0071 57.7386ZM94.6587 57.7386C93.7042 57.7386 92.8615 57.4975 92.1307 57.0153C91.3999 56.5281 90.8281 55.842 90.4155 54.957C90.0028 54.0671 89.7965 53.0156 89.7965 51.8026C89.7965 50.5994 90.0028 49.5554 90.4155 48.6705C90.8281 47.7855 91.4023 47.1019 92.1381 46.6197C92.8739 46.1374 93.7241 45.8963 94.6886 45.8963C95.4343 45.8963 96.0234 46.0206 96.456 46.2692C96.8935 46.5128 97.2266 46.7912 97.4553 47.1044C97.6889 47.4126 97.8704 47.6662 97.9996 47.8651H98.1488V42.2273H99.9087V57.5H98.2085V55.7401H97.9996C97.8704 55.9489 97.6864 56.2124 97.4478 56.5305C97.2092 56.8437 96.8686 57.1246 96.4261 57.3732C95.9837 57.6168 95.3945 57.7386 94.6587 57.7386ZM94.8974 56.1577C95.6033 56.1577 96.1999 55.9737 96.6871 55.6058C97.1744 55.233 97.5447 54.7184 97.7983 54.0621C98.0518 53.4009 98.1786 52.6378 98.1786 51.7727C98.1786 50.9176 98.0543 50.1694 97.8058 49.5281C97.5572 48.8817 97.1893 48.3796 96.7021 48.0217C96.2148 47.6587 95.6133 47.4773 94.8974 47.4773C94.1516 47.4773 93.5302 47.6687 93.033 48.0515C92.5408 48.4293 92.1705 48.9439 91.9219 49.5952C91.6783 50.2415 91.5565 50.9673 91.5565 51.7727C91.5565 52.5881 91.6808 53.3288 91.9293 53.995C92.1829 54.6562 92.5558 55.1832 93.0479 55.576C93.5451 55.9638 94.1616 56.1577 94.8974 56.1577ZM106.747 57.7685C106.021 57.7685 105.363 57.6317 104.771 57.3583C104.179 57.0799 103.71 56.6797 103.362 56.1577C103.013 55.6307 102.839 54.9943 102.839 54.2486C102.839 53.5923 102.969 53.0604 103.227 52.6527C103.486 52.2401 103.831 51.9169 104.264 51.6832C104.696 51.4496 105.174 51.2756 105.696 51.1612C106.223 51.0419 106.752 50.9474 107.284 50.8778C107.98 50.7884 108.544 50.7212 108.977 50.6765C109.414 50.6268 109.733 50.5447 109.931 50.4304C110.135 50.3161 110.237 50.1172 110.237 49.8338V49.7741C110.237 49.0384 110.036 48.4666 109.633 48.0589C109.235 47.6513 108.631 47.4474 107.821 47.4474C106.981 47.4474 106.322 47.6314 105.845 47.9993C105.368 48.3672 105.032 48.7599 104.838 49.1776L103.168 48.581C103.466 47.8849 103.864 47.343 104.361 46.9553C104.863 46.5625 105.41 46.2891 106.001 46.1349C106.598 45.9759 107.185 45.8963 107.761 45.8963C108.129 45.8963 108.552 45.9411 109.029 46.0305C109.511 46.1151 109.976 46.2915 110.424 46.56C110.876 46.8285 111.251 47.2337 111.55 47.7756C111.848 48.3175 111.997 49.0433 111.997 49.9531V57.5H110.237V55.9489H110.148C110.028 56.1974 109.83 56.4634 109.551 56.7468C109.273 57.0302 108.902 57.2713 108.44 57.4702C107.978 57.669 107.413 57.7685 106.747 57.7685ZM107.016 56.1875C107.712 56.1875 108.298 56.0508 108.776 55.7773C109.258 55.5039 109.621 55.1509 109.864 54.7184C110.113 54.2859 110.237 53.831 110.237 53.3537V51.7429C110.163 51.8324 109.999 51.9144 109.745 51.989C109.496 52.0586 109.208 52.1207 108.88 52.1754C108.557 52.2251 108.241 52.2699 107.933 52.3097C107.63 52.3445 107.384 52.3743 107.195 52.3991C106.737 52.4588 106.31 52.5558 105.912 52.69C105.519 52.8192 105.201 53.0156 104.957 53.2791C104.719 53.5376 104.599 53.8906 104.599 54.3381C104.599 54.9496 104.826 55.4119 105.278 55.7251C105.735 56.0334 106.315 56.1875 107.016 56.1875ZM121.981 57.5H120.042L125.65 42.2273H127.559L133.167 57.5H131.228L126.664 44.6435H126.545L121.981 57.5ZM122.697 51.5341H130.512V53.1747H122.697V51.5341ZM135.307 61.7955V46.0455H137.007V47.8651H137.216C137.345 47.6662 137.524 47.4126 137.753 47.1044C137.987 46.7912 138.32 46.5128 138.752 46.2692C139.19 46.0206 139.782 45.8963 140.527 45.8963C141.492 45.8963 142.342 46.1374 143.078 46.6197C143.813 47.1019 144.388 47.7855 144.8 48.6705C145.213 49.5554 145.419 50.5994 145.419 51.8026C145.419 53.0156 145.213 54.0671 144.8 54.957C144.388 55.842 143.816 56.5281 143.085 57.0153C142.354 57.4975 141.512 57.7386 140.557 57.7386C139.821 57.7386 139.232 57.6168 138.79 57.3732C138.347 57.1246 138.007 56.8437 137.768 56.5305C137.529 56.2124 137.345 55.9489 137.216 55.7401H137.067V61.7955H135.307ZM137.037 51.7727C137.037 52.6378 137.164 53.4009 137.418 54.0621C137.671 54.7184 138.041 55.233 138.529 55.6058C139.016 55.9737 139.612 56.1577 140.318 56.1577C141.054 56.1577 141.668 55.9638 142.16 55.576C142.658 55.1832 143.03 54.6562 143.279 53.995C143.533 53.3288 143.659 52.5881 143.659 51.7727C143.659 50.9673 143.535 50.2415 143.286 49.5952C143.043 48.9439 142.672 48.4293 142.175 48.0515C141.683 47.6687 141.064 47.4773 140.318 47.4773C139.603 47.4773 139.001 47.6587 138.514 48.0217C138.027 48.3796 137.659 48.8817 137.41 49.5281C137.161 50.1694 137.037 50.9176 137.037 51.7727ZM149.864 42.2273V57.5H148.104V42.2273H149.864ZM153.087 57.5V46.0455H154.847V57.5H153.087ZM153.982 44.1364C153.639 44.1364 153.343 44.0195 153.095 43.7859C152.851 43.5522 152.729 43.2713 152.729 42.9432C152.729 42.6151 152.851 42.3342 153.095 42.1005C153.343 41.8668 153.639 41.75 153.982 41.75C154.325 41.75 154.619 41.8668 154.862 42.1005C155.111 42.3342 155.235 42.6151 155.235 42.9432C155.235 43.2713 155.111 43.5522 154.862 43.7859C154.619 44.0195 154.325 44.1364 153.982 44.1364ZM162.724 57.7386C161.65 57.7386 160.726 57.4851 159.95 56.978C159.174 56.4709 158.578 55.7724 158.16 54.8825C157.743 53.9925 157.534 52.9759 157.534 51.8324C157.534 50.669 157.748 49.6424 158.175 48.7525C158.608 47.8576 159.209 47.1591 159.98 46.657C160.755 46.1499 161.66 45.8963 162.694 45.8963C163.5 45.8963 164.226 46.0455 164.872 46.3438C165.518 46.642 166.048 47.0597 166.46 47.5966C166.873 48.1335 167.129 48.7599 167.228 49.4759H165.468C165.334 48.9538 165.036 48.4915 164.574 48.0888C164.116 47.6811 163.5 47.4773 162.724 47.4773C162.038 47.4773 161.437 47.6562 160.919 48.0142C160.407 48.3672 160.007 48.8668 159.719 49.5131C159.435 50.1545 159.294 50.9077 159.294 51.7727C159.294 52.6577 159.433 53.4283 159.711 54.0845C159.995 54.7408 160.392 55.2504 160.905 55.6133C161.422 55.9762 162.028 56.1577 162.724 56.1577C163.182 56.1577 163.597 56.0781 163.97 55.919C164.342 55.7599 164.658 55.5312 164.917 55.233C165.175 54.9347 165.359 54.5767 165.468 54.1591H167.228C167.129 54.8352 166.883 55.4442 166.49 55.9862C166.102 56.5231 165.588 56.9506 164.946 57.2688C164.31 57.582 163.569 57.7386 162.724 57.7386ZM173.172 57.7685C172.446 57.7685 171.787 57.6317 171.196 57.3583C170.604 57.0799 170.134 56.6797 169.786 56.1577C169.438 55.6307 169.264 54.9943 169.264 54.2486C169.264 53.5923 169.394 53.0604 169.652 52.6527C169.911 52.2401 170.256 51.9169 170.689 51.6832C171.121 51.4496 171.598 51.2756 172.12 51.1612C172.647 51.0419 173.177 50.9474 173.709 50.8778C174.405 50.7884 174.969 50.7212 175.402 50.6765C175.839 50.6268 176.157 50.5447 176.356 50.4304C176.56 50.3161 176.662 50.1172 176.662 49.8338V49.7741C176.662 49.0384 176.461 48.4666 176.058 48.0589C175.66 47.6513 175.056 47.4474 174.246 47.4474C173.406 47.4474 172.747 47.6314 172.27 47.9993C171.792 48.3672 171.457 48.7599 171.263 49.1776L169.592 48.581C169.891 47.8849 170.288 47.343 170.786 46.9553C171.288 46.5625 171.835 46.2891 172.426 46.1349C173.023 45.9759 173.609 45.8963 174.186 45.8963C174.554 45.8963 174.977 45.9411 175.454 46.0305C175.936 46.1151 176.401 46.2915 176.848 46.56C177.301 46.8285 177.676 47.2337 177.975 47.7756C178.273 48.3175 178.422 49.0433 178.422 49.9531V57.5H176.662V55.9489H176.573C176.453 56.1974 176.254 56.4634 175.976 56.7468C175.698 57.0302 175.327 57.2713 174.865 57.4702C174.402 57.669 173.838 57.7685 173.172 57.7685ZM173.44 56.1875C174.136 56.1875 174.723 56.0508 175.2 55.7773C175.683 55.5039 176.046 55.1509 176.289 54.7184C176.538 54.2859 176.662 53.831 176.662 53.3537V51.7429C176.587 51.8324 176.423 51.9144 176.17 51.989C175.921 52.0586 175.633 52.1207 175.305 52.1754C174.982 52.2251 174.666 52.2699 174.358 52.3097C174.054 52.3445 173.808 52.3743 173.619 52.3991C173.162 52.4588 172.734 52.5558 172.337 52.69C171.944 52.8192 171.626 53.0156 171.382 53.2791C171.144 53.5376 171.024 53.8906 171.024 54.3381C171.024 54.9496 171.25 55.4119 171.703 55.7251C172.16 56.0334 172.739 56.1875 173.44 56.1875ZM186.288 57.7386C185.214 57.7386 184.289 57.4851 183.513 56.978C182.738 56.4709 182.141 55.7724 181.724 54.8825C181.306 53.9925 181.097 52.9759 181.097 51.8324C181.097 50.669 181.311 49.6424 181.739 48.7525C182.171 47.8576 182.773 47.1591 183.543 46.657C184.319 46.1499 185.224 45.8963 186.258 45.8963C187.063 45.8963 187.789 46.0455 188.435 46.3438C189.082 46.642 189.611 47.0597 190.024 47.5966C190.436 48.1335 190.692 48.7599 190.792 49.4759H189.032C188.898 48.9538 188.599 48.4915 188.137 48.0888C187.68 47.6811 187.063 47.4773 186.288 47.4773C185.602 47.4773 185 47.6562 184.483 48.0142C183.971 48.3672 183.571 48.8668 183.282 49.5131C182.999 50.1545 182.857 50.9077 182.857 51.7727C182.857 52.6577 182.996 53.4283 183.275 54.0845C183.558 54.7408 183.956 55.2504 184.468 55.6133C184.985 55.9762 185.592 56.1577 186.288 56.1577C186.745 56.1577 187.16 56.0781 187.533 55.919C187.906 55.7599 188.222 55.5312 188.48 55.233C188.739 54.9347 188.923 54.5767 189.032 54.1591H190.792C190.692 54.8352 190.446 55.4442 190.054 55.9862C189.666 56.5231 189.151 56.9506 188.51 57.2688C187.874 57.582 187.133 57.7386 186.288 57.7386ZM185.452 57.4403H186.914L186.795 58.0369C187.183 58.0966 187.538 58.2582 187.861 58.5217C188.184 58.7901 188.346 59.2152 188.346 59.7969C188.346 60.4382 188.08 60.9602 187.548 61.3629C187.021 61.7706 186.243 61.9744 185.214 61.9744L185.154 60.8111C185.616 60.8111 185.999 60.7365 186.303 60.5874C186.611 60.4432 186.765 60.1996 186.765 59.8565C186.765 59.5135 186.638 59.2798 186.385 59.1555C186.131 59.0313 185.721 58.9467 185.154 58.902L185.452 57.4403ZM196.735 57.7685C196.01 57.7685 195.351 57.6317 194.759 57.3583C194.168 57.0799 193.698 56.6797 193.35 56.1577C193.002 55.6307 192.828 54.9943 192.828 54.2486C192.828 53.5923 192.957 53.0604 193.216 52.6527C193.474 52.2401 193.82 51.9169 194.252 51.6832C194.685 51.4496 195.162 51.2756 195.684 51.1612C196.211 51.0419 196.74 50.9474 197.272 50.8778C197.968 50.7884 198.533 50.7212 198.965 50.6765C199.403 50.6268 199.721 50.5447 199.92 50.4304C200.124 50.3161 200.225 50.1172 200.225 49.8338V49.7741C200.225 49.0384 200.024 48.4666 199.621 48.0589C199.224 47.6513 198.62 47.4474 197.809 47.4474C196.969 47.4474 196.31 47.6314 195.833 47.9993C195.356 48.3672 195.02 48.7599 194.826 49.1776L193.156 48.581C193.454 47.8849 193.852 47.343 194.349 46.9553C194.851 46.5625 195.398 46.2891 195.99 46.1349C196.586 45.9759 197.173 45.8963 197.75 45.8963C198.118 45.8963 198.54 45.9411 199.017 46.0305C199.5 46.1151 199.964 46.2915 200.412 46.56C200.864 46.8285 201.24 47.2337 201.538 47.7756C201.836 48.3175 201.985 49.0433 201.985 49.9531V57.5H200.225V55.9489H200.136C200.017 56.1974 199.818 56.4634 199.539 56.7468C199.261 57.0302 198.891 57.2713 198.428 57.4702C197.966 57.669 197.402 57.7685 196.735 57.7685ZM197.004 56.1875C197.7 56.1875 198.287 56.0508 198.764 55.7773C199.246 55.5039 199.609 55.1509 199.853 54.7184C200.101 54.2859 200.225 53.831 200.225 53.3537V51.7429C200.151 51.8324 199.987 51.9144 199.733 51.989C199.485 52.0586 199.196 52.1207 198.868 52.1754C198.545 52.2251 198.229 52.2699 197.921 52.3097C197.618 52.3445 197.372 52.3743 197.183 52.3991C196.725 52.4588 196.298 52.5558 195.9 52.69C195.507 52.8192 195.189 53.0156 194.946 53.2791C194.707 53.5376 194.588 53.8906 194.588 54.3381C194.588 54.9496 194.814 55.4119 195.266 55.7251C195.724 56.0334 196.303 56.1875 197.004 56.1875ZM195.572 44.6733L194.2 44.6136C194.2 43.853 194.416 43.2315 194.849 42.7493C195.286 42.2621 195.826 42.0185 196.467 42.0185C196.75 42.0185 197.001 42.0682 197.22 42.1676C197.439 42.2621 197.648 42.3714 197.847 42.4957C198.045 42.62 198.249 42.7319 198.458 42.8313C198.672 42.9258 198.913 42.973 199.181 42.973C199.465 42.973 199.703 42.8636 199.897 42.6449C200.096 42.4212 200.196 42.1527 200.196 41.8395L201.538 41.9588C201.538 42.7344 201.319 43.3509 200.882 43.8082C200.449 44.2656 199.912 44.4943 199.271 44.4943C198.928 44.4943 198.645 44.4471 198.421 44.3526C198.197 44.2532 197.998 44.1413 197.824 44.017C197.65 43.8928 197.466 43.7834 197.272 43.6889C197.078 43.5895 196.84 43.5398 196.556 43.5398C196.273 43.5398 196.037 43.6516 195.848 43.8754C195.664 44.0941 195.572 44.3601 195.572 44.6733ZM209.851 57.7386C208.817 57.7386 207.91 57.4925 207.129 57.0004C206.354 56.5082 205.747 55.8196 205.31 54.9347C204.877 54.0497 204.661 53.0156 204.661 51.8324C204.661 50.6392 204.877 49.5977 205.31 48.7077C205.747 47.8178 206.354 47.1268 207.129 46.6346C207.91 46.1424 208.817 45.8963 209.851 45.8963C210.885 45.8963 211.79 46.1424 212.566 46.6346C213.346 47.1268 213.953 47.8178 214.385 48.7077C214.823 49.5977 215.041 50.6392 215.041 51.8324C215.041 53.0156 214.823 54.0497 214.385 54.9347C213.953 55.8196 213.346 56.5082 212.566 57.0004C211.79 57.4925 210.885 57.7386 209.851 57.7386ZM209.851 56.1577C210.637 56.1577 211.283 55.9563 211.79 55.5536C212.297 55.1509 212.672 54.6214 212.916 53.9652C213.16 53.3089 213.282 52.598 213.282 51.8324C213.282 51.0668 213.16 50.3533 212.916 49.6921C212.672 49.0309 212.297 48.4964 211.79 48.0888C211.283 47.6811 210.637 47.4773 209.851 47.4773C209.066 47.4773 208.419 47.6811 207.912 48.0888C207.405 48.4964 207.03 49.0309 206.786 49.6921C206.543 50.3533 206.421 51.0668 206.421 51.8324C206.421 52.598 206.543 53.3089 206.786 53.9652C207.03 54.6214 207.405 55.1509 207.912 55.5536C208.419 55.9563 209.066 56.1577 209.851 56.1577ZM229.033 41.5114L224.112 59.7969H222.501L227.423 41.5114H229.033ZM237.264 57.5V42.2273H242.425C243.623 42.2273 244.603 42.4435 245.363 42.8761C246.129 43.3036 246.696 43.8828 247.063 44.6136C247.431 45.3445 247.615 46.1598 247.615 47.0597C247.615 47.9595 247.431 48.7773 247.063 49.5131C246.701 50.2489 246.139 50.8356 245.378 51.2731C244.617 51.7056 243.643 51.9219 242.455 51.9219H238.756V50.2812H242.395C243.215 50.2812 243.874 50.1396 244.371 49.8562C244.869 49.5728 245.229 49.19 245.453 48.7077C245.681 48.2205 245.796 47.6712 245.796 47.0597C245.796 46.4482 245.681 45.9013 245.453 45.419C245.229 44.9368 244.866 44.5589 244.364 44.2855C243.862 44.0071 243.196 43.8679 242.365 43.8679H239.114V57.5H237.264ZM250.356 57.5V46.0455H252.056V47.7756H252.176C252.384 47.2088 252.762 46.7489 253.309 46.396C253.856 46.043 254.472 45.8665 255.158 45.8665C255.288 45.8665 255.449 45.869 255.643 45.8739C255.837 45.8789 255.984 45.8864 256.083 45.8963V47.6861C256.024 47.6712 255.887 47.6488 255.673 47.619C255.464 47.5842 255.243 47.5668 255.009 47.5668C254.453 47.5668 253.955 47.6836 253.518 47.9173C253.085 48.146 252.742 48.4641 252.489 48.8718C252.24 49.2745 252.116 49.7344 252.116 50.2514V57.5H250.356ZM262.474 57.7386C261.44 57.7386 260.533 57.4925 259.752 57.0004C258.977 56.5082 258.37 55.8196 257.933 54.9347C257.5 54.0497 257.284 53.0156 257.284 51.8324C257.284 50.6392 257.5 49.5977 257.933 48.7077C258.37 47.8178 258.977 47.1268 259.752 46.6346C260.533 46.1424 261.44 45.8963 262.474 45.8963C263.508 45.8963 264.413 46.1424 265.189 46.6346C265.969 47.1268 266.576 47.8178 267.008 48.7077C267.446 49.5977 267.665 50.6392 267.665 51.8324C267.665 53.0156 267.446 54.0497 267.008 54.9347C266.576 55.8196 265.969 56.5082 265.189 57.0004C264.413 57.4925 263.508 57.7386 262.474 57.7386ZM262.474 56.1577C263.26 56.1577 263.906 55.9563 264.413 55.5536C264.92 55.1509 265.296 54.6214 265.539 53.9652C265.783 53.3089 265.905 52.598 265.905 51.8324C265.905 51.0668 265.783 50.3533 265.539 49.6921C265.296 49.0309 264.92 48.4964 264.413 48.0888C263.906 47.6811 263.26 47.4773 262.474 47.4773C261.689 47.4773 261.042 47.6811 260.535 48.0888C260.028 48.4964 259.653 49.0309 259.409 49.6921C259.166 50.3533 259.044 51.0668 259.044 51.8324C259.044 52.598 259.166 53.3089 259.409 53.9652C259.653 54.6214 260.028 55.1509 260.535 55.5536C261.042 55.9563 261.689 56.1577 262.474 56.1577ZM274.676 57.7386C273.722 57.7386 272.879 57.4975 272.148 57.0153C271.417 56.5281 270.846 55.842 270.433 54.957C270.02 54.0671 269.814 53.0156 269.814 51.8026C269.814 50.5994 270.02 49.5554 270.433 48.6705C270.846 47.7855 271.42 47.1019 272.156 46.6197C272.892 46.1374 273.742 45.8963 274.706 45.8963C275.452 45.8963 276.041 46.0206 276.474 46.2692C276.911 46.5128 277.244 46.7912 277.473 47.1044C277.706 47.4126 277.888 47.6662 278.017 47.8651H278.166V42.2273H279.926V57.5H278.226V55.7401H278.017C277.888 55.9489 277.704 56.2124 277.465 56.5305C277.227 56.8437 276.886 57.1246 276.444 57.3732C276.001 57.6168 275.412 57.7386 274.676 57.7386ZM274.915 56.1577C275.621 56.1577 276.218 55.9737 276.705 55.6058C277.192 55.233 277.562 54.7184 277.816 54.0621C278.069 53.4009 278.196 52.6378 278.196 51.7727C278.196 50.9176 278.072 50.1694 277.823 49.5281C277.575 48.8817 277.207 48.3796 276.72 48.0217C276.232 47.6587 275.631 47.4773 274.915 47.4773C274.169 47.4773 273.548 47.6687 273.051 48.0515C272.558 48.4293 272.188 48.9439 271.939 49.5952C271.696 50.2415 271.574 50.9673 271.574 51.7727C271.574 52.5881 271.698 53.3288 271.947 53.995C272.2 54.6562 272.573 55.1832 273.066 55.576C273.563 55.9638 274.179 56.1577 274.915 56.1577ZM290.613 52.8168V46.0455H292.373V57.5H290.613V55.5611H290.493C290.225 56.1428 289.807 56.6374 289.241 57.0451C288.674 57.4478 287.958 57.6491 287.093 57.6491C286.377 57.6491 285.741 57.4925 285.184 57.1793C284.627 56.8612 284.189 56.3839 283.871 55.7475C283.553 55.1062 283.394 54.2983 283.394 53.3239V46.0455H285.154V53.2045C285.154 54.0398 285.388 54.706 285.855 55.2031C286.327 55.7003 286.929 55.9489 287.66 55.9489C288.097 55.9489 288.542 55.837 288.994 55.6133C289.452 55.3896 289.835 55.0465 290.143 54.5842C290.456 54.1218 290.613 53.5327 290.613 52.8168ZM300.578 46.0455V47.5369H294.642V46.0455H300.578ZM296.372 43.3011H298.132V54.2188C298.132 54.7159 298.204 55.0888 298.348 55.3374C298.497 55.581 298.686 55.745 298.915 55.8295C299.148 55.9091 299.394 55.9489 299.653 55.9489C299.847 55.9489 300.006 55.9389 300.13 55.919C300.255 55.8942 300.354 55.8743 300.429 55.8594L300.786 57.4403C300.667 57.4851 300.501 57.5298 300.287 57.5746C300.073 57.6243 299.802 57.6491 299.474 57.6491C298.977 57.6491 298.49 57.5423 298.012 57.3285C297.54 57.1147 297.147 56.7891 296.834 56.3516C296.526 55.9141 296.372 55.3622 296.372 54.696V43.3011ZM307.755 57.7386C306.721 57.7386 305.814 57.4925 305.033 57.0004C304.258 56.5082 303.651 55.8196 303.214 54.9347C302.781 54.0497 302.565 53.0156 302.565 51.8324C302.565 50.6392 302.781 49.5977 303.214 48.7077C303.651 47.8178 304.258 47.1268 305.033 46.6346C305.814 46.1424 306.721 45.8963 307.755 45.8963C308.79 45.8963 309.694 46.1424 310.47 46.6346C311.25 47.1268 311.857 47.8178 312.29 48.7077C312.727 49.5977 312.946 50.6392 312.946 51.8324C312.946 53.0156 312.727 54.0497 312.29 54.9347C311.857 55.8196 311.25 56.5082 310.47 57.0004C309.694 57.4925 308.79 57.7386 307.755 57.7386ZM307.755 56.1577C308.541 56.1577 309.187 55.9563 309.694 55.5536C310.201 55.1509 310.577 54.6214 310.82 53.9652C311.064 53.3089 311.186 52.598 311.186 51.8324C311.186 51.0668 311.064 50.3533 310.82 49.6921C310.577 49.0309 310.201 48.4964 309.694 48.0888C309.187 47.6811 308.541 47.4773 307.755 47.4773C306.97 47.4773 306.324 47.6811 305.816 48.0888C305.309 48.4964 304.934 49.0309 304.69 49.6921C304.447 50.3533 304.325 51.0668 304.325 51.8324C304.325 52.598 304.447 53.3089 304.69 53.9652C304.934 54.6214 305.309 55.1509 305.816 55.5536C306.324 55.9563 306.97 56.1577 307.755 56.1577ZM326.49 57.5H321.777V42.2273H326.699C328.181 42.2273 329.448 42.533 330.502 43.1445C331.556 43.7511 332.364 44.6236 332.926 45.7621C333.488 46.8956 333.769 48.2528 333.769 49.8338C333.769 51.4247 333.485 52.7944 332.919 53.9428C332.352 55.0863 331.526 55.9663 330.443 56.5827C329.359 57.1942 328.041 57.5 326.49 57.5ZM323.627 55.8594H326.371C327.634 55.8594 328.68 55.6158 329.51 55.1286C330.341 54.6413 330.96 53.9478 331.367 53.0479C331.775 52.1481 331.979 51.0767 331.979 49.8338C331.979 48.6009 331.778 47.5394 331.375 46.6495C330.972 45.7546 330.371 45.0685 329.57 44.5913C328.77 44.109 327.773 43.8679 326.58 43.8679H323.627V55.8594ZM336.632 57.5V46.0455H338.392V57.5H336.632ZM337.527 44.1364C337.184 44.1364 336.888 44.0195 336.64 43.7859C336.396 43.5522 336.274 43.2713 336.274 42.9432C336.274 42.6151 336.396 42.3342 336.64 42.1005C336.888 41.8668 337.184 41.75 337.527 41.75C337.87 41.75 338.164 41.8668 338.407 42.1005C338.656 42.3342 338.78 42.6151 338.78 42.9432C338.78 43.2713 338.656 43.5522 338.407 43.7859C338.164 44.0195 337.87 44.1364 337.527 44.1364ZM346.239 62.0341C345.389 62.0341 344.658 61.9247 344.047 61.706C343.435 61.4922 342.926 61.2088 342.518 60.8558C342.115 60.5078 341.795 60.1349 341.556 59.7372L342.958 58.7528C343.117 58.9616 343.318 59.2003 343.562 59.4688C343.806 59.7422 344.139 59.9783 344.561 60.1772C344.989 60.381 345.548 60.483 346.239 60.483C347.164 60.483 347.927 60.2592 348.529 59.8118C349.13 59.3643 349.431 58.6634 349.431 57.7088V55.3821H349.282C349.153 55.5909 348.969 55.8494 348.73 56.1577C348.496 56.4609 348.158 56.7319 347.716 56.9705C347.278 57.2042 346.687 57.321 345.941 57.321C345.016 57.321 344.186 57.1023 343.45 56.6648C342.719 56.2273 342.14 55.5909 341.713 54.7557C341.29 53.9205 341.079 52.9062 341.079 51.7131C341.079 50.5398 341.285 49.5181 341.698 48.6481C342.11 47.7731 342.685 47.0969 343.42 46.6197C344.156 46.1374 345.006 45.8963 345.971 45.8963C346.717 45.8963 347.308 46.0206 347.746 46.2692C348.188 46.5128 348.526 46.7912 348.76 47.1044C348.998 47.4126 349.182 47.6662 349.312 47.8651H349.491V46.0455H351.191V57.8281C351.191 58.8125 350.967 59.6129 350.52 60.2294C350.077 60.8509 349.481 61.3058 348.73 61.5941C347.984 61.8874 347.154 62.0341 346.239 62.0341ZM346.18 55.7401C346.886 55.7401 347.482 55.5785 347.969 55.2553C348.457 54.9322 348.827 54.4673 349.081 53.8608C349.334 53.2543 349.461 52.5284 349.461 51.6832C349.461 50.858 349.337 50.1296 349.088 49.4982C348.839 48.8668 348.472 48.3722 347.984 48.0142C347.497 47.6562 346.896 47.4773 346.18 47.4773C345.434 47.4773 344.812 47.6662 344.315 48.044C343.823 48.4219 343.453 48.929 343.204 49.5653C342.96 50.2017 342.839 50.9077 342.839 51.6832C342.839 52.4787 342.963 53.1822 343.212 53.7937C343.465 54.4002 343.838 54.8775 344.33 55.2255C344.827 55.5685 345.444 55.7401 346.18 55.7401ZM354.413 57.5V46.0455H356.172V57.5H354.413ZM355.307 44.1364C354.964 44.1364 354.669 44.0195 354.42 43.7859C354.176 43.5522 354.055 43.2713 354.055 42.9432C354.055 42.6151 354.176 42.3342 354.42 42.1005C354.669 41.8668 354.964 41.75 355.307 41.75C355.65 41.75 355.944 41.8668 356.187 42.1005C356.436 42.3342 356.56 42.6151 356.56 42.9432C356.56 43.2713 356.436 43.5522 356.187 43.7859C355.944 44.0195 355.65 44.1364 355.307 44.1364ZM364.377 46.0455V47.5369H358.441V46.0455H364.377ZM360.172 43.3011H361.931V54.2188C361.931 54.7159 362.004 55.0888 362.148 55.3374C362.297 55.581 362.486 55.745 362.714 55.8295C362.948 55.9091 363.194 55.9489 363.453 55.9489C363.647 55.9489 363.806 55.9389 363.93 55.919C364.054 55.8942 364.154 55.8743 364.228 55.8594L364.586 57.4403C364.467 57.4851 364.3 57.5298 364.087 57.5746C363.873 57.6243 363.602 57.6491 363.274 57.6491C362.777 57.6491 362.289 57.5423 361.812 57.3285C361.34 57.1147 360.947 56.7891 360.634 56.3516C360.326 55.9141 360.172 55.3622 360.172 54.696V43.3011ZM370.396 57.7685C369.67 57.7685 369.011 57.6317 368.419 57.3583C367.828 57.0799 367.358 56.6797 367.01 56.1577C366.662 55.6307 366.488 54.9943 366.488 54.2486C366.488 53.5923 366.617 53.0604 366.876 52.6527C367.134 52.2401 367.48 51.9169 367.912 51.6832C368.345 51.4496 368.822 51.2756 369.344 51.1612C369.871 51.0419 370.401 50.9474 370.933 50.8778C371.629 50.7884 372.193 50.7212 372.625 50.6765C373.063 50.6268 373.381 50.5447 373.58 50.4304C373.784 50.3161 373.886 50.1172 373.886 49.8338V49.7741C373.886 49.0384 373.684 48.4666 373.282 48.0589C372.884 47.6513 372.28 47.4474 371.469 47.4474C370.629 47.4474 369.971 47.6314 369.493 47.9993C369.016 48.3672 368.68 48.7599 368.487 49.1776L366.816 48.581C367.114 47.8849 367.512 47.343 368.009 46.9553C368.511 46.5625 369.058 46.2891 369.65 46.1349C370.246 45.9759 370.833 45.8963 371.41 45.8963C371.778 45.8963 372.2 45.9411 372.678 46.0305C373.16 46.1151 373.625 46.2915 374.072 46.56C374.525 46.8285 374.9 47.2337 375.198 47.7756C375.496 48.3175 375.646 49.0433 375.646 49.9531V57.5H373.886V55.9489H373.796C373.677 56.1974 373.478 56.4634 373.2 56.7468C372.921 57.0302 372.551 57.2713 372.088 57.4702C371.626 57.669 371.062 57.7685 370.396 57.7685ZM370.664 56.1875C371.36 56.1875 371.947 56.0508 372.424 55.7773C372.906 55.5039 373.269 55.1509 373.513 54.7184C373.761 54.2859 373.886 53.831 373.886 53.3537V51.7429C373.811 51.8324 373.647 51.9144 373.393 51.989C373.145 52.0586 372.857 52.1207 372.528 52.1754C372.205 52.2251 371.89 52.2699 371.581 52.3097C371.278 52.3445 371.032 52.3743 370.843 52.3991C370.386 52.4588 369.958 52.5558 369.56 52.69C369.168 52.8192 368.849 53.0156 368.606 53.2791C368.367 53.5376 368.248 53.8906 368.248 54.3381C368.248 54.9496 368.474 55.4119 368.926 55.7251C369.384 56.0334 369.963 56.1875 370.664 56.1875ZM380.618 42.2273V57.5H378.858V42.2273H380.618Z" fill="#788896"/>
<path d="M1155 23H1008V79.5H1155V23Z" stroke="#C3CFD9" stroke-width="2"/>
<path d="M1028.82 44.8409H1030.4L1034.11 53.8963H1034.23L1037.94 44.8409H1039.52V55.75H1038.28V47.4616H1038.17L1034.77 55.75H1033.57L1030.16 47.4616H1030.06V55.75H1028.82V44.8409ZM1044.4 55.9418C1043.88 55.9418 1043.41 55.8441 1042.99 55.6488C1042.57 55.4499 1042.23 55.1641 1041.98 54.7912C1041.74 54.4148 1041.61 53.9602 1041.61 53.4276C1041.61 52.9588 1041.7 52.5788 1041.89 52.2876C1042.07 51.9929 1042.32 51.7621 1042.63 51.5952C1042.94 51.4283 1043.28 51.304 1043.65 51.2223C1044.03 51.1371 1044.41 51.0696 1044.79 51.0199C1045.28 50.956 1045.69 50.908 1046 50.8761C1046.31 50.8406 1046.54 50.782 1046.68 50.7003C1046.82 50.6186 1046.9 50.4766 1046.9 50.2741V50.2315C1046.9 49.706 1046.75 49.2976 1046.46 49.0064C1046.18 48.7152 1045.75 48.5696 1045.17 48.5696C1044.57 48.5696 1044.1 48.701 1043.76 48.9638C1043.42 49.2266 1043.18 49.5071 1043.04 49.8054L1041.85 49.3793C1042.06 48.8821 1042.34 48.495 1042.7 48.218C1043.06 47.9375 1043.45 47.7422 1043.87 47.6321C1044.3 47.5185 1044.72 47.4616 1045.13 47.4616C1045.39 47.4616 1045.69 47.4936 1046.03 47.5575C1046.38 47.6179 1046.71 47.744 1047.03 47.9357C1047.35 48.1275 1047.62 48.4169 1047.83 48.804C1048.05 49.1911 1048.15 49.7095 1048.15 50.3594V55.75H1046.9V54.642H1046.83C1046.75 54.8196 1046.6 55.0096 1046.41 55.212C1046.21 55.4144 1045.94 55.5866 1045.61 55.7287C1045.28 55.8707 1044.88 55.9418 1044.4 55.9418ZM1044.59 54.8125C1045.09 54.8125 1045.51 54.7148 1045.85 54.5195C1046.2 54.3242 1046.46 54.0721 1046.63 53.7631C1046.81 53.4542 1046.9 53.1293 1046.9 52.7884V51.6378C1046.84 51.7017 1046.73 51.7603 1046.54 51.8136C1046.37 51.8633 1046.16 51.9077 1045.93 51.9467C1045.7 51.9822 1045.47 52.0142 1045.25 52.0426C1045.03 52.0675 1044.86 52.0888 1044.72 52.1065C1044.4 52.1491 1044.09 52.2184 1043.81 52.3143C1043.53 52.4066 1043.3 52.5469 1043.12 52.7351C1042.95 52.9197 1042.87 53.1719 1042.87 53.4915C1042.87 53.9283 1043.03 54.2585 1043.35 54.4822C1043.68 54.7024 1044.09 54.8125 1044.59 54.8125ZM1050.45 55.75V47.5682H1051.66V48.804H1051.75C1051.9 48.3991 1052.17 48.0707 1052.56 47.8185C1052.95 47.5664 1053.39 47.4403 1053.88 47.4403C1053.97 47.4403 1054.09 47.4421 1054.22 47.4457C1054.36 47.4492 1054.47 47.4545 1054.54 47.4616V48.7401C1054.5 48.7294 1054.4 48.7134 1054.25 48.6921C1054.1 48.6673 1053.94 48.6548 1053.77 48.6548C1053.37 48.6548 1053.02 48.7383 1052.71 48.9052C1052.4 49.0685 1052.15 49.2958 1051.97 49.587C1051.79 49.8746 1051.7 50.2031 1051.7 50.5724V55.75H1050.45ZM1059.1 55.9205C1058.34 55.9205 1057.68 55.7393 1057.12 55.3771C1056.57 55.0149 1056.14 54.516 1055.84 53.8803C1055.55 53.2447 1055.4 52.5185 1055.4 51.7017C1055.4 50.8707 1055.55 50.1374 1055.85 49.5018C1056.16 48.8626 1056.59 48.3636 1057.14 48.005C1057.7 47.6428 1058.34 47.4616 1059.08 47.4616C1059.66 47.4616 1060.18 47.5682 1060.64 47.7812C1061.1 47.9943 1061.48 48.2926 1061.77 48.6761C1062.07 49.0597 1062.25 49.5071 1062.32 50.0185H1061.06C1060.97 49.6456 1060.75 49.3153 1060.42 49.0277C1060.1 48.7365 1059.66 48.5909 1059.1 48.5909C1058.61 48.5909 1058.18 48.7187 1057.81 48.9744C1057.45 49.2266 1057.16 49.5835 1056.96 50.0451C1056.75 50.5032 1056.65 51.0412 1056.65 51.6591C1056.65 52.2912 1056.75 52.8416 1056.95 53.3104C1057.15 53.7791 1057.44 54.1431 1057.8 54.4023C1058.17 54.6616 1058.61 54.7912 1059.1 54.7912C1059.43 54.7912 1059.73 54.7344 1059.99 54.6207C1060.26 54.5071 1060.48 54.3438 1060.67 54.1307C1060.85 53.9176 1060.99 53.6619 1061.06 53.3636H1062.32C1062.25 53.8466 1062.07 54.2816 1061.79 54.6687C1061.52 55.0522 1061.15 55.3576 1060.69 55.5849C1060.24 55.8086 1059.71 55.9205 1059.1 55.9205ZM1066.57 55.9418C1066.05 55.9418 1065.58 55.8441 1065.15 55.6488C1064.73 55.4499 1064.4 55.1641 1064.15 54.7912C1063.9 54.4148 1063.77 53.9602 1063.77 53.4276C1063.77 52.9588 1063.87 52.5788 1064.05 52.2876C1064.24 51.9929 1064.48 51.7621 1064.79 51.5952C1065.1 51.4283 1065.44 51.304 1065.81 51.2223C1066.19 51.1371 1066.57 51.0696 1066.95 51.0199C1067.45 50.956 1067.85 50.908 1068.16 50.8761C1068.47 50.8406 1068.7 50.782 1068.84 50.7003C1068.99 50.6186 1069.06 50.4766 1069.06 50.2741V50.2315C1069.06 49.706 1068.92 49.2976 1068.63 49.0064C1068.34 48.7152 1067.91 48.5696 1067.33 48.5696C1066.73 48.5696 1066.26 48.701 1065.92 48.9638C1065.58 49.2266 1065.34 49.5071 1065.2 49.8054L1064.01 49.3793C1064.22 48.8821 1064.51 48.495 1064.86 48.218C1065.22 47.9375 1065.61 47.7422 1066.03 47.6321C1066.46 47.5185 1066.88 47.4616 1067.29 47.4616C1067.55 47.4616 1067.86 47.4936 1068.2 47.5575C1068.54 47.6179 1068.87 47.744 1069.19 47.9357C1069.52 48.1275 1069.78 48.4169 1070 48.804C1070.21 49.1911 1070.32 49.7095 1070.32 50.3594V55.75H1069.06V54.642H1069C1068.91 54.8196 1068.77 55.0096 1068.57 55.212C1068.37 55.4144 1068.11 55.5866 1067.78 55.7287C1067.44 55.8707 1067.04 55.9418 1066.57 55.9418ZM1066.76 54.8125C1067.25 54.8125 1067.67 54.7148 1068.01 54.5195C1068.36 54.3242 1068.62 54.0721 1068.79 53.7631C1068.97 53.4542 1069.06 53.1293 1069.06 52.7884V51.6378C1069.01 51.7017 1068.89 51.7603 1068.71 51.8136C1068.53 51.8633 1068.32 51.9077 1068.09 51.9467C1067.86 51.9822 1067.63 52.0142 1067.41 52.0426C1067.2 52.0675 1067.02 52.0888 1066.89 52.1065C1066.56 52.1491 1066.25 52.2184 1065.97 52.3143C1065.69 52.4066 1065.46 52.5469 1065.29 52.7351C1065.12 52.9197 1065.03 53.1719 1065.03 53.4915C1065.03 53.9283 1065.19 54.2585 1065.52 54.4822C1065.84 54.7024 1066.26 54.8125 1066.76 54.8125ZM1077 55.75V44.8409H1080.69C1081.54 44.8409 1082.24 44.9954 1082.78 45.3043C1083.33 45.6097 1083.74 46.0234 1084 46.5455C1084.26 47.0675 1084.39 47.6499 1084.39 48.2926C1084.39 48.9354 1084.26 49.5195 1084 50.0451C1083.74 50.5707 1083.34 50.9897 1082.8 51.3022C1082.25 51.6112 1081.56 51.7656 1080.71 51.7656H1078.07V50.5938H1080.66C1081.25 50.5938 1081.72 50.4925 1082.08 50.2901C1082.43 50.0877 1082.69 49.8143 1082.85 49.4698C1083.01 49.1218 1083.09 48.7294 1083.09 48.2926C1083.09 47.8558 1083.01 47.4652 1082.85 47.1207C1082.69 46.7763 1082.43 46.5064 1082.07 46.3111C1081.71 46.1122 1081.24 46.0128 1080.64 46.0128H1078.32V55.75H1077ZM1089.69 55.9205C1088.9 55.9205 1088.22 55.7464 1087.65 55.3984C1087.08 55.0469 1086.65 54.5568 1086.34 53.9283C1086.03 53.2962 1085.88 52.5611 1085.88 51.723C1085.88 50.8849 1086.03 50.1463 1086.34 49.5071C1086.65 48.8643 1087.08 48.3636 1087.63 48.005C1088.18 47.6428 1088.83 47.4616 1089.57 47.4616C1089.99 47.4616 1090.41 47.5327 1090.83 47.6747C1091.24 47.8168 1091.62 48.0476 1091.96 48.3672C1092.3 48.6832 1092.58 49.1023 1092.78 49.6243C1092.98 50.1463 1093.08 50.7891 1093.08 51.5526V52.0852H1086.77V50.9986H1091.8C1091.8 50.5369 1091.71 50.125 1091.53 49.7628C1091.34 49.4006 1091.09 49.1147 1090.75 48.9052C1090.41 48.6957 1090.02 48.5909 1089.57 48.5909C1089.06 48.5909 1088.63 48.7152 1088.27 48.9638C1087.9 49.2088 1087.62 49.5284 1087.43 49.9226C1087.23 50.3168 1087.14 50.7393 1087.14 51.1903V51.9148C1087.14 52.5327 1087.24 53.0565 1087.46 53.4862C1087.67 53.9123 1087.97 54.2372 1088.36 54.4609C1088.74 54.6811 1089.19 54.7912 1089.69 54.7912C1090.02 54.7912 1090.32 54.745 1090.59 54.6527C1090.86 54.5568 1091.09 54.4148 1091.29 54.2266C1091.48 54.0348 1091.63 53.7969 1091.74 53.5128L1092.95 53.8537C1092.83 54.2656 1092.61 54.6278 1092.31 54.9403C1092.01 55.2493 1091.63 55.4908 1091.19 55.6648C1090.75 55.8352 1090.25 55.9205 1089.69 55.9205ZM1098.55 47.5682V48.6335H1094.31V47.5682H1098.55ZM1095.55 45.608H1096.8V53.4062C1096.8 53.7614 1096.86 54.0277 1096.96 54.2053C1097.07 54.3793 1097.2 54.4964 1097.36 54.5568C1097.53 54.6136 1097.71 54.642 1097.89 54.642C1098.03 54.642 1098.14 54.6349 1098.23 54.6207C1098.32 54.603 1098.39 54.5888 1098.45 54.5781L1098.7 55.7074C1098.62 55.7393 1098.5 55.7713 1098.34 55.8033C1098.19 55.8388 1098 55.8565 1097.76 55.8565C1097.41 55.8565 1097.06 55.7802 1096.72 55.6275C1096.38 55.4748 1096.1 55.2422 1095.88 54.9297C1095.66 54.6172 1095.55 54.223 1095.55 53.7472V45.608ZM1100.44 55.75V47.5682H1101.66V48.804H1101.74C1101.89 48.3991 1102.16 48.0707 1102.55 47.8185C1102.94 47.5664 1103.38 47.4403 1103.87 47.4403C1103.97 47.4403 1104.08 47.4421 1104.22 47.4457C1104.36 47.4492 1104.46 47.4545 1104.53 47.4616V48.7401C1104.49 48.7294 1104.39 48.7134 1104.24 48.6921C1104.09 48.6673 1103.93 48.6548 1103.77 48.6548C1103.37 48.6548 1103.01 48.7383 1102.7 48.9052C1102.39 49.0685 1102.15 49.2958 1101.97 49.587C1101.79 49.8746 1101.7 50.2031 1101.7 50.5724V55.75H1100.44ZM1109.1 55.9205C1108.36 55.9205 1107.71 55.7447 1107.15 55.3931C1106.6 55.0415 1106.17 54.5497 1105.85 53.9176C1105.55 53.2855 1105.39 52.5469 1105.39 51.7017C1105.39 50.8494 1105.55 50.1055 1105.85 49.4698C1106.17 48.8342 1106.6 48.3406 1107.15 47.989C1107.71 47.6374 1108.36 47.4616 1109.1 47.4616C1109.84 47.4616 1110.48 47.6374 1111.04 47.989C1111.59 48.3406 1112.03 48.8342 1112.34 49.4698C1112.65 50.1055 1112.81 50.8494 1112.81 51.7017C1112.81 52.5469 1112.65 53.2855 1112.34 53.9176C1112.03 54.5497 1111.59 55.0415 1111.04 55.3931C1110.48 55.7447 1109.84 55.9205 1109.1 55.9205ZM1109.1 54.7912C1109.66 54.7912 1110.12 54.6474 1110.48 54.3597C1110.85 54.0721 1111.11 53.6939 1111.29 53.2251C1111.46 52.7564 1111.55 52.2486 1111.55 51.7017C1111.55 51.1548 1111.46 50.6452 1111.29 50.1729C1111.11 49.7006 1110.85 49.3189 1110.48 49.0277C1110.12 48.7365 1109.66 48.5909 1109.1 48.5909C1108.54 48.5909 1108.08 48.7365 1107.71 49.0277C1107.35 49.3189 1107.08 49.7006 1106.91 50.1729C1106.74 50.6452 1106.65 51.1548 1106.65 51.7017C1106.65 52.2486 1106.74 52.7564 1106.91 53.2251C1107.08 53.6939 1107.35 54.0721 1107.71 54.3597C1108.08 54.6474 1108.54 54.7912 1109.1 54.7912ZM1114.9 55.75V44.8409H1116.15V48.8679H1116.26C1116.35 48.7259 1116.48 48.5447 1116.64 48.3246C1116.81 48.1009 1117.05 47.902 1117.36 47.728C1117.67 47.5504 1118.09 47.4616 1118.62 47.4616C1119.31 47.4616 1119.92 47.6339 1120.45 47.9783C1120.97 48.3228 1121.38 48.8111 1121.68 49.4432C1121.97 50.0753 1122.12 50.821 1122.12 51.6804C1122.12 52.5469 1121.97 53.2979 1121.68 53.9336C1121.38 54.5657 1120.97 55.0558 1120.45 55.4038C1119.93 55.7482 1119.33 55.9205 1118.65 55.9205C1118.12 55.9205 1117.7 55.8335 1117.38 55.6594C1117.07 55.4819 1116.82 55.2812 1116.65 55.0575C1116.48 54.8303 1116.35 54.642 1116.26 54.4929H1116.11V55.75H1114.9ZM1116.13 51.6591C1116.13 52.277 1116.22 52.8221 1116.4 53.2944C1116.58 53.7631 1116.85 54.1307 1117.2 54.397C1117.54 54.6598 1117.97 54.7912 1118.47 54.7912C1119 54.7912 1119.44 54.6527 1119.79 54.3757C1120.15 54.0952 1120.41 53.7187 1120.59 53.2464C1120.77 52.7706 1120.86 52.2415 1120.86 51.6591C1120.86 51.0838 1120.77 50.5653 1120.59 50.1037C1120.42 49.6385 1120.16 49.271 1119.8 49.0011C1119.45 48.7276 1119.01 48.5909 1118.47 48.5909C1117.96 48.5909 1117.53 48.7205 1117.19 48.9798C1116.84 49.2354 1116.57 49.5941 1116.4 50.0558C1116.22 50.5138 1116.13 51.0483 1116.13 51.6591ZM1124.04 55.75V47.5682H1125.26V48.804H1125.34C1125.49 48.3991 1125.76 48.0707 1126.15 47.8185C1126.54 47.5664 1126.98 47.4403 1127.47 47.4403C1127.56 47.4403 1127.68 47.4421 1127.82 47.4457C1127.96 47.4492 1128.06 47.4545 1128.13 47.4616V48.7401C1128.09 48.7294 1127.99 48.7134 1127.84 48.6921C1127.69 48.6673 1127.53 48.6548 1127.37 48.6548C1126.97 48.6548 1126.61 48.7383 1126.3 48.9052C1125.99 49.0685 1125.75 49.2958 1125.56 49.587C1125.39 49.8746 1125.3 50.2031 1125.3 50.5724V55.75H1124.04ZM1132.03 55.9418C1131.51 55.9418 1131.04 55.8441 1130.62 55.6488C1130.2 55.4499 1129.86 55.1641 1129.61 54.7912C1129.36 54.4148 1129.24 53.9602 1129.24 53.4276C1129.24 52.9588 1129.33 52.5788 1129.52 52.2876C1129.7 51.9929 1129.95 51.7621 1130.26 51.5952C1130.57 51.4283 1130.91 51.304 1131.28 51.2223C1131.66 51.1371 1132.03 51.0696 1132.41 51.0199C1132.91 50.956 1133.31 50.908 1133.62 50.8761C1133.94 50.8406 1134.16 50.782 1134.3 50.7003C1134.45 50.6186 1134.52 50.4766 1134.52 50.2741V50.2315C1134.52 49.706 1134.38 49.2976 1134.09 49.0064C1133.81 48.7152 1133.38 48.5696 1132.8 48.5696C1132.2 48.5696 1131.73 48.701 1131.39 48.9638C1131.04 49.2266 1130.8 49.5071 1130.67 49.8054L1129.47 49.3793C1129.69 48.8821 1129.97 48.495 1130.33 48.218C1130.68 47.9375 1131.07 47.7422 1131.5 47.6321C1131.92 47.5185 1132.34 47.4616 1132.75 47.4616C1133.02 47.4616 1133.32 47.4936 1133.66 47.5575C1134 47.6179 1134.34 47.744 1134.66 47.9357C1134.98 48.1275 1135.25 48.4169 1135.46 48.804C1135.67 49.1911 1135.78 49.7095 1135.78 50.3594V55.75H1134.52V54.642H1134.46C1134.37 54.8196 1134.23 55.0096 1134.03 55.212C1133.83 55.4144 1133.57 55.5866 1133.24 55.7287C1132.91 55.8707 1132.51 55.9418 1132.03 55.9418ZM1132.22 54.8125C1132.72 54.8125 1133.14 54.7148 1133.48 54.5195C1133.82 54.3242 1134.08 54.0721 1134.26 53.7631C1134.43 53.4542 1134.52 53.1293 1134.52 52.7884V51.6378C1134.47 51.7017 1134.35 51.7603 1134.17 51.8136C1133.99 51.8633 1133.79 51.9077 1133.55 51.9467C1133.32 51.9822 1133.1 52.0142 1132.88 52.0426C1132.66 52.0675 1132.48 52.0888 1132.35 52.1065C1132.02 52.1491 1131.72 52.2184 1131.43 52.3143C1131.15 52.4066 1130.93 52.5469 1130.75 52.7351C1130.58 52.9197 1130.5 53.1719 1130.5 53.4915C1130.5 53.9283 1130.66 54.2585 1130.98 54.4822C1131.31 54.7024 1131.72 54.8125 1132.22 54.8125ZM1143.87 49.4006L1142.74 49.7202C1142.67 49.532 1142.56 49.3491 1142.43 49.1715C1142.29 48.9904 1142.11 48.8413 1141.87 48.7241C1141.64 48.6069 1141.34 48.5483 1140.97 48.5483C1140.47 48.5483 1140.05 48.6637 1139.72 48.8945C1139.39 49.1218 1139.22 49.4112 1139.22 49.7628C1139.22 50.0753 1139.34 50.3221 1139.57 50.5032C1139.79 50.6843 1140.15 50.8352 1140.63 50.956L1141.85 51.2543C1142.58 51.4318 1143.12 51.7035 1143.48 52.0692C1143.84 52.4315 1144.02 52.8984 1144.02 53.4702C1144.02 53.9389 1143.88 54.358 1143.61 54.7273C1143.35 55.0966 1142.97 55.3878 1142.5 55.6009C1142.02 55.8139 1141.46 55.9205 1140.82 55.9205C1139.99 55.9205 1139.3 55.7393 1138.75 55.3771C1138.2 55.0149 1137.86 54.4858 1137.71 53.7898L1138.91 53.4915C1139.02 53.9318 1139.23 54.2621 1139.55 54.4822C1139.87 54.7024 1140.29 54.8125 1140.8 54.8125C1141.39 54.8125 1141.85 54.6882 1142.2 54.4396C1142.55 54.1875 1142.72 53.8857 1142.72 53.5341C1142.72 53.25 1142.62 53.0121 1142.42 52.8203C1142.22 52.625 1141.92 52.4794 1141.5 52.3835L1140.14 52.0639C1139.39 51.8864 1138.84 51.6112 1138.49 51.2383C1138.14 50.8619 1137.97 50.3913 1137.97 49.8267C1137.97 49.3651 1138.1 48.9567 1138.36 48.6016C1138.62 48.2464 1138.98 47.9677 1139.43 47.7653C1139.88 47.5629 1140.4 47.4616 1140.97 47.4616C1141.78 47.4616 1142.42 47.6392 1142.88 47.9943C1143.34 48.3494 1143.67 48.8182 1143.87 49.4006Z" fill="#788896"/>
<path d="M1170 96H8V254H1170V96Z" fill="#F2F5F7" stroke="#C3CFD9" stroke-width="2"/>
<defs>
<clipPath id="clip0_1_2100">
<rect width="26" height="26" fill="white" transform="translate(830.5 38.9165)"/>
</clipPath>
<clipPath id="clip1_1_2100">
<rect width="27.5294" height="27.5294" fill="white" transform="translate(867.99 38.2207)"/>
</clipPath>
<clipPath id="clip2_1_2100">
<rect width="26" height="26" fill="white" transform="translate(907.01 38.9165)"/>
</clipPath>
<clipPath id="clip3_1_2100">
<rect width="26" height="26" fill="white" transform="translate(944.5 38.9165)"/>
</clipPath>
</defs>
</svg>
