<svg width="1178" height="262" viewBox="0 0 1178 262" fill="none" xmlns="http://www.w3.org/2000/svg">
<rect width="1178" height="262" fill="white"/>
<path d="M1170 182H8V254H1170V182Z" fill="#F2F5F7" stroke="#C3CFD9" stroke-width="2"/>
<path d="M1170 9H8V97H1170V9Z" stroke="#C3CFD9" stroke-width="2"/>
<path d="M664.5 33.5H478.75C468.809 33.5 460.75 41.5589 460.75 51.5C460.75 61.4411 468.809 69.5 478.75 69.5H664.5C674.441 69.5 682.5 61.4411 682.5 51.5C682.5 41.5589 674.441 33.5 664.5 33.5Z" stroke="#9EADBA" stroke-width="2" stroke-linecap="round" stroke-linejoin="round"/>
<path d="M37.4602 44.9773V60.25H35.6705L27.348 48.2585H27.1989V60.25H25.3494V44.9773H27.1392L35.4915 56.9986H35.6406V44.9773H37.4602ZM45.5757 60.4886C44.5416 60.4886 43.6343 60.2425 42.8538 59.7504C42.0782 59.2582 41.4717 58.5696 41.0342 57.6847C40.6017 56.7997 40.3854 55.7656 40.3854 54.5824C40.3854 53.3892 40.6017 52.3477 41.0342 51.4577C41.4717 50.5678 42.0782 49.8768 42.8538 49.3846C43.6343 48.8924 44.5416 48.6463 45.5757 48.6463C46.6098 48.6463 47.5146 48.8924 48.2902 49.3846C49.0708 49.8768 49.6773 50.5678 50.1098 51.4577C50.5473 52.3477 50.7661 53.3892 50.7661 54.5824C50.7661 55.7656 50.5473 56.7997 50.1098 57.6847C49.6773 58.5696 49.0708 59.2582 48.2902 59.7504C47.5146 60.2425 46.6098 60.4886 45.5757 60.4886ZM45.5757 58.9077C46.3612 58.9077 47.0075 58.7063 47.5146 58.3036C48.0218 57.9009 48.3971 57.3714 48.6407 56.7152C48.8843 56.0589 49.0061 55.348 49.0061 54.5824C49.0061 53.8168 48.8843 53.1033 48.6407 52.4421C48.3971 51.7809 48.0218 51.2464 47.5146 50.8388C47.0075 50.4311 46.3612 50.2273 45.5757 50.2273C44.7902 50.2273 44.1439 50.4311 43.6368 50.8388C43.1297 51.2464 42.7544 51.7809 42.5107 52.4421C42.2671 53.1033 42.1453 53.8168 42.1453 54.5824C42.1453 55.348 42.2671 56.0589 42.5107 56.7152C42.7544 57.3714 43.1297 57.9009 43.6368 58.3036C44.1439 58.7063 44.7902 58.9077 45.5757 58.9077ZM53.4526 60.25V48.7955H55.1529V50.5852H55.302C55.5407 49.9737 55.926 49.4989 56.4579 49.1609C56.9899 48.8178 57.6287 48.6463 58.3745 48.6463C59.1301 48.6463 59.7591 48.8178 60.2612 49.1609C60.7683 49.4989 61.1635 49.9737 61.4469 50.5852H61.5662C61.8596 49.9936 62.2995 49.5238 62.8862 49.1758C63.4728 48.8228 64.1763 48.6463 64.9966 48.6463C66.0208 48.6463 66.8585 48.967 67.5098 49.6083C68.161 50.2447 68.4867 51.2365 68.4867 52.5838V60.25H66.7267V52.5838C66.7267 51.7386 66.4956 51.1346 66.0332 50.7717C65.5708 50.4087 65.0265 50.2273 64.4 50.2273C63.5946 50.2273 62.9707 50.4709 62.5282 50.9581C62.0858 51.4403 61.8645 52.0518 61.8645 52.7926V60.25H60.0748V52.4048C60.0748 51.7536 59.8635 51.229 59.4409 50.8313C59.0183 50.4286 58.4739 50.2273 57.8077 50.2273C57.3503 50.2273 56.9228 50.3491 56.525 50.5927C56.1323 50.8363 55.8141 51.1744 55.5705 51.6069C55.3319 52.0344 55.2125 52.5291 55.2125 53.0909V60.25H53.4526ZM76.5071 60.4886C75.4034 60.4886 74.4513 60.245 73.6509 59.7578C72.8555 59.2656 72.2415 58.5795 71.8089 57.6996C71.3814 56.8146 71.1676 55.7855 71.1676 54.6122C71.1676 53.4389 71.3814 52.4048 71.8089 51.5099C72.2415 50.6101 72.843 49.9091 73.6136 49.407C74.3892 48.8999 75.294 48.6463 76.3281 48.6463C76.9247 48.6463 77.5138 48.7457 78.0955 48.9446C78.6772 49.1435 79.2067 49.4666 79.6839 49.9141C80.1612 50.3565 80.5415 50.9432 80.8249 51.674C81.1083 52.4048 81.25 53.3047 81.25 54.3736V55.1193H72.4205V53.598H79.4602C79.4602 52.9517 79.331 52.375 79.0724 51.8679C78.8189 51.3608 78.456 50.9606 77.9837 50.6673C77.5163 50.3739 76.9645 50.2273 76.3281 50.2273C75.6271 50.2273 75.0206 50.4013 74.5085 50.7493C74.0014 51.0923 73.6112 51.5398 73.3377 52.0916C73.0643 52.6435 72.9276 53.2351 72.9276 53.8665V54.8807C72.9276 55.7457 73.0767 56.479 73.375 57.0806C73.6783 57.6772 74.0984 58.1321 74.6353 58.4453C75.1722 58.7536 75.7962 58.9077 76.5071 58.9077C76.9695 58.9077 77.3871 58.843 77.7599 58.7138C78.1378 58.5795 78.4634 58.3807 78.7369 58.1172C79.0103 57.8487 79.2216 57.5156 79.3707 57.1179L81.071 57.5952C80.892 58.1719 80.5913 58.679 80.1687 59.1165C79.7461 59.549 79.2241 59.8871 78.6026 60.1307C77.9812 60.3693 77.2827 60.4886 76.5071 60.4886ZM94.1587 60.4886C93.2042 60.4886 92.3615 60.2475 91.6307 59.7653C90.8999 59.2781 90.3281 58.592 89.9155 57.707C89.5028 56.8171 89.2965 55.7656 89.2965 54.5526C89.2965 53.3494 89.5028 52.3054 89.9155 51.4205C90.3281 50.5355 90.9023 49.8519 91.6381 49.3697C92.3739 48.8874 93.2241 48.6463 94.1886 48.6463C94.9343 48.6463 95.5234 48.7706 95.956 49.0192C96.3935 49.2628 96.7266 49.5412 96.9553 49.8544C97.1889 50.1626 97.3704 50.4162 97.4996 50.6151H97.6488V44.9773H99.4087V60.25H97.7085V58.4901H97.4996C97.3704 58.6989 97.1864 58.9624 96.9478 59.2805C96.7092 59.5937 96.3686 59.8746 95.9261 60.1232C95.4837 60.3668 94.8945 60.4886 94.1587 60.4886ZM94.3974 58.9077C95.1033 58.9077 95.6999 58.7237 96.1871 58.3558C96.6744 57.983 97.0447 57.4684 97.2983 56.8121C97.5518 56.1509 97.6786 55.3878 97.6786 54.5227C97.6786 53.6676 97.5543 52.9194 97.3058 52.2781C97.0572 51.6317 96.6893 51.1296 96.2021 50.7717C95.7148 50.4087 95.1133 50.2273 94.3974 50.2273C93.6516 50.2273 93.0302 50.4187 92.533 50.8015C92.0408 51.1793 91.6705 51.6939 91.4219 52.3452C91.1783 52.9915 91.0565 53.7173 91.0565 54.5227C91.0565 55.3381 91.1808 56.0788 91.4293 56.745C91.6829 57.4062 92.0558 57.9332 92.5479 58.326C93.0451 58.7138 93.6616 58.9077 94.3974 58.9077ZM106.247 60.5185C105.521 60.5185 104.863 60.3817 104.271 60.1083C103.679 59.8299 103.21 59.4297 102.862 58.9077C102.513 58.3807 102.339 57.7443 102.339 56.9986C102.339 56.3423 102.469 55.8104 102.727 55.4027C102.986 54.9901 103.331 54.6669 103.764 54.4332C104.196 54.1996 104.674 54.0256 105.196 53.9112C105.723 53.7919 106.252 53.6974 106.784 53.6278C107.48 53.5384 108.044 53.4712 108.477 53.4265C108.914 53.3768 109.233 53.2947 109.431 53.1804C109.635 53.0661 109.737 52.8672 109.737 52.5838V52.5241C109.737 51.7884 109.536 51.2166 109.133 50.8089C108.735 50.4013 108.131 50.1974 107.321 50.1974C106.481 50.1974 105.822 50.3814 105.345 50.7493C104.868 51.1172 104.532 51.5099 104.338 51.9276L102.668 51.331C102.966 50.6349 103.364 50.093 103.861 49.7053C104.363 49.3125 104.91 49.0391 105.501 48.8849C106.098 48.7259 106.685 48.6463 107.261 48.6463C107.629 48.6463 108.052 48.6911 108.529 48.7805C109.011 48.8651 109.476 49.0415 109.924 49.31C110.376 49.5785 110.751 49.9837 111.05 50.5256C111.348 51.0675 111.497 51.7933 111.497 52.7031V60.25H109.737V58.6989H109.648C109.528 58.9474 109.33 59.2134 109.051 59.4968C108.773 59.7802 108.402 60.0213 107.94 60.2202C107.478 60.419 106.913 60.5185 106.247 60.5185ZM106.516 58.9375C107.212 58.9375 107.798 58.8008 108.276 58.5273C108.758 58.2539 109.121 57.9009 109.364 57.4684C109.613 57.0359 109.737 56.581 109.737 56.1037V54.4929C109.663 54.5824 109.499 54.6644 109.245 54.739C108.996 54.8086 108.708 54.8707 108.38 54.9254C108.057 54.9751 107.741 55.0199 107.433 55.0597C107.13 55.0945 106.884 55.1243 106.695 55.1491C106.237 55.2088 105.81 55.3058 105.412 55.44C105.019 55.5692 104.701 55.7656 104.457 56.0291C104.219 56.2876 104.099 56.6406 104.099 57.0881C104.099 57.6996 104.326 58.1619 104.778 58.4751C105.235 58.7834 105.815 58.9375 106.516 58.9375ZM121.481 60.25H119.542L125.15 44.9773H127.059L132.667 60.25H130.728L126.164 47.3935H126.045L121.481 60.25ZM122.197 54.2841H130.012V55.9247H122.197V54.2841ZM134.807 64.5455V48.7955H136.507V50.6151H136.716C136.845 50.4162 137.024 50.1626 137.253 49.8544C137.487 49.5412 137.82 49.2628 138.252 49.0192C138.69 48.7706 139.282 48.6463 140.027 48.6463C140.992 48.6463 141.842 48.8874 142.578 49.3697C143.313 49.8519 143.888 50.5355 144.3 51.4205C144.713 52.3054 144.919 53.3494 144.919 54.5526C144.919 55.7656 144.713 56.8171 144.3 57.707C143.888 58.592 143.316 59.2781 142.585 59.7653C141.854 60.2475 141.012 60.4886 140.057 60.4886C139.321 60.4886 138.732 60.3668 138.29 60.1232C137.847 59.8746 137.507 59.5937 137.268 59.2805C137.029 58.9624 136.845 58.6989 136.716 58.4901H136.567V64.5455H134.807ZM136.537 54.5227C136.537 55.3878 136.664 56.1509 136.918 56.8121C137.171 57.4684 137.541 57.983 138.029 58.3558C138.516 58.7237 139.112 58.9077 139.818 58.9077C140.554 58.9077 141.168 58.7138 141.66 58.326C142.158 57.9332 142.53 57.4062 142.779 56.745C143.033 56.0788 143.159 55.3381 143.159 54.5227C143.159 53.7173 143.035 52.9915 142.786 52.3452C142.543 51.6939 142.172 51.1793 141.675 50.8015C141.183 50.4187 140.564 50.2273 139.818 50.2273C139.103 50.2273 138.501 50.4087 138.014 50.7717C137.527 51.1296 137.159 51.6317 136.91 52.2781C136.661 52.9194 136.537 53.6676 136.537 54.5227ZM149.364 44.9773V60.25H147.604V44.9773H149.364ZM152.587 60.25V48.7955H154.347V60.25H152.587ZM153.482 46.8864C153.139 46.8864 152.843 46.7695 152.595 46.5359C152.351 46.3022 152.229 46.0213 152.229 45.6932C152.229 45.3651 152.351 45.0842 152.595 44.8505C152.843 44.6168 153.139 44.5 153.482 44.5C153.825 44.5 154.119 44.6168 154.362 44.8505C154.611 45.0842 154.735 45.3651 154.735 45.6932C154.735 46.0213 154.611 46.3022 154.362 46.5359C154.119 46.7695 153.825 46.8864 153.482 46.8864ZM162.224 60.4886C161.15 60.4886 160.226 60.2351 159.45 59.728C158.674 59.2209 158.078 58.5224 157.66 57.6325C157.243 56.7425 157.034 55.7259 157.034 54.5824C157.034 53.419 157.248 52.3924 157.675 51.5025C158.108 50.6076 158.709 49.9091 159.48 49.407C160.255 48.8999 161.16 48.6463 162.194 48.6463C163 48.6463 163.726 48.7955 164.372 49.0938C165.018 49.392 165.548 49.8097 165.96 50.3466C166.373 50.8835 166.629 51.5099 166.728 52.2259H164.968C164.834 51.7038 164.536 51.2415 164.074 50.8388C163.616 50.4311 163 50.2273 162.224 50.2273C161.538 50.2273 160.937 50.4062 160.419 50.7642C159.907 51.1172 159.507 51.6168 159.219 52.2631C158.935 52.9045 158.794 53.6577 158.794 54.5227C158.794 55.4077 158.933 56.1783 159.211 56.8345C159.495 57.4908 159.892 58.0004 160.405 58.3633C160.922 58.7262 161.528 58.9077 162.224 58.9077C162.682 58.9077 163.097 58.8281 163.47 58.669C163.842 58.5099 164.158 58.2812 164.417 57.983C164.675 57.6847 164.859 57.3267 164.968 56.9091H166.728C166.629 57.5852 166.383 58.1942 165.99 58.7362C165.602 59.2731 165.088 59.7006 164.446 60.0188C163.81 60.332 163.069 60.4886 162.224 60.4886ZM172.672 60.5185C171.946 60.5185 171.287 60.3817 170.696 60.1083C170.104 59.8299 169.634 59.4297 169.286 58.9077C168.938 58.3807 168.764 57.7443 168.764 56.9986C168.764 56.3423 168.894 55.8104 169.152 55.4027C169.411 54.9901 169.756 54.6669 170.189 54.4332C170.621 54.1996 171.098 54.0256 171.62 53.9112C172.147 53.7919 172.677 53.6974 173.209 53.6278C173.905 53.5384 174.469 53.4712 174.902 53.4265C175.339 53.3768 175.657 53.2947 175.856 53.1804C176.06 53.0661 176.162 52.8672 176.162 52.5838V52.5241C176.162 51.7884 175.961 51.2166 175.558 50.8089C175.16 50.4013 174.556 50.1974 173.746 50.1974C172.906 50.1974 172.247 50.3814 171.77 50.7493C171.292 51.1172 170.957 51.5099 170.763 51.9276L169.092 51.331C169.391 50.6349 169.788 50.093 170.286 49.7053C170.788 49.3125 171.335 49.0391 171.926 48.8849C172.523 48.7259 173.109 48.6463 173.686 48.6463C174.054 48.6463 174.477 48.6911 174.954 48.7805C175.436 48.8651 175.901 49.0415 176.348 49.31C176.801 49.5785 177.176 49.9837 177.475 50.5256C177.773 51.0675 177.922 51.7933 177.922 52.7031V60.25H176.162V58.6989H176.073C175.953 58.9474 175.754 59.2134 175.476 59.4968C175.198 59.7802 174.827 60.0213 174.365 60.2202C173.902 60.419 173.338 60.5185 172.672 60.5185ZM172.94 58.9375C173.636 58.9375 174.223 58.8008 174.7 58.5273C175.183 58.2539 175.546 57.9009 175.789 57.4684C176.038 57.0359 176.162 56.581 176.162 56.1037V54.4929C176.087 54.5824 175.923 54.6644 175.67 54.739C175.421 54.8086 175.133 54.8707 174.805 54.9254C174.482 54.9751 174.166 55.0199 173.858 55.0597C173.554 55.0945 173.308 55.1243 173.119 55.1491C172.662 55.2088 172.234 55.3058 171.837 55.44C171.444 55.5692 171.126 55.7656 170.882 56.0291C170.644 56.2876 170.524 56.6406 170.524 57.0881C170.524 57.6996 170.75 58.1619 171.203 58.4751C171.66 58.7834 172.239 58.9375 172.94 58.9375ZM185.788 60.4886C184.714 60.4886 183.789 60.2351 183.013 59.728C182.238 59.2209 181.641 58.5224 181.224 57.6325C180.806 56.7425 180.597 55.7259 180.597 54.5824C180.597 53.419 180.811 52.3924 181.239 51.5025C181.671 50.6076 182.273 49.9091 183.043 49.407C183.819 48.8999 184.724 48.6463 185.758 48.6463C186.563 48.6463 187.289 48.7955 187.935 49.0938C188.582 49.392 189.111 49.8097 189.524 50.3466C189.936 50.8835 190.192 51.5099 190.292 52.2259H188.532C188.398 51.7038 188.099 51.2415 187.637 50.8388C187.18 50.4311 186.563 50.2273 185.788 50.2273C185.102 50.2273 184.5 50.4062 183.983 50.7642C183.471 51.1172 183.071 51.6168 182.782 52.2631C182.499 52.9045 182.357 53.6577 182.357 54.5227C182.357 55.4077 182.496 56.1783 182.775 56.8345C183.058 57.4908 183.456 58.0004 183.968 58.3633C184.485 58.7262 185.092 58.9077 185.788 58.9077C186.245 58.9077 186.66 58.8281 187.033 58.669C187.406 58.5099 187.722 58.2812 187.98 57.983C188.239 57.6847 188.423 57.3267 188.532 56.9091H190.292C190.192 57.5852 189.946 58.1942 189.554 58.7362C189.166 59.2731 188.651 59.7006 188.01 60.0188C187.374 60.332 186.633 60.4886 185.788 60.4886ZM184.952 60.1903H186.414L186.295 60.7869C186.683 60.8466 187.038 61.0082 187.361 61.2717C187.684 61.5401 187.846 61.9652 187.846 62.5469C187.846 63.1882 187.58 63.7102 187.048 64.1129C186.521 64.5206 185.743 64.7244 184.714 64.7244L184.654 63.5611C185.116 63.5611 185.499 63.4865 185.803 63.3374C186.111 63.1932 186.265 62.9496 186.265 62.6065C186.265 62.2635 186.138 62.0298 185.885 61.9055C185.631 61.7813 185.221 61.6967 184.654 61.652L184.952 60.1903ZM196.235 60.5185C195.51 60.5185 194.851 60.3817 194.259 60.1083C193.668 59.8299 193.198 59.4297 192.85 58.9077C192.502 58.3807 192.328 57.7443 192.328 56.9986C192.328 56.3423 192.457 55.8104 192.716 55.4027C192.974 54.9901 193.32 54.6669 193.752 54.4332C194.185 54.1996 194.662 54.0256 195.184 53.9112C195.711 53.7919 196.24 53.6974 196.772 53.6278C197.468 53.5384 198.033 53.4712 198.465 53.4265C198.903 53.3768 199.221 53.2947 199.42 53.1804C199.624 53.0661 199.725 52.8672 199.725 52.5838V52.5241C199.725 51.7884 199.524 51.2166 199.121 50.8089C198.724 50.4013 198.12 50.1974 197.309 50.1974C196.469 50.1974 195.81 50.3814 195.333 50.7493C194.856 51.1172 194.52 51.5099 194.326 51.9276L192.656 51.331C192.954 50.6349 193.352 50.093 193.849 49.7053C194.351 49.3125 194.898 49.0391 195.49 48.8849C196.086 48.7259 196.673 48.6463 197.25 48.6463C197.618 48.6463 198.04 48.6911 198.517 48.7805C199 48.8651 199.464 49.0415 199.912 49.31C200.364 49.5785 200.74 49.9837 201.038 50.5256C201.336 51.0675 201.485 51.7933 201.485 52.7031V60.25H199.725V58.6989H199.636C199.517 58.9474 199.318 59.2134 199.039 59.4968C198.761 59.7802 198.391 60.0213 197.928 60.2202C197.466 60.419 196.902 60.5185 196.235 60.5185ZM196.504 58.9375C197.2 58.9375 197.787 58.8008 198.264 58.5273C198.746 58.2539 199.109 57.9009 199.353 57.4684C199.601 57.0359 199.725 56.581 199.725 56.1037V54.4929C199.651 54.5824 199.487 54.6644 199.233 54.739C198.985 54.8086 198.696 54.8707 198.368 54.9254C198.045 54.9751 197.729 55.0199 197.421 55.0597C197.118 55.0945 196.872 55.1243 196.683 55.1491C196.225 55.2088 195.798 55.3058 195.4 55.44C195.007 55.5692 194.689 55.7656 194.446 56.0291C194.207 56.2876 194.088 56.6406 194.088 57.0881C194.088 57.6996 194.314 58.1619 194.766 58.4751C195.224 58.7834 195.803 58.9375 196.504 58.9375ZM195.072 47.4233L193.7 47.3636C193.7 46.603 193.916 45.9815 194.349 45.4993C194.786 45.0121 195.326 44.7685 195.967 44.7685C196.25 44.7685 196.501 44.8182 196.72 44.9176C196.939 45.0121 197.148 45.1214 197.347 45.2457C197.545 45.37 197.749 45.4819 197.958 45.5813C198.172 45.6758 198.413 45.723 198.681 45.723C198.965 45.723 199.203 45.6136 199.397 45.3949C199.596 45.1712 199.696 44.9027 199.696 44.5895L201.038 44.7088C201.038 45.4844 200.819 46.1009 200.382 46.5582C199.949 47.0156 199.412 47.2443 198.771 47.2443C198.428 47.2443 198.145 47.1971 197.921 47.1026C197.697 47.0032 197.498 46.8913 197.324 46.767C197.15 46.6428 196.966 46.5334 196.772 46.4389C196.578 46.3395 196.34 46.2898 196.056 46.2898C195.773 46.2898 195.537 46.4016 195.348 46.6254C195.164 46.8441 195.072 47.1101 195.072 47.4233ZM209.351 60.4886C208.317 60.4886 207.41 60.2425 206.629 59.7504C205.854 59.2582 205.247 58.5696 204.81 57.6847C204.377 56.7997 204.161 55.7656 204.161 54.5824C204.161 53.3892 204.377 52.3477 204.81 51.4577C205.247 50.5678 205.854 49.8768 206.629 49.3846C207.41 48.8924 208.317 48.6463 209.351 48.6463C210.385 48.6463 211.29 48.8924 212.066 49.3846C212.846 49.8768 213.453 50.5678 213.885 51.4577C214.323 52.3477 214.541 53.3892 214.541 54.5824C214.541 55.7656 214.323 56.7997 213.885 57.6847C213.453 58.5696 212.846 59.2582 212.066 59.7504C211.29 60.2425 210.385 60.4886 209.351 60.4886ZM209.351 58.9077C210.137 58.9077 210.783 58.7063 211.29 58.3036C211.797 57.9009 212.172 57.3714 212.416 56.7152C212.66 56.0589 212.782 55.348 212.782 54.5824C212.782 53.8168 212.66 53.1033 212.416 52.4421C212.172 51.7809 211.797 51.2464 211.29 50.8388C210.783 50.4311 210.137 50.2273 209.351 50.2273C208.566 50.2273 207.919 50.4311 207.412 50.8388C206.905 51.2464 206.53 51.7809 206.286 52.4421C206.043 53.1033 205.921 53.8168 205.921 54.5824C205.921 55.348 206.043 56.0589 206.286 56.7152C206.53 57.3714 206.905 57.9009 207.412 58.3036C207.919 58.7063 208.566 58.9077 209.351 58.9077ZM228.533 44.2614L223.612 62.5469H222.001L226.923 44.2614H228.533ZM236.764 60.25V44.9773H241.925C243.123 44.9773 244.103 45.1935 244.863 45.6261C245.629 46.0536 246.196 46.6328 246.563 47.3636C246.931 48.0945 247.115 48.9098 247.115 49.8097C247.115 50.7095 246.931 51.5273 246.563 52.2631C246.201 52.9989 245.639 53.5856 244.878 54.0231C244.117 54.4556 243.143 54.6719 241.955 54.6719H238.256V53.0312H241.895C242.715 53.0312 243.374 52.8896 243.871 52.6062C244.369 52.3228 244.729 51.94 244.953 51.4577C245.181 50.9705 245.296 50.4212 245.296 49.8097C245.296 49.1982 245.181 48.6513 244.953 48.169C244.729 47.6868 244.366 47.3089 243.864 47.0355C243.362 46.7571 242.696 46.6179 241.865 46.6179H238.614V60.25H236.764ZM249.856 60.25V48.7955H251.556V50.5256H251.676C251.884 49.9588 252.262 49.4989 252.809 49.146C253.356 48.793 253.972 48.6165 254.658 48.6165C254.788 48.6165 254.949 48.619 255.143 48.6239C255.337 48.6289 255.484 48.6364 255.583 48.6463V50.4361C255.524 50.4212 255.387 50.3988 255.173 50.369C254.964 50.3342 254.743 50.3168 254.509 50.3168C253.953 50.3168 253.455 50.4336 253.018 50.6673C252.585 50.896 252.242 51.2141 251.989 51.6218C251.74 52.0245 251.616 52.4844 251.616 53.0014V60.25H249.856ZM261.974 60.4886C260.94 60.4886 260.033 60.2425 259.252 59.7504C258.477 59.2582 257.87 58.5696 257.433 57.6847C257 56.7997 256.784 55.7656 256.784 54.5824C256.784 53.3892 257 52.3477 257.433 51.4577C257.87 50.5678 258.477 49.8768 259.252 49.3846C260.033 48.8924 260.94 48.6463 261.974 48.6463C263.008 48.6463 263.913 48.8924 264.689 49.3846C265.469 49.8768 266.076 50.5678 266.508 51.4577C266.946 52.3477 267.165 53.3892 267.165 54.5824C267.165 55.7656 266.946 56.7997 266.508 57.6847C266.076 58.5696 265.469 59.2582 264.689 59.7504C263.913 60.2425 263.008 60.4886 261.974 60.4886ZM261.974 58.9077C262.76 58.9077 263.406 58.7063 263.913 58.3036C264.42 57.9009 264.796 57.3714 265.039 56.7152C265.283 56.0589 265.405 55.348 265.405 54.5824C265.405 53.8168 265.283 53.1033 265.039 52.4421C264.796 51.7809 264.42 51.2464 263.913 50.8388C263.406 50.4311 262.76 50.2273 261.974 50.2273C261.189 50.2273 260.542 50.4311 260.035 50.8388C259.528 51.2464 259.153 51.7809 258.909 52.4421C258.666 53.1033 258.544 53.8168 258.544 54.5824C258.544 55.348 258.666 56.0589 258.909 56.7152C259.153 57.3714 259.528 57.9009 260.035 58.3036C260.542 58.7063 261.189 58.9077 261.974 58.9077ZM274.176 60.4886C273.222 60.4886 272.379 60.2475 271.648 59.7653C270.917 59.2781 270.346 58.592 269.933 57.707C269.52 56.8171 269.314 55.7656 269.314 54.5526C269.314 53.3494 269.52 52.3054 269.933 51.4205C270.346 50.5355 270.92 49.8519 271.656 49.3697C272.392 48.8874 273.242 48.6463 274.206 48.6463C274.952 48.6463 275.541 48.7706 275.974 49.0192C276.411 49.2628 276.744 49.5412 276.973 49.8544C277.206 50.1626 277.388 50.4162 277.517 50.6151H277.666V44.9773H279.426V60.25H277.726V58.4901H277.517C277.388 58.6989 277.204 58.9624 276.965 59.2805C276.727 59.5937 276.386 59.8746 275.944 60.1232C275.501 60.3668 274.912 60.4886 274.176 60.4886ZM274.415 58.9077C275.121 58.9077 275.718 58.7237 276.205 58.3558C276.692 57.983 277.062 57.4684 277.316 56.8121C277.569 56.1509 277.696 55.3878 277.696 54.5227C277.696 53.6676 277.572 52.9194 277.323 52.2781C277.075 51.6317 276.707 51.1296 276.22 50.7717C275.732 50.4087 275.131 50.2273 274.415 50.2273C273.669 50.2273 273.048 50.4187 272.551 50.8015C272.058 51.1793 271.688 51.6939 271.439 52.3452C271.196 52.9915 271.074 53.7173 271.074 54.5227C271.074 55.3381 271.198 56.0788 271.447 56.745C271.7 57.4062 272.073 57.9332 272.566 58.326C273.063 58.7138 273.679 58.9077 274.415 58.9077ZM290.113 55.5668V48.7955H291.873V60.25H290.113V58.3111H289.993C289.725 58.8928 289.307 59.3874 288.741 59.7951C288.174 60.1978 287.458 60.3991 286.593 60.3991C285.877 60.3991 285.241 60.2425 284.684 59.9293C284.127 59.6112 283.689 59.1339 283.371 58.4975C283.053 57.8562 282.894 57.0483 282.894 56.0739V48.7955H284.654V55.9545C284.654 56.7898 284.888 57.456 285.355 57.9531C285.827 58.4503 286.429 58.6989 287.16 58.6989C287.597 58.6989 288.042 58.587 288.494 58.3633C288.952 58.1396 289.335 57.7965 289.643 57.3342C289.956 56.8718 290.113 56.2827 290.113 55.5668ZM300.078 48.7955V50.2869H294.142V48.7955H300.078ZM295.872 46.0511H297.632V56.9688C297.632 57.4659 297.704 57.8388 297.848 58.0874C297.997 58.331 298.186 58.495 298.415 58.5795C298.648 58.6591 298.894 58.6989 299.153 58.6989C299.347 58.6989 299.506 58.6889 299.63 58.669C299.755 58.6442 299.854 58.6243 299.929 58.6094L300.286 60.1903C300.167 60.2351 300.001 60.2798 299.787 60.3246C299.573 60.3743 299.302 60.3991 298.974 60.3991C298.477 60.3991 297.99 60.2923 297.512 60.0785C297.04 59.8647 296.647 59.5391 296.334 59.1016C296.026 58.6641 295.872 58.1122 295.872 57.446V46.0511ZM307.255 60.4886C306.221 60.4886 305.314 60.2425 304.533 59.7504C303.758 59.2582 303.151 58.5696 302.714 57.6847C302.281 56.7997 302.065 55.7656 302.065 54.5824C302.065 53.3892 302.281 52.3477 302.714 51.4577C303.151 50.5678 303.758 49.8768 304.533 49.3846C305.314 48.8924 306.221 48.6463 307.255 48.6463C308.29 48.6463 309.194 48.8924 309.97 49.3846C310.75 49.8768 311.357 50.5678 311.79 51.4577C312.227 52.3477 312.446 53.3892 312.446 54.5824C312.446 55.7656 312.227 56.7997 311.79 57.6847C311.357 58.5696 310.75 59.2582 309.97 59.7504C309.194 60.2425 308.29 60.4886 307.255 60.4886ZM307.255 58.9077C308.041 58.9077 308.687 58.7063 309.194 58.3036C309.701 57.9009 310.077 57.3714 310.32 56.7152C310.564 56.0589 310.686 55.348 310.686 54.5824C310.686 53.8168 310.564 53.1033 310.32 52.4421C310.077 51.7809 309.701 51.2464 309.194 50.8388C308.687 50.4311 308.041 50.2273 307.255 50.2273C306.47 50.2273 305.824 50.4311 305.316 50.8388C304.809 51.2464 304.434 51.7809 304.19 52.4421C303.947 53.1033 303.825 53.8168 303.825 54.5824C303.825 55.348 303.947 56.0589 304.19 56.7152C304.434 57.3714 304.809 57.9009 305.316 58.3036C305.824 58.7063 306.47 58.9077 307.255 58.9077ZM325.99 60.25H321.277V44.9773H326.199C327.681 44.9773 328.948 45.283 330.002 45.8945C331.056 46.5011 331.864 47.3736 332.426 48.5121C332.988 49.6456 333.269 51.0028 333.269 52.5838C333.269 54.1747 332.985 55.5444 332.419 56.6928C331.852 57.8363 331.026 58.7163 329.943 59.3327C328.859 59.9442 327.541 60.25 325.99 60.25ZM323.127 58.6094H325.871C327.134 58.6094 328.18 58.3658 329.01 57.8786C329.841 57.3913 330.46 56.6978 330.867 55.7979C331.275 54.8981 331.479 53.8267 331.479 52.5838C331.479 51.3509 331.278 50.2894 330.875 49.3995C330.472 48.5046 329.871 47.8185 329.07 47.3413C328.27 46.859 327.273 46.6179 326.08 46.6179H323.127V58.6094ZM336.132 60.25V48.7955H337.892V60.25H336.132ZM337.027 46.8864C336.684 46.8864 336.388 46.7695 336.14 46.5359C335.896 46.3022 335.774 46.0213 335.774 45.6932C335.774 45.3651 335.896 45.0842 336.14 44.8505C336.388 44.6168 336.684 44.5 337.027 44.5C337.37 44.5 337.664 44.6168 337.907 44.8505C338.156 45.0842 338.28 45.3651 338.28 45.6932C338.28 46.0213 338.156 46.3022 337.907 46.5359C337.664 46.7695 337.37 46.8864 337.027 46.8864ZM345.739 64.7841C344.889 64.7841 344.158 64.6747 343.547 64.456C342.935 64.2422 342.426 63.9588 342.018 63.6058C341.615 63.2578 341.295 62.8849 341.056 62.4872L342.458 61.5028C342.617 61.7116 342.818 61.9503 343.062 62.2188C343.306 62.4922 343.639 62.7283 344.061 62.9272C344.489 63.131 345.048 63.233 345.739 63.233C346.664 63.233 347.427 63.0092 348.029 62.5618C348.63 62.1143 348.931 61.4134 348.931 60.4588V58.1321H348.782C348.653 58.3409 348.469 58.5994 348.23 58.9077C347.996 59.2109 347.658 59.4819 347.216 59.7205C346.778 59.9542 346.187 60.071 345.441 60.071C344.516 60.071 343.686 59.8523 342.95 59.4148C342.219 58.9773 341.64 58.3409 341.213 57.5057C340.79 56.6705 340.579 55.6562 340.579 54.4631C340.579 53.2898 340.785 52.2681 341.198 51.3981C341.61 50.5231 342.185 49.8469 342.92 49.3697C343.656 48.8874 344.506 48.6463 345.471 48.6463C346.217 48.6463 346.808 48.7706 347.246 49.0192C347.688 49.2628 348.026 49.5412 348.26 49.8544C348.498 50.1626 348.682 50.4162 348.812 50.6151H348.991V48.7955H350.691V60.5781C350.691 61.5625 350.467 62.3629 350.02 62.9794C349.577 63.6009 348.981 64.0558 348.23 64.3441C347.484 64.6374 346.654 64.7841 345.739 64.7841ZM345.68 58.4901C346.386 58.4901 346.982 58.3285 347.469 58.0053C347.957 57.6822 348.327 57.2173 348.581 56.6108C348.834 56.0043 348.961 55.2784 348.961 54.4332C348.961 53.608 348.837 52.8796 348.588 52.2482C348.339 51.6168 347.972 51.1222 347.484 50.7642C346.997 50.4062 346.396 50.2273 345.68 50.2273C344.934 50.2273 344.312 50.4162 343.815 50.794C343.323 51.1719 342.953 51.679 342.704 52.3153C342.46 52.9517 342.339 53.6577 342.339 54.4332C342.339 55.2287 342.463 55.9322 342.712 56.5437C342.965 57.1502 343.338 57.6275 343.83 57.9755C344.327 58.3185 344.944 58.4901 345.68 58.4901ZM353.913 60.25V48.7955H355.672V60.25H353.913ZM354.807 46.8864C354.464 46.8864 354.169 46.7695 353.92 46.5359C353.676 46.3022 353.555 46.0213 353.555 45.6932C353.555 45.3651 353.676 45.0842 353.92 44.8505C354.169 44.6168 354.464 44.5 354.807 44.5C355.15 44.5 355.444 44.6168 355.687 44.8505C355.936 45.0842 356.06 45.3651 356.06 45.6932C356.06 46.0213 355.936 46.3022 355.687 46.5359C355.444 46.7695 355.15 46.8864 354.807 46.8864ZM363.877 48.7955V50.2869H357.941V48.7955H363.877ZM359.672 46.0511H361.431V56.9688C361.431 57.4659 361.504 57.8388 361.648 58.0874C361.797 58.331 361.986 58.495 362.214 58.5795C362.448 58.6591 362.694 58.6989 362.953 58.6989C363.147 58.6989 363.306 58.6889 363.43 58.669C363.554 58.6442 363.654 58.6243 363.728 58.6094L364.086 60.1903C363.967 60.2351 363.8 60.2798 363.587 60.3246C363.373 60.3743 363.102 60.3991 362.774 60.3991C362.277 60.3991 361.789 60.2923 361.312 60.0785C360.84 59.8647 360.447 59.5391 360.134 59.1016C359.826 58.6641 359.672 58.1122 359.672 57.446V46.0511ZM369.896 60.5185C369.17 60.5185 368.511 60.3817 367.919 60.1083C367.328 59.8299 366.858 59.4297 366.51 58.9077C366.162 58.3807 365.988 57.7443 365.988 56.9986C365.988 56.3423 366.117 55.8104 366.376 55.4027C366.634 54.9901 366.98 54.6669 367.412 54.4332C367.845 54.1996 368.322 54.0256 368.844 53.9112C369.371 53.7919 369.901 53.6974 370.433 53.6278C371.129 53.5384 371.693 53.4712 372.125 53.4265C372.563 53.3768 372.881 53.2947 373.08 53.1804C373.284 53.0661 373.386 52.8672 373.386 52.5838V52.5241C373.386 51.7884 373.184 51.2166 372.782 50.8089C372.384 50.4013 371.78 50.1974 370.969 50.1974C370.129 50.1974 369.471 50.3814 368.993 50.7493C368.516 51.1172 368.18 51.5099 367.987 51.9276L366.316 51.331C366.614 50.6349 367.012 50.093 367.509 49.7053C368.011 49.3125 368.558 49.0391 369.15 48.8849C369.746 48.7259 370.333 48.6463 370.91 48.6463C371.278 48.6463 371.7 48.6911 372.178 48.7805C372.66 48.8651 373.125 49.0415 373.572 49.31C374.025 49.5785 374.4 49.9837 374.698 50.5256C374.996 51.0675 375.146 51.7933 375.146 52.7031V60.25H373.386V58.6989H373.296C373.177 58.9474 372.978 59.2134 372.7 59.4968C372.421 59.7802 372.051 60.0213 371.588 60.2202C371.126 60.419 370.562 60.5185 369.896 60.5185ZM370.164 58.9375C370.86 58.9375 371.447 58.8008 371.924 58.5273C372.406 58.2539 372.769 57.9009 373.013 57.4684C373.261 57.0359 373.386 56.581 373.386 56.1037V54.4929C373.311 54.5824 373.147 54.6644 372.893 54.739C372.645 54.8086 372.357 54.8707 372.028 54.9254C371.705 54.9751 371.39 55.0199 371.081 55.0597C370.778 55.0945 370.532 55.1243 370.343 55.1491C369.886 55.2088 369.458 55.3058 369.06 55.44C368.668 55.5692 368.349 55.7656 368.106 56.0291C367.867 56.2876 367.748 56.6406 367.748 57.0881C367.748 57.6996 367.974 58.1619 368.426 58.4751C368.884 58.7834 369.463 58.9375 370.164 58.9375ZM380.118 44.9773V60.25H378.358V44.9773H380.118Z" fill="#788896"/>
<path d="M1154 23H1007V79.5H1154V23Z" stroke="#C3CFD9" stroke-width="2"/>
<path d="M1027.82 44.8409H1029.4L1033.11 53.8963H1033.23L1036.94 44.8409H1038.52V55.75H1037.28V47.4616H1037.17L1033.77 55.75H1032.57L1029.16 47.4616H1029.06V55.75H1027.82V44.8409ZM1043.4 55.9418C1042.88 55.9418 1042.41 55.8441 1041.99 55.6488C1041.57 55.4499 1041.23 55.1641 1040.98 54.7912C1040.74 54.4148 1040.61 53.9602 1040.61 53.4276C1040.61 52.9588 1040.7 52.5788 1040.89 52.2876C1041.07 51.9929 1041.32 51.7621 1041.63 51.5952C1041.94 51.4283 1042.28 51.304 1042.65 51.2223C1043.03 51.1371 1043.41 51.0696 1043.79 51.0199C1044.28 50.956 1044.69 50.908 1045 50.8761C1045.31 50.8406 1045.54 50.782 1045.68 50.7003C1045.82 50.6186 1045.9 50.4766 1045.9 50.2741V50.2315C1045.9 49.706 1045.75 49.2976 1045.46 49.0064C1045.18 48.7152 1044.75 48.5696 1044.17 48.5696C1043.57 48.5696 1043.1 48.701 1042.76 48.9638C1042.42 49.2266 1042.18 49.5071 1042.04 49.8054L1040.85 49.3793C1041.06 48.8821 1041.34 48.495 1041.7 48.218C1042.06 47.9375 1042.45 47.7422 1042.87 47.6321C1043.3 47.5185 1043.72 47.4616 1044.13 47.4616C1044.39 47.4616 1044.69 47.4936 1045.03 47.5575C1045.38 47.6179 1045.71 47.744 1046.03 47.9357C1046.35 48.1275 1046.62 48.4169 1046.83 48.804C1047.05 49.1911 1047.15 49.7095 1047.15 50.3594V55.75H1045.9V54.642H1045.83C1045.75 54.8196 1045.6 55.0096 1045.41 55.212C1045.21 55.4144 1044.94 55.5866 1044.61 55.7287C1044.28 55.8707 1043.88 55.9418 1043.4 55.9418ZM1043.59 54.8125C1044.09 54.8125 1044.51 54.7148 1044.85 54.5195C1045.2 54.3242 1045.46 54.0721 1045.63 53.7631C1045.81 53.4542 1045.9 53.1293 1045.9 52.7884V51.6378C1045.84 51.7017 1045.73 51.7603 1045.54 51.8136C1045.37 51.8633 1045.16 51.9077 1044.93 51.9467C1044.7 51.9822 1044.47 52.0142 1044.25 52.0426C1044.03 52.0675 1043.86 52.0888 1043.72 52.1065C1043.4 52.1491 1043.09 52.2184 1042.81 52.3143C1042.53 52.4066 1042.3 52.5469 1042.12 52.7351C1041.95 52.9197 1041.87 53.1719 1041.87 53.4915C1041.87 53.9283 1042.03 54.2585 1042.35 54.4822C1042.68 54.7024 1043.09 54.8125 1043.59 54.8125ZM1049.45 55.75V47.5682H1050.66V48.804H1050.75C1050.9 48.3991 1051.17 48.0707 1051.56 47.8185C1051.95 47.5664 1052.39 47.4403 1052.88 47.4403C1052.97 47.4403 1053.09 47.4421 1053.22 47.4457C1053.36 47.4492 1053.47 47.4545 1053.54 47.4616V48.7401C1053.5 48.7294 1053.4 48.7134 1053.25 48.6921C1053.1 48.6673 1052.94 48.6548 1052.77 48.6548C1052.37 48.6548 1052.02 48.7383 1051.71 48.9052C1051.4 49.0685 1051.15 49.2958 1050.97 49.587C1050.79 49.8746 1050.7 50.2031 1050.7 50.5724V55.75H1049.45ZM1058.1 55.9205C1057.34 55.9205 1056.68 55.7393 1056.12 55.3771C1055.57 55.0149 1055.14 54.516 1054.84 53.8803C1054.55 53.2447 1054.4 52.5185 1054.4 51.7017C1054.4 50.8707 1054.55 50.1374 1054.85 49.5018C1055.16 48.8626 1055.59 48.3636 1056.14 48.005C1056.7 47.6428 1057.34 47.4616 1058.08 47.4616C1058.66 47.4616 1059.18 47.5682 1059.64 47.7812C1060.1 47.9943 1060.48 48.2926 1060.77 48.6761C1061.07 49.0597 1061.25 49.5071 1061.32 50.0185H1060.06C1059.97 49.6456 1059.75 49.3153 1059.42 49.0277C1059.1 48.7365 1058.66 48.5909 1058.1 48.5909C1057.61 48.5909 1057.18 48.7187 1056.81 48.9744C1056.45 49.2266 1056.16 49.5835 1055.96 50.0451C1055.75 50.5032 1055.65 51.0412 1055.65 51.6591C1055.65 52.2912 1055.75 52.8416 1055.95 53.3104C1056.15 53.7791 1056.44 54.1431 1056.8 54.4023C1057.17 54.6616 1057.61 54.7912 1058.1 54.7912C1058.43 54.7912 1058.73 54.7344 1058.99 54.6207C1059.26 54.5071 1059.48 54.3438 1059.67 54.1307C1059.85 53.9176 1059.99 53.6619 1060.06 53.3636H1061.32C1061.25 53.8466 1061.07 54.2816 1060.79 54.6687C1060.52 55.0522 1060.15 55.3576 1059.69 55.5849C1059.24 55.8086 1058.71 55.9205 1058.1 55.9205ZM1065.57 55.9418C1065.05 55.9418 1064.58 55.8441 1064.15 55.6488C1063.73 55.4499 1063.4 55.1641 1063.15 54.7912C1062.9 54.4148 1062.77 53.9602 1062.77 53.4276C1062.77 52.9588 1062.87 52.5788 1063.05 52.2876C1063.24 51.9929 1063.48 51.7621 1063.79 51.5952C1064.1 51.4283 1064.44 51.304 1064.81 51.2223C1065.19 51.1371 1065.57 51.0696 1065.95 51.0199C1066.45 50.956 1066.85 50.908 1067.16 50.8761C1067.47 50.8406 1067.7 50.782 1067.84 50.7003C1067.99 50.6186 1068.06 50.4766 1068.06 50.2741V50.2315C1068.06 49.706 1067.92 49.2976 1067.63 49.0064C1067.34 48.7152 1066.91 48.5696 1066.33 48.5696C1065.73 48.5696 1065.26 48.701 1064.92 48.9638C1064.58 49.2266 1064.34 49.5071 1064.2 49.8054L1063.01 49.3793C1063.22 48.8821 1063.51 48.495 1063.86 48.218C1064.22 47.9375 1064.61 47.7422 1065.03 47.6321C1065.46 47.5185 1065.88 47.4616 1066.29 47.4616C1066.55 47.4616 1066.86 47.4936 1067.2 47.5575C1067.54 47.6179 1067.87 47.744 1068.19 47.9357C1068.52 48.1275 1068.78 48.4169 1069 48.804C1069.21 49.1911 1069.32 49.7095 1069.32 50.3594V55.75H1068.06V54.642H1068C1067.91 54.8196 1067.77 55.0096 1067.57 55.212C1067.37 55.4144 1067.11 55.5866 1066.78 55.7287C1066.44 55.8707 1066.04 55.9418 1065.57 55.9418ZM1065.76 54.8125C1066.25 54.8125 1066.67 54.7148 1067.01 54.5195C1067.36 54.3242 1067.62 54.0721 1067.79 53.7631C1067.97 53.4542 1068.06 53.1293 1068.06 52.7884V51.6378C1068.01 51.7017 1067.89 51.7603 1067.71 51.8136C1067.53 51.8633 1067.32 51.9077 1067.09 51.9467C1066.86 51.9822 1066.63 52.0142 1066.41 52.0426C1066.2 52.0675 1066.02 52.0888 1065.89 52.1065C1065.56 52.1491 1065.25 52.2184 1064.97 52.3143C1064.69 52.4066 1064.46 52.5469 1064.29 52.7351C1064.12 52.9197 1064.03 53.1719 1064.03 53.4915C1064.03 53.9283 1064.19 54.2585 1064.52 54.4822C1064.84 54.7024 1065.26 54.8125 1065.76 54.8125ZM1076 55.75V44.8409H1079.69C1080.54 44.8409 1081.24 44.9954 1081.78 45.3043C1082.33 45.6097 1082.74 46.0234 1083 46.5455C1083.26 47.0675 1083.39 47.6499 1083.39 48.2926C1083.39 48.9354 1083.26 49.5195 1083 50.0451C1082.74 50.5707 1082.34 50.9897 1081.8 51.3022C1081.25 51.6112 1080.56 51.7656 1079.71 51.7656H1077.07V50.5938H1079.66C1080.25 50.5938 1080.72 50.4925 1081.08 50.2901C1081.43 50.0877 1081.69 49.8143 1081.85 49.4698C1082.01 49.1218 1082.09 48.7294 1082.09 48.2926C1082.09 47.8558 1082.01 47.4652 1081.85 47.1207C1081.69 46.7763 1081.43 46.5064 1081.07 46.3111C1080.71 46.1122 1080.24 46.0128 1079.64 46.0128H1077.32V55.75H1076ZM1088.69 55.9205C1087.9 55.9205 1087.22 55.7464 1086.65 55.3984C1086.08 55.0469 1085.65 54.5568 1085.34 53.9283C1085.03 53.2962 1084.88 52.5611 1084.88 51.723C1084.88 50.8849 1085.03 50.1463 1085.34 49.5071C1085.65 48.8643 1086.08 48.3636 1086.63 48.005C1087.18 47.6428 1087.83 47.4616 1088.57 47.4616C1088.99 47.4616 1089.41 47.5327 1089.83 47.6747C1090.24 47.8168 1090.62 48.0476 1090.96 48.3672C1091.3 48.6832 1091.58 49.1023 1091.78 49.6243C1091.98 50.1463 1092.08 50.7891 1092.08 51.5526V52.0852H1085.77V50.9986H1090.8C1090.8 50.5369 1090.71 50.125 1090.53 49.7628C1090.34 49.4006 1090.09 49.1147 1089.75 48.9052C1089.41 48.6957 1089.02 48.5909 1088.57 48.5909C1088.06 48.5909 1087.63 48.7152 1087.27 48.9638C1086.9 49.2088 1086.62 49.5284 1086.43 49.9226C1086.23 50.3168 1086.14 50.7393 1086.14 51.1903V51.9148C1086.14 52.5327 1086.24 53.0565 1086.46 53.4862C1086.67 53.9123 1086.97 54.2372 1087.36 54.4609C1087.74 54.6811 1088.19 54.7912 1088.69 54.7912C1089.02 54.7912 1089.32 54.745 1089.59 54.6527C1089.86 54.5568 1090.09 54.4148 1090.29 54.2266C1090.48 54.0348 1090.63 53.7969 1090.74 53.5128L1091.95 53.8537C1091.83 54.2656 1091.61 54.6278 1091.31 54.9403C1091.01 55.2493 1090.63 55.4908 1090.19 55.6648C1089.75 55.8352 1089.25 55.9205 1088.69 55.9205ZM1097.55 47.5682V48.6335H1093.31V47.5682H1097.55ZM1094.55 45.608H1095.8V53.4062C1095.8 53.7614 1095.86 54.0277 1095.96 54.2053C1096.07 54.3793 1096.2 54.4964 1096.36 54.5568C1096.53 54.6136 1096.71 54.642 1096.89 54.642C1097.03 54.642 1097.14 54.6349 1097.23 54.6207C1097.32 54.603 1097.39 54.5888 1097.45 54.5781L1097.7 55.7074C1097.62 55.7393 1097.5 55.7713 1097.34 55.8033C1097.19 55.8388 1097 55.8565 1096.76 55.8565C1096.41 55.8565 1096.06 55.7802 1095.72 55.6275C1095.38 55.4748 1095.1 55.2422 1094.88 54.9297C1094.66 54.6172 1094.55 54.223 1094.55 53.7472V45.608ZM1099.44 55.75V47.5682H1100.66V48.804H1100.74C1100.89 48.3991 1101.16 48.0707 1101.55 47.8185C1101.94 47.5664 1102.38 47.4403 1102.87 47.4403C1102.97 47.4403 1103.08 47.4421 1103.22 47.4457C1103.36 47.4492 1103.46 47.4545 1103.53 47.4616V48.7401C1103.49 48.7294 1103.39 48.7134 1103.24 48.6921C1103.09 48.6673 1102.93 48.6548 1102.77 48.6548C1102.37 48.6548 1102.01 48.7383 1101.7 48.9052C1101.39 49.0685 1101.15 49.2958 1100.97 49.587C1100.79 49.8746 1100.7 50.2031 1100.7 50.5724V55.75H1099.44ZM1108.1 55.9205C1107.36 55.9205 1106.71 55.7447 1106.15 55.3931C1105.6 55.0415 1105.17 54.5497 1104.85 53.9176C1104.55 53.2855 1104.39 52.5469 1104.39 51.7017C1104.39 50.8494 1104.55 50.1055 1104.85 49.4698C1105.17 48.8342 1105.6 48.3406 1106.15 47.989C1106.71 47.6374 1107.36 47.4616 1108.1 47.4616C1108.84 47.4616 1109.48 47.6374 1110.04 47.989C1110.59 48.3406 1111.03 48.8342 1111.34 49.4698C1111.65 50.1055 1111.81 50.8494 1111.81 51.7017C1111.81 52.5469 1111.65 53.2855 1111.34 53.9176C1111.03 54.5497 1110.59 55.0415 1110.04 55.3931C1109.48 55.7447 1108.84 55.9205 1108.1 55.9205ZM1108.1 54.7912C1108.66 54.7912 1109.12 54.6474 1109.48 54.3597C1109.85 54.0721 1110.11 53.6939 1110.29 53.2251C1110.46 52.7564 1110.55 52.2486 1110.55 51.7017C1110.55 51.1548 1110.46 50.6452 1110.29 50.1729C1110.11 49.7006 1109.85 49.3189 1109.48 49.0277C1109.12 48.7365 1108.66 48.5909 1108.1 48.5909C1107.54 48.5909 1107.08 48.7365 1106.71 49.0277C1106.35 49.3189 1106.08 49.7006 1105.91 50.1729C1105.74 50.6452 1105.65 51.1548 1105.65 51.7017C1105.65 52.2486 1105.74 52.7564 1105.91 53.2251C1106.08 53.6939 1106.35 54.0721 1106.71 54.3597C1107.08 54.6474 1107.54 54.7912 1108.1 54.7912ZM1113.9 55.75V44.8409H1115.15V48.8679H1115.26C1115.35 48.7259 1115.48 48.5447 1115.64 48.3246C1115.81 48.1009 1116.05 47.902 1116.36 47.728C1116.67 47.5504 1117.09 47.4616 1117.62 47.4616C1118.31 47.4616 1118.92 47.6339 1119.45 47.9783C1119.97 48.3228 1120.38 48.8111 1120.68 49.4432C1120.97 50.0753 1121.12 50.821 1121.12 51.6804C1121.12 52.5469 1120.97 53.2979 1120.68 53.9336C1120.38 54.5657 1119.97 55.0558 1119.45 55.4038C1118.93 55.7482 1118.33 55.9205 1117.65 55.9205C1117.12 55.9205 1116.7 55.8335 1116.38 55.6594C1116.07 55.4819 1115.82 55.2812 1115.65 55.0575C1115.48 54.8303 1115.35 54.642 1115.26 54.4929H1115.11V55.75H1113.9ZM1115.13 51.6591C1115.13 52.277 1115.22 52.8221 1115.4 53.2944C1115.58 53.7631 1115.85 54.1307 1116.2 54.397C1116.54 54.6598 1116.97 54.7912 1117.47 54.7912C1118 54.7912 1118.44 54.6527 1118.79 54.3757C1119.15 54.0952 1119.41 53.7187 1119.59 53.2464C1119.77 52.7706 1119.86 52.2415 1119.86 51.6591C1119.86 51.0838 1119.77 50.5653 1119.59 50.1037C1119.42 49.6385 1119.16 49.271 1118.8 49.0011C1118.45 48.7276 1118.01 48.5909 1117.47 48.5909C1116.96 48.5909 1116.53 48.7205 1116.19 48.9798C1115.84 49.2354 1115.57 49.5941 1115.4 50.0558C1115.22 50.5138 1115.13 51.0483 1115.13 51.6591ZM1123.04 55.75V47.5682H1124.26V48.804H1124.34C1124.49 48.3991 1124.76 48.0707 1125.15 47.8185C1125.54 47.5664 1125.98 47.4403 1126.47 47.4403C1126.56 47.4403 1126.68 47.4421 1126.82 47.4457C1126.96 47.4492 1127.06 47.4545 1127.13 47.4616V48.7401C1127.09 48.7294 1126.99 48.7134 1126.84 48.6921C1126.69 48.6673 1126.53 48.6548 1126.37 48.6548C1125.97 48.6548 1125.61 48.7383 1125.3 48.9052C1124.99 49.0685 1124.75 49.2958 1124.56 49.587C1124.39 49.8746 1124.3 50.2031 1124.3 50.5724V55.75H1123.04ZM1131.03 55.9418C1130.51 55.9418 1130.04 55.8441 1129.62 55.6488C1129.2 55.4499 1128.86 55.1641 1128.61 54.7912C1128.36 54.4148 1128.24 53.9602 1128.24 53.4276C1128.24 52.9588 1128.33 52.5788 1128.52 52.2876C1128.7 51.9929 1128.95 51.7621 1129.26 51.5952C1129.57 51.4283 1129.91 51.304 1130.28 51.2223C1130.66 51.1371 1131.03 51.0696 1131.41 51.0199C1131.91 50.956 1132.31 50.908 1132.62 50.8761C1132.94 50.8406 1133.16 50.782 1133.3 50.7003C1133.45 50.6186 1133.52 50.4766 1133.52 50.2741V50.2315C1133.52 49.706 1133.38 49.2976 1133.09 49.0064C1132.81 48.7152 1132.38 48.5696 1131.8 48.5696C1131.2 48.5696 1130.73 48.701 1130.39 48.9638C1130.04 49.2266 1129.8 49.5071 1129.67 49.8054L1128.47 49.3793C1128.69 48.8821 1128.97 48.495 1129.33 48.218C1129.68 47.9375 1130.07 47.7422 1130.5 47.6321C1130.92 47.5185 1131.34 47.4616 1131.75 47.4616C1132.02 47.4616 1132.32 47.4936 1132.66 47.5575C1133 47.6179 1133.34 47.744 1133.66 47.9357C1133.98 48.1275 1134.25 48.4169 1134.46 48.804C1134.67 49.1911 1134.78 49.7095 1134.78 50.3594V55.75H1133.52V54.642H1133.46C1133.37 54.8196 1133.23 55.0096 1133.03 55.212C1132.83 55.4144 1132.57 55.5866 1132.24 55.7287C1131.91 55.8707 1131.51 55.9418 1131.03 55.9418ZM1131.22 54.8125C1131.72 54.8125 1132.14 54.7148 1132.48 54.5195C1132.82 54.3242 1133.08 54.0721 1133.26 53.7631C1133.43 53.4542 1133.52 53.1293 1133.52 52.7884V51.6378C1133.47 51.7017 1133.35 51.7603 1133.17 51.8136C1132.99 51.8633 1132.79 51.9077 1132.55 51.9467C1132.32 51.9822 1132.1 52.0142 1131.88 52.0426C1131.66 52.0675 1131.48 52.0888 1131.35 52.1065C1131.02 52.1491 1130.72 52.2184 1130.43 52.3143C1130.15 52.4066 1129.93 52.5469 1129.75 52.7351C1129.58 52.9197 1129.5 53.1719 1129.5 53.4915C1129.5 53.9283 1129.66 54.2585 1129.98 54.4822C1130.31 54.7024 1130.72 54.8125 1131.22 54.8125ZM1142.87 49.4006L1141.74 49.7202C1141.67 49.532 1141.56 49.3491 1141.43 49.1715C1141.29 48.9904 1141.11 48.8413 1140.87 48.7241C1140.64 48.6069 1140.34 48.5483 1139.97 48.5483C1139.47 48.5483 1139.05 48.6637 1138.72 48.8945C1138.39 49.1218 1138.22 49.4112 1138.22 49.7628C1138.22 50.0753 1138.34 50.3221 1138.57 50.5032C1138.79 50.6843 1139.15 50.8352 1139.63 50.956L1140.85 51.2543C1141.58 51.4318 1142.12 51.7035 1142.48 52.0692C1142.84 52.4315 1143.02 52.8984 1143.02 53.4702C1143.02 53.9389 1142.88 54.358 1142.61 54.7273C1142.35 55.0966 1141.97 55.3878 1141.5 55.6009C1141.02 55.8139 1140.46 55.9205 1139.82 55.9205C1138.99 55.9205 1138.3 55.7393 1137.75 55.3771C1137.2 55.0149 1136.86 54.4858 1136.71 53.7898L1137.91 53.4915C1138.02 53.9318 1138.23 54.2621 1138.55 54.4822C1138.87 54.7024 1139.29 54.8125 1139.8 54.8125C1140.39 54.8125 1140.85 54.6882 1141.2 54.4396C1141.55 54.1875 1141.72 53.8857 1141.72 53.5341C1141.72 53.25 1141.62 53.0121 1141.42 52.8203C1141.22 52.625 1140.92 52.4794 1140.5 52.3835L1139.14 52.0639C1138.39 51.8864 1137.84 51.6112 1137.49 51.2383C1137.14 50.8619 1136.97 50.3913 1136.97 49.8267C1136.97 49.3651 1137.1 48.9567 1137.36 48.6016C1137.62 48.2464 1137.98 47.9677 1138.43 47.7653C1138.88 47.5629 1139.4 47.4616 1139.97 47.4616C1140.78 47.4616 1141.42 47.6392 1141.88 47.9943C1142.34 48.3494 1142.67 48.8182 1142.87 49.4006Z" fill="#788896"/>
<g clip-path="url(#clip0_1_2099)">
<path d="M957.5 38.9165C950.332 38.9165 944.5 44.7486 944.5 51.9165C944.5 59.0844 950.332 64.9165 957.5 64.9165C964.668 64.9165 970.5 59.0844 970.5 51.9165C970.5 44.7486 964.668 38.9165 957.5 38.9165ZM952.625 50.2915C952.625 47.6029 954.811 45.4165 957.5 45.4165C960.189 45.4165 962.375 47.6029 962.375 50.2915V51.9165C962.375 54.6051 960.189 56.7915 957.5 56.7915C954.811 56.7915 952.625 54.6051 952.625 51.9165V50.2915ZM957.5 63.2915C955.133 63.2915 952.934 62.5635 951.111 61.3212C952.3 60.0383 953.992 59.229 955.875 59.229H959.125C961.008 59.229 962.7 60.0383 963.889 61.3212C962.066 62.5635 959.867 63.2915 957.5 63.2915Z" fill="#9EADBA"/>
</g>
<g clip-path="url(#clip1_1_2099)">
<path d="M924.072 64.9165H915.947C915.499 64.9165 915.135 64.5525 915.135 64.104V63.2915H924.885V64.104C924.885 64.5525 924.521 64.9165 924.072 64.9165Z" fill="#9EADBA"/>
<path d="M920.01 38.9165C914.633 38.9165 910.26 43.2902 910.26 48.6665C910.26 52.1716 912.116 55.3599 915.135 57.1027V61.6665H924.885V57.1027C927.904 55.3599 929.76 52.1724 929.76 48.6665C929.76 43.2902 925.386 38.9165 920.01 38.9165ZM920.822 44.604H920.01C917.77 44.604 915.947 46.4264 915.947 48.6665V49.479H914.322V48.6665C914.322 45.5311 916.874 42.979 920.01 42.979H920.822V44.604Z" fill="#9EADBA"/>
</g>
<g clip-path="url(#clip2_1_2099)">
<path d="M891.182 54.3507C891.388 53.5788 891.496 52.7842 891.505 51.9854C891.496 51.1866 891.388 50.392 891.182 49.6202L893.934 47.5945C894.162 47.427 894.319 47.1815 894.377 46.9051C894.434 46.6287 894.388 46.3408 894.246 46.0964L893.099 44.1097C892.958 43.8651 892.732 43.6811 892.463 43.593C892.195 43.505 891.904 43.5191 891.645 43.6325L888.532 45.009C887.378 43.895 885.965 43.0847 884.421 42.6507L884.049 39.2416C884.018 38.9598 883.883 38.6994 883.672 38.5109C883.46 38.3224 883.186 38.219 882.902 38.2207H880.608C880.324 38.219 880.05 38.3224 879.838 38.5109C879.627 38.6994 879.492 38.9598 879.461 39.2416L879.089 42.6507C877.545 43.0811 876.132 43.8874 874.976 44.9975L871.863 43.6211C871.604 43.5076 871.313 43.4935 871.044 43.5816C870.776 43.6696 870.549 43.8536 870.408 44.0983L869.261 46.085C869.12 46.3293 869.073 46.6172 869.131 46.8936C869.188 47.17 869.346 47.4155 869.573 47.583L872.326 49.6087C872.12 50.3844 872.012 51.1829 872.005 51.9854C872.014 52.7842 872.122 53.5788 872.328 54.3507L869.576 56.3764C869.348 56.5439 869.191 56.7894 869.133 57.0658C869.076 57.3422 869.122 57.6301 869.264 57.8744L870.411 59.8611C870.511 60.0355 870.656 60.1803 870.83 60.281C871.005 60.3817 871.203 60.4347 871.404 60.4347C871.562 60.4338 871.718 60.4011 871.863 60.3383L874.976 58.9618C876.132 60.072 877.545 60.8783 879.089 61.3087L879.461 64.7293C879.492 65.0111 879.627 65.2714 879.838 65.4599C880.05 65.6485 880.324 65.7519 880.608 65.7501H882.902C883.186 65.7519 883.46 65.6485 883.672 65.4599C883.883 65.2714 884.018 65.0111 884.049 64.7293L884.428 61.3202C885.969 60.8887 887.38 60.0825 888.534 58.9733L891.647 60.3498C891.792 60.4125 891.948 60.4453 892.106 60.4461C892.307 60.4461 892.505 60.3931 892.68 60.2925C892.854 60.1918 892.999 60.047 893.099 59.8726L894.246 57.8859C894.388 57.6416 894.434 57.3536 894.377 57.0772C894.319 56.8008 894.162 56.5554 893.934 56.3878L891.182 54.3507ZM881.755 56.5737C880.848 56.5737 879.96 56.3046 879.206 55.8004C878.451 55.2962 877.863 54.5797 877.516 53.7413C877.169 52.9029 877.078 51.9803 877.255 51.0903C877.432 50.2003 877.869 49.3827 878.511 48.7411C879.152 48.0994 879.97 47.6624 880.86 47.4854C881.75 47.3083 882.672 47.3992 883.511 47.7465C884.349 48.0937 885.066 48.6818 885.57 49.4363C886.074 50.1909 886.343 51.078 886.343 51.9854C886.343 53.2023 885.86 54.3693 884.999 55.2298C884.139 56.0903 882.972 56.5737 881.755 56.5737Z" fill="#9EADBA"/>
</g>
<g clip-path="url(#clip3_1_2099)">
<path d="M837.812 39.729C837.812 39.2805 837.448 38.9165 837 38.9165C836.552 38.9165 836.188 39.2805 836.188 39.729V42.1665H837.812V39.729Z" fill="#9EADBA"/>
<path d="M850.812 39.729C850.812 39.2805 850.448 38.9165 850 38.9165C849.552 38.9165 849.188 39.2805 849.188 39.729V42.1665H850.812V39.729Z" fill="#9EADBA"/>
<path d="M852.438 42.979H834.562C832.768 42.979 831.312 44.4342 831.312 46.229V60.854C831.312 62.6488 832.768 64.104 834.562 64.104H852.438C854.232 64.104 855.688 62.6488 855.688 60.854V46.229C855.688 44.4342 854.232 42.979 852.438 42.979ZM854.062 60.854C854.062 61.7518 853.335 62.479 852.438 62.479H834.562C833.665 62.479 832.938 61.7518 832.938 60.854V47.854H854.062V60.854Z" fill="#9EADBA"/>
<path d="M841.875 60.0415C841.667 60.0415 841.459 59.9618 841.301 59.8034L838.051 56.5534C837.733 56.2357 837.733 55.7222 838.051 55.4045C838.368 55.0868 838.882 55.0868 839.199 55.4045L841.875 58.0801L849.426 50.5295C849.743 50.2118 850.257 50.2118 850.574 50.5295C850.892 50.8472 850.892 51.3607 850.574 51.6784L842.449 59.8034C842.291 59.9618 842.083 60.0415 841.875 60.0415Z" fill="#9EADBA"/>
</g>
<path d="M1170 97H8V182H1170V97Z" stroke="#C3CFD9" stroke-width="2"/>
<path d="M422 134.5H348V145.5H422V134.5Z" fill="#CED8E0"/>
<path d="M524 134.5H450V145.5H524V134.5Z" fill="#CED8E0"/>
<path d="M626 134.5H552V145.5H626V134.5Z" fill="#CED8E0"/>
<path d="M728 134.5H654V145.5H728V134.5Z" fill="#CED8E0"/>
<path d="M830 134H756V145H830V134Z" fill="#CED8E0"/>
<defs>
<clipPath id="clip0_1_2099">
<rect width="26" height="26" fill="white" transform="translate(944.5 38.9165)"/>
</clipPath>
<clipPath id="clip1_1_2099">
<rect width="26" height="26" fill="white" transform="translate(907.01 38.9165)"/>
</clipPath>
<clipPath id="clip2_1_2099">
<rect width="27.5294" height="27.5294" fill="white" transform="translate(867.99 38.2207)"/>
</clipPath>
<clipPath id="clip3_1_2099">
<rect width="26" height="26" fill="white" transform="translate(830.5 38.9165)"/>
</clipPath>
</defs>
</svg>
