<svg width="1162" height="246" viewBox="0 0 1162 246" fill="none" xmlns="http://www.w3.org/2000/svg">
<g clip-path="url(#clip0_1_321)">
<rect width="1162" height="246" fill="white"/>
<path d="M1162 0H0V88H1162V0Z" stroke="#C3CFD9" stroke-width="2"/>
<path d="M29.9602 35.2273V50.5H28.1705L19.848 38.5085H19.6989V50.5H17.8494V35.2273H19.6392L27.9915 47.2486H28.1406V35.2273H29.9602ZM38.0757 50.7386C37.0416 50.7386 36.1343 50.4925 35.3538 50.0004C34.5782 49.5082 33.9717 48.8196 33.5342 47.9347C33.1017 47.0497 32.8854 46.0156 32.8854 44.8324C32.8854 43.6392 33.1017 42.5977 33.5342 41.7077C33.9717 40.8178 34.5782 40.1268 35.3538 39.6346C36.1343 39.1424 37.0416 38.8963 38.0757 38.8963C39.1098 38.8963 40.0146 39.1424 40.7902 39.6346C41.5708 40.1268 42.1773 40.8178 42.6098 41.7077C43.0473 42.5977 43.2661 43.6392 43.2661 44.8324C43.2661 46.0156 43.0473 47.0497 42.6098 47.9347C42.1773 48.8196 41.5708 49.5082 40.7902 50.0004C40.0146 50.4925 39.1098 50.7386 38.0757 50.7386ZM38.0757 49.1577C38.8612 49.1577 39.5075 48.9563 40.0146 48.5536C40.5218 48.1509 40.8971 47.6214 41.1407 46.9652C41.3843 46.3089 41.5061 45.598 41.5061 44.8324C41.5061 44.0668 41.3843 43.3533 41.1407 42.6921C40.8971 42.0309 40.5218 41.4964 40.0146 41.0888C39.5075 40.6811 38.8612 40.4773 38.0757 40.4773C37.2902 40.4773 36.6439 40.6811 36.1368 41.0888C35.6297 41.4964 35.2544 42.0309 35.0107 42.6921C34.7671 43.3533 34.6453 44.0668 34.6453 44.8324C34.6453 45.598 34.7671 46.3089 35.0107 46.9652C35.2544 47.6214 35.6297 48.1509 36.1368 48.5536C36.6439 48.9563 37.2902 49.1577 38.0757 49.1577ZM45.9526 50.5V39.0455H47.6529V40.8352H47.802C48.0407 40.2237 48.426 39.7489 48.9579 39.4109C49.4899 39.0678 50.1287 38.8963 50.8745 38.8963C51.6301 38.8963 52.2591 39.0678 52.7612 39.4109C53.2683 39.7489 53.6635 40.2237 53.9469 40.8352H54.0662C54.3596 40.2436 54.7995 39.7738 55.3862 39.4258C55.9728 39.0728 56.6763 38.8963 57.4966 38.8963C58.5208 38.8963 59.3585 39.217 60.0098 39.8583C60.661 40.4947 60.9867 41.4865 60.9867 42.8338V50.5H59.2267V42.8338C59.2267 41.9886 58.9956 41.3846 58.5332 41.0217C58.0708 40.6587 57.5265 40.4773 56.9 40.4773C56.0946 40.4773 55.4707 40.7209 55.0282 41.2081C54.5858 41.6903 54.3645 42.3018 54.3645 43.0426V50.5H52.5748V42.6548C52.5748 42.0036 52.3635 41.479 51.9409 41.0813C51.5183 40.6786 50.9739 40.4773 50.3077 40.4773C49.8503 40.4773 49.4228 40.5991 49.025 40.8427C48.6323 41.0863 48.3141 41.4244 48.0705 41.8569C47.8319 42.2844 47.7125 42.7791 47.7125 43.3409V50.5H45.9526ZM69.0071 50.7386C67.9034 50.7386 66.9513 50.495 66.1509 50.0078C65.3555 49.5156 64.7415 48.8295 64.3089 47.9496C63.8814 47.0646 63.6676 46.0355 63.6676 44.8622C63.6676 43.6889 63.8814 42.6548 64.3089 41.7599C64.7415 40.8601 65.343 40.1591 66.1136 39.657C66.8892 39.1499 67.794 38.8963 68.8281 38.8963C69.4247 38.8963 70.0138 38.9957 70.5955 39.1946C71.1772 39.3935 71.7067 39.7166 72.1839 40.1641C72.6612 40.6065 73.0415 41.1932 73.3249 41.924C73.6083 42.6548 73.75 43.5547 73.75 44.6236V45.3693H64.9205V43.848H71.9602C71.9602 43.2017 71.831 42.625 71.5724 42.1179C71.3189 41.6108 70.956 41.2106 70.4837 40.9173C70.0163 40.6239 69.4645 40.4773 68.8281 40.4773C68.1271 40.4773 67.5206 40.6513 67.0085 40.9993C66.5014 41.3423 66.1112 41.7898 65.8377 42.3416C65.5643 42.8935 65.4276 43.4851 65.4276 44.1165V45.1307C65.4276 45.9957 65.5767 46.729 65.875 47.3306C66.1783 47.9272 66.5984 48.3821 67.1353 48.6953C67.6722 49.0036 68.2962 49.1577 69.0071 49.1577C69.4695 49.1577 69.8871 49.093 70.2599 48.9638C70.6378 48.8295 70.9634 48.6307 71.2369 48.3672C71.5103 48.0987 71.7216 47.7656 71.8707 47.3679L73.571 47.8452C73.392 48.4219 73.0913 48.929 72.6687 49.3665C72.2461 49.799 71.7241 50.1371 71.1026 50.3807C70.4812 50.6193 69.7827 50.7386 69.0071 50.7386ZM86.6587 50.7386C85.7042 50.7386 84.8615 50.4975 84.1307 50.0153C83.3999 49.5281 82.8281 48.842 82.4155 47.957C82.0028 47.0671 81.7965 46.0156 81.7965 44.8026C81.7965 43.5994 82.0028 42.5554 82.4155 41.6705C82.8281 40.7855 83.4023 40.1019 84.1381 39.6197C84.8739 39.1374 85.7241 38.8963 86.6886 38.8963C87.4343 38.8963 88.0234 39.0206 88.456 39.2692C88.8935 39.5128 89.2266 39.7912 89.4553 40.1044C89.6889 40.4126 89.8704 40.6662 89.9996 40.8651H90.1488V35.2273H91.9087V50.5H90.2085V48.7401H89.9996C89.8704 48.9489 89.6864 49.2124 89.4478 49.5305C89.2092 49.8437 88.8686 50.1246 88.4261 50.3732C87.9837 50.6168 87.3945 50.7386 86.6587 50.7386ZM86.8974 49.1577C87.6033 49.1577 88.1999 48.9737 88.6871 48.6058C89.1744 48.233 89.5447 47.7184 89.7983 47.0621C90.0518 46.4009 90.1786 45.6378 90.1786 44.7727C90.1786 43.9176 90.0543 43.1694 89.8058 42.5281C89.5572 41.8817 89.1893 41.3796 88.7021 41.0217C88.2148 40.6587 87.6133 40.4773 86.8974 40.4773C86.1516 40.4773 85.5302 40.6687 85.033 41.0515C84.5408 41.4293 84.1705 41.9439 83.9219 42.5952C83.6783 43.2415 83.5565 43.9673 83.5565 44.7727C83.5565 45.5881 83.6808 46.3288 83.9293 46.995C84.1829 47.6562 84.5558 48.1832 85.0479 48.576C85.5451 48.9638 86.1616 49.1577 86.8974 49.1577ZM98.7472 50.7685C98.0213 50.7685 97.3626 50.6317 96.771 50.3583C96.1793 50.0799 95.7095 49.6797 95.3615 49.1577C95.0135 48.6307 94.8395 47.9943 94.8395 47.2486C94.8395 46.5923 94.9688 46.0604 95.2273 45.6527C95.4858 45.2401 95.8313 44.9169 96.2638 44.6832C96.6964 44.4496 97.1737 44.2756 97.6957 44.1612C98.2227 44.0419 98.7521 43.9474 99.2841 43.8778C99.9801 43.7884 100.544 43.7212 100.977 43.6765C101.414 43.6268 101.733 43.5447 101.931 43.4304C102.135 43.3161 102.237 43.1172 102.237 42.8338V42.7741C102.237 42.0384 102.036 41.4666 101.633 41.0589C101.235 40.6513 100.631 40.4474 99.821 40.4474C98.9808 40.4474 98.3221 40.6314 97.8448 40.9993C97.3675 41.3672 97.032 41.7599 96.8381 42.1776L95.1676 41.581C95.4659 40.8849 95.8636 40.343 96.3608 39.9553C96.8629 39.5625 97.4098 39.2891 98.0014 39.1349C98.598 38.9759 99.1847 38.8963 99.7614 38.8963C100.129 38.8963 100.552 38.9411 101.029 39.0305C101.511 39.1151 101.976 39.2915 102.424 39.56C102.876 39.8285 103.251 40.2337 103.55 40.7756C103.848 41.3175 103.997 42.0433 103.997 42.9531V50.5H102.237V48.9489H102.148C102.028 49.1974 101.83 49.4634 101.551 49.7468C101.273 50.0302 100.902 50.2713 100.44 50.4702C99.9776 50.669 99.4134 50.7685 98.7472 50.7685ZM99.0156 49.1875C99.7116 49.1875 100.298 49.0508 100.776 48.7773C101.258 48.5039 101.621 48.1509 101.864 47.7184C102.113 47.2859 102.237 46.831 102.237 46.3537V44.7429C102.163 44.8324 101.999 44.9144 101.745 44.989C101.496 45.0586 101.208 45.1207 100.88 45.1754C100.557 45.2251 100.241 45.2699 99.9329 45.3097C99.6296 45.3445 99.3835 45.3743 99.1946 45.3991C98.7372 45.4588 98.3097 45.5558 97.9119 45.69C97.5192 45.8192 97.201 46.0156 96.9574 46.2791C96.7188 46.5376 96.5994 46.8906 96.5994 47.3381C96.5994 47.9496 96.8256 48.4119 97.2781 48.7251C97.7354 49.0334 98.3146 49.1875 99.0156 49.1875ZM113.981 50.5H112.042L117.65 35.2273H119.559L125.167 50.5H123.228L118.664 37.6435H118.545L113.981 50.5ZM114.697 44.5341H122.512V46.1747H114.697V44.5341ZM127.307 54.7955V39.0455H129.007V40.8651H129.216C129.345 40.6662 129.524 40.4126 129.753 40.1044C129.987 39.7912 130.32 39.5128 130.752 39.2692C131.19 39.0206 131.782 38.8963 132.527 38.8963C133.492 38.8963 134.342 39.1374 135.078 39.6197C135.813 40.1019 136.388 40.7855 136.8 41.6705C137.213 42.5554 137.419 43.5994 137.419 44.8026C137.419 46.0156 137.213 47.0671 136.8 47.957C136.388 48.842 135.816 49.5281 135.085 50.0153C134.354 50.4975 133.512 50.7386 132.557 50.7386C131.821 50.7386 131.232 50.6168 130.79 50.3732C130.347 50.1246 130.007 49.8437 129.768 49.5305C129.529 49.2124 129.345 48.9489 129.216 48.7401H129.067V54.7955H127.307ZM129.037 44.7727C129.037 45.6378 129.164 46.4009 129.418 47.0621C129.671 47.7184 130.041 48.233 130.529 48.6058C131.016 48.9737 131.612 49.1577 132.318 49.1577C133.054 49.1577 133.668 48.9638 134.16 48.576C134.658 48.1832 135.03 47.6562 135.279 46.995C135.533 46.3288 135.659 45.5881 135.659 44.7727C135.659 43.9673 135.535 43.2415 135.286 42.5952C135.043 41.9439 134.672 41.4293 134.175 41.0515C133.683 40.6687 133.064 40.4773 132.318 40.4773C131.603 40.4773 131.001 40.6587 130.514 41.0217C130.027 41.3796 129.659 41.8817 129.41 42.5281C129.161 43.1694 129.037 43.9176 129.037 44.7727ZM141.864 35.2273V50.5H140.104V35.2273H141.864ZM145.087 50.5V39.0455H146.847V50.5H145.087ZM145.982 37.1364C145.639 37.1364 145.343 37.0195 145.095 36.7859C144.851 36.5522 144.729 36.2713 144.729 35.9432C144.729 35.6151 144.851 35.3342 145.095 35.1005C145.343 34.8668 145.639 34.75 145.982 34.75C146.325 34.75 146.619 34.8668 146.862 35.1005C147.111 35.3342 147.235 35.6151 147.235 35.9432C147.235 36.2713 147.111 36.5522 146.862 36.7859C146.619 37.0195 146.325 37.1364 145.982 37.1364ZM154.724 50.7386C153.65 50.7386 152.726 50.4851 151.95 49.978C151.174 49.4709 150.578 48.7724 150.16 47.8825C149.743 46.9925 149.534 45.9759 149.534 44.8324C149.534 43.669 149.748 42.6424 150.175 41.7525C150.608 40.8576 151.209 40.1591 151.98 39.657C152.755 39.1499 153.66 38.8963 154.694 38.8963C155.5 38.8963 156.226 39.0455 156.872 39.3438C157.518 39.642 158.048 40.0597 158.46 40.5966C158.873 41.1335 159.129 41.7599 159.228 42.4759H157.468C157.334 41.9538 157.036 41.4915 156.574 41.0888C156.116 40.6811 155.5 40.4773 154.724 40.4773C154.038 40.4773 153.437 40.6562 152.919 41.0142C152.407 41.3672 152.007 41.8668 151.719 42.5131C151.435 43.1545 151.294 43.9077 151.294 44.7727C151.294 45.6577 151.433 46.4283 151.711 47.0845C151.995 47.7408 152.392 48.2504 152.905 48.6133C153.422 48.9762 154.028 49.1577 154.724 49.1577C155.182 49.1577 155.597 49.0781 155.97 48.919C156.342 48.7599 156.658 48.5312 156.917 48.233C157.175 47.9347 157.359 47.5767 157.468 47.1591H159.228C159.129 47.8352 158.883 48.4442 158.49 48.9862C158.102 49.5231 157.588 49.9506 156.946 50.2688C156.31 50.582 155.569 50.7386 154.724 50.7386ZM165.172 50.7685C164.446 50.7685 163.787 50.6317 163.196 50.3583C162.604 50.0799 162.134 49.6797 161.786 49.1577C161.438 48.6307 161.264 47.9943 161.264 47.2486C161.264 46.5923 161.394 46.0604 161.652 45.6527C161.911 45.2401 162.256 44.9169 162.689 44.6832C163.121 44.4496 163.598 44.2756 164.12 44.1612C164.647 44.0419 165.177 43.9474 165.709 43.8778C166.405 43.7884 166.969 43.7212 167.402 43.6765C167.839 43.6268 168.157 43.5447 168.356 43.4304C168.56 43.3161 168.662 43.1172 168.662 42.8338V42.7741C168.662 42.0384 168.461 41.4666 168.058 41.0589C167.66 40.6513 167.056 40.4474 166.246 40.4474C165.406 40.4474 164.747 40.6314 164.27 40.9993C163.792 41.3672 163.457 41.7599 163.263 42.1776L161.592 41.581C161.891 40.8849 162.288 40.343 162.786 39.9553C163.288 39.5625 163.835 39.2891 164.426 39.1349C165.023 38.9759 165.609 38.8963 166.186 38.8963C166.554 38.8963 166.977 38.9411 167.454 39.0305C167.936 39.1151 168.401 39.2915 168.848 39.56C169.301 39.8285 169.676 40.2337 169.975 40.7756C170.273 41.3175 170.422 42.0433 170.422 42.9531V50.5H168.662V48.9489H168.573C168.453 49.1974 168.254 49.4634 167.976 49.7468C167.698 50.0302 167.327 50.2713 166.865 50.4702C166.402 50.669 165.838 50.7685 165.172 50.7685ZM165.44 49.1875C166.136 49.1875 166.723 49.0508 167.2 48.7773C167.683 48.5039 168.046 48.1509 168.289 47.7184C168.538 47.2859 168.662 46.831 168.662 46.3537V44.7429C168.587 44.8324 168.423 44.9144 168.17 44.989C167.921 45.0586 167.633 45.1207 167.305 45.1754C166.982 45.2251 166.666 45.2699 166.358 45.3097C166.054 45.3445 165.808 45.3743 165.619 45.3991C165.162 45.4588 164.734 45.5558 164.337 45.69C163.944 45.8192 163.626 46.0156 163.382 46.2791C163.144 46.5376 163.024 46.8906 163.024 47.3381C163.024 47.9496 163.25 48.4119 163.703 48.7251C164.16 49.0334 164.739 49.1875 165.44 49.1875ZM178.288 50.7386C177.214 50.7386 176.289 50.4851 175.513 49.978C174.738 49.4709 174.141 48.7724 173.724 47.8825C173.306 46.9925 173.097 45.9759 173.097 44.8324C173.097 43.669 173.311 42.6424 173.739 41.7525C174.171 40.8576 174.773 40.1591 175.543 39.657C176.319 39.1499 177.224 38.8963 178.258 38.8963C179.063 38.8963 179.789 39.0455 180.435 39.3438C181.082 39.642 181.611 40.0597 182.024 40.5966C182.436 41.1335 182.692 41.7599 182.792 42.4759H181.032C180.898 41.9538 180.599 41.4915 180.137 41.0888C179.68 40.6811 179.063 40.4773 178.288 40.4773C177.602 40.4773 177 40.6562 176.483 41.0142C175.971 41.3672 175.571 41.8668 175.282 42.5131C174.999 43.1545 174.857 43.9077 174.857 44.7727C174.857 45.6577 174.996 46.4283 175.275 47.0845C175.558 47.7408 175.956 48.2504 176.468 48.6133C176.985 48.9762 177.592 49.1577 178.288 49.1577C178.745 49.1577 179.16 49.0781 179.533 48.919C179.906 48.7599 180.222 48.5312 180.48 48.233C180.739 47.9347 180.923 47.5767 181.032 47.1591H182.792C182.692 47.8352 182.446 48.4442 182.054 48.9862C181.666 49.5231 181.151 49.9506 180.51 50.2688C179.874 50.582 179.133 50.7386 178.288 50.7386ZM177.452 50.4403H178.914L178.795 51.0369C179.183 51.0966 179.538 51.2582 179.861 51.5217C180.184 51.7901 180.346 52.2152 180.346 52.7969C180.346 53.4382 180.08 53.9602 179.548 54.3629C179.021 54.7706 178.243 54.9744 177.214 54.9744L177.154 53.8111C177.616 53.8111 177.999 53.7365 178.303 53.5874C178.611 53.4432 178.765 53.1996 178.765 52.8565C178.765 52.5135 178.638 52.2798 178.385 52.1555C178.131 52.0313 177.721 51.9467 177.154 51.902L177.452 50.4403ZM188.735 50.7685C188.01 50.7685 187.351 50.6317 186.759 50.3583C186.168 50.0799 185.698 49.6797 185.35 49.1577C185.002 48.6307 184.828 47.9943 184.828 47.2486C184.828 46.5923 184.957 46.0604 185.216 45.6527C185.474 45.2401 185.82 44.9169 186.252 44.6832C186.685 44.4496 187.162 44.2756 187.684 44.1612C188.211 44.0419 188.74 43.9474 189.272 43.8778C189.968 43.7884 190.533 43.7212 190.965 43.6765C191.403 43.6268 191.721 43.5447 191.92 43.4304C192.124 43.3161 192.225 43.1172 192.225 42.8338V42.7741C192.225 42.0384 192.024 41.4666 191.621 41.0589C191.224 40.6513 190.62 40.4474 189.809 40.4474C188.969 40.4474 188.31 40.6314 187.833 40.9993C187.356 41.3672 187.02 41.7599 186.826 42.1776L185.156 41.581C185.454 40.8849 185.852 40.343 186.349 39.9553C186.851 39.5625 187.398 39.2891 187.99 39.1349C188.586 38.9759 189.173 38.8963 189.75 38.8963C190.118 38.8963 190.54 38.9411 191.017 39.0305C191.5 39.1151 191.964 39.2915 192.412 39.56C192.864 39.8285 193.24 40.2337 193.538 40.7756C193.836 41.3175 193.985 42.0433 193.985 42.9531V50.5H192.225V48.9489H192.136C192.017 49.1974 191.818 49.4634 191.539 49.7468C191.261 50.0302 190.891 50.2713 190.428 50.4702C189.966 50.669 189.402 50.7685 188.735 50.7685ZM189.004 49.1875C189.7 49.1875 190.287 49.0508 190.764 48.7773C191.246 48.5039 191.609 48.1509 191.853 47.7184C192.101 47.2859 192.225 46.831 192.225 46.3537V44.7429C192.151 44.8324 191.987 44.9144 191.733 44.989C191.485 45.0586 191.196 45.1207 190.868 45.1754C190.545 45.2251 190.229 45.2699 189.921 45.3097C189.618 45.3445 189.372 45.3743 189.183 45.3991C188.725 45.4588 188.298 45.5558 187.9 45.69C187.507 45.8192 187.189 46.0156 186.946 46.2791C186.707 46.5376 186.588 46.8906 186.588 47.3381C186.588 47.9496 186.814 48.4119 187.266 48.7251C187.724 49.0334 188.303 49.1875 189.004 49.1875ZM187.572 37.6733L186.2 37.6136C186.2 36.853 186.416 36.2315 186.849 35.7493C187.286 35.2621 187.826 35.0185 188.467 35.0185C188.75 35.0185 189.001 35.0682 189.22 35.1676C189.439 35.2621 189.648 35.3714 189.847 35.4957C190.045 35.62 190.249 35.7319 190.458 35.8313C190.672 35.9258 190.913 35.973 191.181 35.973C191.465 35.973 191.703 35.8636 191.897 35.6449C192.096 35.4212 192.196 35.1527 192.196 34.8395L193.538 34.9588C193.538 35.7344 193.319 36.3509 192.882 36.8082C192.449 37.2656 191.912 37.4943 191.271 37.4943C190.928 37.4943 190.645 37.4471 190.421 37.3526C190.197 37.2532 189.998 37.1413 189.824 37.017C189.65 36.8928 189.466 36.7834 189.272 36.6889C189.078 36.5895 188.84 36.5398 188.556 36.5398C188.273 36.5398 188.037 36.6516 187.848 36.8754C187.664 37.0941 187.572 37.3601 187.572 37.6733ZM201.851 50.7386C200.817 50.7386 199.91 50.4925 199.129 50.0004C198.354 49.5082 197.747 48.8196 197.31 47.9347C196.877 47.0497 196.661 46.0156 196.661 44.8324C196.661 43.6392 196.877 42.5977 197.31 41.7077C197.747 40.8178 198.354 40.1268 199.129 39.6346C199.91 39.1424 200.817 38.8963 201.851 38.8963C202.885 38.8963 203.79 39.1424 204.566 39.6346C205.346 40.1268 205.953 40.8178 206.385 41.7077C206.823 42.5977 207.041 43.6392 207.041 44.8324C207.041 46.0156 206.823 47.0497 206.385 47.9347C205.953 48.8196 205.346 49.5082 204.566 50.0004C203.79 50.4925 202.885 50.7386 201.851 50.7386ZM201.851 49.1577C202.637 49.1577 203.283 48.9563 203.79 48.5536C204.297 48.1509 204.672 47.6214 204.916 46.9652C205.16 46.3089 205.282 45.598 205.282 44.8324C205.282 44.0668 205.16 43.3533 204.916 42.6921C204.672 42.0309 204.297 41.4964 203.79 41.0888C203.283 40.6811 202.637 40.4773 201.851 40.4773C201.066 40.4773 200.419 40.6811 199.912 41.0888C199.405 41.4964 199.03 42.0309 198.786 42.6921C198.543 43.3533 198.421 44.0668 198.421 44.8324C198.421 45.598 198.543 46.3089 198.786 46.9652C199.03 47.6214 199.405 48.1509 199.912 48.5536C200.419 48.9563 201.066 49.1577 201.851 49.1577ZM221.033 34.5114L216.112 52.7969H214.501L219.423 34.5114H221.033ZM229.264 50.5V35.2273H234.425C235.623 35.2273 236.603 35.4435 237.363 35.8761C238.129 36.3036 238.696 36.8828 239.063 37.6136C239.431 38.3445 239.615 39.1598 239.615 40.0597C239.615 40.9595 239.431 41.7773 239.063 42.5131C238.701 43.2489 238.139 43.8356 237.378 44.2731C236.617 44.7056 235.643 44.9219 234.455 44.9219H230.756V43.2812H234.395C235.215 43.2812 235.874 43.1396 236.371 42.8562C236.869 42.5728 237.229 42.19 237.453 41.7077C237.681 41.2205 237.796 40.6712 237.796 40.0597C237.796 39.4482 237.681 38.9013 237.453 38.419C237.229 37.9368 236.866 37.5589 236.364 37.2855C235.862 37.0071 235.196 36.8679 234.365 36.8679H231.114V50.5H229.264ZM242.356 50.5V39.0455H244.056V40.7756H244.176C244.384 40.2088 244.762 39.7489 245.309 39.396C245.856 39.043 246.472 38.8665 247.158 38.8665C247.288 38.8665 247.449 38.869 247.643 38.8739C247.837 38.8789 247.984 38.8864 248.083 38.8963V40.6861C248.024 40.6712 247.887 40.6488 247.673 40.619C247.464 40.5842 247.243 40.5668 247.009 40.5668C246.453 40.5668 245.955 40.6836 245.518 40.9173C245.085 41.146 244.742 41.4641 244.489 41.8718C244.24 42.2745 244.116 42.7344 244.116 43.2514V50.5H242.356ZM254.474 50.7386C253.44 50.7386 252.533 50.4925 251.752 50.0004C250.977 49.5082 250.37 48.8196 249.933 47.9347C249.5 47.0497 249.284 46.0156 249.284 44.8324C249.284 43.6392 249.5 42.5977 249.933 41.7077C250.37 40.8178 250.977 40.1268 251.752 39.6346C252.533 39.1424 253.44 38.8963 254.474 38.8963C255.508 38.8963 256.413 39.1424 257.189 39.6346C257.969 40.1268 258.576 40.8178 259.008 41.7077C259.446 42.5977 259.665 43.6392 259.665 44.8324C259.665 46.0156 259.446 47.0497 259.008 47.9347C258.576 48.8196 257.969 49.5082 257.189 50.0004C256.413 50.4925 255.508 50.7386 254.474 50.7386ZM254.474 49.1577C255.26 49.1577 255.906 48.9563 256.413 48.5536C256.92 48.1509 257.296 47.6214 257.539 46.9652C257.783 46.3089 257.905 45.598 257.905 44.8324C257.905 44.0668 257.783 43.3533 257.539 42.6921C257.296 42.0309 256.92 41.4964 256.413 41.0888C255.906 40.6811 255.26 40.4773 254.474 40.4773C253.689 40.4773 253.042 40.6811 252.535 41.0888C252.028 41.4964 251.653 42.0309 251.409 42.6921C251.166 43.3533 251.044 44.0668 251.044 44.8324C251.044 45.598 251.166 46.3089 251.409 46.9652C251.653 47.6214 252.028 48.1509 252.535 48.5536C253.042 48.9563 253.689 49.1577 254.474 49.1577ZM266.676 50.7386C265.722 50.7386 264.879 50.4975 264.148 50.0153C263.417 49.5281 262.846 48.842 262.433 47.957C262.02 47.0671 261.814 46.0156 261.814 44.8026C261.814 43.5994 262.02 42.5554 262.433 41.6705C262.846 40.7855 263.42 40.1019 264.156 39.6197C264.892 39.1374 265.742 38.8963 266.706 38.8963C267.452 38.8963 268.041 39.0206 268.474 39.2692C268.911 39.5128 269.244 39.7912 269.473 40.1044C269.706 40.4126 269.888 40.6662 270.017 40.8651H270.166V35.2273H271.926V50.5H270.226V48.7401H270.017C269.888 48.9489 269.704 49.2124 269.465 49.5305C269.227 49.8437 268.886 50.1246 268.444 50.3732C268.001 50.6168 267.412 50.7386 266.676 50.7386ZM266.915 49.1577C267.621 49.1577 268.218 48.9737 268.705 48.6058C269.192 48.233 269.562 47.7184 269.816 47.0621C270.069 46.4009 270.196 45.6378 270.196 44.7727C270.196 43.9176 270.072 43.1694 269.823 42.5281C269.575 41.8817 269.207 41.3796 268.72 41.0217C268.232 40.6587 267.631 40.4773 266.915 40.4773C266.169 40.4773 265.548 40.6687 265.051 41.0515C264.558 41.4293 264.188 41.9439 263.939 42.5952C263.696 43.2415 263.574 43.9673 263.574 44.7727C263.574 45.5881 263.698 46.3288 263.947 46.995C264.2 47.6562 264.573 48.1832 265.066 48.576C265.563 48.9638 266.179 49.1577 266.915 49.1577ZM282.613 45.8168V39.0455H284.373V50.5H282.613V48.5611H282.493C282.225 49.1428 281.807 49.6374 281.241 50.0451C280.674 50.4478 279.958 50.6491 279.093 50.6491C278.377 50.6491 277.741 50.4925 277.184 50.1793C276.627 49.8612 276.189 49.3839 275.871 48.7475C275.553 48.1062 275.394 47.2983 275.394 46.3239V39.0455H277.154V46.2045C277.154 47.0398 277.388 47.706 277.855 48.2031C278.327 48.7003 278.929 48.9489 279.66 48.9489C280.097 48.9489 280.542 48.837 280.994 48.6133C281.452 48.3896 281.835 48.0465 282.143 47.5842C282.456 47.1218 282.613 46.5327 282.613 45.8168ZM292.578 39.0455V40.5369H286.642V39.0455H292.578ZM288.372 36.3011H290.132V47.2188C290.132 47.7159 290.204 48.0888 290.348 48.3374C290.497 48.581 290.686 48.745 290.915 48.8295C291.148 48.9091 291.394 48.9489 291.653 48.9489C291.847 48.9489 292.006 48.9389 292.13 48.919C292.255 48.8942 292.354 48.8743 292.429 48.8594L292.786 50.4403C292.667 50.4851 292.501 50.5298 292.287 50.5746C292.073 50.6243 291.802 50.6491 291.474 50.6491C290.977 50.6491 290.49 50.5423 290.012 50.3285C289.54 50.1147 289.147 49.7891 288.834 49.3516C288.526 48.9141 288.372 48.3622 288.372 47.696V36.3011ZM299.755 50.7386C298.721 50.7386 297.814 50.4925 297.033 50.0004C296.258 49.5082 295.651 48.8196 295.214 47.9347C294.781 47.0497 294.565 46.0156 294.565 44.8324C294.565 43.6392 294.781 42.5977 295.214 41.7077C295.651 40.8178 296.258 40.1268 297.033 39.6346C297.814 39.1424 298.721 38.8963 299.755 38.8963C300.79 38.8963 301.694 39.1424 302.47 39.6346C303.25 40.1268 303.857 40.8178 304.29 41.7077C304.727 42.5977 304.946 43.6392 304.946 44.8324C304.946 46.0156 304.727 47.0497 304.29 47.9347C303.857 48.8196 303.25 49.5082 302.47 50.0004C301.694 50.4925 300.79 50.7386 299.755 50.7386ZM299.755 49.1577C300.541 49.1577 301.187 48.9563 301.694 48.5536C302.201 48.1509 302.577 47.6214 302.82 46.9652C303.064 46.3089 303.186 45.598 303.186 44.8324C303.186 44.0668 303.064 43.3533 302.82 42.6921C302.577 42.0309 302.201 41.4964 301.694 41.0888C301.187 40.6811 300.541 40.4773 299.755 40.4773C298.97 40.4773 298.324 40.6811 297.816 41.0888C297.309 41.4964 296.934 42.0309 296.69 42.6921C296.447 43.3533 296.325 44.0668 296.325 44.8324C296.325 45.598 296.447 46.3089 296.69 46.9652C296.934 47.6214 297.309 48.1509 297.816 48.5536C298.324 48.9563 298.97 49.1577 299.755 49.1577ZM318.49 50.5H313.777V35.2273H318.699C320.181 35.2273 321.448 35.533 322.502 36.1445C323.556 36.7511 324.364 37.6236 324.926 38.7621C325.488 39.8956 325.769 41.2528 325.769 42.8338C325.769 44.4247 325.485 45.7944 324.919 46.9428C324.352 48.0863 323.526 48.9663 322.443 49.5827C321.359 50.1942 320.041 50.5 318.49 50.5ZM315.627 48.8594H318.371C319.634 48.8594 320.68 48.6158 321.51 48.1286C322.341 47.6413 322.96 46.9478 323.367 46.0479C323.775 45.1481 323.979 44.0767 323.979 42.8338C323.979 41.6009 323.778 40.5394 323.375 39.6495C322.972 38.7546 322.371 38.0685 321.57 37.5913C320.77 37.109 319.773 36.8679 318.58 36.8679H315.627V48.8594ZM328.632 50.5V39.0455H330.392V50.5H328.632ZM329.527 37.1364C329.184 37.1364 328.888 37.0195 328.64 36.7859C328.396 36.5522 328.274 36.2713 328.274 35.9432C328.274 35.6151 328.396 35.3342 328.64 35.1005C328.888 34.8668 329.184 34.75 329.527 34.75C329.87 34.75 330.164 34.8668 330.407 35.1005C330.656 35.3342 330.78 35.6151 330.78 35.9432C330.78 36.2713 330.656 36.5522 330.407 36.7859C330.164 37.0195 329.87 37.1364 329.527 37.1364ZM338.239 55.0341C337.389 55.0341 336.658 54.9247 336.047 54.706C335.435 54.4922 334.926 54.2088 334.518 53.8558C334.115 53.5078 333.795 53.1349 333.556 52.7372L334.958 51.7528C335.117 51.9616 335.318 52.2003 335.562 52.4688C335.806 52.7422 336.139 52.9783 336.561 53.1772C336.989 53.381 337.548 53.483 338.239 53.483C339.164 53.483 339.927 53.2592 340.529 52.8118C341.13 52.3643 341.431 51.6634 341.431 50.7088V48.3821H341.282C341.153 48.5909 340.969 48.8494 340.73 49.1577C340.496 49.4609 340.158 49.7319 339.716 49.9705C339.278 50.2042 338.687 50.321 337.941 50.321C337.016 50.321 336.186 50.1023 335.45 49.6648C334.719 49.2273 334.14 48.5909 333.713 47.7557C333.29 46.9205 333.079 45.9062 333.079 44.7131C333.079 43.5398 333.285 42.5181 333.698 41.6481C334.11 40.7731 334.685 40.0969 335.42 39.6197C336.156 39.1374 337.006 38.8963 337.971 38.8963C338.717 38.8963 339.308 39.0206 339.746 39.2692C340.188 39.5128 340.526 39.7912 340.76 40.1044C340.998 40.4126 341.182 40.6662 341.312 40.8651H341.491V39.0455H343.191V50.8281C343.191 51.8125 342.967 52.6129 342.52 53.2294C342.077 53.8509 341.481 54.3058 340.73 54.5941C339.984 54.8874 339.154 55.0341 338.239 55.0341ZM338.18 48.7401C338.886 48.7401 339.482 48.5785 339.969 48.2553C340.457 47.9322 340.827 47.4673 341.081 46.8608C341.334 46.2543 341.461 45.5284 341.461 44.6832C341.461 43.858 341.337 43.1296 341.088 42.4982C340.839 41.8668 340.472 41.3722 339.984 41.0142C339.497 40.6562 338.896 40.4773 338.18 40.4773C337.434 40.4773 336.812 40.6662 336.315 41.044C335.823 41.4219 335.453 41.929 335.204 42.5653C334.96 43.2017 334.839 43.9077 334.839 44.6832C334.839 45.4787 334.963 46.1822 335.212 46.7937C335.465 47.4002 335.838 47.8775 336.33 48.2255C336.827 48.5685 337.444 48.7401 338.18 48.7401ZM346.413 50.5V39.0455H348.172V50.5H346.413ZM347.307 37.1364C346.964 37.1364 346.669 37.0195 346.42 36.7859C346.176 36.5522 346.055 36.2713 346.055 35.9432C346.055 35.6151 346.176 35.3342 346.42 35.1005C346.669 34.8668 346.964 34.75 347.307 34.75C347.65 34.75 347.944 34.8668 348.187 35.1005C348.436 35.3342 348.56 35.6151 348.56 35.9432C348.56 36.2713 348.436 36.5522 348.187 36.7859C347.944 37.0195 347.65 37.1364 347.307 37.1364ZM356.377 39.0455V40.5369H350.441V39.0455H356.377ZM352.172 36.3011H353.931V47.2188C353.931 47.7159 354.004 48.0888 354.148 48.3374C354.297 48.581 354.486 48.745 354.714 48.8295C354.948 48.9091 355.194 48.9489 355.453 48.9489C355.647 48.9489 355.806 48.9389 355.93 48.919C356.054 48.8942 356.154 48.8743 356.228 48.8594L356.586 50.4403C356.467 50.4851 356.3 50.5298 356.087 50.5746C355.873 50.6243 355.602 50.6491 355.274 50.6491C354.777 50.6491 354.289 50.5423 353.812 50.3285C353.34 50.1147 352.947 49.7891 352.634 49.3516C352.326 48.9141 352.172 48.3622 352.172 47.696V36.3011ZM362.396 50.7685C361.67 50.7685 361.011 50.6317 360.419 50.3583C359.828 50.0799 359.358 49.6797 359.01 49.1577C358.662 48.6307 358.488 47.9943 358.488 47.2486C358.488 46.5923 358.617 46.0604 358.876 45.6527C359.134 45.2401 359.48 44.9169 359.912 44.6832C360.345 44.4496 360.822 44.2756 361.344 44.1612C361.871 44.0419 362.401 43.9474 362.933 43.8778C363.629 43.7884 364.193 43.7212 364.625 43.6765C365.063 43.6268 365.381 43.5447 365.58 43.4304C365.784 43.3161 365.886 43.1172 365.886 42.8338V42.7741C365.886 42.0384 365.684 41.4666 365.282 41.0589C364.884 40.6513 364.28 40.4474 363.469 40.4474C362.629 40.4474 361.971 40.6314 361.493 40.9993C361.016 41.3672 360.68 41.7599 360.487 42.1776L358.816 41.581C359.114 40.8849 359.512 40.343 360.009 39.9553C360.511 39.5625 361.058 39.2891 361.65 39.1349C362.246 38.9759 362.833 38.8963 363.41 38.8963C363.778 38.8963 364.2 38.9411 364.678 39.0305C365.16 39.1151 365.625 39.2915 366.072 39.56C366.525 39.8285 366.9 40.2337 367.198 40.7756C367.496 41.3175 367.646 42.0433 367.646 42.9531V50.5H365.886V48.9489H365.796C365.677 49.1974 365.478 49.4634 365.2 49.7468C364.921 50.0302 364.551 50.2713 364.088 50.4702C363.626 50.669 363.062 50.7685 362.396 50.7685ZM362.664 49.1875C363.36 49.1875 363.947 49.0508 364.424 48.7773C364.906 48.5039 365.269 48.1509 365.513 47.7184C365.761 47.2859 365.886 46.831 365.886 46.3537V44.7429C365.811 44.8324 365.647 44.9144 365.393 44.989C365.145 45.0586 364.857 45.1207 364.528 45.1754C364.205 45.2251 363.89 45.2699 363.581 45.3097C363.278 45.3445 363.032 45.3743 362.843 45.3991C362.386 45.4588 361.958 45.5558 361.56 45.69C361.168 45.8192 360.849 46.0156 360.606 46.2791C360.367 46.5376 360.248 46.8906 360.248 47.3381C360.248 47.9496 360.474 48.4119 360.926 48.7251C361.384 49.0334 361.963 49.1875 362.664 49.1875ZM372.618 35.2273V50.5H370.858V35.2273H372.618Z" fill="#788896"/>
<path d="M657.5 38.5H583.5V49.5H657.5V38.5Z" fill="#CED8E0"/>
<path d="M759.5 38.5H685.5V49.5H759.5V38.5Z" fill="#CED8E0"/>
<path d="M861.5 38.5H787.5V49.5H861.5V38.5Z" fill="#CED8E0"/>
<path d="M963.5 38.5H889.5V49.5H963.5V38.5Z" fill="#CED8E0"/>
<path d="M1147 16H1000V72.5H1147V16Z" stroke="#C3CFD9" stroke-width="2"/>
<path d="M1020.82 37.8409H1022.4L1026.11 46.8963H1026.23L1029.94 37.8409H1031.52V48.75H1030.28V40.4616H1030.17L1026.77 48.75H1025.57L1022.16 40.4616H1022.06V48.75H1020.82V37.8409ZM1036.4 48.9418C1035.88 48.9418 1035.41 48.8441 1034.99 48.6488C1034.57 48.4499 1034.23 48.1641 1033.98 47.7912C1033.74 47.4148 1033.61 46.9602 1033.61 46.4276C1033.61 45.9588 1033.7 45.5788 1033.89 45.2876C1034.07 44.9929 1034.32 44.7621 1034.63 44.5952C1034.94 44.4283 1035.28 44.304 1035.65 44.2223C1036.03 44.1371 1036.41 44.0696 1036.79 44.0199C1037.28 43.956 1037.69 43.908 1038 43.8761C1038.31 43.8406 1038.54 43.782 1038.68 43.7003C1038.82 43.6186 1038.9 43.4766 1038.9 43.2741V43.2315C1038.9 42.706 1038.75 42.2976 1038.46 42.0064C1038.18 41.7152 1037.75 41.5696 1037.17 41.5696C1036.57 41.5696 1036.1 41.701 1035.76 41.9638C1035.42 42.2266 1035.18 42.5071 1035.04 42.8054L1033.85 42.3793C1034.06 41.8821 1034.34 41.495 1034.7 41.218C1035.06 40.9375 1035.45 40.7422 1035.87 40.6321C1036.3 40.5185 1036.72 40.4616 1037.13 40.4616C1037.39 40.4616 1037.69 40.4936 1038.03 40.5575C1038.38 40.6179 1038.71 40.744 1039.03 40.9357C1039.35 41.1275 1039.62 41.4169 1039.83 41.804C1040.05 42.1911 1040.15 42.7095 1040.15 43.3594V48.75H1038.9V47.642H1038.83C1038.75 47.8196 1038.6 48.0096 1038.41 48.212C1038.21 48.4144 1037.94 48.5866 1037.61 48.7287C1037.28 48.8707 1036.88 48.9418 1036.4 48.9418ZM1036.59 47.8125C1037.09 47.8125 1037.51 47.7148 1037.85 47.5195C1038.2 47.3242 1038.46 47.0721 1038.63 46.7631C1038.81 46.4542 1038.9 46.1293 1038.9 45.7884V44.6378C1038.84 44.7017 1038.73 44.7603 1038.54 44.8136C1038.37 44.8633 1038.16 44.9077 1037.93 44.9467C1037.7 44.9822 1037.47 45.0142 1037.25 45.0426C1037.03 45.0675 1036.86 45.0888 1036.72 45.1065C1036.4 45.1491 1036.09 45.2184 1035.81 45.3143C1035.53 45.4066 1035.3 45.5469 1035.12 45.7351C1034.95 45.9197 1034.87 46.1719 1034.87 46.4915C1034.87 46.9283 1035.03 47.2585 1035.35 47.4822C1035.68 47.7024 1036.09 47.8125 1036.59 47.8125ZM1042.45 48.75V40.5682H1043.66V41.804H1043.75C1043.9 41.3991 1044.17 41.0707 1044.56 40.8185C1044.95 40.5664 1045.39 40.4403 1045.88 40.4403C1045.97 40.4403 1046.09 40.4421 1046.22 40.4457C1046.36 40.4492 1046.47 40.4545 1046.54 40.4616V41.7401C1046.5 41.7294 1046.4 41.7134 1046.25 41.6921C1046.1 41.6673 1045.94 41.6548 1045.77 41.6548C1045.37 41.6548 1045.02 41.7383 1044.71 41.9052C1044.4 42.0685 1044.15 42.2958 1043.97 42.587C1043.79 42.8746 1043.7 43.2031 1043.7 43.5724V48.75H1042.45ZM1051.1 48.9205C1050.34 48.9205 1049.68 48.7393 1049.12 48.3771C1048.57 48.0149 1048.14 47.516 1047.84 46.8803C1047.55 46.2447 1047.4 45.5185 1047.4 44.7017C1047.4 43.8707 1047.55 43.1374 1047.85 42.5018C1048.16 41.8626 1048.59 41.3636 1049.14 41.005C1049.7 40.6428 1050.34 40.4616 1051.08 40.4616C1051.66 40.4616 1052.18 40.5682 1052.64 40.7812C1053.1 40.9943 1053.48 41.2926 1053.77 41.6761C1054.07 42.0597 1054.25 42.5071 1054.32 43.0185H1053.06C1052.97 42.6456 1052.75 42.3153 1052.42 42.0277C1052.1 41.7365 1051.66 41.5909 1051.1 41.5909C1050.61 41.5909 1050.18 41.7187 1049.81 41.9744C1049.45 42.2266 1049.16 42.5835 1048.96 43.0451C1048.75 43.5032 1048.65 44.0412 1048.65 44.6591C1048.65 45.2912 1048.75 45.8416 1048.95 46.3104C1049.15 46.7791 1049.44 47.1431 1049.8 47.4023C1050.17 47.6616 1050.61 47.7912 1051.1 47.7912C1051.43 47.7912 1051.73 47.7344 1051.99 47.6207C1052.26 47.5071 1052.48 47.3438 1052.67 47.1307C1052.85 46.9176 1052.99 46.6619 1053.06 46.3636H1054.32C1054.25 46.8466 1054.07 47.2816 1053.79 47.6687C1053.52 48.0522 1053.15 48.3576 1052.69 48.5849C1052.24 48.8086 1051.71 48.9205 1051.1 48.9205ZM1058.57 48.9418C1058.05 48.9418 1057.58 48.8441 1057.15 48.6488C1056.73 48.4499 1056.4 48.1641 1056.15 47.7912C1055.9 47.4148 1055.77 46.9602 1055.77 46.4276C1055.77 45.9588 1055.87 45.5788 1056.05 45.2876C1056.24 44.9929 1056.48 44.7621 1056.79 44.5952C1057.1 44.4283 1057.44 44.304 1057.81 44.2223C1058.19 44.1371 1058.57 44.0696 1058.95 44.0199C1059.45 43.956 1059.85 43.908 1060.16 43.8761C1060.47 43.8406 1060.7 43.782 1060.84 43.7003C1060.99 43.6186 1061.06 43.4766 1061.06 43.2741V43.2315C1061.06 42.706 1060.92 42.2976 1060.63 42.0064C1060.34 41.7152 1059.91 41.5696 1059.33 41.5696C1058.73 41.5696 1058.26 41.701 1057.92 41.9638C1057.58 42.2266 1057.34 42.5071 1057.2 42.8054L1056.01 42.3793C1056.22 41.8821 1056.51 41.495 1056.86 41.218C1057.22 40.9375 1057.61 40.7422 1058.03 40.6321C1058.46 40.5185 1058.88 40.4616 1059.29 40.4616C1059.55 40.4616 1059.86 40.4936 1060.2 40.5575C1060.54 40.6179 1060.87 40.744 1061.19 40.9357C1061.52 41.1275 1061.78 41.4169 1062 41.804C1062.21 42.1911 1062.32 42.7095 1062.32 43.3594V48.75H1061.06V47.642H1061C1060.91 47.8196 1060.77 48.0096 1060.57 48.212C1060.37 48.4144 1060.11 48.5866 1059.78 48.7287C1059.44 48.8707 1059.04 48.9418 1058.57 48.9418ZM1058.76 47.8125C1059.25 47.8125 1059.67 47.7148 1060.01 47.5195C1060.36 47.3242 1060.62 47.0721 1060.79 46.7631C1060.97 46.4542 1061.06 46.1293 1061.06 45.7884V44.6378C1061.01 44.7017 1060.89 44.7603 1060.71 44.8136C1060.53 44.8633 1060.32 44.9077 1060.09 44.9467C1059.86 44.9822 1059.63 45.0142 1059.41 45.0426C1059.2 45.0675 1059.02 45.0888 1058.89 45.1065C1058.56 45.1491 1058.25 45.2184 1057.97 45.3143C1057.69 45.4066 1057.46 45.5469 1057.29 45.7351C1057.12 45.9197 1057.03 46.1719 1057.03 46.4915C1057.03 46.9283 1057.19 47.2585 1057.52 47.4822C1057.84 47.7024 1058.26 47.8125 1058.76 47.8125ZM1069 48.75V37.8409H1072.69C1073.54 37.8409 1074.24 37.9954 1074.78 38.3043C1075.33 38.6097 1075.74 39.0234 1076 39.5455C1076.26 40.0675 1076.39 40.6499 1076.39 41.2926C1076.39 41.9354 1076.26 42.5195 1076 43.0451C1075.74 43.5707 1075.34 43.9897 1074.8 44.3022C1074.25 44.6112 1073.56 44.7656 1072.71 44.7656H1070.07V43.5938H1072.66C1073.25 43.5938 1073.72 43.4925 1074.08 43.2901C1074.43 43.0877 1074.69 42.8143 1074.85 42.4698C1075.01 42.1218 1075.09 41.7294 1075.09 41.2926C1075.09 40.8558 1075.01 40.4652 1074.85 40.1207C1074.69 39.7763 1074.43 39.5064 1074.07 39.3111C1073.71 39.1122 1073.24 39.0128 1072.64 39.0128H1070.32V48.75H1069ZM1081.69 48.9205C1080.9 48.9205 1080.22 48.7464 1079.65 48.3984C1079.08 48.0469 1078.65 47.5568 1078.34 46.9283C1078.03 46.2962 1077.88 45.5611 1077.88 44.723C1077.88 43.8849 1078.03 43.1463 1078.34 42.5071C1078.65 41.8643 1079.08 41.3636 1079.63 41.005C1080.18 40.6428 1080.83 40.4616 1081.57 40.4616C1081.99 40.4616 1082.41 40.5327 1082.83 40.6747C1083.24 40.8168 1083.62 41.0476 1083.96 41.3672C1084.3 41.6832 1084.58 42.1023 1084.78 42.6243C1084.98 43.1463 1085.08 43.7891 1085.08 44.5526V45.0852H1078.77V43.9986H1083.8C1083.8 43.5369 1083.71 43.125 1083.53 42.7628C1083.34 42.4006 1083.09 42.1147 1082.75 41.9052C1082.41 41.6957 1082.02 41.5909 1081.57 41.5909C1081.06 41.5909 1080.63 41.7152 1080.27 41.9638C1079.9 42.2088 1079.62 42.5284 1079.43 42.9226C1079.23 43.3168 1079.14 43.7393 1079.14 44.1903V44.9148C1079.14 45.5327 1079.24 46.0565 1079.46 46.4862C1079.67 46.9123 1079.97 47.2372 1080.36 47.4609C1080.74 47.6811 1081.19 47.7912 1081.69 47.7912C1082.02 47.7912 1082.32 47.745 1082.59 47.6527C1082.86 47.5568 1083.09 47.4148 1083.29 47.2266C1083.48 47.0348 1083.63 46.7969 1083.74 46.5128L1084.95 46.8537C1084.83 47.2656 1084.61 47.6278 1084.31 47.9403C1084.01 48.2493 1083.63 48.4908 1083.19 48.6648C1082.75 48.8352 1082.25 48.9205 1081.69 48.9205ZM1090.55 40.5682V41.6335H1086.31V40.5682H1090.55ZM1087.55 38.608H1088.8V46.4062C1088.8 46.7614 1088.86 47.0277 1088.96 47.2053C1089.07 47.3793 1089.2 47.4964 1089.36 47.5568C1089.53 47.6136 1089.71 47.642 1089.89 47.642C1090.03 47.642 1090.14 47.6349 1090.23 47.6207C1090.32 47.603 1090.39 47.5888 1090.45 47.5781L1090.7 48.7074C1090.62 48.7393 1090.5 48.7713 1090.34 48.8033C1090.19 48.8388 1090 48.8565 1089.76 48.8565C1089.41 48.8565 1089.06 48.7802 1088.72 48.6275C1088.38 48.4748 1088.1 48.2422 1087.88 47.9297C1087.66 47.6172 1087.55 47.223 1087.55 46.7472V38.608ZM1092.44 48.75V40.5682H1093.66V41.804H1093.74C1093.89 41.3991 1094.16 41.0707 1094.55 40.8185C1094.94 40.5664 1095.38 40.4403 1095.87 40.4403C1095.97 40.4403 1096.08 40.4421 1096.22 40.4457C1096.36 40.4492 1096.46 40.4545 1096.53 40.4616V41.7401C1096.49 41.7294 1096.39 41.7134 1096.24 41.6921C1096.09 41.6673 1095.93 41.6548 1095.77 41.6548C1095.37 41.6548 1095.01 41.7383 1094.7 41.9052C1094.39 42.0685 1094.15 42.2958 1093.97 42.587C1093.79 42.8746 1093.7 43.2031 1093.7 43.5724V48.75H1092.44ZM1101.1 48.9205C1100.36 48.9205 1099.71 48.7447 1099.15 48.3931C1098.6 48.0415 1098.17 47.5497 1097.85 46.9176C1097.55 46.2855 1097.39 45.5469 1097.39 44.7017C1097.39 43.8494 1097.55 43.1055 1097.85 42.4698C1098.17 41.8342 1098.6 41.3406 1099.15 40.989C1099.71 40.6374 1100.36 40.4616 1101.1 40.4616C1101.84 40.4616 1102.48 40.6374 1103.04 40.989C1103.59 41.3406 1104.03 41.8342 1104.34 42.4698C1104.65 43.1055 1104.81 43.8494 1104.81 44.7017C1104.81 45.5469 1104.65 46.2855 1104.34 46.9176C1104.03 47.5497 1103.59 48.0415 1103.04 48.3931C1102.48 48.7447 1101.84 48.9205 1101.1 48.9205ZM1101.1 47.7912C1101.66 47.7912 1102.12 47.6474 1102.48 47.3597C1102.85 47.0721 1103.11 46.6939 1103.29 46.2251C1103.46 45.7564 1103.55 45.2486 1103.55 44.7017C1103.55 44.1548 1103.46 43.6452 1103.29 43.1729C1103.11 42.7006 1102.85 42.3189 1102.48 42.0277C1102.12 41.7365 1101.66 41.5909 1101.1 41.5909C1100.54 41.5909 1100.08 41.7365 1099.71 42.0277C1099.35 42.3189 1099.08 42.7006 1098.91 43.1729C1098.74 43.6452 1098.65 44.1548 1098.65 44.7017C1098.65 45.2486 1098.74 45.7564 1098.91 46.2251C1099.08 46.6939 1099.35 47.0721 1099.71 47.3597C1100.08 47.6474 1100.54 47.7912 1101.1 47.7912ZM1106.9 48.75V37.8409H1108.15V41.8679H1108.26C1108.35 41.7259 1108.48 41.5447 1108.64 41.3246C1108.81 41.1009 1109.05 40.902 1109.36 40.728C1109.67 40.5504 1110.09 40.4616 1110.62 40.4616C1111.31 40.4616 1111.92 40.6339 1112.45 40.9783C1112.97 41.3228 1113.38 41.8111 1113.68 42.4432C1113.97 43.0753 1114.12 43.821 1114.12 44.6804C1114.12 45.5469 1113.97 46.2979 1113.68 46.9336C1113.38 47.5657 1112.97 48.0558 1112.45 48.4038C1111.93 48.7482 1111.33 48.9205 1110.65 48.9205C1110.12 48.9205 1109.7 48.8335 1109.38 48.6594C1109.07 48.4819 1108.82 48.2812 1108.65 48.0575C1108.48 47.8303 1108.35 47.642 1108.26 47.4929H1108.11V48.75H1106.9ZM1108.13 44.6591C1108.13 45.277 1108.22 45.8221 1108.4 46.2944C1108.58 46.7631 1108.85 47.1307 1109.2 47.397C1109.54 47.6598 1109.97 47.7912 1110.47 47.7912C1111 47.7912 1111.44 47.6527 1111.79 47.3757C1112.15 47.0952 1112.41 46.7187 1112.59 46.2464C1112.77 45.7706 1112.86 45.2415 1112.86 44.6591C1112.86 44.0838 1112.77 43.5653 1112.59 43.1037C1112.42 42.6385 1112.16 42.271 1111.8 42.0011C1111.45 41.7276 1111.01 41.5909 1110.47 41.5909C1109.96 41.5909 1109.53 41.7205 1109.19 41.9798C1108.84 42.2354 1108.57 42.5941 1108.4 43.0558C1108.22 43.5138 1108.13 44.0483 1108.13 44.6591ZM1116.04 48.75V40.5682H1117.26V41.804H1117.34C1117.49 41.3991 1117.76 41.0707 1118.15 40.8185C1118.54 40.5664 1118.98 40.4403 1119.47 40.4403C1119.56 40.4403 1119.68 40.4421 1119.82 40.4457C1119.96 40.4492 1120.06 40.4545 1120.13 40.4616V41.7401C1120.09 41.7294 1119.99 41.7134 1119.84 41.6921C1119.69 41.6673 1119.53 41.6548 1119.37 41.6548C1118.97 41.6548 1118.61 41.7383 1118.3 41.9052C1117.99 42.0685 1117.75 42.2958 1117.56 42.587C1117.39 42.8746 1117.3 43.2031 1117.3 43.5724V48.75H1116.04ZM1124.03 48.9418C1123.51 48.9418 1123.04 48.8441 1122.62 48.6488C1122.2 48.4499 1121.86 48.1641 1121.61 47.7912C1121.36 47.4148 1121.24 46.9602 1121.24 46.4276C1121.24 45.9588 1121.33 45.5788 1121.52 45.2876C1121.7 44.9929 1121.95 44.7621 1122.26 44.5952C1122.57 44.4283 1122.91 44.304 1123.28 44.2223C1123.66 44.1371 1124.03 44.0696 1124.41 44.0199C1124.91 43.956 1125.31 43.908 1125.62 43.8761C1125.94 43.8406 1126.16 43.782 1126.3 43.7003C1126.45 43.6186 1126.52 43.4766 1126.52 43.2741V43.2315C1126.52 42.706 1126.38 42.2976 1126.09 42.0064C1125.81 41.7152 1125.38 41.5696 1124.8 41.5696C1124.2 41.5696 1123.73 41.701 1123.39 41.9638C1123.04 42.2266 1122.8 42.5071 1122.67 42.8054L1121.47 42.3793C1121.69 41.8821 1121.97 41.495 1122.33 41.218C1122.68 40.9375 1123.07 40.7422 1123.5 40.6321C1123.92 40.5185 1124.34 40.4616 1124.75 40.4616C1125.02 40.4616 1125.32 40.4936 1125.66 40.5575C1126 40.6179 1126.34 40.744 1126.66 40.9357C1126.98 41.1275 1127.25 41.4169 1127.46 41.804C1127.67 42.1911 1127.78 42.7095 1127.78 43.3594V48.75H1126.52V47.642H1126.46C1126.37 47.8196 1126.23 48.0096 1126.03 48.212C1125.83 48.4144 1125.57 48.5866 1125.24 48.7287C1124.91 48.8707 1124.51 48.9418 1124.03 48.9418ZM1124.22 47.8125C1124.72 47.8125 1125.14 47.7148 1125.48 47.5195C1125.82 47.3242 1126.08 47.0721 1126.26 46.7631C1126.43 46.4542 1126.52 46.1293 1126.52 45.7884V44.6378C1126.47 44.7017 1126.35 44.7603 1126.17 44.8136C1125.99 44.8633 1125.79 44.9077 1125.55 44.9467C1125.32 44.9822 1125.1 45.0142 1124.88 45.0426C1124.66 45.0675 1124.48 45.0888 1124.35 45.1065C1124.02 45.1491 1123.72 45.2184 1123.43 45.3143C1123.15 45.4066 1122.93 45.5469 1122.75 45.7351C1122.58 45.9197 1122.5 46.1719 1122.5 46.4915C1122.5 46.9283 1122.66 47.2585 1122.98 47.4822C1123.31 47.7024 1123.72 47.8125 1124.22 47.8125ZM1135.87 42.4006L1134.74 42.7202C1134.67 42.532 1134.56 42.3491 1134.43 42.1715C1134.29 41.9904 1134.11 41.8413 1133.87 41.7241C1133.64 41.6069 1133.34 41.5483 1132.97 41.5483C1132.47 41.5483 1132.05 41.6637 1131.72 41.8945C1131.39 42.1218 1131.22 42.4112 1131.22 42.7628C1131.22 43.0753 1131.34 43.3221 1131.57 43.5032C1131.79 43.6843 1132.15 43.8352 1132.63 43.956L1133.85 44.2543C1134.58 44.4318 1135.12 44.7035 1135.48 45.0692C1135.84 45.4315 1136.02 45.8984 1136.02 46.4702C1136.02 46.9389 1135.88 47.358 1135.61 47.7273C1135.35 48.0966 1134.97 48.3878 1134.5 48.6009C1134.02 48.8139 1133.46 48.9205 1132.82 48.9205C1131.99 48.9205 1131.3 48.7393 1130.75 48.3771C1130.2 48.0149 1129.86 47.4858 1129.71 46.7898L1130.91 46.4915C1131.02 46.9318 1131.23 47.2621 1131.55 47.4822C1131.87 47.7024 1132.29 47.8125 1132.8 47.8125C1133.39 47.8125 1133.85 47.6882 1134.2 47.4396C1134.55 47.1875 1134.72 46.8857 1134.72 46.5341C1134.72 46.25 1134.62 46.0121 1134.42 45.8203C1134.22 45.625 1133.92 45.4794 1133.5 45.3835L1132.14 45.0639C1131.39 44.8864 1130.84 44.6112 1130.49 44.2383C1130.14 43.8619 1129.97 43.3913 1129.97 42.8267C1129.97 42.3651 1130.1 41.9567 1130.36 41.6016C1130.62 41.2464 1130.98 40.9677 1131.43 40.7653C1131.88 40.5629 1132.4 40.4616 1132.97 40.4616C1133.78 40.4616 1134.42 40.6392 1134.88 40.9943C1135.34 41.3494 1135.67 41.8182 1135.87 42.4006Z" fill="#788896"/>
<path d="M1162 88H0V246H1162V88Z" fill="#F2F5F7" stroke="#C3CFD9" stroke-width="2"/>
</g>
<defs>
<clipPath id="clip0_1_321">
<rect width="1162" height="246" fill="white"/>
</clipPath>
</defs>
</svg>
