<svg width="1178" height="262" viewBox="0 0 1178 262" fill="none" xmlns="http://www.w3.org/2000/svg">
<rect width="1178" height="262" fill="white"/>
<path d="M1170 8H8V96H1170V8Z" stroke="#C3CFD9" stroke-width="2"/>
<path d="M37.9602 43.2273V58.5H36.1705L27.848 46.5085H27.6989V58.5H25.8494V43.2273H27.6392L35.9915 55.2486H36.1406V43.2273H37.9602ZM46.0757 58.7386C45.0416 58.7386 44.1343 58.4925 43.3538 58.0004C42.5782 57.5082 41.9717 56.8196 41.5342 55.9347C41.1017 55.0497 40.8854 54.0156 40.8854 52.8324C40.8854 51.6392 41.1017 50.5977 41.5342 49.7077C41.9717 48.8178 42.5782 48.1268 43.3538 47.6346C44.1343 47.1424 45.0416 46.8963 46.0757 46.8963C47.1098 46.8963 48.0146 47.1424 48.7902 47.6346C49.5708 48.1268 50.1773 48.8178 50.6098 49.7077C51.0473 50.5977 51.2661 51.6392 51.2661 52.8324C51.2661 54.0156 51.0473 55.0497 50.6098 55.9347C50.1773 56.8196 49.5708 57.5082 48.7902 58.0004C48.0146 58.4925 47.1098 58.7386 46.0757 58.7386ZM46.0757 57.1577C46.8612 57.1577 47.5075 56.9563 48.0146 56.5536C48.5218 56.1509 48.8971 55.6214 49.1407 54.9652C49.3843 54.3089 49.5061 53.598 49.5061 52.8324C49.5061 52.0668 49.3843 51.3533 49.1407 50.6921C48.8971 50.0309 48.5218 49.4964 48.0146 49.0888C47.5075 48.6811 46.8612 48.4773 46.0757 48.4773C45.2902 48.4773 44.6439 48.6811 44.1368 49.0888C43.6297 49.4964 43.2544 50.0309 43.0107 50.6921C42.7671 51.3533 42.6453 52.0668 42.6453 52.8324C42.6453 53.598 42.7671 54.3089 43.0107 54.9652C43.2544 55.6214 43.6297 56.1509 44.1368 56.5536C44.6439 56.9563 45.2902 57.1577 46.0757 57.1577ZM53.9526 58.5V47.0455H55.6529V48.8352H55.802C56.0407 48.2237 56.426 47.7489 56.9579 47.4109C57.4899 47.0678 58.1287 46.8963 58.8745 46.8963C59.6301 46.8963 60.2591 47.0678 60.7612 47.4109C61.2683 47.7489 61.6635 48.2237 61.9469 48.8352H62.0662C62.3596 48.2436 62.7995 47.7738 63.3862 47.4258C63.9728 47.0728 64.6763 46.8963 65.4966 46.8963C66.5208 46.8963 67.3585 47.217 68.0098 47.8583C68.661 48.4947 68.9867 49.4865 68.9867 50.8338V58.5H67.2267V50.8338C67.2267 49.9886 66.9956 49.3846 66.5332 49.0217C66.0708 48.6587 65.5265 48.4773 64.9 48.4773C64.0946 48.4773 63.4707 48.7209 63.0282 49.2081C62.5858 49.6903 62.3645 50.3018 62.3645 51.0426V58.5H60.5748V50.6548C60.5748 50.0036 60.3635 49.479 59.9409 49.0813C59.5183 48.6786 58.9739 48.4773 58.3077 48.4773C57.8503 48.4773 57.4228 48.5991 57.025 48.8427C56.6323 49.0863 56.3141 49.4244 56.0705 49.8569C55.8319 50.2844 55.7125 50.7791 55.7125 51.3409V58.5H53.9526ZM77.0071 58.7386C75.9034 58.7386 74.9513 58.495 74.1509 58.0078C73.3555 57.5156 72.7415 56.8295 72.3089 55.9496C71.8814 55.0646 71.6676 54.0355 71.6676 52.8622C71.6676 51.6889 71.8814 50.6548 72.3089 49.7599C72.7415 48.8601 73.343 48.1591 74.1136 47.657C74.8892 47.1499 75.794 46.8963 76.8281 46.8963C77.4247 46.8963 78.0138 46.9957 78.5955 47.1946C79.1772 47.3935 79.7067 47.7166 80.1839 48.1641C80.6612 48.6065 81.0415 49.1932 81.3249 49.924C81.6083 50.6548 81.75 51.5547 81.75 52.6236V53.3693H72.9205V51.848H79.9602C79.9602 51.2017 79.831 50.625 79.5724 50.1179C79.3189 49.6108 78.956 49.2106 78.4837 48.9173C78.0163 48.6239 77.4645 48.4773 76.8281 48.4773C76.1271 48.4773 75.5206 48.6513 75.0085 48.9993C74.5014 49.3423 74.1112 49.7898 73.8377 50.3416C73.5643 50.8935 73.4276 51.4851 73.4276 52.1165V53.1307C73.4276 53.9957 73.5767 54.729 73.875 55.3306C74.1783 55.9272 74.5984 56.3821 75.1353 56.6953C75.6722 57.0036 76.2962 57.1577 77.0071 57.1577C77.4695 57.1577 77.8871 57.093 78.2599 56.9638C78.6378 56.8295 78.9634 56.6307 79.2369 56.3672C79.5103 56.0987 79.7216 55.7656 79.8707 55.3679L81.571 55.8452C81.392 56.4219 81.0913 56.929 80.6687 57.3665C80.2461 57.799 79.7241 58.1371 79.1026 58.3807C78.4812 58.6193 77.7827 58.7386 77.0071 58.7386ZM94.6587 58.7386C93.7042 58.7386 92.8615 58.4975 92.1307 58.0153C91.3999 57.5281 90.8281 56.842 90.4155 55.957C90.0028 55.0671 89.7965 54.0156 89.7965 52.8026C89.7965 51.5994 90.0028 50.5554 90.4155 49.6705C90.8281 48.7855 91.4023 48.1019 92.1381 47.6197C92.8739 47.1374 93.7241 46.8963 94.6886 46.8963C95.4343 46.8963 96.0234 47.0206 96.456 47.2692C96.8935 47.5128 97.2266 47.7912 97.4553 48.1044C97.6889 48.4126 97.8704 48.6662 97.9996 48.8651H98.1488V43.2273H99.9087V58.5H98.2085V56.7401H97.9996C97.8704 56.9489 97.6864 57.2124 97.4478 57.5305C97.2092 57.8437 96.8686 58.1246 96.4261 58.3732C95.9837 58.6168 95.3945 58.7386 94.6587 58.7386ZM94.8974 57.1577C95.6033 57.1577 96.1999 56.9737 96.6871 56.6058C97.1744 56.233 97.5447 55.7184 97.7983 55.0621C98.0518 54.4009 98.1786 53.6378 98.1786 52.7727C98.1786 51.9176 98.0543 51.1694 97.8058 50.5281C97.5572 49.8817 97.1893 49.3796 96.7021 49.0217C96.2148 48.6587 95.6133 48.4773 94.8974 48.4773C94.1516 48.4773 93.5302 48.6687 93.033 49.0515C92.5408 49.4293 92.1705 49.9439 91.9219 50.5952C91.6783 51.2415 91.5565 51.9673 91.5565 52.7727C91.5565 53.5881 91.6808 54.3288 91.9293 54.995C92.1829 55.6562 92.5558 56.1832 93.0479 56.576C93.5451 56.9638 94.1616 57.1577 94.8974 57.1577ZM106.747 58.7685C106.021 58.7685 105.363 58.6317 104.771 58.3583C104.179 58.0799 103.71 57.6797 103.362 57.1577C103.013 56.6307 102.839 55.9943 102.839 55.2486C102.839 54.5923 102.969 54.0604 103.227 53.6527C103.486 53.2401 103.831 52.9169 104.264 52.6832C104.696 52.4496 105.174 52.2756 105.696 52.1612C106.223 52.0419 106.752 51.9474 107.284 51.8778C107.98 51.7884 108.544 51.7212 108.977 51.6765C109.414 51.6268 109.733 51.5447 109.931 51.4304C110.135 51.3161 110.237 51.1172 110.237 50.8338V50.7741C110.237 50.0384 110.036 49.4666 109.633 49.0589C109.235 48.6513 108.631 48.4474 107.821 48.4474C106.981 48.4474 106.322 48.6314 105.845 48.9993C105.368 49.3672 105.032 49.7599 104.838 50.1776L103.168 49.581C103.466 48.8849 103.864 48.343 104.361 47.9553C104.863 47.5625 105.41 47.2891 106.001 47.1349C106.598 46.9759 107.185 46.8963 107.761 46.8963C108.129 46.8963 108.552 46.9411 109.029 47.0305C109.511 47.1151 109.976 47.2915 110.424 47.56C110.876 47.8285 111.251 48.2337 111.55 48.7756C111.848 49.3175 111.997 50.0433 111.997 50.9531V58.5H110.237V56.9489H110.148C110.028 57.1974 109.83 57.4634 109.551 57.7468C109.273 58.0302 108.902 58.2713 108.44 58.4702C107.978 58.669 107.413 58.7685 106.747 58.7685ZM107.016 57.1875C107.712 57.1875 108.298 57.0508 108.776 56.7773C109.258 56.5039 109.621 56.1509 109.864 55.7184C110.113 55.2859 110.237 54.831 110.237 54.3537V52.7429C110.163 52.8324 109.999 52.9144 109.745 52.989C109.496 53.0586 109.208 53.1207 108.88 53.1754C108.557 53.2251 108.241 53.2699 107.933 53.3097C107.63 53.3445 107.384 53.3743 107.195 53.3991C106.737 53.4588 106.31 53.5558 105.912 53.69C105.519 53.8192 105.201 54.0156 104.957 54.2791C104.719 54.5376 104.599 54.8906 104.599 55.3381C104.599 55.9496 104.826 56.4119 105.278 56.7251C105.735 57.0334 106.315 57.1875 107.016 57.1875ZM121.981 58.5H120.042L125.65 43.2273H127.559L133.167 58.5H131.228L126.664 45.6435H126.545L121.981 58.5ZM122.697 52.5341H130.512V54.1747H122.697V52.5341ZM135.307 62.7955V47.0455H137.007V48.8651H137.216C137.345 48.6662 137.524 48.4126 137.753 48.1044C137.987 47.7912 138.32 47.5128 138.752 47.2692C139.19 47.0206 139.782 46.8963 140.527 46.8963C141.492 46.8963 142.342 47.1374 143.078 47.6197C143.813 48.1019 144.388 48.7855 144.8 49.6705C145.213 50.5554 145.419 51.5994 145.419 52.8026C145.419 54.0156 145.213 55.0671 144.8 55.957C144.388 56.842 143.816 57.5281 143.085 58.0153C142.354 58.4975 141.512 58.7386 140.557 58.7386C139.821 58.7386 139.232 58.6168 138.79 58.3732C138.347 58.1246 138.007 57.8437 137.768 57.5305C137.529 57.2124 137.345 56.9489 137.216 56.7401H137.067V62.7955H135.307ZM137.037 52.7727C137.037 53.6378 137.164 54.4009 137.418 55.0621C137.671 55.7184 138.041 56.233 138.529 56.6058C139.016 56.9737 139.612 57.1577 140.318 57.1577C141.054 57.1577 141.668 56.9638 142.16 56.576C142.658 56.1832 143.03 55.6562 143.279 54.995C143.533 54.3288 143.659 53.5881 143.659 52.7727C143.659 51.9673 143.535 51.2415 143.286 50.5952C143.043 49.9439 142.672 49.4293 142.175 49.0515C141.683 48.6687 141.064 48.4773 140.318 48.4773C139.603 48.4773 139.001 48.6587 138.514 49.0217C138.027 49.3796 137.659 49.8817 137.41 50.5281C137.161 51.1694 137.037 51.9176 137.037 52.7727ZM149.864 43.2273V58.5H148.104V43.2273H149.864ZM153.087 58.5V47.0455H154.847V58.5H153.087ZM153.982 45.1364C153.639 45.1364 153.343 45.0195 153.095 44.7859C152.851 44.5522 152.729 44.2713 152.729 43.9432C152.729 43.6151 152.851 43.3342 153.095 43.1005C153.343 42.8668 153.639 42.75 153.982 42.75C154.325 42.75 154.619 42.8668 154.862 43.1005C155.111 43.3342 155.235 43.6151 155.235 43.9432C155.235 44.2713 155.111 44.5522 154.862 44.7859C154.619 45.0195 154.325 45.1364 153.982 45.1364ZM162.724 58.7386C161.65 58.7386 160.726 58.4851 159.95 57.978C159.174 57.4709 158.578 56.7724 158.16 55.8825C157.743 54.9925 157.534 53.9759 157.534 52.8324C157.534 51.669 157.748 50.6424 158.175 49.7525C158.608 48.8576 159.209 48.1591 159.98 47.657C160.755 47.1499 161.66 46.8963 162.694 46.8963C163.5 46.8963 164.226 47.0455 164.872 47.3438C165.518 47.642 166.048 48.0597 166.46 48.5966C166.873 49.1335 167.129 49.7599 167.228 50.4759H165.468C165.334 49.9538 165.036 49.4915 164.574 49.0888C164.116 48.6811 163.5 48.4773 162.724 48.4773C162.038 48.4773 161.437 48.6562 160.919 49.0142C160.407 49.3672 160.007 49.8668 159.719 50.5131C159.435 51.1545 159.294 51.9077 159.294 52.7727C159.294 53.6577 159.433 54.4283 159.711 55.0845C159.995 55.7408 160.392 56.2504 160.905 56.6133C161.422 56.9762 162.028 57.1577 162.724 57.1577C163.182 57.1577 163.597 57.0781 163.97 56.919C164.342 56.7599 164.658 56.5312 164.917 56.233C165.175 55.9347 165.359 55.5767 165.468 55.1591H167.228C167.129 55.8352 166.883 56.4442 166.49 56.9862C166.102 57.5231 165.588 57.9506 164.946 58.2688C164.31 58.582 163.569 58.7386 162.724 58.7386ZM173.172 58.7685C172.446 58.7685 171.787 58.6317 171.196 58.3583C170.604 58.0799 170.134 57.6797 169.786 57.1577C169.438 56.6307 169.264 55.9943 169.264 55.2486C169.264 54.5923 169.394 54.0604 169.652 53.6527C169.911 53.2401 170.256 52.9169 170.689 52.6832C171.121 52.4496 171.598 52.2756 172.12 52.1612C172.647 52.0419 173.177 51.9474 173.709 51.8778C174.405 51.7884 174.969 51.7212 175.402 51.6765C175.839 51.6268 176.157 51.5447 176.356 51.4304C176.56 51.3161 176.662 51.1172 176.662 50.8338V50.7741C176.662 50.0384 176.461 49.4666 176.058 49.0589C175.66 48.6513 175.056 48.4474 174.246 48.4474C173.406 48.4474 172.747 48.6314 172.27 48.9993C171.792 49.3672 171.457 49.7599 171.263 50.1776L169.592 49.581C169.891 48.8849 170.288 48.343 170.786 47.9553C171.288 47.5625 171.835 47.2891 172.426 47.1349C173.023 46.9759 173.609 46.8963 174.186 46.8963C174.554 46.8963 174.977 46.9411 175.454 47.0305C175.936 47.1151 176.401 47.2915 176.848 47.56C177.301 47.8285 177.676 48.2337 177.975 48.7756C178.273 49.3175 178.422 50.0433 178.422 50.9531V58.5H176.662V56.9489H176.573C176.453 57.1974 176.254 57.4634 175.976 57.7468C175.698 58.0302 175.327 58.2713 174.865 58.4702C174.402 58.669 173.838 58.7685 173.172 58.7685ZM173.44 57.1875C174.136 57.1875 174.723 57.0508 175.2 56.7773C175.683 56.5039 176.046 56.1509 176.289 55.7184C176.538 55.2859 176.662 54.831 176.662 54.3537V52.7429C176.587 52.8324 176.423 52.9144 176.17 52.989C175.921 53.0586 175.633 53.1207 175.305 53.1754C174.982 53.2251 174.666 53.2699 174.358 53.3097C174.054 53.3445 173.808 53.3743 173.619 53.3991C173.162 53.4588 172.734 53.5558 172.337 53.69C171.944 53.8192 171.626 54.0156 171.382 54.2791C171.144 54.5376 171.024 54.8906 171.024 55.3381C171.024 55.9496 171.25 56.4119 171.703 56.7251C172.16 57.0334 172.739 57.1875 173.44 57.1875ZM186.288 58.7386C185.214 58.7386 184.289 58.4851 183.513 57.978C182.738 57.4709 182.141 56.7724 181.724 55.8825C181.306 54.9925 181.097 53.9759 181.097 52.8324C181.097 51.669 181.311 50.6424 181.739 49.7525C182.171 48.8576 182.773 48.1591 183.543 47.657C184.319 47.1499 185.224 46.8963 186.258 46.8963C187.063 46.8963 187.789 47.0455 188.435 47.3438C189.082 47.642 189.611 48.0597 190.024 48.5966C190.436 49.1335 190.692 49.7599 190.792 50.4759H189.032C188.898 49.9538 188.599 49.4915 188.137 49.0888C187.68 48.6811 187.063 48.4773 186.288 48.4773C185.602 48.4773 185 48.6562 184.483 49.0142C183.971 49.3672 183.571 49.8668 183.282 50.5131C182.999 51.1545 182.857 51.9077 182.857 52.7727C182.857 53.6577 182.996 54.4283 183.275 55.0845C183.558 55.7408 183.956 56.2504 184.468 56.6133C184.985 56.9762 185.592 57.1577 186.288 57.1577C186.745 57.1577 187.16 57.0781 187.533 56.919C187.906 56.7599 188.222 56.5312 188.48 56.233C188.739 55.9347 188.923 55.5767 189.032 55.1591H190.792C190.692 55.8352 190.446 56.4442 190.054 56.9862C189.666 57.5231 189.151 57.9506 188.51 58.2688C187.874 58.582 187.133 58.7386 186.288 58.7386ZM185.452 58.4403H186.914L186.795 59.0369C187.183 59.0966 187.538 59.2582 187.861 59.5217C188.184 59.7901 188.346 60.2152 188.346 60.7969C188.346 61.4382 188.08 61.9602 187.548 62.3629C187.021 62.7706 186.243 62.9744 185.214 62.9744L185.154 61.8111C185.616 61.8111 185.999 61.7365 186.303 61.5874C186.611 61.4432 186.765 61.1996 186.765 60.8565C186.765 60.5135 186.638 60.2798 186.385 60.1555C186.131 60.0313 185.721 59.9467 185.154 59.902L185.452 58.4403ZM196.735 58.7685C196.01 58.7685 195.351 58.6317 194.759 58.3583C194.168 58.0799 193.698 57.6797 193.35 57.1577C193.002 56.6307 192.828 55.9943 192.828 55.2486C192.828 54.5923 192.957 54.0604 193.216 53.6527C193.474 53.2401 193.82 52.9169 194.252 52.6832C194.685 52.4496 195.162 52.2756 195.684 52.1612C196.211 52.0419 196.74 51.9474 197.272 51.8778C197.968 51.7884 198.533 51.7212 198.965 51.6765C199.403 51.6268 199.721 51.5447 199.92 51.4304C200.124 51.3161 200.225 51.1172 200.225 50.8338V50.7741C200.225 50.0384 200.024 49.4666 199.621 49.0589C199.224 48.6513 198.62 48.4474 197.809 48.4474C196.969 48.4474 196.31 48.6314 195.833 48.9993C195.356 49.3672 195.02 49.7599 194.826 50.1776L193.156 49.581C193.454 48.8849 193.852 48.343 194.349 47.9553C194.851 47.5625 195.398 47.2891 195.99 47.1349C196.586 46.9759 197.173 46.8963 197.75 46.8963C198.118 46.8963 198.54 46.9411 199.017 47.0305C199.5 47.1151 199.964 47.2915 200.412 47.56C200.864 47.8285 201.24 48.2337 201.538 48.7756C201.836 49.3175 201.985 50.0433 201.985 50.9531V58.5H200.225V56.9489H200.136C200.017 57.1974 199.818 57.4634 199.539 57.7468C199.261 58.0302 198.891 58.2713 198.428 58.4702C197.966 58.669 197.402 58.7685 196.735 58.7685ZM197.004 57.1875C197.7 57.1875 198.287 57.0508 198.764 56.7773C199.246 56.5039 199.609 56.1509 199.853 55.7184C200.101 55.2859 200.225 54.831 200.225 54.3537V52.7429C200.151 52.8324 199.987 52.9144 199.733 52.989C199.485 53.0586 199.196 53.1207 198.868 53.1754C198.545 53.2251 198.229 53.2699 197.921 53.3097C197.618 53.3445 197.372 53.3743 197.183 53.3991C196.725 53.4588 196.298 53.5558 195.9 53.69C195.507 53.8192 195.189 54.0156 194.946 54.2791C194.707 54.5376 194.588 54.8906 194.588 55.3381C194.588 55.9496 194.814 56.4119 195.266 56.7251C195.724 57.0334 196.303 57.1875 197.004 57.1875ZM195.572 45.6733L194.2 45.6136C194.2 44.853 194.416 44.2315 194.849 43.7493C195.286 43.2621 195.826 43.0185 196.467 43.0185C196.75 43.0185 197.001 43.0682 197.22 43.1676C197.439 43.2621 197.648 43.3714 197.847 43.4957C198.045 43.62 198.249 43.7319 198.458 43.8313C198.672 43.9258 198.913 43.973 199.181 43.973C199.465 43.973 199.703 43.8636 199.897 43.6449C200.096 43.4212 200.196 43.1527 200.196 42.8395L201.538 42.9588C201.538 43.7344 201.319 44.3509 200.882 44.8082C200.449 45.2656 199.912 45.4943 199.271 45.4943C198.928 45.4943 198.645 45.4471 198.421 45.3526C198.197 45.2532 197.998 45.1413 197.824 45.017C197.65 44.8928 197.466 44.7834 197.272 44.6889C197.078 44.5895 196.84 44.5398 196.556 44.5398C196.273 44.5398 196.037 44.6516 195.848 44.8754C195.664 45.0941 195.572 45.3601 195.572 45.6733ZM209.851 58.7386C208.817 58.7386 207.91 58.4925 207.129 58.0004C206.354 57.5082 205.747 56.8196 205.31 55.9347C204.877 55.0497 204.661 54.0156 204.661 52.8324C204.661 51.6392 204.877 50.5977 205.31 49.7077C205.747 48.8178 206.354 48.1268 207.129 47.6346C207.91 47.1424 208.817 46.8963 209.851 46.8963C210.885 46.8963 211.79 47.1424 212.566 47.6346C213.346 48.1268 213.953 48.8178 214.385 49.7077C214.823 50.5977 215.041 51.6392 215.041 52.8324C215.041 54.0156 214.823 55.0497 214.385 55.9347C213.953 56.8196 213.346 57.5082 212.566 58.0004C211.79 58.4925 210.885 58.7386 209.851 58.7386ZM209.851 57.1577C210.637 57.1577 211.283 56.9563 211.79 56.5536C212.297 56.1509 212.672 55.6214 212.916 54.9652C213.16 54.3089 213.282 53.598 213.282 52.8324C213.282 52.0668 213.16 51.3533 212.916 50.6921C212.672 50.0309 212.297 49.4964 211.79 49.0888C211.283 48.6811 210.637 48.4773 209.851 48.4773C209.066 48.4773 208.419 48.6811 207.912 49.0888C207.405 49.4964 207.03 50.0309 206.786 50.6921C206.543 51.3533 206.421 52.0668 206.421 52.8324C206.421 53.598 206.543 54.3089 206.786 54.9652C207.03 55.6214 207.405 56.1509 207.912 56.5536C208.419 56.9563 209.066 57.1577 209.851 57.1577ZM229.033 42.5114L224.112 60.7969H222.501L227.423 42.5114H229.033ZM237.264 58.5V43.2273H242.425C243.623 43.2273 244.603 43.4435 245.363 43.8761C246.129 44.3036 246.696 44.8828 247.063 45.6136C247.431 46.3445 247.615 47.1598 247.615 48.0597C247.615 48.9595 247.431 49.7773 247.063 50.5131C246.701 51.2489 246.139 51.8356 245.378 52.2731C244.617 52.7056 243.643 52.9219 242.455 52.9219H238.756V51.2812H242.395C243.215 51.2812 243.874 51.1396 244.371 50.8562C244.869 50.5728 245.229 50.19 245.453 49.7077C245.681 49.2205 245.796 48.6712 245.796 48.0597C245.796 47.4482 245.681 46.9013 245.453 46.419C245.229 45.9368 244.866 45.5589 244.364 45.2855C243.862 45.0071 243.196 44.8679 242.365 44.8679H239.114V58.5H237.264ZM250.356 58.5V47.0455H252.056V48.7756H252.176C252.384 48.2088 252.762 47.7489 253.309 47.396C253.856 47.043 254.472 46.8665 255.158 46.8665C255.288 46.8665 255.449 46.869 255.643 46.8739C255.837 46.8789 255.984 46.8864 256.083 46.8963V48.6861C256.024 48.6712 255.887 48.6488 255.673 48.619C255.464 48.5842 255.243 48.5668 255.009 48.5668C254.453 48.5668 253.955 48.6836 253.518 48.9173C253.085 49.146 252.742 49.4641 252.489 49.8718C252.24 50.2745 252.116 50.7344 252.116 51.2514V58.5H250.356ZM262.474 58.7386C261.44 58.7386 260.533 58.4925 259.752 58.0004C258.977 57.5082 258.37 56.8196 257.933 55.9347C257.5 55.0497 257.284 54.0156 257.284 52.8324C257.284 51.6392 257.5 50.5977 257.933 49.7077C258.37 48.8178 258.977 48.1268 259.752 47.6346C260.533 47.1424 261.44 46.8963 262.474 46.8963C263.508 46.8963 264.413 47.1424 265.189 47.6346C265.969 48.1268 266.576 48.8178 267.008 49.7077C267.446 50.5977 267.665 51.6392 267.665 52.8324C267.665 54.0156 267.446 55.0497 267.008 55.9347C266.576 56.8196 265.969 57.5082 265.189 58.0004C264.413 58.4925 263.508 58.7386 262.474 58.7386ZM262.474 57.1577C263.26 57.1577 263.906 56.9563 264.413 56.5536C264.92 56.1509 265.296 55.6214 265.539 54.9652C265.783 54.3089 265.905 53.598 265.905 52.8324C265.905 52.0668 265.783 51.3533 265.539 50.6921C265.296 50.0309 264.92 49.4964 264.413 49.0888C263.906 48.6811 263.26 48.4773 262.474 48.4773C261.689 48.4773 261.042 48.6811 260.535 49.0888C260.028 49.4964 259.653 50.0309 259.409 50.6921C259.166 51.3533 259.044 52.0668 259.044 52.8324C259.044 53.598 259.166 54.3089 259.409 54.9652C259.653 55.6214 260.028 56.1509 260.535 56.5536C261.042 56.9563 261.689 57.1577 262.474 57.1577ZM274.676 58.7386C273.722 58.7386 272.879 58.4975 272.148 58.0153C271.417 57.5281 270.846 56.842 270.433 55.957C270.02 55.0671 269.814 54.0156 269.814 52.8026C269.814 51.5994 270.02 50.5554 270.433 49.6705C270.846 48.7855 271.42 48.1019 272.156 47.6197C272.892 47.1374 273.742 46.8963 274.706 46.8963C275.452 46.8963 276.041 47.0206 276.474 47.2692C276.911 47.5128 277.244 47.7912 277.473 48.1044C277.706 48.4126 277.888 48.6662 278.017 48.8651H278.166V43.2273H279.926V58.5H278.226V56.7401H278.017C277.888 56.9489 277.704 57.2124 277.465 57.5305C277.227 57.8437 276.886 58.1246 276.444 58.3732C276.001 58.6168 275.412 58.7386 274.676 58.7386ZM274.915 57.1577C275.621 57.1577 276.218 56.9737 276.705 56.6058C277.192 56.233 277.562 55.7184 277.816 55.0621C278.069 54.4009 278.196 53.6378 278.196 52.7727C278.196 51.9176 278.072 51.1694 277.823 50.5281C277.575 49.8817 277.207 49.3796 276.72 49.0217C276.232 48.6587 275.631 48.4773 274.915 48.4773C274.169 48.4773 273.548 48.6687 273.051 49.0515C272.558 49.4293 272.188 49.9439 271.939 50.5952C271.696 51.2415 271.574 51.9673 271.574 52.7727C271.574 53.5881 271.698 54.3288 271.947 54.995C272.2 55.6562 272.573 56.1832 273.066 56.576C273.563 56.9638 274.179 57.1577 274.915 57.1577ZM290.613 53.8168V47.0455H292.373V58.5H290.613V56.5611H290.493C290.225 57.1428 289.807 57.6374 289.241 58.0451C288.674 58.4478 287.958 58.6491 287.093 58.6491C286.377 58.6491 285.741 58.4925 285.184 58.1793C284.627 57.8612 284.189 57.3839 283.871 56.7475C283.553 56.1062 283.394 55.2983 283.394 54.3239V47.0455H285.154V54.2045C285.154 55.0398 285.388 55.706 285.855 56.2031C286.327 56.7003 286.929 56.9489 287.66 56.9489C288.097 56.9489 288.542 56.837 288.994 56.6133C289.452 56.3896 289.835 56.0465 290.143 55.5842C290.456 55.1218 290.613 54.5327 290.613 53.8168ZM300.578 47.0455V48.5369H294.642V47.0455H300.578ZM296.372 44.3011H298.132V55.2188C298.132 55.7159 298.204 56.0888 298.348 56.3374C298.497 56.581 298.686 56.745 298.915 56.8295C299.148 56.9091 299.394 56.9489 299.653 56.9489C299.847 56.9489 300.006 56.9389 300.13 56.919C300.255 56.8942 300.354 56.8743 300.429 56.8594L300.786 58.4403C300.667 58.4851 300.501 58.5298 300.287 58.5746C300.073 58.6243 299.802 58.6491 299.474 58.6491C298.977 58.6491 298.49 58.5423 298.012 58.3285C297.54 58.1147 297.147 57.7891 296.834 57.3516C296.526 56.9141 296.372 56.3622 296.372 55.696V44.3011ZM307.755 58.7386C306.721 58.7386 305.814 58.4925 305.033 58.0004C304.258 57.5082 303.651 56.8196 303.214 55.9347C302.781 55.0497 302.565 54.0156 302.565 52.8324C302.565 51.6392 302.781 50.5977 303.214 49.7077C303.651 48.8178 304.258 48.1268 305.033 47.6346C305.814 47.1424 306.721 46.8963 307.755 46.8963C308.79 46.8963 309.694 47.1424 310.47 47.6346C311.25 48.1268 311.857 48.8178 312.29 49.7077C312.727 50.5977 312.946 51.6392 312.946 52.8324C312.946 54.0156 312.727 55.0497 312.29 55.9347C311.857 56.8196 311.25 57.5082 310.47 58.0004C309.694 58.4925 308.79 58.7386 307.755 58.7386ZM307.755 57.1577C308.541 57.1577 309.187 56.9563 309.694 56.5536C310.201 56.1509 310.577 55.6214 310.82 54.9652C311.064 54.3089 311.186 53.598 311.186 52.8324C311.186 52.0668 311.064 51.3533 310.82 50.6921C310.577 50.0309 310.201 49.4964 309.694 49.0888C309.187 48.6811 308.541 48.4773 307.755 48.4773C306.97 48.4773 306.324 48.6811 305.816 49.0888C305.309 49.4964 304.934 50.0309 304.69 50.6921C304.447 51.3533 304.325 52.0668 304.325 52.8324C304.325 53.598 304.447 54.3089 304.69 54.9652C304.934 55.6214 305.309 56.1509 305.816 56.5536C306.324 56.9563 306.97 57.1577 307.755 57.1577ZM326.49 58.5H321.777V43.2273H326.699C328.181 43.2273 329.448 43.533 330.502 44.1445C331.556 44.7511 332.364 45.6236 332.926 46.7621C333.488 47.8956 333.769 49.2528 333.769 50.8338C333.769 52.4247 333.485 53.7944 332.919 54.9428C332.352 56.0863 331.526 56.9663 330.443 57.5827C329.359 58.1942 328.041 58.5 326.49 58.5ZM323.627 56.8594H326.371C327.634 56.8594 328.68 56.6158 329.51 56.1286C330.341 55.6413 330.96 54.9478 331.367 54.0479C331.775 53.1481 331.979 52.0767 331.979 50.8338C331.979 49.6009 331.778 48.5394 331.375 47.6495C330.972 46.7546 330.371 46.0685 329.57 45.5913C328.77 45.109 327.773 44.8679 326.58 44.8679H323.627V56.8594ZM336.632 58.5V47.0455H338.392V58.5H336.632ZM337.527 45.1364C337.184 45.1364 336.888 45.0195 336.64 44.7859C336.396 44.5522 336.274 44.2713 336.274 43.9432C336.274 43.6151 336.396 43.3342 336.64 43.1005C336.888 42.8668 337.184 42.75 337.527 42.75C337.87 42.75 338.164 42.8668 338.407 43.1005C338.656 43.3342 338.78 43.6151 338.78 43.9432C338.78 44.2713 338.656 44.5522 338.407 44.7859C338.164 45.0195 337.87 45.1364 337.527 45.1364ZM346.239 63.0341C345.389 63.0341 344.658 62.9247 344.047 62.706C343.435 62.4922 342.926 62.2088 342.518 61.8558C342.115 61.5078 341.795 61.1349 341.556 60.7372L342.958 59.7528C343.117 59.9616 343.318 60.2003 343.562 60.4688C343.806 60.7422 344.139 60.9783 344.561 61.1772C344.989 61.381 345.548 61.483 346.239 61.483C347.164 61.483 347.927 61.2592 348.529 60.8118C349.13 60.3643 349.431 59.6634 349.431 58.7088V56.3821H349.282C349.153 56.5909 348.969 56.8494 348.73 57.1577C348.496 57.4609 348.158 57.7319 347.716 57.9705C347.278 58.2042 346.687 58.321 345.941 58.321C345.016 58.321 344.186 58.1023 343.45 57.6648C342.719 57.2273 342.14 56.5909 341.713 55.7557C341.29 54.9205 341.079 53.9062 341.079 52.7131C341.079 51.5398 341.285 50.5181 341.698 49.6481C342.11 48.7731 342.685 48.0969 343.42 47.6197C344.156 47.1374 345.006 46.8963 345.971 46.8963C346.717 46.8963 347.308 47.0206 347.746 47.2692C348.188 47.5128 348.526 47.7912 348.76 48.1044C348.998 48.4126 349.182 48.6662 349.312 48.8651H349.491V47.0455H351.191V58.8281C351.191 59.8125 350.967 60.6129 350.52 61.2294C350.077 61.8509 349.481 62.3058 348.73 62.5941C347.984 62.8874 347.154 63.0341 346.239 63.0341ZM346.18 56.7401C346.886 56.7401 347.482 56.5785 347.969 56.2553C348.457 55.9322 348.827 55.4673 349.081 54.8608C349.334 54.2543 349.461 53.5284 349.461 52.6832C349.461 51.858 349.337 51.1296 349.088 50.4982C348.839 49.8668 348.472 49.3722 347.984 49.0142C347.497 48.6562 346.896 48.4773 346.18 48.4773C345.434 48.4773 344.812 48.6662 344.315 49.044C343.823 49.4219 343.453 49.929 343.204 50.5653C342.96 51.2017 342.839 51.9077 342.839 52.6832C342.839 53.4787 342.963 54.1822 343.212 54.7937C343.465 55.4002 343.838 55.8775 344.33 56.2255C344.827 56.5685 345.444 56.7401 346.18 56.7401ZM354.413 58.5V47.0455H356.172V58.5H354.413ZM355.307 45.1364C354.964 45.1364 354.669 45.0195 354.42 44.7859C354.176 44.5522 354.055 44.2713 354.055 43.9432C354.055 43.6151 354.176 43.3342 354.42 43.1005C354.669 42.8668 354.964 42.75 355.307 42.75C355.65 42.75 355.944 42.8668 356.187 43.1005C356.436 43.3342 356.56 43.6151 356.56 43.9432C356.56 44.2713 356.436 44.5522 356.187 44.7859C355.944 45.0195 355.65 45.1364 355.307 45.1364ZM364.377 47.0455V48.5369H358.441V47.0455H364.377ZM360.172 44.3011H361.931V55.2188C361.931 55.7159 362.004 56.0888 362.148 56.3374C362.297 56.581 362.486 56.745 362.714 56.8295C362.948 56.9091 363.194 56.9489 363.453 56.9489C363.647 56.9489 363.806 56.9389 363.93 56.919C364.054 56.8942 364.154 56.8743 364.228 56.8594L364.586 58.4403C364.467 58.4851 364.3 58.5298 364.087 58.5746C363.873 58.6243 363.602 58.6491 363.274 58.6491C362.777 58.6491 362.289 58.5423 361.812 58.3285C361.34 58.1147 360.947 57.7891 360.634 57.3516C360.326 56.9141 360.172 56.3622 360.172 55.696V44.3011ZM370.396 58.7685C369.67 58.7685 369.011 58.6317 368.419 58.3583C367.828 58.0799 367.358 57.6797 367.01 57.1577C366.662 56.6307 366.488 55.9943 366.488 55.2486C366.488 54.5923 366.617 54.0604 366.876 53.6527C367.134 53.2401 367.48 52.9169 367.912 52.6832C368.345 52.4496 368.822 52.2756 369.344 52.1612C369.871 52.0419 370.401 51.9474 370.933 51.8778C371.629 51.7884 372.193 51.7212 372.625 51.6765C373.063 51.6268 373.381 51.5447 373.58 51.4304C373.784 51.3161 373.886 51.1172 373.886 50.8338V50.7741C373.886 50.0384 373.684 49.4666 373.282 49.0589C372.884 48.6513 372.28 48.4474 371.469 48.4474C370.629 48.4474 369.971 48.6314 369.493 48.9993C369.016 49.3672 368.68 49.7599 368.487 50.1776L366.816 49.581C367.114 48.8849 367.512 48.343 368.009 47.9553C368.511 47.5625 369.058 47.2891 369.65 47.1349C370.246 46.9759 370.833 46.8963 371.41 46.8963C371.778 46.8963 372.2 46.9411 372.678 47.0305C373.16 47.1151 373.625 47.2915 374.072 47.56C374.525 47.8285 374.9 48.2337 375.198 48.7756C375.496 49.3175 375.646 50.0433 375.646 50.9531V58.5H373.886V56.9489H373.796C373.677 57.1974 373.478 57.4634 373.2 57.7468C372.921 58.0302 372.551 58.2713 372.088 58.4702C371.626 58.669 371.062 58.7685 370.396 58.7685ZM370.664 57.1875C371.36 57.1875 371.947 57.0508 372.424 56.7773C372.906 56.5039 373.269 56.1509 373.513 55.7184C373.761 55.2859 373.886 54.831 373.886 54.3537V52.7429C373.811 52.8324 373.647 52.9144 373.393 52.989C373.145 53.0586 372.857 53.1207 372.528 53.1754C372.205 53.2251 371.89 53.2699 371.581 53.3097C371.278 53.3445 371.032 53.3743 370.843 53.3991C370.386 53.4588 369.958 53.5558 369.56 53.69C369.168 53.8192 368.849 54.0156 368.606 54.2791C368.367 54.5376 368.248 54.8906 368.248 55.3381C368.248 55.9496 368.474 56.4119 368.926 56.7251C369.384 57.0334 369.963 57.1875 370.664 57.1875ZM380.618 43.2273V58.5H378.858V43.2273H380.618Z" fill="#788896"/>
<path d="M665.5 46.5H591.5V57.5H665.5V46.5Z" fill="#CED8E0"/>
<path d="M767.5 46.5H693.5V57.5H767.5V46.5Z" fill="#CED8E0"/>
<path d="M869.5 46.5H795.5V57.5H869.5V46.5Z" fill="#CED8E0"/>
<path d="M971.5 46.5H897.5V57.5H971.5V46.5Z" fill="#CED8E0"/>
<path d="M1155 24H1008V80.5H1155V24Z" stroke="#C3CFD9" stroke-width="2"/>
<path d="M1028.82 45.8409H1030.4L1034.11 54.8963H1034.23L1037.94 45.8409H1039.52V56.75H1038.28V48.4616H1038.17L1034.77 56.75H1033.57L1030.16 48.4616H1030.06V56.75H1028.82V45.8409ZM1044.4 56.9418C1043.88 56.9418 1043.41 56.8441 1042.99 56.6488C1042.57 56.4499 1042.23 56.1641 1041.98 55.7912C1041.74 55.4148 1041.61 54.9602 1041.61 54.4276C1041.61 53.9588 1041.7 53.5788 1041.89 53.2876C1042.07 52.9929 1042.32 52.7621 1042.63 52.5952C1042.94 52.4283 1043.28 52.304 1043.65 52.2223C1044.03 52.1371 1044.41 52.0696 1044.79 52.0199C1045.28 51.956 1045.69 51.908 1046 51.8761C1046.31 51.8406 1046.54 51.782 1046.68 51.7003C1046.82 51.6186 1046.9 51.4766 1046.9 51.2741V51.2315C1046.9 50.706 1046.75 50.2976 1046.46 50.0064C1046.18 49.7152 1045.75 49.5696 1045.17 49.5696C1044.57 49.5696 1044.1 49.701 1043.76 49.9638C1043.42 50.2266 1043.18 50.5071 1043.04 50.8054L1041.85 50.3793C1042.06 49.8821 1042.34 49.495 1042.7 49.218C1043.06 48.9375 1043.45 48.7422 1043.87 48.6321C1044.3 48.5185 1044.72 48.4616 1045.13 48.4616C1045.39 48.4616 1045.69 48.4936 1046.03 48.5575C1046.38 48.6179 1046.71 48.744 1047.03 48.9357C1047.35 49.1275 1047.62 49.4169 1047.83 49.804C1048.05 50.1911 1048.15 50.7095 1048.15 51.3594V56.75H1046.9V55.642H1046.83C1046.75 55.8196 1046.6 56.0096 1046.41 56.212C1046.21 56.4144 1045.94 56.5866 1045.61 56.7287C1045.28 56.8707 1044.88 56.9418 1044.4 56.9418ZM1044.59 55.8125C1045.09 55.8125 1045.51 55.7148 1045.85 55.5195C1046.2 55.3242 1046.46 55.0721 1046.63 54.7631C1046.81 54.4542 1046.9 54.1293 1046.9 53.7884V52.6378C1046.84 52.7017 1046.73 52.7603 1046.54 52.8136C1046.37 52.8633 1046.16 52.9077 1045.93 52.9467C1045.7 52.9822 1045.47 53.0142 1045.25 53.0426C1045.03 53.0675 1044.86 53.0888 1044.72 53.1065C1044.4 53.1491 1044.09 53.2184 1043.81 53.3143C1043.53 53.4066 1043.3 53.5469 1043.12 53.7351C1042.95 53.9197 1042.87 54.1719 1042.87 54.4915C1042.87 54.9283 1043.03 55.2585 1043.35 55.4822C1043.68 55.7024 1044.09 55.8125 1044.59 55.8125ZM1050.45 56.75V48.5682H1051.66V49.804H1051.75C1051.9 49.3991 1052.17 49.0707 1052.56 48.8185C1052.95 48.5664 1053.39 48.4403 1053.88 48.4403C1053.97 48.4403 1054.09 48.4421 1054.22 48.4457C1054.36 48.4492 1054.47 48.4545 1054.54 48.4616V49.7401C1054.5 49.7294 1054.4 49.7134 1054.25 49.6921C1054.1 49.6673 1053.94 49.6548 1053.77 49.6548C1053.37 49.6548 1053.02 49.7383 1052.71 49.9052C1052.4 50.0685 1052.15 50.2958 1051.97 50.587C1051.79 50.8746 1051.7 51.2031 1051.7 51.5724V56.75H1050.45ZM1059.1 56.9205C1058.34 56.9205 1057.68 56.7393 1057.12 56.3771C1056.57 56.0149 1056.14 55.516 1055.84 54.8803C1055.55 54.2447 1055.4 53.5185 1055.4 52.7017C1055.4 51.8707 1055.55 51.1374 1055.85 50.5018C1056.16 49.8626 1056.59 49.3636 1057.14 49.005C1057.7 48.6428 1058.34 48.4616 1059.08 48.4616C1059.66 48.4616 1060.18 48.5682 1060.64 48.7812C1061.1 48.9943 1061.48 49.2926 1061.77 49.6761C1062.07 50.0597 1062.25 50.5071 1062.32 51.0185H1061.06C1060.97 50.6456 1060.75 50.3153 1060.42 50.0277C1060.1 49.7365 1059.66 49.5909 1059.1 49.5909C1058.61 49.5909 1058.18 49.7187 1057.81 49.9744C1057.45 50.2266 1057.16 50.5835 1056.96 51.0451C1056.75 51.5032 1056.65 52.0412 1056.65 52.6591C1056.65 53.2912 1056.75 53.8416 1056.95 54.3104C1057.15 54.7791 1057.44 55.1431 1057.8 55.4023C1058.17 55.6616 1058.61 55.7912 1059.1 55.7912C1059.43 55.7912 1059.73 55.7344 1059.99 55.6207C1060.26 55.5071 1060.48 55.3438 1060.67 55.1307C1060.85 54.9176 1060.99 54.6619 1061.06 54.3636H1062.32C1062.25 54.8466 1062.07 55.2816 1061.79 55.6687C1061.52 56.0522 1061.15 56.3576 1060.69 56.5849C1060.24 56.8086 1059.71 56.9205 1059.1 56.9205ZM1066.57 56.9418C1066.05 56.9418 1065.58 56.8441 1065.15 56.6488C1064.73 56.4499 1064.4 56.1641 1064.15 55.7912C1063.9 55.4148 1063.77 54.9602 1063.77 54.4276C1063.77 53.9588 1063.87 53.5788 1064.05 53.2876C1064.24 52.9929 1064.48 52.7621 1064.79 52.5952C1065.1 52.4283 1065.44 52.304 1065.81 52.2223C1066.19 52.1371 1066.57 52.0696 1066.95 52.0199C1067.45 51.956 1067.85 51.908 1068.16 51.8761C1068.47 51.8406 1068.7 51.782 1068.84 51.7003C1068.99 51.6186 1069.06 51.4766 1069.06 51.2741V51.2315C1069.06 50.706 1068.92 50.2976 1068.63 50.0064C1068.34 49.7152 1067.91 49.5696 1067.33 49.5696C1066.73 49.5696 1066.26 49.701 1065.92 49.9638C1065.58 50.2266 1065.34 50.5071 1065.2 50.8054L1064.01 50.3793C1064.22 49.8821 1064.51 49.495 1064.86 49.218C1065.22 48.9375 1065.61 48.7422 1066.03 48.6321C1066.46 48.5185 1066.88 48.4616 1067.29 48.4616C1067.55 48.4616 1067.86 48.4936 1068.2 48.5575C1068.54 48.6179 1068.87 48.744 1069.19 48.9357C1069.52 49.1275 1069.78 49.4169 1070 49.804C1070.21 50.1911 1070.32 50.7095 1070.32 51.3594V56.75H1069.06V55.642H1069C1068.91 55.8196 1068.77 56.0096 1068.57 56.212C1068.37 56.4144 1068.11 56.5866 1067.78 56.7287C1067.44 56.8707 1067.04 56.9418 1066.57 56.9418ZM1066.76 55.8125C1067.25 55.8125 1067.67 55.7148 1068.01 55.5195C1068.36 55.3242 1068.62 55.0721 1068.79 54.7631C1068.97 54.4542 1069.06 54.1293 1069.06 53.7884V52.6378C1069.01 52.7017 1068.89 52.7603 1068.71 52.8136C1068.53 52.8633 1068.32 52.9077 1068.09 52.9467C1067.86 52.9822 1067.63 53.0142 1067.41 53.0426C1067.2 53.0675 1067.02 53.0888 1066.89 53.1065C1066.56 53.1491 1066.25 53.2184 1065.97 53.3143C1065.69 53.4066 1065.46 53.5469 1065.29 53.7351C1065.12 53.9197 1065.03 54.1719 1065.03 54.4915C1065.03 54.9283 1065.19 55.2585 1065.52 55.4822C1065.84 55.7024 1066.26 55.8125 1066.76 55.8125ZM1077 56.75V45.8409H1080.69C1081.54 45.8409 1082.24 45.9954 1082.78 46.3043C1083.33 46.6097 1083.74 47.0234 1084 47.5455C1084.26 48.0675 1084.39 48.6499 1084.39 49.2926C1084.39 49.9354 1084.26 50.5195 1084 51.0451C1083.74 51.5707 1083.34 51.9897 1082.8 52.3022C1082.25 52.6112 1081.56 52.7656 1080.71 52.7656H1078.07V51.5938H1080.66C1081.25 51.5938 1081.72 51.4925 1082.08 51.2901C1082.43 51.0877 1082.69 50.8143 1082.85 50.4698C1083.01 50.1218 1083.09 49.7294 1083.09 49.2926C1083.09 48.8558 1083.01 48.4652 1082.85 48.1207C1082.69 47.7763 1082.43 47.5064 1082.07 47.3111C1081.71 47.1122 1081.24 47.0128 1080.64 47.0128H1078.32V56.75H1077ZM1089.69 56.9205C1088.9 56.9205 1088.22 56.7464 1087.65 56.3984C1087.08 56.0469 1086.65 55.5568 1086.34 54.9283C1086.03 54.2962 1085.88 53.5611 1085.88 52.723C1085.88 51.8849 1086.03 51.1463 1086.34 50.5071C1086.65 49.8643 1087.08 49.3636 1087.63 49.005C1088.18 48.6428 1088.83 48.4616 1089.57 48.4616C1089.99 48.4616 1090.41 48.5327 1090.83 48.6747C1091.24 48.8168 1091.62 49.0476 1091.96 49.3672C1092.3 49.6832 1092.58 50.1023 1092.78 50.6243C1092.98 51.1463 1093.08 51.7891 1093.08 52.5526V53.0852H1086.77V51.9986H1091.8C1091.8 51.5369 1091.71 51.125 1091.53 50.7628C1091.34 50.4006 1091.09 50.1147 1090.75 49.9052C1090.41 49.6957 1090.02 49.5909 1089.57 49.5909C1089.06 49.5909 1088.63 49.7152 1088.27 49.9638C1087.9 50.2088 1087.62 50.5284 1087.43 50.9226C1087.23 51.3168 1087.14 51.7393 1087.14 52.1903V52.9148C1087.14 53.5327 1087.24 54.0565 1087.46 54.4862C1087.67 54.9123 1087.97 55.2372 1088.36 55.4609C1088.74 55.6811 1089.19 55.7912 1089.69 55.7912C1090.02 55.7912 1090.32 55.745 1090.59 55.6527C1090.86 55.5568 1091.09 55.4148 1091.29 55.2266C1091.48 55.0348 1091.63 54.7969 1091.74 54.5128L1092.95 54.8537C1092.83 55.2656 1092.61 55.6278 1092.31 55.9403C1092.01 56.2493 1091.63 56.4908 1091.19 56.6648C1090.75 56.8352 1090.25 56.9205 1089.69 56.9205ZM1098.55 48.5682V49.6335H1094.31V48.5682H1098.55ZM1095.55 46.608H1096.8V54.4062C1096.8 54.7614 1096.86 55.0277 1096.96 55.2053C1097.07 55.3793 1097.2 55.4964 1097.36 55.5568C1097.53 55.6136 1097.71 55.642 1097.89 55.642C1098.03 55.642 1098.14 55.6349 1098.23 55.6207C1098.32 55.603 1098.39 55.5888 1098.45 55.5781L1098.7 56.7074C1098.62 56.7393 1098.5 56.7713 1098.34 56.8033C1098.19 56.8388 1098 56.8565 1097.76 56.8565C1097.41 56.8565 1097.06 56.7802 1096.72 56.6275C1096.38 56.4748 1096.1 56.2422 1095.88 55.9297C1095.66 55.6172 1095.55 55.223 1095.55 54.7472V46.608ZM1100.44 56.75V48.5682H1101.66V49.804H1101.74C1101.89 49.3991 1102.16 49.0707 1102.55 48.8185C1102.94 48.5664 1103.38 48.4403 1103.87 48.4403C1103.97 48.4403 1104.08 48.4421 1104.22 48.4457C1104.36 48.4492 1104.46 48.4545 1104.53 48.4616V49.7401C1104.49 49.7294 1104.39 49.7134 1104.24 49.6921C1104.09 49.6673 1103.93 49.6548 1103.77 49.6548C1103.37 49.6548 1103.01 49.7383 1102.7 49.9052C1102.39 50.0685 1102.15 50.2958 1101.97 50.587C1101.79 50.8746 1101.7 51.2031 1101.7 51.5724V56.75H1100.44ZM1109.1 56.9205C1108.36 56.9205 1107.71 56.7447 1107.15 56.3931C1106.6 56.0415 1106.17 55.5497 1105.85 54.9176C1105.55 54.2855 1105.39 53.5469 1105.39 52.7017C1105.39 51.8494 1105.55 51.1055 1105.85 50.4698C1106.17 49.8342 1106.6 49.3406 1107.15 48.989C1107.71 48.6374 1108.36 48.4616 1109.1 48.4616C1109.84 48.4616 1110.48 48.6374 1111.04 48.989C1111.59 49.3406 1112.03 49.8342 1112.34 50.4698C1112.65 51.1055 1112.81 51.8494 1112.81 52.7017C1112.81 53.5469 1112.65 54.2855 1112.34 54.9176C1112.03 55.5497 1111.59 56.0415 1111.04 56.3931C1110.48 56.7447 1109.84 56.9205 1109.1 56.9205ZM1109.1 55.7912C1109.66 55.7912 1110.12 55.6474 1110.48 55.3597C1110.85 55.0721 1111.11 54.6939 1111.29 54.2251C1111.46 53.7564 1111.55 53.2486 1111.55 52.7017C1111.55 52.1548 1111.46 51.6452 1111.29 51.1729C1111.11 50.7006 1110.85 50.3189 1110.48 50.0277C1110.12 49.7365 1109.66 49.5909 1109.1 49.5909C1108.54 49.5909 1108.08 49.7365 1107.71 50.0277C1107.35 50.3189 1107.08 50.7006 1106.91 51.1729C1106.74 51.6452 1106.65 52.1548 1106.65 52.7017C1106.65 53.2486 1106.74 53.7564 1106.91 54.2251C1107.08 54.6939 1107.35 55.0721 1107.71 55.3597C1108.08 55.6474 1108.54 55.7912 1109.1 55.7912ZM1114.9 56.75V45.8409H1116.15V49.8679H1116.26C1116.35 49.7259 1116.48 49.5447 1116.64 49.3246C1116.81 49.1009 1117.05 48.902 1117.36 48.728C1117.67 48.5504 1118.09 48.4616 1118.62 48.4616C1119.31 48.4616 1119.92 48.6339 1120.45 48.9783C1120.97 49.3228 1121.38 49.8111 1121.68 50.4432C1121.97 51.0753 1122.12 51.821 1122.12 52.6804C1122.12 53.5469 1121.97 54.2979 1121.68 54.9336C1121.38 55.5657 1120.97 56.0558 1120.45 56.4038C1119.93 56.7482 1119.33 56.9205 1118.65 56.9205C1118.12 56.9205 1117.7 56.8335 1117.38 56.6594C1117.07 56.4819 1116.82 56.2812 1116.65 56.0575C1116.48 55.8303 1116.35 55.642 1116.26 55.4929H1116.11V56.75H1114.9ZM1116.13 52.6591C1116.13 53.277 1116.22 53.8221 1116.4 54.2944C1116.58 54.7631 1116.85 55.1307 1117.2 55.397C1117.54 55.6598 1117.97 55.7912 1118.47 55.7912C1119 55.7912 1119.44 55.6527 1119.79 55.3757C1120.15 55.0952 1120.41 54.7187 1120.59 54.2464C1120.77 53.7706 1120.86 53.2415 1120.86 52.6591C1120.86 52.0838 1120.77 51.5653 1120.59 51.1037C1120.42 50.6385 1120.16 50.271 1119.8 50.0011C1119.45 49.7276 1119.01 49.5909 1118.47 49.5909C1117.96 49.5909 1117.53 49.7205 1117.19 49.9798C1116.84 50.2354 1116.57 50.5941 1116.4 51.0558C1116.22 51.5138 1116.13 52.0483 1116.13 52.6591ZM1124.04 56.75V48.5682H1125.26V49.804H1125.34C1125.49 49.3991 1125.76 49.0707 1126.15 48.8185C1126.54 48.5664 1126.98 48.4403 1127.47 48.4403C1127.56 48.4403 1127.68 48.4421 1127.82 48.4457C1127.96 48.4492 1128.06 48.4545 1128.13 48.4616V49.7401C1128.09 49.7294 1127.99 49.7134 1127.84 49.6921C1127.69 49.6673 1127.53 49.6548 1127.37 49.6548C1126.97 49.6548 1126.61 49.7383 1126.3 49.9052C1125.99 50.0685 1125.75 50.2958 1125.56 50.587C1125.39 50.8746 1125.3 51.2031 1125.3 51.5724V56.75H1124.04ZM1132.03 56.9418C1131.51 56.9418 1131.04 56.8441 1130.62 56.6488C1130.2 56.4499 1129.86 56.1641 1129.61 55.7912C1129.36 55.4148 1129.24 54.9602 1129.24 54.4276C1129.24 53.9588 1129.33 53.5788 1129.52 53.2876C1129.7 52.9929 1129.95 52.7621 1130.26 52.5952C1130.57 52.4283 1130.91 52.304 1131.28 52.2223C1131.66 52.1371 1132.03 52.0696 1132.41 52.0199C1132.91 51.956 1133.31 51.908 1133.62 51.8761C1133.94 51.8406 1134.16 51.782 1134.3 51.7003C1134.45 51.6186 1134.52 51.4766 1134.52 51.2741V51.2315C1134.52 50.706 1134.38 50.2976 1134.09 50.0064C1133.81 49.7152 1133.38 49.5696 1132.8 49.5696C1132.2 49.5696 1131.73 49.701 1131.39 49.9638C1131.04 50.2266 1130.8 50.5071 1130.67 50.8054L1129.47 50.3793C1129.69 49.8821 1129.97 49.495 1130.33 49.218C1130.68 48.9375 1131.07 48.7422 1131.5 48.6321C1131.92 48.5185 1132.34 48.4616 1132.75 48.4616C1133.02 48.4616 1133.32 48.4936 1133.66 48.5575C1134 48.6179 1134.34 48.744 1134.66 48.9357C1134.98 49.1275 1135.25 49.4169 1135.46 49.804C1135.67 50.1911 1135.78 50.7095 1135.78 51.3594V56.75H1134.52V55.642H1134.46C1134.37 55.8196 1134.23 56.0096 1134.03 56.212C1133.83 56.4144 1133.57 56.5866 1133.24 56.7287C1132.91 56.8707 1132.51 56.9418 1132.03 56.9418ZM1132.22 55.8125C1132.72 55.8125 1133.14 55.7148 1133.48 55.5195C1133.82 55.3242 1134.08 55.0721 1134.26 54.7631C1134.43 54.4542 1134.52 54.1293 1134.52 53.7884V52.6378C1134.47 52.7017 1134.35 52.7603 1134.17 52.8136C1133.99 52.8633 1133.79 52.9077 1133.55 52.9467C1133.32 52.9822 1133.1 53.0142 1132.88 53.0426C1132.66 53.0675 1132.48 53.0888 1132.35 53.1065C1132.02 53.1491 1131.72 53.2184 1131.43 53.3143C1131.15 53.4066 1130.93 53.5469 1130.75 53.7351C1130.58 53.9197 1130.5 54.1719 1130.5 54.4915C1130.5 54.9283 1130.66 55.2585 1130.98 55.4822C1131.31 55.7024 1131.72 55.8125 1132.22 55.8125ZM1143.87 50.4006L1142.74 50.7202C1142.67 50.532 1142.56 50.3491 1142.43 50.1715C1142.29 49.9904 1142.11 49.8413 1141.87 49.7241C1141.64 49.6069 1141.34 49.5483 1140.97 49.5483C1140.47 49.5483 1140.05 49.6637 1139.72 49.8945C1139.39 50.1218 1139.22 50.4112 1139.22 50.7628C1139.22 51.0753 1139.34 51.3221 1139.57 51.5032C1139.79 51.6843 1140.15 51.8352 1140.63 51.956L1141.85 52.2543C1142.58 52.4318 1143.12 52.7035 1143.48 53.0692C1143.84 53.4315 1144.02 53.8984 1144.02 54.4702C1144.02 54.9389 1143.88 55.358 1143.61 55.7273C1143.35 56.0966 1142.97 56.3878 1142.5 56.6009C1142.02 56.8139 1141.46 56.9205 1140.82 56.9205C1139.99 56.9205 1139.3 56.7393 1138.75 56.3771C1138.2 56.0149 1137.86 55.4858 1137.71 54.7898L1138.91 54.4915C1139.02 54.9318 1139.23 55.2621 1139.55 55.4822C1139.87 55.7024 1140.29 55.8125 1140.8 55.8125C1141.39 55.8125 1141.85 55.6882 1142.2 55.4396C1142.55 55.1875 1142.72 54.8857 1142.72 54.5341C1142.72 54.25 1142.62 54.0121 1142.42 53.8203C1142.22 53.625 1141.92 53.4794 1141.5 53.3835L1140.14 53.0639C1139.39 52.8864 1138.84 52.6112 1138.49 52.2383C1138.14 51.8619 1137.97 51.3913 1137.97 50.8267C1137.97 50.3651 1138.1 49.9567 1138.36 49.6016C1138.62 49.2464 1138.98 48.9677 1139.43 48.7653C1139.88 48.5629 1140.4 48.4616 1140.97 48.4616C1141.78 48.4616 1142.42 48.6392 1142.88 48.9943C1143.34 49.3494 1143.67 49.8182 1143.87 50.4006Z" fill="#788896"/>
<path d="M1170 96H8V254H1170V96Z" fill="#F2F5F7" stroke="#C3CFD9" stroke-width="2"/>
</svg>
