<svg width="1162" height="246" viewBox="0 0 1162 246" fill="none" xmlns="http://www.w3.org/2000/svg">
<g clip-path="url(#clip0_1_567)">
<rect width="1162" height="246" fill="white"/>
<path d="M1162 173H0V245H1162V173Z" fill="#F2F5F7" stroke="#C3CFD9" stroke-width="2"/>
<path d="M1162 0H0V88H1162V0Z" stroke="#C3CFD9" stroke-width="2"/>
<path d="M656.5 24.5H470.75C460.809 24.5 452.75 32.5589 452.75 42.5C452.75 52.4411 460.809 60.5 470.75 60.5H656.5C666.441 60.5 674.5 52.4411 674.5 42.5C674.5 32.5589 666.441 24.5 656.5 24.5Z" stroke="#9EADBA" stroke-width="2" stroke-linecap="round" stroke-linejoin="round"/>
<path d="M29.4602 35.9773V51.25H27.6705L19.348 39.2585H19.1989V51.25H17.3494V35.9773H19.1392L27.4915 47.9986H27.6406V35.9773H29.4602ZM37.5757 51.4886C36.5416 51.4886 35.6343 51.2425 34.8538 50.7504C34.0782 50.2582 33.4717 49.5696 33.0342 48.6847C32.6017 47.7997 32.3854 46.7656 32.3854 45.5824C32.3854 44.3892 32.6017 43.3477 33.0342 42.4577C33.4717 41.5678 34.0782 40.8768 34.8538 40.3846C35.6343 39.8924 36.5416 39.6463 37.5757 39.6463C38.6098 39.6463 39.5146 39.8924 40.2902 40.3846C41.0708 40.8768 41.6773 41.5678 42.1098 42.4577C42.5473 43.3477 42.7661 44.3892 42.7661 45.5824C42.7661 46.7656 42.5473 47.7997 42.1098 48.6847C41.6773 49.5696 41.0708 50.2582 40.2902 50.7504C39.5146 51.2425 38.6098 51.4886 37.5757 51.4886ZM37.5757 49.9077C38.3612 49.9077 39.0075 49.7063 39.5146 49.3036C40.0218 48.9009 40.3971 48.3714 40.6407 47.7152C40.8843 47.0589 41.0061 46.348 41.0061 45.5824C41.0061 44.8168 40.8843 44.1033 40.6407 43.4421C40.3971 42.7809 40.0218 42.2464 39.5146 41.8388C39.0075 41.4311 38.3612 41.2273 37.5757 41.2273C36.7902 41.2273 36.1439 41.4311 35.6368 41.8388C35.1297 42.2464 34.7544 42.7809 34.5107 43.4421C34.2671 44.1033 34.1453 44.8168 34.1453 45.5824C34.1453 46.348 34.2671 47.0589 34.5107 47.7152C34.7544 48.3714 35.1297 48.9009 35.6368 49.3036C36.1439 49.7063 36.7902 49.9077 37.5757 49.9077ZM45.4526 51.25V39.7955H47.1529V41.5852H47.302C47.5407 40.9737 47.926 40.4989 48.4579 40.1609C48.9899 39.8178 49.6287 39.6463 50.3745 39.6463C51.1301 39.6463 51.7591 39.8178 52.2612 40.1609C52.7683 40.4989 53.1635 40.9737 53.4469 41.5852H53.5662C53.8596 40.9936 54.2995 40.5238 54.8862 40.1758C55.4728 39.8228 56.1763 39.6463 56.9966 39.6463C58.0208 39.6463 58.8585 39.967 59.5098 40.6083C60.161 41.2447 60.4867 42.2365 60.4867 43.5838V51.25H58.7267V43.5838C58.7267 42.7386 58.4956 42.1346 58.0332 41.7717C57.5708 41.4087 57.0265 41.2273 56.4 41.2273C55.5946 41.2273 54.9707 41.4709 54.5282 41.9581C54.0858 42.4403 53.8645 43.0518 53.8645 43.7926V51.25H52.0748V43.4048C52.0748 42.7536 51.8635 42.229 51.4409 41.8313C51.0183 41.4286 50.4739 41.2273 49.8077 41.2273C49.3503 41.2273 48.9228 41.3491 48.525 41.5927C48.1323 41.8363 47.8141 42.1744 47.5705 42.6069C47.3319 43.0344 47.2125 43.5291 47.2125 44.0909V51.25H45.4526ZM68.5071 51.4886C67.4034 51.4886 66.4513 51.245 65.6509 50.7578C64.8555 50.2656 64.2415 49.5795 63.8089 48.6996C63.3814 47.8146 63.1676 46.7855 63.1676 45.6122C63.1676 44.4389 63.3814 43.4048 63.8089 42.5099C64.2415 41.6101 64.843 40.9091 65.6136 40.407C66.3892 39.8999 67.294 39.6463 68.3281 39.6463C68.9247 39.6463 69.5138 39.7457 70.0955 39.9446C70.6772 40.1435 71.2067 40.4666 71.6839 40.9141C72.1612 41.3565 72.5415 41.9432 72.8249 42.674C73.1083 43.4048 73.25 44.3047 73.25 45.3736V46.1193H64.4205V44.598H71.4602C71.4602 43.9517 71.331 43.375 71.0724 42.8679C70.8189 42.3608 70.456 41.9606 69.9837 41.6673C69.5163 41.3739 68.9645 41.2273 68.3281 41.2273C67.6271 41.2273 67.0206 41.4013 66.5085 41.7493C66.0014 42.0923 65.6112 42.5398 65.3377 43.0916C65.0643 43.6435 64.9276 44.2351 64.9276 44.8665V45.8807C64.9276 46.7457 65.0767 47.479 65.375 48.0806C65.6783 48.6772 66.0984 49.1321 66.6353 49.4453C67.1722 49.7536 67.7962 49.9077 68.5071 49.9077C68.9695 49.9077 69.3871 49.843 69.7599 49.7138C70.1378 49.5795 70.4634 49.3807 70.7369 49.1172C71.0103 48.8487 71.2216 48.5156 71.3707 48.1179L73.071 48.5952C72.892 49.1719 72.5913 49.679 72.1687 50.1165C71.7461 50.549 71.2241 50.8871 70.6026 51.1307C69.9812 51.3693 69.2827 51.4886 68.5071 51.4886ZM86.1587 51.4886C85.2042 51.4886 84.3615 51.2475 83.6307 50.7653C82.8999 50.2781 82.3281 49.592 81.9155 48.707C81.5028 47.8171 81.2965 46.7656 81.2965 45.5526C81.2965 44.3494 81.5028 43.3054 81.9155 42.4205C82.3281 41.5355 82.9023 40.8519 83.6381 40.3697C84.3739 39.8874 85.2241 39.6463 86.1886 39.6463C86.9343 39.6463 87.5234 39.7706 87.956 40.0192C88.3935 40.2628 88.7266 40.5412 88.9553 40.8544C89.1889 41.1626 89.3704 41.4162 89.4996 41.6151H89.6488V35.9773H91.4087V51.25H89.7085V49.4901H89.4996C89.3704 49.6989 89.1864 49.9624 88.9478 50.2805C88.7092 50.5937 88.3686 50.8746 87.9261 51.1232C87.4837 51.3668 86.8945 51.4886 86.1587 51.4886ZM86.3974 49.9077C87.1033 49.9077 87.6999 49.7237 88.1871 49.3558C88.6744 48.983 89.0447 48.4684 89.2983 47.8121C89.5518 47.1509 89.6786 46.3878 89.6786 45.5227C89.6786 44.6676 89.5543 43.9194 89.3058 43.2781C89.0572 42.6317 88.6893 42.1296 88.2021 41.7717C87.7148 41.4087 87.1133 41.2273 86.3974 41.2273C85.6516 41.2273 85.0302 41.4187 84.533 41.8015C84.0408 42.1793 83.6705 42.6939 83.4219 43.3452C83.1783 43.9915 83.0565 44.7173 83.0565 45.5227C83.0565 46.3381 83.1808 47.0788 83.4293 47.745C83.6829 48.4062 84.0558 48.9332 84.5479 49.326C85.0451 49.7138 85.6616 49.9077 86.3974 49.9077ZM98.2472 51.5185C97.5213 51.5185 96.8626 51.3817 96.271 51.1083C95.6793 50.8299 95.2095 50.4297 94.8615 49.9077C94.5135 49.3807 94.3395 48.7443 94.3395 47.9986C94.3395 47.3423 94.4688 46.8104 94.7273 46.4027C94.9858 45.9901 95.3313 45.6669 95.7638 45.4332C96.1964 45.1996 96.6737 45.0256 97.1957 44.9112C97.7227 44.7919 98.2521 44.6974 98.7841 44.6278C99.4801 44.5384 100.044 44.4712 100.477 44.4265C100.914 44.3768 101.233 44.2947 101.431 44.1804C101.635 44.0661 101.737 43.8672 101.737 43.5838V43.5241C101.737 42.7884 101.536 42.2166 101.133 41.8089C100.735 41.4013 100.131 41.1974 99.321 41.1974C98.4808 41.1974 97.8221 41.3814 97.3448 41.7493C96.8675 42.1172 96.532 42.5099 96.3381 42.9276L94.6676 42.331C94.9659 41.6349 95.3636 41.093 95.8608 40.7053C96.3629 40.3125 96.9098 40.0391 97.5014 39.8849C98.098 39.7259 98.6847 39.6463 99.2614 39.6463C99.6293 39.6463 100.052 39.6911 100.529 39.7805C101.011 39.8651 101.476 40.0415 101.924 40.31C102.376 40.5785 102.751 40.9837 103.05 41.5256C103.348 42.0675 103.497 42.7933 103.497 43.7031V51.25H101.737V49.6989H101.648C101.528 49.9474 101.33 50.2134 101.051 50.4968C100.773 50.7802 100.402 51.0213 99.94 51.2202C99.4776 51.419 98.9134 51.5185 98.2472 51.5185ZM98.5156 49.9375C99.2116 49.9375 99.7983 49.8008 100.276 49.5273C100.758 49.2539 101.121 48.9009 101.364 48.4684C101.613 48.0359 101.737 47.581 101.737 47.1037V45.4929C101.663 45.5824 101.499 45.6644 101.245 45.739C100.996 45.8086 100.708 45.8707 100.38 45.9254C100.057 45.9751 99.7411 46.0199 99.4329 46.0597C99.1296 46.0945 98.8835 46.1243 98.6946 46.1491C98.2372 46.2088 97.8097 46.3058 97.4119 46.44C97.0192 46.5692 96.701 46.7656 96.4574 47.0291C96.2188 47.2876 96.0994 47.6406 96.0994 48.0881C96.0994 48.6996 96.3256 49.1619 96.7781 49.4751C97.2354 49.7834 97.8146 49.9375 98.5156 49.9375ZM113.481 51.25H111.542L117.15 35.9773H119.059L124.667 51.25H122.728L118.164 38.3935H118.045L113.481 51.25ZM114.197 45.2841H122.012V46.9247H114.197V45.2841ZM126.807 55.5455V39.7955H128.507V41.6151H128.716C128.845 41.4162 129.024 41.1626 129.253 40.8544C129.487 40.5412 129.82 40.2628 130.252 40.0192C130.69 39.7706 131.282 39.6463 132.027 39.6463C132.992 39.6463 133.842 39.8874 134.578 40.3697C135.313 40.8519 135.888 41.5355 136.3 42.4205C136.713 43.3054 136.919 44.3494 136.919 45.5526C136.919 46.7656 136.713 47.8171 136.3 48.707C135.888 49.592 135.316 50.2781 134.585 50.7653C133.854 51.2475 133.012 51.4886 132.057 51.4886C131.321 51.4886 130.732 51.3668 130.29 51.1232C129.847 50.8746 129.507 50.5937 129.268 50.2805C129.029 49.9624 128.845 49.6989 128.716 49.4901H128.567V55.5455H126.807ZM128.537 45.5227C128.537 46.3878 128.664 47.1509 128.918 47.8121C129.171 48.4684 129.541 48.983 130.029 49.3558C130.516 49.7237 131.112 49.9077 131.818 49.9077C132.554 49.9077 133.168 49.7138 133.66 49.326C134.158 48.9332 134.53 48.4062 134.779 47.745C135.033 47.0788 135.159 46.3381 135.159 45.5227C135.159 44.7173 135.035 43.9915 134.786 43.3452C134.543 42.6939 134.172 42.1793 133.675 41.8015C133.183 41.4187 132.564 41.2273 131.818 41.2273C131.103 41.2273 130.501 41.4087 130.014 41.7717C129.527 42.1296 129.159 42.6317 128.91 43.2781C128.661 43.9194 128.537 44.6676 128.537 45.5227ZM141.364 35.9773V51.25H139.604V35.9773H141.364ZM144.587 51.25V39.7955H146.347V51.25H144.587ZM145.482 37.8864C145.139 37.8864 144.843 37.7695 144.595 37.5359C144.351 37.3022 144.229 37.0213 144.229 36.6932C144.229 36.3651 144.351 36.0842 144.595 35.8505C144.843 35.6168 145.139 35.5 145.482 35.5C145.825 35.5 146.119 35.6168 146.362 35.8505C146.611 36.0842 146.735 36.3651 146.735 36.6932C146.735 37.0213 146.611 37.3022 146.362 37.5359C146.119 37.7695 145.825 37.8864 145.482 37.8864ZM154.224 51.4886C153.15 51.4886 152.226 51.2351 151.45 50.728C150.674 50.2209 150.078 49.5224 149.66 48.6325C149.243 47.7425 149.034 46.7259 149.034 45.5824C149.034 44.419 149.248 43.3924 149.675 42.5025C150.108 41.6076 150.709 40.9091 151.48 40.407C152.255 39.8999 153.16 39.6463 154.194 39.6463C155 39.6463 155.726 39.7955 156.372 40.0938C157.018 40.392 157.548 40.8097 157.96 41.3466C158.373 41.8835 158.629 42.5099 158.728 43.2259H156.968C156.834 42.7038 156.536 42.2415 156.074 41.8388C155.616 41.4311 155 41.2273 154.224 41.2273C153.538 41.2273 152.937 41.4062 152.419 41.7642C151.907 42.1172 151.507 42.6168 151.219 43.2631C150.935 43.9045 150.794 44.6577 150.794 45.5227C150.794 46.4077 150.933 47.1783 151.211 47.8345C151.495 48.4908 151.892 49.0004 152.405 49.3633C152.922 49.7262 153.528 49.9077 154.224 49.9077C154.682 49.9077 155.097 49.8281 155.47 49.669C155.842 49.5099 156.158 49.2812 156.417 48.983C156.675 48.6847 156.859 48.3267 156.968 47.9091H158.728C158.629 48.5852 158.383 49.1942 157.99 49.7362C157.602 50.2731 157.088 50.7006 156.446 51.0188C155.81 51.332 155.069 51.4886 154.224 51.4886ZM164.672 51.5185C163.946 51.5185 163.287 51.3817 162.696 51.1083C162.104 50.8299 161.634 50.4297 161.286 49.9077C160.938 49.3807 160.764 48.7443 160.764 47.9986C160.764 47.3423 160.894 46.8104 161.152 46.4027C161.411 45.9901 161.756 45.6669 162.189 45.4332C162.621 45.1996 163.098 45.0256 163.62 44.9112C164.147 44.7919 164.677 44.6974 165.209 44.6278C165.905 44.5384 166.469 44.4712 166.902 44.4265C167.339 44.3768 167.657 44.2947 167.856 44.1804C168.06 44.0661 168.162 43.8672 168.162 43.5838V43.5241C168.162 42.7884 167.961 42.2166 167.558 41.8089C167.16 41.4013 166.556 41.1974 165.746 41.1974C164.906 41.1974 164.247 41.3814 163.77 41.7493C163.292 42.1172 162.957 42.5099 162.763 42.9276L161.092 42.331C161.391 41.6349 161.788 41.093 162.286 40.7053C162.788 40.3125 163.335 40.0391 163.926 39.8849C164.523 39.7259 165.109 39.6463 165.686 39.6463C166.054 39.6463 166.477 39.6911 166.954 39.7805C167.436 39.8651 167.901 40.0415 168.348 40.31C168.801 40.5785 169.176 40.9837 169.475 41.5256C169.773 42.0675 169.922 42.7933 169.922 43.7031V51.25H168.162V49.6989H168.073C167.953 49.9474 167.754 50.2134 167.476 50.4968C167.198 50.7802 166.827 51.0213 166.365 51.2202C165.902 51.419 165.338 51.5185 164.672 51.5185ZM164.94 49.9375C165.636 49.9375 166.223 49.8008 166.7 49.5273C167.183 49.2539 167.546 48.9009 167.789 48.4684C168.038 48.0359 168.162 47.581 168.162 47.1037V45.4929C168.087 45.5824 167.923 45.6644 167.67 45.739C167.421 45.8086 167.133 45.8707 166.805 45.9254C166.482 45.9751 166.166 46.0199 165.858 46.0597C165.554 46.0945 165.308 46.1243 165.119 46.1491C164.662 46.2088 164.234 46.3058 163.837 46.44C163.444 46.5692 163.126 46.7656 162.882 47.0291C162.644 47.2876 162.524 47.6406 162.524 48.0881C162.524 48.6996 162.75 49.1619 163.203 49.4751C163.66 49.7834 164.239 49.9375 164.94 49.9375ZM177.788 51.4886C176.714 51.4886 175.789 51.2351 175.013 50.728C174.238 50.2209 173.641 49.5224 173.224 48.6325C172.806 47.7425 172.597 46.7259 172.597 45.5824C172.597 44.419 172.811 43.3924 173.239 42.5025C173.671 41.6076 174.273 40.9091 175.043 40.407C175.819 39.8999 176.724 39.6463 177.758 39.6463C178.563 39.6463 179.289 39.7955 179.935 40.0938C180.582 40.392 181.111 40.8097 181.524 41.3466C181.936 41.8835 182.192 42.5099 182.292 43.2259H180.532C180.398 42.7038 180.099 42.2415 179.637 41.8388C179.18 41.4311 178.563 41.2273 177.788 41.2273C177.102 41.2273 176.5 41.4062 175.983 41.7642C175.471 42.1172 175.071 42.6168 174.782 43.2631C174.499 43.9045 174.357 44.6577 174.357 45.5227C174.357 46.4077 174.496 47.1783 174.775 47.8345C175.058 48.4908 175.456 49.0004 175.968 49.3633C176.485 49.7262 177.092 49.9077 177.788 49.9077C178.245 49.9077 178.66 49.8281 179.033 49.669C179.406 49.5099 179.722 49.2812 179.98 48.983C180.239 48.6847 180.423 48.3267 180.532 47.9091H182.292C182.192 48.5852 181.946 49.1942 181.554 49.7362C181.166 50.2731 180.651 50.7006 180.01 51.0188C179.374 51.332 178.633 51.4886 177.788 51.4886ZM176.952 51.1903H178.414L178.295 51.7869C178.683 51.8466 179.038 52.0082 179.361 52.2717C179.684 52.5401 179.846 52.9652 179.846 53.5469C179.846 54.1882 179.58 54.7102 179.048 55.1129C178.521 55.5206 177.743 55.7244 176.714 55.7244L176.654 54.5611C177.116 54.5611 177.499 54.4865 177.803 54.3374C178.111 54.1932 178.265 53.9496 178.265 53.6065C178.265 53.2635 178.138 53.0298 177.885 52.9055C177.631 52.7813 177.221 52.6967 176.654 52.652L176.952 51.1903ZM188.235 51.5185C187.51 51.5185 186.851 51.3817 186.259 51.1083C185.668 50.8299 185.198 50.4297 184.85 49.9077C184.502 49.3807 184.328 48.7443 184.328 47.9986C184.328 47.3423 184.457 46.8104 184.716 46.4027C184.974 45.9901 185.32 45.6669 185.752 45.4332C186.185 45.1996 186.662 45.0256 187.184 44.9112C187.711 44.7919 188.24 44.6974 188.772 44.6278C189.468 44.5384 190.033 44.4712 190.465 44.4265C190.903 44.3768 191.221 44.2947 191.42 44.1804C191.624 44.0661 191.725 43.8672 191.725 43.5838V43.5241C191.725 42.7884 191.524 42.2166 191.121 41.8089C190.724 41.4013 190.12 41.1974 189.309 41.1974C188.469 41.1974 187.81 41.3814 187.333 41.7493C186.856 42.1172 186.52 42.5099 186.326 42.9276L184.656 42.331C184.954 41.6349 185.352 41.093 185.849 40.7053C186.351 40.3125 186.898 40.0391 187.49 39.8849C188.086 39.7259 188.673 39.6463 189.25 39.6463C189.618 39.6463 190.04 39.6911 190.517 39.7805C191 39.8651 191.464 40.0415 191.912 40.31C192.364 40.5785 192.74 40.9837 193.038 41.5256C193.336 42.0675 193.485 42.7933 193.485 43.7031V51.25H191.725V49.6989H191.636C191.517 49.9474 191.318 50.2134 191.039 50.4968C190.761 50.7802 190.391 51.0213 189.928 51.2202C189.466 51.419 188.902 51.5185 188.235 51.5185ZM188.504 49.9375C189.2 49.9375 189.787 49.8008 190.264 49.5273C190.746 49.2539 191.109 48.9009 191.353 48.4684C191.601 48.0359 191.725 47.581 191.725 47.1037V45.4929C191.651 45.5824 191.487 45.6644 191.233 45.739C190.985 45.8086 190.696 45.8707 190.368 45.9254C190.045 45.9751 189.729 46.0199 189.421 46.0597C189.118 46.0945 188.872 46.1243 188.683 46.1491C188.225 46.2088 187.798 46.3058 187.4 46.44C187.007 46.5692 186.689 46.7656 186.446 47.0291C186.207 47.2876 186.088 47.6406 186.088 48.0881C186.088 48.6996 186.314 49.1619 186.766 49.4751C187.224 49.7834 187.803 49.9375 188.504 49.9375ZM187.072 38.4233L185.7 38.3636C185.7 37.603 185.916 36.9815 186.349 36.4993C186.786 36.0121 187.326 35.7685 187.967 35.7685C188.25 35.7685 188.501 35.8182 188.72 35.9176C188.939 36.0121 189.148 36.1214 189.347 36.2457C189.545 36.37 189.749 36.4819 189.958 36.5813C190.172 36.6758 190.413 36.723 190.681 36.723C190.965 36.723 191.203 36.6136 191.397 36.3949C191.596 36.1712 191.696 35.9027 191.696 35.5895L193.038 35.7088C193.038 36.4844 192.819 37.1009 192.382 37.5582C191.949 38.0156 191.412 38.2443 190.771 38.2443C190.428 38.2443 190.145 38.1971 189.921 38.1026C189.697 38.0032 189.498 37.8913 189.324 37.767C189.15 37.6428 188.966 37.5334 188.772 37.4389C188.578 37.3395 188.34 37.2898 188.056 37.2898C187.773 37.2898 187.537 37.4016 187.348 37.6254C187.164 37.8441 187.072 38.1101 187.072 38.4233ZM201.351 51.4886C200.317 51.4886 199.41 51.2425 198.629 50.7504C197.854 50.2582 197.247 49.5696 196.81 48.6847C196.377 47.7997 196.161 46.7656 196.161 45.5824C196.161 44.3892 196.377 43.3477 196.81 42.4577C197.247 41.5678 197.854 40.8768 198.629 40.3846C199.41 39.8924 200.317 39.6463 201.351 39.6463C202.385 39.6463 203.29 39.8924 204.066 40.3846C204.846 40.8768 205.453 41.5678 205.885 42.4577C206.323 43.3477 206.541 44.3892 206.541 45.5824C206.541 46.7656 206.323 47.7997 205.885 48.6847C205.453 49.5696 204.846 50.2582 204.066 50.7504C203.29 51.2425 202.385 51.4886 201.351 51.4886ZM201.351 49.9077C202.137 49.9077 202.783 49.7063 203.29 49.3036C203.797 48.9009 204.172 48.3714 204.416 47.7152C204.66 47.0589 204.782 46.348 204.782 45.5824C204.782 44.8168 204.66 44.1033 204.416 43.4421C204.172 42.7809 203.797 42.2464 203.29 41.8388C202.783 41.4311 202.137 41.2273 201.351 41.2273C200.566 41.2273 199.919 41.4311 199.412 41.8388C198.905 42.2464 198.53 42.7809 198.286 43.4421C198.043 44.1033 197.921 44.8168 197.921 45.5824C197.921 46.348 198.043 47.0589 198.286 47.7152C198.53 48.3714 198.905 48.9009 199.412 49.3036C199.919 49.7063 200.566 49.9077 201.351 49.9077ZM220.533 35.2614L215.612 53.5469H214.001L218.923 35.2614H220.533ZM228.764 51.25V35.9773H233.925C235.123 35.9773 236.103 36.1935 236.863 36.6261C237.629 37.0536 238.196 37.6328 238.563 38.3636C238.931 39.0945 239.115 39.9098 239.115 40.8097C239.115 41.7095 238.931 42.5273 238.563 43.2631C238.201 43.9989 237.639 44.5856 236.878 45.0231C236.117 45.4556 235.143 45.6719 233.955 45.6719H230.256V44.0312H233.895C234.715 44.0312 235.374 43.8896 235.871 43.6062C236.369 43.3228 236.729 42.94 236.953 42.4577C237.181 41.9705 237.296 41.4212 237.296 40.8097C237.296 40.1982 237.181 39.6513 236.953 39.169C236.729 38.6868 236.366 38.3089 235.864 38.0355C235.362 37.7571 234.696 37.6179 233.865 37.6179H230.614V51.25H228.764ZM241.856 51.25V39.7955H243.556V41.5256H243.676C243.884 40.9588 244.262 40.4989 244.809 40.146C245.356 39.793 245.972 39.6165 246.658 39.6165C246.788 39.6165 246.949 39.619 247.143 39.6239C247.337 39.6289 247.484 39.6364 247.583 39.6463V41.4361C247.524 41.4212 247.387 41.3988 247.173 41.369C246.964 41.3342 246.743 41.3168 246.509 41.3168C245.953 41.3168 245.455 41.4336 245.018 41.6673C244.585 41.896 244.242 42.2141 243.989 42.6218C243.74 43.0245 243.616 43.4844 243.616 44.0014V51.25H241.856ZM253.974 51.4886C252.94 51.4886 252.033 51.2425 251.252 50.7504C250.477 50.2582 249.87 49.5696 249.433 48.6847C249 47.7997 248.784 46.7656 248.784 45.5824C248.784 44.3892 249 43.3477 249.433 42.4577C249.87 41.5678 250.477 40.8768 251.252 40.3846C252.033 39.8924 252.94 39.6463 253.974 39.6463C255.008 39.6463 255.913 39.8924 256.689 40.3846C257.469 40.8768 258.076 41.5678 258.508 42.4577C258.946 43.3477 259.165 44.3892 259.165 45.5824C259.165 46.7656 258.946 47.7997 258.508 48.6847C258.076 49.5696 257.469 50.2582 256.689 50.7504C255.913 51.2425 255.008 51.4886 253.974 51.4886ZM253.974 49.9077C254.76 49.9077 255.406 49.7063 255.913 49.3036C256.42 48.9009 256.796 48.3714 257.039 47.7152C257.283 47.0589 257.405 46.348 257.405 45.5824C257.405 44.8168 257.283 44.1033 257.039 43.4421C256.796 42.7809 256.42 42.2464 255.913 41.8388C255.406 41.4311 254.76 41.2273 253.974 41.2273C253.189 41.2273 252.542 41.4311 252.035 41.8388C251.528 42.2464 251.153 42.7809 250.909 43.4421C250.666 44.1033 250.544 44.8168 250.544 45.5824C250.544 46.348 250.666 47.0589 250.909 47.7152C251.153 48.3714 251.528 48.9009 252.035 49.3036C252.542 49.7063 253.189 49.9077 253.974 49.9077ZM266.176 51.4886C265.222 51.4886 264.379 51.2475 263.648 50.7653C262.917 50.2781 262.346 49.592 261.933 48.707C261.52 47.8171 261.314 46.7656 261.314 45.5526C261.314 44.3494 261.52 43.3054 261.933 42.4205C262.346 41.5355 262.92 40.8519 263.656 40.3697C264.392 39.8874 265.242 39.6463 266.206 39.6463C266.952 39.6463 267.541 39.7706 267.974 40.0192C268.411 40.2628 268.744 40.5412 268.973 40.8544C269.206 41.1626 269.388 41.4162 269.517 41.6151H269.666V35.9773H271.426V51.25H269.726V49.4901H269.517C269.388 49.6989 269.204 49.9624 268.965 50.2805C268.727 50.5937 268.386 50.8746 267.944 51.1232C267.501 51.3668 266.912 51.4886 266.176 51.4886ZM266.415 49.9077C267.121 49.9077 267.718 49.7237 268.205 49.3558C268.692 48.983 269.062 48.4684 269.316 47.8121C269.569 47.1509 269.696 46.3878 269.696 45.5227C269.696 44.6676 269.572 43.9194 269.323 43.2781C269.075 42.6317 268.707 42.1296 268.22 41.7717C267.732 41.4087 267.131 41.2273 266.415 41.2273C265.669 41.2273 265.048 41.4187 264.551 41.8015C264.058 42.1793 263.688 42.6939 263.439 43.3452C263.196 43.9915 263.074 44.7173 263.074 45.5227C263.074 46.3381 263.198 47.0788 263.447 47.745C263.7 48.4062 264.073 48.9332 264.566 49.326C265.063 49.7138 265.679 49.9077 266.415 49.9077ZM282.113 46.5668V39.7955H283.873V51.25H282.113V49.3111H281.993C281.725 49.8928 281.307 50.3874 280.741 50.7951C280.174 51.1978 279.458 51.3991 278.593 51.3991C277.877 51.3991 277.241 51.2425 276.684 50.9293C276.127 50.6112 275.689 50.1339 275.371 49.4975C275.053 48.8562 274.894 48.0483 274.894 47.0739V39.7955H276.654V46.9545C276.654 47.7898 276.888 48.456 277.355 48.9531C277.827 49.4503 278.429 49.6989 279.16 49.6989C279.597 49.6989 280.042 49.587 280.494 49.3633C280.952 49.1396 281.335 48.7965 281.643 48.3342C281.956 47.8718 282.113 47.2827 282.113 46.5668ZM292.078 39.7955V41.2869H286.142V39.7955H292.078ZM287.872 37.0511H289.632V47.9688C289.632 48.4659 289.704 48.8388 289.848 49.0874C289.997 49.331 290.186 49.495 290.415 49.5795C290.648 49.6591 290.894 49.6989 291.153 49.6989C291.347 49.6989 291.506 49.6889 291.63 49.669C291.755 49.6442 291.854 49.6243 291.929 49.6094L292.286 51.1903C292.167 51.2351 292.001 51.2798 291.787 51.3246C291.573 51.3743 291.302 51.3991 290.974 51.3991C290.477 51.3991 289.99 51.2923 289.512 51.0785C289.04 50.8647 288.647 50.5391 288.334 50.1016C288.026 49.6641 287.872 49.1122 287.872 48.446V37.0511ZM299.255 51.4886C298.221 51.4886 297.314 51.2425 296.533 50.7504C295.758 50.2582 295.151 49.5696 294.714 48.6847C294.281 47.7997 294.065 46.7656 294.065 45.5824C294.065 44.3892 294.281 43.3477 294.714 42.4577C295.151 41.5678 295.758 40.8768 296.533 40.3846C297.314 39.8924 298.221 39.6463 299.255 39.6463C300.29 39.6463 301.194 39.8924 301.97 40.3846C302.75 40.8768 303.357 41.5678 303.79 42.4577C304.227 43.3477 304.446 44.3892 304.446 45.5824C304.446 46.7656 304.227 47.7997 303.79 48.6847C303.357 49.5696 302.75 50.2582 301.97 50.7504C301.194 51.2425 300.29 51.4886 299.255 51.4886ZM299.255 49.9077C300.041 49.9077 300.687 49.7063 301.194 49.3036C301.701 48.9009 302.077 48.3714 302.32 47.7152C302.564 47.0589 302.686 46.348 302.686 45.5824C302.686 44.8168 302.564 44.1033 302.32 43.4421C302.077 42.7809 301.701 42.2464 301.194 41.8388C300.687 41.4311 300.041 41.2273 299.255 41.2273C298.47 41.2273 297.824 41.4311 297.316 41.8388C296.809 42.2464 296.434 42.7809 296.19 43.4421C295.947 44.1033 295.825 44.8168 295.825 45.5824C295.825 46.348 295.947 47.0589 296.19 47.7152C296.434 48.3714 296.809 48.9009 297.316 49.3036C297.824 49.7063 298.47 49.9077 299.255 49.9077ZM317.99 51.25H313.277V35.9773H318.199C319.681 35.9773 320.948 36.283 322.002 36.8945C323.056 37.5011 323.864 38.3736 324.426 39.5121C324.988 40.6456 325.269 42.0028 325.269 43.5838C325.269 45.1747 324.985 46.5444 324.419 47.6928C323.852 48.8363 323.026 49.7163 321.943 50.3327C320.859 50.9442 319.541 51.25 317.99 51.25ZM315.127 49.6094H317.871C319.134 49.6094 320.18 49.3658 321.01 48.8786C321.841 48.3913 322.46 47.6978 322.867 46.7979C323.275 45.8981 323.479 44.8267 323.479 43.5838C323.479 42.3509 323.278 41.2894 322.875 40.3995C322.472 39.5046 321.871 38.8185 321.07 38.3413C320.27 37.859 319.273 37.6179 318.08 37.6179H315.127V49.6094ZM328.132 51.25V39.7955H329.892V51.25H328.132ZM329.027 37.8864C328.684 37.8864 328.388 37.7695 328.14 37.5359C327.896 37.3022 327.774 37.0213 327.774 36.6932C327.774 36.3651 327.896 36.0842 328.14 35.8505C328.388 35.6168 328.684 35.5 329.027 35.5C329.37 35.5 329.664 35.6168 329.907 35.8505C330.156 36.0842 330.28 36.3651 330.28 36.6932C330.28 37.0213 330.156 37.3022 329.907 37.5359C329.664 37.7695 329.37 37.8864 329.027 37.8864ZM337.739 55.7841C336.889 55.7841 336.158 55.6747 335.547 55.456C334.935 55.2422 334.426 54.9588 334.018 54.6058C333.615 54.2578 333.295 53.8849 333.056 53.4872L334.458 52.5028C334.617 52.7116 334.818 52.9503 335.062 53.2188C335.306 53.4922 335.639 53.7283 336.061 53.9272C336.489 54.131 337.048 54.233 337.739 54.233C338.664 54.233 339.427 54.0092 340.029 53.5618C340.63 53.1143 340.931 52.4134 340.931 51.4588V49.1321H340.782C340.653 49.3409 340.469 49.5994 340.23 49.9077C339.996 50.2109 339.658 50.4819 339.216 50.7205C338.778 50.9542 338.187 51.071 337.441 51.071C336.516 51.071 335.686 50.8523 334.95 50.4148C334.219 49.9773 333.64 49.3409 333.213 48.5057C332.79 47.6705 332.579 46.6562 332.579 45.4631C332.579 44.2898 332.785 43.2681 333.198 42.3981C333.61 41.5231 334.185 40.8469 334.92 40.3697C335.656 39.8874 336.506 39.6463 337.471 39.6463C338.217 39.6463 338.808 39.7706 339.246 40.0192C339.688 40.2628 340.026 40.5412 340.26 40.8544C340.498 41.1626 340.682 41.4162 340.812 41.6151H340.991V39.7955H342.691V51.5781C342.691 52.5625 342.467 53.3629 342.02 53.9794C341.577 54.6009 340.981 55.0558 340.23 55.3441C339.484 55.6374 338.654 55.7841 337.739 55.7841ZM337.68 49.4901C338.386 49.4901 338.982 49.3285 339.469 49.0053C339.957 48.6822 340.327 48.2173 340.581 47.6108C340.834 47.0043 340.961 46.2784 340.961 45.4332C340.961 44.608 340.837 43.8796 340.588 43.2482C340.339 42.6168 339.972 42.1222 339.484 41.7642C338.997 41.4062 338.396 41.2273 337.68 41.2273C336.934 41.2273 336.312 41.4162 335.815 41.794C335.323 42.1719 334.953 42.679 334.704 43.3153C334.46 43.9517 334.339 44.6577 334.339 45.4332C334.339 46.2287 334.463 46.9322 334.712 47.5437C334.965 48.1502 335.338 48.6275 335.83 48.9755C336.327 49.3185 336.944 49.4901 337.68 49.4901ZM345.913 51.25V39.7955H347.672V51.25H345.913ZM346.807 37.8864C346.464 37.8864 346.169 37.7695 345.92 37.5359C345.676 37.3022 345.555 37.0213 345.555 36.6932C345.555 36.3651 345.676 36.0842 345.92 35.8505C346.169 35.6168 346.464 35.5 346.807 35.5C347.15 35.5 347.444 35.6168 347.687 35.8505C347.936 36.0842 348.06 36.3651 348.06 36.6932C348.06 37.0213 347.936 37.3022 347.687 37.5359C347.444 37.7695 347.15 37.8864 346.807 37.8864ZM355.877 39.7955V41.2869H349.941V39.7955H355.877ZM351.672 37.0511H353.431V47.9688C353.431 48.4659 353.504 48.8388 353.648 49.0874C353.797 49.331 353.986 49.495 354.214 49.5795C354.448 49.6591 354.694 49.6989 354.953 49.6989C355.147 49.6989 355.306 49.6889 355.43 49.669C355.554 49.6442 355.654 49.6243 355.728 49.6094L356.086 51.1903C355.967 51.2351 355.8 51.2798 355.587 51.3246C355.373 51.3743 355.102 51.3991 354.774 51.3991C354.277 51.3991 353.789 51.2923 353.312 51.0785C352.84 50.8647 352.447 50.5391 352.134 50.1016C351.826 49.6641 351.672 49.1122 351.672 48.446V37.0511ZM361.896 51.5185C361.17 51.5185 360.511 51.3817 359.919 51.1083C359.328 50.8299 358.858 50.4297 358.51 49.9077C358.162 49.3807 357.988 48.7443 357.988 47.9986C357.988 47.3423 358.117 46.8104 358.376 46.4027C358.634 45.9901 358.98 45.6669 359.412 45.4332C359.845 45.1996 360.322 45.0256 360.844 44.9112C361.371 44.7919 361.901 44.6974 362.433 44.6278C363.129 44.5384 363.693 44.4712 364.125 44.4265C364.563 44.3768 364.881 44.2947 365.08 44.1804C365.284 44.0661 365.386 43.8672 365.386 43.5838V43.5241C365.386 42.7884 365.184 42.2166 364.782 41.8089C364.384 41.4013 363.78 41.1974 362.969 41.1974C362.129 41.1974 361.471 41.3814 360.993 41.7493C360.516 42.1172 360.18 42.5099 359.987 42.9276L358.316 42.331C358.614 41.6349 359.012 41.093 359.509 40.7053C360.011 40.3125 360.558 40.0391 361.15 39.8849C361.746 39.7259 362.333 39.6463 362.91 39.6463C363.278 39.6463 363.7 39.6911 364.178 39.7805C364.66 39.8651 365.125 40.0415 365.572 40.31C366.025 40.5785 366.4 40.9837 366.698 41.5256C366.996 42.0675 367.146 42.7933 367.146 43.7031V51.25H365.386V49.6989H365.296C365.177 49.9474 364.978 50.2134 364.7 50.4968C364.421 50.7802 364.051 51.0213 363.588 51.2202C363.126 51.419 362.562 51.5185 361.896 51.5185ZM362.164 49.9375C362.86 49.9375 363.447 49.8008 363.924 49.5273C364.406 49.2539 364.769 48.9009 365.013 48.4684C365.261 48.0359 365.386 47.581 365.386 47.1037V45.4929C365.311 45.5824 365.147 45.6644 364.893 45.739C364.645 45.8086 364.357 45.8707 364.028 45.9254C363.705 45.9751 363.39 46.0199 363.081 46.0597C362.778 46.0945 362.532 46.1243 362.343 46.1491C361.886 46.2088 361.458 46.3058 361.06 46.44C360.668 46.5692 360.349 46.7656 360.106 47.0291C359.867 47.2876 359.748 47.6406 359.748 48.0881C359.748 48.6996 359.974 49.1619 360.426 49.4751C360.884 49.7834 361.463 49.9375 362.164 49.9375ZM372.118 35.9773V51.25H370.358V35.9773H372.118Z" fill="#788896"/>
<path d="M1146 14H999V70.5H1146V14Z" stroke="#C3CFD9" stroke-width="2"/>
<path d="M1019.82 35.8409H1021.4L1025.11 44.8963H1025.23L1028.94 35.8409H1030.52V46.75H1029.28V38.4616H1029.17L1025.77 46.75H1024.57L1021.16 38.4616H1021.06V46.75H1019.82V35.8409ZM1035.4 46.9418C1034.88 46.9418 1034.41 46.8441 1033.99 46.6488C1033.57 46.4499 1033.23 46.1641 1032.98 45.7912C1032.74 45.4148 1032.61 44.9602 1032.61 44.4276C1032.61 43.9588 1032.7 43.5788 1032.89 43.2876C1033.07 42.9929 1033.32 42.7621 1033.63 42.5952C1033.94 42.4283 1034.28 42.304 1034.65 42.2223C1035.03 42.1371 1035.41 42.0696 1035.79 42.0199C1036.28 41.956 1036.69 41.908 1037 41.8761C1037.31 41.8406 1037.54 41.782 1037.68 41.7003C1037.82 41.6186 1037.9 41.4766 1037.9 41.2741V41.2315C1037.9 40.706 1037.75 40.2976 1037.46 40.0064C1037.18 39.7152 1036.75 39.5696 1036.17 39.5696C1035.57 39.5696 1035.1 39.701 1034.76 39.9638C1034.42 40.2266 1034.18 40.5071 1034.04 40.8054L1032.85 40.3793C1033.06 39.8821 1033.34 39.495 1033.7 39.218C1034.06 38.9375 1034.45 38.7422 1034.87 38.6321C1035.3 38.5185 1035.72 38.4616 1036.13 38.4616C1036.39 38.4616 1036.69 38.4936 1037.03 38.5575C1037.38 38.6179 1037.71 38.744 1038.03 38.9357C1038.35 39.1275 1038.62 39.4169 1038.83 39.804C1039.05 40.1911 1039.15 40.7095 1039.15 41.3594V46.75H1037.9V45.642H1037.83C1037.75 45.8196 1037.6 46.0096 1037.41 46.212C1037.21 46.4144 1036.94 46.5866 1036.61 46.7287C1036.28 46.8707 1035.88 46.9418 1035.4 46.9418ZM1035.59 45.8125C1036.09 45.8125 1036.51 45.7148 1036.85 45.5195C1037.2 45.3242 1037.46 45.0721 1037.63 44.7631C1037.81 44.4542 1037.9 44.1293 1037.9 43.7884V42.6378C1037.84 42.7017 1037.73 42.7603 1037.54 42.8136C1037.37 42.8633 1037.16 42.9077 1036.93 42.9467C1036.7 42.9822 1036.47 43.0142 1036.25 43.0426C1036.03 43.0675 1035.86 43.0888 1035.72 43.1065C1035.4 43.1491 1035.09 43.2184 1034.81 43.3143C1034.53 43.4066 1034.3 43.5469 1034.12 43.7351C1033.95 43.9197 1033.87 44.1719 1033.87 44.4915C1033.87 44.9283 1034.03 45.2585 1034.35 45.4822C1034.68 45.7024 1035.09 45.8125 1035.59 45.8125ZM1041.45 46.75V38.5682H1042.66V39.804H1042.75C1042.9 39.3991 1043.17 39.0707 1043.56 38.8185C1043.95 38.5664 1044.39 38.4403 1044.88 38.4403C1044.97 38.4403 1045.09 38.4421 1045.22 38.4457C1045.36 38.4492 1045.47 38.4545 1045.54 38.4616V39.7401C1045.5 39.7294 1045.4 39.7134 1045.25 39.6921C1045.1 39.6673 1044.94 39.6548 1044.77 39.6548C1044.37 39.6548 1044.02 39.7383 1043.71 39.9052C1043.4 40.0685 1043.15 40.2958 1042.97 40.587C1042.79 40.8746 1042.7 41.2031 1042.7 41.5724V46.75H1041.45ZM1050.1 46.9205C1049.34 46.9205 1048.68 46.7393 1048.12 46.3771C1047.57 46.0149 1047.14 45.516 1046.84 44.8803C1046.55 44.2447 1046.4 43.5185 1046.4 42.7017C1046.4 41.8707 1046.55 41.1374 1046.85 40.5018C1047.16 39.8626 1047.59 39.3636 1048.14 39.005C1048.7 38.6428 1049.34 38.4616 1050.08 38.4616C1050.66 38.4616 1051.18 38.5682 1051.64 38.7812C1052.1 38.9943 1052.48 39.2926 1052.77 39.6761C1053.07 40.0597 1053.25 40.5071 1053.32 41.0185H1052.06C1051.97 40.6456 1051.75 40.3153 1051.42 40.0277C1051.1 39.7365 1050.66 39.5909 1050.1 39.5909C1049.61 39.5909 1049.18 39.7187 1048.81 39.9744C1048.45 40.2266 1048.16 40.5835 1047.96 41.0451C1047.75 41.5032 1047.65 42.0412 1047.65 42.6591C1047.65 43.2912 1047.75 43.8416 1047.95 44.3104C1048.15 44.7791 1048.44 45.1431 1048.8 45.4023C1049.17 45.6616 1049.61 45.7912 1050.1 45.7912C1050.43 45.7912 1050.73 45.7344 1050.99 45.6207C1051.26 45.5071 1051.48 45.3438 1051.67 45.1307C1051.85 44.9176 1051.99 44.6619 1052.06 44.3636H1053.32C1053.25 44.8466 1053.07 45.2816 1052.79 45.6687C1052.52 46.0522 1052.15 46.3576 1051.69 46.5849C1051.24 46.8086 1050.71 46.9205 1050.1 46.9205ZM1057.57 46.9418C1057.05 46.9418 1056.58 46.8441 1056.15 46.6488C1055.73 46.4499 1055.4 46.1641 1055.15 45.7912C1054.9 45.4148 1054.77 44.9602 1054.77 44.4276C1054.77 43.9588 1054.87 43.5788 1055.05 43.2876C1055.24 42.9929 1055.48 42.7621 1055.79 42.5952C1056.1 42.4283 1056.44 42.304 1056.81 42.2223C1057.19 42.1371 1057.57 42.0696 1057.95 42.0199C1058.45 41.956 1058.85 41.908 1059.16 41.8761C1059.47 41.8406 1059.7 41.782 1059.84 41.7003C1059.99 41.6186 1060.06 41.4766 1060.06 41.2741V41.2315C1060.06 40.706 1059.92 40.2976 1059.63 40.0064C1059.34 39.7152 1058.91 39.5696 1058.33 39.5696C1057.73 39.5696 1057.26 39.701 1056.92 39.9638C1056.58 40.2266 1056.34 40.5071 1056.2 40.8054L1055.01 40.3793C1055.22 39.8821 1055.51 39.495 1055.86 39.218C1056.22 38.9375 1056.61 38.7422 1057.03 38.6321C1057.46 38.5185 1057.88 38.4616 1058.29 38.4616C1058.55 38.4616 1058.86 38.4936 1059.2 38.5575C1059.54 38.6179 1059.87 38.744 1060.19 38.9357C1060.52 39.1275 1060.78 39.4169 1061 39.804C1061.21 40.1911 1061.32 40.7095 1061.32 41.3594V46.75H1060.06V45.642H1060C1059.91 45.8196 1059.77 46.0096 1059.57 46.212C1059.37 46.4144 1059.11 46.5866 1058.78 46.7287C1058.44 46.8707 1058.04 46.9418 1057.57 46.9418ZM1057.76 45.8125C1058.25 45.8125 1058.67 45.7148 1059.01 45.5195C1059.36 45.3242 1059.62 45.0721 1059.79 44.7631C1059.97 44.4542 1060.06 44.1293 1060.06 43.7884V42.6378C1060.01 42.7017 1059.89 42.7603 1059.71 42.8136C1059.53 42.8633 1059.32 42.9077 1059.09 42.9467C1058.86 42.9822 1058.63 43.0142 1058.41 43.0426C1058.2 43.0675 1058.02 43.0888 1057.89 43.1065C1057.56 43.1491 1057.25 43.2184 1056.97 43.3143C1056.69 43.4066 1056.46 43.5469 1056.29 43.7351C1056.12 43.9197 1056.03 44.1719 1056.03 44.4915C1056.03 44.9283 1056.19 45.2585 1056.52 45.4822C1056.84 45.7024 1057.26 45.8125 1057.76 45.8125ZM1068 46.75V35.8409H1071.69C1072.54 35.8409 1073.24 35.9954 1073.78 36.3043C1074.33 36.6097 1074.74 37.0234 1075 37.5455C1075.26 38.0675 1075.39 38.6499 1075.39 39.2926C1075.39 39.9354 1075.26 40.5195 1075 41.0451C1074.74 41.5707 1074.34 41.9897 1073.8 42.3022C1073.25 42.6112 1072.56 42.7656 1071.71 42.7656H1069.07V41.5938H1071.66C1072.25 41.5938 1072.72 41.4925 1073.08 41.2901C1073.43 41.0877 1073.69 40.8143 1073.85 40.4698C1074.01 40.1218 1074.09 39.7294 1074.09 39.2926C1074.09 38.8558 1074.01 38.4652 1073.85 38.1207C1073.69 37.7763 1073.43 37.5064 1073.07 37.3111C1072.71 37.1122 1072.24 37.0128 1071.64 37.0128H1069.32V46.75H1068ZM1080.69 46.9205C1079.9 46.9205 1079.22 46.7464 1078.65 46.3984C1078.08 46.0469 1077.65 45.5568 1077.34 44.9283C1077.03 44.2962 1076.88 43.5611 1076.88 42.723C1076.88 41.8849 1077.03 41.1463 1077.34 40.5071C1077.65 39.8643 1078.08 39.3636 1078.63 39.005C1079.18 38.6428 1079.83 38.4616 1080.57 38.4616C1080.99 38.4616 1081.41 38.5327 1081.83 38.6747C1082.24 38.8168 1082.62 39.0476 1082.96 39.3672C1083.3 39.6832 1083.58 40.1023 1083.78 40.6243C1083.98 41.1463 1084.08 41.7891 1084.08 42.5526V43.0852H1077.77V41.9986H1082.8C1082.8 41.5369 1082.71 41.125 1082.53 40.7628C1082.34 40.4006 1082.09 40.1147 1081.75 39.9052C1081.41 39.6957 1081.02 39.5909 1080.57 39.5909C1080.06 39.5909 1079.63 39.7152 1079.27 39.9638C1078.9 40.2088 1078.62 40.5284 1078.43 40.9226C1078.23 41.3168 1078.14 41.7393 1078.14 42.1903V42.9148C1078.14 43.5327 1078.24 44.0565 1078.46 44.4862C1078.67 44.9123 1078.97 45.2372 1079.36 45.4609C1079.74 45.6811 1080.19 45.7912 1080.69 45.7912C1081.02 45.7912 1081.32 45.745 1081.59 45.6527C1081.86 45.5568 1082.09 45.4148 1082.29 45.2266C1082.48 45.0348 1082.63 44.7969 1082.74 44.5128L1083.95 44.8537C1083.83 45.2656 1083.61 45.6278 1083.31 45.9403C1083.01 46.2493 1082.63 46.4908 1082.19 46.6648C1081.75 46.8352 1081.25 46.9205 1080.69 46.9205ZM1089.55 38.5682V39.6335H1085.31V38.5682H1089.55ZM1086.55 36.608H1087.8V44.4062C1087.8 44.7614 1087.86 45.0277 1087.96 45.2053C1088.07 45.3793 1088.2 45.4964 1088.36 45.5568C1088.53 45.6136 1088.71 45.642 1088.89 45.642C1089.03 45.642 1089.14 45.6349 1089.23 45.6207C1089.32 45.603 1089.39 45.5888 1089.45 45.5781L1089.7 46.7074C1089.62 46.7393 1089.5 46.7713 1089.34 46.8033C1089.19 46.8388 1089 46.8565 1088.76 46.8565C1088.41 46.8565 1088.06 46.7802 1087.72 46.6275C1087.38 46.4748 1087.1 46.2422 1086.88 45.9297C1086.66 45.6172 1086.55 45.223 1086.55 44.7472V36.608ZM1091.44 46.75V38.5682H1092.66V39.804H1092.74C1092.89 39.3991 1093.16 39.0707 1093.55 38.8185C1093.94 38.5664 1094.38 38.4403 1094.87 38.4403C1094.97 38.4403 1095.08 38.4421 1095.22 38.4457C1095.36 38.4492 1095.46 38.4545 1095.53 38.4616V39.7401C1095.49 39.7294 1095.39 39.7134 1095.24 39.6921C1095.09 39.6673 1094.93 39.6548 1094.77 39.6548C1094.37 39.6548 1094.01 39.7383 1093.7 39.9052C1093.39 40.0685 1093.15 40.2958 1092.97 40.587C1092.79 40.8746 1092.7 41.2031 1092.7 41.5724V46.75H1091.44ZM1100.1 46.9205C1099.36 46.9205 1098.71 46.7447 1098.15 46.3931C1097.6 46.0415 1097.17 45.5497 1096.85 44.9176C1096.55 44.2855 1096.39 43.5469 1096.39 42.7017C1096.39 41.8494 1096.55 41.1055 1096.85 40.4698C1097.17 39.8342 1097.6 39.3406 1098.15 38.989C1098.71 38.6374 1099.36 38.4616 1100.1 38.4616C1100.84 38.4616 1101.48 38.6374 1102.04 38.989C1102.59 39.3406 1103.03 39.8342 1103.34 40.4698C1103.65 41.1055 1103.81 41.8494 1103.81 42.7017C1103.81 43.5469 1103.65 44.2855 1103.34 44.9176C1103.03 45.5497 1102.59 46.0415 1102.04 46.3931C1101.48 46.7447 1100.84 46.9205 1100.1 46.9205ZM1100.1 45.7912C1100.66 45.7912 1101.12 45.6474 1101.48 45.3597C1101.85 45.0721 1102.11 44.6939 1102.29 44.2251C1102.46 43.7564 1102.55 43.2486 1102.55 42.7017C1102.55 42.1548 1102.46 41.6452 1102.29 41.1729C1102.11 40.7006 1101.85 40.3189 1101.48 40.0277C1101.12 39.7365 1100.66 39.5909 1100.1 39.5909C1099.54 39.5909 1099.08 39.7365 1098.71 40.0277C1098.35 40.3189 1098.08 40.7006 1097.91 41.1729C1097.74 41.6452 1097.65 42.1548 1097.65 42.7017C1097.65 43.2486 1097.74 43.7564 1097.91 44.2251C1098.08 44.6939 1098.35 45.0721 1098.71 45.3597C1099.08 45.6474 1099.54 45.7912 1100.1 45.7912ZM1105.9 46.75V35.8409H1107.15V39.8679H1107.26C1107.35 39.7259 1107.48 39.5447 1107.64 39.3246C1107.81 39.1009 1108.05 38.902 1108.36 38.728C1108.67 38.5504 1109.09 38.4616 1109.62 38.4616C1110.31 38.4616 1110.92 38.6339 1111.45 38.9783C1111.97 39.3228 1112.38 39.8111 1112.68 40.4432C1112.97 41.0753 1113.12 41.821 1113.12 42.6804C1113.12 43.5469 1112.97 44.2979 1112.68 44.9336C1112.38 45.5657 1111.97 46.0558 1111.45 46.4038C1110.93 46.7482 1110.33 46.9205 1109.65 46.9205C1109.12 46.9205 1108.7 46.8335 1108.38 46.6594C1108.07 46.4819 1107.82 46.2812 1107.65 46.0575C1107.48 45.8303 1107.35 45.642 1107.26 45.4929H1107.11V46.75H1105.9ZM1107.13 42.6591C1107.13 43.277 1107.22 43.8221 1107.4 44.2944C1107.58 44.7631 1107.85 45.1307 1108.2 45.397C1108.54 45.6598 1108.97 45.7912 1109.47 45.7912C1110 45.7912 1110.44 45.6527 1110.79 45.3757C1111.15 45.0952 1111.41 44.7187 1111.59 44.2464C1111.77 43.7706 1111.86 43.2415 1111.86 42.6591C1111.86 42.0838 1111.77 41.5653 1111.59 41.1037C1111.42 40.6385 1111.16 40.271 1110.8 40.0011C1110.45 39.7276 1110.01 39.5909 1109.47 39.5909C1108.96 39.5909 1108.53 39.7205 1108.19 39.9798C1107.84 40.2354 1107.57 40.5941 1107.4 41.0558C1107.22 41.5138 1107.13 42.0483 1107.13 42.6591ZM1115.04 46.75V38.5682H1116.26V39.804H1116.34C1116.49 39.3991 1116.76 39.0707 1117.15 38.8185C1117.54 38.5664 1117.98 38.4403 1118.47 38.4403C1118.56 38.4403 1118.68 38.4421 1118.82 38.4457C1118.96 38.4492 1119.06 38.4545 1119.13 38.4616V39.7401C1119.09 39.7294 1118.99 39.7134 1118.84 39.6921C1118.69 39.6673 1118.53 39.6548 1118.37 39.6548C1117.97 39.6548 1117.61 39.7383 1117.3 39.9052C1116.99 40.0685 1116.75 40.2958 1116.56 40.587C1116.39 40.8746 1116.3 41.2031 1116.3 41.5724V46.75H1115.04ZM1123.03 46.9418C1122.51 46.9418 1122.04 46.8441 1121.62 46.6488C1121.2 46.4499 1120.86 46.1641 1120.61 45.7912C1120.36 45.4148 1120.24 44.9602 1120.24 44.4276C1120.24 43.9588 1120.33 43.5788 1120.52 43.2876C1120.7 42.9929 1120.95 42.7621 1121.26 42.5952C1121.57 42.4283 1121.91 42.304 1122.28 42.2223C1122.66 42.1371 1123.03 42.0696 1123.41 42.0199C1123.91 41.956 1124.31 41.908 1124.62 41.8761C1124.94 41.8406 1125.16 41.782 1125.3 41.7003C1125.45 41.6186 1125.52 41.4766 1125.52 41.2741V41.2315C1125.52 40.706 1125.38 40.2976 1125.09 40.0064C1124.81 39.7152 1124.38 39.5696 1123.8 39.5696C1123.2 39.5696 1122.73 39.701 1122.39 39.9638C1122.04 40.2266 1121.8 40.5071 1121.67 40.8054L1120.47 40.3793C1120.69 39.8821 1120.97 39.495 1121.33 39.218C1121.68 38.9375 1122.07 38.7422 1122.5 38.6321C1122.92 38.5185 1123.34 38.4616 1123.75 38.4616C1124.02 38.4616 1124.32 38.4936 1124.66 38.5575C1125 38.6179 1125.34 38.744 1125.66 38.9357C1125.98 39.1275 1126.25 39.4169 1126.46 39.804C1126.67 40.1911 1126.78 40.7095 1126.78 41.3594V46.75H1125.52V45.642H1125.46C1125.37 45.8196 1125.23 46.0096 1125.03 46.212C1124.83 46.4144 1124.57 46.5866 1124.24 46.7287C1123.91 46.8707 1123.51 46.9418 1123.03 46.9418ZM1123.22 45.8125C1123.72 45.8125 1124.14 45.7148 1124.48 45.5195C1124.82 45.3242 1125.08 45.0721 1125.26 44.7631C1125.43 44.4542 1125.52 44.1293 1125.52 43.7884V42.6378C1125.47 42.7017 1125.35 42.7603 1125.17 42.8136C1124.99 42.8633 1124.79 42.9077 1124.55 42.9467C1124.32 42.9822 1124.1 43.0142 1123.88 43.0426C1123.66 43.0675 1123.48 43.0888 1123.35 43.1065C1123.02 43.1491 1122.72 43.2184 1122.43 43.3143C1122.15 43.4066 1121.93 43.5469 1121.75 43.7351C1121.58 43.9197 1121.5 44.1719 1121.5 44.4915C1121.5 44.9283 1121.66 45.2585 1121.98 45.4822C1122.31 45.7024 1122.72 45.8125 1123.22 45.8125ZM1134.87 40.4006L1133.74 40.7202C1133.67 40.532 1133.56 40.3491 1133.43 40.1715C1133.29 39.9904 1133.11 39.8413 1132.87 39.7241C1132.64 39.6069 1132.34 39.5483 1131.97 39.5483C1131.47 39.5483 1131.05 39.6637 1130.72 39.8945C1130.39 40.1218 1130.22 40.4112 1130.22 40.7628C1130.22 41.0753 1130.34 41.3221 1130.57 41.5032C1130.79 41.6843 1131.15 41.8352 1131.63 41.956L1132.85 42.2543C1133.58 42.4318 1134.12 42.7035 1134.48 43.0692C1134.84 43.4315 1135.02 43.8984 1135.02 44.4702C1135.02 44.9389 1134.88 45.358 1134.61 45.7273C1134.35 46.0966 1133.97 46.3878 1133.5 46.6009C1133.02 46.8139 1132.46 46.9205 1131.82 46.9205C1130.99 46.9205 1130.3 46.7393 1129.75 46.3771C1129.2 46.0149 1128.86 45.4858 1128.71 44.7898L1129.91 44.4915C1130.02 44.9318 1130.23 45.2621 1130.55 45.4822C1130.87 45.7024 1131.29 45.8125 1131.8 45.8125C1132.39 45.8125 1132.85 45.6882 1133.2 45.4396C1133.55 45.1875 1133.72 44.8857 1133.72 44.5341C1133.72 44.25 1133.62 44.0121 1133.42 43.8203C1133.22 43.625 1132.92 43.4794 1132.5 43.3835L1131.14 43.0639C1130.39 42.8864 1129.84 42.6112 1129.49 42.2383C1129.14 41.8619 1128.97 41.3913 1128.97 40.8267C1128.97 40.3651 1129.1 39.9567 1129.36 39.6016C1129.62 39.2464 1129.98 38.9677 1130.43 38.7653C1130.88 38.5629 1131.4 38.4616 1131.97 38.4616C1132.78 38.4616 1133.42 38.6392 1133.88 38.9943C1134.34 39.3494 1134.67 39.8182 1134.87 40.4006Z" fill="#788896"/>
<g clip-path="url(#clip1_1_567)">
<path d="M949.5 29.9165C942.332 29.9165 936.5 35.7486 936.5 42.9165C936.5 50.0844 942.332 55.9165 949.5 55.9165C956.668 55.9165 962.5 50.0844 962.5 42.9165C962.5 35.7486 956.668 29.9165 949.5 29.9165ZM944.625 41.2915C944.625 38.6029 946.811 36.4165 949.5 36.4165C952.189 36.4165 954.375 38.6029 954.375 41.2915V42.9165C954.375 45.6051 952.189 47.7915 949.5 47.7915C946.811 47.7915 944.625 45.6051 944.625 42.9165V41.2915ZM949.5 54.2915C947.133 54.2915 944.934 53.5635 943.111 52.3212C944.3 51.0383 945.992 50.229 947.875 50.229H951.125C953.008 50.229 954.7 51.0383 955.889 52.3212C954.066 53.5635 951.867 54.2915 949.5 54.2915Z" fill="#444444"/>
</g>
<g clip-path="url(#clip2_1_567)">
<path d="M916.072 55.9165H907.947C907.499 55.9165 907.135 55.5525 907.135 55.104V54.2915H916.885V55.104C916.885 55.5525 916.521 55.9165 916.072 55.9165Z" fill="#444444"/>
<path d="M912.01 29.9165C906.633 29.9165 902.26 34.2902 902.26 39.6665C902.26 43.1716 904.116 46.3599 907.135 48.1027V52.6665H916.885V48.1027C919.904 46.3599 921.76 43.1724 921.76 39.6665C921.76 34.2902 917.386 29.9165 912.01 29.9165ZM912.822 35.604H912.01C909.77 35.604 907.947 37.4264 907.947 39.6665V40.479H906.322V39.6665C906.322 36.5311 908.874 33.979 912.01 33.979H912.822V35.604Z" fill="#444444"/>
</g>
<g clip-path="url(#clip3_1_567)">
<path d="M883.182 45.3507C883.388 44.5788 883.496 43.7842 883.505 42.9854C883.496 42.1866 883.388 41.392 883.182 40.6202L885.934 38.5945C886.162 38.427 886.319 38.1815 886.377 37.9051C886.434 37.6287 886.388 37.3408 886.246 37.0964L885.099 35.1097C884.958 34.8651 884.732 34.6811 884.463 34.593C884.195 34.505 883.904 34.5191 883.645 34.6325L880.532 36.009C879.378 34.895 877.965 34.0847 876.421 33.6507L876.049 30.2416C876.018 29.9598 875.883 29.6994 875.672 29.5109C875.46 29.3224 875.186 29.219 874.902 29.2207H872.608C872.324 29.219 872.05 29.3224 871.838 29.5109C871.627 29.6994 871.492 29.9598 871.461 30.2416L871.089 33.6507C869.545 34.0811 868.132 34.8874 866.976 35.9975L863.863 34.6211C863.604 34.5076 863.313 34.4935 863.044 34.5816C862.776 34.6696 862.549 34.8536 862.408 35.0983L861.261 37.085C861.12 37.3293 861.073 37.6172 861.131 37.8936C861.188 38.17 861.346 38.4155 861.573 38.583L864.326 40.6087C864.12 41.3844 864.012 42.1829 864.005 42.9854C864.014 43.7842 864.122 44.5788 864.328 45.3507L861.576 47.3764C861.348 47.5439 861.191 47.7894 861.133 48.0658C861.076 48.3422 861.122 48.6301 861.264 48.8744L862.411 50.8611C862.511 51.0355 862.656 51.1803 862.83 51.281C863.005 51.3817 863.203 51.4347 863.404 51.4347C863.562 51.4338 863.718 51.4011 863.863 51.3383L866.976 49.9618C868.132 51.072 869.545 51.8783 871.089 52.3087L871.461 55.7293C871.492 56.0111 871.627 56.2714 871.838 56.4599C872.05 56.6485 872.324 56.7519 872.608 56.7501H874.902C875.186 56.7519 875.46 56.6485 875.672 56.4599C875.883 56.2714 876.018 56.0111 876.049 55.7293L876.428 52.3202C877.969 51.8887 879.38 51.0825 880.534 49.9733L883.647 51.3498C883.792 51.4125 883.948 51.4453 884.106 51.4461C884.307 51.4461 884.505 51.3931 884.68 51.2925C884.854 51.1918 884.999 51.047 885.099 50.8726L886.246 48.8859C886.388 48.6416 886.434 48.3536 886.377 48.0772C886.319 47.8008 886.162 47.5554 885.934 47.3878L883.182 45.3507ZM873.755 47.5737C872.848 47.5737 871.96 47.3046 871.206 46.8004C870.451 46.2962 869.863 45.5797 869.516 44.7413C869.169 43.9029 869.078 42.9803 869.255 42.0903C869.432 41.2003 869.869 40.3827 870.511 39.7411C871.152 39.0994 871.97 38.6624 872.86 38.4854C873.75 38.3083 874.672 38.3992 875.511 38.7465C876.349 39.0937 877.066 39.6818 877.57 40.4363C878.074 41.1909 878.343 42.078 878.343 42.9854C878.343 44.2023 877.86 45.3693 876.999 46.2298C876.139 47.0903 874.972 47.5737 873.755 47.5737Z" fill="#444444"/>
</g>
<g clip-path="url(#clip4_1_567)">
<path d="M829.812 30.729C829.812 30.2805 829.448 29.9165 829 29.9165C828.552 29.9165 828.188 30.2805 828.188 30.729V33.1665H829.812V30.729Z" fill="#444444"/>
<path d="M842.812 30.729C842.812 30.2805 842.448 29.9165 842 29.9165C841.552 29.9165 841.188 30.2805 841.188 30.729V33.1665H842.812V30.729Z" fill="#444444"/>
<path d="M844.438 33.979H826.562C824.768 33.979 823.312 35.4342 823.312 37.229V51.854C823.312 53.6488 824.768 55.104 826.562 55.104H844.438C846.232 55.104 847.688 53.6488 847.688 51.854V37.229C847.688 35.4342 846.232 33.979 844.438 33.979ZM846.062 51.854C846.062 52.7518 845.335 53.479 844.438 53.479H826.562C825.665 53.479 824.938 52.7518 824.938 51.854V38.854H846.062V51.854Z" fill="#444444"/>
<path d="M833.875 51.0415C833.667 51.0415 833.459 50.9618 833.301 50.8034L830.051 47.5534C829.733 47.2357 829.733 46.7222 830.051 46.4045C830.368 46.0868 830.882 46.0868 831.199 46.4045L833.875 49.0801L841.426 41.5295C841.743 41.2118 842.257 41.2118 842.574 41.5295C842.892 41.8472 842.892 42.3607 842.574 42.6784L834.449 50.8034C834.291 50.9618 834.083 51.0415 833.875 51.0415Z" fill="#444444"/>
</g>
<path d="M1162 88H0V173H1162V88Z" stroke="#C3CFD9" stroke-width="2"/>
<path d="M414 125.5H340V136.5H414V125.5Z" fill="#CED8E0"/>
<path d="M516 125.5H442V136.5H516V125.5Z" fill="#CED8E0"/>
<path d="M618 125.5H544V136.5H618V125.5Z" fill="#CED8E0"/>
<path d="M720 125.5H646V136.5H720V125.5Z" fill="#CED8E0"/>
<path d="M822 125H748V136H822V125Z" fill="#CED8E0"/>
</g>
<defs>
<clipPath id="clip0_1_567">
<rect width="1162" height="246" fill="white"/>
</clipPath>
<clipPath id="clip1_1_567">
<rect width="26" height="26" fill="white" transform="translate(936.5 29.9165)"/>
</clipPath>
<clipPath id="clip2_1_567">
<rect width="26" height="26" fill="white" transform="translate(899.01 29.9165)"/>
</clipPath>
<clipPath id="clip3_1_567">
<rect width="27.5294" height="27.5294" fill="white" transform="translate(859.99 29.2207)"/>
</clipPath>
<clipPath id="clip4_1_567">
<rect width="26" height="26" fill="white" transform="translate(822.5 29.9165)"/>
</clipPath>
</defs>
</svg>
