<svg width="1162" height="246" viewBox="0 0 1162 246" fill="none" xmlns="http://www.w3.org/2000/svg">
<g clip-path="url(#clip0_1_454)">
<rect width="1162" height="246" fill="white"/>
<path d="M1162 0H0V88H1162V0Z" stroke="#C3CFD9" stroke-width="2"/>
<path d="M656.5 25.5H470.75C460.809 25.5 452.75 33.5589 452.75 43.5C452.75 53.4411 460.809 61.5 470.75 61.5H656.5C666.441 61.5 674.5 53.4411 674.5 43.5C674.5 33.5589 666.441 25.5 656.5 25.5Z" stroke="#9EADBA" stroke-width="2" stroke-linecap="round" stroke-linejoin="round"/>
<g clip-path="url(#clip1_1_454)">
<path d="M829.812 31.729C829.812 31.2805 829.448 30.9165 829 30.9165C828.552 30.9165 828.188 31.2805 828.188 31.729V34.1665H829.812V31.729Z" fill="#444444"/>
<path d="M842.812 31.729C842.812 31.2805 842.448 30.9165 842 30.9165C841.552 30.9165 841.188 31.2805 841.188 31.729V34.1665H842.812V31.729Z" fill="#444444"/>
<path d="M844.438 34.979H826.562C824.768 34.979 823.312 36.4342 823.312 38.229V52.854C823.312 54.6488 824.768 56.104 826.562 56.104H844.438C846.232 56.104 847.688 54.6488 847.688 52.854V38.229C847.688 36.4342 846.232 34.979 844.438 34.979ZM846.062 52.854C846.062 53.7518 845.335 54.479 844.438 54.479H826.562C825.665 54.479 824.938 53.7518 824.938 52.854V39.854H846.062V52.854Z" fill="#444444"/>
<path d="M833.875 52.0415C833.667 52.0415 833.459 51.9618 833.301 51.8034L830.051 48.5534C829.733 48.2357 829.733 47.7222 830.051 47.4045C830.368 47.0868 830.882 47.0868 831.199 47.4045L833.875 50.0801L841.426 42.5295C841.743 42.2118 842.257 42.2118 842.574 42.5295C842.892 42.8472 842.892 43.3607 842.574 43.6784L834.449 51.8034C834.291 51.9618 834.083 52.0415 833.875 52.0415Z" fill="#444444"/>
</g>
<g clip-path="url(#clip2_1_454)">
<path d="M883.181 46.3507C883.387 45.5788 883.496 44.7842 883.505 43.9854C883.496 43.1866 883.387 42.392 883.181 41.6202L885.934 39.5945C886.162 39.427 886.319 39.1815 886.377 38.9051C886.434 38.6287 886.388 38.3408 886.246 38.0964L885.099 36.1097C884.958 35.8651 884.732 35.6811 884.463 35.593C884.195 35.505 883.904 35.5191 883.645 35.6325L880.532 37.009C879.378 35.895 877.965 35.0847 876.421 34.6507L876.049 31.2416C876.018 30.9598 875.883 30.6994 875.672 30.5109C875.46 30.3224 875.186 30.219 874.902 30.2207H872.608C872.324 30.219 872.05 30.3224 871.838 30.5109C871.627 30.6994 871.492 30.9598 871.461 31.2416L871.089 34.6507C869.545 35.0811 868.132 35.8874 866.976 36.9975L863.863 35.6211C863.604 35.5076 863.313 35.4935 863.044 35.5816C862.776 35.6696 862.549 35.8536 862.408 36.0983L861.261 38.085C861.12 38.3293 861.073 38.6172 861.131 38.8936C861.188 39.17 861.346 39.4155 861.573 39.583L864.326 41.6087C864.12 42.3844 864.012 43.1829 864.005 43.9854C864.014 44.7842 864.122 45.5788 864.328 46.3507L861.575 48.3764C861.348 48.5439 861.191 48.7894 861.133 49.0658C861.076 49.3422 861.122 49.6301 861.263 49.8744L862.411 51.8611C862.511 52.0355 862.656 52.1803 862.83 52.281C863.005 52.3817 863.203 52.4347 863.404 52.4347C863.562 52.4338 863.718 52.4011 863.863 52.3383L866.976 50.9618C868.132 52.072 869.545 52.8783 871.089 53.3087L871.461 56.7293C871.492 57.0111 871.627 57.2714 871.838 57.4599C872.05 57.6485 872.324 57.7519 872.608 57.7501H874.902C875.186 57.7519 875.46 57.6485 875.672 57.4599C875.883 57.2714 876.018 57.0111 876.049 56.7293L876.428 53.3202C877.969 52.8887 879.38 52.0825 880.534 50.9733L883.647 52.3498C883.792 52.4125 883.948 52.4453 884.106 52.4461C884.307 52.4461 884.505 52.3931 884.68 52.2925C884.854 52.1918 884.999 52.047 885.099 51.8726L886.246 49.8859C886.388 49.6416 886.434 49.3536 886.377 49.0772C886.319 48.8008 886.162 48.5554 885.934 48.3878L883.181 46.3507ZM873.755 48.5737C872.847 48.5737 871.96 48.3046 871.206 47.8004C870.451 47.2962 869.863 46.5797 869.516 45.7413C869.169 44.9029 869.078 43.9803 869.255 43.0903C869.432 42.2003 869.869 41.3827 870.511 40.7411C871.152 40.0994 871.97 39.6624 872.86 39.4854C873.75 39.3083 874.672 39.3992 875.511 39.7465C876.349 40.0937 877.066 40.6818 877.57 41.4363C878.074 42.1909 878.343 43.078 878.343 43.9854C878.343 45.2023 877.86 46.3693 876.999 47.2298C876.139 48.0903 874.972 48.5737 873.755 48.5737Z" fill="#444444"/>
</g>
<g clip-path="url(#clip3_1_454)">
<path d="M916.072 56.9165H907.947C907.499 56.9165 907.135 56.5525 907.135 56.104V55.2915H916.885V56.104C916.885 56.5525 916.521 56.9165 916.072 56.9165Z" fill="#444444"/>
<path d="M912.01 30.9165C906.633 30.9165 902.26 35.2902 902.26 40.6665C902.26 44.1716 904.116 47.3599 907.135 49.1027V53.6665H916.885V49.1027C919.904 47.3599 921.76 44.1724 921.76 40.6665C921.76 35.2902 917.386 30.9165 912.01 30.9165ZM912.822 36.604H912.01C909.77 36.604 907.947 38.4264 907.947 40.6665V41.479H906.322V40.6665C906.322 37.5311 908.874 34.979 912.01 34.979H912.822V36.604Z" fill="#444444"/>
</g>
<g clip-path="url(#clip4_1_454)">
<path d="M949.5 30.9165C942.332 30.9165 936.5 36.7486 936.5 43.9165C936.5 51.0844 942.332 56.9165 949.5 56.9165C956.668 56.9165 962.5 51.0844 962.5 43.9165C962.5 36.7486 956.668 30.9165 949.5 30.9165ZM944.625 42.2915C944.625 39.6029 946.811 37.4165 949.5 37.4165C952.189 37.4165 954.375 39.6029 954.375 42.2915V43.9165C954.375 46.6051 952.189 48.7915 949.5 48.7915C946.811 48.7915 944.625 46.6051 944.625 43.9165V42.2915ZM949.5 55.2915C947.133 55.2915 944.934 54.5635 943.111 53.3212C944.3 52.0383 945.992 51.229 947.875 51.229H951.125C953.008 51.229 954.7 52.0383 955.889 53.3212C954.066 54.5635 951.867 55.2915 949.5 55.2915Z" fill="#444444"/>
</g>
<path d="M29.9602 34.2273V49.5H28.1705L19.848 37.5085H19.6989V49.5H17.8494V34.2273H19.6392L27.9915 46.2486H28.1406V34.2273H29.9602ZM38.0757 49.7386C37.0416 49.7386 36.1343 49.4925 35.3538 49.0004C34.5782 48.5082 33.9717 47.8196 33.5342 46.9347C33.1017 46.0497 32.8854 45.0156 32.8854 43.8324C32.8854 42.6392 33.1017 41.5977 33.5342 40.7077C33.9717 39.8178 34.5782 39.1268 35.3538 38.6346C36.1343 38.1424 37.0416 37.8963 38.0757 37.8963C39.1098 37.8963 40.0146 38.1424 40.7902 38.6346C41.5708 39.1268 42.1773 39.8178 42.6098 40.7077C43.0473 41.5977 43.2661 42.6392 43.2661 43.8324C43.2661 45.0156 43.0473 46.0497 42.6098 46.9347C42.1773 47.8196 41.5708 48.5082 40.7902 49.0004C40.0146 49.4925 39.1098 49.7386 38.0757 49.7386ZM38.0757 48.1577C38.8612 48.1577 39.5075 47.9563 40.0146 47.5536C40.5218 47.1509 40.8971 46.6214 41.1407 45.9652C41.3843 45.3089 41.5061 44.598 41.5061 43.8324C41.5061 43.0668 41.3843 42.3533 41.1407 41.6921C40.8971 41.0309 40.5218 40.4964 40.0146 40.0888C39.5075 39.6811 38.8612 39.4773 38.0757 39.4773C37.2902 39.4773 36.6439 39.6811 36.1368 40.0888C35.6297 40.4964 35.2544 41.0309 35.0107 41.6921C34.7671 42.3533 34.6453 43.0668 34.6453 43.8324C34.6453 44.598 34.7671 45.3089 35.0107 45.9652C35.2544 46.6214 35.6297 47.1509 36.1368 47.5536C36.6439 47.9563 37.2902 48.1577 38.0757 48.1577ZM45.9526 49.5V38.0455H47.6529V39.8352H47.802C48.0407 39.2237 48.426 38.7489 48.9579 38.4109C49.4899 38.0678 50.1287 37.8963 50.8745 37.8963C51.6301 37.8963 52.2591 38.0678 52.7612 38.4109C53.2683 38.7489 53.6635 39.2237 53.9469 39.8352H54.0662C54.3596 39.2436 54.7995 38.7738 55.3862 38.4258C55.9728 38.0728 56.6763 37.8963 57.4966 37.8963C58.5208 37.8963 59.3585 38.217 60.0098 38.8583C60.661 39.4947 60.9867 40.4865 60.9867 41.8338V49.5H59.2267V41.8338C59.2267 40.9886 58.9956 40.3846 58.5332 40.0217C58.0708 39.6587 57.5265 39.4773 56.9 39.4773C56.0946 39.4773 55.4707 39.7209 55.0282 40.2081C54.5858 40.6903 54.3645 41.3018 54.3645 42.0426V49.5H52.5748V41.6548C52.5748 41.0036 52.3635 40.479 51.9409 40.0813C51.5183 39.6786 50.9739 39.4773 50.3077 39.4773C49.8503 39.4773 49.4228 39.5991 49.025 39.8427C48.6323 40.0863 48.3141 40.4244 48.0705 40.8569C47.8319 41.2844 47.7125 41.7791 47.7125 42.3409V49.5H45.9526ZM69.0071 49.7386C67.9034 49.7386 66.9513 49.495 66.1509 49.0078C65.3555 48.5156 64.7415 47.8295 64.3089 46.9496C63.8814 46.0646 63.6676 45.0355 63.6676 43.8622C63.6676 42.6889 63.8814 41.6548 64.3089 40.7599C64.7415 39.8601 65.343 39.1591 66.1136 38.657C66.8892 38.1499 67.794 37.8963 68.8281 37.8963C69.4247 37.8963 70.0138 37.9957 70.5955 38.1946C71.1772 38.3935 71.7067 38.7166 72.1839 39.1641C72.6612 39.6065 73.0415 40.1932 73.3249 40.924C73.6083 41.6548 73.75 42.5547 73.75 43.6236V44.3693H64.9205V42.848H71.9602C71.9602 42.2017 71.831 41.625 71.5724 41.1179C71.3189 40.6108 70.956 40.2106 70.4837 39.9173C70.0163 39.6239 69.4645 39.4773 68.8281 39.4773C68.1271 39.4773 67.5206 39.6513 67.0085 39.9993C66.5014 40.3423 66.1112 40.7898 65.8377 41.3416C65.5643 41.8935 65.4276 42.4851 65.4276 43.1165V44.1307C65.4276 44.9957 65.5767 45.729 65.875 46.3306C66.1783 46.9272 66.5984 47.3821 67.1353 47.6953C67.6722 48.0036 68.2962 48.1577 69.0071 48.1577C69.4695 48.1577 69.8871 48.093 70.2599 47.9638C70.6378 47.8295 70.9634 47.6307 71.2369 47.3672C71.5103 47.0987 71.7216 46.7656 71.8707 46.3679L73.571 46.8452C73.392 47.4219 73.0913 47.929 72.6687 48.3665C72.2461 48.799 71.7241 49.1371 71.1026 49.3807C70.4812 49.6193 69.7827 49.7386 69.0071 49.7386ZM86.6587 49.7386C85.7042 49.7386 84.8615 49.4975 84.1307 49.0153C83.3999 48.5281 82.8281 47.842 82.4155 46.957C82.0028 46.0671 81.7965 45.0156 81.7965 43.8026C81.7965 42.5994 82.0028 41.5554 82.4155 40.6705C82.8281 39.7855 83.4023 39.1019 84.1381 38.6197C84.8739 38.1374 85.7241 37.8963 86.6886 37.8963C87.4343 37.8963 88.0234 38.0206 88.456 38.2692C88.8935 38.5128 89.2266 38.7912 89.4553 39.1044C89.6889 39.4126 89.8704 39.6662 89.9996 39.8651H90.1488V34.2273H91.9087V49.5H90.2085V47.7401H89.9996C89.8704 47.9489 89.6864 48.2124 89.4478 48.5305C89.2092 48.8437 88.8686 49.1246 88.4261 49.3732C87.9837 49.6168 87.3945 49.7386 86.6587 49.7386ZM86.8974 48.1577C87.6033 48.1577 88.1999 47.9737 88.6871 47.6058C89.1744 47.233 89.5447 46.7184 89.7983 46.0621C90.0518 45.4009 90.1786 44.6378 90.1786 43.7727C90.1786 42.9176 90.0543 42.1694 89.8058 41.5281C89.5572 40.8817 89.1893 40.3796 88.7021 40.0217C88.2148 39.6587 87.6133 39.4773 86.8974 39.4773C86.1516 39.4773 85.5302 39.6687 85.033 40.0515C84.5408 40.4293 84.1705 40.9439 83.9219 41.5952C83.6783 42.2415 83.5565 42.9673 83.5565 43.7727C83.5565 44.5881 83.6808 45.3288 83.9293 45.995C84.1829 46.6562 84.5558 47.1832 85.0479 47.576C85.5451 47.9638 86.1616 48.1577 86.8974 48.1577ZM98.7472 49.7685C98.0213 49.7685 97.3626 49.6317 96.771 49.3583C96.1793 49.0799 95.7095 48.6797 95.3615 48.1577C95.0135 47.6307 94.8395 46.9943 94.8395 46.2486C94.8395 45.5923 94.9688 45.0604 95.2273 44.6527C95.4858 44.2401 95.8313 43.9169 96.2638 43.6832C96.6964 43.4496 97.1737 43.2756 97.6957 43.1612C98.2227 43.0419 98.7521 42.9474 99.2841 42.8778C99.9801 42.7884 100.544 42.7212 100.977 42.6765C101.414 42.6268 101.733 42.5447 101.931 42.4304C102.135 42.3161 102.237 42.1172 102.237 41.8338V41.7741C102.237 41.0384 102.036 40.4666 101.633 40.0589C101.235 39.6513 100.631 39.4474 99.821 39.4474C98.9808 39.4474 98.3221 39.6314 97.8448 39.9993C97.3675 40.3672 97.032 40.7599 96.8381 41.1776L95.1676 40.581C95.4659 39.8849 95.8636 39.343 96.3608 38.9553C96.8629 38.5625 97.4098 38.2891 98.0014 38.1349C98.598 37.9759 99.1847 37.8963 99.7614 37.8963C100.129 37.8963 100.552 37.9411 101.029 38.0305C101.511 38.1151 101.976 38.2915 102.424 38.56C102.876 38.8285 103.251 39.2337 103.55 39.7756C103.848 40.3175 103.997 41.0433 103.997 41.9531V49.5H102.237V47.9489H102.148C102.028 48.1974 101.83 48.4634 101.551 48.7468C101.273 49.0302 100.902 49.2713 100.44 49.4702C99.9776 49.669 99.4134 49.7685 98.7472 49.7685ZM99.0156 48.1875C99.7116 48.1875 100.298 48.0508 100.776 47.7773C101.258 47.5039 101.621 47.1509 101.864 46.7184C102.113 46.2859 102.237 45.831 102.237 45.3537V43.7429C102.163 43.8324 101.999 43.9144 101.745 43.989C101.496 44.0586 101.208 44.1207 100.88 44.1754C100.557 44.2251 100.241 44.2699 99.9329 44.3097C99.6296 44.3445 99.3835 44.3743 99.1946 44.3991C98.7372 44.4588 98.3097 44.5558 97.9119 44.69C97.5192 44.8192 97.201 45.0156 96.9574 45.2791C96.7188 45.5376 96.5994 45.8906 96.5994 46.3381C96.5994 46.9496 96.8256 47.4119 97.2781 47.7251C97.7354 48.0334 98.3146 48.1875 99.0156 48.1875ZM113.981 49.5H112.042L117.65 34.2273H119.559L125.167 49.5H123.228L118.664 36.6435H118.545L113.981 49.5ZM114.697 43.5341H122.512V45.1747H114.697V43.5341ZM127.307 53.7955V38.0455H129.007V39.8651H129.216C129.345 39.6662 129.524 39.4126 129.753 39.1044C129.987 38.7912 130.32 38.5128 130.752 38.2692C131.19 38.0206 131.782 37.8963 132.527 37.8963C133.492 37.8963 134.342 38.1374 135.078 38.6197C135.813 39.1019 136.388 39.7855 136.8 40.6705C137.213 41.5554 137.419 42.5994 137.419 43.8026C137.419 45.0156 137.213 46.0671 136.8 46.957C136.388 47.842 135.816 48.5281 135.085 49.0153C134.354 49.4975 133.512 49.7386 132.557 49.7386C131.821 49.7386 131.232 49.6168 130.79 49.3732C130.347 49.1246 130.007 48.8437 129.768 48.5305C129.529 48.2124 129.345 47.9489 129.216 47.7401H129.067V53.7955H127.307ZM129.037 43.7727C129.037 44.6378 129.164 45.4009 129.418 46.0621C129.671 46.7184 130.041 47.233 130.529 47.6058C131.016 47.9737 131.612 48.1577 132.318 48.1577C133.054 48.1577 133.668 47.9638 134.16 47.576C134.658 47.1832 135.03 46.6562 135.279 45.995C135.533 45.3288 135.659 44.5881 135.659 43.7727C135.659 42.9673 135.535 42.2415 135.286 41.5952C135.043 40.9439 134.672 40.4293 134.175 40.0515C133.683 39.6687 133.064 39.4773 132.318 39.4773C131.603 39.4773 131.001 39.6587 130.514 40.0217C130.027 40.3796 129.659 40.8817 129.41 41.5281C129.161 42.1694 129.037 42.9176 129.037 43.7727ZM141.864 34.2273V49.5H140.104V34.2273H141.864ZM145.087 49.5V38.0455H146.847V49.5H145.087ZM145.982 36.1364C145.639 36.1364 145.343 36.0195 145.095 35.7859C144.851 35.5522 144.729 35.2713 144.729 34.9432C144.729 34.6151 144.851 34.3342 145.095 34.1005C145.343 33.8668 145.639 33.75 145.982 33.75C146.325 33.75 146.619 33.8668 146.862 34.1005C147.111 34.3342 147.235 34.6151 147.235 34.9432C147.235 35.2713 147.111 35.5522 146.862 35.7859C146.619 36.0195 146.325 36.1364 145.982 36.1364ZM154.724 49.7386C153.65 49.7386 152.726 49.4851 151.95 48.978C151.174 48.4709 150.578 47.7724 150.16 46.8825C149.743 45.9925 149.534 44.9759 149.534 43.8324C149.534 42.669 149.748 41.6424 150.175 40.7525C150.608 39.8576 151.209 39.1591 151.98 38.657C152.755 38.1499 153.66 37.8963 154.694 37.8963C155.5 37.8963 156.226 38.0455 156.872 38.3438C157.518 38.642 158.048 39.0597 158.46 39.5966C158.873 40.1335 159.129 40.7599 159.228 41.4759H157.468C157.334 40.9538 157.036 40.4915 156.574 40.0888C156.116 39.6811 155.5 39.4773 154.724 39.4773C154.038 39.4773 153.437 39.6562 152.919 40.0142C152.407 40.3672 152.007 40.8668 151.719 41.5131C151.435 42.1545 151.294 42.9077 151.294 43.7727C151.294 44.6577 151.433 45.4283 151.711 46.0845C151.995 46.7408 152.392 47.2504 152.905 47.6133C153.422 47.9762 154.028 48.1577 154.724 48.1577C155.182 48.1577 155.597 48.0781 155.97 47.919C156.342 47.7599 156.658 47.5312 156.917 47.233C157.175 46.9347 157.359 46.5767 157.468 46.1591H159.228C159.129 46.8352 158.883 47.4442 158.49 47.9862C158.102 48.5231 157.588 48.9506 156.946 49.2688C156.31 49.582 155.569 49.7386 154.724 49.7386ZM165.172 49.7685C164.446 49.7685 163.787 49.6317 163.196 49.3583C162.604 49.0799 162.134 48.6797 161.786 48.1577C161.438 47.6307 161.264 46.9943 161.264 46.2486C161.264 45.5923 161.394 45.0604 161.652 44.6527C161.911 44.2401 162.256 43.9169 162.689 43.6832C163.121 43.4496 163.598 43.2756 164.12 43.1612C164.647 43.0419 165.177 42.9474 165.709 42.8778C166.405 42.7884 166.969 42.7212 167.402 42.6765C167.839 42.6268 168.157 42.5447 168.356 42.4304C168.56 42.3161 168.662 42.1172 168.662 41.8338V41.7741C168.662 41.0384 168.461 40.4666 168.058 40.0589C167.66 39.6513 167.056 39.4474 166.246 39.4474C165.406 39.4474 164.747 39.6314 164.27 39.9993C163.792 40.3672 163.457 40.7599 163.263 41.1776L161.592 40.581C161.891 39.8849 162.288 39.343 162.786 38.9553C163.288 38.5625 163.835 38.2891 164.426 38.1349C165.023 37.9759 165.609 37.8963 166.186 37.8963C166.554 37.8963 166.977 37.9411 167.454 38.0305C167.936 38.1151 168.401 38.2915 168.848 38.56C169.301 38.8285 169.676 39.2337 169.975 39.7756C170.273 40.3175 170.422 41.0433 170.422 41.9531V49.5H168.662V47.9489H168.573C168.453 48.1974 168.254 48.4634 167.976 48.7468C167.698 49.0302 167.327 49.2713 166.865 49.4702C166.402 49.669 165.838 49.7685 165.172 49.7685ZM165.44 48.1875C166.136 48.1875 166.723 48.0508 167.2 47.7773C167.683 47.5039 168.046 47.1509 168.289 46.7184C168.538 46.2859 168.662 45.831 168.662 45.3537V43.7429C168.587 43.8324 168.423 43.9144 168.17 43.989C167.921 44.0586 167.633 44.1207 167.305 44.1754C166.982 44.2251 166.666 44.2699 166.358 44.3097C166.054 44.3445 165.808 44.3743 165.619 44.3991C165.162 44.4588 164.734 44.5558 164.337 44.69C163.944 44.8192 163.626 45.0156 163.382 45.2791C163.144 45.5376 163.024 45.8906 163.024 46.3381C163.024 46.9496 163.25 47.4119 163.703 47.7251C164.16 48.0334 164.739 48.1875 165.44 48.1875ZM178.288 49.7386C177.214 49.7386 176.289 49.4851 175.513 48.978C174.738 48.4709 174.141 47.7724 173.724 46.8825C173.306 45.9925 173.097 44.9759 173.097 43.8324C173.097 42.669 173.311 41.6424 173.739 40.7525C174.171 39.8576 174.773 39.1591 175.543 38.657C176.319 38.1499 177.224 37.8963 178.258 37.8963C179.063 37.8963 179.789 38.0455 180.435 38.3438C181.082 38.642 181.611 39.0597 182.024 39.5966C182.436 40.1335 182.692 40.7599 182.792 41.4759H181.032C180.898 40.9538 180.599 40.4915 180.137 40.0888C179.68 39.6811 179.063 39.4773 178.288 39.4773C177.602 39.4773 177 39.6562 176.483 40.0142C175.971 40.3672 175.571 40.8668 175.282 41.5131C174.999 42.1545 174.857 42.9077 174.857 43.7727C174.857 44.6577 174.996 45.4283 175.275 46.0845C175.558 46.7408 175.956 47.2504 176.468 47.6133C176.985 47.9762 177.592 48.1577 178.288 48.1577C178.745 48.1577 179.16 48.0781 179.533 47.919C179.906 47.7599 180.222 47.5312 180.48 47.233C180.739 46.9347 180.923 46.5767 181.032 46.1591H182.792C182.692 46.8352 182.446 47.4442 182.054 47.9862C181.666 48.5231 181.151 48.9506 180.51 49.2688C179.874 49.582 179.133 49.7386 178.288 49.7386ZM177.452 49.4403H178.914L178.795 50.0369C179.183 50.0966 179.538 50.2582 179.861 50.5217C180.184 50.7901 180.346 51.2152 180.346 51.7969C180.346 52.4382 180.08 52.9602 179.548 53.3629C179.021 53.7706 178.243 53.9744 177.214 53.9744L177.154 52.8111C177.616 52.8111 177.999 52.7365 178.303 52.5874C178.611 52.4432 178.765 52.1996 178.765 51.8565C178.765 51.5135 178.638 51.2798 178.385 51.1555C178.131 51.0313 177.721 50.9467 177.154 50.902L177.452 49.4403ZM188.735 49.7685C188.01 49.7685 187.351 49.6317 186.759 49.3583C186.168 49.0799 185.698 48.6797 185.35 48.1577C185.002 47.6307 184.828 46.9943 184.828 46.2486C184.828 45.5923 184.957 45.0604 185.216 44.6527C185.474 44.2401 185.82 43.9169 186.252 43.6832C186.685 43.4496 187.162 43.2756 187.684 43.1612C188.211 43.0419 188.74 42.9474 189.272 42.8778C189.968 42.7884 190.533 42.7212 190.965 42.6765C191.403 42.6268 191.721 42.5447 191.92 42.4304C192.124 42.3161 192.225 42.1172 192.225 41.8338V41.7741C192.225 41.0384 192.024 40.4666 191.621 40.0589C191.224 39.6513 190.62 39.4474 189.809 39.4474C188.969 39.4474 188.31 39.6314 187.833 39.9993C187.356 40.3672 187.02 40.7599 186.826 41.1776L185.156 40.581C185.454 39.8849 185.852 39.343 186.349 38.9553C186.851 38.5625 187.398 38.2891 187.99 38.1349C188.586 37.9759 189.173 37.8963 189.75 37.8963C190.118 37.8963 190.54 37.9411 191.017 38.0305C191.5 38.1151 191.964 38.2915 192.412 38.56C192.864 38.8285 193.24 39.2337 193.538 39.7756C193.836 40.3175 193.985 41.0433 193.985 41.9531V49.5H192.225V47.9489H192.136C192.017 48.1974 191.818 48.4634 191.539 48.7468C191.261 49.0302 190.891 49.2713 190.428 49.4702C189.966 49.669 189.402 49.7685 188.735 49.7685ZM189.004 48.1875C189.7 48.1875 190.287 48.0508 190.764 47.7773C191.246 47.5039 191.609 47.1509 191.853 46.7184C192.101 46.2859 192.225 45.831 192.225 45.3537V43.7429C192.151 43.8324 191.987 43.9144 191.733 43.989C191.485 44.0586 191.196 44.1207 190.868 44.1754C190.545 44.2251 190.229 44.2699 189.921 44.3097C189.618 44.3445 189.372 44.3743 189.183 44.3991C188.725 44.4588 188.298 44.5558 187.9 44.69C187.507 44.8192 187.189 45.0156 186.946 45.2791C186.707 45.5376 186.588 45.8906 186.588 46.3381C186.588 46.9496 186.814 47.4119 187.266 47.7251C187.724 48.0334 188.303 48.1875 189.004 48.1875ZM187.572 36.6733L186.2 36.6136C186.2 35.853 186.416 35.2315 186.849 34.7493C187.286 34.2621 187.826 34.0185 188.467 34.0185C188.75 34.0185 189.001 34.0682 189.22 34.1676C189.439 34.2621 189.648 34.3714 189.847 34.4957C190.045 34.62 190.249 34.7319 190.458 34.8313C190.672 34.9258 190.913 34.973 191.181 34.973C191.465 34.973 191.703 34.8636 191.897 34.6449C192.096 34.4212 192.196 34.1527 192.196 33.8395L193.538 33.9588C193.538 34.7344 193.319 35.3509 192.882 35.8082C192.449 36.2656 191.912 36.4943 191.271 36.4943C190.928 36.4943 190.645 36.4471 190.421 36.3526C190.197 36.2532 189.998 36.1413 189.824 36.017C189.65 35.8928 189.466 35.7834 189.272 35.6889C189.078 35.5895 188.84 35.5398 188.556 35.5398C188.273 35.5398 188.037 35.6516 187.848 35.8754C187.664 36.0941 187.572 36.3601 187.572 36.6733ZM201.851 49.7386C200.817 49.7386 199.91 49.4925 199.129 49.0004C198.354 48.5082 197.747 47.8196 197.31 46.9347C196.877 46.0497 196.661 45.0156 196.661 43.8324C196.661 42.6392 196.877 41.5977 197.31 40.7077C197.747 39.8178 198.354 39.1268 199.129 38.6346C199.91 38.1424 200.817 37.8963 201.851 37.8963C202.885 37.8963 203.79 38.1424 204.566 38.6346C205.346 39.1268 205.953 39.8178 206.385 40.7077C206.823 41.5977 207.041 42.6392 207.041 43.8324C207.041 45.0156 206.823 46.0497 206.385 46.9347C205.953 47.8196 205.346 48.5082 204.566 49.0004C203.79 49.4925 202.885 49.7386 201.851 49.7386ZM201.851 48.1577C202.637 48.1577 203.283 47.9563 203.79 47.5536C204.297 47.1509 204.672 46.6214 204.916 45.9652C205.16 45.3089 205.282 44.598 205.282 43.8324C205.282 43.0668 205.16 42.3533 204.916 41.6921C204.672 41.0309 204.297 40.4964 203.79 40.0888C203.283 39.6811 202.637 39.4773 201.851 39.4773C201.066 39.4773 200.419 39.6811 199.912 40.0888C199.405 40.4964 199.03 41.0309 198.786 41.6921C198.543 42.3533 198.421 43.0668 198.421 43.8324C198.421 44.598 198.543 45.3089 198.786 45.9652C199.03 46.6214 199.405 47.1509 199.912 47.5536C200.419 47.9563 201.066 48.1577 201.851 48.1577ZM221.033 33.5114L216.112 51.7969H214.501L219.423 33.5114H221.033ZM229.264 49.5V34.2273H234.425C235.623 34.2273 236.603 34.4435 237.363 34.8761C238.129 35.3036 238.696 35.8828 239.063 36.6136C239.431 37.3445 239.615 38.1598 239.615 39.0597C239.615 39.9595 239.431 40.7773 239.063 41.5131C238.701 42.2489 238.139 42.8356 237.378 43.2731C236.617 43.7056 235.643 43.9219 234.455 43.9219H230.756V42.2812H234.395C235.215 42.2812 235.874 42.1396 236.371 41.8562C236.869 41.5728 237.229 41.19 237.453 40.7077C237.681 40.2205 237.796 39.6712 237.796 39.0597C237.796 38.4482 237.681 37.9013 237.453 37.419C237.229 36.9368 236.866 36.5589 236.364 36.2855C235.862 36.0071 235.196 35.8679 234.365 35.8679H231.114V49.5H229.264ZM242.356 49.5V38.0455H244.056V39.7756H244.176C244.384 39.2088 244.762 38.7489 245.309 38.396C245.856 38.043 246.472 37.8665 247.158 37.8665C247.288 37.8665 247.449 37.869 247.643 37.8739C247.837 37.8789 247.984 37.8864 248.083 37.8963V39.6861C248.024 39.6712 247.887 39.6488 247.673 39.619C247.464 39.5842 247.243 39.5668 247.009 39.5668C246.453 39.5668 245.955 39.6836 245.518 39.9173C245.085 40.146 244.742 40.4641 244.489 40.8718C244.24 41.2745 244.116 41.7344 244.116 42.2514V49.5H242.356ZM254.474 49.7386C253.44 49.7386 252.533 49.4925 251.752 49.0004C250.977 48.5082 250.37 47.8196 249.933 46.9347C249.5 46.0497 249.284 45.0156 249.284 43.8324C249.284 42.6392 249.5 41.5977 249.933 40.7077C250.37 39.8178 250.977 39.1268 251.752 38.6346C252.533 38.1424 253.44 37.8963 254.474 37.8963C255.508 37.8963 256.413 38.1424 257.189 38.6346C257.969 39.1268 258.576 39.8178 259.008 40.7077C259.446 41.5977 259.665 42.6392 259.665 43.8324C259.665 45.0156 259.446 46.0497 259.008 46.9347C258.576 47.8196 257.969 48.5082 257.189 49.0004C256.413 49.4925 255.508 49.7386 254.474 49.7386ZM254.474 48.1577C255.26 48.1577 255.906 47.9563 256.413 47.5536C256.92 47.1509 257.296 46.6214 257.539 45.9652C257.783 45.3089 257.905 44.598 257.905 43.8324C257.905 43.0668 257.783 42.3533 257.539 41.6921C257.296 41.0309 256.92 40.4964 256.413 40.0888C255.906 39.6811 255.26 39.4773 254.474 39.4773C253.689 39.4773 253.042 39.6811 252.535 40.0888C252.028 40.4964 251.653 41.0309 251.409 41.6921C251.166 42.3533 251.044 43.0668 251.044 43.8324C251.044 44.598 251.166 45.3089 251.409 45.9652C251.653 46.6214 252.028 47.1509 252.535 47.5536C253.042 47.9563 253.689 48.1577 254.474 48.1577ZM266.676 49.7386C265.722 49.7386 264.879 49.4975 264.148 49.0153C263.417 48.5281 262.846 47.842 262.433 46.957C262.02 46.0671 261.814 45.0156 261.814 43.8026C261.814 42.5994 262.02 41.5554 262.433 40.6705C262.846 39.7855 263.42 39.1019 264.156 38.6197C264.892 38.1374 265.742 37.8963 266.706 37.8963C267.452 37.8963 268.041 38.0206 268.474 38.2692C268.911 38.5128 269.244 38.7912 269.473 39.1044C269.706 39.4126 269.888 39.6662 270.017 39.8651H270.166V34.2273H271.926V49.5H270.226V47.7401H270.017C269.888 47.9489 269.704 48.2124 269.465 48.5305C269.227 48.8437 268.886 49.1246 268.444 49.3732C268.001 49.6168 267.412 49.7386 266.676 49.7386ZM266.915 48.1577C267.621 48.1577 268.218 47.9737 268.705 47.6058C269.192 47.233 269.562 46.7184 269.816 46.0621C270.069 45.4009 270.196 44.6378 270.196 43.7727C270.196 42.9176 270.072 42.1694 269.823 41.5281C269.575 40.8817 269.207 40.3796 268.72 40.0217C268.232 39.6587 267.631 39.4773 266.915 39.4773C266.169 39.4773 265.548 39.6687 265.051 40.0515C264.558 40.4293 264.188 40.9439 263.939 41.5952C263.696 42.2415 263.574 42.9673 263.574 43.7727C263.574 44.5881 263.698 45.3288 263.947 45.995C264.2 46.6562 264.573 47.1832 265.066 47.576C265.563 47.9638 266.179 48.1577 266.915 48.1577ZM282.613 44.8168V38.0455H284.373V49.5H282.613V47.5611H282.493C282.225 48.1428 281.807 48.6374 281.241 49.0451C280.674 49.4478 279.958 49.6491 279.093 49.6491C278.377 49.6491 277.741 49.4925 277.184 49.1793C276.627 48.8612 276.189 48.3839 275.871 47.7475C275.553 47.1062 275.394 46.2983 275.394 45.3239V38.0455H277.154V45.2045C277.154 46.0398 277.388 46.706 277.855 47.2031C278.327 47.7003 278.929 47.9489 279.66 47.9489C280.097 47.9489 280.542 47.837 280.994 47.6133C281.452 47.3896 281.835 47.0465 282.143 46.5842C282.456 46.1218 282.613 45.5327 282.613 44.8168ZM292.578 38.0455V39.5369H286.642V38.0455H292.578ZM288.372 35.3011H290.132V46.2188C290.132 46.7159 290.204 47.0888 290.348 47.3374C290.497 47.581 290.686 47.745 290.915 47.8295C291.148 47.9091 291.394 47.9489 291.653 47.9489C291.847 47.9489 292.006 47.9389 292.13 47.919C292.255 47.8942 292.354 47.8743 292.429 47.8594L292.786 49.4403C292.667 49.4851 292.501 49.5298 292.287 49.5746C292.073 49.6243 291.802 49.6491 291.474 49.6491C290.977 49.6491 290.49 49.5423 290.012 49.3285C289.54 49.1147 289.147 48.7891 288.834 48.3516C288.526 47.9141 288.372 47.3622 288.372 46.696V35.3011ZM299.755 49.7386C298.721 49.7386 297.814 49.4925 297.033 49.0004C296.258 48.5082 295.651 47.8196 295.214 46.9347C294.781 46.0497 294.565 45.0156 294.565 43.8324C294.565 42.6392 294.781 41.5977 295.214 40.7077C295.651 39.8178 296.258 39.1268 297.033 38.6346C297.814 38.1424 298.721 37.8963 299.755 37.8963C300.79 37.8963 301.694 38.1424 302.47 38.6346C303.25 39.1268 303.857 39.8178 304.29 40.7077C304.727 41.5977 304.946 42.6392 304.946 43.8324C304.946 45.0156 304.727 46.0497 304.29 46.9347C303.857 47.8196 303.25 48.5082 302.47 49.0004C301.694 49.4925 300.79 49.7386 299.755 49.7386ZM299.755 48.1577C300.541 48.1577 301.187 47.9563 301.694 47.5536C302.201 47.1509 302.577 46.6214 302.82 45.9652C303.064 45.3089 303.186 44.598 303.186 43.8324C303.186 43.0668 303.064 42.3533 302.82 41.6921C302.577 41.0309 302.201 40.4964 301.694 40.0888C301.187 39.6811 300.541 39.4773 299.755 39.4773C298.97 39.4773 298.324 39.6811 297.816 40.0888C297.309 40.4964 296.934 41.0309 296.69 41.6921C296.447 42.3533 296.325 43.0668 296.325 43.8324C296.325 44.598 296.447 45.3089 296.69 45.9652C296.934 46.6214 297.309 47.1509 297.816 47.5536C298.324 47.9563 298.97 48.1577 299.755 48.1577ZM318.49 49.5H313.777V34.2273H318.699C320.181 34.2273 321.448 34.533 322.502 35.1445C323.556 35.7511 324.364 36.6236 324.926 37.7621C325.488 38.8956 325.769 40.2528 325.769 41.8338C325.769 43.4247 325.485 44.7944 324.919 45.9428C324.352 47.0863 323.526 47.9663 322.443 48.5827C321.359 49.1942 320.041 49.5 318.49 49.5ZM315.627 47.8594H318.371C319.634 47.8594 320.68 47.6158 321.51 47.1286C322.341 46.6413 322.96 45.9478 323.367 45.0479C323.775 44.1481 323.979 43.0767 323.979 41.8338C323.979 40.6009 323.778 39.5394 323.375 38.6495C322.972 37.7546 322.371 37.0685 321.57 36.5913C320.77 36.109 319.773 35.8679 318.58 35.8679H315.627V47.8594ZM328.632 49.5V38.0455H330.392V49.5H328.632ZM329.527 36.1364C329.184 36.1364 328.888 36.0195 328.64 35.7859C328.396 35.5522 328.274 35.2713 328.274 34.9432C328.274 34.6151 328.396 34.3342 328.64 34.1005C328.888 33.8668 329.184 33.75 329.527 33.75C329.87 33.75 330.164 33.8668 330.407 34.1005C330.656 34.3342 330.78 34.6151 330.78 34.9432C330.78 35.2713 330.656 35.5522 330.407 35.7859C330.164 36.0195 329.87 36.1364 329.527 36.1364ZM338.239 54.0341C337.389 54.0341 336.658 53.9247 336.047 53.706C335.435 53.4922 334.926 53.2088 334.518 52.8558C334.115 52.5078 333.795 52.1349 333.556 51.7372L334.958 50.7528C335.117 50.9616 335.318 51.2003 335.562 51.4688C335.806 51.7422 336.139 51.9783 336.561 52.1772C336.989 52.381 337.548 52.483 338.239 52.483C339.164 52.483 339.927 52.2592 340.529 51.8118C341.13 51.3643 341.431 50.6634 341.431 49.7088V47.3821H341.282C341.153 47.5909 340.969 47.8494 340.73 48.1577C340.496 48.4609 340.158 48.7319 339.716 48.9705C339.278 49.2042 338.687 49.321 337.941 49.321C337.016 49.321 336.186 49.1023 335.45 48.6648C334.719 48.2273 334.14 47.5909 333.713 46.7557C333.29 45.9205 333.079 44.9062 333.079 43.7131C333.079 42.5398 333.285 41.5181 333.698 40.6481C334.11 39.7731 334.685 39.0969 335.42 38.6197C336.156 38.1374 337.006 37.8963 337.971 37.8963C338.717 37.8963 339.308 38.0206 339.746 38.2692C340.188 38.5128 340.526 38.7912 340.76 39.1044C340.998 39.4126 341.182 39.6662 341.312 39.8651H341.491V38.0455H343.191V49.8281C343.191 50.8125 342.967 51.6129 342.52 52.2294C342.077 52.8509 341.481 53.3058 340.73 53.5941C339.984 53.8874 339.154 54.0341 338.239 54.0341ZM338.18 47.7401C338.886 47.7401 339.482 47.5785 339.969 47.2553C340.457 46.9322 340.827 46.4673 341.081 45.8608C341.334 45.2543 341.461 44.5284 341.461 43.6832C341.461 42.858 341.337 42.1296 341.088 41.4982C340.839 40.8668 340.472 40.3722 339.984 40.0142C339.497 39.6562 338.896 39.4773 338.18 39.4773C337.434 39.4773 336.812 39.6662 336.315 40.044C335.823 40.4219 335.453 40.929 335.204 41.5653C334.96 42.2017 334.839 42.9077 334.839 43.6832C334.839 44.4787 334.963 45.1822 335.212 45.7937C335.465 46.4002 335.838 46.8775 336.33 47.2255C336.827 47.5685 337.444 47.7401 338.18 47.7401ZM346.413 49.5V38.0455H348.172V49.5H346.413ZM347.307 36.1364C346.964 36.1364 346.669 36.0195 346.42 35.7859C346.176 35.5522 346.055 35.2713 346.055 34.9432C346.055 34.6151 346.176 34.3342 346.42 34.1005C346.669 33.8668 346.964 33.75 347.307 33.75C347.65 33.75 347.944 33.8668 348.187 34.1005C348.436 34.3342 348.56 34.6151 348.56 34.9432C348.56 35.2713 348.436 35.5522 348.187 35.7859C347.944 36.0195 347.65 36.1364 347.307 36.1364ZM356.377 38.0455V39.5369H350.441V38.0455H356.377ZM352.172 35.3011H353.931V46.2188C353.931 46.7159 354.004 47.0888 354.148 47.3374C354.297 47.581 354.486 47.745 354.714 47.8295C354.948 47.9091 355.194 47.9489 355.453 47.9489C355.647 47.9489 355.806 47.9389 355.93 47.919C356.054 47.8942 356.154 47.8743 356.228 47.8594L356.586 49.4403C356.467 49.4851 356.3 49.5298 356.087 49.5746C355.873 49.6243 355.602 49.6491 355.274 49.6491C354.777 49.6491 354.289 49.5423 353.812 49.3285C353.34 49.1147 352.947 48.7891 352.634 48.3516C352.326 47.9141 352.172 47.3622 352.172 46.696V35.3011ZM362.396 49.7685C361.67 49.7685 361.011 49.6317 360.419 49.3583C359.828 49.0799 359.358 48.6797 359.01 48.1577C358.662 47.6307 358.488 46.9943 358.488 46.2486C358.488 45.5923 358.617 45.0604 358.876 44.6527C359.134 44.2401 359.48 43.9169 359.912 43.6832C360.345 43.4496 360.822 43.2756 361.344 43.1612C361.871 43.0419 362.401 42.9474 362.933 42.8778C363.629 42.7884 364.193 42.7212 364.625 42.6765C365.063 42.6268 365.381 42.5447 365.58 42.4304C365.784 42.3161 365.886 42.1172 365.886 41.8338V41.7741C365.886 41.0384 365.684 40.4666 365.282 40.0589C364.884 39.6513 364.28 39.4474 363.469 39.4474C362.629 39.4474 361.971 39.6314 361.493 39.9993C361.016 40.3672 360.68 40.7599 360.487 41.1776L358.816 40.581C359.114 39.8849 359.512 39.343 360.009 38.9553C360.511 38.5625 361.058 38.2891 361.65 38.1349C362.246 37.9759 362.833 37.8963 363.41 37.8963C363.778 37.8963 364.2 37.9411 364.678 38.0305C365.16 38.1151 365.625 38.2915 366.072 38.56C366.525 38.8285 366.9 39.2337 367.198 39.7756C367.496 40.3175 367.646 41.0433 367.646 41.9531V49.5H365.886V47.9489H365.796C365.677 48.1974 365.478 48.4634 365.2 48.7468C364.921 49.0302 364.551 49.2713 364.088 49.4702C363.626 49.669 363.062 49.7685 362.396 49.7685ZM362.664 48.1875C363.36 48.1875 363.947 48.0508 364.424 47.7773C364.906 47.5039 365.269 47.1509 365.513 46.7184C365.761 46.2859 365.886 45.831 365.886 45.3537V43.7429C365.811 43.8324 365.647 43.9144 365.393 43.989C365.145 44.0586 364.857 44.1207 364.528 44.1754C364.205 44.2251 363.89 44.2699 363.581 44.3097C363.278 44.3445 363.032 44.3743 362.843 44.3991C362.386 44.4588 361.958 44.5558 361.56 44.69C361.168 44.8192 360.849 45.0156 360.606 45.2791C360.367 45.5376 360.248 45.8906 360.248 46.3381C360.248 46.9496 360.474 47.4119 360.926 47.7251C361.384 48.0334 361.963 48.1875 362.664 48.1875ZM372.618 34.2273V49.5H370.858V34.2273H372.618Z" fill="#788896"/>
<path d="M1147 15H1000V71.5H1147V15Z" stroke="#C3CFD9" stroke-width="2"/>
<path d="M1020.82 36.8409H1022.4L1026.11 45.8963H1026.23L1029.94 36.8409H1031.52V47.75H1030.28V39.4616H1030.17L1026.77 47.75H1025.57L1022.16 39.4616H1022.06V47.75H1020.82V36.8409ZM1036.4 47.9418C1035.88 47.9418 1035.41 47.8441 1034.99 47.6488C1034.57 47.4499 1034.23 47.1641 1033.98 46.7912C1033.74 46.4148 1033.61 45.9602 1033.61 45.4276C1033.61 44.9588 1033.7 44.5788 1033.89 44.2876C1034.07 43.9929 1034.32 43.7621 1034.63 43.5952C1034.94 43.4283 1035.28 43.304 1035.65 43.2223C1036.03 43.1371 1036.41 43.0696 1036.79 43.0199C1037.28 42.956 1037.69 42.908 1038 42.8761C1038.31 42.8406 1038.54 42.782 1038.68 42.7003C1038.82 42.6186 1038.9 42.4766 1038.9 42.2741V42.2315C1038.9 41.706 1038.75 41.2976 1038.46 41.0064C1038.18 40.7152 1037.75 40.5696 1037.17 40.5696C1036.57 40.5696 1036.1 40.701 1035.76 40.9638C1035.42 41.2266 1035.18 41.5071 1035.04 41.8054L1033.85 41.3793C1034.06 40.8821 1034.34 40.495 1034.7 40.218C1035.06 39.9375 1035.45 39.7422 1035.87 39.6321C1036.3 39.5185 1036.72 39.4616 1037.13 39.4616C1037.39 39.4616 1037.69 39.4936 1038.03 39.5575C1038.38 39.6179 1038.71 39.744 1039.03 39.9357C1039.35 40.1275 1039.62 40.4169 1039.83 40.804C1040.05 41.1911 1040.15 41.7095 1040.15 42.3594V47.75H1038.9V46.642H1038.83C1038.75 46.8196 1038.6 47.0096 1038.41 47.212C1038.21 47.4144 1037.94 47.5866 1037.61 47.7287C1037.28 47.8707 1036.88 47.9418 1036.4 47.9418ZM1036.59 46.8125C1037.09 46.8125 1037.51 46.7148 1037.85 46.5195C1038.2 46.3242 1038.46 46.0721 1038.63 45.7631C1038.81 45.4542 1038.9 45.1293 1038.9 44.7884V43.6378C1038.84 43.7017 1038.73 43.7603 1038.54 43.8136C1038.37 43.8633 1038.16 43.9077 1037.93 43.9467C1037.7 43.9822 1037.47 44.0142 1037.25 44.0426C1037.03 44.0675 1036.86 44.0888 1036.72 44.1065C1036.4 44.1491 1036.09 44.2184 1035.81 44.3143C1035.53 44.4066 1035.3 44.5469 1035.12 44.7351C1034.95 44.9197 1034.87 45.1719 1034.87 45.4915C1034.87 45.9283 1035.03 46.2585 1035.35 46.4822C1035.68 46.7024 1036.09 46.8125 1036.59 46.8125ZM1042.45 47.75V39.5682H1043.66V40.804H1043.75C1043.9 40.3991 1044.17 40.0707 1044.56 39.8185C1044.95 39.5664 1045.39 39.4403 1045.88 39.4403C1045.97 39.4403 1046.09 39.4421 1046.22 39.4457C1046.36 39.4492 1046.47 39.4545 1046.54 39.4616V40.7401C1046.5 40.7294 1046.4 40.7134 1046.25 40.6921C1046.1 40.6673 1045.94 40.6548 1045.77 40.6548C1045.37 40.6548 1045.02 40.7383 1044.71 40.9052C1044.4 41.0685 1044.15 41.2958 1043.97 41.587C1043.79 41.8746 1043.7 42.2031 1043.7 42.5724V47.75H1042.45ZM1051.1 47.9205C1050.34 47.9205 1049.68 47.7393 1049.12 47.3771C1048.57 47.0149 1048.14 46.516 1047.84 45.8803C1047.55 45.2447 1047.4 44.5185 1047.4 43.7017C1047.4 42.8707 1047.55 42.1374 1047.85 41.5018C1048.16 40.8626 1048.59 40.3636 1049.14 40.005C1049.7 39.6428 1050.34 39.4616 1051.08 39.4616C1051.66 39.4616 1052.18 39.5682 1052.64 39.7812C1053.1 39.9943 1053.48 40.2926 1053.77 40.6761C1054.07 41.0597 1054.25 41.5071 1054.32 42.0185H1053.06C1052.97 41.6456 1052.75 41.3153 1052.42 41.0277C1052.1 40.7365 1051.66 40.5909 1051.1 40.5909C1050.61 40.5909 1050.18 40.7187 1049.81 40.9744C1049.45 41.2266 1049.16 41.5835 1048.96 42.0451C1048.75 42.5032 1048.65 43.0412 1048.65 43.6591C1048.65 44.2912 1048.75 44.8416 1048.95 45.3104C1049.15 45.7791 1049.44 46.1431 1049.8 46.4023C1050.17 46.6616 1050.61 46.7912 1051.1 46.7912C1051.43 46.7912 1051.73 46.7344 1051.99 46.6207C1052.26 46.5071 1052.48 46.3438 1052.67 46.1307C1052.85 45.9176 1052.99 45.6619 1053.06 45.3636H1054.32C1054.25 45.8466 1054.07 46.2816 1053.79 46.6687C1053.52 47.0522 1053.15 47.3576 1052.69 47.5849C1052.24 47.8086 1051.71 47.9205 1051.1 47.9205ZM1058.57 47.9418C1058.05 47.9418 1057.58 47.8441 1057.15 47.6488C1056.73 47.4499 1056.4 47.1641 1056.15 46.7912C1055.9 46.4148 1055.77 45.9602 1055.77 45.4276C1055.77 44.9588 1055.87 44.5788 1056.05 44.2876C1056.24 43.9929 1056.48 43.7621 1056.79 43.5952C1057.1 43.4283 1057.44 43.304 1057.81 43.2223C1058.19 43.1371 1058.57 43.0696 1058.95 43.0199C1059.45 42.956 1059.85 42.908 1060.16 42.8761C1060.47 42.8406 1060.7 42.782 1060.84 42.7003C1060.99 42.6186 1061.06 42.4766 1061.06 42.2741V42.2315C1061.06 41.706 1060.92 41.2976 1060.63 41.0064C1060.34 40.7152 1059.91 40.5696 1059.33 40.5696C1058.73 40.5696 1058.26 40.701 1057.92 40.9638C1057.58 41.2266 1057.34 41.5071 1057.2 41.8054L1056.01 41.3793C1056.22 40.8821 1056.51 40.495 1056.86 40.218C1057.22 39.9375 1057.61 39.7422 1058.03 39.6321C1058.46 39.5185 1058.88 39.4616 1059.29 39.4616C1059.55 39.4616 1059.86 39.4936 1060.2 39.5575C1060.54 39.6179 1060.87 39.744 1061.19 39.9357C1061.52 40.1275 1061.78 40.4169 1062 40.804C1062.21 41.1911 1062.32 41.7095 1062.32 42.3594V47.75H1061.06V46.642H1061C1060.91 46.8196 1060.77 47.0096 1060.57 47.212C1060.37 47.4144 1060.11 47.5866 1059.78 47.7287C1059.44 47.8707 1059.04 47.9418 1058.57 47.9418ZM1058.76 46.8125C1059.25 46.8125 1059.67 46.7148 1060.01 46.5195C1060.36 46.3242 1060.62 46.0721 1060.79 45.7631C1060.97 45.4542 1061.06 45.1293 1061.06 44.7884V43.6378C1061.01 43.7017 1060.89 43.7603 1060.71 43.8136C1060.53 43.8633 1060.32 43.9077 1060.09 43.9467C1059.86 43.9822 1059.63 44.0142 1059.41 44.0426C1059.2 44.0675 1059.02 44.0888 1058.89 44.1065C1058.56 44.1491 1058.25 44.2184 1057.97 44.3143C1057.69 44.4066 1057.46 44.5469 1057.29 44.7351C1057.12 44.9197 1057.03 45.1719 1057.03 45.4915C1057.03 45.9283 1057.19 46.2585 1057.52 46.4822C1057.84 46.7024 1058.26 46.8125 1058.76 46.8125ZM1069 47.75V36.8409H1072.69C1073.54 36.8409 1074.24 36.9954 1074.78 37.3043C1075.33 37.6097 1075.74 38.0234 1076 38.5455C1076.26 39.0675 1076.39 39.6499 1076.39 40.2926C1076.39 40.9354 1076.26 41.5195 1076 42.0451C1075.74 42.5707 1075.34 42.9897 1074.8 43.3022C1074.25 43.6112 1073.56 43.7656 1072.71 43.7656H1070.07V42.5938H1072.66C1073.25 42.5938 1073.72 42.4925 1074.08 42.2901C1074.43 42.0877 1074.69 41.8143 1074.85 41.4698C1075.01 41.1218 1075.09 40.7294 1075.09 40.2926C1075.09 39.8558 1075.01 39.4652 1074.85 39.1207C1074.69 38.7763 1074.43 38.5064 1074.07 38.3111C1073.71 38.1122 1073.24 38.0128 1072.64 38.0128H1070.32V47.75H1069ZM1081.69 47.9205C1080.9 47.9205 1080.22 47.7464 1079.65 47.3984C1079.08 47.0469 1078.65 46.5568 1078.34 45.9283C1078.03 45.2962 1077.88 44.5611 1077.88 43.723C1077.88 42.8849 1078.03 42.1463 1078.34 41.5071C1078.65 40.8643 1079.08 40.3636 1079.63 40.005C1080.18 39.6428 1080.83 39.4616 1081.57 39.4616C1081.99 39.4616 1082.41 39.5327 1082.83 39.6747C1083.24 39.8168 1083.62 40.0476 1083.96 40.3672C1084.3 40.6832 1084.58 41.1023 1084.78 41.6243C1084.98 42.1463 1085.08 42.7891 1085.08 43.5526V44.0852H1078.77V42.9986H1083.8C1083.8 42.5369 1083.71 42.125 1083.53 41.7628C1083.34 41.4006 1083.09 41.1147 1082.75 40.9052C1082.41 40.6957 1082.02 40.5909 1081.57 40.5909C1081.06 40.5909 1080.63 40.7152 1080.27 40.9638C1079.9 41.2088 1079.62 41.5284 1079.43 41.9226C1079.23 42.3168 1079.14 42.7393 1079.14 43.1903V43.9148C1079.14 44.5327 1079.24 45.0565 1079.46 45.4862C1079.67 45.9123 1079.97 46.2372 1080.36 46.4609C1080.74 46.6811 1081.19 46.7912 1081.69 46.7912C1082.02 46.7912 1082.32 46.745 1082.59 46.6527C1082.86 46.5568 1083.09 46.4148 1083.29 46.2266C1083.48 46.0348 1083.63 45.7969 1083.74 45.5128L1084.95 45.8537C1084.83 46.2656 1084.61 46.6278 1084.31 46.9403C1084.01 47.2493 1083.63 47.4908 1083.19 47.6648C1082.75 47.8352 1082.25 47.9205 1081.69 47.9205ZM1090.55 39.5682V40.6335H1086.31V39.5682H1090.55ZM1087.55 37.608H1088.8V45.4062C1088.8 45.7614 1088.86 46.0277 1088.96 46.2053C1089.07 46.3793 1089.2 46.4964 1089.36 46.5568C1089.53 46.6136 1089.71 46.642 1089.89 46.642C1090.03 46.642 1090.14 46.6349 1090.23 46.6207C1090.32 46.603 1090.39 46.5888 1090.45 46.5781L1090.7 47.7074C1090.62 47.7393 1090.5 47.7713 1090.34 47.8033C1090.19 47.8388 1090 47.8565 1089.76 47.8565C1089.41 47.8565 1089.06 47.7802 1088.72 47.6275C1088.38 47.4748 1088.1 47.2422 1087.88 46.9297C1087.66 46.6172 1087.55 46.223 1087.55 45.7472V37.608ZM1092.44 47.75V39.5682H1093.66V40.804H1093.74C1093.89 40.3991 1094.16 40.0707 1094.55 39.8185C1094.94 39.5664 1095.38 39.4403 1095.87 39.4403C1095.97 39.4403 1096.08 39.4421 1096.22 39.4457C1096.36 39.4492 1096.46 39.4545 1096.53 39.4616V40.7401C1096.49 40.7294 1096.39 40.7134 1096.24 40.6921C1096.09 40.6673 1095.93 40.6548 1095.77 40.6548C1095.37 40.6548 1095.01 40.7383 1094.7 40.9052C1094.39 41.0685 1094.15 41.2958 1093.97 41.587C1093.79 41.8746 1093.7 42.2031 1093.7 42.5724V47.75H1092.44ZM1101.1 47.9205C1100.36 47.9205 1099.71 47.7447 1099.15 47.3931C1098.6 47.0415 1098.17 46.5497 1097.85 45.9176C1097.55 45.2855 1097.39 44.5469 1097.39 43.7017C1097.39 42.8494 1097.55 42.1055 1097.85 41.4698C1098.17 40.8342 1098.6 40.3406 1099.15 39.989C1099.71 39.6374 1100.36 39.4616 1101.1 39.4616C1101.84 39.4616 1102.48 39.6374 1103.04 39.989C1103.59 40.3406 1104.03 40.8342 1104.34 41.4698C1104.65 42.1055 1104.81 42.8494 1104.81 43.7017C1104.81 44.5469 1104.65 45.2855 1104.34 45.9176C1104.03 46.5497 1103.59 47.0415 1103.04 47.3931C1102.48 47.7447 1101.84 47.9205 1101.1 47.9205ZM1101.1 46.7912C1101.66 46.7912 1102.12 46.6474 1102.48 46.3597C1102.85 46.0721 1103.11 45.6939 1103.29 45.2251C1103.46 44.7564 1103.55 44.2486 1103.55 43.7017C1103.55 43.1548 1103.46 42.6452 1103.29 42.1729C1103.11 41.7006 1102.85 41.3189 1102.48 41.0277C1102.12 40.7365 1101.66 40.5909 1101.1 40.5909C1100.54 40.5909 1100.08 40.7365 1099.71 41.0277C1099.35 41.3189 1099.08 41.7006 1098.91 42.1729C1098.74 42.6452 1098.65 43.1548 1098.65 43.7017C1098.65 44.2486 1098.74 44.7564 1098.91 45.2251C1099.08 45.6939 1099.35 46.0721 1099.71 46.3597C1100.08 46.6474 1100.54 46.7912 1101.1 46.7912ZM1106.9 47.75V36.8409H1108.15V40.8679H1108.26C1108.35 40.7259 1108.48 40.5447 1108.64 40.3246C1108.81 40.1009 1109.05 39.902 1109.36 39.728C1109.67 39.5504 1110.09 39.4616 1110.62 39.4616C1111.31 39.4616 1111.92 39.6339 1112.45 39.9783C1112.97 40.3228 1113.38 40.8111 1113.68 41.4432C1113.97 42.0753 1114.12 42.821 1114.12 43.6804C1114.12 44.5469 1113.97 45.2979 1113.68 45.9336C1113.38 46.5657 1112.97 47.0558 1112.45 47.4038C1111.93 47.7482 1111.33 47.9205 1110.65 47.9205C1110.12 47.9205 1109.7 47.8335 1109.38 47.6594C1109.07 47.4819 1108.82 47.2812 1108.65 47.0575C1108.48 46.8303 1108.35 46.642 1108.26 46.4929H1108.11V47.75H1106.9ZM1108.13 43.6591C1108.13 44.277 1108.22 44.8221 1108.4 45.2944C1108.58 45.7631 1108.85 46.1307 1109.2 46.397C1109.54 46.6598 1109.97 46.7912 1110.47 46.7912C1111 46.7912 1111.44 46.6527 1111.79 46.3757C1112.15 46.0952 1112.41 45.7187 1112.59 45.2464C1112.77 44.7706 1112.86 44.2415 1112.86 43.6591C1112.86 43.0838 1112.77 42.5653 1112.59 42.1037C1112.42 41.6385 1112.16 41.271 1111.8 41.0011C1111.45 40.7276 1111.01 40.5909 1110.47 40.5909C1109.96 40.5909 1109.53 40.7205 1109.19 40.9798C1108.84 41.2354 1108.57 41.5941 1108.4 42.0558C1108.22 42.5138 1108.13 43.0483 1108.13 43.6591ZM1116.04 47.75V39.5682H1117.26V40.804H1117.34C1117.49 40.3991 1117.76 40.0707 1118.15 39.8185C1118.54 39.5664 1118.98 39.4403 1119.47 39.4403C1119.56 39.4403 1119.68 39.4421 1119.82 39.4457C1119.96 39.4492 1120.06 39.4545 1120.13 39.4616V40.7401C1120.09 40.7294 1119.99 40.7134 1119.84 40.6921C1119.69 40.6673 1119.53 40.6548 1119.37 40.6548C1118.97 40.6548 1118.61 40.7383 1118.3 40.9052C1117.99 41.0685 1117.75 41.2958 1117.56 41.587C1117.39 41.8746 1117.3 42.2031 1117.3 42.5724V47.75H1116.04ZM1124.03 47.9418C1123.51 47.9418 1123.04 47.8441 1122.62 47.6488C1122.2 47.4499 1121.86 47.1641 1121.61 46.7912C1121.36 46.4148 1121.24 45.9602 1121.24 45.4276C1121.24 44.9588 1121.33 44.5788 1121.52 44.2876C1121.7 43.9929 1121.95 43.7621 1122.26 43.5952C1122.57 43.4283 1122.91 43.304 1123.28 43.2223C1123.66 43.1371 1124.03 43.0696 1124.41 43.0199C1124.91 42.956 1125.31 42.908 1125.62 42.8761C1125.94 42.8406 1126.16 42.782 1126.3 42.7003C1126.45 42.6186 1126.52 42.4766 1126.52 42.2741V42.2315C1126.52 41.706 1126.38 41.2976 1126.09 41.0064C1125.81 40.7152 1125.38 40.5696 1124.8 40.5696C1124.2 40.5696 1123.73 40.701 1123.39 40.9638C1123.04 41.2266 1122.8 41.5071 1122.67 41.8054L1121.47 41.3793C1121.69 40.8821 1121.97 40.495 1122.33 40.218C1122.68 39.9375 1123.07 39.7422 1123.5 39.6321C1123.92 39.5185 1124.34 39.4616 1124.75 39.4616C1125.02 39.4616 1125.32 39.4936 1125.66 39.5575C1126 39.6179 1126.34 39.744 1126.66 39.9357C1126.98 40.1275 1127.25 40.4169 1127.46 40.804C1127.67 41.1911 1127.78 41.7095 1127.78 42.3594V47.75H1126.52V46.642H1126.46C1126.37 46.8196 1126.23 47.0096 1126.03 47.212C1125.83 47.4144 1125.57 47.5866 1125.24 47.7287C1124.91 47.8707 1124.51 47.9418 1124.03 47.9418ZM1124.22 46.8125C1124.72 46.8125 1125.14 46.7148 1125.48 46.5195C1125.82 46.3242 1126.08 46.0721 1126.26 45.7631C1126.43 45.4542 1126.52 45.1293 1126.52 44.7884V43.6378C1126.47 43.7017 1126.35 43.7603 1126.17 43.8136C1125.99 43.8633 1125.79 43.9077 1125.55 43.9467C1125.32 43.9822 1125.1 44.0142 1124.88 44.0426C1124.66 44.0675 1124.48 44.0888 1124.35 44.1065C1124.02 44.1491 1123.72 44.2184 1123.43 44.3143C1123.15 44.4066 1122.93 44.5469 1122.75 44.7351C1122.58 44.9197 1122.5 45.1719 1122.5 45.4915C1122.5 45.9283 1122.66 46.2585 1122.98 46.4822C1123.31 46.7024 1123.72 46.8125 1124.22 46.8125ZM1135.87 41.4006L1134.74 41.7202C1134.67 41.532 1134.56 41.3491 1134.43 41.1715C1134.29 40.9904 1134.11 40.8413 1133.87 40.7241C1133.64 40.6069 1133.34 40.5483 1132.97 40.5483C1132.47 40.5483 1132.05 40.6637 1131.72 40.8945C1131.39 41.1218 1131.22 41.4112 1131.22 41.7628C1131.22 42.0753 1131.34 42.3221 1131.57 42.5032C1131.79 42.6843 1132.15 42.8352 1132.63 42.956L1133.85 43.2543C1134.58 43.4318 1135.12 43.7035 1135.48 44.0692C1135.84 44.4315 1136.02 44.8984 1136.02 45.4702C1136.02 45.9389 1135.88 46.358 1135.61 46.7273C1135.35 47.0966 1134.97 47.3878 1134.5 47.6009C1134.02 47.8139 1133.46 47.9205 1132.82 47.9205C1131.99 47.9205 1131.3 47.7393 1130.75 47.3771C1130.2 47.0149 1129.86 46.4858 1129.71 45.7898L1130.91 45.4915C1131.02 45.9318 1131.23 46.2621 1131.55 46.4822C1131.87 46.7024 1132.29 46.8125 1132.8 46.8125C1133.39 46.8125 1133.85 46.6882 1134.2 46.4396C1134.55 46.1875 1134.72 45.8857 1134.72 45.5341C1134.72 45.25 1134.62 45.0121 1134.42 44.8203C1134.22 44.625 1133.92 44.4794 1133.5 44.3835L1132.14 44.0639C1131.39 43.8864 1130.84 43.6112 1130.49 43.2383C1130.14 42.8619 1129.97 42.3913 1129.97 41.8267C1129.97 41.3651 1130.1 40.9567 1130.36 40.6016C1130.62 40.2464 1130.98 39.9677 1131.43 39.7653C1131.88 39.5629 1132.4 39.4616 1132.97 39.4616C1133.78 39.4616 1134.42 39.6392 1134.88 39.9943C1135.34 40.3494 1135.67 40.8182 1135.87 41.4006Z" fill="#788896"/>
<path d="M1162 88H0V246H1162V88Z" fill="#F2F5F7" stroke="#C3CFD9" stroke-width="2"/>
</g>
<defs>
<clipPath id="clip0_1_454">
<rect width="1162" height="246" fill="white"/>
</clipPath>
<clipPath id="clip1_1_454">
<rect width="26" height="26" fill="white" transform="translate(822.5 30.9165)"/>
</clipPath>
<clipPath id="clip2_1_454">
<rect width="27.5294" height="27.5294" fill="white" transform="translate(859.99 30.2207)"/>
</clipPath>
<clipPath id="clip3_1_454">
<rect width="26" height="26" fill="white" transform="translate(899.01 30.9165)"/>
</clipPath>
<clipPath id="clip4_1_454">
<rect width="26" height="26" fill="white" transform="translate(936.5 30.9165)"/>
</clipPath>
</defs>
</svg>
