<svg xmlns="http://www.w3.org/2000/svg" xmlns:xlink="http://www.w3.org/1999/xlink" version="1.1" viewBox="-540 888 2555 1212" width="2555px" height="1212px"><defs><style>@font-face{
    font-family:"DIN Next";
    font-weight: 400;
    src:url("https://whimsical.com/fonts/139e8e25-0eea-4cb4-a5d4-79048803e73d.eot?#iefix");
    src:url("https://whimsical.com/fonts/139e8e25-0eea-4cb4-a5d4-79048803e73d.eot?#iefix") format("eot"),url("https://whimsical.com/fonts/094b15e3-94bd-435b-a595-d40edfde661a.woff2") format("woff2"),url("https://whimsical.com/fonts/7e5fbe11-4858-4bd1-9ec6-a1d9f9d227aa.woff") format("woff"),url("https://whimsical.com/fonts/0f11eff9-9f05-46f5-9703-027c510065d7.ttf") format("truetype"),url("https://whimsical.com/fonts/48b61978-3f30-4274-823c-5cdcd1876918.svg#48b61978-3f30-4274-823c-5cdcd1876918") format("svg");
}
@font-face{
    font-family:"DIN Next";
    font-weight: 400;
    font-style: italic;
    src:url("https://whimsical.com/fonts/df24d5e8-5087-42fd-99b1-b16042d666c8.eot?#iefix");
    src:url("https://whimsical.com/fonts/df24d5e8-5087-42fd-99b1-b16042d666c8.eot?#iefix") format("eot"),url("https://whimsical.com/fonts/46251881-ffe9-4bfb-99c7-d6ce3bebaf3e.woff2") format("woff2"),url("https://whimsical.com/fonts/790ebbf2-62c5-4a32-946f-99d405f9243e.woff") format("woff"),url("https://whimsical.com/fonts/d28199e6-0f4a-42df-97f4-606701c6f75a.ttf") format("truetype"),url("https://whimsical.com/fonts/37a462c0-d86e-492c-b9ab-35e6bd417f6c.svg#37a462c0-d86e-492c-b9ab-35e6bd417f6c") format("svg");
}
@font-face{
    font-weight: 500;
    font-family:"DIN Next";
    src:url("https://whimsical.com/fonts/c5b058fc-55ce-4e06-a175-5c7d9a7e90f4.eot?#iefix");
    src:url("https://whimsical.com/fonts/c5b058fc-55ce-4e06-a175-5c7d9a7e90f4.eot?#iefix") format("eot"),url("https://whimsical.com/fonts/7b29ae40-30ff-4f99-a2b9-cde88669fa2f.woff2") format("woff2"),url("https://whimsical.com/fonts/bf73077c-e354-4562-a085-f4703eb1d653.woff") format("woff"),url("https://whimsical.com/fonts/0ffa6947-5317-4d07-b525-14d08a028821.ttf") format("truetype"),url("https://whimsical.com/fonts/9e423e45-5450-4991-a157-dbe6cf61eb4e.svg#9e423e45-5450-4991-a157-dbe6cf61eb4e") format("svg");
}
@font-face{
    font-family:"DIN Next";
    font-weight: 500;
    font-style: italic;
    src:url("https://whimsical.com/fonts/9897c008-fd65-48a4-afc7-36de2fea97b9.eot?#iefix");
    src:url("https://whimsical.com/fonts/9897c008-fd65-48a4-afc7-36de2fea97b9.eot?#iefix") format("eot"),url("https://whimsical.com/fonts/c7717981-647d-4b76-8817-33062e42d11f.woff2") format("woff2"),url("https://whimsical.com/fonts/b852cd4c-1255-40b1-a2be-73a9105b0155.woff") format("woff"),url("https://whimsical.com/fonts/821b00ad-e741-4e2d-af1a-85594367c8a2.ttf") format("truetype"),url("https://whimsical.com/fonts/d3e3b689-a6b0-45f2-b279-f5e194f87409.svg#d3e3b689-a6b0-45f2-b279-f5e194f87409") format("svg");
}
@font-face{
    font-weight: 700;
    font-family:"DIN Next";
    src:url("https://whimsical.com/fonts/81cd3b08-fd39-4ae3-8d05-9d24709eba84.eot?#iefix");
    src:url("https://whimsical.com/fonts/81cd3b08-fd39-4ae3-8d05-9d24709eba84.eot?#iefix") format("eot"),url("https://whimsical.com/fonts/31704504-4671-47a6-a61e-397f07410d91.woff2") format("woff2"),url("https://whimsical.com/fonts/b8a280da-481f-44a0-8d9c-1bc64bd7227c.woff") format("woff"),url("https://whimsical.com/fonts/276d122a-0fab-447b-9fc0-5d7fb0eafce2.ttf") format("truetype"),url("https://whimsical.com/fonts/8fb8273a-8213-4928-808b-b5bfaf3fd7e9.svg#8fb8273a-8213-4928-808b-b5bfaf3fd7e9") format("svg");
}
@font-face{
    font-family:"DIN Next";
    font-weight: 700;
    font-style: italic;
    src:url("https://whimsical.com/fonts/00cc6df3-ed32-4004-8dd8-1c576600a408.eot?#iefix");
    src:url("https://whimsical.com/fonts/00cc6df3-ed32-4004-8dd8-1c576600a408.eot?#iefix") format("eot"),url("https://whimsical.com/fonts/4132c4c8-680c-4d6d-9251-a2da38503bbd.woff2") format("woff2"),url("https://whimsical.com/fonts/366401fe-6df4-47be-8f55-8a411cff0dd2.woff") format("woff"),url("https://whimsical.com/fonts/dbe4f7ba-fc16-44a6-a577-571620e9edaf.ttf") format("truetype"),url("https://whimsical.com/fonts/f874edca-ee87-4ccf-8b1d-921fbc3c1c36.svg#f874edca-ee87-4ccf-8b1d-921fbc3c1c36") format("svg");
}

@font-face {
    font-family: 'PFDINMonoPro';
    src:url('https://whimsical.com/fonts/PFDINMonoPro-Regular.woff') format('woff');
    font-weight: 400;
}
@font-face {
    font-family: 'PFDINMonoPro';
    src:url('https://whimsical.com/fonts/PFDINMonoPro-Italic.woff') format('woff');
    font-style: italic;
    font-weight: 400;
}
@font-face {
    font-family: 'PFDINMonoPro';
    src:url('https://whimsical.com/fonts/PFDINMonoPro-Bold.woff') format('woff');
    font-weight: 700;
}
@font-face {
    font-family: 'PFDINMonoPro';
    src:url('https://whimsical.com/fonts/PFDINMonoPro-BoldItalic.woff') format('woff');
    font-style: italic;
    font-weight: 700;
}
* {-webkit-font-smoothing: auto; -moz-osx-font-smoothing: auto;}@media print { svg { width: 100%; height: 100%; } }</style><g><filter id="white-fill-shadow" y="-50%" height="200%"><feDropShadow dx="0" dy="2" stdDeviation="6" flood-opacity="0.03" flood-color="#000000"></feDropShadow></filter><filter id="light-gray-fill-shadow" y="-50%" height="200%"><feDropShadow dx="0" dy="2" stdDeviation="6" flood-opacity="0.09" flood-color="#000000"></feDropShadow></filter><filter id="yellow-fill-shadow" y="-50%" height="200%"><feDropShadow dx="0" dy="2" stdDeviation="6" flood-opacity="0.12" flood-color="#000000"></feDropShadow></filter><filter id="fill-shadow" y="-50%" height="200%"><feDropShadow dx="0" dy="2" stdDeviation="6" flood-opacity="0.16" flood-color="#000000"></feDropShadow></filter><filter id="frame-shadow" y="-50%" height="200%"><feDropShadow dx="0" dy="3" stdDeviation="8" flood-opacity="0.06" flood-color="#000000"></feDropShadow></filter><filter id="button-shadow" y="-50%" height="200%"><feDropShadow dx="0" dy="2" stdDeviation="6" flood-opacity="0.03" flood-color="#000000"></feDropShadow></filter><filter id="button-hover-shadow" y="-50%" height="200%"><feDropShadow dx="0" dy="2" stdDeviation="6" flood-opacity="0.08" flood-color="#000000"></feDropShadow></filter><filter id="badge-shadow" y="-50%" height="200%"><feDropShadow dx="0" dy="2" stdDeviation="6" flood-opacity="0.08" flood-color="#000000"></feDropShadow></filter></g></defs><g><g><rect width="2555" height="1212" x="-540" y="888" stroke="#C3CFD9" stroke-width="2" fill="#ffffff"></rect></g><g><g><g class="content"><g><g><g><g><g></g><text fill="#293845" hover-props="{}"><tspan x="-469" y="1007.5" font-family="DIN Next, system-ui, sans-serif" font-size="27" font-style="normal" font-weight="normal">Nome da aplicação à esquerda / Marca e navegação à direita</tspan></text></g></g></g></g></g></g><g><g class="content"><g><g><g><g><g></g><text fill="#293845" hover-props="{}"><tspan x="-469" y="1404.5" font-family="DIN Next, system-ui, sans-serif" font-size="27" font-style="normal" font-weight="normal">Nome da aplicação à esquerda / Busca centralizado / Marca e ações globais à direita</tspan></text></g></g></g></g></g></g><g><g><rect width="1162" height="87.99999999999999" x="-469" y="1472" stroke="#C3CFD9" stroke-width="2" fill="rgba(0,0,0,0)"></rect></g><g><g><g><g><g><rect width="147" height="56.5" x="530.5" y="1487.5" stroke="#C3CFD9" stroke-width="2" fill="rgba(0,0,0,0)"></rect><g transform="translate(595 1506) rotate(0 9 9)"><svg id="s5357ad35-df1a-4b88-9963-5199d34bb9f7" width="18" height="18" viewBox="0 0 64 64" data-icon-name="image-02" data-icon-partition="g64-5" data-icon-color="#C3CFD9"><style>#s5357ad35-df1a-4b88-9963-5199d34bb9f7 *[fill=&#x27;#444444&#x27;], #s5357ad35-df1a-4b88-9963-5199d34bb9f7 *[fill=&#x27;#444&#x27;] {fill:#C3CFD9;}#s5357ad35-df1a-4b88-9963-5199d34bb9f7 *[stroke=&#x27;#444444&#x27;], #s5357ad35-df1a-4b88-9963-5199d34bb9f7 *[stroke=&#x27;#444&#x27;] {stroke:#C3CFD9;}</style><g><path d="M54,4H10a6,6,0,0,0-6,6V54a6,6,0,0,0,6,6H54a6,6,0,0,0,6-6V10A6,6,0,0,0,54,4ZM23.5,14A5.5,5.5,0,1,1,18,19.5,5.5,5.5,0,0,1,23.5,14ZM53.877,47.481A1,1,0,0,1,53,48H11a1,1,0,0,1-.852-1.524l8-13a1,1,0,0,1,1.6-.14l7.14,8.031,11.28-16.922A1.022,1.022,0,0,1,39.011,24a1,1,0,0,1,.833.463l14,22A1,1,0,0,1,53.877,47.481Z" fill="#444"></path></g></svg></g></g></g><g><g class="content"><g><g><g><g><g></g><text fill="#C3CFD9" hover-props="{}"><tspan x="558" y="1502.5" font-family="DIN Next, system-ui, sans-serif" font-size="13" font-style="normal" font-weight="normal">Marca Petrobras</tspan></text></g></g></g></g></g></g></g></g></g></g><g><g><g><g><g transform="translate(353.5 1502.9166666666667) rotate(0 13 13)"><svg id="sf6dcd0fd-8903-44cf-9984-ea6e0b1878ed" width="26" height="26" viewBox="0 0 32 32" data-icon-name="calendar-check-62" data-icon-partition="g32-1" data-icon-color="#C3CFD9"><style>#sf6dcd0fd-8903-44cf-9984-ea6e0b1878ed *[fill=&#x27;#444444&#x27;], #sf6dcd0fd-8903-44cf-9984-ea6e0b1878ed *[fill=&#x27;#444&#x27;] {fill:#C3CFD9;}#sf6dcd0fd-8903-44cf-9984-ea6e0b1878ed *[stroke=&#x27;#444444&#x27;], #sf6dcd0fd-8903-44cf-9984-ea6e0b1878ed *[stroke=&#x27;#444&#x27;] {stroke:#C3CFD9;}</style><g><path data-color="color-2" d="M9,1c0-.552-.448-1-1-1s-1,.448-1,1v3h2V1Z" fill="#444"></path><path data-color="color-2" d="M25,1c0-.552-.448-1-1-1s-1,.448-1,1v3h2V1Z" fill="#444"></path><path d="M27,5H5c-2.209,0-4,1.791-4,4V27c0,2.209,1.791,4,4,4H27c2.209,0,4-1.791,4-4V9c0-2.209-1.791-4-4-4Zm2,22c0,1.105-.895,2-2,2H5c-1.105,0-2-.895-2-2V11H29V27Z" fill="#444"></path><path data-color="color-2" d="M14,26c-.256,0-.512-.098-.707-.293l-4-4c-.391-.391-.391-1.023,0-1.414s1.023-.391,1.414,0l3.293,3.293,9.293-9.293c.391-.391,1.023-.391,1.414,0s.391,1.023,0,1.414l-10,10c-.195,.195-.451,.293-.707,.293Z" fill="#444"></path></g></svg></g></g></g><g><g><g transform="translate(390.9901960784314 1502.2205882352941) rotate(0 13.76470588235294 13.76470588235294)"><svg id="sce8ae719-ba67-4155-aa00-4c3c000ad826" width="27.52941176470588" height="27.52941176470588" viewBox="0 0 12 12" data-icon-name="settings-gear" data-icon-partition="g12-0" data-icon-color="#C3CFD9"><style>#sce8ae719-ba67-4155-aa00-4c3c000ad826 *[fill=&#x27;#444444&#x27;], #sce8ae719-ba67-4155-aa00-4c3c000ad826 *[fill=&#x27;#444&#x27;] {fill:#C3CFD9;}#sce8ae719-ba67-4155-aa00-4c3c000ad826 *[stroke=&#x27;#444444&#x27;], #sce8ae719-ba67-4155-aa00-4c3c000ad826 *[stroke=&#x27;#444&#x27;] {stroke:#C3CFD9;}</style><g><path d="M10.109,7.031A4.177,4.177,0,0,0,10.25,6a4.177,4.177,0,0,0-.141-1.031l1.2-.883a.5.5,0,0,0,.136-.653l-.5-.866a.5.5,0,0,0-.634-.208l-1.357.6A4.228,4.228,0,0,0,7.162,1.931L7,.445A.5.5,0,0,0,6.5,0h-1A.5.5,0,0,0,5,.445L4.838,1.931A4.228,4.228,0,0,0,3.045,2.954l-1.357-.6a.5.5,0,0,0-.634.208l-.5.866a.5.5,0,0,0,.136.653l1.2.883A4.177,4.177,0,0,0,1.75,6a4.177,4.177,0,0,0,.141,1.031l-1.2.883a.5.5,0,0,0-.136.653l.5.866a.5.5,0,0,0,.433.25.51.51,0,0,0,.2-.042l1.357-.6a4.228,4.228,0,0,0,1.793,1.023L5,11.555A.5.5,0,0,0,5.5,12h1a.5.5,0,0,0,.5-.445l.165-1.486A4.228,4.228,0,0,0,8.955,9.046l1.357.6a.51.51,0,0,0,.2.042.5.5,0,0,0,.433-.25l.5-.866a.5.5,0,0,0-.136-.653ZM6,8A2,2,0,1,1,8,6,2,2,0,0,1,6,8Z" fill="#444"></path></g></svg></g></g></g><g><g><g transform="translate(430.0098039215686 1502.9166666666667) rotate(0 13 13)"><svg id="s510ed601-419e-43f6-9f0a-f3370da4160b" width="26" height="26" viewBox="0 0 32 32" data-icon-name="bulb-61" data-icon-partition="g32-1" data-icon-color="#C3CFD9"><style>#s510ed601-419e-43f6-9f0a-f3370da4160b *[fill=&#x27;#444444&#x27;], #s510ed601-419e-43f6-9f0a-f3370da4160b *[fill=&#x27;#444&#x27;] {fill:#C3CFD9;}#s510ed601-419e-43f6-9f0a-f3370da4160b *[stroke=&#x27;#444444&#x27;], #s510ed601-419e-43f6-9f0a-f3370da4160b *[stroke=&#x27;#444&#x27;] {stroke:#C3CFD9;}</style><g><path data-color="color-2" fill="#444444" d="M21,32H11c-0.552,0-1-0.448-1-1v-1h12v1C22,31.552,21.552,32,21,32z"></path><path fill="#444444" d="M16,0C9.383,0,4,5.383,4,12c0,4.314,2.284,8.238,6,10.383V28h12v-5.617c3.716-2.145,6-6.068,6-10.383 C28,5.383,22.617,0,16,0z M17,7h-1c-2.757,0-5,2.243-5,5v1H9v-1c0-3.859,3.14-7,7-7h1V7z"></path></g></svg></g></g></g><g><g><g transform="translate(467.5 1502.9166666666667) rotate(0 13 13)"><svg id="s51668611-bd57-4540-baec-0f4475114718" width="26" height="26" viewBox="0 0 32 32" data-icon-name="circle-08" data-icon-partition="g32-2" data-icon-color="#C3CFD9"><style>#s51668611-bd57-4540-baec-0f4475114718 *[fill=&#x27;#444444&#x27;], #s51668611-bd57-4540-baec-0f4475114718 *[fill=&#x27;#444&#x27;] {fill:#C3CFD9;}#s51668611-bd57-4540-baec-0f4475114718 *[stroke=&#x27;#444444&#x27;], #s51668611-bd57-4540-baec-0f4475114718 *[stroke=&#x27;#444&#x27;] {stroke:#C3CFD9;}</style><g><path fill="#444444" d="M16,0C7.178,0,0,7.178,0,16s7.178,16,16,16s16-7.178,16-16S24.822,0,16,0z M10,14c0-3.309,2.691-6,6-6 s6,2.691,6,6v2c0,3.309-2.691,6-6,6s-6-2.691-6-6V14z M16,30c-2.913,0-5.62-0.896-7.863-2.425C9.6,25.996,11.683,25,14,25h4 c2.317,0,4.4,0.996,5.863,2.575C21.62,29.104,18.913,30,16,30z"></path></g></svg></g></g></g></g></g><g><g><rect x="-16.25" y="1497.5" width="221.75" height="36" rx="18" ry="18" fill="rgba(0,0,0,0)"></rect><rect y="1497.5" rx="18" stroke="#C3CFD9" fill="none" stroke-linejoin="round" width="221.75" stroke-linecap="round" stroke-width="2" x="-16.25" ry="18" height="36"></rect></g></g><g><g class="content"><g><g><g><g id="12/ZHUi/-1"><g><g></g><text fill="#788896" hover-props="{}"><tspan x="-453.5" y="1522.25" font-family="DIN Next, system-ui, sans-serif" font-size="18" font-style="normal" font-weight="bold">Nome da Aplicação / Produto Digital</tspan></text></g></g></g></g></g></g></g><g><g><rect width="1162" height="157.99999999999994" x="-469" y="1560" stroke="#C3CFD9" stroke-width="2" fill="#f2f5f7"></rect></g></g><g><g><g><g><rect width="1162" height="87.99999999999999" x="-469" y="1037" stroke="#C3CFD9" stroke-width="2" fill="rgba(0,0,0,0)"></rect></g></g><g><g><g><g><rect width="147" height="56.5" x="530.5" y="1052.5" stroke="#C3CFD9" stroke-width="2" fill="rgba(0,0,0,0)"></rect><g transform="translate(595 1071) rotate(0 9 9)"><svg id="s32eca2e7-dcf7-407c-9369-c8bf7449aa5a" width="18" height="18" viewBox="0 0 64 64" data-icon-name="image-02" data-icon-partition="g64-5" data-icon-color="#C3CFD9"><style>#s32eca2e7-dcf7-407c-9369-c8bf7449aa5a *[fill=&#x27;#444444&#x27;], #s32eca2e7-dcf7-407c-9369-c8bf7449aa5a *[fill=&#x27;#444&#x27;] {fill:#C3CFD9;}#s32eca2e7-dcf7-407c-9369-c8bf7449aa5a *[stroke=&#x27;#444444&#x27;], #s32eca2e7-dcf7-407c-9369-c8bf7449aa5a *[stroke=&#x27;#444&#x27;] {stroke:#C3CFD9;}</style><g><path d="M54,4H10a6,6,0,0,0-6,6V54a6,6,0,0,0,6,6H54a6,6,0,0,0,6-6V10A6,6,0,0,0,54,4ZM23.5,14A5.5,5.5,0,1,1,18,19.5,5.5,5.5,0,0,1,23.5,14ZM53.877,47.481A1,1,0,0,1,53,48H11a1,1,0,0,1-.852-1.524l8-13a1,1,0,0,1,1.6-.14l7.14,8.031,11.28-16.922A1.022,1.022,0,0,1,39.011,24a1,1,0,0,1,.833.463l14,22A1,1,0,0,1,53.877,47.481Z" fill="#444"></path></g></svg></g></g></g><g><g class="content"><g><g><g><g><g></g><text fill="#C3CFD9" hover-props="{}"><tspan x="558" y="1067.5" font-family="DIN Next, system-ui, sans-serif" font-size="13" font-style="normal" font-weight="normal">Marca Petrobras</tspan></text></g></g></g></g></g></g></g></g><g><g class="content"><g><g><g><g id="12/ZHUi/-1"><g><g></g><text fill="#788896" hover-props="{}"><tspan x="-453.5" y="1087.25" font-family="DIN Next, system-ui, sans-serif" font-size="18" font-style="normal" font-weight="bold">Nome da Aplicação / Produto Digital</tspan></text></g></g></g></g></g></g></g><g><g><g><g><rect width="74" height="11" x="114" y="1076" fill="#ced8e0"></rect></g></g><g><g><rect width="74" height="11" x="216" y="1076" fill="#ced8e0"></rect></g></g><g><g><rect width="74" height="11" x="318" y="1076" fill="#ced8e0"></rect></g></g><g><g><rect width="74" height="11" x="420" y="1076" fill="#ced8e0"></rect></g></g></g></g><g><g><rect width="1162" height="157.99999999999994" x="-469" y="1125" stroke="#C3CFD9" stroke-width="2" fill="#f2f5f7"></rect></g></g></g></g><g><g><rect width="1162" height="87.99999999999999" x="810" y="1037" stroke="#C3CFD9" stroke-width="2" fill="rgba(0,0,0,0)"></rect></g><g><g><g><g><g><rect width="147" height="56.5" x="1809.5" y="1052.5" stroke="#C3CFD9" stroke-width="2" fill="rgba(0,0,0,0)"></rect><g transform="translate(1874 1071) rotate(0 9 9)"><svg id="s5eaed234-2dc0-4bd2-af1e-ce0d7a4ff862" width="18" height="18" viewBox="0 0 64 64" data-icon-name="image-02" data-icon-partition="g64-5" data-icon-color="#C3CFD9"><style>#s5eaed234-2dc0-4bd2-af1e-ce0d7a4ff862 *[fill=&#x27;#444444&#x27;], #s5eaed234-2dc0-4bd2-af1e-ce0d7a4ff862 *[fill=&#x27;#444&#x27;] {fill:#C3CFD9;}#s5eaed234-2dc0-4bd2-af1e-ce0d7a4ff862 *[stroke=&#x27;#444444&#x27;], #s5eaed234-2dc0-4bd2-af1e-ce0d7a4ff862 *[stroke=&#x27;#444&#x27;] {stroke:#C3CFD9;}</style><g><path d="M54,4H10a6,6,0,0,0-6,6V54a6,6,0,0,0,6,6H54a6,6,0,0,0,6-6V10A6,6,0,0,0,54,4ZM23.5,14A5.5,5.5,0,1,1,18,19.5,5.5,5.5,0,0,1,23.5,14ZM53.877,47.481A1,1,0,0,1,53,48H11a1,1,0,0,1-.852-1.524l8-13a1,1,0,0,1,1.6-.14l7.14,8.031,11.28-16.922A1.022,1.022,0,0,1,39.011,24a1,1,0,0,1,.833.463l14,22A1,1,0,0,1,53.877,47.481Z" fill="#444"></path></g></svg></g></g></g><g><g class="content"><g><g><g><g><g></g><text fill="#C3CFD9" hover-props="{}"><tspan x="1837" y="1067.5" font-family="DIN Next, system-ui, sans-serif" font-size="13" font-style="normal" font-weight="normal">Marca Petrobras</tspan></text></g></g></g></g></g></g></g></g></g></g><g><g><g><g><g transform="translate(1633.5 1066.9166666666667) rotate(0 13 13)"><svg id="s28c5bbd1-60bd-4044-9ca3-29e388cf4612" width="26" height="26" viewBox="0 0 32 32" data-icon-name="calendar-check-62" data-icon-partition="g32-1" data-icon-color="#C3CFD9"><style>#s28c5bbd1-60bd-4044-9ca3-29e388cf4612 *[fill=&#x27;#444444&#x27;], #s28c5bbd1-60bd-4044-9ca3-29e388cf4612 *[fill=&#x27;#444&#x27;] {fill:#C3CFD9;}#s28c5bbd1-60bd-4044-9ca3-29e388cf4612 *[stroke=&#x27;#444444&#x27;], #s28c5bbd1-60bd-4044-9ca3-29e388cf4612 *[stroke=&#x27;#444&#x27;] {stroke:#C3CFD9;}</style><g><path data-color="color-2" d="M9,1c0-.552-.448-1-1-1s-1,.448-1,1v3h2V1Z" fill="#444"></path><path data-color="color-2" d="M25,1c0-.552-.448-1-1-1s-1,.448-1,1v3h2V1Z" fill="#444"></path><path d="M27,5H5c-2.209,0-4,1.791-4,4V27c0,2.209,1.791,4,4,4H27c2.209,0,4-1.791,4-4V9c0-2.209-1.791-4-4-4Zm2,22c0,1.105-.895,2-2,2H5c-1.105,0-2-.895-2-2V11H29V27Z" fill="#444"></path><path data-color="color-2" d="M14,26c-.256,0-.512-.098-.707-.293l-4-4c-.391-.391-.391-1.023,0-1.414s1.023-.391,1.414,0l3.293,3.293,9.293-9.293c.391-.391,1.023-.391,1.414,0s.391,1.023,0,1.414l-10,10c-.195,.195-.451,.293-.707,.293Z" fill="#444"></path></g></svg></g></g></g><g><g><g transform="translate(1670.9901960784314 1066.2205882352941) rotate(0 13.76470588235294 13.76470588235294)"><svg id="sc03a07c0-a1b9-4dbf-9e0f-8d54df2b621c" width="27.52941176470588" height="27.52941176470588" viewBox="0 0 12 12" data-icon-name="settings-gear" data-icon-partition="g12-0" data-icon-color="#C3CFD9"><style>#sc03a07c0-a1b9-4dbf-9e0f-8d54df2b621c *[fill=&#x27;#444444&#x27;], #sc03a07c0-a1b9-4dbf-9e0f-8d54df2b621c *[fill=&#x27;#444&#x27;] {fill:#C3CFD9;}#sc03a07c0-a1b9-4dbf-9e0f-8d54df2b621c *[stroke=&#x27;#444444&#x27;], #sc03a07c0-a1b9-4dbf-9e0f-8d54df2b621c *[stroke=&#x27;#444&#x27;] {stroke:#C3CFD9;}</style><g><path d="M10.109,7.031A4.177,4.177,0,0,0,10.25,6a4.177,4.177,0,0,0-.141-1.031l1.2-.883a.5.5,0,0,0,.136-.653l-.5-.866a.5.5,0,0,0-.634-.208l-1.357.6A4.228,4.228,0,0,0,7.162,1.931L7,.445A.5.5,0,0,0,6.5,0h-1A.5.5,0,0,0,5,.445L4.838,1.931A4.228,4.228,0,0,0,3.045,2.954l-1.357-.6a.5.5,0,0,0-.634.208l-.5.866a.5.5,0,0,0,.136.653l1.2.883A4.177,4.177,0,0,0,1.75,6a4.177,4.177,0,0,0,.141,1.031l-1.2.883a.5.5,0,0,0-.136.653l.5.866a.5.5,0,0,0,.433.25.51.51,0,0,0,.2-.042l1.357-.6a4.228,4.228,0,0,0,1.793,1.023L5,11.555A.5.5,0,0,0,5.5,12h1a.5.5,0,0,0,.5-.445l.165-1.486A4.228,4.228,0,0,0,8.955,9.046l1.357.6a.51.51,0,0,0,.2.042.5.5,0,0,0,.433-.25l.5-.866a.5.5,0,0,0-.136-.653ZM6,8A2,2,0,1,1,8,6,2,2,0,0,1,6,8Z" fill="#444"></path></g></svg></g></g></g><g><g><g transform="translate(1710.0098039215686 1066.9166666666667) rotate(0 13 13)"><svg id="s129a99af-d928-40b1-8000-fddd9b307add" width="26" height="26" viewBox="0 0 32 32" data-icon-name="bulb-61" data-icon-partition="g32-1" data-icon-color="#C3CFD9"><style>#s129a99af-d928-40b1-8000-fddd9b307add *[fill=&#x27;#444444&#x27;], #s129a99af-d928-40b1-8000-fddd9b307add *[fill=&#x27;#444&#x27;] {fill:#C3CFD9;}#s129a99af-d928-40b1-8000-fddd9b307add *[stroke=&#x27;#444444&#x27;], #s129a99af-d928-40b1-8000-fddd9b307add *[stroke=&#x27;#444&#x27;] {stroke:#C3CFD9;}</style><g><path data-color="color-2" fill="#444444" d="M21,32H11c-0.552,0-1-0.448-1-1v-1h12v1C22,31.552,21.552,32,21,32z"></path><path fill="#444444" d="M16,0C9.383,0,4,5.383,4,12c0,4.314,2.284,8.238,6,10.383V28h12v-5.617c3.716-2.145,6-6.068,6-10.383 C28,5.383,22.617,0,16,0z M17,7h-1c-2.757,0-5,2.243-5,5v1H9v-1c0-3.859,3.14-7,7-7h1V7z"></path></g></svg></g></g></g><g><g><g transform="translate(1747.5 1066.9166666666667) rotate(0 13 13)"><svg id="sac5c33e6-7d5b-4b3e-b7a5-dd36a824c0f2" width="26" height="26" viewBox="0 0 32 32" data-icon-name="circle-08" data-icon-partition="g32-2" data-icon-color="#C3CFD9"><style>#sac5c33e6-7d5b-4b3e-b7a5-dd36a824c0f2 *[fill=&#x27;#444444&#x27;], #sac5c33e6-7d5b-4b3e-b7a5-dd36a824c0f2 *[fill=&#x27;#444&#x27;] {fill:#C3CFD9;}#sac5c33e6-7d5b-4b3e-b7a5-dd36a824c0f2 *[stroke=&#x27;#444444&#x27;], #sac5c33e6-7d5b-4b3e-b7a5-dd36a824c0f2 *[stroke=&#x27;#444&#x27;] {stroke:#C3CFD9;}</style><g><path fill="#444444" d="M16,0C7.178,0,0,7.178,0,16s7.178,16,16,16s16-7.178,16-16S24.822,0,16,0z M10,14c0-3.309,2.691-6,6-6 s6,2.691,6,6v2c0,3.309-2.691,6-6,6s-6-2.691-6-6V14z M16,30c-2.913,0-5.62-0.896-7.863-2.425C9.6,25.996,11.683,25,14,25h4 c2.317,0,4.4,0.996,5.863,2.575C21.62,29.104,18.913,30,16,30z"></path></g></svg></g></g></g></g></g><g><g class="content"><g><g><g><g id="12/ZHUi/-1"><g><g></g><text fill="#788896" hover-props="{}"><tspan x="825.5" y="1087.25" font-family="DIN Next, system-ui, sans-serif" font-size="18" font-style="normal" font-weight="bold">Nome da Aplicação / Produto Digital</tspan></text></g></g></g></g></g></g></g><g><g><rect width="1162" height="157.99999999999994" x="810" y="1125" stroke="#C3CFD9" stroke-width="2" fill="#f2f5f7"></rect></g></g><g><g class="content"><g><g><g><g><g></g><text fill="#293845" hover-props="{}"><tspan x="810" y="1007.5" font-family="DIN Next, system-ui, sans-serif" font-size="27" font-style="normal" font-weight="normal">Nome da aplicação à esquerda / Marca e navegação com ícones à direita</tspan></text></g></g></g></g></g></g><g><g class="content"><g><g><g><g><g></g><text fill="#293845" hover-props="{}"><tspan x="810" y="1404.5" font-family="DIN Next, system-ui, sans-serif" font-size="27" font-style="normal" font-weight="normal">Nome da aplicação à esquerda / Busca centralizado / Marca e ações globais à direita / Navegação </tspan></text></g></g><g><g><g></g><text fill="#293845" hover-props="{}"><tspan x="810" y="1440.5" font-family="DIN Next, system-ui, sans-serif" font-size="27" font-style="normal" font-weight="normal">na segunda linha</tspan></text></g></g></g></g></g></g><g><g><rect width="1162" height="245.99999999999994" x="810" y="1472" stroke="#C3CFD9" stroke-width="2" fill="#f2f5f7"></rect></g><g><g><g><g><g><rect width="147" height="56.5" x="1809.5" y="1487.5" stroke="#C3CFD9" stroke-width="2" fill="rgba(0,0,0,0)"></rect><g transform="translate(1874 1506) rotate(0 9 9)"><svg id="s8743ab0e-e47c-449f-ae4b-31ab50c9bead" width="18" height="18" viewBox="0 0 64 64" data-icon-name="image-02" data-icon-partition="g64-5" data-icon-color="#C3CFD9"><style>#s8743ab0e-e47c-449f-ae4b-31ab50c9bead *[fill=&#x27;#444444&#x27;], #s8743ab0e-e47c-449f-ae4b-31ab50c9bead *[fill=&#x27;#444&#x27;] {fill:#C3CFD9;}#s8743ab0e-e47c-449f-ae4b-31ab50c9bead *[stroke=&#x27;#444444&#x27;], #s8743ab0e-e47c-449f-ae4b-31ab50c9bead *[stroke=&#x27;#444&#x27;] {stroke:#C3CFD9;}</style><g><path d="M54,4H10a6,6,0,0,0-6,6V54a6,6,0,0,0,6,6H54a6,6,0,0,0,6-6V10A6,6,0,0,0,54,4ZM23.5,14A5.5,5.5,0,1,1,18,19.5,5.5,5.5,0,0,1,23.5,14ZM53.877,47.481A1,1,0,0,1,53,48H11a1,1,0,0,1-.852-1.524l8-13a1,1,0,0,1,1.6-.14l7.14,8.031,11.28-16.922A1.022,1.022,0,0,1,39.011,24a1,1,0,0,1,.833.463l14,22A1,1,0,0,1,53.877,47.481Z" fill="#444"></path></g></svg></g></g></g><g><g class="content"><g><g><g><g><g></g><text fill="#C3CFD9" hover-props="{}"><tspan x="1837" y="1502.5" font-family="DIN Next, system-ui, sans-serif" font-size="13" font-style="normal" font-weight="normal">Marca Petrobras</tspan></text></g></g></g></g></g></g></g></g></g></g><g><g><g><g><g transform="translate(1632.5 1502.9166666666667) rotate(0 13 13)"><svg id="s954c7353-9267-49d2-8e66-7d03e8c7c17e" width="26" height="26" viewBox="0 0 32 32" data-icon-name="calendar-check-62" data-icon-partition="g32-1" data-icon-color="#C3CFD9"><style>#s954c7353-9267-49d2-8e66-7d03e8c7c17e *[fill=&#x27;#444444&#x27;], #s954c7353-9267-49d2-8e66-7d03e8c7c17e *[fill=&#x27;#444&#x27;] {fill:#C3CFD9;}#s954c7353-9267-49d2-8e66-7d03e8c7c17e *[stroke=&#x27;#444444&#x27;], #s954c7353-9267-49d2-8e66-7d03e8c7c17e *[stroke=&#x27;#444&#x27;] {stroke:#C3CFD9;}</style><g><path data-color="color-2" d="M9,1c0-.552-.448-1-1-1s-1,.448-1,1v3h2V1Z" fill="#444"></path><path data-color="color-2" d="M25,1c0-.552-.448-1-1-1s-1,.448-1,1v3h2V1Z" fill="#444"></path><path d="M27,5H5c-2.209,0-4,1.791-4,4V27c0,2.209,1.791,4,4,4H27c2.209,0,4-1.791,4-4V9c0-2.209-1.791-4-4-4Zm2,22c0,1.105-.895,2-2,2H5c-1.105,0-2-.895-2-2V11H29V27Z" fill="#444"></path><path data-color="color-2" d="M14,26c-.256,0-.512-.098-.707-.293l-4-4c-.391-.391-.391-1.023,0-1.414s1.023-.391,1.414,0l3.293,3.293,9.293-9.293c.391-.391,1.023-.391,1.414,0s.391,1.023,0,1.414l-10,10c-.195,.195-.451,.293-.707,.293Z" fill="#444"></path></g></svg></g></g></g><g><g><g transform="translate(1669.9901960784314 1502.2205882352941) rotate(0 13.76470588235294 13.76470588235294)"><svg id="s145bd3df-b3cc-4977-9b2c-ab4bc8e77873" width="27.52941176470588" height="27.52941176470588" viewBox="0 0 12 12" data-icon-name="settings-gear" data-icon-partition="g12-0" data-icon-color="#C3CFD9"><style>#s145bd3df-b3cc-4977-9b2c-ab4bc8e77873 *[fill=&#x27;#444444&#x27;], #s145bd3df-b3cc-4977-9b2c-ab4bc8e77873 *[fill=&#x27;#444&#x27;] {fill:#C3CFD9;}#s145bd3df-b3cc-4977-9b2c-ab4bc8e77873 *[stroke=&#x27;#444444&#x27;], #s145bd3df-b3cc-4977-9b2c-ab4bc8e77873 *[stroke=&#x27;#444&#x27;] {stroke:#C3CFD9;}</style><g><path d="M10.109,7.031A4.177,4.177,0,0,0,10.25,6a4.177,4.177,0,0,0-.141-1.031l1.2-.883a.5.5,0,0,0,.136-.653l-.5-.866a.5.5,0,0,0-.634-.208l-1.357.6A4.228,4.228,0,0,0,7.162,1.931L7,.445A.5.5,0,0,0,6.5,0h-1A.5.5,0,0,0,5,.445L4.838,1.931A4.228,4.228,0,0,0,3.045,2.954l-1.357-.6a.5.5,0,0,0-.634.208l-.5.866a.5.5,0,0,0,.136.653l1.2.883A4.177,4.177,0,0,0,1.75,6a4.177,4.177,0,0,0,.141,1.031l-1.2.883a.5.5,0,0,0-.136.653l.5.866a.5.5,0,0,0,.433.25.51.51,0,0,0,.2-.042l1.357-.6a4.228,4.228,0,0,0,1.793,1.023L5,11.555A.5.5,0,0,0,5.5,12h1a.5.5,0,0,0,.5-.445l.165-1.486A4.228,4.228,0,0,0,8.955,9.046l1.357.6a.51.51,0,0,0,.2.042.5.5,0,0,0,.433-.25l.5-.866a.5.5,0,0,0-.136-.653ZM6,8A2,2,0,1,1,8,6,2,2,0,0,1,6,8Z" fill="#444"></path></g></svg></g></g></g><g><g><g transform="translate(1709.0098039215686 1502.9166666666667) rotate(0 13 13)"><svg id="s8da6ee2e-17df-476a-9469-da33a93eb242" width="26" height="26" viewBox="0 0 32 32" data-icon-name="bulb-61" data-icon-partition="g32-1" data-icon-color="#C3CFD9"><style>#s8da6ee2e-17df-476a-9469-da33a93eb242 *[fill=&#x27;#444444&#x27;], #s8da6ee2e-17df-476a-9469-da33a93eb242 *[fill=&#x27;#444&#x27;] {fill:#C3CFD9;}#s8da6ee2e-17df-476a-9469-da33a93eb242 *[stroke=&#x27;#444444&#x27;], #s8da6ee2e-17df-476a-9469-da33a93eb242 *[stroke=&#x27;#444&#x27;] {stroke:#C3CFD9;}</style><g><path data-color="color-2" fill="#444444" d="M21,32H11c-0.552,0-1-0.448-1-1v-1h12v1C22,31.552,21.552,32,21,32z"></path><path fill="#444444" d="M16,0C9.383,0,4,5.383,4,12c0,4.314,2.284,8.238,6,10.383V28h12v-5.617c3.716-2.145,6-6.068,6-10.383 C28,5.383,22.617,0,16,0z M17,7h-1c-2.757,0-5,2.243-5,5v1H9v-1c0-3.859,3.14-7,7-7h1V7z"></path></g></svg></g></g></g><g><g><g transform="translate(1746.5 1502.9166666666667) rotate(0 13 13)"><svg id="s954849b2-0eed-4702-879a-7cb562b10273" width="26" height="26" viewBox="0 0 32 32" data-icon-name="circle-08" data-icon-partition="g32-2" data-icon-color="#C3CFD9"><style>#s954849b2-0eed-4702-879a-7cb562b10273 *[fill=&#x27;#444444&#x27;], #s954849b2-0eed-4702-879a-7cb562b10273 *[fill=&#x27;#444&#x27;] {fill:#C3CFD9;}#s954849b2-0eed-4702-879a-7cb562b10273 *[stroke=&#x27;#444444&#x27;], #s954849b2-0eed-4702-879a-7cb562b10273 *[stroke=&#x27;#444&#x27;] {stroke:#C3CFD9;}</style><g><path fill="#444444" d="M16,0C7.178,0,0,7.178,0,16s7.178,16,16,16s16-7.178,16-16S24.822,0,16,0z M10,14c0-3.309,2.691-6,6-6 s6,2.691,6,6v2c0,3.309-2.691,6-6,6s-6-2.691-6-6V14z M16,30c-2.913,0-5.62-0.896-7.863-2.425C9.6,25.996,11.683,25,14,25h4 c2.317,0,4.4,0.996,5.863,2.575C21.62,29.104,18.913,30,16,30z"></path></g></svg></g></g></g></g></g><g><g><rect x="1262.75" y="1497.5" width="221.75" height="36" rx="18" ry="18" fill="rgba(0,0,0,0)"></rect><rect y="1497.5" rx="18" stroke="#C3CFD9" fill="none" stroke-linejoin="round" width="221.75" stroke-linecap="round" stroke-width="2" x="1262.75" ry="18" height="36"></rect></g></g><g><g class="content"><g><g><g><g id="12/ZHUi/-1"><g><g></g><text fill="#788896" hover-props="{}"><tspan x="825.5" y="1522.25" font-family="DIN Next, system-ui, sans-serif" font-size="18" font-style="normal" font-weight="bold">Nome da Aplicação / Produto Digital</tspan></text></g></g></g></g></g></g></g><g><g><g><g><rect width="74" height="11" x="1150" y="1588" fill="#ced8e0"></rect></g></g><g><g><rect width="74" height="11" x="1252" y="1588" fill="#ced8e0"></rect></g></g><g><g><rect width="74" height="11" x="1354" y="1588" fill="#ced8e0"></rect></g></g><g><g><rect width="74" height="11" x="1456" y="1588" fill="#ced8e0"></rect></g></g><g><g><rect width="74" height="11" x="1558" y="1587.5" fill="#ced8e0"></rect></g></g></g></g></g></g></svg>