<svg width="832" height="628" viewBox="0 0 832 628" fill="none" xmlns="http://www.w3.org/2000/svg">
<rect width="832" height="628" fill="white"/>
<path d="M821 8H11C9.34315 8 8 9.34315 8 11V101C8 102.657 9.34315 104 11 104H821C822.657 104 824 102.657 824 101V11C824 9.34315 822.657 8 821 8Z" stroke="#C3CFD9" stroke-width="2" stroke-linecap="round" stroke-linejoin="round"/>
<path d="M380.745 45.8977V44.875L388.978 40.6818V42.3182L382.663 45.3608L382.714 45.2585V45.5142L382.663 45.4119L388.978 48.4545V50.0909L380.745 45.8977ZM393.684 44.5938V50.5H392.176V37.4091H393.684V42.2159H393.812C394.042 41.7088 394.387 41.3061 394.847 41.0078C395.312 40.7053 395.93 40.554 396.701 40.554C397.37 40.554 397.956 40.6882 398.459 40.9567C398.962 41.2209 399.352 41.6278 399.629 42.1776C399.91 42.723 400.051 43.4176 400.051 44.2614V50.5H398.542V44.3636C398.542 43.5838 398.34 42.9808 397.935 42.5547C397.534 42.1243 396.978 41.9091 396.267 41.9091C395.772 41.9091 395.329 42.0135 394.937 42.2223C394.549 42.4311 394.242 42.7358 394.017 43.1364C393.795 43.5369 393.684 44.0227 393.684 44.5938ZM406.927 50.7045C405.981 50.7045 405.165 50.4957 404.479 50.0781C403.797 49.6562 403.271 49.0682 402.9 48.3139C402.533 47.5554 402.35 46.6733 402.35 45.6676C402.35 44.6619 402.533 43.7756 402.9 43.0085C403.271 42.2372 403.786 41.6364 404.447 41.206C405.112 40.7713 405.887 40.554 406.773 40.554C407.285 40.554 407.79 40.6392 408.288 40.8097C408.787 40.9801 409.241 41.2571 409.65 41.6406C410.059 42.0199 410.385 42.5227 410.628 43.1491C410.871 43.7756 410.992 44.5469 410.992 45.4631V46.1023H403.424V44.7983H409.458C409.458 44.2443 409.347 43.75 409.126 43.3153C408.908 42.8807 408.597 42.5376 408.192 42.2862C407.792 42.0348 407.319 41.9091 406.773 41.9091C406.173 41.9091 405.653 42.0582 405.214 42.3565C404.779 42.6506 404.445 43.0341 404.21 43.5071C403.976 43.9801 403.859 44.4872 403.859 45.0284V45.8977C403.859 46.6392 403.987 47.2678 404.242 47.7834C404.502 48.2947 404.862 48.6847 405.322 48.9531C405.783 49.2173 406.317 49.3494 406.927 49.3494C407.323 49.3494 407.681 49.294 408.001 49.1832C408.325 49.0682 408.604 48.8977 408.838 48.6719C409.072 48.4418 409.254 48.1562 409.381 47.8153L410.839 48.2244C410.685 48.7188 410.428 49.1534 410.065 49.5284C409.703 49.8991 409.256 50.1889 408.723 50.3977C408.19 50.6023 407.592 50.7045 406.927 50.7045ZM416.176 50.7301C415.554 50.7301 414.989 50.6129 414.482 50.3786C413.975 50.1399 413.572 49.7969 413.274 49.3494C412.976 48.8977 412.827 48.3523 412.827 47.7131C412.827 47.1506 412.938 46.6946 413.159 46.3452C413.381 45.9915 413.677 45.7145 414.048 45.5142C414.418 45.3139 414.827 45.1648 415.275 45.0668C415.727 44.9645 416.18 44.8835 416.636 44.8239C417.233 44.7472 417.717 44.6896 418.087 44.6513C418.462 44.6087 418.735 44.5384 418.906 44.4403C419.08 44.3423 419.168 44.1719 419.168 43.929V43.8778C419.168 43.2472 418.995 42.7571 418.65 42.4077C418.309 42.0582 417.791 41.8835 417.097 41.8835C416.376 41.8835 415.812 42.0412 415.403 42.3565C414.994 42.6719 414.706 43.0085 414.54 43.3665L413.108 42.8551C413.364 42.2585 413.705 41.794 414.131 41.4616C414.561 41.125 415.03 40.8906 415.537 40.7585C416.048 40.6222 416.551 40.554 417.045 40.554C417.361 40.554 417.723 40.5923 418.132 40.669C418.545 40.7415 418.944 40.8928 419.327 41.1229C419.715 41.353 420.037 41.7003 420.293 42.1648C420.548 42.6293 420.676 43.2514 420.676 44.0312V50.5H419.168V49.1705H419.091C418.989 49.3835 418.818 49.6115 418.58 49.8544C418.341 50.0973 418.023 50.304 417.627 50.4744C417.231 50.6449 416.747 50.7301 416.176 50.7301ZM416.406 49.375C417.003 49.375 417.506 49.2578 417.915 49.0234C418.328 48.7891 418.639 48.4865 418.848 48.1158C419.061 47.745 419.168 47.3551 419.168 46.946V45.5653C419.104 45.642 418.963 45.7124 418.746 45.7763C418.533 45.8359 418.286 45.8892 418.004 45.9361C417.727 45.9787 417.457 46.017 417.192 46.0511C416.933 46.081 416.722 46.1065 416.56 46.1278C416.168 46.179 415.801 46.2621 415.46 46.3771C415.124 46.4879 414.851 46.6562 414.642 46.8821C414.438 47.1037 414.335 47.4062 414.335 47.7898C414.335 48.3139 414.529 48.7102 414.917 48.9787C415.309 49.2429 415.805 49.375 416.406 49.375ZM427.137 50.7045C426.319 50.7045 425.596 50.4979 424.97 50.0845C424.344 49.6669 423.854 49.0788 423.5 48.3203C423.146 47.5575 422.969 46.6562 422.969 45.6165C422.969 44.5852 423.146 43.6903 423.5 42.9318C423.854 42.1733 424.346 41.5874 424.976 41.174C425.607 40.7607 426.336 40.554 427.162 40.554C427.802 40.554 428.307 40.6605 428.677 40.8736C429.052 41.0824 429.338 41.321 429.534 41.5895C429.734 41.8537 429.89 42.071 430.001 42.2415H430.128V37.4091H431.637V50.5H430.18V48.9915H430.001C429.89 49.1705 429.732 49.3963 429.528 49.669C429.323 49.9375 429.031 50.1783 428.652 50.3913C428.273 50.6001 427.768 50.7045 427.137 50.7045ZM427.341 49.3494C427.947 49.3494 428.458 49.1918 428.876 48.8764C429.293 48.5568 429.611 48.1158 429.828 47.5533C430.045 46.9865 430.154 46.3324 430.154 45.5909C430.154 44.858 430.047 44.2166 429.834 43.6669C429.621 43.1129 429.306 42.6825 428.888 42.3757C428.471 42.0646 427.955 41.9091 427.341 41.9091C426.702 41.9091 426.17 42.0732 425.743 42.4013C425.322 42.7251 425.004 43.1662 424.791 43.7244C424.582 44.2784 424.478 44.9006 424.478 45.5909C424.478 46.2898 424.584 46.9247 424.797 47.4957C425.015 48.0625 425.334 48.5142 425.756 48.8509C426.182 49.1832 426.711 49.3494 427.341 49.3494ZM438.726 50.7045C437.78 50.7045 436.964 50.4957 436.278 50.0781C435.596 49.6562 435.069 49.0682 434.699 48.3139C434.332 47.5554 434.149 46.6733 434.149 45.6676C434.149 44.6619 434.332 43.7756 434.699 43.0085C435.069 42.2372 435.585 41.6364 436.246 41.206C436.91 40.7713 437.686 40.554 438.572 40.554C439.084 40.554 439.589 40.6392 440.087 40.8097C440.586 40.9801 441.04 41.2571 441.449 41.6406C441.858 42.0199 442.184 42.5227 442.427 43.1491C442.67 43.7756 442.791 44.5469 442.791 45.4631V46.1023H435.223V44.7983H441.257C441.257 44.2443 441.146 43.75 440.925 43.3153C440.707 42.8807 440.396 42.5376 439.991 42.2862C439.591 42.0348 439.118 41.9091 438.572 41.9091C437.971 41.9091 437.452 42.0582 437.013 42.3565C436.578 42.6506 436.243 43.0341 436.009 43.5071C435.775 43.9801 435.657 44.4872 435.657 45.0284V45.8977C435.657 46.6392 435.785 47.2678 436.041 47.7834C436.301 48.2947 436.661 48.6847 437.121 48.9531C437.581 49.2173 438.116 49.3494 438.726 49.3494C439.122 49.3494 439.48 49.294 439.8 49.1832C440.123 49.0682 440.403 48.8977 440.637 48.6719C440.871 48.4418 441.052 48.1562 441.18 47.8153L442.638 48.2244C442.484 48.7188 442.226 49.1534 441.864 49.5284C441.502 49.8991 441.055 50.1889 440.522 50.3977C439.989 50.6023 439.39 50.7045 438.726 50.7045ZM445.086 50.5V40.6818H446.543V42.1648H446.645C446.824 41.679 447.148 41.2848 447.617 40.9822C448.086 40.6797 448.614 40.5284 449.202 40.5284C449.313 40.5284 449.452 40.5305 449.618 40.5348C449.784 40.5391 449.91 40.5455 449.995 40.554V42.0881C449.944 42.0753 449.827 42.0561 449.643 42.0305C449.464 42.0007 449.275 41.9858 449.074 41.9858C448.597 41.9858 448.171 42.0859 447.796 42.2862C447.425 42.4822 447.131 42.755 446.914 43.1044C446.701 43.4496 446.594 43.8437 446.594 44.2869V50.5H445.086ZM460.451 45.8977L452.218 50.0909V48.4545L458.533 45.4119L458.482 45.5142V45.2585L458.533 45.3608L452.218 42.3182V40.6818L460.451 44.875V45.8977Z" fill="#293845"/>
<path d="M389.983 74.5V61.4091H391.491V66.2415H391.619C391.73 66.071 391.883 65.8537 392.079 65.5895C392.28 65.321 392.565 65.0824 392.936 64.8736C393.311 64.6605 393.818 64.554 394.457 64.554C395.284 64.554 396.013 64.7607 396.643 65.174C397.274 65.5874 397.766 66.1733 398.12 66.9318C398.473 67.6903 398.65 68.5852 398.65 69.6165C398.65 70.6562 398.473 71.5575 398.12 72.3203C397.766 73.0788 397.276 73.6669 396.65 74.0845C396.023 74.4979 395.301 74.7045 394.483 74.7045C393.852 74.7045 393.347 74.6001 392.968 74.3913C392.589 74.1783 392.297 73.9375 392.092 73.669C391.888 73.3963 391.73 73.1705 391.619 72.9915H391.44V74.5H389.983ZM391.466 69.5909C391.466 70.3324 391.574 70.9865 391.792 71.5533C392.009 72.1158 392.326 72.5568 392.744 72.8764C393.162 73.1918 393.673 73.3494 394.278 73.3494C394.909 73.3494 395.435 73.1832 395.857 72.8509C396.283 72.5142 396.603 72.0625 396.816 71.4957C397.033 70.9247 397.142 70.2898 397.142 69.5909C397.142 68.9006 397.035 68.2784 396.822 67.7244C396.613 67.1662 396.296 66.7251 395.87 66.4013C395.448 66.0732 394.917 65.9091 394.278 65.9091C393.665 65.9091 393.149 66.0646 392.731 66.3757C392.314 66.6825 391.998 67.1129 391.785 67.6669C391.572 68.2166 391.466 68.858 391.466 69.5909ZM403.847 74.7301C403.225 74.7301 402.66 74.6129 402.153 74.3786C401.646 74.1399 401.243 73.7969 400.945 73.3494C400.647 72.8977 400.498 72.3523 400.498 71.7131C400.498 71.1506 400.608 70.6946 400.83 70.3452C401.052 69.9915 401.348 69.7145 401.718 69.5142C402.089 69.3139 402.498 69.1648 402.946 69.0668C403.397 68.9645 403.851 68.8835 404.307 68.8239C404.904 68.7472 405.388 68.6896 405.758 68.6513C406.133 68.6087 406.406 68.5384 406.576 68.4403C406.751 68.3423 406.839 68.1719 406.839 67.929V67.8778C406.839 67.2472 406.666 66.7571 406.321 66.4077C405.98 66.0582 405.462 65.8835 404.767 65.8835C404.047 65.8835 403.483 66.0412 403.074 66.3565C402.665 66.6719 402.377 67.0085 402.211 67.3665L400.779 66.8551C401.035 66.2585 401.375 65.794 401.802 65.4616C402.232 65.125 402.701 64.8906 403.208 64.7585C403.719 64.6222 404.222 64.554 404.716 64.554C405.032 64.554 405.394 64.5923 405.803 64.669C406.216 64.7415 406.615 64.8928 406.998 65.1229C407.386 65.353 407.708 65.7003 407.964 66.1648C408.219 66.6293 408.347 67.2514 408.347 68.0312V74.5H406.839V73.1705H406.762C406.66 73.3835 406.489 73.6115 406.25 73.8544C406.012 74.0973 405.694 74.304 405.298 74.4744C404.902 74.6449 404.418 74.7301 403.847 74.7301ZM404.077 73.375C404.674 73.375 405.177 73.2578 405.586 73.0234C405.999 72.7891 406.31 72.4865 406.519 72.1158C406.732 71.745 406.839 71.3551 406.839 70.946V69.5653C406.775 69.642 406.634 69.7124 406.417 69.7763C406.204 69.8359 405.956 69.8892 405.675 69.9361C405.398 69.9787 405.128 70.017 404.863 70.0511C404.603 70.081 404.392 70.1065 404.231 70.1278C403.839 70.179 403.472 70.2621 403.131 70.3771C402.794 70.4879 402.522 70.6562 402.313 70.8821C402.108 71.1037 402.006 71.4062 402.006 71.7898C402.006 72.3139 402.2 72.7102 402.588 72.9787C402.98 73.2429 403.476 73.375 404.077 73.375ZM412.609 68.5938V74.5H411.1V64.6818H412.558V66.2159H412.686C412.916 65.7173 413.265 65.3168 413.734 65.0142C414.203 64.7074 414.808 64.554 415.549 64.554C416.214 64.554 416.796 64.6903 417.294 64.9631C417.793 65.2315 418.181 65.6406 418.458 66.1903C418.735 66.7358 418.873 67.4261 418.873 68.2614V74.5H417.365V68.3636C417.365 67.5923 417.164 66.9915 416.764 66.5611C416.363 66.1264 415.813 65.9091 415.115 65.9091C414.633 65.9091 414.203 66.0135 413.823 66.2223C413.448 66.4311 413.152 66.7358 412.935 67.1364C412.718 67.5369 412.609 68.0227 412.609 68.5938ZM423.138 68.5938V74.5H421.63V64.6818H423.087V66.2159H423.215C423.445 65.7173 423.794 65.3168 424.263 65.0142C424.732 64.7074 425.337 64.554 426.079 64.554C426.743 64.554 427.325 64.6903 427.824 64.9631C428.322 65.2315 428.71 65.6406 428.987 66.1903C429.264 66.7358 429.402 67.4261 429.402 68.2614V74.5H427.894V68.3636C427.894 67.5923 427.694 66.9915 427.293 66.5611C426.892 66.1264 426.343 65.9091 425.644 65.9091C425.162 65.9091 424.732 66.0135 424.353 66.2223C423.978 66.4311 423.682 66.7358 423.464 67.1364C423.247 67.5369 423.138 68.0227 423.138 68.5938ZM436.275 74.7045C435.329 74.7045 434.513 74.4957 433.827 74.0781C433.146 73.6562 432.619 73.0682 432.248 72.3139C431.882 71.5554 431.699 70.6733 431.699 69.6676C431.699 68.6619 431.882 67.7756 432.248 67.0085C432.619 66.2372 433.135 65.6364 433.795 65.206C434.46 64.7713 435.236 64.554 436.122 64.554C436.633 64.554 437.138 64.6392 437.637 64.8097C438.136 64.9801 438.589 65.2571 438.998 65.6406C439.408 66.0199 439.734 66.5227 439.976 67.1491C440.219 67.7756 440.341 68.5469 440.341 69.4631V70.1023H432.773V68.7983H438.807C438.807 68.2443 438.696 67.75 438.474 67.3153C438.257 66.8807 437.946 66.5376 437.541 66.2862C437.141 66.0348 436.668 65.9091 436.122 65.9091C435.521 65.9091 435.001 66.0582 434.562 66.3565C434.128 66.6506 433.793 67.0341 433.559 67.5071C433.324 67.9801 433.207 68.4872 433.207 69.0284V69.8977C433.207 70.6392 433.335 71.2678 433.591 71.7834C433.851 72.2947 434.211 72.6847 434.671 72.9531C435.131 73.2173 435.666 73.3494 436.275 73.3494C436.672 73.3494 437.03 73.294 437.349 73.1832C437.673 73.0682 437.952 72.8977 438.187 72.6719C438.421 72.4418 438.602 72.1562 438.73 71.8153L440.187 72.2244C440.034 72.7188 439.776 73.1534 439.414 73.5284C439.052 73.8991 438.604 74.1889 438.072 74.3977C437.539 74.6023 436.94 74.7045 436.275 74.7045ZM442.636 74.5V64.6818H444.093V66.1648H444.195C444.374 65.679 444.698 65.2848 445.167 64.9822C445.636 64.6797 446.164 64.5284 446.752 64.5284C446.863 64.5284 447.001 64.5305 447.168 64.5348C447.334 64.5391 447.459 64.5455 447.545 64.554V66.0881C447.494 66.0753 447.376 66.0561 447.193 66.0305C447.014 66.0007 446.824 65.9858 446.624 65.9858C446.147 65.9858 445.721 66.0859 445.346 66.2862C444.975 66.4822 444.681 66.755 444.464 67.1044C444.251 67.4496 444.144 67.8437 444.144 68.2869V74.5H442.636Z" fill="#293845"/>
<path d="M197 104H11C9.34315 104 8 105.343 8 107V521C8 522.657 9.34315 524 11 524H197C198.657 524 200 522.657 200 521V107C200 105.343 198.657 104 197 104Z" stroke="#C3CFD9" stroke-width="2" stroke-linecap="round" stroke-linejoin="round"/>
<path d="M82.227 303.898V302.875L90.4599 298.682V300.318L84.1446 303.361L84.1957 303.259V303.514L84.1446 303.412L90.4599 306.455V308.091L82.227 303.898ZM95.1661 302.594V308.5H93.6575V298.682H95.1149V300.216H95.2428C95.4729 299.717 95.8223 299.317 96.2911 299.014C96.7598 298.707 97.3649 298.554 98.1064 298.554C98.7712 298.554 99.3529 298.69 99.8514 298.963C100.35 299.232 100.738 299.641 101.015 300.19C101.292 300.736 101.43 301.426 101.43 302.261V308.5H99.9217V302.364C99.9217 301.592 99.7215 300.991 99.3209 300.561C98.9203 300.126 98.3706 299.909 97.6717 299.909C97.1902 299.909 96.7598 300.013 96.3805 300.222C96.0055 300.431 95.7094 300.736 95.4921 301.136C95.2747 301.537 95.1661 302.023 95.1661 302.594ZM107.076 308.73C106.454 308.73 105.889 308.613 105.382 308.379C104.875 308.14 104.472 307.797 104.174 307.349C103.876 306.898 103.727 306.352 103.727 305.713C103.727 305.151 103.837 304.695 104.059 304.345C104.281 303.991 104.577 303.714 104.947 303.514C105.318 303.314 105.727 303.165 106.175 303.067C106.626 302.964 107.08 302.884 107.536 302.824C108.133 302.747 108.617 302.69 108.987 302.651C109.362 302.609 109.635 302.538 109.805 302.44C109.98 302.342 110.068 302.172 110.068 301.929V301.878C110.068 301.247 109.895 300.757 109.55 300.408C109.209 300.058 108.691 299.884 107.996 299.884C107.276 299.884 106.712 300.041 106.303 300.357C105.894 300.672 105.606 301.009 105.44 301.366L104.008 300.855C104.264 300.259 104.604 299.794 105.031 299.462C105.461 299.125 105.93 298.891 106.437 298.759C106.948 298.622 107.451 298.554 107.945 298.554C108.261 298.554 108.623 298.592 109.032 298.669C109.445 298.741 109.844 298.893 110.227 299.123C110.615 299.353 110.937 299.7 111.193 300.165C111.448 300.629 111.576 301.251 111.576 302.031V308.5H110.068V307.17H109.991C109.889 307.384 109.718 307.612 109.479 307.854C109.241 308.097 108.923 308.304 108.527 308.474C108.131 308.645 107.647 308.73 107.076 308.73ZM107.306 307.375C107.903 307.375 108.406 307.258 108.815 307.023C109.228 306.789 109.539 306.487 109.748 306.116C109.961 305.745 110.068 305.355 110.068 304.946V303.565C110.004 303.642 109.863 303.712 109.646 303.776C109.433 303.836 109.185 303.889 108.904 303.936C108.627 303.979 108.357 304.017 108.092 304.051C107.832 304.081 107.621 304.107 107.46 304.128C107.068 304.179 106.701 304.262 106.36 304.377C106.023 304.488 105.751 304.656 105.542 304.882C105.337 305.104 105.235 305.406 105.235 305.79C105.235 306.314 105.429 306.71 105.817 306.979C106.209 307.243 106.705 307.375 107.306 307.375ZM122.006 298.682L118.376 308.5H116.841L113.211 298.682H114.847L117.557 306.506H117.66L120.37 298.682H122.006ZM132.665 303.898L124.432 308.091V306.455L130.747 303.412L130.696 303.514V303.259L130.747 303.361L124.432 300.318V298.682L132.665 302.875V303.898Z" fill="#293845"/>
<path d="M66.7779 326.594V332.5H65.2694V322.682H66.7267V324.216H66.8546C67.0847 323.717 67.4341 323.317 67.9029 323.014C68.3716 322.707 68.9767 322.554 69.7182 322.554C70.383 322.554 70.9647 322.69 71.4632 322.963C71.9618 323.232 72.3496 323.641 72.6266 324.19C72.9036 324.736 73.0421 325.426 73.0421 326.261V332.5H71.5336V326.364C71.5336 325.592 71.3333 324.991 70.9327 324.561C70.5321 324.126 69.9824 323.909 69.2836 323.909C68.802 323.909 68.3716 324.013 67.9924 324.222C67.6174 324.431 67.3212 324.736 67.1039 325.136C66.8865 325.537 66.7779 326.023 66.7779 326.594ZM78.6879 332.73C78.0657 332.73 77.5011 332.613 76.994 332.379C76.4869 332.14 76.0842 331.797 75.7859 331.349C75.4876 330.898 75.3384 330.352 75.3384 329.713C75.3384 329.151 75.4492 328.695 75.6708 328.345C75.8924 327.991 76.1886 327.714 76.5593 327.514C76.93 327.314 77.3391 327.165 77.7866 327.067C78.2383 326.964 78.6921 326.884 79.1481 326.824C79.7447 326.747 80.2283 326.69 80.5991 326.651C80.9741 326.609 81.2468 326.538 81.4173 326.44C81.592 326.342 81.6793 326.172 81.6793 325.929V325.878C81.6793 325.247 81.5067 324.757 81.1616 324.408C80.8207 324.058 80.3029 323.884 79.6083 323.884C78.8881 323.884 78.3235 324.041 77.9144 324.357C77.5053 324.672 77.2177 325.009 77.0515 325.366L75.6197 324.855C75.8754 324.259 76.2163 323.794 76.6424 323.462C77.0728 323.125 77.5415 322.891 78.0487 322.759C78.56 322.622 79.0629 322.554 79.5572 322.554C79.8725 322.554 80.2347 322.592 80.6438 322.669C81.0572 322.741 81.4556 322.893 81.8391 323.123C82.2269 323.353 82.5487 323.7 82.8043 324.165C83.06 324.629 83.1879 325.251 83.1879 326.031V332.5H81.6793V331.17H81.6026C81.5004 331.384 81.3299 331.612 81.0913 331.854C80.8526 332.097 80.5352 332.304 80.1388 332.474C79.7425 332.645 79.2589 332.73 78.6879 332.73ZM78.918 331.375C79.5146 331.375 80.0174 331.258 80.4265 331.023C80.8398 330.789 81.1509 330.487 81.3597 330.116C81.5728 329.745 81.6793 329.355 81.6793 328.946V327.565C81.6154 327.642 81.4748 327.712 81.2575 327.776C81.0444 327.836 80.7972 327.889 80.516 327.936C80.239 327.979 79.9684 328.017 79.7042 328.051C79.4442 328.081 79.2333 328.107 79.0714 328.128C78.6793 328.179 78.3129 328.262 77.9719 328.377C77.6353 328.488 77.3626 328.656 77.1538 328.882C76.9492 329.104 76.8469 329.406 76.8469 329.79C76.8469 330.314 77.0408 330.71 77.4286 330.979C77.8207 331.243 78.3171 331.375 78.918 331.375ZM93.6181 322.682L89.9874 332.5H88.4533L84.8226 322.682H86.459L89.1692 330.506H89.2715L91.9817 322.682H93.6181ZM95.6092 332.5V322.682H97.1177V332.5H95.6092ZM96.3762 321.045C96.0822 321.045 95.8287 320.945 95.6156 320.745C95.4068 320.545 95.3024 320.304 95.3024 320.023C95.3024 319.741 95.4068 319.501 95.6156 319.3C95.8287 319.1 96.0822 319 96.3762 319C96.6703 319 96.9217 319.1 97.1305 319.3C97.3436 319.501 97.4501 319.741 97.4501 320.023C97.4501 320.304 97.3436 320.545 97.1305 320.745C96.9217 320.945 96.6703 321.045 96.3762 321.045ZM103.844 336.386C103.115 336.386 102.489 336.293 101.964 336.105C101.44 335.922 101.004 335.679 100.654 335.376C100.309 335.078 100.034 334.759 99.8295 334.418L101.031 333.574C101.168 333.753 101.34 333.957 101.549 334.188C101.758 334.422 102.043 334.624 102.406 334.795C102.772 334.969 103.251 335.057 103.844 335.057C104.636 335.057 105.29 334.865 105.806 334.482C106.322 334.098 106.58 333.497 106.58 332.679V330.685H106.452C106.341 330.864 106.183 331.085 105.979 331.349C105.778 331.609 105.489 331.842 105.109 332.046C104.734 332.246 104.227 332.347 103.588 332.347C102.795 332.347 102.084 332.159 101.453 331.784C100.827 331.409 100.33 330.864 99.9638 330.148C99.6016 329.432 99.4205 328.562 99.4205 327.54C99.4205 326.534 99.5973 325.658 99.951 324.913C100.305 324.163 100.797 323.583 101.428 323.174C102.058 322.761 102.787 322.554 103.614 322.554C104.253 322.554 104.76 322.661 105.135 322.874C105.514 323.082 105.804 323.321 106.004 323.589C106.209 323.854 106.366 324.071 106.477 324.241H106.631V322.682H108.088V332.781C108.088 333.625 107.896 334.311 107.513 334.839C107.134 335.372 106.622 335.762 105.979 336.009C105.339 336.261 104.628 336.386 103.844 336.386ZM103.793 330.991C104.398 330.991 104.909 330.853 105.327 330.576C105.744 330.299 106.062 329.901 106.279 329.381C106.496 328.861 106.605 328.239 106.605 327.514C106.605 326.807 106.499 326.183 106.286 325.641C106.072 325.1 105.757 324.676 105.339 324.369C104.922 324.062 104.406 323.909 103.793 323.909C103.153 323.909 102.621 324.071 102.195 324.395C101.773 324.719 101.455 325.153 101.242 325.699C101.033 326.244 100.929 326.849 100.929 327.514C100.929 328.196 101.036 328.799 101.249 329.323C101.466 329.843 101.786 330.252 102.207 330.55C102.634 330.844 103.162 330.991 103.793 330.991ZM113.739 332.73C113.116 332.73 112.552 332.613 112.045 332.379C111.538 332.14 111.135 331.797 110.837 331.349C110.538 330.898 110.389 330.352 110.389 329.713C110.389 329.151 110.5 328.695 110.722 328.345C110.943 327.991 111.239 327.714 111.61 327.514C111.981 327.314 112.39 327.165 112.837 327.067C113.289 326.964 113.743 326.884 114.199 326.824C114.795 326.747 115.279 326.69 115.65 326.651C116.025 326.609 116.298 326.538 116.468 326.44C116.643 326.342 116.73 326.172 116.73 325.929V325.878C116.73 325.247 116.558 324.757 116.212 324.408C115.871 324.058 115.354 323.884 114.659 323.884C113.939 323.884 113.374 324.041 112.965 324.357C112.556 324.672 112.268 325.009 112.102 325.366L110.67 324.855C110.926 324.259 111.267 323.794 111.693 323.462C112.124 323.125 112.592 322.891 113.099 322.759C113.611 322.622 114.114 322.554 114.608 322.554C114.923 322.554 115.286 322.592 115.695 322.669C116.108 322.741 116.506 322.893 116.89 323.123C117.278 323.353 117.599 323.7 117.855 324.165C118.111 324.629 118.239 325.251 118.239 326.031V332.5H116.73V331.17H116.653C116.551 331.384 116.381 331.612 116.142 331.854C115.903 332.097 115.586 332.304 115.19 332.474C114.793 332.645 114.31 332.73 113.739 332.73ZM113.969 331.375C114.565 331.375 115.068 331.258 115.477 331.023C115.891 330.789 116.202 330.487 116.411 330.116C116.624 329.745 116.73 329.355 116.73 328.946V327.565C116.666 327.642 116.526 327.712 116.308 327.776C116.095 327.836 115.848 327.889 115.567 327.936C115.29 327.979 115.019 328.017 114.755 328.051C114.495 328.081 114.284 328.107 114.122 328.128C113.73 328.179 113.364 328.262 113.023 328.377C112.686 328.488 112.413 328.656 112.205 328.882C112 329.104 111.898 329.406 111.898 329.79C111.898 330.314 112.092 330.71 112.479 330.979C112.871 331.243 113.368 331.375 113.969 331.375ZM125.262 322.682V323.96H120.174V322.682H125.262ZM121.657 320.33H123.165V329.688C123.165 330.114 123.227 330.433 123.351 330.646C123.479 330.855 123.64 330.996 123.836 331.068C124.037 331.136 124.248 331.17 124.469 331.17C124.635 331.17 124.772 331.162 124.878 331.145C124.985 331.124 125.07 331.107 125.134 331.094L125.441 332.449C125.339 332.487 125.196 332.526 125.013 332.564C124.829 332.607 124.597 332.628 124.316 332.628C123.89 332.628 123.472 332.536 123.063 332.353C122.658 332.17 122.322 331.891 122.053 331.516C121.789 331.141 121.657 330.668 121.657 330.097V320.33ZM127.531 332.5V322.682H129.04V332.5H127.531ZM128.298 321.045C128.004 321.045 127.751 320.945 127.537 320.745C127.329 320.545 127.224 320.304 127.224 320.023C127.224 319.741 127.329 319.501 127.537 319.3C127.751 319.1 128.004 319 128.298 319C128.592 319 128.844 319.1 129.052 319.3C129.265 319.501 129.372 319.741 129.372 320.023C129.372 320.304 129.265 320.545 129.052 320.745C128.844 320.945 128.592 321.045 128.298 321.045ZM135.791 332.705C134.905 332.705 134.127 332.494 133.458 332.072C132.793 331.65 132.273 331.06 131.898 330.301C131.528 329.543 131.342 328.656 131.342 327.642C131.342 326.619 131.528 325.727 131.898 324.964C132.273 324.201 132.793 323.609 133.458 323.187C134.127 322.765 134.905 322.554 135.791 322.554C136.678 322.554 137.453 322.765 138.118 323.187C138.787 323.609 139.307 324.201 139.678 324.964C140.053 325.727 140.24 326.619 140.24 327.642C140.24 328.656 140.053 329.543 139.678 330.301C139.307 331.06 138.787 331.65 138.118 332.072C137.453 332.494 136.678 332.705 135.791 332.705ZM135.791 331.349C136.464 331.349 137.018 331.177 137.453 330.832C137.888 330.487 138.21 330.033 138.418 329.47C138.627 328.908 138.732 328.298 138.732 327.642C138.732 326.986 138.627 326.374 138.418 325.808C138.21 325.241 137.888 324.783 137.453 324.433C137.018 324.084 136.464 323.909 135.791 323.909C135.118 323.909 134.564 324.084 134.129 324.433C133.695 324.783 133.373 325.241 133.164 325.808C132.955 326.374 132.851 326.986 132.851 327.642C132.851 328.298 132.955 328.908 133.164 329.47C133.373 330.033 133.695 330.487 134.129 330.832C134.564 331.177 135.118 331.349 135.791 331.349ZM144.051 326.594V332.5H142.543V322.682H144V324.216H144.128C144.358 323.717 144.708 323.317 145.176 323.014C145.645 322.707 146.25 322.554 146.992 322.554C147.656 322.554 148.238 322.69 148.737 322.963C149.235 323.232 149.623 323.641 149.9 324.19C150.177 324.736 150.316 325.426 150.316 326.261V332.5H148.807V326.364C148.807 325.592 148.607 324.991 148.206 324.561C147.806 324.126 147.256 323.909 146.557 323.909C146.075 323.909 145.645 324.013 145.266 324.222C144.891 324.431 144.595 324.736 144.377 325.136C144.16 325.537 144.051 326.023 144.051 326.594Z" fill="#293845"/>
<path d="M821 104H635C633.343 104 632 105.343 632 107V521C632 522.657 633.343 524 635 524H821C822.657 524 824 522.657 824 521V107C824 105.343 822.657 104 821 104Z" stroke="#C3CFD9" stroke-width="2" stroke-linecap="round" stroke-linejoin="round"/>
<path d="M699.297 303.898V302.875L707.53 298.682V300.318L701.215 303.361L701.266 303.259V303.514L701.215 303.412L707.53 306.455V308.091L699.297 303.898ZM713.617 308.73C712.995 308.73 712.43 308.613 711.923 308.379C711.416 308.14 711.013 307.797 710.715 307.349C710.417 306.898 710.268 306.352 710.268 305.713C710.268 305.151 710.378 304.695 710.6 304.345C710.822 303.991 711.118 303.714 711.489 303.514C711.859 303.314 712.268 303.165 712.716 303.067C713.167 302.964 713.621 302.884 714.077 302.824C714.674 302.747 715.158 302.69 715.528 302.651C715.903 302.609 716.176 302.538 716.346 302.44C716.521 302.342 716.609 302.172 716.609 301.929V301.878C716.609 301.247 716.436 300.757 716.091 300.408C715.75 300.058 715.232 299.884 714.538 299.884C713.817 299.884 713.253 300.041 712.844 300.357C712.435 300.672 712.147 301.009 711.981 301.366L710.549 300.855C710.805 300.259 711.145 299.794 711.572 299.462C712.002 299.125 712.471 298.891 712.978 298.759C713.489 298.622 713.992 298.554 714.486 298.554C714.802 298.554 715.164 298.592 715.573 298.669C715.986 298.741 716.385 298.893 716.768 299.123C717.156 299.353 717.478 299.7 717.734 300.165C717.989 300.629 718.117 301.251 718.117 302.031V308.5H716.609V307.17H716.532C716.43 307.384 716.259 307.612 716.02 307.854C715.782 308.097 715.464 308.304 715.068 308.474C714.672 308.645 714.188 308.73 713.617 308.73ZM713.847 307.375C714.444 307.375 714.947 307.258 715.356 307.023C715.769 306.789 716.08 306.487 716.289 306.116C716.502 305.745 716.609 305.355 716.609 304.946V303.565C716.545 303.642 716.404 303.712 716.187 303.776C715.974 303.836 715.726 303.889 715.445 303.936C715.168 303.979 714.898 304.017 714.633 304.051C714.373 304.081 714.163 304.107 714.001 304.128C713.609 304.179 713.242 304.262 712.901 304.377C712.564 304.488 712.292 304.656 712.083 304.882C711.878 305.104 711.776 305.406 711.776 305.79C711.776 306.314 711.97 306.71 712.358 306.979C712.75 307.243 713.246 307.375 713.847 307.375ZM727.825 300.881L726.47 301.264C726.385 301.038 726.259 300.819 726.093 300.606C725.931 300.388 725.709 300.21 725.428 300.069C725.147 299.928 724.787 299.858 724.348 299.858C723.747 299.858 723.246 299.996 722.846 300.273C722.449 300.546 722.251 300.893 722.251 301.315C722.251 301.69 722.387 301.987 722.66 302.204C722.933 302.421 723.359 302.602 723.939 302.747L725.396 303.105C726.274 303.318 726.928 303.644 727.358 304.083C727.789 304.518 728.004 305.078 728.004 305.764C728.004 306.327 727.842 306.83 727.518 307.273C727.199 307.716 726.751 308.065 726.176 308.321C725.601 308.577 724.932 308.705 724.169 308.705C723.167 308.705 722.338 308.487 721.682 308.053C721.026 307.618 720.61 306.983 720.436 306.148L721.868 305.79C722.004 306.318 722.262 306.714 722.641 306.979C723.025 307.243 723.525 307.375 724.143 307.375C724.846 307.375 725.405 307.226 725.818 306.928C726.235 306.625 726.444 306.263 726.444 305.841C726.444 305.5 726.325 305.214 726.086 304.984C725.848 304.75 725.481 304.575 724.987 304.46L723.351 304.077C722.451 303.864 721.791 303.533 721.369 303.086C720.951 302.634 720.743 302.07 720.743 301.392C720.743 300.838 720.898 300.348 721.209 299.922C721.525 299.496 721.953 299.161 722.494 298.918C723.039 298.675 723.657 298.554 724.348 298.554C725.319 298.554 726.082 298.767 726.636 299.193C727.194 299.619 727.591 300.182 727.825 300.881ZM730.275 308.5V298.682H731.783V308.5H730.275ZM731.042 297.045C730.748 297.045 730.494 296.945 730.281 296.745C730.072 296.545 729.968 296.304 729.968 296.023C729.968 295.741 730.072 295.501 730.281 295.3C730.494 295.1 730.748 295 731.042 295C731.336 295 731.587 295.1 731.796 295.3C732.009 295.501 732.116 295.741 732.116 296.023C732.116 296.304 732.009 296.545 731.796 296.745C731.587 296.945 731.336 297.045 731.042 297.045ZM738.254 308.705C737.435 308.705 736.713 308.498 736.087 308.085C735.46 307.667 734.97 307.079 734.617 306.32C734.263 305.558 734.086 304.656 734.086 303.616C734.086 302.585 734.263 301.69 734.617 300.932C734.97 300.173 735.462 299.587 736.093 299.174C736.724 298.761 737.452 298.554 738.279 298.554C738.918 298.554 739.423 298.661 739.794 298.874C740.169 299.082 740.455 299.321 740.651 299.589C740.851 299.854 741.006 300.071 741.117 300.241H741.245V295.409H742.754V308.5H741.296V306.991H741.117C741.006 307.17 740.849 307.396 740.644 307.669C740.44 307.937 740.148 308.178 739.769 308.391C739.389 308.6 738.884 308.705 738.254 308.705ZM738.458 307.349C739.063 307.349 739.575 307.192 739.992 306.876C740.41 306.557 740.727 306.116 740.945 305.553C741.162 304.987 741.271 304.332 741.271 303.591C741.271 302.858 741.164 302.217 740.951 301.667C740.738 301.113 740.423 300.683 740.005 300.376C739.587 300.065 739.072 299.909 738.458 299.909C737.819 299.909 737.286 300.073 736.86 300.401C736.438 300.725 736.121 301.166 735.908 301.724C735.699 302.278 735.595 302.901 735.595 303.591C735.595 304.29 735.701 304.925 735.914 305.496C736.131 306.062 736.451 306.514 736.873 306.851C737.299 307.183 737.827 307.349 738.458 307.349ZM749.842 308.705C748.896 308.705 748.08 308.496 747.394 308.078C746.712 307.656 746.186 307.068 745.815 306.314C745.449 305.555 745.266 304.673 745.266 303.668C745.266 302.662 745.449 301.776 745.815 301.009C746.186 300.237 746.702 299.636 747.362 299.206C748.027 298.771 748.803 298.554 749.689 298.554C750.2 298.554 750.705 298.639 751.204 298.81C751.702 298.98 752.156 299.257 752.565 299.641C752.974 300.02 753.3 300.523 753.543 301.149C753.786 301.776 753.908 302.547 753.908 303.463V304.102H746.34V302.798H752.374C752.374 302.244 752.263 301.75 752.041 301.315C751.824 300.881 751.513 300.538 751.108 300.286C750.707 300.035 750.234 299.909 749.689 299.909C749.088 299.909 748.568 300.058 748.129 300.357C747.695 300.651 747.36 301.034 747.126 301.507C746.891 301.98 746.774 302.487 746.774 303.028V303.898C746.774 304.639 746.902 305.268 747.158 305.783C747.418 306.295 747.778 306.685 748.238 306.953C748.698 307.217 749.233 307.349 749.842 307.349C750.239 307.349 750.597 307.294 750.916 307.183C751.24 307.068 751.519 306.898 751.754 306.672C751.988 306.442 752.169 306.156 752.297 305.815L753.754 306.224C753.601 306.719 753.343 307.153 752.981 307.528C752.619 307.899 752.171 308.189 751.639 308.398C751.106 308.602 750.507 308.705 749.842 308.705ZM764.87 303.898L756.637 308.091V306.455L762.952 303.412L762.901 303.514V303.259L762.952 303.361L756.637 300.318V298.682L764.87 302.875V303.898Z" fill="#293845"/>
<path d="M672.433 332.705C671.512 332.705 670.72 332.487 670.055 332.053C669.39 331.618 668.879 331.019 668.521 330.256C668.163 329.494 667.984 328.622 667.984 327.642C667.984 326.645 668.167 325.765 668.534 325.002C668.904 324.235 669.42 323.636 670.081 323.206C670.745 322.771 671.521 322.554 672.407 322.554C673.098 322.554 673.72 322.682 674.274 322.938C674.828 323.193 675.282 323.551 675.635 324.011C675.989 324.472 676.208 325.009 676.294 325.622H674.785C674.67 325.175 674.414 324.778 674.018 324.433C673.626 324.084 673.098 323.909 672.433 323.909C671.845 323.909 671.329 324.062 670.886 324.369C670.447 324.672 670.104 325.1 669.857 325.654C669.614 326.204 669.492 326.849 669.492 327.591C669.492 328.349 669.612 329.01 669.85 329.572C670.093 330.135 670.434 330.572 670.873 330.883C671.316 331.194 671.836 331.349 672.433 331.349C672.825 331.349 673.181 331.281 673.5 331.145C673.82 331.009 674.09 330.812 674.312 330.557C674.534 330.301 674.691 329.994 674.785 329.636H676.294C676.208 330.216 675.997 330.738 675.661 331.202C675.328 331.663 674.887 332.029 674.338 332.302C673.792 332.57 673.157 332.705 672.433 332.705ZM682.487 332.705C681.601 332.705 680.823 332.494 680.154 332.072C679.49 331.65 678.97 331.06 678.595 330.301C678.224 329.543 678.039 328.656 678.039 327.642C678.039 326.619 678.224 325.727 678.595 324.964C678.97 324.201 679.49 323.609 680.154 323.187C680.823 322.765 681.601 322.554 682.487 322.554C683.374 322.554 684.149 322.765 684.814 323.187C685.483 323.609 686.003 324.201 686.374 324.964C686.749 325.727 686.936 326.619 686.936 327.642C686.936 328.656 686.749 329.543 686.374 330.301C686.003 331.06 685.483 331.65 684.814 332.072C684.149 332.494 683.374 332.705 682.487 332.705ZM682.487 331.349C683.161 331.349 683.715 331.177 684.149 330.832C684.584 330.487 684.906 330.033 685.115 329.47C685.323 328.908 685.428 328.298 685.428 327.642C685.428 326.986 685.323 326.374 685.115 325.808C684.906 325.241 684.584 324.783 684.149 324.433C683.715 324.084 683.161 323.909 682.487 323.909C681.814 323.909 681.26 324.084 680.826 324.433C680.391 324.783 680.069 325.241 679.86 325.808C679.652 326.374 679.547 326.986 679.547 327.642C679.547 328.298 679.652 328.908 679.86 329.47C680.069 330.033 680.391 330.487 680.826 330.832C681.26 331.177 681.814 331.349 682.487 331.349ZM689.239 332.5V322.682H690.696V324.216H690.824C691.029 323.692 691.359 323.285 691.815 322.995C692.271 322.701 692.819 322.554 693.458 322.554C694.106 322.554 694.645 322.701 695.075 322.995C695.51 323.285 695.848 323.692 696.091 324.216H696.194C696.445 323.709 696.822 323.306 697.325 323.008C697.828 322.705 698.431 322.554 699.134 322.554C700.012 322.554 700.73 322.829 701.288 323.379C701.846 323.924 702.125 324.774 702.125 325.929V332.5H700.617V325.929C700.617 325.205 700.419 324.687 700.022 324.376C699.626 324.065 699.16 323.909 698.623 323.909C697.932 323.909 697.397 324.118 697.018 324.536C696.639 324.949 696.449 325.473 696.449 326.108V332.5H694.915V325.776C694.915 325.217 694.734 324.768 694.372 324.427C694.01 324.082 693.543 323.909 692.972 323.909C692.58 323.909 692.214 324.013 691.873 324.222C691.536 324.431 691.263 324.721 691.054 325.092C690.85 325.458 690.748 325.882 690.748 326.364V332.5H689.239ZM704.884 336.182V322.682H706.341V324.241H706.52C706.631 324.071 706.784 323.854 706.98 323.589C707.18 323.321 707.466 323.082 707.837 322.874C708.212 322.661 708.719 322.554 709.358 322.554C710.185 322.554 710.913 322.761 711.544 323.174C712.175 323.587 712.667 324.173 713.021 324.932C713.374 325.69 713.551 326.585 713.551 327.616C713.551 328.656 713.374 329.558 713.021 330.32C712.667 331.079 712.177 331.667 711.551 332.085C710.924 332.498 710.202 332.705 709.384 332.705C708.753 332.705 708.248 332.6 707.869 332.391C707.489 332.178 707.198 331.937 706.993 331.669C706.788 331.396 706.631 331.17 706.52 330.991H706.392V336.182H704.884ZM706.367 327.591C706.367 328.332 706.475 328.987 706.693 329.553C706.91 330.116 707.227 330.557 707.645 330.876C708.063 331.192 708.574 331.349 709.179 331.349C709.81 331.349 710.336 331.183 710.758 330.851C711.184 330.514 711.504 330.062 711.717 329.496C711.934 328.925 712.043 328.29 712.043 327.591C712.043 326.901 711.936 326.278 711.723 325.724C711.514 325.166 711.197 324.725 710.771 324.401C710.349 324.073 709.818 323.909 709.179 323.909C708.565 323.909 708.05 324.065 707.632 324.376C707.215 324.683 706.899 325.113 706.686 325.667C706.473 326.217 706.367 326.858 706.367 327.591ZM717.361 319.409V332.5H715.852V319.409H717.361ZM724.24 332.705C723.294 332.705 722.478 332.496 721.792 332.078C721.11 331.656 720.584 331.068 720.213 330.314C719.847 329.555 719.664 328.673 719.664 327.668C719.664 326.662 719.847 325.776 720.213 325.009C720.584 324.237 721.1 323.636 721.76 323.206C722.425 322.771 723.201 322.554 724.087 322.554C724.598 322.554 725.103 322.639 725.602 322.81C726.1 322.98 726.554 323.257 726.963 323.641C727.372 324.02 727.698 324.523 727.941 325.149C728.184 325.776 728.306 326.547 728.306 327.463V328.102H720.737V326.798H726.772C726.772 326.244 726.661 325.75 726.439 325.315C726.222 324.881 725.911 324.538 725.506 324.286C725.105 324.035 724.632 323.909 724.087 323.909C723.486 323.909 722.966 324.058 722.527 324.357C722.093 324.651 721.758 325.034 721.524 325.507C721.289 325.98 721.172 326.487 721.172 327.028V327.898C721.172 328.639 721.3 329.268 721.556 329.783C721.816 330.295 722.176 330.685 722.636 330.953C723.096 331.217 723.631 331.349 724.24 331.349C724.637 331.349 724.995 331.294 725.314 331.183C725.638 331.068 725.917 330.898 726.152 330.672C726.386 330.442 726.567 330.156 726.695 329.815L728.152 330.224C727.999 330.719 727.741 331.153 727.379 331.528C727.017 331.899 726.569 332.189 726.036 332.398C725.504 332.602 724.905 332.705 724.24 332.705ZM730.6 332.5V322.682H732.058V324.216H732.186C732.39 323.692 732.72 323.285 733.176 322.995C733.632 322.701 734.18 322.554 734.819 322.554C735.467 322.554 736.006 322.701 736.436 322.995C736.871 323.285 737.21 323.692 737.453 324.216H737.555C737.806 323.709 738.184 323.306 738.686 323.008C739.189 322.705 739.792 322.554 740.495 322.554C741.373 322.554 742.091 322.829 742.649 323.379C743.208 323.924 743.487 324.774 743.487 325.929V332.5H741.978V325.929C741.978 325.205 741.78 324.687 741.384 324.376C740.987 324.065 740.521 323.909 739.984 323.909C739.294 323.909 738.759 324.118 738.38 324.536C738 324.949 737.811 325.473 737.811 326.108V332.5H736.277V325.776C736.277 325.217 736.095 324.768 735.733 324.427C735.371 324.082 734.904 323.909 734.333 323.909C733.941 323.909 733.575 324.013 733.234 324.222C732.897 324.431 732.625 324.721 732.416 325.092C732.211 325.458 732.109 325.882 732.109 326.364V332.5H730.6ZM750.361 332.705C749.415 332.705 748.599 332.496 747.913 332.078C747.231 331.656 746.705 331.068 746.334 330.314C745.968 329.555 745.785 328.673 745.785 327.668C745.785 326.662 745.968 325.776 746.334 325.009C746.705 324.237 747.221 323.636 747.881 323.206C748.546 322.771 749.322 322.554 750.208 322.554C750.719 322.554 751.224 322.639 751.723 322.81C752.222 322.98 752.675 323.257 753.084 323.641C753.494 324.02 753.82 324.523 754.062 325.149C754.305 325.776 754.427 326.547 754.427 327.463V328.102H746.859V326.798H752.893C752.893 326.244 752.782 325.75 752.56 325.315C752.343 324.881 752.032 324.538 751.627 324.286C751.226 324.035 750.753 323.909 750.208 323.909C749.607 323.909 749.087 324.058 748.648 324.357C748.214 324.651 747.879 325.034 747.645 325.507C747.41 325.98 747.293 326.487 747.293 327.028V327.898C747.293 328.639 747.421 329.268 747.677 329.783C747.937 330.295 748.297 330.685 748.757 330.953C749.217 331.217 749.752 331.349 750.361 331.349C750.758 331.349 751.116 331.294 751.435 331.183C751.759 331.068 752.038 330.898 752.273 330.672C752.507 330.442 752.688 330.156 752.816 329.815L754.273 330.224C754.12 330.719 753.862 331.153 753.5 331.528C753.138 331.899 752.69 332.189 752.158 332.398C751.625 332.602 751.026 332.705 750.361 332.705ZM758.23 326.594V332.5H756.722V322.682H758.179V324.216H758.307C758.537 323.717 758.886 323.317 759.355 323.014C759.824 322.707 760.429 322.554 761.17 322.554C761.835 322.554 762.417 322.69 762.915 322.963C763.414 323.232 763.802 323.641 764.079 324.19C764.356 324.736 764.494 325.426 764.494 326.261V332.5H762.986V326.364C762.986 325.592 762.785 324.991 762.385 324.561C761.984 324.126 761.435 323.909 760.736 323.909C760.254 323.909 759.824 324.013 759.445 324.222C759.07 324.431 758.773 324.736 758.556 325.136C758.339 325.537 758.23 326.023 758.23 326.594ZM771.521 322.682V323.96H766.433V322.682H771.521ZM767.916 320.33H769.424V329.688C769.424 330.114 769.486 330.433 769.609 330.646C769.737 330.855 769.899 330.996 770.095 331.068C770.296 331.136 770.506 331.17 770.728 331.17C770.894 331.17 771.031 331.162 771.137 331.145C771.244 331.124 771.329 331.107 771.393 331.094L771.7 332.449C771.597 332.487 771.455 332.526 771.271 332.564C771.088 332.607 770.856 332.628 770.575 332.628C770.149 332.628 769.731 332.536 769.322 332.353C768.917 332.17 768.58 331.891 768.312 331.516C768.048 331.141 767.916 330.668 767.916 330.097V320.33ZM776.679 332.73C776.057 332.73 775.492 332.613 774.985 332.379C774.478 332.14 774.075 331.797 773.777 331.349C773.479 330.898 773.33 330.352 773.33 329.713C773.33 329.151 773.44 328.695 773.662 328.345C773.884 327.991 774.18 327.714 774.551 327.514C774.921 327.314 775.33 327.165 775.778 327.067C776.229 326.964 776.683 326.884 777.139 326.824C777.736 326.747 778.22 326.69 778.59 326.651C778.965 326.609 779.238 326.538 779.408 326.44C779.583 326.342 779.671 326.172 779.671 325.929V325.878C779.671 325.247 779.498 324.757 779.153 324.408C778.812 324.058 778.294 323.884 777.6 323.884C776.879 323.884 776.315 324.041 775.906 324.357C775.497 324.672 775.209 325.009 775.043 325.366L773.611 324.855C773.867 324.259 774.207 323.794 774.634 323.462C775.064 323.125 775.533 322.891 776.04 322.759C776.551 322.622 777.054 322.554 777.548 322.554C777.864 322.554 778.226 322.592 778.635 322.669C779.048 322.741 779.447 322.893 779.83 323.123C780.218 323.353 780.54 323.7 780.796 324.165C781.051 324.629 781.179 325.251 781.179 326.031V332.5H779.671V331.17H779.594C779.492 331.384 779.321 331.612 779.082 331.854C778.844 332.097 778.526 332.304 778.13 332.474C777.734 332.645 777.25 332.73 776.679 332.73ZM776.909 331.375C777.506 331.375 778.009 331.258 778.418 331.023C778.831 330.789 779.142 330.487 779.351 330.116C779.564 329.745 779.671 329.355 779.671 328.946V327.565C779.607 327.642 779.466 327.712 779.249 327.776C779.036 327.836 778.788 327.889 778.507 327.936C778.23 327.979 777.96 328.017 777.695 328.051C777.435 328.081 777.225 328.107 777.063 328.128C776.671 328.179 776.304 328.262 775.963 328.377C775.627 328.488 775.354 328.656 775.145 328.882C774.94 329.104 774.838 329.406 774.838 329.79C774.838 330.314 775.032 330.71 775.42 330.979C775.812 331.243 776.308 331.375 776.909 331.375ZM783.932 332.5V322.682H785.39V324.165H785.492C785.671 323.679 785.995 323.285 786.464 322.982C786.932 322.68 787.461 322.528 788.049 322.528C788.16 322.528 788.298 322.531 788.464 322.535C788.631 322.539 788.756 322.545 788.842 322.554V324.088C788.79 324.075 788.673 324.056 788.49 324.031C788.311 324.001 788.121 323.986 787.921 323.986C787.444 323.986 787.018 324.086 786.643 324.286C786.272 324.482 785.978 324.755 785.761 325.104C785.547 325.45 785.441 325.844 785.441 326.287V332.5H783.932ZM791.9 336.182C791.644 336.182 791.416 336.161 791.216 336.118C791.016 336.08 790.877 336.041 790.801 336.003L791.184 334.673C791.551 334.767 791.875 334.801 792.156 334.776C792.437 334.75 792.686 334.624 792.904 334.398C793.125 334.177 793.328 333.817 793.511 333.318L793.792 332.551L790.161 322.682H791.798L794.508 330.506H794.61L797.321 322.682H798.957L794.789 333.932C794.602 334.439 794.37 334.859 794.093 335.191C793.816 335.528 793.494 335.777 793.127 335.939C792.765 336.101 792.356 336.182 791.9 336.182Z" fill="#293845"/>
<path d="M629 104H203C201.343 104 200 105.343 200 107V521C200 522.657 201.343 524 203 524H629C630.657 524 632 522.657 632 521V107C632 105.343 630.657 104 629 104Z" stroke="#C3CFD9" stroke-width="2" stroke-linecap="round" stroke-linejoin="round"/>
<path d="M388.656 303.898V302.875L396.889 298.682V300.318L390.573 303.361L390.624 303.259V303.514L390.573 303.412L396.889 306.455V308.091L388.656 303.898ZM400.086 308.5V298.682H401.544V300.216H401.671C401.876 299.692 402.206 299.285 402.662 298.995C403.118 298.701 403.666 298.554 404.305 298.554C404.953 298.554 405.492 298.701 405.922 298.995C406.357 299.285 406.696 299.692 406.939 300.216H407.041C407.292 299.709 407.669 299.306 408.172 299.008C408.675 298.705 409.278 298.554 409.981 298.554C410.859 298.554 411.577 298.829 412.135 299.379C412.693 299.924 412.973 300.774 412.973 301.929V308.5H411.464V301.929C411.464 301.205 411.266 300.687 410.87 300.376C410.473 300.065 410.007 299.909 409.47 299.909C408.779 299.909 408.245 300.118 407.865 300.536C407.486 300.949 407.296 301.473 407.296 302.108V308.5H405.762V301.776C405.762 301.217 405.581 300.768 405.219 300.427C404.857 300.082 404.39 299.909 403.819 299.909C403.427 299.909 403.061 300.013 402.72 300.222C402.383 300.431 402.11 300.721 401.902 301.092C401.697 301.458 401.595 301.882 401.595 302.364V308.5H400.086ZM418.62 308.73C417.998 308.73 417.433 308.613 416.926 308.379C416.419 308.14 416.016 307.797 415.718 307.349C415.42 306.898 415.271 306.352 415.271 305.713C415.271 305.151 415.381 304.695 415.603 304.345C415.825 303.991 416.121 303.714 416.491 303.514C416.862 303.314 417.271 303.165 417.719 303.067C418.17 302.964 418.624 302.884 419.08 302.824C419.677 302.747 420.16 302.69 420.531 302.651C420.906 302.609 421.179 302.538 421.349 302.44C421.524 302.342 421.611 302.172 421.611 301.929V301.878C421.611 301.247 421.439 300.757 421.094 300.408C420.753 300.058 420.235 299.884 419.54 299.884C418.82 299.884 418.256 300.041 417.847 300.357C417.437 300.672 417.15 301.009 416.984 301.366L415.552 300.855C415.807 300.259 416.148 299.794 416.575 299.462C417.005 299.125 417.474 298.891 417.981 298.759C418.492 298.622 418.995 298.554 419.489 298.554C419.805 298.554 420.167 298.592 420.576 298.669C420.989 298.741 421.388 298.893 421.771 299.123C422.159 299.353 422.481 299.7 422.736 300.165C422.992 300.629 423.12 301.251 423.12 302.031V308.5H421.611V307.17H421.535C421.432 307.384 421.262 307.612 421.023 307.854C420.785 308.097 420.467 308.304 420.071 308.474C419.675 308.645 419.191 308.73 418.62 308.73ZM418.85 307.375C419.447 307.375 419.95 307.258 420.359 307.023C420.772 306.789 421.083 306.487 421.292 306.116C421.505 305.745 421.611 305.355 421.611 304.946V303.565C421.548 303.642 421.407 303.712 421.19 303.776C420.977 303.836 420.729 303.889 420.448 303.936C420.171 303.979 419.901 304.017 419.636 304.051C419.376 304.081 419.165 304.107 419.004 304.128C418.611 304.179 418.245 304.262 417.904 304.377C417.567 304.488 417.295 304.656 417.086 304.882C416.881 305.104 416.779 305.406 416.779 305.79C416.779 306.314 416.973 306.71 417.361 306.979C417.753 307.243 418.249 307.375 418.85 307.375ZM425.873 308.5V298.682H427.382V308.5H425.873ZM426.64 297.045C426.346 297.045 426.093 296.945 425.88 296.745C425.671 296.545 425.567 296.304 425.567 296.023C425.567 295.741 425.671 295.501 425.88 295.3C426.093 295.1 426.346 295 426.64 295C426.934 295 427.186 295.1 427.395 295.3C427.608 295.501 427.714 295.741 427.714 296.023C427.714 296.304 427.608 296.545 427.395 296.745C427.186 296.945 426.934 297.045 426.64 297.045ZM431.653 302.594V308.5H430.145V298.682H431.602V300.216H431.73C431.96 299.717 432.31 299.317 432.778 299.014C433.247 298.707 433.852 298.554 434.594 298.554C435.258 298.554 435.84 298.69 436.339 298.963C436.837 299.232 437.225 299.641 437.502 300.19C437.779 300.736 437.918 301.426 437.918 302.261V308.5H436.409V302.364C436.409 301.592 436.209 300.991 435.808 300.561C435.408 300.126 434.858 299.909 434.159 299.909C433.678 299.909 433.247 300.013 432.868 300.222C432.493 300.431 432.197 300.736 431.979 301.136C431.762 301.537 431.653 302.023 431.653 302.594ZM449.342 303.898L441.109 308.091V306.455L447.424 303.412L447.373 303.514V303.259L447.424 303.361L441.109 300.318V298.682L449.342 302.875V303.898Z" fill="#293845"/>
<path d="M397.977 332.5V322.682H399.434V324.216H399.562C399.767 323.692 400.097 323.285 400.553 322.995C401.009 322.701 401.556 322.554 402.196 322.554C402.843 322.554 403.382 322.701 403.813 322.995C404.247 323.285 404.586 323.692 404.829 324.216H404.931C405.183 323.709 405.56 323.306 406.063 323.008C406.566 322.705 407.169 322.554 407.872 322.554C408.75 322.554 409.468 322.829 410.026 323.379C410.584 323.924 410.863 324.774 410.863 325.929V332.5H409.355V325.929C409.355 325.205 409.157 324.687 408.76 324.376C408.364 324.065 407.897 323.909 407.36 323.909C406.67 323.909 406.135 324.118 405.756 324.536C405.377 324.949 405.187 325.473 405.187 326.108V332.5H403.653V325.776C403.653 325.217 403.472 324.768 403.11 324.427C402.747 324.082 402.281 323.909 401.71 323.909C401.318 323.909 400.951 324.013 400.61 324.222C400.274 324.431 400.001 324.721 399.792 325.092C399.588 325.458 399.485 325.882 399.485 326.364V332.5H397.977ZM416.511 332.73C415.888 332.73 415.324 332.613 414.817 332.379C414.31 332.14 413.907 331.797 413.609 331.349C413.31 330.898 413.161 330.352 413.161 329.713C413.161 329.151 413.272 328.695 413.494 328.345C413.715 327.991 414.011 327.714 414.382 327.514C414.753 327.314 415.162 327.165 415.609 327.067C416.061 326.964 416.515 326.884 416.971 326.824C417.567 326.747 418.051 326.69 418.422 326.651C418.797 326.609 419.07 326.538 419.24 326.44C419.415 326.342 419.502 326.172 419.502 325.929V325.878C419.502 325.247 419.33 324.757 418.984 324.408C418.643 324.058 418.126 323.884 417.431 323.884C416.711 323.884 416.146 324.041 415.737 324.357C415.328 324.672 415.04 325.009 414.874 325.366L413.442 324.855C413.698 324.259 414.039 323.794 414.465 323.462C414.896 323.125 415.364 322.891 415.871 322.759C416.383 322.622 416.886 322.554 417.38 322.554C417.695 322.554 418.057 322.592 418.467 322.669C418.88 322.741 419.278 322.893 419.662 323.123C420.05 323.353 420.371 323.7 420.627 324.165C420.883 324.629 421.011 325.251 421.011 326.031V332.5H419.502V331.17H419.425C419.323 331.384 419.153 331.612 418.914 331.854C418.675 332.097 418.358 332.304 417.962 332.474C417.565 332.645 417.082 332.73 416.511 332.73ZM416.741 331.375C417.337 331.375 417.84 331.258 418.249 331.023C418.663 330.789 418.974 330.487 419.182 330.116C419.396 329.745 419.502 329.355 419.502 328.946V327.565C419.438 327.642 419.298 327.712 419.08 327.776C418.867 327.836 418.62 327.889 418.339 327.936C418.062 327.979 417.791 328.017 417.527 328.051C417.267 328.081 417.056 328.107 416.894 328.128C416.502 328.179 416.136 328.262 415.795 328.377C415.458 328.488 415.185 328.656 414.977 328.882C414.772 329.104 414.67 329.406 414.67 329.79C414.67 330.314 414.864 330.71 415.251 330.979C415.643 331.243 416.14 331.375 416.741 331.375ZM423.764 332.5V322.682H425.273V332.5H423.764ZM424.531 321.045C424.237 321.045 423.983 320.945 423.77 320.745C423.562 320.545 423.457 320.304 423.457 320.023C423.457 319.741 423.562 319.501 423.77 319.3C423.983 319.1 424.237 319 424.531 319C424.825 319 425.076 319.1 425.285 319.3C425.498 319.501 425.605 319.741 425.605 320.023C425.605 320.304 425.498 320.545 425.285 320.745C425.076 320.945 424.825 321.045 424.531 321.045ZM429.544 326.594V332.5H428.035V322.682H429.493V324.216H429.621C429.851 323.717 430.2 323.317 430.669 323.014C431.138 322.707 431.743 322.554 432.484 322.554C433.149 322.554 433.731 322.69 434.229 322.963C434.728 323.232 435.116 323.641 435.393 324.19C435.67 324.736 435.808 325.426 435.808 326.261V332.5H434.3V326.364C434.3 325.592 434.099 324.991 433.699 324.561C433.298 324.126 432.749 323.909 432.05 323.909C431.568 323.909 431.138 324.013 430.758 324.222C430.383 324.431 430.087 324.736 429.87 325.136C429.653 325.537 429.544 326.023 429.544 326.594Z" fill="#293845"/>
<path d="M821 524H11C9.34315 524 8 525.343 8 527V617C8 618.657 9.34315 620 11 620H821C822.657 620 824 618.657 824 617V527C824 525.343 822.657 524 821 524Z" stroke="#C3CFD9" stroke-width="2" stroke-linecap="round" stroke-linejoin="round"/>
<path d="M384.787 561.898V560.875L393.02 556.682V558.318L386.705 561.361L386.756 561.259V561.514L386.705 561.412L393.02 564.455V566.091L384.787 561.898ZM400.59 556.682V557.96H395.297V556.682H400.59ZM396.882 566.5V555.327C396.882 554.764 397.014 554.295 397.279 553.92C397.543 553.545 397.886 553.264 398.308 553.077C398.73 552.889 399.175 552.795 399.644 552.795C400.014 552.795 400.317 552.825 400.551 552.885C400.786 552.945 400.96 553 401.076 553.051L400.641 554.355C400.564 554.33 400.458 554.298 400.321 554.259C400.189 554.221 400.014 554.202 399.797 554.202C399.299 554.202 398.938 554.327 398.717 554.579C398.5 554.83 398.391 555.199 398.391 555.685V566.5H396.882ZM406.288 566.705C405.402 566.705 404.624 566.494 403.955 566.072C403.29 565.65 402.771 565.06 402.396 564.301C402.025 563.543 401.839 562.656 401.839 561.642C401.839 560.619 402.025 559.727 402.396 558.964C402.771 558.201 403.29 557.609 403.955 557.187C404.624 556.765 405.402 556.554 406.288 556.554C407.175 556.554 407.95 556.765 408.615 557.187C409.284 557.609 409.804 558.201 410.175 558.964C410.55 559.727 410.737 560.619 410.737 561.642C410.737 562.656 410.55 563.543 410.175 564.301C409.804 565.06 409.284 565.65 408.615 566.072C407.95 566.494 407.175 566.705 406.288 566.705ZM406.288 565.349C406.962 565.349 407.516 565.177 407.95 564.832C408.385 564.487 408.707 564.033 408.915 563.47C409.124 562.908 409.229 562.298 409.229 561.642C409.229 560.986 409.124 560.374 408.915 559.808C408.707 559.241 408.385 558.783 407.95 558.433C407.516 558.084 406.962 557.909 406.288 557.909C405.615 557.909 405.061 558.084 404.626 558.433C404.192 558.783 403.87 559.241 403.661 559.808C403.452 560.374 403.348 560.986 403.348 561.642C403.348 562.298 403.452 562.908 403.661 563.47C403.87 564.033 404.192 564.487 404.626 564.832C405.061 565.177 405.615 565.349 406.288 565.349ZM417.028 566.705C416.142 566.705 415.364 566.494 414.695 566.072C414.031 565.65 413.511 565.06 413.136 564.301C412.765 563.543 412.58 562.656 412.58 561.642C412.58 560.619 412.765 559.727 413.136 558.964C413.511 558.201 414.031 557.609 414.695 557.187C415.364 556.765 416.142 556.554 417.028 556.554C417.915 556.554 418.69 556.765 419.355 557.187C420.024 557.609 420.544 558.201 420.915 558.964C421.29 559.727 421.477 560.619 421.477 561.642C421.477 562.656 421.29 563.543 420.915 564.301C420.544 565.06 420.024 565.65 419.355 566.072C418.69 566.494 417.915 566.705 417.028 566.705ZM417.028 565.349C417.702 565.349 418.256 565.177 418.69 564.832C419.125 564.487 419.447 564.033 419.656 563.47C419.864 562.908 419.969 562.298 419.969 561.642C419.969 560.986 419.864 560.374 419.656 559.808C419.447 559.241 419.125 558.783 418.69 558.433C418.256 558.084 417.702 557.909 417.028 557.909C416.355 557.909 415.801 558.084 415.367 558.433C414.932 558.783 414.61 559.241 414.401 559.808C414.193 560.374 414.088 560.986 414.088 561.642C414.088 562.298 414.193 562.908 414.401 563.47C414.61 564.033 414.932 564.487 415.367 564.832C415.801 565.177 416.355 565.349 417.028 565.349ZM428.05 556.682V557.96H422.962V556.682H428.05ZM424.445 554.33H425.953V563.688C425.953 564.114 426.015 564.433 426.139 564.646C426.267 564.855 426.429 564.996 426.625 565.068C426.825 565.136 427.036 565.17 427.257 565.17C427.424 565.17 427.56 565.162 427.666 565.145C427.773 565.124 427.858 565.107 427.922 565.094L428.229 566.449C428.127 566.487 427.984 566.526 427.801 566.564C427.617 566.607 427.385 566.628 427.104 566.628C426.678 566.628 426.26 566.536 425.851 566.353C425.446 566.17 425.11 565.891 424.841 565.516C424.577 565.141 424.445 564.668 424.445 564.097V554.33ZM434.33 566.705C433.384 566.705 432.568 566.496 431.882 566.078C431.2 565.656 430.674 565.068 430.303 564.314C429.937 563.555 429.753 562.673 429.753 561.668C429.753 560.662 429.937 559.776 430.303 559.009C430.674 558.237 431.19 557.636 431.85 557.206C432.515 556.771 433.29 556.554 434.177 556.554C434.688 556.554 435.193 556.639 435.692 556.81C436.19 556.98 436.644 557.257 437.053 557.641C437.462 558.02 437.788 558.523 438.031 559.149C438.274 559.776 438.396 560.547 438.396 561.463V562.102H430.827V560.798H436.861C436.861 560.244 436.751 559.75 436.529 559.315C436.312 558.881 436.001 558.538 435.596 558.286C435.195 558.035 434.722 557.909 434.177 557.909C433.576 557.909 433.056 558.058 432.617 558.357C432.182 558.651 431.848 559.034 431.614 559.507C431.379 559.98 431.262 560.487 431.262 561.028V561.898C431.262 562.639 431.39 563.268 431.646 563.783C431.905 564.295 432.266 564.685 432.726 564.953C433.186 565.217 433.721 565.349 434.33 565.349C434.726 565.349 435.084 565.294 435.404 565.183C435.728 565.068 436.007 564.898 436.241 564.672C436.476 564.442 436.657 564.156 436.785 563.815L438.242 564.224C438.089 564.719 437.831 565.153 437.469 565.528C437.106 565.899 436.659 566.189 436.126 566.398C435.594 566.602 434.995 566.705 434.33 566.705ZM440.69 566.5V556.682H442.148V558.165H442.25C442.429 557.679 442.753 557.285 443.222 556.982C443.69 556.68 444.219 556.528 444.807 556.528C444.918 556.528 445.056 556.531 445.222 556.535C445.388 556.539 445.514 556.545 445.599 556.554V558.088C445.548 558.075 445.431 558.056 445.248 558.031C445.069 558.001 444.879 557.986 444.679 557.986C444.202 557.986 443.775 558.086 443.4 558.286C443.03 558.482 442.736 558.755 442.518 559.104C442.305 559.45 442.199 559.844 442.199 560.287V566.5H440.69ZM456.055 561.898L447.822 566.091V564.455L454.138 561.412L454.086 561.514V561.259L454.138 561.361L447.822 558.318V556.682L456.055 560.875V561.898Z" fill="#293845"/>
<path d="M377.884 590.705C376.964 590.705 376.171 590.487 375.506 590.053C374.841 589.618 374.33 589.019 373.972 588.256C373.614 587.494 373.435 586.622 373.435 585.642C373.435 584.645 373.618 583.765 373.985 583.002C374.356 582.235 374.871 581.636 375.532 581.206C376.196 580.771 376.972 580.554 377.858 580.554C378.549 580.554 379.171 580.682 379.725 580.938C380.279 581.193 380.733 581.551 381.086 582.011C381.44 582.472 381.66 583.009 381.745 583.622H380.236C380.121 583.175 379.866 582.778 379.469 582.433C379.077 582.084 378.549 581.909 377.884 581.909C377.296 581.909 376.78 582.062 376.337 582.369C375.898 582.672 375.555 583.1 375.308 583.654C375.065 584.204 374.944 584.849 374.944 585.591C374.944 586.349 375.063 587.01 375.302 587.572C375.544 588.135 375.885 588.572 376.324 588.883C376.767 589.194 377.287 589.349 377.884 589.349C378.276 589.349 378.632 589.281 378.951 589.145C379.271 589.009 379.542 588.812 379.763 588.557C379.985 588.301 380.142 587.994 380.236 587.636H381.745C381.66 588.216 381.449 588.738 381.112 589.202C380.78 589.663 380.339 590.029 379.789 590.302C379.243 590.57 378.608 590.705 377.884 590.705ZM387.939 590.705C387.052 590.705 386.275 590.494 385.606 590.072C384.941 589.65 384.421 589.06 384.046 588.301C383.675 587.543 383.49 586.656 383.49 585.642C383.49 584.619 383.675 583.727 384.046 582.964C384.421 582.201 384.941 581.609 385.606 581.187C386.275 580.765 387.052 580.554 387.939 580.554C388.825 580.554 389.601 580.765 390.265 581.187C390.934 581.609 391.454 582.201 391.825 582.964C392.2 583.727 392.388 584.619 392.388 585.642C392.388 586.656 392.2 587.543 391.825 588.301C391.454 589.06 390.934 589.65 390.265 590.072C389.601 590.494 388.825 590.705 387.939 590.705ZM387.939 589.349C388.612 589.349 389.166 589.177 389.601 588.832C390.035 588.487 390.357 588.033 390.566 587.47C390.775 586.908 390.879 586.298 390.879 585.642C390.879 584.986 390.775 584.374 390.566 583.808C390.357 583.241 390.035 582.783 389.601 582.433C389.166 582.084 388.612 581.909 387.939 581.909C387.265 581.909 386.711 582.084 386.277 582.433C385.842 582.783 385.52 583.241 385.312 583.808C385.103 584.374 384.998 584.986 384.998 585.642C384.998 586.298 385.103 586.908 385.312 587.47C385.52 588.033 385.842 588.487 386.277 588.832C386.711 589.177 387.265 589.349 387.939 589.349ZM396.199 584.594V590.5H394.69V580.682H396.148V582.216H396.275C396.506 581.717 396.855 581.317 397.324 581.014C397.793 580.707 398.398 580.554 399.139 580.554C399.804 580.554 400.386 580.69 400.884 580.963C401.383 581.232 401.771 581.641 402.047 582.19C402.324 582.736 402.463 583.426 402.463 584.261V590.5H400.954V584.364C400.954 583.592 400.754 582.991 400.354 582.561C399.953 582.126 399.403 581.909 398.704 581.909C398.223 581.909 397.793 582.013 397.413 582.222C397.038 582.431 396.742 582.736 396.525 583.136C396.307 583.537 396.199 584.023 396.199 584.594ZM409.489 580.682V581.96H404.401V580.682H409.489ZM405.884 578.33H407.393V587.688C407.393 588.114 407.455 588.433 407.578 588.646C407.706 588.855 407.868 588.996 408.064 589.068C408.264 589.136 408.475 589.17 408.697 589.17C408.863 589.17 408.999 589.162 409.106 589.145C409.212 589.124 409.298 589.107 409.362 589.094L409.668 590.449C409.566 590.487 409.423 590.526 409.24 590.564C409.057 590.607 408.825 590.628 408.543 590.628C408.117 590.628 407.7 590.536 407.291 590.353C406.886 590.17 406.549 589.891 406.281 589.516C406.016 589.141 405.884 588.668 405.884 588.097V578.33ZM415.77 590.705C414.824 590.705 414.008 590.496 413.321 590.078C412.64 589.656 412.113 589.068 411.743 588.314C411.376 587.555 411.193 586.673 411.193 585.668C411.193 584.662 411.376 583.776 411.743 583.009C412.113 582.237 412.629 581.636 413.29 581.206C413.954 580.771 414.73 580.554 415.616 580.554C416.128 580.554 416.633 580.639 417.131 580.81C417.63 580.98 418.084 581.257 418.493 581.641C418.902 582.02 419.228 582.523 419.471 583.149C419.714 583.776 419.835 584.547 419.835 585.463V586.102H412.267V584.798H418.301C418.301 584.244 418.19 583.75 417.968 583.315C417.751 582.881 417.44 582.538 417.035 582.286C416.635 582.035 416.162 581.909 415.616 581.909C415.015 581.909 414.495 582.058 414.057 582.357C413.622 582.651 413.287 583.034 413.053 583.507C412.819 583.98 412.701 584.487 412.701 585.028V585.898C412.701 586.639 412.829 587.268 413.085 587.783C413.345 588.295 413.705 588.685 414.165 588.953C414.625 589.217 415.16 589.349 415.77 589.349C416.166 589.349 416.524 589.294 416.843 589.183C417.167 589.068 417.446 588.898 417.681 588.672C417.915 588.442 418.096 588.156 418.224 587.815L419.682 588.224C419.528 588.719 419.27 589.153 418.908 589.528C418.546 589.899 418.098 590.189 417.566 590.398C417.033 590.602 416.434 590.705 415.77 590.705ZM423.638 584.594V590.5H422.13V580.682H423.587V582.216H423.715C423.945 581.717 424.294 581.317 424.763 581.014C425.232 580.707 425.837 580.554 426.579 580.554C427.243 580.554 427.825 580.69 428.324 580.963C428.822 581.232 429.21 581.641 429.487 582.19C429.764 582.736 429.902 583.426 429.902 584.261V590.5H428.394V584.364C428.394 583.592 428.194 582.991 427.793 582.561C427.392 582.126 426.843 581.909 426.144 581.909C425.662 581.909 425.232 582.013 424.853 582.222C424.478 582.431 424.182 582.736 423.964 583.136C423.747 583.537 423.638 584.023 423.638 584.594ZM436.929 580.682V581.96H431.841V580.682H436.929ZM433.324 578.33H434.832V587.688C434.832 588.114 434.894 588.433 435.018 588.646C435.146 588.855 435.307 588.996 435.503 589.068C435.704 589.136 435.915 589.17 436.136 589.17C436.302 589.17 436.439 589.162 436.545 589.145C436.652 589.124 436.737 589.107 436.801 589.094L437.108 590.449C437.006 590.487 436.863 590.526 436.68 590.564C436.496 590.607 436.264 590.628 435.983 590.628C435.557 590.628 435.139 590.536 434.73 590.353C434.325 590.17 433.989 589.891 433.72 589.516C433.456 589.141 433.324 588.668 433.324 588.097V578.33ZM439.198 590.5V580.682H440.707V590.5H439.198ZM439.965 579.045C439.671 579.045 439.418 578.945 439.204 578.745C438.996 578.545 438.891 578.304 438.891 578.023C438.891 577.741 438.996 577.501 439.204 577.3C439.418 577.1 439.671 577 439.965 577C440.259 577 440.511 577.1 440.719 577.3C440.932 577.501 441.039 577.741 441.039 578.023C441.039 578.304 440.932 578.545 440.719 578.745C440.511 578.945 440.259 579.045 439.965 579.045ZM444.978 584.594V590.5H443.47V580.682H444.927V582.216H445.055C445.285 581.717 445.634 581.317 446.103 581.014C446.572 580.707 447.177 580.554 447.918 580.554C448.583 580.554 449.165 580.69 449.663 580.963C450.162 581.232 450.55 581.641 450.827 582.19C451.104 582.736 451.242 583.426 451.242 584.261V590.5H449.734V584.364C449.734 583.592 449.533 582.991 449.133 582.561C448.732 582.126 448.183 581.909 447.484 581.909C447.002 581.909 446.572 582.013 446.193 582.222C445.818 582.431 445.521 582.736 445.304 583.136C445.087 583.537 444.978 584.023 444.978 584.594ZM458.371 580.682V581.96H453.078V580.682H458.371ZM454.664 590.5V579.327C454.664 578.764 454.796 578.295 455.06 577.92C455.324 577.545 455.667 577.264 456.089 577.077C456.511 576.889 456.956 576.795 457.425 576.795C457.796 576.795 458.098 576.825 458.333 576.885C458.567 576.945 458.742 577 458.857 577.051L458.422 578.355C458.345 578.33 458.239 578.298 458.103 578.259C457.97 578.221 457.796 578.202 457.578 578.202C457.08 578.202 456.72 578.327 456.498 578.579C456.281 578.83 456.172 579.199 456.172 579.685V590.5H454.664ZM464.07 590.705C463.183 590.705 462.405 590.494 461.736 590.072C461.072 589.65 460.552 589.06 460.177 588.301C459.806 587.543 459.621 586.656 459.621 585.642C459.621 584.619 459.806 583.727 460.177 582.964C460.552 582.201 461.072 581.609 461.736 581.187C462.405 580.765 463.183 580.554 464.07 580.554C464.956 580.554 465.731 580.765 466.396 581.187C467.065 581.609 467.585 582.201 467.956 582.964C468.331 583.727 468.518 584.619 468.518 585.642C468.518 586.656 468.331 587.543 467.956 588.301C467.585 589.06 467.065 589.65 466.396 590.072C465.731 590.494 464.956 590.705 464.07 590.705ZM464.07 589.349C464.743 589.349 465.297 589.177 465.731 588.832C466.166 588.487 466.488 588.033 466.697 587.47C466.905 586.908 467.01 586.298 467.01 585.642C467.01 584.986 466.905 584.374 466.697 583.808C466.488 583.241 466.166 582.783 465.731 582.433C465.297 582.084 464.743 581.909 464.07 581.909C463.396 581.909 462.842 582.084 462.408 582.433C461.973 582.783 461.651 583.241 461.442 583.808C461.234 584.374 461.129 584.986 461.129 585.642C461.129 586.298 461.234 586.908 461.442 587.47C461.651 588.033 461.973 588.487 462.408 588.832C462.842 589.177 463.396 589.349 464.07 589.349Z" fill="#293845"/>
</svg>
